<svg fill="none" viewBox="0 0 64 64"><rect width="61" height="61" x="1.5" y="1.5" fill="url(#paint0_linear_190_14)" stroke="url(#paint1_linear_190_14)" stroke-width="3" rx="18.5"/><path fill="#fff" fill-rule="evenodd" d="M33.927 12.572a1.5 1.5 0 00-2.143-.272 19.483 19.483 0 00-7.078 12.353 15.095 15.095 0 01-3.41-3.431 1.5 1.5 0 00-2.304-.164A17.944 17.944 0 0014 33.499c0 9.941 8.059 18 18 18s18-8.059 18-18c0-7.322-4.371-13.619-10.64-16.43a14.919 14.919 0 01-5.433-4.497zM39.5 36.5a7.5 7.5 0 11-14.626-2.344 11.948 11.948 0 004.267 2.001 11.98 11.98 0 013.849-7.092A7.501 7.501 0 0139.5 36.5z" clip-rule="evenodd"/><defs><linearGradient id="paint0_linear_190_14" x1="32" x2="32" y1="0" y2="64" gradientUnits="userSpaceOnUse"><stop stop-color="#D62D52"/><stop offset="1" stop-color="#75142A"/></linearGradient><linearGradient id="paint1_linear_190_14" x1="32" x2="32" y1="0" y2="64" gradientUnits="userSpaceOnUse"><stop stop-color="#fff"/><stop offset="1" stop-color="#fff" stop-opacity=".35"/></linearGradient></defs></svg>