<svg xmlns="http://www.w3.org/2000/svg" width="64" height="64" fill="none" viewBox="0 0 64 64"><mask id="mask0_80_15" style="mask-type:alpha" width="64" height="64" x="0" y="0" maskUnits="userSpaceOnUse"><circle cx="32" cy="32" r="29" fill="#DB8900" stroke="#D3B226" stroke-width="6"/></mask><g mask="url(#mask0_80_15)"><g filter="url(#filter0_i_80_15)"><circle cx="32" cy="32" r="32" fill="#DB8900"/></g><circle cx="32" cy="32" r="29" stroke="#D3B226" stroke-width="6"/><path fill="url(#paint0_linear_80_15)" d="M33 15.48C39.84 15.48 44.36 18.88 44.36 25.52C44.36 32.24 39.84 35.6 33 35.6H25.12V48.12H19.96V15.48H33ZM25.12 31.04H32.72C37 31.04 39.2 29.12 39.2 25.52C39.2 21.92 37 20.04 32.72 20.04H25.12V31.04Z"/><rect width="28" height="72" x="8" y="3.754" fill="url(#paint1_linear_80_15)" transform="rotate(-22.5852 8 3.7536)"/></g><defs><filter id="filter0_i_80_15" width="64" height="68" x="0" y="0" color-interpolation-filters="sRGB" filterUnits="userSpaceOnUse"><feFlood flood-opacity="0" result="BackgroundImageFix"/><feBlend in="SourceGraphic" in2="BackgroundImageFix" mode="normal" result="shape"/><feColorMatrix in="SourceAlpha" result="hardAlpha" type="matrix" values="0 0 0 0 0 0 0 0 0 0 0 0 0 0 0 0 0 0 127 0"/><feOffset dy="4"/><feGaussianBlur stdDeviation="9.75"/><feComposite in2="hardAlpha" k2="-1" k3="1" operator="arithmetic"/><feColorMatrix type="matrix" values="0 0 0 0 0.475 0 0 0 0 0.304082 0 0 0 0 0.0257292 0 0 0 1 0"/><feBlend in2="shape" mode="normal" result="effect1_innerShadow_80_15"/></filter><linearGradient id="paint0_linear_80_15" x1="15.129" x2="47.654" y1="7.556" y2="45.746" gradientUnits="userSpaceOnUse"><stop stop-color="#FFE161"/><stop offset=".8" stop-color="#D3B226"/></linearGradient><linearGradient id="paint1_linear_80_15" x1="8.505" x2="33.198" y1="41.596" y2="42.12" gradientUnits="userSpaceOnUse"><stop stop-color="#fff" stop-opacity="0"/><stop offset=".495" stop-color="#fff" stop-opacity=".585"/><stop offset="1" stop-color="#fff" stop-opacity="0"/></linearGradient></defs></svg>