<svg fill="none" viewBox="0 0 64 64"><mask id="a" style="mask-type:alpha" width="64" height="64" x="0" y="0" maskUnits="userSpaceOnUse"><circle cx="32" cy="32" r="29" fill="#DB8900" stroke="#D3B226" stroke-width="6"/></mask><g mask="url(#a)"><g filter="url(#filter0_i_80_15)"><circle cx="32" cy="32" r="32" fill="#DB8900"/></g><circle cx="32" cy="32" r="29" stroke="#D3B226" stroke-width="6"/><path fill="url(#paint0_linear_80_15)" d="M33 15.48c6.84 0 11.36 3.4 11.36 10.04 0 6.72-4.52 10.08-11.36 10.08h-7.88v12.52h-5.16V15.48H33zm-7.88 15.56h7.6c4.28 0 6.48-1.92 6.48-5.52 0-3.6-2.2-5.48-6.48-5.48h-7.6v11z"/><path fill="url(#paint1_linear_80_15)" d="M8 3.754h28v72H8z" transform="rotate(-22.585 8 3.754)"/></g><defs><filter id="filter0_i_80_15" width="64" height="68" x="0" y="0" color-interpolation-filters="sRGB" filterUnits="userSpaceOnUse"><feFlood flood-opacity="0" result="BackgroundImageFix"/><feBlend in="SourceGraphic" in2="BackgroundImageFix" result="shape"/><feColorMatrix in="SourceAlpha" result="hardAlpha" values="0 0 0 0 0 0 0 0 0 0 0 0 0 0 0 0 0 0 127 0"/><feOffset dy="4"/><feGaussianBlur stdDeviation="9.75"/><feComposite in2="hardAlpha" k2="-1" k3="1" operator="arithmetic"/><feColorMatrix values="0 0 0 0 0.475 0 0 0 0 0.304082 0 0 0 0 0.0257292 0 0 0 1 0"/><feBlend in2="shape" result="effect1_innerShadow_80_15"/></filter><linearGradient id="paint0_linear_80_15" x1="15.129" x2="47.654" y1="7.556" y2="45.746" gradientUnits="userSpaceOnUse"><stop stop-color="#FFE161"/><stop offset=".8" stop-color="#D3B226"/></linearGradient><linearGradient id="paint1_linear_80_15" x1="8.505" x2="33.198" y1="41.596" y2="42.12" gradientUnits="userSpaceOnUse"><stop stop-color="#fff" stop-opacity="0"/><stop offset=".495" stop-color="#fff" stop-opacity=".585"/><stop offset="1" stop-color="#fff" stop-opacity="0"/></linearGradient></defs></svg>