<svg fill="none" viewBox="0 0 64 64"><rect width="61" height="61" x="1.5" y="1.5" fill="url(#paint0_linear_80_30)" stroke="url(#paint1_linear_80_30)" stroke-width="3" rx="18.5"/><path stroke="#fff" stroke-linecap="round" stroke-linejoin="round" stroke-width="4" d="M41 45.5H23m18 0a6 6 0 016 6H17a6 6 0 016-6m18 0v-6.75a2.25 2.25 0 00-2.25-2.25h-1.743m-14.006 9v-6.75a2.25 2.25 0 012.25-2.25h1.743m10.013 0H26.994m10.013 0a14.909 14.909 0 01-1.963-6.345m-8.05 6.345a14.909 14.909 0 001.963-6.345M18.5 16.473a92.627 92.627 0 00-5.832 1.039c.901 5.335 5.322 9.474 10.792 9.944M18.5 16.473V17c0 4.216 1.933 7.98 4.96 10.456M18.5 16.473v-3.031A96.797 96.797 0 0132 12.5c4.583 0 9.09.321 13.5.942v3.03M23.46 27.456a13.453 13.453 0 005.497 2.7M45.5 16.473V17c0 4.216-1.933 7.98-4.96 10.456m4.96-10.983c1.964.285 3.909.633 5.832 1.039-.901 5.335-5.322 9.474-10.792 9.944m0 0a13.452 13.452 0 01-5.497 2.7m0 0c-.978.225-1.997.344-3.043.344-1.047 0-2.066-.12-3.044-.345"/><defs><linearGradient id="paint0_linear_80_30" x1="32" x2="32" y1="0" y2="64" gradientUnits="userSpaceOnUse"><stop stop-color="#FFD435"/><stop offset="1" stop-color="#F5A623"/></linearGradient><linearGradient id="paint1_linear_80_30" x1="32" x2="32" y1="0" y2="64" gradientUnits="userSpaceOnUse"><stop stop-color="#fff"/><stop offset="1" stop-color="#fff" stop-opacity=".35"/></linearGradient></defs></svg>