<svg width="75" height="75" viewBox="0 0 75 75" fill="none" xmlns="http://www.w3.org/2000/svg">
<rect x="2" y="2" width="71" height="71" rx="14" fill="#A4E96B" stroke="#44A342" stroke-width="4"/>
<path d="M23.1478 26.0218C20.9507 28.2189 20.9507 31.7811 23.1478 33.9782L34.0218 44.8521C36.2189 47.0493 39.7811 47.0493 41.9782 44.8521L52.8521 33.9782C55.0493 31.7811 55.0493 28.2189 52.8521 26.0218L41.9782 15.1478C39.7811 12.9507 36.2189 12.9507 34.0218 15.1478L23.1478 26.0218Z" fill="#2563EB" stroke="#6C484D"/>
<path d="M48.8733 19.1287L48.7458 19.6042L48.8733 19.1287L34.0191 15.1485C31.0179 14.3443 27.9329 16.1255 27.1287 19.1268L23.1485 33.9808C22.3443 36.9821 24.1254 40.0671 27.1267 40.8713L41.9808 44.8514C44.9821 45.6556 48.0671 43.8745 48.8713 40.8733L52.8514 26.0191C53.6556 23.0179 51.8745 19.9329 48.8733 19.1287Z" fill="#3B82F6" stroke="#6C484D"/>
<path d="M38.9143 23.7462H37.0856V36.0487H38.9143V23.7462Z" fill="#EFF6FF"/>
<path d="M31.8488 28.9831V30.8119H44.1512V28.9831H31.8488Z" fill="#EFF6FF"/>
<mask id="path-6-outside-1_11_11" maskUnits="userSpaceOnUse" x="9" y="45" width="56" height="17" fill="black">
<rect fill="white" x="9" y="45" width="56" height="17"/>
<path d="M22.3023 46.825C22.3623 48.88 22.3623 58.54 22.3023 60.325C21.8373 60.385 20.5773 60.37 20.0523 60.325C20.0223 59.47 20.0073 56.59 20.0073 53.695C19.3323 53.695 18.6423 53.695 18.0273 53.665C17.9673 53.095 17.9673 52.06 18.0273 51.49C18.7473 51.46 19.4073 51.46 20.0223 51.46C20.0223 49.33 20.0373 47.485 20.0523 46.825C20.4573 46.735 21.7773 46.75 22.3023 46.825ZM10.0773 47.245C11.2773 47.185 15.8223 47.17 17.1423 47.245C17.2473 48.985 17.2773 57.58 17.1873 59.32C16.7973 59.395 15.4473 59.38 14.9073 59.32V54.64C13.1823 54.655 10.7823 54.64 10.1373 54.625C10.0773 54.025 10.0773 53.095 10.1373 52.54C10.6623 52.51 13.0623 52.495 14.9073 52.51V49.3C13.9773 49.33 11.2173 49.33 10.0773 49.3C10.0173 48.715 10.0173 47.8 10.0773 47.245ZM35.7412 53.98C34.5862 54.085 25.6462 54.1 24.4762 53.98C24.3862 52.18 24.4012 48.88 24.4762 47.215C25.5562 47.14 34.5712 47.14 35.7412 47.215C35.8312 49 35.8312 53.08 35.7412 53.98ZM26.7112 49.24C26.6812 49.72 26.6812 51.505 26.7112 51.985C27.8512 52.015 32.2762 52.015 33.5062 51.985C33.5362 51.505 33.5362 49.72 33.5062 49.24C32.0662 49.225 28.1512 49.21 26.7112 49.24ZM36.5512 55.315C36.6112 55.87 36.6112 56.635 36.5512 57.265C36.2362 57.28 35.3812 57.295 34.2712 57.31C34.2712 58.39 34.2862 59.785 34.2562 60.4C33.7612 60.43 32.5612 60.43 31.9612 60.4C31.9312 59.875 31.9312 58.435 31.9312 57.325C30.7462 57.325 29.4712 57.325 28.2712 57.31C28.2712 58.39 28.2862 59.785 28.2562 60.4C27.7612 60.43 26.5612 60.43 25.9612 60.4C25.9312 59.875 25.9312 58.42 25.9462 57.295C24.8812 57.295 24.0562 57.28 23.6512 57.265C23.5912 56.725 23.5912 55.9 23.6512 55.315C26.7712 55.255 35.1412 55.285 36.5512 55.315ZM47.65 60.325C47.59 58.585 47.605 48.565 47.65 46.825C48.055 46.735 49.375 46.75 49.9 46.825C49.96 48.88 49.96 58.54 49.9 60.325C49.435 60.385 48.175 60.37 47.65 60.325ZM37.975 59.32C37.885 56.245 37.9 49.315 37.975 47.245C38.44 47.185 39.715 47.2 40.255 47.245C40.3 49.495 40.285 54.355 40.255 57.28C41.32 57.25 45.04 57.25 46.165 57.28C46.225 57.85 46.225 58.75 46.165 59.32C44.965 59.365 39.34 59.38 37.975 59.32ZM63.6988 46.825C63.7588 48.88 63.7588 58.54 63.6988 60.325C63.2338 60.385 61.9738 60.37 61.4488 60.325C61.3888 58.585 61.4038 48.565 61.4488 46.825C61.8538 46.735 63.1738 46.75 63.6988 46.825ZM54.0838 57.31C55.3138 57.28 58.7038 57.28 59.9638 57.31C60.0238 57.88 60.0238 58.75 59.9638 59.32C58.5988 59.38 53.3938 59.395 51.7738 59.32C51.6838 57.565 51.6988 48.97 51.7738 47.245C53.1088 47.185 57.8938 47.2 59.0638 47.245C59.1238 47.77 59.1238 48.7 59.0638 49.27C58.1638 49.3 54.9988 49.3 54.0838 49.27C54.0838 50.14 54.0988 51.175 54.0988 52.27C55.4938 52.255 57.5488 52.27 58.6888 52.27C58.7488 52.84 58.7338 53.71 58.6888 54.28C57.5938 54.31 55.4938 54.295 54.0988 54.28C54.0988 55.345 54.0838 56.38 54.0838 57.31Z"/>
</mask>
<path d="M22.3023 46.825C22.3623 48.88 22.3623 58.54 22.3023 60.325C21.8373 60.385 20.5773 60.37 20.0523 60.325C20.0223 59.47 20.0073 56.59 20.0073 53.695C19.3323 53.695 18.6423 53.695 18.0273 53.665C17.9673 53.095 17.9673 52.06 18.0273 51.49C18.7473 51.46 19.4073 51.46 20.0223 51.46C20.0223 49.33 20.0373 47.485 20.0523 46.825C20.4573 46.735 21.7773 46.75 22.3023 46.825ZM10.0773 47.245C11.2773 47.185 15.8223 47.17 17.1423 47.245C17.2473 48.985 17.2773 57.58 17.1873 59.32C16.7973 59.395 15.4473 59.38 14.9073 59.32V54.64C13.1823 54.655 10.7823 54.64 10.1373 54.625C10.0773 54.025 10.0773 53.095 10.1373 52.54C10.6623 52.51 13.0623 52.495 14.9073 52.51V49.3C13.9773 49.33 11.2173 49.33 10.0773 49.3C10.0173 48.715 10.0173 47.8 10.0773 47.245ZM35.7412 53.98C34.5862 54.085 25.6462 54.1 24.4762 53.98C24.3862 52.18 24.4012 48.88 24.4762 47.215C25.5562 47.14 34.5712 47.14 35.7412 47.215C35.8312 49 35.8312 53.08 35.7412 53.98ZM26.7112 49.24C26.6812 49.72 26.6812 51.505 26.7112 51.985C27.8512 52.015 32.2762 52.015 33.5062 51.985C33.5362 51.505 33.5362 49.72 33.5062 49.24C32.0662 49.225 28.1512 49.21 26.7112 49.24ZM36.5512 55.315C36.6112 55.87 36.6112 56.635 36.5512 57.265C36.2362 57.28 35.3812 57.295 34.2712 57.31C34.2712 58.39 34.2862 59.785 34.2562 60.4C33.7612 60.43 32.5612 60.43 31.9612 60.4C31.9312 59.875 31.9312 58.435 31.9312 57.325C30.7462 57.325 29.4712 57.325 28.2712 57.31C28.2712 58.39 28.2862 59.785 28.2562 60.4C27.7612 60.43 26.5612 60.43 25.9612 60.4C25.9312 59.875 25.9312 58.42 25.9462 57.295C24.8812 57.295 24.0562 57.28 23.6512 57.265C23.5912 56.725 23.5912 55.9 23.6512 55.315C26.7712 55.255 35.1412 55.285 36.5512 55.315ZM47.65 60.325C47.59 58.585 47.605 48.565 47.65 46.825C48.055 46.735 49.375 46.75 49.9 46.825C49.96 48.88 49.96 58.54 49.9 60.325C49.435 60.385 48.175 60.37 47.65 60.325ZM37.975 59.32C37.885 56.245 37.9 49.315 37.975 47.245C38.44 47.185 39.715 47.2 40.255 47.245C40.3 49.495 40.285 54.355 40.255 57.28C41.32 57.25 45.04 57.25 46.165 57.28C46.225 57.85 46.225 58.75 46.165 59.32C44.965 59.365 39.34 59.38 37.975 59.32ZM63.6988 46.825C63.7588 48.88 63.7588 58.54 63.6988 60.325C63.2338 60.385 61.9738 60.37 61.4488 60.325C61.3888 58.585 61.4038 48.565 61.4488 46.825C61.8538 46.735 63.1738 46.75 63.6988 46.825ZM54.0838 57.31C55.3138 57.28 58.7038 57.28 59.9638 57.31C60.0238 57.88 60.0238 58.75 59.9638 59.32C58.5988 59.38 53.3938 59.395 51.7738 59.32C51.6838 57.565 51.6988 48.97 51.7738 47.245C53.1088 47.185 57.8938 47.2 59.0638 47.245C59.1238 47.77 59.1238 48.7 59.0638 49.27C58.1638 49.3 54.9988 49.3 54.0838 49.27C54.0838 50.14 54.0988 51.175 54.0988 52.27C55.4938 52.255 57.5488 52.27 58.6888 52.27C58.7488 52.84 58.7338 53.71 58.6888 54.28C57.5938 54.31 55.4938 54.295 54.0988 54.28C54.0988 55.345 54.0838 56.38 54.0838 57.31Z" fill="#252525"/>
<path d="M22.3023 46.825L23.3019 46.7958L23.2773 45.9541L22.4438 45.835L22.3023 46.825ZM22.3023 60.325L22.4303 61.3168L23.2732 61.208L23.3018 60.3586L22.3023 60.325ZM20.0523 60.325L19.053 60.3601L19.084 61.2457L19.9669 61.3213L20.0523 60.325ZM20.0073 53.695H21.0073V52.695H20.0073V53.695ZM18.0273 53.665L17.0328 53.7697L17.1226 54.6221L17.9786 54.6638L18.0273 53.665ZM18.0273 51.49L17.9857 50.4909L17.1232 50.5268L17.0328 51.3853L18.0273 51.49ZM20.0223 51.46V52.46H21.0223V51.46H20.0223ZM20.0523 46.825L19.8354 45.8488L19.0704 46.0188L19.0526 46.8023L20.0523 46.825ZM10.0773 47.245L10.0274 46.2462L9.17488 46.2889L9.08314 47.1375L10.0773 47.245ZM17.1423 47.245L18.1405 47.1848L18.087 46.2971L17.1991 46.2466L17.1423 47.245ZM17.1873 59.32L17.3762 60.302L18.1455 60.1541L18.186 59.3717L17.1873 59.32ZM14.9073 59.32H13.9073V60.215L14.7969 60.3139L14.9073 59.32ZM14.9073 54.64H15.9073V53.6313L14.8986 53.64L14.9073 54.64ZM10.1373 54.625L9.14231 54.7245L9.23027 55.6042L10.1141 55.6247L10.1373 54.625ZM10.1373 52.54L10.0803 51.5416L9.23422 51.59L9.14314 52.4325L10.1373 52.54ZM14.9073 52.51L14.8992 53.51L15.9073 53.5182V52.51H14.9073ZM14.9073 49.3H15.9073V48.2672L14.8751 48.3005L14.9073 49.3ZM10.0773 49.3L9.08256 49.402L9.17225 50.2765L10.051 50.2997L10.0773 49.3ZM21.3028 46.8542C21.3622 48.8913 21.3621 58.5302 21.3029 60.2914L23.3018 60.3586C23.3626 58.5498 23.3624 48.8687 23.3019 46.7958L21.3028 46.8542ZM22.1744 59.3332C21.8102 59.3802 20.6301 59.3709 20.1377 59.3287L19.9669 61.3213C20.5246 61.3691 21.8645 61.3898 22.4303 61.3168L22.1744 59.3332ZM21.0517 60.2899C21.0225 59.4568 21.0073 56.5981 21.0073 53.695H19.0073C19.0073 56.5819 19.0222 59.4832 19.053 60.3601L21.0517 60.2899ZM20.0073 52.695C19.3264 52.695 18.6621 52.6948 18.0761 52.6662L17.9786 54.6638C18.6226 54.6952 19.3383 54.695 20.0073 54.695V52.695ZM19.0218 53.5603C18.9692 53.0599 18.9692 52.0951 19.0218 51.5947L17.0328 51.3853C16.9655 52.0249 16.9655 53.1301 17.0328 53.7697L19.0218 53.5603ZM18.069 52.4891C18.7653 52.4601 19.4056 52.46 20.0223 52.46V50.46C19.4091 50.46 18.7294 50.4599 17.9857 50.4909L18.069 52.4891ZM21.0223 51.46C21.0223 49.3305 21.0374 47.4954 21.0521 46.8477L19.0526 46.8023C19.0373 47.4746 19.0223 49.3295 19.0223 51.46H21.0223ZM20.2693 47.8012C20.2681 47.8014 20.2916 47.7966 20.3494 47.7905C20.4032 47.7848 20.4718 47.7795 20.5542 47.7751C20.7191 47.7663 20.9186 47.7622 21.1281 47.7631C21.5615 47.7649 21.9678 47.7874 22.1609 47.8149L22.4438 45.835C22.1119 45.7876 21.5957 45.7651 21.1365 45.7631C20.7057 45.7613 20.1641 45.7758 19.8354 45.8488L20.2693 47.8012ZM10.1273 48.2438C11.2983 48.1852 15.8071 48.1707 17.0856 48.2434L17.1991 46.2466C15.8376 46.1693 11.2564 46.1848 10.0274 46.2462L10.1273 48.2438ZM16.1442 47.3052C16.2469 49.0071 16.2768 57.5647 16.1887 59.2683L18.186 59.3717C18.2779 57.5953 18.2478 48.9629 18.1405 47.1848L16.1442 47.3052ZM16.9985 58.338C17.0005 58.3376 16.9942 58.3389 16.9773 58.341C16.9612 58.3431 16.9394 58.3454 16.9116 58.3479C16.8554 58.3528 16.7842 58.3573 16.6993 58.361C16.5295 58.3683 16.3238 58.3715 16.1077 58.3706C15.6652 58.3688 15.2346 58.3502 15.0178 58.3261L14.7969 60.3139C15.1201 60.3498 15.6345 60.3687 16.0995 60.3706C16.5343 60.3724 17.0689 60.3611 17.3762 60.302L16.9985 58.338ZM15.9073 59.32V54.64H13.9073V59.32H15.9073ZM14.8986 53.64C13.1798 53.655 10.7912 53.6399 10.1606 53.6253L10.1141 55.6247C10.7735 55.6401 13.1849 55.655 14.916 55.64L14.8986 53.64ZM11.1324 54.5255C11.0787 53.9889 11.0796 53.1285 11.1316 52.6475L9.14314 52.4325C9.07513 53.0615 9.07597 54.0611 9.14231 54.7245L11.1324 54.5255ZM10.1944 53.5384C10.6802 53.5106 13.0449 53.4949 14.8992 53.51L14.9155 51.51C13.0798 51.4951 10.6445 51.5094 10.0803 51.5416L10.1944 53.5384ZM15.9073 52.51V49.3H13.9073V52.51H15.9073ZM14.8751 48.3005C13.9684 48.3298 11.2283 48.3299 10.1037 48.3003L10.051 50.2997C11.2064 50.3301 13.9863 50.3302 14.9396 50.2995L14.8751 48.3005ZM11.0721 49.198C11.0189 48.6789 11.0195 47.8343 11.0716 47.3525L9.08314 47.1375C9.01522 47.7657 9.0158 48.7511 9.08256 49.402L11.0721 49.198ZM35.7412 53.98L35.8317 54.9759L36.654 54.9011L36.7362 54.0795L35.7412 53.98ZM24.4762 53.98L23.4774 54.0299L23.5203 54.8872L24.3741 54.9748L24.4762 53.98ZM24.4762 47.215L24.4069 46.2174L23.5173 46.2792L23.4772 47.17L24.4762 47.215ZM35.7412 47.215L36.7399 47.1646L36.695 46.2741L35.8051 46.217L35.7412 47.215ZM26.7112 49.24L26.6903 48.2402L25.7705 48.2594L25.7131 49.1776L26.7112 49.24ZM26.7112 51.985L25.7131 52.0474L25.7702 52.9606L26.6849 52.9847L26.7112 51.985ZM33.5062 51.985L33.5306 52.9847L34.447 52.9623L34.5042 52.0474L33.5062 51.985ZM33.5062 49.24L34.5042 49.1776L34.4462 48.2497L33.5166 48.2401L33.5062 49.24ZM36.5512 55.315L37.5454 55.2075L37.4509 54.3339L36.5724 54.3152L36.5512 55.315ZM36.5512 57.265L36.5987 58.2639L37.4645 58.2226L37.5467 57.3598L36.5512 57.265ZM34.2712 57.31L34.2577 56.3101L33.2712 56.3234V57.31H34.2712ZM34.2562 60.4L34.3167 61.3982L35.2113 61.3439L35.255 60.4487L34.2562 60.4ZM31.9612 60.4L30.9628 60.4571L31.0141 61.3539L31.9112 61.3988L31.9612 60.4ZM31.9312 57.325H32.9312V56.325H31.9312V57.325ZM28.2712 57.31L28.2837 56.3101L27.2712 56.2974V57.31H28.2712ZM28.2562 60.4L28.3167 61.3982L29.2113 61.3439L29.255 60.4487L28.2562 60.4ZM25.9612 60.4L24.9628 60.4571L25.014 61.3539L25.9112 61.3988L25.9612 60.4ZM25.9462 57.295L26.9461 57.3083L26.9596 56.295H25.9462V57.295ZM23.6512 57.265L22.6573 57.3754L22.7525 58.2324L23.6142 58.2643L23.6512 57.265ZM23.6512 55.315L23.6319 54.3152L22.7467 54.3322L22.6564 55.213L23.6512 55.315ZM35.6506 52.9841C35.1303 53.0314 32.6663 53.0625 30.1136 53.0644C27.5547 53.0663 25.0975 53.0385 24.5782 52.9852L24.3741 54.9748C25.0248 55.0415 27.6226 55.0662 30.115 55.0644C32.6135 55.0625 35.1971 55.0336 35.8317 54.9759L35.6506 52.9841ZM25.4749 53.9301C25.3868 52.1667 25.4013 48.8989 25.4752 47.26L23.4772 47.17C23.401 48.8611 23.3856 52.1933 23.4774 54.0299L25.4749 53.9301ZM24.5454 48.2126C25.041 48.1782 27.5167 48.1587 30.0749 48.1587C32.63 48.1587 35.1331 48.1781 35.6772 48.213L35.8051 46.217C35.1793 46.1769 32.5898 46.1587 30.0749 46.1587C27.5632 46.1587 24.9914 46.1768 24.4069 46.2174L24.5454 48.2126ZM34.7424 47.2654C34.8319 49.0387 34.8284 53.0577 34.7461 53.8805L36.7362 54.0795C36.8339 53.1023 36.8305 48.9613 36.7399 47.1646L34.7424 47.2654ZM25.7131 49.1776C25.6805 49.6992 25.6805 51.5258 25.7131 52.0474L27.7092 51.9226C27.6818 51.4842 27.6818 49.7408 27.7092 49.3024L25.7131 49.1776ZM26.6849 52.9847C27.843 53.0151 32.285 53.0151 33.5306 52.9847L33.4818 50.9853C32.2674 51.0149 27.8593 51.0149 26.7375 50.9853L26.6849 52.9847ZM34.5042 52.0474C34.5368 51.5258 34.5368 49.6992 34.5042 49.1776L32.5081 49.3024C32.5355 49.7408 32.5355 51.4842 32.5081 51.9226L34.5042 52.0474ZM33.5166 48.2401C32.0768 48.2251 28.1477 48.2099 26.6903 48.2402L26.732 50.2398C28.1546 50.2101 32.0555 50.2249 33.4958 50.2399L33.5166 48.2401ZM35.557 55.4225C35.6088 55.902 35.6101 56.5987 35.5557 57.1702L37.5467 57.3598C37.6122 56.6713 37.6135 55.838 37.5454 55.2075L35.557 55.4225ZM36.5036 56.2661C36.2101 56.2801 35.3766 56.295 34.2577 56.3101L34.2847 58.3099C35.3857 58.295 36.2623 58.2799 36.5987 58.2639L36.5036 56.2661ZM33.2712 57.31C33.2712 58.4225 33.2858 59.7687 33.2574 60.3513L35.255 60.4487C35.2866 59.8013 35.2712 58.3575 35.2712 57.31H33.2712ZM34.1957 59.4018C33.7442 59.4292 32.5817 59.4298 32.0111 59.4012L31.9112 61.3988C32.5406 61.4302 33.7782 61.4308 34.3167 61.3982L34.1957 59.4018ZM32.9595 60.3429C32.9317 59.8549 32.9312 58.4564 32.9312 57.325H30.9312C30.9312 58.4136 30.9307 59.8951 30.9628 60.4571L32.9595 60.3429ZM31.9312 56.325C30.745 56.325 29.4763 56.325 28.2837 56.3101L28.2587 58.3099C29.466 58.325 30.7474 58.325 31.9312 58.325V56.325ZM27.2712 57.31C27.2712 58.4225 27.2858 59.7687 27.2574 60.3513L29.255 60.4487C29.2866 59.8013 29.2712 58.3575 29.2712 57.31H27.2712ZM28.1957 59.4018C27.7442 59.4292 26.5817 59.4298 26.0111 59.4012L25.9112 61.3988C26.5406 61.4302 27.7782 61.4308 28.3167 61.3982L28.1957 59.4018ZM26.9595 60.343C26.9319 59.8596 26.931 58.4412 26.9461 57.3083L24.9463 57.2817C24.9314 58.3988 24.9304 59.8904 24.9628 60.4571L26.9595 60.343ZM25.9462 56.295C24.8875 56.295 24.076 56.28 23.6882 56.2657L23.6142 58.2643C24.0363 58.28 24.8749 58.295 25.9462 58.295V56.295ZM24.6451 57.1546C24.5935 56.6907 24.5926 55.9371 24.646 55.417L22.6564 55.213C22.5897 55.8629 22.5888 56.7593 22.6573 57.3754L24.6451 57.1546ZM23.6704 56.3148C26.7764 56.2551 35.1329 56.285 36.5299 56.3148L36.5724 54.3152C35.1495 54.285 26.766 54.2549 23.6319 54.3152L23.6704 56.3148ZM47.65 60.325L46.6506 60.3595L46.6812 61.2456L47.5646 61.3213L47.65 60.325ZM47.65 46.825L47.4331 45.8488L46.6705 46.0183L46.6503 46.7991L47.65 46.825ZM49.9 46.825L50.8996 46.7958L50.875 45.9541L50.0414 45.835L49.9 46.825ZM49.9 60.325L50.028 61.3168L50.8709 61.208L50.8994 60.3586L49.9 60.325ZM37.975 59.32L36.9754 59.3493L37.0026 60.2782L37.9311 60.319L37.975 59.32ZM37.975 47.245L37.847 46.2532L37.0063 46.3617L36.9757 47.2088L37.975 47.245ZM40.255 47.245L41.2548 47.225L41.2368 46.3233L40.338 46.2485L40.255 47.245ZM40.255 57.28L39.2551 57.2697L39.2444 58.3089L40.2832 58.2796L40.255 57.28ZM46.165 57.28L47.1595 57.1753L47.0678 56.3037L46.1917 56.2804L46.165 57.28ZM46.165 59.32L46.2025 60.3193L47.0688 60.2868L47.1595 59.4247L46.165 59.32ZM48.6494 60.2905C48.5903 58.5767 48.605 48.5779 48.6497 46.8509L46.6503 46.7991C46.605 48.5521 46.5897 58.5933 46.6506 60.3595L48.6494 60.2905ZM47.8669 47.8012C47.8658 47.8014 47.8892 47.7966 47.947 47.7905C48.0008 47.7848 48.0695 47.7795 48.1519 47.7751C48.3168 47.7663 48.5163 47.7622 48.7258 47.7631C49.1591 47.7649 49.5654 47.7874 49.7586 47.8149L50.0414 45.835C49.7096 45.7876 49.1934 45.7651 48.7342 45.7631C48.3033 45.7613 47.7618 45.7758 47.4331 45.8488L47.8669 47.8012ZM48.9004 46.8542C48.9599 48.8913 48.9598 58.5302 48.9006 60.2914L50.8994 60.3586C50.9602 58.5498 50.9601 48.8687 50.8996 46.7958L48.9004 46.8542ZM49.772 59.3332C49.4079 59.3802 48.2277 59.3709 47.7354 59.3287L47.5646 61.3213C48.1223 61.3691 49.4621 61.3898 50.028 61.3168L49.772 59.3332ZM38.9746 59.2907C38.8851 56.2338 38.9003 49.326 38.9743 47.2812L36.9757 47.2088C36.8997 49.304 36.8849 56.2562 36.9754 59.3493L38.9746 59.2907ZM38.103 48.2368C38.4669 48.1898 39.6619 48.199 40.172 48.2415L40.338 46.2485C39.7681 46.201 38.4131 46.1802 37.847 46.2532L38.103 48.2368ZM39.2552 47.265C39.2999 49.4986 39.285 54.3455 39.2551 57.2697L41.2549 57.2903C41.285 54.3645 41.3001 49.4914 41.2548 47.225L39.2552 47.265ZM40.2832 58.2796C41.3289 58.2501 45.0306 58.2501 46.1383 58.2796L46.1917 56.2804C45.0494 56.2499 41.3111 56.2499 40.2268 56.2804L40.2832 58.2796ZM45.1705 57.3847C45.2232 57.8851 45.2232 58.7149 45.1705 59.2153L47.1595 59.4247C47.2268 58.7851 47.2268 57.8149 47.1595 57.1753L45.1705 57.3847ZM46.1275 58.3207C44.9486 58.3649 39.3514 58.3795 38.0189 58.321L37.9311 60.319C39.3286 60.3805 44.9814 60.3651 46.2025 60.3193L46.1275 58.3207ZM63.6988 46.825L64.6984 46.7958L64.6738 45.9541L63.8402 45.835L63.6988 46.825ZM63.6988 60.325L63.8268 61.3168L64.6697 61.208L64.6983 60.3586L63.6988 60.325ZM61.4488 60.325L60.4494 60.3595L60.48 61.2456L61.3634 61.3213L61.4488 60.325ZM61.4488 46.825L61.2319 45.8488L60.4694 46.0183L60.4492 46.7991L61.4488 46.825ZM54.0838 57.31H53.0838V58.3347L54.1082 58.3097L54.0838 57.31ZM59.9638 57.31L60.9583 57.2053L60.8663 56.3312L59.9876 56.3103L59.9638 57.31ZM59.9638 59.32L60.0077 60.319L60.8682 60.2812L60.9583 59.4247L59.9638 59.32ZM51.7738 59.32L50.7751 59.3712L50.8216 60.277L51.7276 60.3189L51.7738 59.32ZM51.7738 47.245L51.7289 46.246L50.8145 46.2871L50.7748 47.2016L51.7738 47.245ZM59.0638 47.245L60.0574 47.1315L59.9599 46.2787L59.1023 46.2457L59.0638 47.245ZM59.0638 49.27L59.0971 50.2694L59.9672 50.2404L60.0583 49.3747L59.0638 49.27ZM54.0838 49.27L54.1166 48.2705L53.0838 48.2367V49.27H54.0838ZM54.0988 52.27H53.0988V53.2808L54.1096 53.2699L54.0988 52.27ZM58.6888 52.27L59.6833 52.1653L59.5891 51.27H58.6888V52.27ZM58.6888 54.28L58.7162 55.2796L59.615 55.255L59.6857 54.3587L58.6888 54.28ZM54.0988 54.28L54.1096 53.2801L53.0988 53.2692V54.28H54.0988ZM62.6993 46.8542C62.7587 48.8913 62.7586 58.5302 62.6994 60.2914L64.6983 60.3586C64.7591 58.5498 64.7589 48.8687 64.6984 46.7958L62.6993 46.8542ZM63.5709 59.3332C63.2067 59.3802 62.0266 59.3709 61.5342 59.3287L61.3634 61.3213C61.9211 61.3691 63.261 61.3898 63.8268 61.3168L63.5709 59.3332ZM62.4482 60.2905C62.3891 58.5767 62.4038 48.5779 62.4485 46.8509L60.4492 46.7991C60.4038 48.5521 60.3885 58.5933 60.4494 60.3595L62.4482 60.2905ZM61.6658 47.8012C61.6646 47.8014 61.688 47.7966 61.7458 47.7905C61.7996 47.7848 61.8683 47.7795 61.9507 47.7751C62.1156 47.7663 62.3151 47.7622 62.5246 47.7631C62.9579 47.7649 63.3643 47.7874 63.5574 47.8149L63.8402 45.835C63.5084 45.7876 62.9922 45.7651 62.533 45.7631C62.1022 45.7613 61.5606 45.7758 61.2319 45.8488L61.6658 47.8012ZM54.1082 58.3097C55.3218 58.2801 58.6957 58.2801 59.94 58.3097L59.9876 56.3103C58.712 56.2799 55.3059 56.2799 54.0594 56.3103L54.1082 58.3097ZM58.9693 57.4147C59.022 57.9151 59.022 58.7149 58.9693 59.2153L60.9583 59.4247C61.0257 58.7851 61.0257 57.8449 60.9583 57.2053L58.9693 57.4147ZM59.9199 58.321C58.5818 58.3798 53.4071 58.3945 51.8201 58.3211L51.7276 60.3189C53.3806 60.3955 58.6158 60.3802 60.0077 60.319L59.9199 58.321ZM52.7725 59.2688C52.6844 57.5512 52.699 48.9884 52.7729 47.2884L50.7748 47.2016C50.6987 48.9516 50.6832 57.5788 50.7751 59.3712L52.7725 59.2688ZM51.8187 48.244C53.1203 48.1855 57.8769 48.2001 59.0254 48.2443L59.1023 46.2457C57.9108 46.1999 53.0973 46.1845 51.7289 46.246L51.8187 48.244ZM58.0703 47.3585C58.1213 47.8052 58.1223 48.6618 58.0693 49.1653L60.0583 49.3747C60.1253 48.7382 60.1263 47.7348 60.0574 47.1315L58.0703 47.3585ZM59.0305 48.2706C58.1529 48.2998 55.0099 48.2998 54.1166 48.2705L54.0511 50.2695C54.9877 50.3002 58.1748 50.3002 59.0971 50.2694L59.0305 48.2706ZM53.0838 49.27C53.0838 49.7096 53.0876 50.1901 53.0914 50.6931C53.0951 51.1975 53.0988 51.7266 53.0988 52.27H55.0988C55.0988 51.7183 55.095 51.1825 55.0913 50.6782C55.0875 50.1724 55.0838 49.7004 55.0838 49.27H53.0838ZM54.1096 53.2699C55.498 53.255 57.535 53.27 58.6888 53.27V51.27C57.5626 51.27 55.4896 51.255 54.0881 51.2701L54.1096 53.2699ZM57.6943 52.3747C57.7456 52.8619 57.7342 53.6656 57.6919 54.2013L59.6857 54.3587C59.7334 53.7544 59.7521 52.8181 59.6833 52.1653L57.6943 52.3747ZM58.6614 53.2804C57.5893 53.3097 55.5098 53.2951 54.1096 53.2801L54.0881 55.2799C55.4778 55.2949 57.5983 55.3103 58.7162 55.2796L58.6614 53.2804ZM53.0988 54.28C53.0988 54.8083 53.0951 55.3298 53.0914 55.8382C53.0876 56.3453 53.0838 56.8406 53.0838 57.31H55.0838C55.0838 56.8494 55.0875 56.3622 55.0913 55.853C55.095 55.3452 55.0988 54.8167 55.0988 54.28H53.0988Z" fill="white" mask="url(#path-6-outside-1_11_11)"/>
</svg>
