<svg width="250" height="52" viewBox="0 0 250 52" fill="none" xmlns="http://www.w3.org/2000/svg">
<rect x="2" y="2" width="246" height="48" rx="14" fill="#A4E96B" stroke="#44A342" stroke-width="4"/>
<mask id="path-2-outside-1_1_26" maskUnits="userSpaceOnUse" x="69" y="12" width="98" height="27" fill="black">
<rect fill="white" x="69" y="12" width="98" height="27"/>
<path d="M85.536 27.912C83.664 26.856 81.72 25.704 79.896 24.456C78.192 25.896 76.272 27.336 74.592 28.512C73.992 28.008 72.888 26.688 72.48 25.944C74.328 24.576 76.176 23.16 77.976 21.768V19.68C75.6 19.68 73.512 19.68 72.792 19.632C72.696 18.672 72.696 17.448 72.792 16.584C73.632 16.56 75.624 16.536 77.952 16.536C77.952 15.888 77.952 15.216 78 14.76C78.648 14.64 80.88 14.616 81.72 14.76C81.768 15.216 81.768 15.888 81.768 16.536C83.64 16.536 85.464 16.56 86.904 16.584C86.976 17.496 86.976 18.792 86.904 19.632C85.968 19.656 83.976 19.68 81.744 19.68V21.72C83.64 22.896 85.416 23.952 87.408 25.176C87.096 25.944 86.112 27.336 85.536 27.912ZM92.64 30.6C91.896 30.696 89.904 30.672 89.064 30.6C88.992 28.536 88.992 16.944 89.064 15.12C89.712 15.024 91.8 15 92.64 15.12C92.688 17.712 92.712 28.224 92.64 30.6ZM93.048 33.672C93.144 34.536 93.144 35.904 93.048 36.792C91.128 36.912 77.352 36.912 75.168 36.792C75.048 35.016 75.096 31.2 75.168 29.784C75.912 29.712 77.88 29.712 78.744 29.784C78.792 30.984 78.792 32.376 78.744 33.672C84.048 33.648 91.248 33.624 93.048 33.672ZM109.99 18.96C104.686 18.96 97.9181 19.032 96.1181 18.96C96.0221 18.048 96.0221 16.656 96.1181 15.744C98.0381 15.672 111.478 15.624 113.662 15.744C113.782 17.76 113.782 23.232 113.662 24.648C112.918 24.744 110.854 24.744 109.99 24.648C109.942 23.304 109.942 20.136 109.99 18.96ZM115.438 26.544C115.534 27.432 115.534 28.656 115.438 29.664C114.526 29.736 110.95 29.76 106.966 29.76C106.99 31.776 107.014 35.712 106.966 36.84C106.174 36.888 104.254 36.888 103.294 36.84C103.246 35.88 103.222 31.848 103.27 29.76C99.4781 29.736 95.9981 29.712 94.7981 29.664C94.7021 28.8 94.7021 27.48 94.7981 26.544C99.7901 26.448 113.182 26.496 115.438 26.544ZM142.555 24.984C142.651 25.824 142.651 27.048 142.555 27.984C140.491 28.128 124.747 28.08 121.915 27.984C121.819 27.168 121.819 25.872 121.915 24.984C123.859 24.936 127.051 24.936 130.363 24.936V23.208C127.147 23.208 124.267 23.184 123.475 23.136C123.307 20.496 123.355 17.76 123.475 15.312C124.963 15.216 139.651 15.24 140.995 15.312C141.139 17.928 141.139 21.816 140.995 23.136C140.323 23.184 137.395 23.208 134.107 23.208V24.936C138.019 24.936 141.499 24.96 142.555 24.984ZM126.931 18.216V20.256C128.035 20.304 136.531 20.304 137.539 20.256V18.216C136.195 18.192 128.515 18.168 126.931 18.216ZM123.163 29.376C125.083 29.28 139.051 29.256 141.235 29.376C141.379 31.368 141.307 35.616 141.235 36.792C140.371 36.84 138.427 36.84 137.563 36.792C137.515 35.568 137.563 33.888 137.563 32.424C132.259 32.424 124.963 32.496 123.163 32.424C123.067 31.512 123.067 30.288 123.163 29.376ZM164.633 26.232C164.729 27.072 164.729 28.224 164.633 29.16C162.569 29.304 146.825 29.256 143.993 29.16C143.897 28.344 143.897 27.12 143.993 26.232C145.937 26.208 149.129 26.184 152.441 26.184V25.224C149.489 25.224 146.753 25.176 145.553 25.128C145.457 23.808 145.409 21.144 145.553 18.792H159.209V17.904H145.601C145.505 17.16 145.505 15.696 145.601 15.072C152.585 15 159.881 14.976 162.833 15.048C162.953 15.984 162.953 20.424 162.833 21.456H149.177V22.344H163.073C163.169 23.208 163.121 24.336 163.073 25.128C162.377 25.176 159.473 25.224 156.185 25.224V26.208C160.097 26.208 163.577 26.232 164.633 26.232ZM145.241 30.264C147.161 30.168 161.129 30.144 163.313 30.264C163.457 32.256 163.385 35.616 163.313 36.768C162.449 36.816 160.505 36.816 159.641 36.768C159.593 35.568 159.617 34.464 159.641 33.264C154.337 33.264 147.041 33.336 145.241 33.264C145.145 32.352 145.145 31.176 145.241 30.264Z"/>
</mask>
<path d="M85.536 27.912C83.664 26.856 81.72 25.704 79.896 24.456C78.192 25.896 76.272 27.336 74.592 28.512C73.992 28.008 72.888 26.688 72.48 25.944C74.328 24.576 76.176 23.16 77.976 21.768V19.68C75.6 19.68 73.512 19.68 72.792 19.632C72.696 18.672 72.696 17.448 72.792 16.584C73.632 16.56 75.624 16.536 77.952 16.536C77.952 15.888 77.952 15.216 78 14.76C78.648 14.64 80.88 14.616 81.72 14.76C81.768 15.216 81.768 15.888 81.768 16.536C83.64 16.536 85.464 16.56 86.904 16.584C86.976 17.496 86.976 18.792 86.904 19.632C85.968 19.656 83.976 19.68 81.744 19.68V21.72C83.64 22.896 85.416 23.952 87.408 25.176C87.096 25.944 86.112 27.336 85.536 27.912ZM92.64 30.6C91.896 30.696 89.904 30.672 89.064 30.6C88.992 28.536 88.992 16.944 89.064 15.12C89.712 15.024 91.8 15 92.64 15.12C92.688 17.712 92.712 28.224 92.64 30.6ZM93.048 33.672C93.144 34.536 93.144 35.904 93.048 36.792C91.128 36.912 77.352 36.912 75.168 36.792C75.048 35.016 75.096 31.2 75.168 29.784C75.912 29.712 77.88 29.712 78.744 29.784C78.792 30.984 78.792 32.376 78.744 33.672C84.048 33.648 91.248 33.624 93.048 33.672ZM109.99 18.96C104.686 18.96 97.9181 19.032 96.1181 18.96C96.0221 18.048 96.0221 16.656 96.1181 15.744C98.0381 15.672 111.478 15.624 113.662 15.744C113.782 17.76 113.782 23.232 113.662 24.648C112.918 24.744 110.854 24.744 109.99 24.648C109.942 23.304 109.942 20.136 109.99 18.96ZM115.438 26.544C115.534 27.432 115.534 28.656 115.438 29.664C114.526 29.736 110.95 29.76 106.966 29.76C106.99 31.776 107.014 35.712 106.966 36.84C106.174 36.888 104.254 36.888 103.294 36.84C103.246 35.88 103.222 31.848 103.27 29.76C99.4781 29.736 95.9981 29.712 94.7981 29.664C94.7021 28.8 94.7021 27.48 94.7981 26.544C99.7901 26.448 113.182 26.496 115.438 26.544ZM142.555 24.984C142.651 25.824 142.651 27.048 142.555 27.984C140.491 28.128 124.747 28.08 121.915 27.984C121.819 27.168 121.819 25.872 121.915 24.984C123.859 24.936 127.051 24.936 130.363 24.936V23.208C127.147 23.208 124.267 23.184 123.475 23.136C123.307 20.496 123.355 17.76 123.475 15.312C124.963 15.216 139.651 15.24 140.995 15.312C141.139 17.928 141.139 21.816 140.995 23.136C140.323 23.184 137.395 23.208 134.107 23.208V24.936C138.019 24.936 141.499 24.96 142.555 24.984ZM126.931 18.216V20.256C128.035 20.304 136.531 20.304 137.539 20.256V18.216C136.195 18.192 128.515 18.168 126.931 18.216ZM123.163 29.376C125.083 29.28 139.051 29.256 141.235 29.376C141.379 31.368 141.307 35.616 141.235 36.792C140.371 36.84 138.427 36.84 137.563 36.792C137.515 35.568 137.563 33.888 137.563 32.424C132.259 32.424 124.963 32.496 123.163 32.424C123.067 31.512 123.067 30.288 123.163 29.376ZM164.633 26.232C164.729 27.072 164.729 28.224 164.633 29.16C162.569 29.304 146.825 29.256 143.993 29.16C143.897 28.344 143.897 27.12 143.993 26.232C145.937 26.208 149.129 26.184 152.441 26.184V25.224C149.489 25.224 146.753 25.176 145.553 25.128C145.457 23.808 145.409 21.144 145.553 18.792H159.209V17.904H145.601C145.505 17.16 145.505 15.696 145.601 15.072C152.585 15 159.881 14.976 162.833 15.048C162.953 15.984 162.953 20.424 162.833 21.456H149.177V22.344H163.073C163.169 23.208 163.121 24.336 163.073 25.128C162.377 25.176 159.473 25.224 156.185 25.224V26.208C160.097 26.208 163.577 26.232 164.633 26.232ZM145.241 30.264C147.161 30.168 161.129 30.144 163.313 30.264C163.457 32.256 163.385 35.616 163.313 36.768C162.449 36.816 160.505 36.816 159.641 36.768C159.593 35.568 159.617 34.464 159.641 33.264C154.337 33.264 147.041 33.336 145.241 33.264C145.145 32.352 145.145 31.176 145.241 30.264Z" fill="#252525"/>
<path d="M85.536 27.912L84.5534 29.654L85.8762 30.4002L86.9502 29.3262L85.536 27.912ZM79.896 24.456L81.0254 22.8054L79.7684 21.9453L78.6051 22.9284L79.896 24.456ZM74.592 28.512L73.3056 30.0434L74.4812 31.0309L75.7389 30.1505L74.592 28.512ZM72.48 25.944L71.29 24.3365L69.887 25.3751L70.7264 26.9057L72.48 25.944ZM77.976 21.768L79.1995 23.3501L79.976 22.7496V21.768H77.976ZM77.976 19.68H79.976V17.68H77.976V19.68ZM72.792 19.632L70.8019 19.831L70.9703 21.515L72.659 21.6276L72.792 19.632ZM72.792 16.584L72.7349 14.5848L70.9963 14.6345L70.8042 16.3631L72.792 16.584ZM77.952 16.536V18.536H79.952V16.536H77.952ZM78 14.76L77.6358 12.7934L76.1673 13.0654L76.011 14.5506L78 14.76ZM81.72 14.76L83.709 14.5506L83.5505 13.0446L82.0579 12.7888L81.72 14.76ZM81.768 16.536H79.768V18.536H81.768V16.536ZM86.904 16.584L88.8978 16.4266L88.7547 14.6146L86.9373 14.5843L86.904 16.584ZM86.904 19.632L86.9553 21.6313L88.7439 21.5855L88.8967 19.8028L86.904 19.632ZM81.744 19.68V17.68H79.744V19.68H81.744ZM81.744 21.72H79.744V22.833L80.6898 23.4196L81.744 21.72ZM87.408 25.176L89.2609 25.9288L89.8986 24.359L88.455 23.472L87.408 25.176ZM92.64 30.6L92.8959 32.5836L94.5874 32.3653L94.6391 30.6606L92.64 30.6ZM89.064 30.6L87.0652 30.6697L87.127 32.4413L88.8932 32.5927L89.064 30.6ZM89.064 15.12L88.7709 13.1416L87.1309 13.3845L87.0656 15.0411L89.064 15.12ZM92.64 15.12L94.6397 15.083L94.6081 13.3809L92.9228 13.1401L92.64 15.12ZM93.048 33.672L95.0358 33.4511L94.8433 31.7192L93.1013 31.6727L93.048 33.672ZM93.048 36.792L93.1728 38.7881L94.8552 38.683L95.0364 37.007L93.048 36.792ZM75.168 36.792L73.1725 36.9268L73.2918 38.6919L75.0583 38.789L75.168 36.792ZM75.168 29.784L74.9754 27.7933L73.2582 27.9595L73.1706 29.6824L75.168 29.784ZM78.744 29.784L80.7424 29.7041L80.6717 27.9377L78.9101 27.7909L78.744 29.784ZM78.744 33.672L76.7454 33.598L76.6682 35.6814L78.7531 35.672L78.744 33.672ZM86.5186 26.17C84.6685 25.1264 82.7809 24.0065 81.0254 22.8054L78.7666 26.1066C80.6591 27.4015 82.6595 28.5856 84.5534 29.654L86.5186 26.17ZM78.6051 22.9284C76.9584 24.3199 75.0889 25.7228 73.4451 26.8735L75.7389 30.1505C77.4551 28.9492 79.4256 27.4721 81.1869 25.9836L78.6051 22.9284ZM75.8784 26.9806C75.7168 26.8448 75.3812 26.4979 75.0051 26.0433C74.6286 25.5881 74.346 25.1873 74.2336 24.9823L70.7264 26.9057C71.022 27.4447 71.4954 28.0759 71.9229 28.5927C72.3508 29.1101 72.8672 29.6752 73.3056 30.0434L75.8784 26.9806ZM73.67 27.5515C75.5348 26.171 77.3957 24.745 79.1995 23.3501L76.7525 20.1859C74.9563 21.575 73.1212 22.981 71.29 24.3365L73.67 27.5515ZM79.976 21.768V19.68H75.976V21.768H79.976ZM77.976 17.68C75.5447 17.68 73.5582 17.6786 72.925 17.6364L72.659 21.6276C73.4658 21.6814 75.6553 21.68 77.976 21.68V17.68ZM74.7821 19.433C74.6985 18.5976 74.7009 17.5151 74.7798 16.8049L70.8042 16.3631C70.6911 17.3809 70.6935 18.7464 70.8019 19.831L74.7821 19.433ZM72.8491 18.5832C73.6605 18.56 75.6301 18.536 77.952 18.536V14.536C75.6179 14.536 73.6035 14.56 72.7349 14.5848L72.8491 18.5832ZM79.952 16.536C79.952 15.8429 79.9546 15.2959 79.989 14.9694L76.011 14.5506C75.9494 15.1361 75.952 15.9331 75.952 16.536H79.952ZM78.3642 16.7266C78.3629 16.7268 78.4032 16.7199 78.5008 16.7107C78.5913 16.702 78.7066 16.6936 78.844 16.6862C79.1188 16.6714 79.4511 16.6624 79.7961 16.661C80.5371 16.658 81.1503 16.6915 81.3821 16.7312L82.0579 12.7888C81.4497 12.6845 80.5269 12.658 79.7799 12.661C79.0466 12.664 78.1588 12.6966 77.6358 12.7934L78.3642 16.7266ZM79.731 14.9694C79.7654 15.2959 79.768 15.8429 79.768 16.536H83.768C83.768 15.9331 83.7706 15.1361 83.709 14.5506L79.731 14.9694ZM81.768 18.536C83.6242 18.536 85.4358 18.5598 86.8707 18.5837L86.9373 14.5843C85.4922 14.5602 83.6558 14.536 81.768 14.536V18.536ZM84.9102 16.7414C84.9743 17.5533 84.9732 18.7392 84.9113 19.4612L88.8967 19.8028C88.9788 18.8448 88.9777 17.4387 88.8978 16.4266L84.9102 16.7414ZM86.8527 17.6327C85.9404 17.656 83.967 17.68 81.744 17.68V21.68C83.985 21.68 85.9956 21.6559 86.9553 21.6313L86.8527 17.6327ZM79.744 19.68V21.72H83.744V19.68H79.744ZM80.6898 23.4196C82.5722 24.5872 84.4186 25.6866 86.361 26.88L88.455 23.472C86.4134 22.2174 84.7078 21.2048 82.7982 20.0204L80.6898 23.4196ZM85.5551 24.4232C85.4837 24.5989 85.2614 24.9937 84.9263 25.4781C84.5993 25.9507 84.2876 26.332 84.1218 26.4978L86.9502 29.3262C87.3604 28.916 87.8287 28.3133 88.2157 27.7539C88.5946 27.2063 89.0203 26.5211 89.2609 25.9288L85.5551 24.4232ZM92.3841 28.6164C91.8418 28.6864 90.0096 28.6737 89.2348 28.6073L88.8932 32.5927C89.7984 32.6703 91.9502 32.7056 92.8959 32.5836L92.3841 28.6164ZM91.0628 30.5303C90.9923 28.5095 90.9926 16.9674 91.0624 15.1989L87.0656 15.0411C86.9914 16.9206 86.9917 28.5625 87.0652 30.6697L91.0628 30.5303ZM89.3571 17.0984C89.525 17.0735 90.0809 17.042 90.7885 17.039C91.4895 17.036 92.0941 17.0623 92.3572 17.0999L92.9228 13.1401C92.3459 13.0577 91.4865 13.036 90.7715 13.039C90.0631 13.042 89.251 13.0705 88.7709 13.1416L89.3571 17.0984ZM90.6403 15.157C90.6881 17.7372 90.7115 28.2116 90.6409 30.5394L94.6391 30.6606C94.7125 28.2364 94.6879 17.6868 94.6397 15.083L90.6403 15.157ZM91.0602 33.8929C91.1397 34.6081 91.1404 35.8299 91.0596 36.577L95.0364 37.007C95.1476 35.9781 95.1483 34.4639 95.0358 33.4511L91.0602 33.8929ZM92.9232 34.7959C91.091 34.9104 77.394 34.9113 75.2777 34.795L75.0583 38.789C77.31 38.9127 91.165 38.9136 93.1728 38.7881L92.9232 34.7959ZM77.1635 36.6572C77.0508 34.9902 77.0955 31.2605 77.1654 29.8856L73.1706 29.6824C73.0965 31.1395 73.0452 35.0418 73.1725 36.9268L77.1635 36.6572ZM75.3606 31.7747C75.9683 31.7159 77.8149 31.7135 78.5779 31.7771L78.9101 27.7909C77.9451 27.7105 75.8557 27.7081 74.9754 27.7933L75.3606 31.7747ZM76.7456 29.8639C76.7914 31.0088 76.7916 32.3493 76.7454 33.598L80.7426 33.746C80.7924 32.4027 80.7926 30.9592 80.7424 29.7041L76.7456 29.8639ZM78.7531 35.672C84.0814 35.6479 91.2353 35.6244 92.9947 35.6713L93.1013 31.6727C91.2607 31.6236 84.0146 31.6481 78.735 31.672L78.7531 35.672ZM109.99 18.96L111.988 19.0416L112.073 16.96H109.99V18.96ZM96.1181 18.96L94.1291 19.1694L94.3102 20.8893L96.0382 20.9584L96.1181 18.96ZM96.1181 15.744L96.0432 13.7454L94.3106 13.8104L94.1291 15.5346L96.1181 15.744ZM113.662 15.744L115.659 15.6252L115.553 13.8449L113.772 13.747L113.662 15.744ZM113.662 24.648L113.918 26.6316L115.519 26.425L115.655 24.8169L113.662 24.648ZM109.99 24.648L107.991 24.7194L108.053 26.4451L109.769 26.6358L109.99 24.648ZM115.438 26.544L117.427 26.329L117.238 24.5818L115.481 24.5445L115.438 26.544ZM115.438 29.664L115.596 31.6578L117.27 31.5256L117.429 29.8536L115.438 29.664ZM106.966 29.76V27.76H104.942L104.966 29.7838L106.966 29.76ZM106.966 36.84L107.087 38.8363L108.888 38.7272L108.964 36.925L106.966 36.84ZM103.294 36.84L101.297 36.9399L101.387 38.7471L103.194 38.8375L103.294 36.84ZM103.27 29.76L105.27 29.806L105.316 27.7729L103.283 27.76L103.27 29.76ZM94.7981 29.664L92.8104 29.8849L93.0002 31.5937L94.7182 31.6624L94.7981 29.664ZM94.7981 26.544L94.7597 24.5444L92.9892 24.5784L92.8086 26.3399L94.7981 26.544ZM109.99 16.96C104.613 16.96 97.9456 17.0315 96.1981 16.9616L96.0382 20.9584C97.8906 21.0325 104.759 20.96 109.99 20.96V16.96ZM98.1071 18.7506C98.0258 17.9778 98.0258 16.7262 98.1071 15.9534L94.1291 15.5346C94.0185 16.5858 94.0185 18.1182 94.1291 19.1694L98.1071 18.7506ZM96.1931 17.7426C98.0819 17.6718 111.454 17.6257 113.552 17.741L113.772 13.747C111.502 13.6223 97.9943 13.6722 96.0432 13.7454L96.1931 17.7426ZM111.666 15.8628C111.782 17.8194 111.779 23.1893 111.669 24.4791L115.655 24.8169C115.786 23.2747 115.782 17.7006 115.659 15.6252L111.666 15.8628ZM113.406 22.6644C113.173 22.6945 112.585 22.72 111.871 22.72C111.17 22.72 110.529 22.6955 110.211 22.6602L109.769 26.6358C110.316 26.6965 111.138 26.72 111.871 26.72C112.591 26.72 113.407 26.6975 113.918 26.6316L113.406 22.6644ZM111.989 24.5766C111.942 23.2766 111.943 20.16 111.988 19.0416L107.992 18.8784C107.941 20.112 107.942 23.3314 107.991 24.7194L111.989 24.5766ZM113.45 26.759C113.529 27.4961 113.532 28.5835 113.447 29.4744L117.429 29.8536C117.536 28.7285 117.539 27.3679 117.427 26.329L113.45 26.759ZM115.281 27.6702C114.47 27.7342 111.005 27.76 106.966 27.76V31.76C110.895 31.76 114.582 31.7378 115.596 31.6578L115.281 27.6702ZM104.966 29.7838C104.991 31.8252 105.013 35.6949 104.968 36.755L108.964 36.925C109.015 35.7291 108.99 31.7268 108.966 29.7362L104.966 29.7838ZM106.845 34.8437C106.14 34.8864 104.295 34.8876 103.394 34.8425L103.194 38.8375C104.213 38.8884 106.208 38.8896 107.087 38.8363L106.845 34.8437ZM105.292 36.7401C105.247 35.8501 105.222 31.8729 105.27 29.806L101.271 29.714C101.222 31.8231 101.245 35.9099 101.297 36.9399L105.292 36.7401ZM103.283 27.76C99.4646 27.7359 96.0343 27.7118 94.8781 27.6656L94.7182 31.6624C95.9619 31.7122 99.4916 31.7361 103.257 31.76L103.283 27.76ZM96.7859 29.4431C96.7068 28.7314 96.705 27.5543 96.7877 26.7481L92.8086 26.3399C92.6992 27.4057 92.6974 28.8686 92.8104 29.8849L96.7859 29.4431ZM94.8366 28.5436C99.8006 28.4482 113.166 28.4961 115.396 28.5435L115.481 24.5445C113.199 24.4959 99.7797 24.4478 94.7597 24.5444L94.8366 28.5436ZM142.555 24.984L144.542 24.7569L144.344 23.0241L142.601 22.9845L142.555 24.984ZM142.555 27.984L142.695 29.9792L144.373 29.862L144.545 28.1881L142.555 27.984ZM121.915 27.984L119.929 28.2177L120.13 29.9246L121.848 29.9829L121.915 27.984ZM121.915 24.984L121.866 22.9846L120.115 23.0278L119.927 24.769L121.915 24.984ZM130.363 24.936V26.936H132.363V24.936H130.363ZM130.363 23.208H132.363V21.208H130.363V23.208ZM123.475 23.136L121.479 23.263L121.592 25.0255L123.354 25.1323L123.475 23.136ZM123.475 15.312L123.347 13.3161L121.565 13.4311L121.478 15.2141L123.475 15.312ZM140.995 15.312L142.992 15.2021L142.894 13.4108L141.102 13.3149L140.995 15.312ZM140.995 23.136L141.138 25.1309L142.803 25.012L142.984 23.3529L140.995 23.136ZM134.107 23.208V21.208H132.107V23.208H134.107ZM134.107 24.936H132.107V26.936H134.107V24.936ZM126.931 18.216L126.871 16.2169L124.931 16.2757V18.216H126.931ZM126.931 20.256H124.931V22.1709L126.844 22.2541L126.931 20.256ZM137.539 20.256L137.634 22.2537L139.539 22.163V20.256H137.539ZM137.539 18.216H139.539V16.2514L137.575 16.2163L137.539 18.216ZM123.163 29.376L123.063 27.3785L121.354 27.464L121.174 29.1666L123.163 29.376ZM141.235 29.376L143.23 29.2318L143.103 27.4756L141.345 27.379L141.235 29.376ZM141.235 36.792L141.346 38.7889L143.123 38.6902L143.232 36.9142L141.235 36.792ZM137.563 36.792L135.565 36.8704L135.636 38.688L137.452 38.7889L137.563 36.792ZM137.563 32.424H139.563V30.424H137.563V32.424ZM123.163 32.424L121.174 32.6334L121.355 34.3533L123.083 34.4224L123.163 32.424ZM140.568 25.2111C140.646 25.8929 140.649 26.9715 140.566 27.7799L144.545 28.1881C144.654 27.1245 144.656 25.7551 144.542 24.7569L140.568 25.2111ZM142.416 25.9888C140.463 26.1251 124.807 26.0809 121.983 25.9851L121.848 29.9829C124.688 30.0791 140.52 30.1309 142.695 29.9792L142.416 25.9888ZM123.902 27.7503C123.825 27.0956 123.822 25.9506 123.904 25.199L119.927 24.769C119.816 25.7934 119.814 27.2404 119.929 28.2177L123.902 27.7503ZM121.965 26.9834C123.878 26.9362 127.039 26.936 130.363 26.936V22.936C127.064 22.936 123.841 22.9358 121.866 22.9846L121.965 26.9834ZM132.363 24.936V23.208H128.363V24.936H132.363ZM130.363 21.208C127.115 21.208 124.312 21.183 123.596 21.1397L123.354 25.1323C124.223 25.185 127.18 25.208 130.363 25.208V21.208ZM125.471 23.009C125.31 20.4721 125.355 17.8178 125.473 15.4099L121.478 15.2141C121.356 17.7022 121.305 20.5199 121.479 23.263L125.471 23.009ZM123.604 17.3078C124.263 17.2653 128.21 17.246 132.288 17.249C136.354 17.252 140.285 17.2768 140.888 17.3091L141.102 13.3149C140.362 13.2752 136.277 13.252 132.291 13.249C128.316 13.246 124.175 13.2627 123.347 13.3161L123.604 17.3078ZM138.998 15.4219C139.141 18.0123 139.133 21.7673 139.007 22.9191L142.984 23.3529C143.146 21.8647 143.138 17.8437 142.992 15.2021L138.998 15.4219ZM140.853 21.1411C140.272 21.1826 137.442 21.208 134.107 21.208V25.208C137.349 25.208 140.375 25.1854 141.138 25.1309L140.853 21.1411ZM132.107 23.208V24.936H136.107V23.208H132.107ZM134.107 26.936C138.022 26.936 141.48 26.9601 142.51 26.9835L142.601 22.9845C141.519 22.9599 138.017 22.936 134.107 22.936V26.936ZM124.931 18.216V20.256H128.931V18.216H124.931ZM126.844 22.2541C128.003 22.3045 136.56 22.3049 137.634 22.2537L137.444 18.2583C136.502 18.3031 128.067 18.3035 127.018 18.2579L126.844 22.2541ZM139.539 20.256V18.216H135.539V20.256H139.539ZM137.575 16.2163C136.222 16.1922 128.504 16.1674 126.871 16.2169L126.992 20.2151C128.527 20.1686 136.168 20.1918 137.504 20.2157L137.575 16.2163ZM123.263 31.3735C125.122 31.2806 139.02 31.2573 141.126 31.373L141.345 27.379C139.083 27.2547 125.044 27.2794 123.063 27.3785L123.263 31.3735ZM139.241 29.5202C139.376 31.3951 139.308 35.5486 139.239 36.6698L143.232 36.9142C143.307 35.6834 143.383 31.3409 143.23 29.2318L139.241 29.5202ZM141.124 34.7951C140.334 34.839 138.464 34.839 137.674 34.7951L137.452 38.7889C138.39 38.841 140.408 38.841 141.346 38.7889L141.124 34.7951ZM139.562 36.7136C139.516 35.5376 139.563 33.9869 139.563 32.424H135.563C135.563 33.7891 135.515 35.5984 135.565 36.8704L139.562 36.7136ZM137.563 30.424C132.188 30.424 124.991 30.4955 123.243 30.4256L123.083 34.4224C124.936 34.4965 132.331 34.424 137.563 34.424V30.424ZM125.152 32.2146C125.071 31.4418 125.071 30.3582 125.152 29.5854L121.174 29.1666C121.064 30.2178 121.064 31.5822 121.174 32.6334L125.152 32.2146ZM164.633 26.232L166.621 26.0049L166.418 24.232H164.633V26.232ZM164.633 29.16L164.773 31.1551L166.451 31.038L166.623 29.3641L164.633 29.16ZM143.993 29.16L142.007 29.3937L142.208 31.1006L143.926 31.1589L143.993 29.16ZM143.993 26.232L143.969 24.2322L142.196 24.254L142.005 26.017L143.993 26.232ZM152.441 26.184V28.184H154.441V26.184H152.441ZM152.441 25.224H154.441V23.224H152.441V25.224ZM145.553 25.128L143.559 25.2731L143.688 27.055L145.474 27.1264L145.553 25.128ZM145.553 18.792V16.792H143.672L143.557 18.6698L145.553 18.792ZM159.209 18.792V20.792H161.209V18.792H159.209ZM159.209 17.904H161.209V15.904H159.209V17.904ZM145.601 17.904L143.618 18.1599L143.843 19.904H145.601V17.904ZM145.601 15.072L145.581 13.0721L143.883 13.0896L143.625 14.7679L145.601 15.072ZM162.833 15.048L164.817 14.7937L164.599 13.0905L162.882 13.0486L162.833 15.048ZM162.833 21.456V23.456H164.614L164.82 21.687L162.833 21.456ZM149.177 21.456V19.456H147.177V21.456H149.177ZM149.177 22.344H147.177V24.344H149.177V22.344ZM163.073 22.344L165.061 22.1231L164.864 20.344H163.073V22.344ZM163.073 25.128L163.211 27.1233L164.964 27.0024L165.07 25.249L163.073 25.128ZM156.185 25.224V23.224H154.185V25.224H156.185ZM156.185 26.208H154.185V28.208H156.185V26.208ZM145.241 30.264L145.142 28.2665L143.432 28.352L143.252 30.0546L145.241 30.264ZM163.313 30.264L165.308 30.1198L165.181 28.3636L163.423 28.267L163.313 30.264ZM163.313 36.768L163.424 38.7649L165.199 38.6663L165.31 36.8928L163.313 36.768ZM159.641 36.768L157.643 36.8479L157.716 38.6641L159.53 38.7649L159.641 36.768ZM159.641 33.264L161.641 33.304L161.682 31.264H159.641V33.264ZM145.241 33.264L143.252 33.4734L143.433 35.1933L145.161 35.2624L145.241 33.264ZM162.646 26.4591C162.724 27.1409 162.727 28.1475 162.644 28.9559L166.623 29.3641C166.732 28.3005 166.735 27.0031 166.621 26.0049L162.646 26.4591ZM164.494 27.1648C162.541 27.3011 146.885 27.2569 144.061 27.1611L143.926 31.1589C146.766 31.2551 162.598 31.3069 164.773 31.1551L164.494 27.1648ZM145.98 28.9263C145.903 28.2716 145.901 27.1986 145.982 26.447L142.005 26.017C141.894 27.0414 141.892 28.4164 142.007 29.3937L145.98 28.9263ZM144.018 28.2318C145.954 28.2079 149.138 28.184 152.441 28.184V24.184C149.121 24.184 145.921 24.2081 143.969 24.2322L144.018 28.2318ZM154.441 26.184V25.224H150.441V26.184H154.441ZM152.441 23.224C149.501 23.224 146.795 23.1761 145.633 23.1296L145.474 27.1264C146.712 27.1759 149.478 27.224 152.441 27.224V23.224ZM147.548 24.9829C147.459 23.7529 147.411 21.1782 147.55 18.9142L143.557 18.6698C143.408 21.1098 143.456 23.8631 143.559 25.2731L147.548 24.9829ZM145.553 20.792H159.209V16.792H145.553V20.792ZM161.209 18.792V17.904H157.209V18.792H161.209ZM159.209 15.904H145.601V19.904H159.209V15.904ZM147.585 17.6481C147.509 17.0563 147.515 15.7837 147.578 15.3761L143.625 14.7679C143.495 15.6083 143.502 17.2637 143.618 18.1599L147.585 17.6481ZM145.622 17.0719C152.613 16.9998 159.874 16.9764 162.785 17.0474L162.882 13.0486C159.889 12.9756 152.558 13.0002 145.581 13.0721L145.622 17.0719ZM160.85 15.3023C160.89 15.6162 160.923 16.8168 160.923 18.216C160.923 19.6032 160.891 20.8469 160.847 21.225L164.82 21.687C164.896 21.0331 164.923 19.5408 164.923 18.216C164.923 16.9032 164.897 15.4158 164.817 14.7937L160.85 15.3023ZM162.833 19.456H149.177V23.456H162.833V19.456ZM147.177 21.456V22.344H151.177V21.456H147.177ZM149.177 24.344H163.073V20.344H149.177V24.344ZM161.086 22.5649C161.16 23.2377 161.126 24.2076 161.077 25.007L165.07 25.249C165.117 24.4644 165.178 23.1783 165.061 22.1231L161.086 22.5649ZM162.936 23.1327C162.323 23.175 159.495 23.224 156.185 23.224V27.224C159.452 27.224 162.432 27.177 163.211 27.1233L162.936 23.1327ZM154.185 25.224V26.208H158.185V25.224H154.185ZM156.185 28.208C158.138 28.208 159.983 28.214 161.472 28.22C162.957 28.226 164.1 28.232 164.633 28.232V24.232C164.111 24.232 162.986 24.226 161.488 24.22C159.996 24.214 158.145 24.208 156.185 24.208V28.208ZM145.341 32.2615C147.2 32.1686 161.098 32.1453 163.204 32.261L163.423 28.267C161.161 28.1427 147.123 28.1674 145.142 28.2665L145.341 32.2615ZM161.319 30.4082C161.454 32.2812 161.386 35.5454 161.317 36.6432L165.31 36.8928C165.385 35.6866 165.461 32.2308 165.308 30.1198L161.319 30.4082ZM163.202 34.7711C162.412 34.815 160.542 34.815 159.752 34.7711L159.53 38.7649C160.468 38.817 162.486 38.817 163.424 38.7649L163.202 34.7711ZM161.64 36.6881C161.595 35.5583 161.617 34.5148 161.641 33.304L157.642 33.224C157.618 34.4132 157.592 35.5777 157.643 36.8479L161.64 36.6881ZM159.641 31.264C154.266 31.264 147.069 31.3355 145.321 31.2656L145.161 35.2624C147.014 35.3365 154.409 35.264 159.641 35.264V31.264ZM147.23 33.0546C147.149 32.2818 147.149 31.2462 147.23 30.4734L143.252 30.0546C143.142 31.1058 143.142 32.4222 143.252 33.4734L147.23 33.0546Z" fill="white" mask="url(#path-2-outside-1_1_26)"/>
<path d="M26.625 18.5C26.625 16.7761 27.3098 15.1228 28.5288 13.9038C29.7478 12.6848 31.4011 12 33.125 12C34.8489 12 36.5022 12.6848 37.7212 13.9038C38.9402 15.1228 39.625 16.7761 39.625 18.5C39.625 20.2239 38.9402 21.8772 37.7212 23.0962C36.5022 24.3152 34.8489 25 33.125 25C31.4011 25 29.7478 24.3152 28.5288 23.0962C27.3098 21.8772 26.625 20.2239 26.625 18.5ZM21 39.2598C21 34.0406 25.2281 29.8125 30.4473 29.8125H35.8027C41.0219 29.8125 45.25 34.0406 45.25 39.2598C45.25 39.6684 44.9184 40 44.5098 40H21.7402C21.3316 40 21 39.6684 21 39.2598ZM55.7012 40H49.0434C49.0967 39.7171 49.125 39.4247 49.125 39.125V38.6562C49.125 35.6702 48.0931 32.9196 46.3694 30.75H48.0488C52.7172 30.75 56.5 34.5328 56.5 39.2012C56.5 39.6429 56.1412 40 55.7012 40ZM45.3125 25C44.0655 25 42.9168 24.5903 41.9882 23.8974C42.9486 22.3236 43.5 20.4746 43.5 18.5C43.5 17.0932 43.219 15.7481 42.7083 14.5215C43.4867 14.1092 44.3719 13.875 45.3125 13.875C48.3872 13.875 50.875 16.3628 50.875 19.4375C50.875 22.5122 48.3872 25 45.3125 25Z" fill="#CA87FF" stroke="#6C484D" stroke-width="2"/>
<rect x="30" y="16" width="1" height="3" fill="#6C484D"/>
<rect x="46" y="17" width="1" height="3" fill="#6C484D"/>
<rect x="35" y="16" width="1" height="3" fill="#6C484D"/>
</svg>
