<svg width="75" height="75" viewBox="0 0 75 75" fill="none" xmlns="http://www.w3.org/2000/svg">
<rect x="2" y="2" width="71" height="71" rx="14" fill="#A4E96B" stroke="#44A342" stroke-width="4"/>
<path d="M47.837 44.5996H47.8379C51.243 44.5996 54 41.844 54 38.4434V30C54 21.1626 46.8374 14 38 14C29.1626 14 22 21.1626 22 30V32.3438C22 33.6753 23.0747 34.75 24.4062 34.75C25.4686 34.75 26.3675 34.0659 26.6875 33.1131V33.75C26.6875 36.3706 28.8169 38.5 31.4375 38.5H32.375C33.9644 38.5 35.25 37.2144 35.25 35.625V29.0625C35.25 27.4731 33.9644 26.1875 32.375 26.1875H31.4375C29.1919 26.1875 27.307 27.751 26.8135 29.8474C26.8951 23.7377 31.8708 18.8125 38 18.8125C44.1292 18.8125 49.1049 23.7377 49.1865 29.8474C48.693 27.751 46.8081 26.1875 44.5625 26.1875H43.625C42.0356 26.1875 40.75 27.4731 40.75 29.0625V35.625C40.75 37.2144 42.0356 38.5 43.625 38.5H44.5625C46.8097 38.5 48.6956 36.9343 49.1875 34.8358V38.4434C49.1875 39.1858 48.5868 39.7867 47.8445 39.7871C47.8442 39.7871 47.844 39.7871 47.8438 39.7871L41.8956 39.7817C41.1984 38.9271 40.1344 38.375 38.9375 38.375H37.0625C34.9575 38.375 33.25 40.0825 33.25 42.1875C33.25 44.2925 34.9575 46 37.0625 46H38.9375C40.134 46 41.1976 45.4483 41.8949 44.5942L47.837 44.5996Z" fill="#2DC1FF" stroke="#6C484D" stroke-width="2"/>
<mask id="path-3-outside-1_11_6" maskUnits="userSpaceOnUse" x="8" y="45" width="57" height="17" fill="black">
<rect fill="white" x="8" y="45" width="57" height="17"/>
<path d="M19.3473 49.375C16.0323 49.375 11.8023 49.42 10.6773 49.375C10.6173 48.805 10.6173 47.935 10.6773 47.365C11.8773 47.32 20.2773 47.29 21.6423 47.365C21.7173 48.625 21.7173 55.33 21.6423 56.215C21.1773 56.275 19.8873 56.275 19.3473 56.215C19.3173 55.375 19.3173 50.11 19.3473 49.375ZM22.7523 58.015C22.8123 58.57 22.8123 59.335 22.7523 59.965C21.4623 60.055 11.6223 60.025 9.85234 59.965C9.79234 59.425 9.79234 58.6 9.85234 58.015C10.8723 58 12.4323 57.985 14.1423 57.985C14.1423 56.245 14.1573 52.735 14.1873 52.15C14.6523 52.06 15.9273 52.06 16.4523 52.15C16.4673 52.81 16.4823 56.275 16.4823 57.985C19.3173 57.985 22.0023 58 22.7523 58.015ZM32.9662 54.22C32.5612 54.265 31.3762 54.265 30.8512 54.22C30.7912 52.855 30.8062 47.875 30.8512 46.9C31.2562 46.825 32.5162 46.84 32.9662 46.9C32.9812 47.35 32.9812 48.235 32.9962 49.24H34.1212C34.1212 48.13 34.1362 47.185 34.1362 46.825C34.5412 46.75 35.8162 46.75 36.2662 46.825C36.2962 48.1 36.2962 52.96 36.2662 54.325C35.8612 54.385 34.6612 54.355 34.1362 54.325C34.1212 53.755 34.1212 52.54 34.1212 51.235C33.7162 51.235 33.3262 51.235 32.9812 51.22C32.9812 52.48 32.9662 53.65 32.9662 54.22ZM27.4012 49.09C26.4712 49.12 24.8962 49.12 23.7562 49.09C23.6962 48.505 23.6962 47.665 23.7562 47.11C24.9562 47.05 28.2712 47.035 29.5912 47.11C29.6962 48.85 29.7262 52.015 29.6362 53.755C29.0962 53.815 27.9412 53.815 27.4012 53.755C27.4012 52.645 27.4162 50.185 27.4012 49.09ZM36.2662 55.09C36.3412 56.35 36.3112 59.635 36.2662 60.37C35.8012 60.415 34.5862 60.415 34.0462 60.37C34.0162 59.605 34.0462 58 34.0462 57.085C30.7312 57.085 26.0212 57.13 24.8962 57.085C24.8362 56.515 24.8362 55.66 24.8962 55.09C26.1112 55.03 34.9012 55.015 36.2662 55.09ZM50.065 56.725C49.66 56.785 48.46 56.755 47.935 56.725C47.905 55.36 47.92 47.785 47.935 46.825C48.34 46.75 49.615 46.75 50.065 46.825C50.095 48.1 50.095 55.36 50.065 56.725ZM44.98 51.175C44.365 51.175 43.765 51.16 43.345 51.145C43.3 50.575 43.3 49.765 43.345 49.195C43.75 49.18 44.335 49.18 44.995 49.18C44.995 48.07 45.01 47.2 45.025 46.9C45.43 46.825 46.69 46.84 47.14 46.9C47.185 48.19 47.155 55.285 47.14 56.62C46.735 56.665 45.55 56.665 45.025 56.62C44.995 55.885 44.98 53.44 44.98 51.175ZM38.89 54.85C38.44 54.67 37.555 54.1 37.18 53.74C37.57 53.035 38.995 50.86 39.67 49.87C39.655 48.625 39.67 47.695 39.7 46.975C40.105 46.9 41.53 46.885 42.055 46.975C42.085 47.83 42.1 48.835 42.085 50.08C42.91 51.1 44.23 52.795 44.635 53.395C44.275 53.8 43.465 54.445 43.03 54.655C42.61 54.19 41.62 52.945 40.84 51.91C40.15 53.005 39.265 54.34 38.89 54.85ZM50.32 58.42C50.38 58.96 50.38 59.815 50.32 60.37C49.12 60.445 40.21 60.445 38.845 60.37C38.77 59.26 38.8 56.65 38.845 55.765C39.31 55.72 40.54 55.72 41.08 55.765C41.11 56.515 41.11 57.61 41.08 58.42C44.395 58.405 49.195 58.39 50.32 58.42ZM63.6988 46.825C63.7588 48.88 63.7588 58.54 63.6988 60.325C63.2338 60.385 61.9738 60.37 61.4488 60.325C61.4188 59.5 61.4038 56.785 61.4038 53.995C60.7288 53.995 60.0388 53.995 59.4238 53.965C59.3638 53.395 59.3638 52.36 59.4238 51.79C60.1438 51.76 60.8038 51.76 61.4188 51.76C61.4188 49.51 61.4338 47.515 61.4488 46.825C61.8538 46.735 63.1738 46.75 63.6988 46.825ZM54.0838 57.31C55.3138 57.28 58.5538 57.28 59.8138 57.31C59.8738 57.88 59.8738 58.75 59.8138 59.32C58.4488 59.38 53.3938 59.395 51.7738 59.32C51.6838 57.565 51.6988 48.97 51.7738 47.245C53.1088 47.185 57.7438 47.2 58.9138 47.245C58.9738 47.77 58.9738 48.7 58.9138 49.27C58.0138 49.3 54.9988 49.3 54.0838 49.27C54.0838 50.14 54.0988 51.175 54.0988 52.27C55.4638 52.255 57.4138 52.27 58.5388 52.27C58.5988 52.84 58.5838 53.71 58.5388 54.28C57.4438 54.31 55.4488 54.295 54.0988 54.28C54.0988 55.345 54.0838 56.38 54.0838 57.31Z"/>
</mask>
<path d="M19.3473 49.375C16.0323 49.375 11.8023 49.42 10.6773 49.375C10.6173 48.805 10.6173 47.935 10.6773 47.365C11.8773 47.32 20.2773 47.29 21.6423 47.365C21.7173 48.625 21.7173 55.33 21.6423 56.215C21.1773 56.275 19.8873 56.275 19.3473 56.215C19.3173 55.375 19.3173 50.11 19.3473 49.375ZM22.7523 58.015C22.8123 58.57 22.8123 59.335 22.7523 59.965C21.4623 60.055 11.6223 60.025 9.85234 59.965C9.79234 59.425 9.79234 58.6 9.85234 58.015C10.8723 58 12.4323 57.985 14.1423 57.985C14.1423 56.245 14.1573 52.735 14.1873 52.15C14.6523 52.06 15.9273 52.06 16.4523 52.15C16.4673 52.81 16.4823 56.275 16.4823 57.985C19.3173 57.985 22.0023 58 22.7523 58.015ZM32.9662 54.22C32.5612 54.265 31.3762 54.265 30.8512 54.22C30.7912 52.855 30.8062 47.875 30.8512 46.9C31.2562 46.825 32.5162 46.84 32.9662 46.9C32.9812 47.35 32.9812 48.235 32.9962 49.24H34.1212C34.1212 48.13 34.1362 47.185 34.1362 46.825C34.5412 46.75 35.8162 46.75 36.2662 46.825C36.2962 48.1 36.2962 52.96 36.2662 54.325C35.8612 54.385 34.6612 54.355 34.1362 54.325C34.1212 53.755 34.1212 52.54 34.1212 51.235C33.7162 51.235 33.3262 51.235 32.9812 51.22C32.9812 52.48 32.9662 53.65 32.9662 54.22ZM27.4012 49.09C26.4712 49.12 24.8962 49.12 23.7562 49.09C23.6962 48.505 23.6962 47.665 23.7562 47.11C24.9562 47.05 28.2712 47.035 29.5912 47.11C29.6962 48.85 29.7262 52.015 29.6362 53.755C29.0962 53.815 27.9412 53.815 27.4012 53.755C27.4012 52.645 27.4162 50.185 27.4012 49.09ZM36.2662 55.09C36.3412 56.35 36.3112 59.635 36.2662 60.37C35.8012 60.415 34.5862 60.415 34.0462 60.37C34.0162 59.605 34.0462 58 34.0462 57.085C30.7312 57.085 26.0212 57.13 24.8962 57.085C24.8362 56.515 24.8362 55.66 24.8962 55.09C26.1112 55.03 34.9012 55.015 36.2662 55.09ZM50.065 56.725C49.66 56.785 48.46 56.755 47.935 56.725C47.905 55.36 47.92 47.785 47.935 46.825C48.34 46.75 49.615 46.75 50.065 46.825C50.095 48.1 50.095 55.36 50.065 56.725ZM44.98 51.175C44.365 51.175 43.765 51.16 43.345 51.145C43.3 50.575 43.3 49.765 43.345 49.195C43.75 49.18 44.335 49.18 44.995 49.18C44.995 48.07 45.01 47.2 45.025 46.9C45.43 46.825 46.69 46.84 47.14 46.9C47.185 48.19 47.155 55.285 47.14 56.62C46.735 56.665 45.55 56.665 45.025 56.62C44.995 55.885 44.98 53.44 44.98 51.175ZM38.89 54.85C38.44 54.67 37.555 54.1 37.18 53.74C37.57 53.035 38.995 50.86 39.67 49.87C39.655 48.625 39.67 47.695 39.7 46.975C40.105 46.9 41.53 46.885 42.055 46.975C42.085 47.83 42.1 48.835 42.085 50.08C42.91 51.1 44.23 52.795 44.635 53.395C44.275 53.8 43.465 54.445 43.03 54.655C42.61 54.19 41.62 52.945 40.84 51.91C40.15 53.005 39.265 54.34 38.89 54.85ZM50.32 58.42C50.38 58.96 50.38 59.815 50.32 60.37C49.12 60.445 40.21 60.445 38.845 60.37C38.77 59.26 38.8 56.65 38.845 55.765C39.31 55.72 40.54 55.72 41.08 55.765C41.11 56.515 41.11 57.61 41.08 58.42C44.395 58.405 49.195 58.39 50.32 58.42ZM63.6988 46.825C63.7588 48.88 63.7588 58.54 63.6988 60.325C63.2338 60.385 61.9738 60.37 61.4488 60.325C61.4188 59.5 61.4038 56.785 61.4038 53.995C60.7288 53.995 60.0388 53.995 59.4238 53.965C59.3638 53.395 59.3638 52.36 59.4238 51.79C60.1438 51.76 60.8038 51.76 61.4188 51.76C61.4188 49.51 61.4338 47.515 61.4488 46.825C61.8538 46.735 63.1738 46.75 63.6988 46.825ZM54.0838 57.31C55.3138 57.28 58.5538 57.28 59.8138 57.31C59.8738 57.88 59.8738 58.75 59.8138 59.32C58.4488 59.38 53.3938 59.395 51.7738 59.32C51.6838 57.565 51.6988 48.97 51.7738 47.245C53.1088 47.185 57.7438 47.2 58.9138 47.245C58.9738 47.77 58.9738 48.7 58.9138 49.27C58.0138 49.3 54.9988 49.3 54.0838 49.27C54.0838 50.14 54.0988 51.175 54.0988 52.27C55.4638 52.255 57.4138 52.27 58.5388 52.27C58.5988 52.84 58.5838 53.71 58.5388 54.28C57.4438 54.31 55.4488 54.295 54.0988 54.28C54.0988 55.345 54.0838 56.38 54.0838 57.31Z" fill="#252525"/>
<path d="M19.3473 49.375L20.3465 49.4158L20.389 48.375H19.3473V49.375ZM10.6773 49.375L9.68284 49.4797L9.77336 50.3396L10.6374 50.3742L10.6773 49.375ZM10.6773 47.365L10.6399 46.3657L9.77359 46.3982L9.68284 47.2603L10.6773 47.365ZM21.6423 47.365L22.6406 47.3056L22.5876 46.4154L21.6972 46.3665L21.6423 47.365ZM21.6423 56.215L21.7703 57.2068L22.5706 57.1035L22.6388 56.2994L21.6423 56.215ZM19.3473 56.215L18.348 56.2507L18.3788 57.1135L19.2369 57.2089L19.3473 56.215ZM22.7523 58.015L23.7466 57.9075L23.652 57.0328L22.7723 57.0152L22.7523 58.015ZM22.7523 59.965L22.8219 60.9626L23.6675 60.9036L23.7478 60.0598L22.7523 59.965ZM9.85234 59.965L8.85846 60.0754L8.95398 60.9351L9.81846 60.9644L9.85234 59.965ZM9.85234 58.015L9.83764 57.0151L8.94831 57.0282L8.85756 57.913L9.85234 58.015ZM14.1423 57.985V58.985H15.1423V57.985H14.1423ZM14.1873 52.15L13.9973 51.1682L13.2287 51.317L13.1887 52.0988L14.1873 52.15ZM16.4523 52.15L17.4521 52.1273L17.4334 51.3036L16.6213 51.1644L16.4523 52.15ZM16.4823 57.985H15.4823V58.985H16.4823V57.985ZM19.3473 48.375C15.996 48.375 11.8161 48.4197 10.7173 48.3758L10.6374 50.3742C11.7886 50.4202 16.0687 50.375 19.3473 50.375V48.375ZM11.6718 49.2703C11.6192 48.7699 11.6192 47.9701 11.6718 47.4697L9.68284 47.2603C9.61551 47.8999 9.61551 48.8401 9.68284 49.4797L11.6718 49.2703ZM10.7148 48.3643C11.8992 48.3199 20.2654 48.2909 21.5875 48.3635L21.6972 46.3665C20.2893 46.2891 11.8555 46.3201 10.6399 46.3657L10.7148 48.3643ZM20.6441 47.4244C20.6794 48.0178 20.6986 49.9742 20.6986 51.9306C20.6986 53.9014 20.6789 55.7419 20.6459 56.1306L22.6388 56.2994C22.6808 55.8031 22.6986 53.8486 22.6986 51.9306C22.6986 49.9983 22.6803 47.9722 22.6406 47.3056L20.6441 47.4244ZM21.5144 55.2232C21.3515 55.2442 20.9695 55.26 20.523 55.26C20.0827 55.26 19.6706 55.2448 19.4578 55.2211L19.2369 57.2089C19.5641 57.2452 20.067 57.26 20.523 57.26C20.9727 57.26 21.4682 57.2458 21.7703 57.2068L21.5144 55.2232ZM20.3467 56.1793C20.3175 55.3613 20.3177 50.122 20.3465 49.4158L18.3482 49.3342C18.317 50.098 18.3172 55.3887 18.348 56.2507L20.3467 56.1793ZM21.7581 58.1225C21.81 58.602 21.8113 59.2987 21.7568 59.8702L23.7478 60.0598C23.8134 59.3713 23.8147 58.538 23.7466 57.9075L21.7581 58.1225ZM22.6827 58.9674C21.448 59.0536 11.6521 59.0254 9.88622 58.9656L9.81846 60.9644C11.5926 61.0246 21.4767 61.0564 22.8219 60.9626L22.6827 58.9674ZM10.8462 59.8546C10.7947 59.3907 10.7938 58.6371 10.8471 58.117L8.85756 57.913C8.79091 58.5629 8.79 59.4593 8.85846 60.0754L10.8462 59.8546ZM9.86705 59.0149C10.8826 59 12.4377 58.985 14.1423 58.985V56.985C12.427 56.985 10.8621 57 9.83764 57.0151L9.86705 59.0149ZM15.1423 57.985C15.1423 56.2269 15.1577 52.7532 15.186 52.2012L13.1887 52.0988C13.157 52.7168 13.1423 56.2631 13.1423 57.985H15.1423ZM14.3774 53.1318C14.5077 53.1066 14.8588 53.0825 15.2973 53.0825C15.7284 53.0825 16.1083 53.1056 16.2834 53.1356L16.6213 51.1644C16.2714 51.1044 15.7513 51.0825 15.2973 51.0825C14.8509 51.0825 14.332 51.1034 13.9973 51.1682L14.3774 53.1318ZM15.4526 52.1727C15.4673 52.8189 15.4823 56.2714 15.4823 57.985H17.4823C17.4823 56.2786 17.4674 52.8011 17.4521 52.1273L15.4526 52.1727ZM16.4823 58.985C19.319 58.985 21.994 59 22.7323 59.0148L22.7723 57.0152C22.0107 57 19.3157 56.985 16.4823 56.985V58.985ZM32.9662 54.22L33.0766 55.2139L33.9662 55.115V54.22H32.9662ZM30.8512 54.22L29.8521 54.2639L29.8907 55.1413L30.7658 55.2163L30.8512 54.22ZM30.8512 46.9L30.6691 45.9167L29.8888 46.0612L29.8522 46.8539L30.8512 46.9ZM32.9662 46.9L33.9656 46.8667L33.9374 46.0206L33.0983 45.9088L32.9662 46.9ZM32.9962 49.24L31.9963 49.2549L32.011 50.24H32.9962V49.24ZM34.1212 49.24V50.24H35.1212V49.24H34.1212ZM34.1362 46.825L33.9541 45.8417L33.1362 45.9932V46.825H34.1362ZM36.2662 46.825L37.2659 46.8015L37.2464 45.9746L36.4306 45.8386L36.2662 46.825ZM36.2662 54.325L36.4127 55.3142L37.2474 55.1905L37.2659 54.347L36.2662 54.325ZM34.1362 54.325L33.1365 54.3513L33.1607 55.2709L34.0791 55.3234L34.1362 54.325ZM34.1212 51.235H35.1212V50.235H34.1212V51.235ZM32.9812 51.22L33.0246 50.2209L31.9812 50.1756V51.22H32.9812ZM27.4012 49.09L28.4011 49.0763L28.3871 48.0577L27.3689 48.0905L27.4012 49.09ZM23.7562 49.09L22.7614 49.192L22.8511 50.0665L23.7299 50.0897L23.7562 49.09ZM23.7562 47.11L23.7062 46.1112L22.8537 46.1539L22.762 47.0025L23.7562 47.11ZM29.5912 47.11L30.5894 47.0498L30.5358 46.1621L29.6479 46.1116L29.5912 47.11ZM29.6362 53.755L29.7466 54.7489L30.591 54.6551L30.6348 53.8067L29.6362 53.755ZM27.4012 53.755H26.4012V54.65L27.2907 54.7489L27.4012 53.755ZM36.2662 55.09L37.2644 55.0306L37.2114 54.1404L36.321 54.0915L36.2662 55.09ZM36.2662 60.37L36.3625 61.3654L37.2121 61.2831L37.2643 60.4311L36.2662 60.37ZM34.0462 60.37L33.0469 60.4092L33.0816 61.2931L33.9631 61.3665L34.0462 60.37ZM34.0462 57.085H35.0462V56.085H34.0462V57.085ZM24.8962 57.085L23.9017 57.1897L23.9922 58.0496L24.8562 58.0842L24.8962 57.085ZM24.8962 55.09L24.8468 54.0912L23.9913 54.1335L23.9017 54.9853L24.8962 55.09ZM32.8557 53.2261C32.5315 53.2621 31.4142 53.2646 30.9366 53.2237L30.7658 55.2163C31.3381 55.2654 32.5909 55.2679 33.0766 55.2139L32.8557 53.2261ZM31.8502 54.1761C31.7915 52.8412 31.8065 47.8913 31.8501 46.9461L29.8522 46.8539C29.8059 47.8587 29.7908 52.8688 29.8521 54.2639L31.8502 54.1761ZM31.0333 47.8833C31.1297 47.8654 31.4547 47.8474 31.8874 47.8494C32.3016 47.8512 32.6758 47.8701 32.834 47.8912L33.0983 45.9088C32.8066 45.8699 32.3258 45.8513 31.8962 45.8494C31.4851 45.8476 30.9777 45.8596 30.6691 45.9167L31.0333 47.8833ZM31.9667 46.9333C31.9814 47.3733 31.9808 48.2204 31.9963 49.2549L33.9961 49.2251C33.9815 48.2496 33.9809 47.3267 33.9656 46.8667L31.9667 46.9333ZM32.9962 50.24H34.1212V48.24H32.9962V50.24ZM35.1212 49.24C35.1212 48.6893 35.1249 48.1789 35.1286 47.7602C35.1323 47.3463 35.1362 47.011 35.1362 46.825H33.1362C33.1362 46.999 33.1325 47.3162 33.1287 47.7423C33.125 48.1636 33.1212 48.6807 33.1212 49.24H35.1212ZM34.3183 47.8083C34.4191 47.7896 34.7536 47.7687 35.1843 47.7687C35.6079 47.7687 35.966 47.7888 36.1018 47.8114L36.4306 45.8386C36.1163 45.7862 35.612 45.7687 35.1843 45.7687C34.7638 45.7687 34.2582 45.7854 33.9541 45.8417L34.3183 47.8083ZM35.2664 46.8485C35.2961 48.1073 35.2961 52.9521 35.2664 54.303L37.2659 54.347C37.2962 52.9679 37.2963 48.0927 37.2659 46.8015L35.2664 46.8485ZM36.1196 53.3358C36.008 53.3523 35.6866 53.3627 35.2552 53.3588C34.853 53.3552 34.4379 53.3406 34.1932 53.3266L34.0791 55.3234C34.3595 55.3394 34.8068 55.3548 35.2372 55.3587C35.6383 55.3623 36.1193 55.3577 36.4127 55.3142L36.1196 53.3358ZM35.1358 54.2987C35.1213 53.7456 35.1212 52.5489 35.1212 51.235H33.1212C33.1212 52.5311 33.1211 53.7644 33.1365 54.3513L35.1358 54.2987ZM34.1212 50.235C33.7104 50.235 33.3436 50.2348 33.0246 50.2209L32.9377 52.2191C33.3087 52.2352 33.7219 52.235 34.1212 52.235V50.235ZM31.9812 51.22C31.9812 51.8463 31.9774 52.4509 31.9737 52.9716C31.97 53.4893 31.9662 53.9302 31.9662 54.22H33.9662C33.9662 53.9398 33.9699 53.5107 33.9736 52.9859C33.9774 52.4641 33.9812 51.8537 33.9812 51.22H31.9812ZM27.3689 48.0905C26.4622 48.1198 24.9071 48.1199 23.7825 48.0903L23.7299 50.0897C24.8852 50.1201 26.4801 50.1202 27.4334 50.0895L27.3689 48.0905ZM24.751 48.988C24.6977 48.4689 24.6983 47.6993 24.7504 47.2175L22.762 47.0025C22.694 47.6307 22.6946 48.5411 22.7614 49.192L24.751 48.988ZM23.8061 48.1088C24.9776 48.0502 28.2564 48.0358 29.5344 48.1084L29.6479 46.1116C28.286 46.0342 24.9347 46.0498 23.7062 46.1112L23.8061 48.1088ZM28.593 47.1702C28.696 48.8776 28.7254 52.005 28.6375 53.7033L30.6348 53.8067C30.727 52.025 30.6963 48.8224 30.5894 47.0498L28.593 47.1702ZM29.5257 52.7611C29.0591 52.813 27.9782 52.813 27.5116 52.7611L27.2907 54.7489C27.9041 54.817 29.1332 54.817 29.7466 54.7489L29.5257 52.7611ZM28.4012 53.755C28.4012 52.6602 28.4162 50.18 28.4011 49.0763L26.4013 49.1037C26.4161 50.19 26.4012 52.6298 26.4012 53.755H28.4012ZM35.2679 55.1494C35.3403 56.3658 35.3108 59.6104 35.268 60.3089L37.2643 60.4311C37.3115 59.6596 37.342 56.3342 37.2644 55.0306L35.2679 55.1494ZM36.1698 59.3747C35.773 59.4131 34.6187 59.4142 34.1292 59.3735L33.9631 61.3665C34.5536 61.4158 35.8293 61.4169 36.3625 61.3654L36.1698 59.3747ZM35.0454 60.3308C35.0164 59.5906 35.0462 58.0438 35.0462 57.085H33.0462C33.0462 57.9562 33.016 59.6194 33.0469 60.4092L35.0454 60.3308ZM34.0462 56.085C30.6955 56.085 26.0349 56.1297 24.9361 56.0858L24.8562 58.0842C26.0075 58.1303 30.7668 58.085 34.0462 58.085V56.085ZM25.8907 56.9803C25.838 56.4799 25.838 55.6951 25.8907 55.1947L23.9017 54.9853C23.8343 55.6249 23.8343 56.5501 23.9017 57.1897L25.8907 56.9803ZM24.9455 56.0888C26.1306 56.0303 34.8855 56.0156 36.2113 56.0885L36.321 54.0915C34.9168 54.0144 26.0917 54.0297 24.8468 54.0912L24.9455 56.0888ZM50.065 56.725L50.2115 57.7142L51.0462 57.5905L51.0648 56.747L50.065 56.725ZM47.935 56.725L46.9352 56.747L46.9555 57.6707L47.878 57.7234L47.935 56.725ZM47.935 46.825L47.7529 45.8417L46.9479 45.9908L46.9351 46.8094L47.935 46.825ZM50.065 46.825L51.0647 46.8015L51.0453 45.9746L50.2294 45.8386L50.065 46.825ZM44.98 51.175H45.98V50.175H44.98V51.175ZM43.345 51.145L42.3481 51.2237L42.4183 52.1125L43.3093 52.1444L43.345 51.145ZM43.345 49.195L43.308 48.1957L42.4182 48.2286L42.3481 49.1163L43.345 49.195ZM44.995 49.18V50.18H45.995V49.18H44.995ZM45.025 46.9L44.8429 45.9167L44.0657 46.0606L44.0262 46.8501L45.025 46.9ZM47.14 46.9L48.1394 46.8651L48.1099 46.0205L47.2722 45.9088L47.14 46.9ZM47.14 56.62L47.2504 57.6139L48.13 57.5162L48.1399 56.6312L47.14 56.62ZM45.025 56.62L44.0258 56.6608L44.0618 57.5411L44.9396 57.6163L45.025 56.62ZM38.89 54.85L38.5186 55.7785L39.2372 56.0659L39.6957 55.4424L38.89 54.85ZM37.18 53.74L36.305 53.2559L35.9327 53.9288L36.4875 54.4614L37.18 53.74ZM39.67 49.87L40.4962 50.4333L40.6737 50.173L40.6699 49.858L39.67 49.87ZM39.7 46.975L39.5179 45.9917L38.7341 46.1369L38.7009 46.9334L39.7 46.975ZM42.055 46.975L43.0544 46.9399L43.0259 46.1268L42.224 45.9894L42.055 46.975ZM42.085 50.08L41.0851 50.068L41.0807 50.4285L41.3075 50.7089L42.085 50.08ZM44.635 53.395L45.3824 54.0594L45.8982 53.4791L45.4638 52.8355L44.635 53.395ZM43.03 54.655L42.2879 55.3253L42.7901 55.8813L43.4647 55.5556L43.03 54.655ZM40.84 51.91L41.6386 51.3081L40.7665 50.1509L39.994 51.3769L40.84 51.91ZM50.32 58.42L51.3139 58.3096L51.2177 57.4436L50.3467 57.4204L50.32 58.42ZM50.32 60.37L50.3824 61.3681L51.2236 61.3155L51.3142 60.4775L50.32 60.37ZM38.845 60.37L37.8473 60.4374L37.9069 61.32L38.7901 61.3685L38.845 60.37ZM38.845 55.765L38.7487 54.7696L37.8901 54.8527L37.8463 55.7142L38.845 55.765ZM41.08 55.765L42.0792 55.725L42.0439 54.8419L41.163 54.7685L41.08 55.765ZM41.08 58.42L40.0807 58.383L40.0421 59.4247L41.0845 59.42L41.08 58.42ZM49.9185 55.7358C49.8068 55.7523 49.4854 55.7627 49.054 55.7588C48.6518 55.7552 48.2367 55.7406 47.9921 55.7266L47.878 57.7234C48.1583 57.7394 48.6057 57.7548 49.036 57.7587C49.4371 57.7623 49.9182 57.7577 50.2115 57.7142L49.9185 55.7358ZM48.9348 56.703C48.9051 55.3554 48.92 47.794 48.9349 46.8406L46.9351 46.8094C46.92 47.776 46.9049 55.3646 46.9352 56.747L48.9348 56.703ZM48.1171 47.8083C48.218 47.7896 48.5524 47.7687 48.9831 47.7687C49.4067 47.7687 49.7648 47.7888 49.9006 47.8114L50.2294 45.8386C49.9152 45.7862 49.4108 45.7687 48.9831 45.7687C48.5626 45.7687 48.057 45.7854 47.7529 45.8417L48.1171 47.8083ZM49.0653 46.8485C49.0949 48.1073 49.0949 55.3521 49.0652 56.703L51.0648 56.747C51.0951 55.3679 51.0951 48.0927 51.0647 46.8015L49.0653 46.8485ZM44.98 50.175C44.3797 50.175 43.792 50.1603 43.3807 50.1456L43.3093 52.1444C43.738 52.1597 44.3503 52.175 44.98 52.175V50.175ZM44.3419 51.0663C44.301 50.5487 44.301 49.7913 44.3419 49.2737L42.3481 49.1163C42.299 49.7387 42.299 50.6013 42.3481 51.2237L44.3419 51.0663ZM43.382 50.1943C43.764 50.1802 44.3266 50.18 44.995 50.18V48.18C44.3434 48.18 43.736 48.1798 43.308 48.1957L43.382 50.1943ZM45.995 49.18C45.995 48.0693 46.0101 47.2221 46.0238 46.9499L44.0262 46.8501C44.0099 47.1779 43.995 48.0707 43.995 49.18H45.995ZM45.2071 47.8833C45.3035 47.8654 45.6286 47.8474 46.0612 47.8494C46.4754 47.8512 46.8496 47.8701 47.0078 47.8912L47.2722 45.9088C46.9804 45.8699 46.4996 45.8513 46.0701 45.8494C45.6589 45.8476 45.1515 45.8596 44.8429 45.9167L45.2071 47.8833ZM46.1406 46.9349C46.1846 48.1967 46.1552 55.2656 46.1401 56.6088L48.1399 56.6312C48.1548 55.3044 48.1854 48.1833 48.1394 46.8651L46.1406 46.9349ZM47.0296 55.6261C46.7053 55.6621 45.5881 55.6646 45.1104 55.6237L44.9396 57.6163C45.5119 57.6654 46.7647 57.6679 47.2504 57.6139L47.0296 55.6261ZM46.0242 56.5792C45.9952 55.8695 45.98 53.4488 45.98 51.175H43.98C43.98 53.4312 43.9948 55.9005 44.0258 56.6608L46.0242 56.5792ZM39.2614 53.9215C39.1271 53.8678 38.8577 53.7221 38.5503 53.5231C38.2446 53.3251 37.9918 53.1331 37.8725 53.0186L36.4875 54.4614C36.7432 54.7069 37.1204 54.9799 37.4634 55.2019C37.8048 55.4229 38.2029 55.6522 38.5186 55.7785L39.2614 53.9215ZM38.055 54.2241C38.4189 53.5664 39.8173 51.4291 40.4962 50.4333L38.8438 49.3067C38.1727 50.2909 36.7211 52.5036 36.305 53.2559L38.055 54.2241ZM40.6699 49.858C40.6551 48.6266 40.67 47.7149 40.6991 47.0166L38.7009 46.9334C38.67 47.6751 38.6549 48.6234 38.6701 49.882L40.6699 49.858ZM39.8821 47.9583C39.9845 47.9393 40.3573 47.915 40.8365 47.9131C41.3087 47.9112 41.7182 47.9318 41.886 47.9606L42.224 45.9894C41.8668 45.9282 41.3013 45.9113 40.8285 45.9131C40.3627 45.915 39.8205 45.9357 39.5179 45.9917L39.8821 47.9583ZM41.0556 47.0101C41.085 47.8486 41.0999 48.8379 41.0851 50.068L43.0849 50.092C43.1001 48.8321 43.085 47.8114 43.0544 46.9399L41.0556 47.0101ZM41.3075 50.7089C42.136 51.7333 43.429 53.3958 43.8062 53.9545L45.4638 52.8355C45.031 52.1942 43.684 50.4667 42.8625 49.4511L41.3075 50.7089ZM43.8876 52.7306C43.7627 52.8711 43.5209 53.0924 43.2413 53.313C42.954 53.5396 42.7118 53.6982 42.5953 53.7544L43.4647 55.5556C43.7832 55.4018 44.1635 55.1329 44.48 54.8833C44.8041 54.6276 45.1473 54.3239 45.3824 54.0594L43.8876 52.7306ZM43.7721 53.9847C43.3844 53.5555 42.4174 52.3415 41.6386 51.3081L40.0414 52.5119C40.8226 53.5485 41.8356 54.8245 42.2879 55.3253L43.7721 53.9847ZM39.994 51.3769C39.3062 52.4683 38.437 53.778 38.0843 54.2576L39.6957 55.4424C40.093 54.902 40.9938 53.5417 41.686 52.4431L39.994 51.3769ZM49.3261 58.5304C49.3779 58.9961 49.3782 59.778 49.3258 60.2625L51.3142 60.4775C51.3818 59.852 51.3821 58.9239 51.3139 58.3096L49.3261 58.5304ZM50.2576 59.3719C49.1015 59.4442 40.231 59.4446 38.8999 59.3715L38.7901 61.3685C40.189 61.4454 49.1385 61.4458 50.3824 61.3681L50.2576 59.3719ZM39.8427 60.3026C39.7714 59.2468 39.7998 56.6798 39.8437 55.8158L37.8463 55.7142C37.8002 56.6202 37.7686 59.2732 37.8473 60.4374L39.8427 60.3026ZM38.9413 56.7603C39.3381 56.7219 40.5074 56.7208 40.997 56.7615L41.163 54.7685C40.5726 54.7192 39.2819 54.7181 38.7487 54.7696L38.9413 56.7603ZM40.0808 55.805C40.1097 56.5274 40.1098 57.5966 40.0807 58.383L42.0793 58.457C42.1102 57.6234 42.1103 56.5026 42.0792 55.725L40.0808 55.805ZM41.0845 59.42C44.4116 59.4049 49.1886 59.3902 50.2933 59.4196L50.3467 57.4204C49.2014 57.3898 44.3784 57.4051 41.0755 57.42L41.0845 59.42ZM63.6988 46.825L64.6984 46.7958L64.6738 45.9541L63.8402 45.835L63.6988 46.825ZM63.6988 60.325L63.8268 61.3168L64.6697 61.208L64.6983 60.3586L63.6988 60.325ZM61.4488 60.325L60.4495 60.3613L60.4817 61.2458L61.3634 61.3213L61.4488 60.325ZM61.4038 53.995H62.4038V52.995H61.4038V53.995ZM59.4238 53.965L58.4293 54.0697L58.519 54.9221L59.3751 54.9638L59.4238 53.965ZM59.4238 51.79L59.3822 50.7909L58.5197 50.8268L58.4293 51.6853L59.4238 51.79ZM61.4188 51.76V52.76H62.4188V51.76H61.4188ZM61.4488 46.825L61.2319 45.8488L60.4661 46.019L60.4491 46.8033L61.4488 46.825ZM54.0838 57.31H53.0838V58.3347L54.1082 58.3097L54.0838 57.31ZM59.8138 57.31L60.8083 57.2053L60.7163 56.3312L59.8376 56.3103L59.8138 57.31ZM59.8138 59.32L59.8577 60.319L60.7182 60.2812L60.8083 59.4247L59.8138 59.32ZM51.7738 59.32L50.7751 59.3712L50.8216 60.277L51.7276 60.3189L51.7738 59.32ZM51.7738 47.245L51.7289 46.246L50.8145 46.2871L50.7748 47.2016L51.7738 47.245ZM58.9138 47.245L59.9074 47.1315L59.8099 46.2787L58.9523 46.2457L58.9138 47.245ZM58.9138 49.27L58.9471 50.2694L59.8172 50.2404L59.9083 49.3747L58.9138 49.27ZM54.0838 49.27L54.1166 48.2705L53.0838 48.2367V49.27H54.0838ZM54.0988 52.27H53.0988V53.281L54.1098 53.2699L54.0988 52.27ZM58.5388 52.27L59.5333 52.1653L59.4391 51.27H58.5388V52.27ZM58.5388 54.28L58.5662 55.2796L59.465 55.255L59.5357 54.3587L58.5388 54.28ZM54.0988 54.28L54.1099 53.2801L53.0988 53.2688V54.28H54.0988ZM62.6993 46.8542C62.7587 48.8913 62.7586 58.5302 62.6994 60.2914L64.6983 60.3586C64.7591 58.5498 64.7589 48.8687 64.6984 46.7958L62.6993 46.8542ZM63.5709 59.3332C63.2067 59.3802 62.0266 59.3709 61.5342 59.3287L61.3634 61.3213C61.9211 61.3691 63.261 61.3898 63.8268 61.3168L63.5709 59.3332ZM62.4482 60.2887C62.419 59.4863 62.4038 56.7932 62.4038 53.995H60.4038C60.4038 56.7768 60.4187 59.5137 60.4495 60.3613L62.4482 60.2887ZM61.4038 52.995C60.7228 52.995 60.0585 52.9948 59.4726 52.9662L59.3751 54.9638C60.0191 54.9952 60.7348 54.995 61.4038 54.995V52.995ZM60.4183 53.8603C60.3657 53.3599 60.3657 52.3951 60.4183 51.8947L58.4293 51.6853C58.362 52.3249 58.362 53.4301 58.4293 54.0697L60.4183 53.8603ZM59.4655 52.7891C60.1618 52.7601 60.8021 52.76 61.4188 52.76V50.76C60.8056 50.76 60.1259 50.7599 59.3822 50.7909L59.4655 52.7891ZM62.4188 51.76C62.4188 49.5102 62.4339 47.5248 62.4486 46.8467L60.4491 46.8033C60.4338 47.5052 60.4188 49.5098 60.4188 51.76H62.4188ZM61.6658 47.8012C61.6646 47.8014 61.688 47.7966 61.7458 47.7905C61.7996 47.7848 61.8683 47.7795 61.9507 47.7751C62.1156 47.7663 62.3151 47.7622 62.5246 47.7631C62.9579 47.7649 63.3643 47.7874 63.5574 47.8149L63.8402 45.835C63.5084 45.7876 62.9922 45.7651 62.533 45.7631C62.1022 45.7613 61.5606 45.7758 61.2319 45.8488L61.6658 47.8012ZM54.1082 58.3097C55.3218 58.2801 58.5457 58.2801 59.79 58.3097L59.8376 56.3103C58.562 56.2799 55.3059 56.2799 54.0594 56.3103L54.1082 58.3097ZM58.8193 57.4147C58.872 57.9151 58.872 58.7149 58.8193 59.2153L60.8083 59.4247C60.8757 58.7851 60.8757 57.8449 60.8083 57.2053L58.8193 57.4147ZM59.7699 58.321C58.4318 58.3798 53.407 58.3945 51.8201 58.3211L51.7276 60.3189C53.3806 60.3955 58.4659 60.3802 59.8577 60.319L59.7699 58.321ZM52.7725 59.2688C52.6844 57.5512 52.699 48.9884 52.7729 47.2884L50.7748 47.2016C50.6987 48.9516 50.6832 57.5788 50.7751 59.3712L52.7725 59.2688ZM51.8187 48.244C53.1203 48.1855 57.7268 48.2001 58.8754 48.2443L58.9523 46.2457C57.7608 46.1999 53.0974 46.1845 51.7289 46.246L51.8187 48.244ZM57.9203 47.3585C57.9713 47.8052 57.9723 48.6618 57.9193 49.1653L59.9083 49.3747C59.9753 48.7382 59.9763 47.7348 59.9074 47.1315L57.9203 47.3585ZM58.8805 48.2706C58.0029 48.2998 55.0099 48.2998 54.1166 48.2705L54.0511 50.2695C54.9877 50.3002 58.0248 50.3002 58.9471 50.2694L58.8805 48.2706ZM53.0838 49.27C53.0838 49.7096 53.0876 50.1901 53.0914 50.6931C53.0951 51.1975 53.0988 51.7266 53.0988 52.27H55.0988C55.0988 51.7183 55.095 51.1825 55.0913 50.6782C55.0875 50.1724 55.0838 49.7004 55.0838 49.27H53.0838ZM54.1098 53.2699C55.4682 53.255 57.3996 53.27 58.5388 53.27V51.27C57.4281 51.27 55.4595 51.255 54.0878 51.2701L54.1098 53.2699ZM57.5443 52.3747C57.5956 52.8619 57.5842 53.6656 57.5419 54.2013L59.5357 54.3587C59.5834 53.7544 59.6021 52.8181 59.5333 52.1653L57.5443 52.3747ZM58.5114 53.2804C57.4394 53.3097 55.4649 53.2951 54.1099 53.2801L54.0877 55.2799C55.4328 55.2949 57.4482 55.3103 58.5662 55.2796L58.5114 53.2804ZM53.0988 54.28C53.0988 54.8083 53.0951 55.3298 53.0914 55.8382C53.0876 56.3453 53.0838 56.8406 53.0838 57.31H55.0838C55.0838 56.8494 55.0875 56.3622 55.0913 55.853C55.095 55.3452 55.0988 54.8167 55.0988 54.28H53.0988Z" fill="white" mask="url(#path-3-outside-1_11_6)"/>
</svg>
