<svg fill="none" viewBox="0 0 111 128"><path fill="#44A342" d="M104.55 3.664H3.312v106.631H104.55V3.665z"/><path fill="#fff" d="M85.398 103.465l-12.213-90.87H32.528L20.91 103.524l27.173-.176v-6.733h9.771v6.84h27.544v.01zM48.816 79.037l4.035-38.214 4.046 38.214h-8.081z"/><path fill="#9CA3AB" d="M75.442 84.9V62.427H62.74V94.67h19.542V84.9h-6.84z"/><path fill="#fff" d="M97.915 84.9V62.427h-13.68V94.67h20.52V84.9h-6.84z"/><path fill="#231F20" d="M102.595 0H7.817C4.035 0 0 4.065 0 7.875v112.25C0 123.935 4.035 128 7.817 128h94.778c3.782 0 7.817-4.075 7.817-7.875V7.875c0-3.81-4.035-7.875-7.817-7.875zm.968 96.215c0 3.263-2.629 5.911-5.863 5.911H12.712c-3.234 0-5.863-2.648-5.863-5.911V12.517c0-3.264 2.629-5.912 5.863-5.912H97.69c3.235 0 5.863 2.648 5.863 5.912v83.688l.01.01z"/><path fill="#fff" d="M21.838 108.595v1.495h-3.293c0 1.309.44 2.452 1.33 3.41.703.752 1.66 1.378 2.872 1.866l-1.143 1.192a15.23 15.23 0 01-2.463-1.221c-.82-.508-1.436-1.016-1.856-1.524-.4.498-1.006 1.006-1.827 1.524-.753.459-1.554.869-2.424 1.221l-1.026-1.192c1.183-.469 2.111-1.094 2.785-1.866.821-.938 1.231-2.081 1.231-3.41h-3.126v-1.495h8.94zm-5.599 11.422H26.5v1.495H15.946c-.81 0-1.387-.117-1.739-.352-.332-.224-.498-.605-.498-1.123v-2.834h2.52v2.804l.01.01zm10.143-1.964H23.85v-5.032h-2.785v-1.505h2.785v-3.185h2.53v9.732-.01zm6.282-8.501v-1.299h2.521v1.299h2.394v1.486h-2.394v2.149c0 1.603.293 2.99.89 4.172.488.987 1.162 1.779 2.012 2.375l-1.553.957c-.645-.449-1.183-.967-1.583-1.553a6.235 6.235 0 01-1.046-2.453c-.215.938-.586 1.769-1.114 2.472a6.574 6.574 0 01-1.72 1.544l-1.377-.958a5.998 5.998 0 002.081-2.354c.596-1.153.89-2.551.89-4.192v-2.15H30.31v-1.485h2.354v-.01zm3.684 5.384v-1.456h2.062v-5.159h2.52v13.338h-2.52v-6.733h-2.062v.01zm8.432 6.732h-2.53v-13.337h2.53v13.337zm12.126-11.588c.772 1.114 1.163 2.54 1.163 4.27 0 1.827-.39 3.322-1.163 4.465-.82 1.251-1.974 1.876-3.449 1.876-1.475 0-2.648-.625-3.478-1.876-.762-1.143-1.144-2.638-1.144-4.465 0-1.73.382-3.156 1.144-4.27.84-1.221 2.003-1.827 3.478-1.827s2.619.615 3.45 1.827zm-5.032.997c-.332.84-.498 1.925-.498 3.263 0 1.446.166 2.599.498 3.479.362.938.89 1.416 1.573 1.416.684 0 1.192-.469 1.554-1.416.342-.88.508-2.033.508-3.479 0-1.329-.176-2.423-.508-3.263-.381-.919-.899-1.368-1.554-1.368-.654 0-1.192.459-1.573 1.368zm10.807 10.582h-2.53v-13.338h2.53v13.338zm5.345-9.527c-.333-.352-.499-.723-.499-1.124 0-.772.547-1.407 1.642-1.934 1.202-.557 2.863-.831 4.963-.831 2.101 0 3.752.274 4.964.831 1.104.517 1.661 1.162 1.661 1.934 0 .391-.176.772-.508 1.124-.361.361-.88.674-1.534.938v1.426h2.814v1.515H66.746v-1.515h2.784v-1.426c-.664-.264-1.162-.586-1.504-.938zm10.875 5.481c1.075.489 1.602 1.095 1.602 1.818 0 .723-.537 1.299-1.602 1.788-1.183.547-2.775.821-4.778.821-2.003 0-3.616-.274-4.798-.821-1.055-.489-1.583-1.085-1.583-1.788 0-.704.528-1.329 1.583-1.818 1.182-.547 2.785-.82 4.798-.82 2.012 0 3.595.273 4.778.82zm-7.768-7.465c-.665.225-.987.508-.987.86s.332.626.987.841c.713.244 1.71.361 2.97.361 1.26 0 2.257-.117 2.99-.361.655-.225.987-.509.987-.841 0-.332-.332-.635-.987-.86-.733-.234-1.72-.351-2.99-.351-1.27 0-2.257.117-2.97.351zm.088 8.521c-.635.205-.958.449-.958.752s.313.547.958.752c.713.225 1.69.342 2.921.342 1.231 0 2.15-.117 2.853-.342.645-.205.977-.449.977-.752s-.322-.547-.977-.752c-.703-.225-1.65-.333-2.853-.333-1.202 0-2.198.108-2.921.333zm4.963-4.163v-.86a20.31 20.31 0 01-.977.098c-.322.02-.674.029-1.075.029-.4 0-.771 0-1.094-.029a19.568 19.568 0 01-.987-.098v.86h4.133zm16.885-5.911v4.133c0 1.974-.635 3.635-1.915 4.973-1.183 1.232-2.941 2.218-5.277 2.981l-1.006-1.134c1.71-.596 3.029-1.348 3.977-2.267 1.143-1.104 1.71-2.423 1.71-3.977V110.1H85.28v-1.515h7.788v.01zm5.667-.274v5.404h1.729v1.524h-1.73v6.41h-2.53v-13.338h2.53z"/></svg>