<svg fill="none" viewBox="0 0 251 48"><path fill="#000" d="M5.712 45.488c-1.392 0-2.304-.912-2.304-2.544V4.784c0-1.92 1.008-2.928 2.88-2.928h1.536c1.728 0 2.688.672 3.168 2.4l9.696 35.712 9.504-35.712c.48-1.728 1.44-2.4 3.168-2.4h1.392c1.872 0 2.88 1.056 2.88 2.928v38.16c0 1.632-.96 2.544-2.4 2.544s-2.4-.912-2.4-2.544V9.92L23.76 43.328c-.384 1.488-1.344 2.16-2.832 2.16h-.672c-1.488 0-2.496-.72-2.88-2.16L8.016 9.872v33.072c0 1.632-.912 2.544-2.304 2.544zm91.492-14.112v11.568c0 1.632-.864 2.544-2.4 2.544s-2.4-.912-2.4-2.544V31.376c0-3.84-2.544-4.992-6.576-4.992h-7.536v16.56c0 1.632-.864 2.544-2.4 2.544s-2.4-.912-2.4-2.544V4.64c0-1.632.912-2.544 2.544-2.544H87.94c5.904 0 8.784 1.824 8.784 7.776v7.488c0 3.648-1.92 6.624-6.72 6.912 4.848.144 7.2 3.312 7.2 7.104zm-5.28-14.4v-5.472c0-3.792-1.392-5.376-5.424-5.376h-8.208v16.224h7.68c3.936 0 5.952-1.44 5.952-5.376zm31.096 28.272h-16.656c-1.632 0-2.544-.912-2.544-2.544V4.64c0-1.632.912-2.544 2.544-2.544h16.176c1.632 0 2.544.72 2.544 2.016s-.912 2.016-2.544 2.016h-13.92v14.928h13.44c1.632 0 2.544.72 2.544 2.016s-.912 2.016-2.544 2.016h-13.44v16.128h14.4c1.632 0 2.544.72 2.544 2.016s-.912 2.016-2.544 2.016zm9.114.24c-1.392 0-2.304-.912-2.304-2.544V4.784c0-1.92 1.008-2.928 2.88-2.928h1.536c1.728 0 2.688.672 3.168 2.4l9.696 35.712 9.504-35.712c.48-1.728 1.44-2.4 3.168-2.4h1.392c1.872 0 2.88 1.056 2.88 2.928v38.16c0 1.632-.96 2.544-2.4 2.544s-2.4-.912-2.4-2.544V9.92l-9.072 33.408c-.384 1.488-1.344 2.16-2.832 2.16h-.672c-1.488 0-2.496-.72-2.88-2.16l-9.36-33.456v33.072c0 1.632-.912 2.544-2.304 2.544zm41.206-1.392h-1.056c-1.248 0-2.112-.864-2.112-2.112V40.88c0-1.248.864-2.112 2.112-2.112h1.056c1.248 0 2.112.864 2.112 2.112v1.104c0 1.248-.864 2.112-2.112 2.112zm15.138 1.392c-1.392 0-2.304-.912-2.304-2.544V4.784c0-1.92 1.008-2.928 2.88-2.928h1.536c1.728 0 2.688.672 3.168 2.4l9.696 35.712 9.504-35.712c.48-1.728 1.44-2.4 3.168-2.4h1.392c1.872 0 2.88 1.056 2.88 2.928v38.16c0 1.632-.96 2.544-2.4 2.544s-2.4-.912-2.4-2.544V9.92l-9.072 33.408c-.384 1.488-1.344 2.16-2.832 2.16h-.672c-1.488 0-2.496-.72-2.88-2.16l-9.36-33.456v33.072c0 1.632-.912 2.544-2.304 2.544zm58.198-.24H230.02c-1.632 0-2.544-.912-2.544-2.544V4.64c0-1.632.912-2.544 2.544-2.544h16.176c1.632 0 2.544.72 2.544 2.016s-.912 2.016-2.544 2.016h-13.92v14.928h13.44c1.632 0 2.544.72 2.544 2.016s-.912 2.016-2.544 2.016h-13.44v16.128h14.4c1.632 0 2.544.72 2.544 2.016s-.912 2.016-2.544 2.016z"/><rect width="4" height="16" x="54" y="3" fill="#000" rx="2"/><rect width="26" height="26" x="43" y="18" fill="#fff" stroke="#000" stroke-width="4" rx="13"/></svg>