<svg width="301" height="76" viewBox="0 0 301 76" fill="none" xmlns="http://www.w3.org/2000/svg">
<g filter="url(#filter0_d_151_10)">
<rect width="299" height="74" rx="30" fill="#E11D48"/>
<path fill-rule="evenodd" clip-rule="evenodd" d="M264.927 17.5716C264.683 17.245 264.317 17.0315 263.913 16.9802C263.509 16.9289 263.101 17.0442 262.784 17.2996C259.044 20.3093 256.435 24.6755 255.706 29.6527C254.393 28.7008 253.24 27.541 252.295 26.2216C252.035 25.8587 251.627 25.6303 251.182 25.5987C250.737 25.5671 250.3 25.7354 249.992 26.058C246.901 29.2888 245 33.6737 245 38.4993C245 48.4404 253.059 56.4993 263 56.4993C272.941 56.4993 281 48.4404 281 38.4993C281 31.1775 276.629 24.88 270.36 22.0681C268.141 20.9851 266.309 19.4257 264.927 17.5716ZM270.5 41.5001C270.5 45.6422 267.142 49.0001 263 49.0001C258.858 49.0001 255.5 45.6422 255.5 41.5001C255.5 40.6814 255.631 39.8934 255.874 39.1558C257.131 40.0851 258.575 40.7747 260.141 41.1573C260.572 38.3558 261.973 35.8739 263.99 34.0648C267.664 34.5492 270.5 37.6935 270.5 41.5001Z" fill="white"/>
<path d="M17.504 26.024C17.024 26.088 16.656 25.816 16.4 25.208C16.144 24.568 16.016 23.864 16.016 23.096C16.016 22.328 16.144 21.64 16.4 21.032C16.656 20.392 17.056 20.056 17.6 20.024C18.72 20.024 19.872 20.024 21.056 20.024C22.272 20.024 23.488 20.04 24.704 20.072C24.736 19.432 24.752 18.776 24.752 18.104C24.784 17.432 24.8 16.808 24.8 16.232C24.8 15.816 25.104 15.512 25.712 15.32C26.352 15.096 27.056 14.984 27.824 14.984C28.624 14.984 29.376 15.112 30.08 15.368C30.784 15.592 31.184 15.96 31.28 16.472C31.376 17.048 31.456 17.672 31.52 18.344C31.584 18.984 31.648 19.608 31.712 20.216C32.928 20.248 34.144 20.296 35.36 20.36C36.576 20.392 37.776 20.44 38.96 20.504C39.536 20.536 39.968 20.84 40.256 21.416C40.544 21.96 40.688 22.552 40.688 23.192C40.688 23.832 40.544 24.424 40.256 24.968C40 25.512 39.616 25.768 39.104 25.736C38.56 25.704 38.016 25.688 37.472 25.688C36.928 25.656 36.384 25.64 35.84 25.64C36.96 26.568 37.824 27.688 38.432 29C39.04 30.312 39.344 31.704 39.344 33.176C39.344 35.8 38.48 37.864 36.752 39.368C35.056 40.872 32.368 41.624 28.688 41.624C25.072 41.624 22.4 40.904 20.672 39.464C18.976 38.024 18.128 36.024 18.128 33.464C18.128 31.928 18.4 30.52 18.944 29.24C19.488 27.928 20.272 26.792 21.296 25.832L17.504 26.024ZM28.928 60.248C28.512 60.472 28 60.456 27.392 60.2C26.784 59.976 26.192 59.624 25.616 59.144C25.04 58.664 24.544 58.12 24.128 57.512C23.744 56.936 23.552 56.392 23.552 55.88C23.552 55.368 23.808 54.968 24.32 54.68C27.392 53.208 29.728 51.64 31.328 49.976C32.96 48.312 33.664 46.296 33.44 43.928C33.408 43.608 33.488 43.32 33.68 43.064C33.872 42.808 34.128 42.584 34.448 42.392C34.768 42.2 35.136 42.056 35.552 41.96C35.968 41.864 36.4 41.816 36.848 41.816C37.584 41.816 38.256 41.976 38.864 42.296C39.472 42.584 39.84 43.048 39.968 43.688C40.032 44.04 40.08 44.408 40.112 44.792C40.144 45.176 40.16 45.544 40.16 45.896C40.16 46.824 40.032 47.8 39.776 48.824C41.504 49.592 43.12 50.424 44.624 51.32C46.16 52.216 47.568 53.208 48.848 54.296C49.232 54.648 49.424 55.096 49.424 55.64C49.424 56.216 49.232 56.824 48.848 57.464C48.496 58.104 48.048 58.648 47.504 59.096C46.992 59.576 46.448 59.88 45.872 60.008C45.296 60.168 44.816 60.04 44.432 59.624C43.376 58.472 42.272 57.4 41.12 56.408C40 55.416 38.768 54.488 37.424 53.624C35.472 56.152 32.64 58.36 28.928 60.248ZM42.368 41.048C42.496 39.704 42.592 38.216 42.656 36.584C42.72 34.952 42.752 33.224 42.752 31.4C42.752 29.192 42.704 26.952 42.608 24.68C42.544 22.408 42.464 20.264 42.368 18.248C42.336 17.928 42.416 17.64 42.608 17.384C42.8 17.128 43.04 16.92 43.328 16.76C43.648 16.568 44.016 16.424 44.432 16.328C44.848 16.232 45.264 16.184 45.68 16.184C46.384 16.184 47.024 16.328 47.6 16.616C48.208 16.904 48.576 17.368 48.704 18.008C48.928 19.256 49.12 20.584 49.28 21.992C49.44 23.4 49.584 24.856 49.712 26.36C50.352 26.36 50.992 26.36 51.632 26.36C52.304 26.36 52.944 26.376 53.552 26.408C54.128 26.44 54.56 26.76 54.848 27.368C55.136 27.944 55.28 28.6 55.28 29.336C55.28 29.752 55.232 30.168 55.136 30.584C55.04 31 54.896 31.384 54.704 31.736C54.512 32.056 54.272 32.328 53.984 32.552C53.696 32.744 53.36 32.84 52.976 32.84C52.432 32.84 51.92 32.84 51.44 32.84C50.992 32.84 50.528 32.856 50.048 32.888C50.08 33.432 50.096 33.976 50.096 34.52C50.096 35.064 50.096 35.608 50.096 36.152C50.096 38.136 50.048 39.896 49.952 41.432C49.92 42.04 49.52 42.504 48.752 42.824C47.984 43.112 47.136 43.256 46.208 43.256C45.184 43.256 44.272 43.08 43.472 42.728C42.672 42.344 42.304 41.784 42.368 41.048ZM28.784 27.944C28.08 27.944 27.488 28.088 27.008 28.376C26.528 28.632 26.144 28.984 25.856 29.432C25.568 29.88 25.36 30.392 25.232 30.968C25.104 31.512 25.04 32.056 25.04 32.6C25.04 33.624 25.392 34.392 26.096 34.904C26.8 35.416 27.648 35.672 28.64 35.672C29.696 35.672 30.624 35.384 31.424 34.808C32.224 34.232 32.624 33.4 32.624 32.312C32.624 31.736 32.544 31.192 32.384 30.68C32.224 30.168 31.984 29.704 31.664 29.288C31.344 28.872 30.944 28.552 30.464 28.328C29.984 28.072 29.424 27.944 28.784 27.944ZM65.3413 41.384C65.4053 41.96 65.6773 42.36 66.1573 42.584C66.6373 42.776 67.1493 42.904 67.6933 42.968C68.8773 43.064 70.1413 43.112 71.4853 43.112C72.8613 43.112 74.2213 43.064 75.5653 42.968C76.9413 42.872 78.2853 42.744 79.5973 42.584C80.0773 42.552 80.4773 42.84 80.7973 43.448C81.1173 44.024 81.2773 44.648 81.2773 45.32C81.2773 45.768 81.1973 46.184 81.0373 46.568C80.8773 46.92 80.6053 47.144 80.2213 47.24C78.2053 47.784 76.2053 48.232 74.2213 48.584C72.2373 48.904 70.2373 49.064 68.2213 49.064C67.0053 49.064 65.8053 49 64.6213 48.872C63.4693 48.744 62.3173 48.536 61.1653 48.248C60.3333 48.056 59.6773 47.656 59.1973 47.048C58.7173 46.408 58.4133 45.704 58.2853 44.936C58.1893 44.296 58.1093 43.496 58.0453 42.536C58.0133 41.544 57.9973 40.472 57.9973 39.32C57.9973 38.072 58.0133 36.76 58.0453 35.384C58.1093 34.008 58.1733 32.68 58.2373 31.4C58.3333 30.12 58.4293 28.936 58.5253 27.848C58.6533 26.76 58.7813 25.864 58.9093 25.16C59.0693 24.328 59.4533 23.672 60.0613 23.192C60.6693 22.712 61.3573 22.44 62.1253 22.376C64.0773 22.184 66.0293 22.088 67.9813 22.088C69.6453 22.088 71.2933 22.152 72.9253 22.28C74.5893 22.376 76.2373 22.504 77.8693 22.664C78.5413 22.728 79.0373 23.032 79.3573 23.576C79.6773 24.088 79.8373 24.664 79.8373 25.304C79.8373 25.944 79.6613 26.552 79.3093 27.128C78.9573 27.672 78.4453 27.944 77.7733 27.944C77.1333 27.944 76.3333 27.96 75.3733 27.992C74.4133 27.992 73.4053 28.008 72.3493 28.04C71.3253 28.04 70.3333 28.072 69.3733 28.136C68.4133 28.2 67.5973 28.28 66.9253 28.376C66.4453 28.44 66.0933 28.648 65.8693 29C65.6773 29.32 65.5493 29.736 65.4853 30.248C65.4213 30.664 65.3733 31.096 65.3413 31.544C65.3413 31.992 65.3253 32.456 65.2933 32.936H67.5493C70.8773 32.936 74.2533 32.984 77.6773 33.08C78.1573 33.08 78.5093 33.32 78.7333 33.8C78.9573 34.28 79.0693 34.84 79.0693 35.48C79.0693 35.832 79.0213 36.2 78.9253 36.584C78.8613 36.936 78.7493 37.256 78.5893 37.544C78.4613 37.832 78.2853 38.056 78.0613 38.216C77.8693 38.376 77.6293 38.456 77.3413 38.456C76.4133 38.424 75.5013 38.408 74.6053 38.408C73.7093 38.408 72.7973 38.408 71.8693 38.408C70.7493 38.408 69.6293 38.408 68.5093 38.408C67.4213 38.408 66.3173 38.44 65.1973 38.504C65.1973 39.624 65.2453 40.584 65.3413 41.384ZM82.7653 51.944C83.0213 49.768 83.1973 47.288 83.2933 44.504C83.3893 41.72 83.4373 38.84 83.4373 35.864C83.4373 33.528 83.4053 31.224 83.3413 28.952C83.3093 26.648 83.2613 24.472 83.1973 22.424C83.1653 21.784 83.5013 21.288 84.2053 20.936C84.9093 20.552 85.6773 20.36 86.5093 20.36C87.2133 20.36 87.8533 20.504 88.4293 20.792C89.0373 21.08 89.3893 21.544 89.4853 22.184C89.7413 23.688 89.9493 25.272 90.1093 26.936C90.2693 28.568 90.4133 30.28 90.5413 32.072C91.1813 32.072 91.8213 32.072 92.4613 32.072C93.1013 32.072 93.7413 32.088 94.3813 32.12C94.9573 32.152 95.3893 32.472 95.6773 33.08C95.9653 33.656 96.1093 34.312 96.1093 35.048C96.1093 35.464 96.0613 35.88 95.9653 36.296C95.8693 36.712 95.7253 37.096 95.5333 37.448C95.3413 37.768 95.1013 38.04 94.8133 38.264C94.5253 38.456 94.1893 38.552 93.8053 38.552C93.2613 38.552 92.7493 38.552 92.2693 38.552C91.8213 38.552 91.3413 38.568 90.8293 38.6C90.8613 39.368 90.8773 40.136 90.8773 40.904C90.8773 41.672 90.8773 42.424 90.8773 43.16C90.8773 44.824 90.8453 46.424 90.7813 47.96C90.7493 49.496 90.6853 50.936 90.5893 52.28C90.5253 52.856 90.1253 53.272 89.3893 53.528C88.6853 53.784 87.8853 53.912 86.9893 53.912C86.4453 53.912 85.9173 53.864 85.4053 53.768C84.8933 53.704 84.4293 53.576 84.0133 53.384C83.6293 53.224 83.3093 53.032 83.0533 52.808C82.8293 52.552 82.7333 52.264 82.7653 51.944ZM125.371 38.84C125.499 37.496 125.595 36.104 125.659 34.664C125.723 33.192 125.755 31.672 125.755 30.104C125.755 28.184 125.707 26.232 125.611 24.248C125.547 22.264 125.467 20.264 125.371 18.248C125.339 17.928 125.419 17.64 125.611 17.384C125.803 17.128 126.043 16.92 126.331 16.76C126.651 16.568 127.019 16.424 127.435 16.328C127.851 16.232 128.267 16.184 128.683 16.184C129.387 16.184 130.027 16.328 130.603 16.616C131.211 16.904 131.579 17.368 131.707 18.008C132.187 20.664 132.539 23.4 132.763 26.216C132.987 29 133.099 31.704 133.099 34.328C133.099 36.056 133.051 37.688 132.955 39.224C132.923 39.832 132.523 40.296 131.755 40.616C130.987 40.904 130.139 41.048 129.211 41.048C128.187 41.048 127.275 40.872 126.475 40.52C125.675 40.136 125.307 39.576 125.371 38.84ZM108.667 55.928C108.603 54.232 108.635 52.472 108.763 50.648C108.923 48.792 109.163 46.872 109.483 44.888C109.611 44.12 109.947 43.56 110.491 43.208C111.035 42.824 111.675 42.6 112.411 42.536C113.371 42.44 114.427 42.376 115.579 42.344C116.731 42.28 117.915 42.248 119.131 42.248C120.603 42.248 122.059 42.296 123.499 42.392C124.971 42.456 126.315 42.584 127.531 42.776C128.587 42.936 129.323 43.272 129.739 43.784C130.155 44.264 130.443 44.952 130.603 45.848C130.763 47.032 130.875 48.216 130.939 49.4C131.035 50.584 131.083 51.768 131.083 52.952C131.083 53.4 131.083 53.848 131.083 54.296C131.083 54.776 131.067 55.24 131.035 55.688C130.971 56.488 130.587 57.176 129.883 57.752C129.211 58.36 128.331 58.856 127.243 59.24C126.187 59.656 124.971 59.96 123.595 60.152C122.251 60.344 120.891 60.44 119.515 60.44C118.139 60.44 116.795 60.344 115.483 60.152C114.203 59.992 113.051 59.72 112.027 59.336C111.035 58.984 110.235 58.52 109.627 57.944C109.019 57.368 108.699 56.696 108.667 55.928ZM124.603 53C124.603 52.776 124.603 52.472 124.603 52.088C124.603 51.704 124.587 51.304 124.555 50.888C124.523 50.44 124.491 50.024 124.459 49.64C124.427 49.256 124.379 48.952 124.315 48.728C124.251 48.312 124.059 48.04 123.739 47.912C123.419 47.752 123.051 47.656 122.635 47.624C122.315 47.592 121.963 47.576 121.579 47.576C121.227 47.544 120.859 47.528 120.475 47.528C119.867 47.528 119.259 47.544 118.651 47.576C118.075 47.608 117.531 47.656 117.019 47.72C116.507 47.784 116.187 47.912 116.059 48.104C115.931 48.264 115.851 48.488 115.819 48.776C115.787 49 115.755 49.304 115.723 49.688C115.691 50.072 115.659 50.488 115.627 50.936C115.595 51.352 115.563 51.768 115.531 52.184C115.531 52.568 115.531 52.872 115.531 53.096C115.531 53.384 115.659 53.64 115.915 53.864C116.171 54.088 116.507 54.264 116.923 54.392C117.371 54.552 117.867 54.664 118.411 54.728C118.955 54.824 119.499 54.872 120.043 54.872C120.587 54.872 121.131 54.824 121.675 54.728C122.219 54.664 122.699 54.552 123.115 54.392C123.562 54.264 123.915 54.072 124.171 53.816C124.459 53.592 124.603 53.32 124.603 53ZM109.674 22.424C108.714 22.424 107.899 22.648 107.227 23.096C106.587 23.512 106.059 24.056 105.643 24.728C105.227 25.4 104.923 26.152 104.731 26.984C104.571 27.816 104.491 28.632 104.491 29.432C104.491 30.968 104.987 32.136 105.979 32.936C106.971 33.736 108.155 34.136 109.531 34.136C110.235 34.136 110.907 34.024 111.547 33.8C112.187 33.576 112.763 33.256 113.275 32.84C113.787 32.424 114.187 31.912 114.475 31.304C114.795 30.696 114.955 30.008 114.955 29.24C114.955 28.28 114.843 27.4 114.619 26.6C114.395 25.768 114.059 25.048 113.611 24.44C113.163 23.8 112.603 23.304 111.931 22.952C111.291 22.6 110.539 22.424 109.674 22.424ZM109.531 16.28C111.355 16.28 113.019 16.632 114.523 17.336C116.027 18.04 117.307 19 118.363 20.216C119.451 21.4 120.283 22.776 120.859 24.344C121.467 25.912 121.771 27.576 121.771 29.336C121.771 32.696 120.795 35.352 118.843 37.304C116.891 39.224 113.787 40.184 109.531 40.184C105.403 40.184 102.363 39.272 100.411 37.448C98.4585 35.592 97.4825 33 97.4825 29.672C97.4825 27.848 97.7705 26.12 98.3465 24.488C98.9225 22.856 99.7225 21.432 100.747 20.216C101.803 19 103.067 18.04 104.539 17.336C106.043 16.632 107.707 16.28 109.531 16.28ZM179.173 51.944C179.397 50.056 179.557 47.944 179.653 45.608C179.749 43.24 179.813 40.776 179.845 38.216C179.045 38.216 178.213 38.216 177.349 38.216C176.485 38.216 175.653 38.232 174.853 38.264C174.885 39.16 174.901 40.056 174.901 40.952C174.901 41.816 174.901 42.696 174.901 43.592C174.901 44.392 174.565 45.096 173.893 45.704C173.221 46.28 172.341 46.776 171.253 47.192C170.197 47.576 168.981 47.864 167.605 48.056C166.261 48.248 164.917 48.344 163.573 48.344C162.229 48.344 160.917 48.264 159.637 48.104C158.389 47.912 157.269 47.624 156.277 47.24C155.285 46.856 154.485 46.376 153.877 45.8C153.269 45.192 152.965 44.472 152.965 43.64V41.432C152.965 38.424 153.029 35.464 153.157 32.552C153.285 29.608 153.525 26.632 153.877 23.624C153.941 22.984 154.245 22.536 154.789 22.28C155.365 21.992 156.005 21.848 156.709 21.848C157.157 21.848 157.605 21.896 158.053 21.992C158.533 22.088 158.949 22.232 159.301 22.424C159.653 22.584 159.941 22.792 160.165 23.048C160.389 23.272 160.501 23.528 160.501 23.816L160.309 30.392H162.421C163.285 30.392 164.149 30.392 165.013 30.392C165.909 30.392 166.821 30.408 167.749 30.44C167.685 29.352 167.621 28.28 167.557 27.224C167.525 26.136 167.493 25.032 167.461 23.912C167.429 23.272 167.765 22.776 168.469 22.424C169.205 22.04 169.989 21.848 170.821 21.848C171.557 21.848 172.213 21.992 172.789 22.28C173.365 22.568 173.701 23.032 173.797 23.672C173.989 25.08 174.149 26.472 174.277 27.848C174.405 29.192 174.517 30.552 174.613 31.928C175.029 31.928 175.445 31.928 175.861 31.928C176.309 31.896 176.757 31.88 177.205 31.88C177.653 31.88 178.085 31.896 178.501 31.928C178.949 31.928 179.397 31.928 179.845 31.928C179.813 30.264 179.781 28.632 179.749 27.032C179.717 25.432 179.669 23.896 179.605 22.424C179.573 21.784 179.909 21.288 180.613 20.936C181.349 20.552 182.133 20.36 182.965 20.36C183.669 20.36 184.309 20.504 184.885 20.792C185.461 21.08 185.813 21.544 185.941 22.184C186.421 25.16 186.773 28.44 186.997 32.024C187.221 35.608 187.333 39.144 187.333 42.632C187.333 44.392 187.301 46.088 187.237 47.72C187.205 49.352 187.125 50.872 186.997 52.28C186.933 52.856 186.549 53.272 185.845 53.528C185.141 53.784 184.341 53.912 183.445 53.912C182.901 53.912 182.357 53.864 181.813 53.768C181.301 53.704 180.837 53.576 180.421 53.384C180.037 53.224 179.717 53.032 179.461 52.808C179.237 52.552 179.141 52.264 179.173 51.944ZM160.165 40.472C160.165 41.112 160.581 41.576 161.413 41.864C162.245 42.152 163.141 42.296 164.101 42.296C164.581 42.296 165.061 42.264 165.541 42.2C166.021 42.136 166.437 42.024 166.789 41.864C167.173 41.704 167.477 41.512 167.701 41.288C167.957 41.032 168.085 40.728 168.085 40.376C168.085 39.672 168.069 38.984 168.037 38.312C168.037 37.608 168.021 36.904 167.989 36.2C166.677 36.2 165.381 36.2 164.101 36.2C162.821 36.2 161.509 36.216 160.165 36.248V40.472ZM222.594 41.432C219.17 41.72 215.602 41.864 211.89 41.864C209.042 41.864 206.194 41.784 203.346 41.624C200.53 41.464 197.794 41.24 195.138 40.952C194.626 40.888 194.226 40.568 193.938 39.992C193.682 39.384 193.554 38.744 193.554 38.072C193.554 37.4 193.698 36.808 193.986 36.296C194.274 35.752 194.706 35.496 195.282 35.528L198.69 35.672C198.69 34.68 198.69 33.704 198.69 32.744C198.722 31.752 198.738 30.744 198.738 29.72C198.738 28.728 198.722 27.736 198.69 26.744C198.69 25.752 198.69 24.744 198.69 23.72L195.666 23.864C195.442 23.864 195.234 23.784 195.042 23.624C194.882 23.432 194.738 23.192 194.61 22.904C194.514 22.584 194.434 22.232 194.37 21.848C194.306 21.464 194.274 21.064 194.274 20.648C194.274 19.816 194.386 19.064 194.61 18.392C194.866 17.72 195.25 17.368 195.762 17.336C198.258 17.24 200.866 17.192 203.586 17.192C206.658 17.192 209.714 17.256 212.754 17.384C215.826 17.48 218.77 17.64 221.586 17.864C222.13 17.896 222.53 18.216 222.786 18.824C223.074 19.4 223.218 20.04 223.218 20.744C223.218 21.48 223.09 22.136 222.834 22.712C222.578 23.288 222.21 23.56 221.73 23.528C221.25 23.496 220.77 23.48 220.29 23.48C219.81 23.448 219.33 23.432 218.85 23.432C218.882 25.448 218.914 27.464 218.946 29.48C218.978 31.464 219.026 33.464 219.09 35.48C219.666 35.448 220.242 35.416 220.818 35.384C221.394 35.352 221.97 35.304 222.546 35.24C223.058 35.208 223.442 35.512 223.698 36.152C223.954 36.76 224.082 37.464 224.082 38.264C224.082 39.064 223.954 39.8 223.698 40.472C223.474 41.144 223.106 41.464 222.594 41.432ZM193.65 46.52C196.562 46.776 199.554 46.968 202.626 47.096C205.73 47.224 208.85 47.288 211.986 47.288C216.05 47.288 219.954 47.192 223.698 47C224.274 46.968 224.706 47.224 224.994 47.768C225.282 48.28 225.426 48.856 225.426 49.496C225.426 50.136 225.266 50.76 224.946 51.368C224.658 51.944 224.194 52.296 223.554 52.424C222.146 52.68 220.61 52.904 218.946 53.096C217.282 53.288 215.554 53.448 213.762 53.576C212.002 53.704 210.194 53.8 208.338 53.864C206.514 53.928 204.738 53.96 203.01 53.96C201.25 53.96 199.586 53.928 198.018 53.864C196.45 53.8 195.026 53.704 193.746 53.576C193.138 53.512 192.69 53.096 192.402 52.328C192.146 51.56 192.018 50.728 192.018 49.832C192.018 48.936 192.146 48.152 192.402 47.48C192.69 46.776 193.106 46.456 193.65 46.52ZM205.746 23.432C205.778 27.656 205.874 31.768 206.034 35.768C206.994 35.768 207.954 35.768 208.914 35.768C209.874 35.768 210.834 35.752 211.794 35.72C211.826 34.504 211.842 33.272 211.842 32.024C211.874 30.776 211.89 29.496 211.89 28.184C211.89 27.384 211.89 26.584 211.89 25.784C211.89 24.984 211.874 24.168 211.842 23.336C210.818 23.336 209.794 23.352 208.77 23.384C207.778 23.384 206.77 23.4 205.746 23.432Z" fill="white"/>
</g>
<defs>
<filter id="filter0_d_151_10" x="0" y="0" width="301" height="76" filterUnits="userSpaceOnUse" color-interpolation-filters="sRGB">
<feFlood flood-opacity="0" result="BackgroundImageFix"/>
<feColorMatrix in="SourceAlpha" type="matrix" values="0 0 0 0 0 0 0 0 0 0 0 0 0 0 0 0 0 0 127 0" result="hardAlpha"/>
<feOffset dx="2" dy="2"/>
<feComposite in2="hardAlpha" operator="out"/>
<feColorMatrix type="matrix" values="0 0 0 0 0.445833 0 0 0 0 0 0 0 0 0 0.186087 0 0 0 1 0"/>
<feBlend mode="normal" in2="BackgroundImageFix" result="effect1_dropShadow_151_10"/>
<feBlend mode="normal" in="SourceGraphic" in2="effect1_dropShadow_151_10" result="shape"/>
</filter>
</defs>
</svg>
