<svg fill="none" viewBox="0 0 301 76"><g filter="url(#filter0_d_151_10)"><rect width="299" height="74" fill="#E11D48" rx="30"/><path fill="#fff" fill-rule="evenodd" d="M264.927 17.572a1.502 1.502 0 00-2.143-.272 19.488 19.488 0 00-7.078 12.353 15.1 15.1 0 01-3.411-3.431 1.5 1.5 0 00-2.303-.164A17.944 17.944 0 00245 38.499c0 9.941 8.059 18 18 18s18-8.059 18-18c0-7.322-4.371-13.619-10.64-16.43a14.909 14.909 0 01-5.433-4.497zM270.5 41.5a7.5 7.5 0 11-14.626-2.344 11.942 11.942 0 004.267 2.001 11.973 11.973 0 013.849-7.092 7.502 7.502 0 016.51 7.435z" clip-rule="evenodd"/><path fill="#fff" d="M17.504 26.024c-.48.064-.848-.208-1.104-.816a5.637 5.637 0 01-.384-2.112c0-.768.128-1.456.384-2.064.256-.64.656-.976 1.2-1.008h3.456c1.216 0 2.432.016 3.648.048.032-.64.048-1.296.048-1.968.032-.672.048-1.296.048-1.872 0-.416.304-.72.912-.912a6.356 6.356 0 012.112-.336c.8 0 1.552.128 2.256.384.704.224 1.104.592 1.2 1.104.096.576.176 1.2.24 1.872.064.64.128 1.264.192 1.872 1.216.032 2.432.08 3.648.144 1.216.032 2.416.08 3.6.144.576.032 1.008.336 1.296.912.288.544.432 1.136.432 1.776 0 .64-.144 1.232-.432 1.776-.256.544-.64.8-1.152.768a27.786 27.786 0 00-1.632-.048 27.786 27.786 0 00-1.632-.048A9.5 9.5 0 0138.432 29a9.813 9.813 0 01.912 4.176c0 2.624-.864 4.688-2.592 6.192-1.696 1.504-4.384 2.256-8.064 2.256-3.616 0-6.288-.72-8.016-2.16-1.696-1.44-2.544-3.44-2.544-6 0-1.536.272-2.944.816-4.224a9.717 9.717 0 012.352-3.408l-3.792.192zm11.424 34.224c-.416.224-.928.208-1.536-.048-.608-.224-1.2-.576-1.776-1.056a7.99 7.99 0 01-1.488-1.632c-.384-.576-.576-1.12-.576-1.632 0-.512.256-.912.768-1.2 3.072-1.472 5.408-3.04 7.008-4.704 1.632-1.664 2.336-3.68 2.112-6.048-.032-.32.048-.608.24-.864s.448-.48.768-.672c.32-.192.688-.336 1.104-.432a5.746 5.746 0 011.296-.144c.736 0 1.408.16 2.016.48.608.288.976.752 1.104 1.392.064.352.112.72.144 1.104.032.384.048.752.048 1.104 0 .928-.128 1.904-.384 2.928 1.728.768 3.344 1.6 4.848 2.496a29.288 29.288 0 014.224 2.976c.384.352.576.8.576 1.344 0 .576-.192 1.184-.576 1.824-.352.64-.8 1.184-1.344 1.632-.512.48-1.056.784-1.632.912-.576.16-1.056.032-1.44-.384a39.137 39.137 0 00-3.312-3.216 30.149 30.149 0 00-3.696-2.784c-1.952 2.528-4.784 4.736-8.496 6.624zm13.44-19.2c.128-1.344.224-2.832.288-4.464.064-1.632.096-3.36.096-5.184 0-2.208-.048-4.448-.144-6.72a332.285 332.285 0 00-.24-6.432c-.032-.32.048-.608.24-.864a2.26 2.26 0 01.72-.624c.32-.192.688-.336 1.104-.432a5.534 5.534 0 011.248-.144c.704 0 1.344.144 1.92.432.608.288.976.752 1.104 1.392.224 1.248.416 2.576.576 3.984.16 1.408.304 2.864.432 4.368h1.92c.672 0 1.312.016 1.92.048.576.032 1.008.352 1.296.96.288.576.432 1.232.432 1.968 0 .416-.048.832-.144 1.248-.096.416-.24.8-.432 1.152-.192.32-.432.592-.72.816a1.775 1.775 0 01-1.008.288H51.44c-.448 0-.912.016-1.392.048.032.544.048 1.088.048 1.632v1.632c0 1.984-.048 3.744-.144 5.28-.032.608-.432 1.072-1.2 1.392-.768.288-1.616.432-2.544.432-1.024 0-1.936-.176-2.736-.528-.8-.384-1.168-.944-1.104-1.68zM28.784 27.944c-.704 0-1.296.144-1.776.432-.48.256-.864.608-1.152 1.056-.288.448-.496.96-.624 1.536a7.104 7.104 0 00-.192 1.632c0 1.024.352 1.792 1.056 2.304.704.512 1.552.768 2.544.768 1.056 0 1.984-.288 2.784-.864.8-.576 1.2-1.408 1.2-2.496 0-.576-.08-1.12-.24-1.632-.16-.512-.4-.976-.72-1.392a3.197 3.197 0 00-1.2-.96c-.48-.256-1.04-.384-1.68-.384zm36.557 13.44c.064.576.336.976.816 1.2.48.192.992.32 1.536.384 1.184.096 2.448.144 3.792.144 1.376 0 2.736-.048 4.08-.144a78.368 78.368 0 004.032-.384c.48-.032.88.256 1.2.864.32.576.48 1.2.48 1.872 0 .448-.08.864-.24 1.248a1.16 1.16 0 01-.816.672 69.9 69.9 0 01-6 1.344 37.62 37.62 0 01-6 .48c-1.216 0-2.416-.064-3.6-.192a26.138 26.138 0 01-3.456-.624c-.832-.192-1.488-.592-1.968-1.2a4.788 4.788 0 01-.912-2.112 30.17 30.17 0 01-.24-2.4c-.032-.992-.048-2.064-.048-3.216 0-1.248.016-2.56.048-3.936.064-1.376.128-2.704.192-3.984.096-1.28.192-2.464.288-3.552.128-1.088.256-1.984.384-2.688.16-.832.544-1.488 1.152-1.968a3.768 3.768 0 012.064-.816 59.788 59.788 0 015.856-.288c1.664 0 3.312.064 4.944.192 1.664.096 3.312.224 4.944.384.672.064 1.168.368 1.488.912.32.512.48 1.088.48 1.728 0 .64-.176 1.248-.528 1.824-.352.544-.864.816-1.536.816-.64 0-1.44.016-2.4.048-.96 0-1.968.016-3.024.048-1.024 0-2.016.032-2.976.096s-1.776.144-2.448.24c-.48.064-.832.272-1.056.624-.192.32-.32.736-.384 1.248-.064.416-.112.848-.144 1.296 0 .448-.016.912-.048 1.392h2.256c3.328 0 6.704.048 10.128.144.48 0 .832.24 1.056.72.224.48.336 1.04.336 1.68 0 .352-.048.72-.144 1.104a3.105 3.105 0 01-.336.96 1.602 1.602 0 01-.528.672c-.192.16-.432.24-.72.24a79.405 79.405 0 00-2.736-.048H68.51c-1.088 0-2.192.032-3.312.096 0 1.12.048 2.08.144 2.88zm17.424 10.56c.256-2.176.432-4.656.528-7.44.096-2.784.144-5.664.144-8.64 0-2.336-.032-4.64-.096-6.912-.032-2.304-.08-4.48-.144-6.528-.032-.64.304-1.136 1.008-1.488a4.734 4.734 0 012.304-.576c.704 0 1.344.144 1.92.432.608.288.96.752 1.056 1.392.256 1.504.464 3.088.624 4.752.16 1.632.304 3.344.432 5.136h1.92c.64 0 1.28.016 1.92.048.576.032 1.008.352 1.296.96.288.576.432 1.232.432 1.968 0 .416-.048.832-.144 1.248-.096.416-.24.8-.432 1.152-.192.32-.432.592-.72.816a1.775 1.775 0 01-1.008.288H92.27c-.448 0-.928.016-1.44.048.032.768.048 1.536.048 2.304v2.256c0 1.664-.032 3.264-.096 4.8a85.94 85.94 0 01-.192 4.32c-.064.576-.464.992-1.2 1.248-.704.256-1.504.384-2.4.384a8.578 8.578 0 01-1.584-.144 4.69 4.69 0 01-1.392-.384 3.474 3.474 0 01-.96-.576 1.1 1.1 0 01-.288-.864zm42.606-13.104c.128-1.344.224-2.736.288-4.176.064-1.472.096-2.992.096-4.56 0-1.92-.048-3.872-.144-5.856a391.562 391.562 0 00-.24-6c-.032-.32.048-.608.24-.864a2.26 2.26 0 01.72-.624c.32-.192.688-.336 1.104-.432a5.534 5.534 0 011.248-.144c.704 0 1.344.144 1.92.432.608.288.976.752 1.104 1.392.48 2.656.832 5.392 1.056 8.208.224 2.784.336 5.488.336 8.112 0 1.728-.048 3.36-.144 4.896-.032.608-.432 1.072-1.2 1.392-.768.288-1.616.432-2.544.432-1.024 0-1.936-.176-2.736-.528-.8-.384-1.168-.944-1.104-1.68zm-16.704 17.088a49.037 49.037 0 01.096-5.28c.16-1.856.4-3.776.72-5.76.128-.768.464-1.328 1.008-1.68.544-.384 1.184-.608 1.92-.672a44.4 44.4 0 013.168-.192 65.651 65.651 0 017.92.048c1.472.064 2.816.192 4.032.384 1.056.16 1.792.496 2.208 1.008.416.48.704 1.168.864 2.064.16 1.184.272 2.368.336 3.552.096 1.184.144 2.368.144 3.552v1.344c0 .48-.016.944-.048 1.392-.064.8-.448 1.488-1.152 2.064-.672.608-1.552 1.104-2.64 1.488-1.056.416-2.272.72-3.648.912a28.814 28.814 0 01-8.112 0c-1.28-.16-2.432-.432-3.456-.816-.992-.352-1.792-.816-2.4-1.392-.608-.576-.928-1.248-.96-2.016zM124.603 53v-.912c0-.384-.016-.784-.048-1.2-.032-.448-.064-.864-.096-1.248a4.957 4.957 0 00-.144-.912c-.064-.416-.256-.688-.576-.816a2.953 2.953 0 00-1.104-.288c-.32-.032-.672-.048-1.056-.048-.352-.032-.72-.048-1.104-.048-.608 0-1.216.016-1.824.048-.576.032-1.12.08-1.632.144-.512.064-.832.192-.96.384-.128.16-.208.384-.24.672-.032.224-.064.528-.096.912s-.064.8-.096 1.248l-.096 1.248v.912c0 .288.128.544.384.768.256.224.592.4 1.008.528.448.16.944.272 1.488.336a9.374 9.374 0 003.264 0 5.953 5.953 0 001.44-.336c.447-.128.8-.32 1.056-.576.288-.224.432-.496.432-.816zm-14.929-30.576c-.96 0-1.775.224-2.447.672-.64.416-1.168.96-1.584 1.632a7.422 7.422 0 00-.912 2.256c-.16.832-.24 1.648-.24 2.448 0 1.536.496 2.704 1.488 3.504.992.8 2.176 1.2 3.552 1.2.704 0 1.376-.112 2.016-.336a5.706 5.706 0 001.728-.96 4.352 4.352 0 001.2-1.536c.32-.608.48-1.296.48-2.064 0-.96-.112-1.84-.336-2.64-.224-.832-.56-1.552-1.008-2.16a4.679 4.679 0 00-1.68-1.488c-.64-.352-1.392-.528-2.257-.528zm-.143-6.144c1.824 0 3.488.352 4.992 1.056a11.447 11.447 0 013.84 2.88 12.299 12.299 0 012.496 4.128c.608 1.568.912 3.232.912 4.992 0 3.36-.976 6.016-2.928 7.968-1.952 1.92-5.056 2.88-9.312 2.88-4.128 0-7.168-.912-9.12-2.736-1.953-1.856-2.928-4.448-2.928-7.776 0-1.824.287-3.552.864-5.184.576-1.632 1.376-3.056 2.4-4.272a11.586 11.586 0 013.792-2.88c1.504-.704 3.168-1.056 4.992-1.056zm69.642 35.664c.224-1.888.384-4 .48-6.336a264.2 264.2 0 00.192-7.392h-2.496c-.864 0-1.696.016-2.496.048.032.896.048 1.792.048 2.688v2.64c0 .8-.336 1.504-1.008 2.112-.672.576-1.552 1.072-2.64 1.488-1.056.384-2.272.672-3.648.864a28.476 28.476 0 01-4.032.288 31.71 31.71 0 01-3.936-.24c-1.248-.192-2.368-.48-3.36-.864s-1.792-.864-2.4-1.44c-.608-.608-.912-1.328-.912-2.16v-2.208c0-3.008.064-5.968.192-8.88.128-2.944.368-5.92.72-8.928.064-.64.368-1.088.912-1.344a4.233 4.233 0 011.92-.432c.448 0 .896.048 1.344.144.48.096.896.24 1.248.432.352.16.64.368.864.624.224.224.336.48.336.768l-.192 6.576h4.704c.896 0 1.808.016 2.736.048l-.192-3.216a3946.87 3946.87 0 01-.096-3.312c-.032-.64.304-1.136 1.008-1.488a5.012 5.012 0 012.352-.576c.736 0 1.392.144 1.968.432.576.288.912.752 1.008 1.392.192 1.408.352 2.8.48 4.176.128 1.344.24 2.704.336 4.08h1.248c.448-.032.896-.048 1.344-.048.448 0 .88.016 1.296.048h1.344l-.096-4.896c-.032-1.6-.08-3.136-.144-4.608-.032-.64.304-1.136 1.008-1.488a5.012 5.012 0 012.352-.576c.704 0 1.344.144 1.92.432.576.288.928.752 1.056 1.392.48 2.976.832 6.256 1.056 9.84.224 3.584.336 7.12.336 10.608 0 1.76-.032 3.456-.096 5.088a64.507 64.507 0 01-.24 4.56c-.064.576-.448.992-1.152 1.248s-1.504.384-2.4.384a9.374 9.374 0 01-1.632-.144 4.69 4.69 0 01-1.392-.384 3.474 3.474 0 01-.96-.576 1.1 1.1 0 01-.288-.864zm-19.008-11.472c0 .64.416 1.104 1.248 1.392a8.163 8.163 0 002.688.432c.48 0 .96-.032 1.44-.096a4.43 4.43 0 001.248-.336c.384-.16.688-.352.912-.576.256-.256.384-.56.384-.912 0-.704-.016-1.392-.048-2.064 0-.704-.016-1.408-.048-2.112h-3.888c-1.28 0-2.592.016-3.936.048v4.224zm62.429.96c-3.424.288-6.992.432-10.704.432-2.848 0-5.696-.08-8.544-.24-2.816-.16-5.552-.384-8.208-.672-.512-.064-.912-.384-1.2-.96a4.898 4.898 0 01-.384-1.92c0-.672.144-1.264.432-1.776.288-.544.72-.8 1.296-.768l3.408.144v-2.928a93.803 93.803 0 000-6V23.72l-3.024.144a.956.956 0 01-.624-.24 3.063 3.063 0 01-.432-.72 8.609 8.609 0 01-.24-1.056 7.291 7.291 0 01-.096-1.2c0-.832.112-1.584.336-2.256.256-.672.64-1.024 1.152-1.056a203.83 203.83 0 017.824-.144c3.072 0 6.128.064 9.168.192 3.072.096 6.016.256 8.832.48.544.032.944.352 1.2.96.288.576.432 1.216.432 1.92 0 .736-.128 1.392-.384 1.968-.256.576-.624.848-1.104.816-.48-.032-.96-.048-1.44-.048-.48-.032-.96-.048-1.44-.048l.096 6.048c.032 1.984.08 3.984.144 6l1.728-.096c.576-.032 1.152-.08 1.728-.144.512-.032.896.272 1.152.912.256.608.384 1.312.384 2.112s-.128 1.536-.384 2.208c-.224.672-.592.992-1.104.96zM193.65 46.52c2.912.256 5.904.448 8.976.576 3.104.128 6.224.192 9.36.192 4.064 0 7.968-.096 11.712-.288.576-.032 1.008.224 1.296.768.288.512.432 1.088.432 1.728 0 .64-.16 1.264-.48 1.872-.288.576-.752.928-1.392 1.056-1.408.256-2.944.48-4.608.672-1.664.192-3.392.352-5.184.48-1.76.128-3.568.224-5.424.288-1.824.064-3.6.096-5.328.096-1.76 0-3.424-.032-4.992-.096a73.26 73.26 0 01-4.272-.288c-.608-.064-1.056-.48-1.344-1.248a7.847 7.847 0 01-.384-2.496c0-.896.128-1.68.384-2.352.288-.704.704-1.024 1.248-.96zm12.096-23.088c.032 4.224.128 8.336.288 12.336h2.88c.96 0 1.92-.016 2.88-.048.032-1.216.048-2.448.048-3.696.032-1.248.048-2.528.048-3.84v-2.4c0-.8-.016-1.616-.048-2.448-1.024 0-2.048.016-3.072.048-.992 0-2 .016-3.024.048z"/></g><defs><filter id="filter0_d_151_10" width="301" height="76" x="0" y="0" color-interpolation-filters="sRGB" filterUnits="userSpaceOnUse"><feFlood flood-opacity="0" result="BackgroundImageFix"/><feColorMatrix in="SourceAlpha" result="hardAlpha" values="0 0 0 0 0 0 0 0 0 0 0 0 0 0 0 0 0 0 127 0"/><feOffset dx="2" dy="2"/><feComposite in2="hardAlpha" operator="out"/><feColorMatrix values="0 0 0 0 0.445833 0 0 0 0 0 0 0 0 0 0.186087 0 0 0 1 0"/><feBlend in2="BackgroundImageFix" result="effect1_dropShadow_151_10"/><feBlend in="SourceGraphic" in2="effect1_dropShadow_151_10" result="shape"/></filter></defs></svg>