<svg fill="none" viewBox="0 0 598 108"><path fill="#8B5CF6" d="M0 44h40v20H0z"/><path fill="#A78BFA" d="M35 108l5-32V44h20v32l-5 32H35z"/><path fill="#3B82F6" d="M123 64H83V44h40z"/><path fill="#60A5FA" d="M77 0l6 32v32H63V32L57 0h20z"/><path fill="#334155" d="M237.216 41.624c-12.384.384-62.688.384-74.016 0-.288-3.936-.288-7.392 0-11.136 2.4-.096 6.816-.096 12.192-.192v-6.72c-4.896-.096-8.832-.096-11.232-.192-.288-3.744-.288-7.584 0-11.136 15.936-.288 63.168-.384 72.096 0 .192 3.552.192 6.912 0 11.136-2.496.096-6.528.096-11.328.192v6.72c5.376.096 9.696.096 12.288.192.288 3.744.288 6.72 0 11.136zm-47.712-17.952v6.624c6.912-.096 14.4-.096 21.312-.096v-6.528h-21.312zm51.936 21.696c.384 3.36.384 7.488 0 11.232-8.256.576-71.232.384-82.56 0-.384-3.264-.384-7.68 0-11.232 19.968-.384 73.536-.192 82.56 0zM178.656 84.44v3.072h59.424c.384 3.168.192 7.584 0 10.656-6.24.48-61.632.576-73.92 0-.384-5.28-.576-15.072 0-23.904h57.216v-3.072h-57.024c-.384-3.168-.384-8.544 0-10.752 27.936-.288 59.712-.288 71.52 0 .48 3.744.48 19.872 0 24h-57.216zm148.217-72.96c.384 13.152.384 74.976 0 86.4-2.976.384-11.04.288-14.4 0-.192-5.184-.288-22.08-.288-39.648-5.568 0-10.944-.096-12.672-.288-.384-3.648-.384-9.984 0-13.632 2.304-.096 7.584-.192 12.768-.192 0-14.88.096-28.128.192-32.64 2.592-.576 11.04-.48 14.4 0zm-61.536 67.104c8.544-.288 27.648-.192 35.712 0 .384 3.648.384 9.216 0 12.864-5.952.288-41.76.384-50.496 0-.672-11.328-.576-33.984 0-45.024 6.528-.192 23.712-.096 28.992 0 0-5.376 0-14.592.096-19.392-6.048.096-22.56.192-28.704 0-.384-3.648-.384-9.216 0-12.864 6.047-.384 36.864-.384 43.392 0 .671 11.232.576 33.984 0 45.024-6.528.384-19.488.096-28.896 0 0 5.376 0 14.592-.096 19.392zm82.264-9.312c-2.112-1.536-7.872-7.584-9.408-10.56 7.488-6.72 20.736-18.144 30.816-26.976-.096-7.584 0-13.44.192-17.856 2.592-.288 11.808-.384 15.168 0 .192 4.992.288 10.848.192 17.952 10.272 8.544 23.712 19.584 31.296 26.016-1.536 2.976-7.104 9.216-9.12 10.848-5.184-4.128-19.008-15.072-29.76-24.672-10.656 9.792-24.096 21.12-29.376 25.248zm70.464 13.824c.384 3.552.384 8.448 0 12.48-8.256.576-71.232.384-82.56 0-.384-3.456-.384-8.736 0-12.48 19.968-.384 73.536-.192 82.56 0zm29.273-10.848c.096-2.784.096-41.664 0-44.832-1.824-.096-18.144-.096-20.16 0-.384-3.744-.384-8.928 0-12.48 4.8-.288 30.336-.192 33.984 0 .672 5.376.576 51.936 0 57.312-2.496.48-10.368.384-13.824 0zm38.976 0c.096-2.784.096-41.664 0-44.832-1.824-.096-18.144-.096-20.16 0-.384-3.744-.384-8.928 0-12.48 4.8-.288 30.336-.192 33.984 0 .672 5.376.576 51.936 0 57.312-2.496.48-10.368.384-13.824 0zm-62.496 23.328c-.384-3.456-.384-8.736 0-12.48 19.968-.384 73.536-.192 82.56 0 .384 3.552.384 8.448 0 12.48-8.256.576-71.232.384-82.56 0zm166.648-34.464c-7.872.384-63.648.288-73.056 0-.576-11.232-.48-36 0-47.136 9.312-.48 61.536-.288 71.136 0 .384 3.648.384 8.736 0 12.384-6.72.192-49.056.192-56.256 0 0 1.152 0 3.072-.096 5.184 12.576-.096 45.792 0 53.472 0 .384 3.648.288 8.544 0 12.192-7.392.192-40.896.096-53.472 0 .096 2.208.096 3.936.096 5.088 7.584 0 51.072-.096 58.176 0 .288 3.744.288 9.216 0 12.288zm4.224 5.856c.384 3.552.384 8.448 0 12.48-3.648.288-17.952.384-33.792.384 0 6.624 0 14.88-.096 18.528-3.168.192-10.848.192-14.688 0-.096-3.168-.192-11.616-.192-18.528-15.072-.096-28.992-.192-33.792-.384-.384-3.456-.384-8.736 0-12.48 19.968-.384 73.536-.192 82.56 0z"/></svg>