<svg width="196" height="64" viewBox="0 0 196 64" fill="none" xmlns="http://www.w3.org/2000/svg">
<g clip-path="url(#clip0_191_2060)">
<path d="M4.61538 49.3846C2.06638 49.3846 0 47.3183 0 44.7693V5.93864C0 2.92748 2.83685 0.722744 5.75483 1.46613L21.4471 5.46394C23.4919 5.98488 24.9231 7.82628 24.9231 9.93644V44.7693C24.9231 47.3183 22.8567 49.3846 20.3077 49.3846H4.61538Z" fill="#6366F1"/>
<mask id="mask0_191_2060" style="mask-type:alpha" maskUnits="userSpaceOnUse" x="0" y="1" width="25" height="54">
<path d="M4.61538 54.5303C2.06638 54.5303 0 52.4635 0 49.9149V6.08822C0 3.03108 2.91846 0.818649 5.86195 1.64435L21.6243 6.06597C23.6163 6.62476 24.9931 8.44091 24.9931 10.5098V49.9149C24.9931 52.4635 22.9267 54.5303 20.3778 54.5303H4.61538Z" fill="#6366F1"/>
</mask>
<g mask="url(#mask0_191_2060)">
<g filter="url(#filter0_d_191_2060)">
<path d="M49.9865 27.5011C49.9865 25.627 48.8529 23.9389 47.1185 23.2294L26.7407 14.8931C25.6207 14.4349 24.3655 14.4349 23.2456 14.8931L2.86786 23.2294C1.13328 23.9389 0 25.627 0 27.5011V41.7528C0 43.6269 1.13328 45.315 2.86786 46.0246L23.2456 54.3609C24.3655 54.8192 25.6206 54.8192 26.7407 54.3609L47.1185 46.0246C48.8529 45.315 49.9865 43.6269 49.9865 41.7528V27.5011Z" fill="#818CF8"/>
</g>
</g>
<path d="M49.9865 32.799C49.9865 30.9143 48.8405 29.219 47.0917 28.5164L26.7138 20.3289C25.6096 19.8852 24.3767 19.8852 23.2724 20.3289L2.89468 28.5164C1.1459 29.219 0 30.9143 0 32.799V46.6436C0 48.528 1.14589 50.2237 2.89468 50.9262L23.2724 59.1139C24.3767 59.5574 25.6096 59.5574 26.7138 59.1139L47.0917 50.9262C48.8405 50.2237 49.9865 48.528 49.9865 46.6436V32.799Z" fill="url(#paint0_linear_191_2060)"/>
<path d="M68.8827 15.3922V43.7843H63V15.3922H68.8827ZM97.3526 15.3922V43.7843H92.2552L79.784 25.7451H79.5493V43.7843H73.6664V15.3922H78.8428L91.235 33.4314H91.5098V15.3922H97.3526ZM102.138 43.7843V15.3922H120.843V20.2549H108.019V27.1569H119.627V32.0196H108.019V43.7843H102.138ZM150.725 29.5882C150.725 38.8431 144.961 44.1765 137.471 44.1765C129.902 44.1765 124.176 38.8039 124.176 29.5882C124.176 20.3333 129.902 15 137.471 15C144.961 15 150.725 20.3333 150.725 29.5882ZM144.725 29.5882C144.725 23.5098 141.863 20.2157 137.471 20.2157C133.078 20.2157 130.176 23.5098 130.176 29.5882C130.176 35.6667 133.078 38.9608 137.471 38.9608C141.863 38.9608 144.725 35.6667 144.725 29.5882ZM154.961 43.7843V15.3922H160.843V38.9216H173.078V43.7843H154.961ZM176.882 43.7843V15.3922H195.941V20.2549H182.765V27.1569H194.961V32.0196H182.765V38.9216H195.98V43.7843H176.882Z" fill="#4B5563"/>
</g>
<defs>
<filter id="filter0_d_191_2060" x="-12.6" y="-19.0506" width="75.1865" height="73.7552" filterUnits="userSpaceOnUse" color-interpolation-filters="sRGB">
<feFlood flood-opacity="0" result="BackgroundImageFix"/>
<feColorMatrix in="SourceAlpha" type="matrix" values="0 0 0 0 0 0 0 0 0 0 0 0 0 0 0 0 0 0 127 0" result="hardAlpha"/>
<feOffset dy="-21"/>
<feGaussianBlur stdDeviation="6.3"/>
<feComposite in2="hardAlpha" operator="out"/>
<feColorMatrix type="matrix" values="0 0 0 0 0.215686 0 0 0 0 0.188235 0 0 0 0 0.639216 0 0 0 0.25 0"/>
<feBlend mode="normal" in2="BackgroundImageFix" result="effect1_dropShadow_191_2060"/>
<feBlend mode="normal" in="SourceGraphic" in2="effect1_dropShadow_191_2060" result="shape"/>
</filter>
<linearGradient id="paint0_linear_191_2060" x1="24.9931" y1="19.6375" x2="24.9931" y2="59.8048" gradientUnits="userSpaceOnUse">
<stop stop-color="#6366F1"/>
<stop offset="1" stop-color="#4338CA"/>
</linearGradient>
<clipPath id="clip0_191_2060">
<rect width="195.765" height="64" fill="white"/>
</clipPath>
</defs>
</svg>
