<svg width="438" height="108" viewBox="0 0 438 108" fill="none" xmlns="http://www.w3.org/2000/svg">
<rect y="44" width="40" height="20" fill="white" fill-opacity="0.5"/>
<path d="M35 108L40 76L40 44H60L60 76L55 108H35Z" fill="white"/>
<rect x="123" y="64" width="40" height="20" transform="rotate(-180 123 64)" fill="white" fill-opacity="0.5"/>
<path d="M77 -1.25764e-06L83.0001 32L83 64L63 64L63.0001 32L57 -1.01401e-05L77 -1.25764e-06Z" fill="white"/>
<path d="M150.232 26.032H194.392V32.368H150.232V26.032ZM150.68 39.92H193.944V46.256H150.68V39.92ZM157.784 28.528H166.296V44.016H157.784V28.528ZM178.328 28.528H186.84V44.016H178.328V28.528ZM145.56 49.328H199.128V55.984H145.56V49.328ZM151.704 59.248H192.664V73.968H160.152V79.472H151.768V68.272H184.28V65.328H151.704V59.248ZM151.768 77.104H194.2V83.312H151.768V77.104ZM245.523 24.368H254.035V83.824H245.523V24.368ZM236.243 45.744H247.251V52.592H236.243V45.744ZM206.483 63.088H211.347C220.947 63.088 228.563 62.896 237.139 61.424L237.907 68.336C229.139 69.808 221.203 70.128 211.347 70.128H206.483V63.088ZM206.355 29.424H233.043V51.696H214.931V65.2H206.483V44.976H224.659V36.208H206.355V29.424ZM285.326 27.824H292.75V32.112C292.75 44.976 283.598 56.368 268.238 59.376L264.59 52.336C277.966 50.032 285.326 40.624 285.326 32.112V27.824ZM287.054 27.824H294.414V32.112C294.414 40.816 301.71 50.032 315.15 52.336L311.502 59.376C296.142 56.368 287.054 45.168 287.054 32.112V27.824ZM263.374 69.552H317.006V76.464H263.374V69.552ZM326.025 29.744H339.913V36.528H326.025V29.744ZM322.185 68.592H375.753V75.504H322.185V68.592ZM337.417 29.744H345.865V33.2C345.865 39.536 345.929 48.304 341.577 63.472L333.193 62.128C337.417 48.496 337.417 39.28 337.417 33.2V29.744ZM349.513 29.744H364.809V36.528H349.513V29.744ZM361.993 29.744H370.441V33.968C370.441 40.496 370.505 49.52 367.945 63.408L359.497 62.512C361.993 49.456 361.993 40.304 361.993 33.968V29.744ZM381.06 59.568H434.692V66.48H381.06V59.568ZM403.588 62H412.036V83.76H403.588V62ZM387.716 48.56H429.124V55.28H387.716V48.56ZM387.716 26.8H428.484V33.456H396.1V50.16H387.716V26.8ZM393.732 37.744H427.204V44.208H393.732V37.744Z" fill="white"/>
</svg>
