<svg fill="none" viewBox="0 0 75 75"><rect width="71" height="71" x="2" y="2" fill="#A4E96B" stroke="#44A342" stroke-width="4" rx="14"/><path fill="#2563EB" stroke="#6C484D" d="M23.148 26.022a5.626 5.626 0 000 7.956l10.874 10.874a5.626 5.626 0 007.956 0l10.874-10.874a5.626 5.626 0 000-7.956L41.978 15.148a5.626 5.626 0 00-7.956 0L23.148 26.022z"/><path fill="#3B82F6" stroke="#6C484D" d="M48.873 19.129l-.127.475.127-.475-14.854-3.98a5.626 5.626 0 00-6.89 3.978l-3.98 14.854a5.626 5.626 0 003.978 6.89l14.854 3.98a5.626 5.626 0 006.89-3.978l3.98-14.854a5.626 5.626 0 00-3.978-6.89z"/><path fill="#EFF6FF" d="M38.914 23.746h-1.828V36.05h1.828V23.746z"/><path fill="#EFF6FF" d="M31.849 28.983v1.829H44.15v-1.829h-12.3z"/><mask id="a" width="56" height="17" x="9" y="45" fill="#000" maskUnits="userSpaceOnUse"><path fill="#fff" d="M9 45h56v17H9z"/><path d="M22.302 46.825c.06 2.055.06 11.715 0 13.5-.465.06-1.725.045-2.25 0-.03-.855-.045-3.735-.045-6.63-.675 0-1.365 0-1.98-.03-.06-.57-.06-1.605 0-2.175.72-.03 1.38-.03 1.995-.03 0-2.13.015-3.975.03-4.635.405-.09 1.725-.075 2.25 0zm-12.225.42c1.2-.06 5.745-.075 7.065 0 .105 1.74.135 10.335.045 12.075-.39.075-1.74.06-2.28 0v-4.68c-1.725.015-4.125 0-4.77-.015-.06-.6-.06-1.53 0-2.085.525-.03 2.925-.045 4.77-.03V49.3c-.93.03-3.69.03-4.83 0-.06-.585-.06-1.5 0-2.055zm25.664 6.735c-1.155.105-10.095.12-11.265 0-.09-1.8-.075-5.1 0-6.765 1.08-.075 10.095-.075 11.265 0 .09 1.785.09 5.865 0 6.765zm-9.03-4.74c-.03.48-.03 2.265 0 2.745 1.14.03 5.565.03 6.795 0 .03-.48.03-2.265 0-2.745-1.44-.015-5.355-.03-6.795 0zm9.84 6.075c.06.555.06 1.32 0 1.95-.315.015-1.17.03-2.28.045 0 1.08.015 2.475-.015 3.09-.495.03-1.695.03-2.295 0-.03-.525-.03-1.965-.03-3.075-1.185 0-2.46 0-3.66-.015 0 1.08.015 2.475-.015 3.09-.495.03-1.695.03-2.295 0-.03-.525-.03-1.98-.015-3.105-1.065 0-1.89-.015-2.295-.03-.06-.54-.06-1.365 0-1.95 3.12-.06 11.49-.03 12.9 0zm11.099 5.01c-.06-1.74-.045-11.76 0-13.5.405-.09 1.725-.075 2.25 0 .06 2.055.06 11.715 0 13.5-.465.06-1.725.045-2.25 0zm-9.675-1.005c-.09-3.075-.075-10.005 0-12.075.465-.06 1.74-.045 2.28 0 .045 2.25.03 7.11 0 10.035 1.065-.03 4.785-.03 5.91 0 .06.57.06 1.47 0 2.04-1.2.045-6.825.06-8.19 0zm25.724-12.495c.06 2.055.06 11.715 0 13.5-.465.06-1.725.045-2.25 0-.06-1.74-.045-11.76 0-13.5.405-.09 1.725-.075 2.25 0zM54.084 57.31c1.23-.03 4.62-.03 5.88 0 .06.57.06 1.44 0 2.01-1.365.06-6.57.075-8.19 0-.09-1.755-.075-10.35 0-12.075 1.335-.06 6.12-.045 7.29 0 .06.525.06 1.455 0 2.025-.9.03-4.065.03-4.98 0 0 .87.015 1.905.015 3 1.395-.015 3.45 0 4.59 0 .06.57.045 1.44 0 2.01-1.095.03-3.195.015-4.59 0 0 1.065-.015 2.1-.015 3.03z"/></mask><path fill="#252525" d="M22.302 46.825c.06 2.055.06 11.715 0 13.5-.465.06-1.725.045-2.25 0-.03-.855-.045-3.735-.045-6.63-.675 0-1.365 0-1.98-.03-.06-.57-.06-1.605 0-2.175.72-.03 1.38-.03 1.995-.03 0-2.13.015-3.975.03-4.635.405-.09 1.725-.075 2.25 0zm-12.225.42c1.2-.06 5.745-.075 7.065 0 .105 1.74.135 10.335.045 12.075-.39.075-1.74.06-2.28 0v-4.68c-1.725.015-4.125 0-4.77-.015-.06-.6-.06-1.53 0-2.085.525-.03 2.925-.045 4.77-.03V49.3c-.93.03-3.69.03-4.83 0-.06-.585-.06-1.5 0-2.055zm25.664 6.735c-1.155.105-10.095.12-11.265 0-.09-1.8-.075-5.1 0-6.765 1.08-.075 10.095-.075 11.265 0 .09 1.785.09 5.865 0 6.765zm-9.03-4.74c-.03.48-.03 2.265 0 2.745 1.14.03 5.565.03 6.795 0 .03-.48.03-2.265 0-2.745-1.44-.015-5.355-.03-6.795 0zm9.84 6.075c.06.555.06 1.32 0 1.95-.315.015-1.17.03-2.28.045 0 1.08.015 2.475-.015 3.09-.495.03-1.695.03-2.295 0-.03-.525-.03-1.965-.03-3.075-1.185 0-2.46 0-3.66-.015 0 1.08.015 2.475-.015 3.09-.495.03-1.695.03-2.295 0-.03-.525-.03-1.98-.015-3.105-1.065 0-1.89-.015-2.295-.03-.06-.54-.06-1.365 0-1.95 3.12-.06 11.49-.03 12.9 0zm11.099 5.01c-.06-1.74-.045-11.76 0-13.5.405-.09 1.725-.075 2.25 0 .06 2.055.06 11.715 0 13.5-.465.06-1.725.045-2.25 0zm-9.675-1.005c-.09-3.075-.075-10.005 0-12.075.465-.06 1.74-.045 2.28 0 .045 2.25.03 7.11 0 10.035 1.065-.03 4.785-.03 5.91 0 .06.57.06 1.47 0 2.04-1.2.045-6.825.06-8.19 0zm25.724-12.495c.06 2.055.06 11.715 0 13.5-.465.06-1.725.045-2.25 0-.06-1.74-.045-11.76 0-13.5.405-.09 1.725-.075 2.25 0zM54.084 57.31c1.23-.03 4.62-.03 5.88 0 .06.57.06 1.44 0 2.01-1.365.06-6.57.075-8.19 0-.09-1.755-.075-10.35 0-12.075 1.335-.06 6.12-.045 7.29 0 .06.525.06 1.455 0 2.025-.9.03-4.065.03-4.98 0 0 .87.015 1.905.015 3 1.395-.015 3.45 0 4.59 0 .06.57.045 1.44 0 2.01-1.095.03-3.195.015-4.59 0 0 1.065-.015 2.1-.015 3.03z"/><path fill="#fff" d="M22.302 46.825l1-.03-.025-.84-.833-.12-.142.99zm0 13.5l.128.992.843-.109.029-.85-1-.033zm-2.25 0l-.999.035.031.886.883.075.085-.996zm-.045-6.63h1v-1h-1v1zm-1.98-.03l-.994.105.09.852.856.042.048-.999zm0-2.175l-.041-1-.863.037-.09.858.994.105zm1.995-.03v1h1v-1h-1zm.03-4.635l-.217-.976-.765.17-.017.783 1 .023zm-9.975.42l-.05-.999-.852.043-.092.849.994.107zm7.065 0l.998-.06-.053-.888-.888-.05-.057.998zm.045 12.075l.19.982.768-.148.041-.782-.999-.052zm-2.28 0h-1v.895l.89.099.11-.994zm0-4.68h1v-1.009l-1.008.009.008 1zm-4.77-.015l-.995.1.088.88.884.02.023-1zm0-2.085l-.057-.998-.846.048-.09.842.993.108zm4.77-.03l-.008 1 1.008.008V52.51h-1zm0-3.21h1v-1.033l-1.032.033.032 1zm-4.83 0l-.994.102.09.874.878.024.026-1zm11.226-2.446c.06 2.037.06 11.676 0 13.437l1.999.068c.06-1.81.06-11.49 0-13.563l-2 .058zm.871 12.48c-.364.046-1.544.037-2.036-.005l-.171 1.992c.558.048 1.898.069 2.463-.004l-.256-1.984zm-1.122.956c-.03-.833-.045-3.692-.045-6.595h-2c0 2.887.015 5.788.046 6.665l1.999-.07zm-1.045-7.595c-.68 0-1.345 0-1.93-.029l-.098 1.998c.644.031 1.36.031 2.028.031v-2zm-.985.865c-.053-.5-.053-1.465 0-1.965l-1.99-.21c-.067.64-.067 1.745 0 2.385l1.99-.21zm-.953-1.07c.696-.03 1.337-.03 1.953-.03v-2c-.613 0-1.293 0-2.036.03l.083 2zm2.953-1.03c0-2.13.015-3.965.03-4.612l-2-.046c-.015.673-.03 2.528-.03 4.658h2zm-.753-3.659s.023-.004.08-.01c.054-.006.123-.011.205-.016a10.3 10.3 0 01.574-.012c.433.002.84.024 1.033.052l.283-1.98c-.332-.047-.848-.07-1.307-.072-.431-.002-.973.013-1.302.086l.434 1.952zm-10.142.443c1.171-.059 5.68-.073 6.959 0l.113-1.997c-1.361-.078-5.943-.062-7.172 0l.1 1.997zm6.017-.939c.103 1.702.133 10.26.045 11.963l1.997.104c.092-1.777.062-10.41-.046-12.187l-1.996.12zM17 58.338l-.022.003a5.035 5.035 0 01-.278.02 14.925 14.925 0 01-1.681-.035l-.221 1.988c.323.036.837.055 1.302.057.435.001.97-.01 1.277-.069l-.378-1.964zm-1.092.982v-4.68h-2v4.68h2zM14.9 53.64c-1.72.015-4.108 0-4.738-.015l-.047 2c.66.015 3.07.03 4.802.015l-.017-2zm-3.767.886a11.14 11.14 0 010-1.879l-1.989-.215a13.056 13.056 0 000 2.292l1.99-.198zm-.938-.988c.486-.027 2.85-.043 4.705-.028l.017-2c-1.836-.015-4.271 0-4.836.032l.114 1.996zm5.713-1.028V49.3h-2v3.21h2zm-1.032-4.21c-.907.03-3.647.03-4.771 0l-.053 2c1.155.03 3.935.03 4.889 0l-.065-2zm-3.803.898a10.8 10.8 0 010-1.846l-1.989-.214a12.716 12.716 0 000 2.264l1.99-.204zm24.67 4.782l.09.996.822-.075.082-.822-.995-.099zm-11.266 0l-.999.05.043.857.854.088.102-.995zm0-6.765l-.07-.998-.889.062-.04.891 1 .045zm11.265 0l.999-.05-.045-.89-.89-.058-.064.998zm-9.03 2.025l-.02-1-.92.02-.058.918.998.062zm0 2.745l-.998.062.057.914.915.024.026-1zm6.795 0l.025 1 .916-.023.057-.915-.998-.062zm0-2.745l.998-.062-.058-.928-.93-.01-.01 1zm3.045 6.075l.994-.107-.094-.874-.879-.019-.02 1zm0 1.95l.048.999.866-.041.082-.863-.996-.095zm-2.28.045l-.013-1-.987.013v.987h1zm-.015 3.09l.06.998.895-.054.044-.895-.999-.049zm-2.295 0l-.998.057.051.897.897.045.05-.999zm-.03-3.075h1v-1h-1v1zm-3.66-.015l.013-1-1.013-.013v1.013h1zm-.015 3.09l.06.998.895-.054.044-.895-.999-.049zm-2.295 0l-.998.057.051.897.897.045.05-.999zm-.015-3.105l1 .013.014-1.013h-1.014v1zm-2.295-.03l-.994.11.096.857.861.032.037-.999zm0-1.95l-.02-1-.884.017-.09.881.994.102zm12-2.33c-.52.046-2.985.078-5.537.08-2.56.001-5.017-.026-5.536-.08l-.204 1.99c.65.066 3.249.091 5.741.09 2.499-.002 5.082-.031 5.717-.09l-.181-1.99zm-10.176.945c-.088-1.763-.074-5.031 0-6.67l-1.998-.09c-.076 1.691-.091 5.023 0 6.86l1.998-.1zm-.93-5.717c.496-.035 2.972-.054 5.53-.054 2.555 0 5.058.02 5.602.054l.128-1.996c-.626-.04-3.215-.058-5.73-.058-2.512 0-5.084.018-5.668.058l.138 1.996zm10.197-.948c.09 1.774.086 5.793.004 6.615l1.99.2c.098-.978.095-5.119.004-6.915l-1.998.1zm-9.029 1.913a42.117 42.117 0 000 2.87l1.996-.125a41.77 41.77 0 010-2.62l-1.996-.125zm.972 3.807c1.158.03 5.6.03 6.846 0l-.05-2c-1.214.03-5.622.03-6.744 0l-.052 2zm7.82-.938c.032-.521.032-2.348 0-2.87l-1.997.125a41.77 41.77 0 010 2.62l1.996.125zm-.988-3.807c-1.44-.015-5.37-.03-6.827 0l.042 2c1.423-.03 5.324-.015 6.764 0l.02-2zm2.04 7.182c.052.48.053 1.177-.001 1.748l1.99.19a11.54 11.54 0 000-2.152l-1.989.215zm.947.844c-.294.014-1.127.029-2.246.044l.027 2a102.85 102.85 0 002.314-.046l-.095-1.998zM33.27 57.31c0 1.112.015 2.459-.014 3.041l1.998.098c.032-.648.016-2.091.016-3.139h-2zm.925 2.092c-.452.027-1.614.028-2.185 0l-.1 1.997c.63.031 1.867.032 2.406 0l-.121-1.997zm-1.236.94c-.028-.487-.029-1.886-.029-3.017h-2c0 1.089 0 2.57.032 3.132l1.996-.114zm-1.029-4.017c-1.186 0-2.455 0-3.647-.015l-.025 2c1.207.015 2.488.015 3.672.015v-2zm-4.66.985c0 1.112.015 2.459-.014 3.041l1.998.098c.032-.648.016-2.091.016-3.139h-2zm.925 2.092c-.452.027-1.614.028-2.185 0l-.1 1.997c.63.031 1.867.032 2.406 0l-.121-1.997zm-1.237.941c-.027-.483-.028-1.902-.013-3.035l-2-.026c-.015 1.117-.016 2.608.017 3.175l1.996-.114zm-1.013-4.048c-1.059 0-1.87-.015-2.258-.03l-.074 2c.422.015 1.26.03 2.332.03v-2zm-1.3.86a9.602 9.602 0 010-1.738l-1.99-.204a11.65 11.65 0 00.001 2.162l1.988-.22zm-.976-.84c3.106-.06 11.463-.03 12.86 0l.042-2c-1.422-.03-9.806-.06-12.94 0l.038 2zm23.98 4.01l-1 .034.031.887.884.075.085-.996zm0-13.5l-.217-.976-.763.17-.02.78 1 .026zm2.25 0l1-.03-.025-.84-.834-.12-.141.99zm0 13.5l.128.992.843-.109.028-.85-.999-.033zM37.975 59.32l-1 .03.028.928.928.041.044-.999zm0-12.075l-.128-.992-.84.109-.031.847.999.036zm2.28 0l1-.02-.018-.902-.899-.075-.083.997zm0 10.035l-1-.01-.01 1.039 1.038-.03-.028-.999zm5.91 0l.995-.105-.092-.871-.876-.024-.027 1zm0 2.04l.038 1 .866-.033.09-.862-.994-.105zm2.484.97c-.059-1.713-.044-11.712 0-13.44l-1.999-.05c-.045 1.752-.06 11.793 0 13.56l2-.07zm-.782-12.489a4.048 4.048 0 01.285-.026 10.3 10.3 0 01.574-.012c.433.002.84.024 1.033.052l.282-1.98c-.331-.047-.848-.07-1.307-.072-.43-.002-.972.013-1.3.086l.433 1.952zm1.033-.947c.06 2.037.06 11.676 0 13.437l2 .068c.06-1.81.06-11.49 0-13.563l-2 .058zm.872 12.48c-.364.046-1.544.037-2.037-.005l-.17 1.992c.557.048 1.897.069 2.463-.004l-.256-1.984zm-10.797-.043c-.09-3.057-.075-9.965 0-12.01l-2-.072c-.075 2.095-.09 9.047 0 12.14l2-.058zm-.872-11.054c.364-.047 1.559-.038 2.069.005l.166-1.993c-.57-.048-1.925-.069-2.491.004l.256 1.984zm1.152-.972c.045 2.234.03 7.08 0 10.005l2 .02c.03-2.925.045-7.799 0-10.065l-2 .04zm1.028 11.015c1.046-.03 4.748-.03 5.855 0l.054-2c-1.143-.03-4.88-.03-5.965 0l.056 2zm4.887-.895c.053.5.053 1.33 0 1.83l1.99.21c.067-.64.067-1.61 0-2.25l-1.99.21zm.957.936c-1.178.044-6.776.059-8.108 0l-.088 1.998c1.398.061 7.05.046 8.272 0l-.076-1.998zM63.7 46.825l1-.03-.025-.84-.834-.12-.141.99zm0 13.5l.128.992.843-.109.028-.85-1-.033zm-2.25 0l-1 .034.031.887.883.075.086-.996zm0-13.5l-.217-.976-.763.17-.02.78 1 .026zM54.084 57.31h-1v1.025l1.024-.025-.024-1zm5.88 0l.994-.105-.092-.874-.878-.02-.024.999zm0 2.01l.044.999.86-.038.09-.856-.994-.105zm-8.19 0l-.999.051.047.906.906.042.046-.999zm0-12.075l-.045-.999-.914.041-.04.915.999.043zm7.29 0l.993-.113-.097-.853-.858-.033-.038.999zm0 2.025l.033 1 .87-.03.091-.865-.994-.105zm-4.98 0l.033-1-1.033-.033v1.033h1zm.015 3h-1v1.01l1.01-.01-.01-1zm4.59 0l.994-.105-.094-.895h-.9v1zm0 2.01l.027 1 .899-.025.07-.896-.996-.079zm-4.59 0l.01-1-1.01-.01v1.01h1zm8.6-7.426c.06 2.037.06 11.676 0 13.437l2 .068c.06-1.81.06-11.49 0-13.563l-2 .058zm.872 12.48c-.364.046-1.544.037-2.037-.005l-.17 1.992c.557.048 1.897.069 2.463-.004l-.256-1.984zm-1.123.956c-.059-1.713-.044-11.712 0-13.44l-1.999-.05c-.045 1.752-.06 11.793 0 13.56l2-.07zm-.782-12.489a4.048 4.048 0 01.285-.026 10.3 10.3 0 01.574-.012c.433.002.84.024 1.032.052l.283-1.98c-.332-.047-.848-.07-1.307-.072-.43-.002-.972.013-1.301.086l.434 1.952zM54.108 58.31c1.214-.03 4.588-.03 5.832 0l.048-2c-1.276-.03-4.682-.03-5.929 0l.05 2zm4.861-.895c.053.5.053 1.3 0 1.8l1.99.21c.067-.64.067-1.58 0-2.22l-1.99.21zm.95.906c-1.337.059-6.512.074-8.099 0l-.092 1.998c1.653.076 6.888.061 8.28 0l-.088-1.998zm-7.146.948c-.089-1.718-.074-10.28 0-11.98l-1.998-.087c-.076 1.75-.092 10.377 0 12.17l1.998-.103zm-.954-11.025c1.301-.059 6.058-.044 7.206 0l.077-1.998c-1.191-.046-6.005-.062-7.373 0l.09 1.998zm6.251-.886a10.48 10.48 0 010 1.807l1.988.21c.067-.637.068-1.64 0-2.243l-1.988.227zm.96.913c-.877.029-4.02.029-4.913 0l-.066 1.998c.937.031 4.124.031 5.046 0l-.066-1.998zm-5.946.999c0 .44.004.92.007 1.423.004.505.008 1.034.008 1.577h2c0-.552-.004-1.088-.008-1.592-.004-.506-.007-.978-.007-1.408h-2zm1.026 4c1.388-.015 3.425 0 4.579 0v-2c-1.126 0-3.2-.015-4.6 0l.02 2zm3.584-.895c.052.487.04 1.29-.002 1.826l1.994.158c.047-.605.066-1.54-.003-2.194l-1.989.21zm.967.905c-1.072.03-3.151.015-4.551 0l-.022 2c1.39.015 3.51.03 4.628 0l-.055-2zm-5.562 1c0 .528-.004 1.05-.008 1.558-.003.507-.007 1.003-.007 1.472h2c0-.46.003-.948.007-1.457.004-.508.008-1.036.008-1.573h-2z" mask="url(#a)"/></svg>