<svg width="250" height="52" viewBox="0 0 250 52" fill="none" xmlns="http://www.w3.org/2000/svg">
<rect x="2" y="2" width="246" height="48" rx="14" fill="#A4E96B" stroke="#44A342" stroke-width="4"/>
<mask id="path-2-outside-1_1_22" maskUnits="userSpaceOnUse" x="70" y="13" width="141" height="27" fill="black">
<rect fill="white" x="70" y="13" width="141" height="27"/>
<path d="M87.936 18.432C82.632 18.456 76.08 18.504 74.28 18.432C74.184 17.52 74.184 16.224 74.28 15.312C76.2 15.192 89.376 15.216 91.56 15.312C91.68 17.352 91.68 21.24 91.56 22.392C90.864 22.464 88.632 22.464 87.936 22.392C87.912 21.096 87.912 19.656 87.936 18.432ZM93.36 23.52C93.456 24.36 93.456 25.68 93.36 26.616C91.296 26.76 75.552 26.712 72.72 26.616C72.624 25.8 72.624 24.408 72.72 23.52C74.472 23.496 77.256 23.472 80.232 23.472C80.232 22.128 80.256 20.544 80.28 20.136C81.072 20.04 83.136 20.04 83.952 20.136C83.976 20.616 83.976 22.176 83.976 23.472C88.272 23.472 92.232 23.496 93.36 23.52ZM83.04 28.128C90.576 28.128 92.472 29.664 92.472 32.592C92.472 35.856 90.216 37.08 83.04 37.08C75.504 37.08 73.608 35.544 73.608 32.592C73.608 29.352 75.864 28.128 83.04 28.128ZM83.04 34.104C88.176 34.104 88.824 33.672 88.824 32.592C88.824 31.584 88.152 31.104 83.04 31.104C77.904 31.104 77.256 31.536 77.256 32.592C77.256 33.624 77.928 34.104 83.04 34.104ZM114.718 27.192C113.974 27.288 111.982 27.264 111.142 27.192C111.07 25.128 111.07 16.944 111.142 15.12C111.79 15.024 113.878 15 114.718 15.12C114.766 17.712 114.79 24.816 114.718 27.192ZM102.238 22.224C100.51 23.904 98.5421 25.68 97.0301 26.976C96.4301 26.496 95.2061 25.152 94.7981 24.432C96.4781 22.848 98.4941 21.024 100.318 19.368C100.294 18.096 100.318 16.272 100.342 15.36C100.99 15.24 103.222 15.216 104.062 15.36C104.086 16.272 104.11 18.096 104.086 19.368C105.982 20.784 108.046 22.32 109.798 23.664C109.462 24.408 108.382 25.872 107.83 26.4C106.222 25.272 104.11 23.712 102.238 22.224ZM114.718 28.272C114.838 30.288 114.79 35.64 114.718 36.816C113.974 36.912 112.03 36.864 111.166 36.816C111.118 35.592 111.166 32.928 111.166 31.464C105.862 31.464 98.5661 31.536 96.7661 31.464C96.6701 30.552 96.6701 29.184 96.7661 28.272C98.7101 28.176 112.534 28.152 114.718 28.272ZM141.835 15.12C141.931 18.408 141.931 33.864 141.835 36.72C141.091 36.816 139.075 36.792 138.235 36.72C138.187 35.352 138.163 30.744 138.163 26.112C137.083 26.112 135.979 26.112 134.995 26.064C134.899 25.152 134.899 23.496 134.995 22.584C136.147 22.536 137.203 22.536 138.187 22.536C138.187 19.128 138.211 16.176 138.235 15.12C138.883 14.976 140.995 15 141.835 15.12ZM122.275 15.792C124.195 15.696 131.467 15.672 133.579 15.792C133.747 18.576 133.795 32.328 133.651 35.112C133.027 35.232 130.867 35.208 130.003 35.112V27.624C127.243 27.648 123.403 27.624 122.371 27.6C122.275 26.64 122.275 25.152 122.371 24.264C123.211 24.216 127.051 24.192 130.003 24.216V19.08C128.515 19.128 124.099 19.128 122.275 19.08C122.179 18.144 122.179 16.68 122.275 15.792ZM163.337 26.568C161.489 26.736 147.185 26.76 145.313 26.568C145.169 23.688 145.193 18.408 145.313 15.744C147.041 15.624 161.465 15.624 163.337 15.744C163.481 18.6 163.481 25.128 163.337 26.568ZM148.889 18.984C148.841 19.752 148.841 22.608 148.889 23.376C150.713 23.424 157.793 23.424 159.761 23.376C159.809 22.608 159.809 19.752 159.761 18.984C157.457 18.96 151.193 18.936 148.889 18.984ZM164.633 28.704C164.729 29.592 164.729 30.816 164.633 31.824C164.129 31.848 162.761 31.872 160.985 31.896C160.985 33.624 161.009 35.856 160.961 36.84C160.169 36.888 158.249 36.888 157.289 36.84C157.241 36 157.241 33.696 157.241 31.92C155.345 31.92 153.305 31.92 151.385 31.896C151.385 33.624 151.409 35.856 151.361 36.84C150.569 36.888 148.649 36.888 147.689 36.84C147.641 36 147.641 33.672 147.665 31.872C145.961 31.872 144.641 31.848 143.993 31.824C143.897 30.96 143.897 29.64 143.993 28.704C148.985 28.608 162.377 28.656 164.633 28.704ZM182.392 36.72C182.296 33.936 182.32 17.904 182.392 15.12C183.04 14.976 185.152 15 185.992 15.12C186.088 18.408 186.088 33.864 185.992 36.72C185.248 36.816 183.232 36.792 182.392 36.72ZM166.912 35.112C166.768 30.192 166.792 19.104 166.912 15.792C167.656 15.696 169.696 15.72 170.56 15.792C170.632 19.392 170.608 27.168 170.56 31.848C172.264 31.8 178.216 31.8 180.016 31.848C180.112 32.76 180.112 34.2 180.016 35.112C178.096 35.184 169.096 35.208 166.912 35.112ZM208.07 15.12C208.166 18.408 208.166 33.864 208.07 36.72C207.326 36.816 205.31 36.792 204.47 36.72C204.374 33.936 204.398 17.904 204.47 15.12C205.118 14.976 207.23 15 208.07 15.12ZM192.686 31.896C194.654 31.848 200.078 31.848 202.094 31.896C202.19 32.808 202.19 34.2 202.094 35.112C199.91 35.208 191.582 35.232 188.99 35.112C188.846 32.304 188.87 18.552 188.99 15.792C191.126 15.696 198.782 15.72 200.654 15.792C200.75 16.632 200.75 18.12 200.654 19.032C199.214 19.08 194.15 19.08 192.686 19.032C192.686 20.424 192.71 22.08 192.71 23.832C194.942 23.808 198.23 23.832 200.054 23.832C200.15 24.744 200.126 26.136 200.054 27.048C198.302 27.096 194.942 27.072 192.71 27.048C192.71 28.752 192.686 30.408 192.686 31.896Z"/>
</mask>
<path d="M87.936 18.432C82.632 18.456 76.08 18.504 74.28 18.432C74.184 17.52 74.184 16.224 74.28 15.312C76.2 15.192 89.376 15.216 91.56 15.312C91.68 17.352 91.68 21.24 91.56 22.392C90.864 22.464 88.632 22.464 87.936 22.392C87.912 21.096 87.912 19.656 87.936 18.432ZM93.36 23.52C93.456 24.36 93.456 25.68 93.36 26.616C91.296 26.76 75.552 26.712 72.72 26.616C72.624 25.8 72.624 24.408 72.72 23.52C74.472 23.496 77.256 23.472 80.232 23.472C80.232 22.128 80.256 20.544 80.28 20.136C81.072 20.04 83.136 20.04 83.952 20.136C83.976 20.616 83.976 22.176 83.976 23.472C88.272 23.472 92.232 23.496 93.36 23.52ZM83.04 28.128C90.576 28.128 92.472 29.664 92.472 32.592C92.472 35.856 90.216 37.08 83.04 37.08C75.504 37.08 73.608 35.544 73.608 32.592C73.608 29.352 75.864 28.128 83.04 28.128ZM83.04 34.104C88.176 34.104 88.824 33.672 88.824 32.592C88.824 31.584 88.152 31.104 83.04 31.104C77.904 31.104 77.256 31.536 77.256 32.592C77.256 33.624 77.928 34.104 83.04 34.104ZM114.718 27.192C113.974 27.288 111.982 27.264 111.142 27.192C111.07 25.128 111.07 16.944 111.142 15.12C111.79 15.024 113.878 15 114.718 15.12C114.766 17.712 114.79 24.816 114.718 27.192ZM102.238 22.224C100.51 23.904 98.5421 25.68 97.0301 26.976C96.4301 26.496 95.2061 25.152 94.7981 24.432C96.4781 22.848 98.4941 21.024 100.318 19.368C100.294 18.096 100.318 16.272 100.342 15.36C100.99 15.24 103.222 15.216 104.062 15.36C104.086 16.272 104.11 18.096 104.086 19.368C105.982 20.784 108.046 22.32 109.798 23.664C109.462 24.408 108.382 25.872 107.83 26.4C106.222 25.272 104.11 23.712 102.238 22.224ZM114.718 28.272C114.838 30.288 114.79 35.64 114.718 36.816C113.974 36.912 112.03 36.864 111.166 36.816C111.118 35.592 111.166 32.928 111.166 31.464C105.862 31.464 98.5661 31.536 96.7661 31.464C96.6701 30.552 96.6701 29.184 96.7661 28.272C98.7101 28.176 112.534 28.152 114.718 28.272ZM141.835 15.12C141.931 18.408 141.931 33.864 141.835 36.72C141.091 36.816 139.075 36.792 138.235 36.72C138.187 35.352 138.163 30.744 138.163 26.112C137.083 26.112 135.979 26.112 134.995 26.064C134.899 25.152 134.899 23.496 134.995 22.584C136.147 22.536 137.203 22.536 138.187 22.536C138.187 19.128 138.211 16.176 138.235 15.12C138.883 14.976 140.995 15 141.835 15.12ZM122.275 15.792C124.195 15.696 131.467 15.672 133.579 15.792C133.747 18.576 133.795 32.328 133.651 35.112C133.027 35.232 130.867 35.208 130.003 35.112V27.624C127.243 27.648 123.403 27.624 122.371 27.6C122.275 26.64 122.275 25.152 122.371 24.264C123.211 24.216 127.051 24.192 130.003 24.216V19.08C128.515 19.128 124.099 19.128 122.275 19.08C122.179 18.144 122.179 16.68 122.275 15.792ZM163.337 26.568C161.489 26.736 147.185 26.76 145.313 26.568C145.169 23.688 145.193 18.408 145.313 15.744C147.041 15.624 161.465 15.624 163.337 15.744C163.481 18.6 163.481 25.128 163.337 26.568ZM148.889 18.984C148.841 19.752 148.841 22.608 148.889 23.376C150.713 23.424 157.793 23.424 159.761 23.376C159.809 22.608 159.809 19.752 159.761 18.984C157.457 18.96 151.193 18.936 148.889 18.984ZM164.633 28.704C164.729 29.592 164.729 30.816 164.633 31.824C164.129 31.848 162.761 31.872 160.985 31.896C160.985 33.624 161.009 35.856 160.961 36.84C160.169 36.888 158.249 36.888 157.289 36.84C157.241 36 157.241 33.696 157.241 31.92C155.345 31.92 153.305 31.92 151.385 31.896C151.385 33.624 151.409 35.856 151.361 36.84C150.569 36.888 148.649 36.888 147.689 36.84C147.641 36 147.641 33.672 147.665 31.872C145.961 31.872 144.641 31.848 143.993 31.824C143.897 30.96 143.897 29.64 143.993 28.704C148.985 28.608 162.377 28.656 164.633 28.704ZM182.392 36.72C182.296 33.936 182.32 17.904 182.392 15.12C183.04 14.976 185.152 15 185.992 15.12C186.088 18.408 186.088 33.864 185.992 36.72C185.248 36.816 183.232 36.792 182.392 36.72ZM166.912 35.112C166.768 30.192 166.792 19.104 166.912 15.792C167.656 15.696 169.696 15.72 170.56 15.792C170.632 19.392 170.608 27.168 170.56 31.848C172.264 31.8 178.216 31.8 180.016 31.848C180.112 32.76 180.112 34.2 180.016 35.112C178.096 35.184 169.096 35.208 166.912 35.112ZM208.07 15.12C208.166 18.408 208.166 33.864 208.07 36.72C207.326 36.816 205.31 36.792 204.47 36.72C204.374 33.936 204.398 17.904 204.47 15.12C205.118 14.976 207.23 15 208.07 15.12ZM192.686 31.896C194.654 31.848 200.078 31.848 202.094 31.896C202.19 32.808 202.19 34.2 202.094 35.112C199.91 35.208 191.582 35.232 188.99 35.112C188.846 32.304 188.87 18.552 188.99 15.792C191.126 15.696 198.782 15.72 200.654 15.792C200.75 16.632 200.75 18.12 200.654 19.032C199.214 19.08 194.15 19.08 192.686 19.032C192.686 20.424 192.71 22.08 192.71 23.832C194.942 23.808 198.23 23.832 200.054 23.832C200.15 24.744 200.126 26.136 200.054 27.048C198.302 27.096 194.942 27.072 192.71 27.048C192.71 28.752 192.686 30.408 192.686 31.896Z" fill="#252525"/>
<path d="M87.936 18.432L89.9356 18.4712L89.9758 16.4227L87.927 16.432L87.936 18.432ZM74.28 18.432L72.291 18.6414L72.472 20.3613L74.2001 20.4304L74.28 18.432ZM74.28 15.312L74.1552 13.3159L72.468 13.4213L72.291 15.1026L74.28 15.312ZM91.56 15.312L93.5566 15.1946L93.4506 13.3932L91.6478 13.3139L91.56 15.312ZM91.56 22.392L91.7658 24.3814L93.381 24.2143L93.5492 22.5992L91.56 22.392ZM87.936 22.392L85.9363 22.429L85.9691 24.1992L87.7302 24.3814L87.936 22.392ZM93.36 23.52L95.3471 23.2929L95.1487 21.5576L93.4025 21.5205L93.36 23.52ZM93.36 26.616L93.4992 28.6111L95.1779 28.494L95.3496 26.8201L93.36 26.616ZM72.72 26.616L70.7337 26.8497L70.9345 28.5566L72.6522 28.6149L72.72 26.616ZM72.72 23.52L72.6926 21.5202L70.9219 21.5444L70.7316 23.305L72.72 23.52ZM80.232 23.472V25.472H82.232V23.472H80.232ZM80.28 20.136L80.0393 18.1505L78.3815 18.3515L78.2835 20.0186L80.28 20.136ZM83.952 20.136L85.9495 20.0361L85.8651 18.3473L84.1857 18.1497L83.952 20.136ZM83.976 23.472H81.976V25.472H83.976V23.472ZM87.927 16.432C82.5748 16.4562 76.1009 16.5032 74.3599 16.4336L74.2001 20.4304C76.0591 20.5048 82.6892 20.4558 87.9451 20.432L87.927 16.432ZM76.269 18.2226C76.1877 17.4498 76.1877 16.2942 76.269 15.5214L72.291 15.1026C72.1803 16.1538 72.1803 17.5902 72.291 18.6414L76.269 18.2226ZM74.4048 17.3081C76.2298 17.194 89.3297 17.2159 91.4722 17.3101L91.6478 13.3139C89.4223 13.2161 76.1702 13.19 74.1552 13.3159L74.4048 17.3081ZM89.5635 15.4294C89.6811 17.4297 89.6742 21.1923 89.5708 22.1848L93.5492 22.5992C93.6859 21.2877 93.6789 17.2743 93.5566 15.1946L89.5635 15.4294ZM91.3542 20.4026C91.1224 20.4266 90.4873 20.446 89.748 20.446C89.0087 20.446 88.3736 20.4266 88.1418 20.4026L87.7302 24.3814C88.1944 24.4294 89.0233 24.446 89.748 24.446C90.4727 24.446 91.3016 24.4294 91.7658 24.3814L91.3542 20.4026ZM89.9357 22.355C89.9121 21.0829 89.9121 19.6684 89.9356 18.4712L85.9364 18.3928C85.9119 19.6436 85.9119 21.1091 85.9363 22.429L89.9357 22.355ZM91.3729 23.7471C91.4509 24.4289 91.4534 25.6035 91.3704 26.4119L95.3496 26.8201C95.4586 25.7565 95.4612 24.2911 95.3471 23.2929L91.3729 23.7471ZM93.2208 24.6208C91.2674 24.7571 75.6115 24.7129 72.7878 24.6171L72.6522 28.6149C75.4925 28.7111 91.3246 28.7629 93.4992 28.6111L93.2208 24.6208ZM74.7063 26.3823C74.6293 25.7276 74.6272 24.4866 74.7084 23.735L70.7316 23.305C70.6208 24.3294 70.6187 25.8724 70.7337 26.8497L74.7063 26.3823ZM72.7474 25.5198C74.4907 25.4959 77.2655 25.472 80.232 25.472V21.472C77.2465 21.472 74.4533 21.4961 72.6926 21.5202L72.7474 25.5198ZM82.232 23.472C82.232 22.118 82.2566 20.5929 82.2765 20.2534L78.2835 20.0186C78.2554 20.4951 78.232 22.138 78.232 23.472H82.232ZM80.5207 22.1215C81.1505 22.0451 83.0552 22.0443 83.7183 22.1223L84.1857 18.1497C83.2168 18.0357 80.9935 18.0349 80.0393 18.1505L80.5207 22.1215ZM81.9545 20.2359C81.9752 20.6506 81.976 22.1342 81.976 23.472H85.976C85.976 22.2178 85.9768 20.5814 85.9495 20.0361L81.9545 20.2359ZM83.976 25.472C88.2752 25.472 92.2142 25.4961 93.3175 25.5195L93.4025 21.5205C92.2498 21.4959 88.2688 21.472 83.976 21.472V25.472ZM83.04 30.128C86.7786 30.128 88.6991 30.5279 89.6459 31.0294C90.0554 31.2463 90.2113 31.4462 90.2921 31.5982C90.3857 31.7743 90.472 32.0667 90.472 32.592H94.472C94.472 31.6533 94.3213 30.6557 93.8239 29.7203C93.3137 28.7608 92.5246 28.0277 91.5181 27.4946C89.6329 26.4961 86.8374 26.128 83.04 26.128V30.128ZM90.472 32.592C90.472 33.1865 90.3684 33.5051 90.2654 33.6877C90.1749 33.848 90.0038 34.0505 89.5688 34.2631C88.5627 34.7548 86.6264 35.08 83.04 35.08V39.08C86.6296 39.08 89.4093 38.7932 91.3252 37.8569C92.3512 37.3555 93.1926 36.64 93.7494 35.6528C94.2936 34.6879 94.472 33.6295 94.472 32.592H90.472ZM83.04 35.08C79.3006 35.08 77.3822 34.6798 76.437 34.1772C76.0289 33.9601 75.8723 33.7594 75.7902 33.6041C75.695 33.4239 75.608 33.1255 75.608 32.592H71.608C71.608 33.5345 71.758 34.5351 72.2538 35.4731C72.7627 36.4361 73.5511 37.1729 74.559 37.7088C76.4458 38.7122 79.2434 39.08 83.04 39.08V35.08ZM75.608 32.592C75.608 32.0057 75.7109 31.6931 75.8121 31.5146C75.9013 31.3575 76.0717 31.1557 76.5082 30.9434C77.5159 30.4529 79.4544 30.128 83.04 30.128V26.128C79.4496 26.128 76.6721 26.4151 74.7578 27.3466C73.7333 27.8453 72.8912 28.557 72.3331 29.5406C71.7871 30.5029 71.608 31.5583 71.608 32.592H75.608ZM83.04 36.104C85.5564 36.104 87.3025 36.0103 88.4366 35.6675C89.0483 35.4826 89.7552 35.1489 90.2556 34.4662C90.7641 33.7725 90.824 33.0362 90.824 32.592H86.824C86.824 32.6878 86.8029 32.4105 87.0294 32.1016C87.2478 31.8036 87.4717 31.7804 87.2794 31.8385C86.8055 31.9818 85.6596 32.104 83.04 32.104V36.104ZM90.824 32.592C90.824 32.1293 90.7491 31.4007 90.2276 30.719C89.728 30.066 89.0357 29.7409 88.4322 29.5569C87.2976 29.2111 85.5592 29.104 83.04 29.104V33.104C85.6328 33.104 86.7864 33.2369 87.2658 33.3831C87.4693 33.4451 87.2645 33.429 87.0507 33.1495C86.8149 32.8413 86.824 32.5507 86.824 32.592H90.824ZM83.04 29.104C80.5214 29.104 78.78 29.1982 77.6499 29.5356C77.0438 29.7165 76.3377 30.0435 75.8345 30.7181C75.3184 31.4098 75.256 32.1466 75.256 32.592H79.256C79.256 32.5094 79.2746 32.7962 79.0405 33.1099C78.8193 33.4065 78.5962 33.4275 78.7941 33.3684C79.272 33.2258 80.4226 33.104 83.04 33.104V29.104ZM75.256 32.592C75.256 33.0525 75.3278 33.7808 75.842 34.4651C76.339 35.1265 77.0325 35.4582 77.6413 35.6461C78.7799 35.9974 80.523 36.104 83.04 36.104V32.104C80.445 32.104 79.2961 31.9706 78.8207 31.8239C78.6225 31.7628 78.8285 31.781 79.0397 32.0621C79.2682 32.3662 79.256 32.6475 79.256 32.592H75.256ZM114.718 27.192L114.974 29.1756L116.666 28.9573L116.717 27.2526L114.718 27.192ZM111.142 27.192L109.143 27.2617L109.205 29.0333L110.971 29.1847L111.142 27.192ZM111.142 15.12L110.849 13.1416L109.209 13.3845L109.144 15.0411L111.142 15.12ZM114.718 15.12L116.718 15.083L116.686 13.3809L115.001 13.1401L114.718 15.12ZM102.238 22.224L103.483 20.6584L102.105 19.5636L100.844 20.79L102.238 22.224ZM97.0301 26.976L95.7807 28.5377L97.0741 29.5724L98.3317 28.4945L97.0301 26.976ZM94.7981 24.432L93.4261 22.9768L92.2846 24.0531L93.0581 25.418L94.7981 24.432ZM100.318 19.368L101.663 20.8488L102.335 20.2383L102.318 19.3303L100.318 19.368ZM100.342 15.36L99.9779 13.3934L98.3854 13.6883L98.3428 15.3074L100.342 15.36ZM104.062 15.36L106.061 15.3074L106.018 13.6662L104.4 13.3888L104.062 15.36ZM104.086 19.368L102.086 19.3303L102.067 20.3563L102.889 20.9704L104.086 19.368ZM109.798 23.664L111.621 24.4872L112.273 23.0422L111.015 22.0771L109.798 23.664ZM107.83 26.4L106.682 28.0373L108.026 28.9804L109.213 27.8453L107.83 26.4ZM114.718 28.272L116.715 28.1532L116.609 26.3729L114.828 26.275L114.718 28.272ZM114.718 36.816L114.974 38.7996L116.613 38.588L116.714 36.9382L114.718 36.816ZM111.166 36.816L109.168 36.8944L109.239 38.712L111.055 38.8129L111.166 36.816ZM111.166 31.464H113.166V29.464H111.166V31.464ZM96.7661 31.464L94.7771 31.6734L94.9582 33.3933L96.6862 33.4624L96.7661 31.464ZM96.7661 28.272L96.6675 26.2744L94.9565 26.3589L94.7771 28.0626L96.7661 28.272ZM114.462 25.2084C113.92 25.2784 112.088 25.2657 111.313 25.1993L110.971 29.1847C111.877 29.2623 114.028 29.2976 114.974 29.1756L114.462 25.2084ZM113.141 27.1223C113.07 25.1015 113.071 16.9674 113.141 15.1989L109.144 15.0411C109.069 16.9206 109.07 25.1545 109.143 27.2617L113.141 27.1223ZM111.435 17.0984C111.603 17.0735 112.159 17.042 112.867 17.039C113.568 17.036 114.172 17.0623 114.435 17.0999L115.001 13.1401C114.424 13.0577 113.565 13.036 112.85 13.039C112.141 13.042 111.329 13.0705 110.849 13.1416L111.435 17.0984ZM112.718 15.157C112.766 17.7383 112.79 24.8042 112.719 27.1314L116.717 27.2526C116.791 24.8278 116.766 17.6857 116.718 15.083L112.718 15.157ZM100.844 20.79C99.1493 22.4376 97.2126 24.1854 95.7285 25.4575L98.3317 28.4945C99.8716 27.1746 101.871 25.3704 103.632 23.658L100.844 20.79ZM98.2795 25.4143C98.111 25.2795 97.7428 24.9219 97.3369 24.4653C96.921 23.9973 96.6323 23.6121 96.5382 23.446L93.0581 25.418C93.3719 25.9719 93.8993 26.6187 94.3473 27.1227C94.8054 27.6381 95.3492 28.1925 95.7807 28.5377L98.2795 25.4143ZM96.1702 25.8872C97.833 24.3193 99.8319 22.5107 101.663 20.8488L98.9737 17.8872C97.1563 19.5373 95.1232 21.3767 93.4261 22.9768L96.1702 25.8872ZM102.318 19.3303C102.295 18.0992 102.318 16.3077 102.341 15.4126L98.3428 15.3074C98.3184 16.2363 98.2937 18.0928 98.3185 19.4057L102.318 19.3303ZM100.706 17.3266C100.705 17.3268 100.745 17.3199 100.843 17.3107C100.933 17.302 101.049 17.2936 101.186 17.2862C101.461 17.2714 101.793 17.2624 102.138 17.261C102.879 17.258 103.492 17.2915 103.724 17.3312L104.4 13.3888C103.792 13.2845 102.869 13.258 102.122 13.261C101.389 13.264 100.501 13.2966 99.9779 13.3934L100.706 17.3266ZM102.063 15.4126C102.086 16.3077 102.11 18.0992 102.086 19.3303L106.086 19.4057C106.111 18.0928 106.086 16.2363 106.061 15.3074L102.063 15.4126ZM102.889 20.9704C104.791 22.3908 106.842 23.9168 108.581 25.2509L111.015 22.0771C109.25 20.7232 107.173 19.1772 105.283 17.7656L102.889 20.9704ZM107.975 22.8408C107.895 23.0183 107.642 23.4346 107.276 23.9383C106.916 24.4356 106.592 24.8171 106.448 24.9547L109.213 27.8453C109.621 27.4549 110.113 26.8404 110.514 26.2877C110.91 25.7414 111.365 25.0537 111.621 24.4872L107.975 22.8408ZM108.979 24.7627C107.4 23.655 105.32 22.1188 103.483 20.6584L100.994 23.7896C102.9 25.3052 105.045 26.889 106.682 28.0373L108.979 24.7627ZM112.722 28.3908C112.836 30.3198 112.789 35.591 112.722 36.6938L116.714 36.9382C116.791 35.689 116.84 30.2562 116.715 28.1532L112.722 28.3908ZM114.462 34.8324C113.93 34.9011 112.169 34.8686 111.277 34.8191L111.055 38.8129C111.891 38.8594 114.018 38.9229 114.974 38.7996L114.462 34.8324ZM113.165 36.7376C113.119 35.5634 113.166 33.0146 113.166 31.464H109.166C109.166 32.8414 109.118 35.6206 109.168 36.8944L113.165 36.7376ZM111.166 29.464C105.79 29.464 98.5935 29.5355 96.8461 29.4656L96.6862 33.4624C98.5387 33.5365 105.934 33.464 111.166 33.464V29.464ZM98.7551 31.2546C98.6738 30.4818 98.6738 29.2542 98.7551 28.4814L94.7771 28.0626C94.6665 29.1138 94.6665 30.6222 94.7771 31.6734L98.7551 31.2546ZM96.8648 30.2696C98.7491 30.1765 112.503 30.1533 114.608 30.269L114.828 26.275C112.565 26.1507 98.6712 26.1755 96.6675 26.2744L96.8648 30.2696ZM141.835 15.12L143.834 15.0616L143.785 13.3783L142.118 13.1401L141.835 15.12ZM141.835 36.72L142.091 38.7036L143.777 38.486L143.834 36.7872L141.835 36.72ZM138.235 36.72L136.237 36.7901L136.299 38.5613L138.065 38.7127L138.235 36.72ZM138.163 26.112H140.163V24.112H138.163V26.112ZM134.995 26.064L133.006 26.2734L133.186 27.9781L134.898 28.0616L134.995 26.064ZM134.995 22.584L134.912 20.5857L133.187 20.6576L133.006 22.3746L134.995 22.584ZM138.187 22.536V24.536H140.187V22.536H138.187ZM138.235 15.12L137.801 13.1676L136.271 13.5076L136.236 15.0746L138.235 15.12ZM122.275 15.792L122.175 13.7945L120.47 13.8797L120.287 15.577L122.275 15.792ZM133.579 15.792L135.576 15.6715L135.469 13.8961L133.693 13.7952L133.579 15.792ZM133.651 35.112L134.029 37.076L135.568 36.7801L135.649 35.2153L133.651 35.112ZM130.003 35.112H128.003V36.9021L129.782 37.0998L130.003 35.112ZM130.003 27.624H132.003V25.6065L129.986 25.6241L130.003 27.624ZM122.371 27.6L120.381 27.799L120.557 29.5584L122.325 29.5995L122.371 27.6ZM122.371 24.264L122.257 22.2673L120.565 22.364L120.383 24.049L122.371 24.264ZM130.003 24.216L129.987 26.2159L132.003 26.2323V24.216H130.003ZM130.003 19.08H132.003V17.0144L129.939 17.081L130.003 19.08ZM122.275 19.08L120.286 19.2841L120.465 21.0331L122.223 21.0793L122.275 19.08ZM139.836 15.1784C139.931 18.4306 139.931 33.8443 139.836 36.6528L143.834 36.7872C143.932 33.8837 143.932 18.3854 143.834 15.0616L139.836 15.1784ZM141.579 34.7364C141.037 34.8064 139.181 34.7937 138.406 34.7273L138.065 38.7127C138.97 38.7903 141.146 38.8256 142.091 38.7036L141.579 34.7364ZM140.234 36.6499C140.188 35.3256 140.163 30.7601 140.163 26.112H136.163C136.163 30.7279 136.187 35.3784 136.237 36.7901L140.234 36.6499ZM138.163 24.112C137.071 24.112 136.019 24.1115 135.093 24.0664L134.898 28.0616C135.94 28.1125 137.095 28.112 138.163 28.112V24.112ZM136.984 25.8546C136.903 25.0818 136.903 23.5662 136.984 22.7934L133.006 22.3746C132.896 23.4258 132.896 25.2222 133.006 26.2734L136.984 25.8546ZM135.079 24.5823C136.183 24.5362 137.2 24.536 138.187 24.536V20.536C137.207 20.536 136.111 20.5358 134.912 20.5857L135.079 24.5823ZM140.187 22.536C140.187 19.1291 140.211 16.1968 140.235 15.1654L136.236 15.0746C136.211 16.1552 136.187 19.1269 136.187 22.536H140.187ZM138.669 17.0724C138.659 17.0746 138.772 17.0549 139.06 17.0395C139.314 17.026 139.625 17.0196 139.955 17.021C140.643 17.0239 141.271 17.0597 141.552 17.0999L142.118 13.1401C141.559 13.0603 140.712 13.0241 139.972 13.021C139.289 13.0181 138.378 13.0395 137.801 13.1676L138.669 17.0724ZM122.375 17.7895C124.237 17.6964 131.437 17.6735 133.466 17.7888L133.693 13.7952C131.498 13.6705 124.153 13.6956 122.175 13.7945L122.375 17.7895ZM131.583 15.9125C131.746 18.6202 131.794 32.2974 131.654 35.0087L135.649 35.2153C135.796 32.3586 135.748 18.5318 135.576 15.6715L131.583 15.9125ZM133.274 33.148C133.274 33.1479 133.15 33.1652 132.853 33.178C132.59 33.1894 132.267 33.1944 131.926 33.193C131.222 33.1901 130.55 33.1604 130.224 33.1242L129.782 37.0998C130.321 37.1596 131.161 37.1899 131.909 37.193C132.597 37.1958 133.492 37.1792 134.029 37.076L133.274 33.148ZM132.003 35.112V27.624H128.003V35.112H132.003ZM129.986 25.6241C127.238 25.648 123.421 25.6239 122.418 25.6005L122.325 29.5995C123.386 29.6241 127.248 29.648 130.021 29.6239L129.986 25.6241ZM124.361 27.401C124.278 26.5678 124.28 25.2189 124.36 24.479L120.383 24.049C120.271 25.0851 120.273 26.7122 120.381 27.799L124.361 27.401ZM122.485 26.2607C123.247 26.2172 127.016 26.1918 129.987 26.2159L130.02 22.2161C127.086 22.1922 123.176 22.2148 122.257 22.2673L122.485 26.2607ZM132.003 24.216V19.08H128.003V24.216H132.003ZM129.939 17.081C128.497 17.1275 124.121 17.1279 122.328 17.0807L122.223 21.0793C124.077 21.1281 128.533 21.1285 130.068 21.079L129.939 17.081ZM124.265 18.8759C124.182 18.0719 124.184 16.7485 124.264 16.007L120.287 15.577C120.175 16.6115 120.176 18.2161 120.286 19.2841L124.265 18.8759ZM163.337 26.568L163.519 28.5598L165.163 28.4103L165.328 26.767L163.337 26.568ZM145.313 26.568L143.316 26.6679L143.402 28.3824L145.109 28.5576L145.313 26.568ZM145.313 15.744L145.175 13.7488L143.396 13.8724L143.315 15.654L145.313 15.744ZM163.337 15.744L165.335 15.6433L165.245 13.8622L163.465 13.7481L163.337 15.744ZM148.889 18.984L148.848 16.9844L147.008 17.0228L146.893 18.8592L148.889 18.984ZM148.889 23.376L146.893 23.5008L147.007 25.3272L148.837 25.3753L148.889 23.376ZM159.761 23.376L159.81 25.3754L161.643 25.3307L161.758 23.5008L159.761 23.376ZM159.761 18.984L161.758 18.8592L161.642 17.0035L159.782 16.9841L159.761 18.984ZM164.633 28.704L166.622 28.489L166.433 26.7418L164.676 26.7045L164.633 28.704ZM164.633 31.824L164.729 33.8217L166.46 33.7393L166.624 32.0136L164.633 31.824ZM160.985 31.896L160.958 29.8962L158.985 29.9228V31.896H160.985ZM160.961 36.84L161.082 38.8363L162.872 38.7279L162.959 36.9374L160.961 36.84ZM157.289 36.84L155.293 36.9541L155.395 38.7478L157.19 38.8375L157.289 36.84ZM157.241 31.92H159.241V29.92H157.241V31.92ZM151.385 31.896L151.41 29.8962L149.385 29.8708V31.896H151.385ZM151.361 36.84L151.482 38.8363L153.272 38.7279L153.359 36.9374L151.361 36.84ZM147.689 36.84L145.693 36.9541L145.795 38.7478L147.59 38.8375L147.689 36.84ZM147.665 31.872L149.665 31.8987L149.692 29.872H147.665V31.872ZM143.993 31.824L142.006 32.0449L142.196 33.7588L143.919 33.8226L143.993 31.824ZM143.993 28.704L143.955 26.7044L142.185 26.7384L142.004 28.4999L143.993 28.704ZM163.156 24.5762C162.347 24.6498 158.428 24.7 154.333 24.703C150.226 24.706 146.322 24.661 145.517 24.5784L145.109 28.5576C146.177 28.667 150.361 28.7059 154.336 28.703C158.323 28.7 162.48 28.6542 163.519 28.5598L163.156 24.5762ZM147.311 26.4681C147.171 23.6615 147.194 18.4457 147.311 15.834L143.315 15.654C143.193 18.3703 143.168 23.7145 143.316 26.6679L147.311 26.4681ZM145.452 17.7392C146.227 17.6854 150.169 17.654 154.271 17.654C158.368 17.654 162.355 17.6851 163.209 17.7399L163.465 13.7481C162.448 13.6829 158.287 13.654 154.271 13.654C150.262 13.654 146.128 13.6826 145.175 13.7488L145.452 17.7392ZM161.34 15.8447C161.483 18.6774 161.476 25.0834 161.347 26.369L165.328 26.767C165.487 25.1726 165.48 18.5226 165.335 15.6433L161.34 15.8447ZM146.893 18.8592C146.84 19.7103 146.84 22.6497 146.893 23.5008L150.886 23.2512C150.843 22.5663 150.843 19.7937 150.886 19.1088L146.893 18.8592ZM148.837 25.3753C150.697 25.4243 157.811 25.4242 159.81 25.3754L159.713 21.3766C157.776 21.4238 150.73 21.4237 148.942 21.3767L148.837 25.3753ZM161.758 23.5008C161.811 22.6497 161.811 19.7103 161.758 18.8592L157.765 19.1088C157.808 19.7937 157.808 22.5663 157.765 23.2512L161.758 23.5008ZM159.782 16.9841C157.479 16.9601 151.187 16.9357 148.848 16.9844L148.931 20.9836C151.2 20.9363 157.436 20.9599 159.741 20.9839L159.782 16.9841ZM162.645 28.919C162.725 29.6561 162.727 30.7435 162.642 31.6344L166.624 32.0136C166.732 30.8885 166.734 29.5279 166.622 28.489L162.645 28.919ZM164.538 29.8263C164.077 29.8482 162.752 29.8719 160.958 29.8962L161.012 33.8958C162.771 33.8721 164.182 33.8478 164.729 33.8217L164.538 29.8263ZM158.985 31.896C158.985 33.689 159.009 35.8235 158.964 36.7426L162.959 36.9374C163.01 35.8885 162.985 33.559 162.985 31.896H158.985ZM160.84 34.8437C160.135 34.8864 158.291 34.8876 157.389 34.8425L157.19 38.8375C158.208 38.8884 160.203 38.8896 161.082 38.8363L160.84 34.8437ZM159.286 36.7259C159.242 35.9598 159.241 33.7388 159.241 31.92H155.241C155.241 33.6532 155.24 36.0402 155.293 36.9541L159.286 36.7259ZM157.241 29.92C155.343 29.92 153.316 29.92 151.41 29.8962L151.36 33.8958C153.295 33.92 155.348 33.92 157.241 33.92V29.92ZM149.385 31.896C149.385 33.689 149.409 35.8235 149.364 36.7426L153.359 36.9374C153.41 35.8885 153.385 33.559 153.385 31.896H149.385ZM151.24 34.8437C150.535 34.8864 148.69 34.8876 147.789 34.8425L147.59 38.8375C148.608 38.8884 150.603 38.8896 151.482 38.8363L151.24 34.8437ZM149.686 36.7259C149.643 35.9692 149.641 33.7144 149.665 31.8987L145.666 31.8453C145.642 33.6296 145.64 36.0308 145.693 36.9541L149.686 36.7259ZM147.665 29.872C145.974 29.872 144.681 29.8481 144.067 29.8254L143.919 33.8226C144.602 33.8479 145.949 33.872 147.665 33.872V29.872ZM145.981 31.6031C145.902 30.8914 145.9 29.7143 145.983 28.9081L142.004 28.4999C141.895 29.5658 141.893 31.0286 142.006 32.0449L145.981 31.6031ZM144.032 30.7036C148.996 30.6082 162.361 30.6561 164.591 30.7035L164.676 26.7045C162.394 26.6559 148.975 26.6078 143.955 26.7044L144.032 30.7036ZM182.392 36.72L180.393 36.7889L180.454 38.5612L182.221 38.7127L182.392 36.72ZM182.392 15.12L181.958 13.1676L180.433 13.5065L180.392 15.0683L182.392 15.12ZM185.992 15.12L187.991 15.0616L187.942 13.3783L186.274 13.1401L185.992 15.12ZM185.992 36.72L186.248 38.7036L187.933 38.486L187.99 36.7872L185.992 36.72ZM166.912 35.112L164.912 35.1705L164.967 37.0284L166.824 37.1101L166.912 35.112ZM166.912 15.792L166.656 13.8084L164.974 14.0254L164.913 15.7196L166.912 15.792ZM170.56 15.792L172.559 15.752L172.523 13.9487L170.726 13.7989L170.56 15.792ZM170.56 31.848L168.56 31.8275L168.538 33.9057L170.616 33.8472L170.56 31.848ZM180.016 31.848L182.005 31.6386L181.821 29.8954L180.069 29.8487L180.016 31.848ZM180.016 35.112L180.091 37.1106L181.823 37.0456L182.005 35.3214L180.016 35.112ZM184.39 36.6511C184.296 33.9194 184.32 17.9298 184.391 15.1717L180.392 15.0683C180.32 17.8782 180.295 33.9526 180.393 36.7889L184.39 36.6511ZM182.825 17.0724C182.815 17.0746 182.928 17.0549 183.216 17.0395C183.47 17.026 183.781 17.0196 184.111 17.021C184.799 17.0239 185.427 17.0597 185.709 17.0999L186.274 13.1401C185.716 13.0603 184.868 13.0241 184.128 13.021C183.445 13.0181 182.534 13.0395 181.958 13.1676L182.825 17.0724ZM183.992 15.1784C184.087 18.4306 184.087 33.8443 183.993 36.6528L187.99 36.7872C188.088 33.8837 188.088 18.3854 187.991 15.0616L183.992 15.1784ZM185.736 34.7364C185.193 34.8064 183.337 34.7937 182.562 34.7273L182.221 38.7127C183.126 38.7903 185.302 38.8256 186.248 38.7036L185.736 34.7364ZM168.911 35.0535C168.768 30.1697 168.792 19.1259 168.91 15.8644L164.913 15.7196C164.791 19.0821 164.767 30.2143 164.912 35.1705L168.911 35.0535ZM167.168 17.7756C167.709 17.7057 169.589 17.7181 170.393 17.7851L170.726 13.7989C169.802 13.7219 167.602 13.6863 166.656 13.8084L167.168 17.7756ZM168.56 15.832C168.631 19.3992 168.608 27.1489 168.56 31.8275L172.559 31.8685C172.607 27.1871 172.632 19.3848 172.559 15.752L168.56 15.832ZM170.616 33.8472C172.281 33.8003 178.197 33.8002 179.962 33.8473L180.069 29.8487C178.234 29.7998 172.246 29.7997 170.503 29.8488L170.616 33.8472ZM178.027 32.0574C178.108 32.8302 178.108 34.1298 178.027 34.9026L182.005 35.3214C182.115 34.2702 182.115 32.6898 182.005 31.6386L178.027 32.0574ZM179.941 33.1134C178.063 33.1838 169.118 33.2071 166.999 33.1139L166.824 37.1101C169.073 37.2089 178.128 37.1842 180.091 37.1106L179.941 33.1134ZM208.07 15.12L210.069 15.0616L210.02 13.3783L208.353 13.1401L208.07 15.12ZM208.07 36.72L208.326 38.7036L210.011 38.486L210.069 36.7872L208.07 36.72ZM204.47 36.72L202.471 36.7889L202.532 38.5612L204.299 38.7127L204.47 36.72ZM204.47 15.12L204.036 13.1676L202.511 13.5065L202.47 15.0683L204.47 15.12ZM192.686 31.896H190.686V33.9454L192.734 33.8954L192.686 31.896ZM202.094 31.896L204.083 31.6866L203.899 29.9384L202.141 29.8966L202.094 31.896ZM202.094 35.112L202.182 37.1101L203.902 37.0344L204.083 35.3214L202.094 35.112ZM188.99 35.112L186.992 35.2144L187.085 37.026L188.897 37.1099L188.99 35.112ZM188.99 15.792L188.9 13.794L187.071 13.8762L186.992 15.7051L188.99 15.792ZM200.654 15.792L202.641 15.5649L202.446 13.8595L200.731 13.7935L200.654 15.792ZM200.654 19.032L200.72 21.0309L202.46 20.9729L202.643 19.2414L200.654 19.032ZM192.686 19.032L192.751 17.0331L190.686 16.9654V19.032H192.686ZM192.71 23.832H190.71V25.8536L192.731 25.8319L192.71 23.832ZM200.054 23.832L202.043 23.6226L201.854 21.832H200.054V23.832ZM200.054 27.048L200.108 29.0472L201.906 28.998L202.047 27.2054L200.054 27.048ZM192.71 27.048L192.731 25.0481L190.71 25.0264V27.048H192.71ZM206.071 15.1784C206.165 18.4306 206.165 33.8443 206.071 36.6528L210.069 36.7872C210.166 33.8837 210.166 18.3854 210.069 15.0616L206.071 15.1784ZM207.814 34.7364C207.271 34.8064 205.415 34.7937 204.64 34.7273L204.299 38.7127C205.204 38.7903 207.38 38.8256 208.326 38.7036L207.814 34.7364ZM206.469 36.6511C206.374 33.9194 206.398 17.9298 206.469 15.1717L202.47 15.0683C202.398 17.8782 202.373 33.9526 202.471 36.7889L206.469 36.6511ZM204.904 17.0724C204.893 17.0746 205.007 17.0549 205.294 17.0395C205.548 17.026 205.86 17.0196 206.189 17.021C206.877 17.0239 207.506 17.0597 207.787 17.0999L208.353 13.1401C207.794 13.0603 206.946 13.0241 206.206 13.021C205.523 13.0181 204.612 13.0395 204.036 13.1676L204.904 17.0724ZM192.734 33.8954C194.67 33.8482 200.061 33.8482 202.046 33.8954L202.141 29.8966C200.094 29.8478 194.638 29.8478 192.637 29.8966L192.734 33.8954ZM200.105 32.1054C200.186 32.8782 200.186 34.1298 200.105 34.9026L204.083 35.3214C204.193 34.2702 204.193 32.7378 204.083 31.6866L200.105 32.1054ZM202.006 33.1139C199.876 33.2076 191.608 33.2311 189.082 33.1141L188.897 37.1099C191.555 37.2329 199.944 37.2084 202.182 37.1101L202.006 33.1139ZM190.987 35.0096C190.847 32.2763 190.87 18.5887 190.988 15.8789L186.992 15.7051C186.869 18.5153 186.844 32.3317 186.992 35.2144L190.987 35.0096ZM189.079 17.79C191.149 17.697 198.748 17.7202 200.577 17.7905L200.731 13.7935C198.816 13.7198 191.103 13.695 188.9 13.794L189.079 17.79ZM198.667 16.0191C198.745 16.7025 198.747 18.0436 198.665 18.8226L202.643 19.2414C202.753 18.1964 202.755 16.5615 202.641 15.5649L198.667 16.0191ZM200.587 17.0331C199.192 17.0796 194.172 17.0797 192.751 17.0331L192.62 21.0309C194.127 21.0803 199.236 21.0804 200.72 21.0309L200.587 17.0331ZM190.686 19.032C190.686 19.7371 190.692 20.5076 190.698 21.3119C190.704 22.1191 190.71 22.9643 190.71 23.832H194.71C194.71 22.9477 194.704 22.0889 194.698 21.2821C194.692 20.4724 194.686 19.7189 194.686 19.032H190.686ZM192.731 25.8319C194.95 25.808 198.202 25.832 200.054 25.832V21.832C198.257 21.832 194.933 21.808 192.688 21.8321L192.731 25.8319ZM198.065 24.0414C198.143 24.7877 198.126 26.0472 198.06 26.8906L202.047 27.2054C202.125 26.2248 202.156 24.7003 202.043 23.6226L198.065 24.0414ZM199.999 25.0487C198.293 25.0955 194.974 25.0722 192.731 25.0481L192.688 29.0479C194.91 29.0718 198.311 29.0965 200.108 29.0472L199.999 25.0487ZM190.71 27.048C190.71 27.8916 190.704 28.7246 190.698 29.5382C190.692 30.3491 190.686 31.1431 190.686 31.896H194.686C194.686 31.1609 194.692 30.3829 194.698 29.5678C194.704 28.7554 194.71 27.9084 194.71 27.048H190.71Z" fill="white" mask="url(#path-2-outside-1_1_22)"/>
<path d="M24.1478 22.0218C21.9507 24.2189 21.9507 27.7811 24.1478 29.9782L35.0218 40.8521C37.2189 43.0493 40.7811 43.0493 42.9782 40.8521L53.8521 29.9782C56.0493 27.7811 56.0493 24.2189 53.8521 22.0218L42.9782 11.1478C40.7811 8.95072 37.2189 8.95072 35.0218 11.1478L24.1478 22.0218Z" fill="#2563EB" stroke="#6C484D"/>
<path d="M49.8733 15.1287L49.7458 15.6042L49.8733 15.1287L35.0191 11.1485C32.0179 10.3443 28.9329 12.1255 28.1287 15.1268L24.1485 29.9808C23.3443 32.9821 25.1254 36.0671 28.1267 36.8713L42.9808 40.8514C45.9821 41.6556 49.0671 39.8745 49.8713 36.8733L53.8514 22.0191C54.6556 19.0179 52.8745 15.9329 49.8733 15.1287Z" fill="#3B82F6" stroke="#6C484D"/>
<path d="M39.9144 19.7462H38.0856V32.0487H39.9144V19.7462Z" fill="#EFF6FF"/>
<path d="M32.8488 24.9831V26.8119H45.1513V24.9831H32.8488Z" fill="#EFF6FF"/>
</svg>
