<svg fill="none" viewBox="0 0 250 52"><rect width="246" height="48" x="2" y="2" fill="#A4E96B" stroke="#44A342" stroke-width="4" rx="14"/><mask id="a" width="141" height="27" x="70" y="13" fill="#000" maskUnits="userSpaceOnUse"><path fill="#fff" d="M70 13h141v27H70z"/><path d="M87.936 18.432c-5.304.024-11.856.072-13.656 0a16.936 16.936 0 010-3.12c1.92-.12 15.096-.096 17.28 0 .12 2.04.12 5.928 0 7.08-.696.072-2.928.072-3.624 0a108.889 108.889 0 010-3.96zm5.424 5.088c.096.84.096 2.16 0 3.096-2.064.144-17.808.096-20.64 0-.096-.816-.096-2.208 0-3.096 1.752-.024 4.536-.048 7.512-.048 0-1.344.024-2.928.048-3.336.792-.096 2.856-.096 3.672 0 .024.48.024 2.04.024 3.336 4.296 0 8.256.024 9.384.048zm-10.32 4.608c7.536 0 9.432 1.536 9.432 4.464 0 3.264-2.256 4.488-9.432 4.488-7.536 0-9.432-1.536-9.432-4.488 0-3.24 2.256-4.464 9.432-4.464zm0 5.976c5.136 0 5.784-.432 5.784-1.512 0-1.008-.672-1.488-5.784-1.488-5.136 0-5.784.432-5.784 1.488 0 1.032.672 1.512 5.784 1.512zm31.678-6.912c-.744.096-2.736.072-3.576 0-.072-2.064-.072-10.248 0-12.072.648-.096 2.736-.12 3.576 0 .048 2.592.072 9.696 0 12.072zm-12.48-4.968a119.785 119.785 0 01-5.208 4.752c-.6-.48-1.824-1.824-2.232-2.544 1.68-1.584 3.696-3.408 5.52-5.064-.024-1.272 0-3.096.024-4.008.648-.12 2.88-.144 3.72 0 .024.912.048 2.736.024 4.008 1.896 1.416 3.96 2.952 5.712 4.296-.336.744-1.416 2.208-1.968 2.736a124.198 124.198 0 01-5.592-4.176zm12.48 6.048c.12 2.016.072 7.368 0 8.544-.744.096-2.688.048-3.552 0-.048-1.224 0-3.888 0-5.352-5.304 0-12.6.072-14.4 0a17.725 17.725 0 010-3.192c1.944-.096 15.768-.12 17.952 0zm27.117-13.152c.096 3.288.096 18.744 0 21.6-.744.096-2.76.072-3.6 0-.048-1.368-.072-5.976-.072-10.608-1.08 0-2.184 0-3.168-.048-.096-.912-.096-2.568 0-3.48 1.152-.048 2.208-.048 3.192-.048 0-3.408.024-6.36.048-7.416.648-.144 2.76-.12 3.6 0zm-19.56.672c1.92-.096 9.192-.12 11.304 0 .168 2.784.216 16.536.072 19.32-.624.12-2.784.096-3.648 0v-7.488c-2.76.024-6.6 0-7.632-.024-.096-.96-.096-2.448 0-3.336.84-.048 4.68-.072 7.632-.048V19.08c-1.488.048-5.904.048-7.728 0-.096-.936-.096-2.4 0-3.288zm41.062 10.776c-1.848.168-16.152.192-18.024 0-.144-2.88-.12-8.16 0-10.824 1.728-.12 16.152-.12 18.024 0 .144 2.856.144 9.384 0 10.824zm-14.448-7.584c-.048.768-.048 3.624 0 4.392 1.824.048 8.904.048 10.872 0 .048-.768.048-3.624 0-4.392-2.304-.024-8.568-.048-10.872 0zm15.744 9.72c.096.888.096 2.112 0 3.12-.504.024-1.872.048-3.648.072 0 1.728.024 3.96-.024 4.944-.792.048-2.712.048-3.672 0-.048-.84-.048-3.144-.048-4.92-1.896 0-3.936 0-5.856-.024 0 1.728.024 3.96-.024 4.944-.792.048-2.712.048-3.672 0-.048-.84-.048-3.168-.024-4.968-1.704 0-3.024-.024-3.672-.048-.096-.864-.096-2.184 0-3.12 4.992-.096 18.384-.048 20.64 0zm17.759 8.016c-.096-2.784-.072-18.816 0-21.6.648-.144 2.76-.12 3.6 0 .096 3.288.096 18.744 0 21.6-.744.096-2.76.072-3.6 0zm-15.48-1.608c-.144-4.92-.12-16.008 0-19.32.744-.096 2.784-.072 3.648 0 .072 3.6.048 11.376 0 16.056 1.704-.048 7.656-.048 9.456 0 .096.912.096 2.352 0 3.264-1.92.072-10.92.096-13.104 0zM208.07 15.12c.096 3.288.096 18.744 0 21.6-.744.096-2.76.072-3.6 0-.096-2.784-.072-18.816 0-21.6.648-.144 2.76-.12 3.6 0zm-15.384 16.776c1.968-.048 7.392-.048 9.408 0 .096.912.096 2.304 0 3.216-2.184.096-10.512.12-13.104 0-.144-2.808-.12-16.56 0-19.32 2.136-.096 9.792-.072 11.664 0 .096.84.096 2.328 0 3.24-1.44.048-6.504.048-7.968 0 0 1.392.024 3.048.024 4.8 2.232-.024 5.52 0 7.344 0 .096.912.072 2.304 0 3.216-1.752.048-5.112.024-7.344 0 0 1.704-.024 3.36-.024 4.848z"/></mask><path fill="#252525" d="M87.936 18.432c-5.304.024-11.856.072-13.656 0a16.936 16.936 0 010-3.12c1.92-.12 15.096-.096 17.28 0 .12 2.04.12 5.928 0 7.08-.696.072-2.928.072-3.624 0a108.889 108.889 0 010-3.96zm5.424 5.088c.096.84.096 2.16 0 3.096-2.064.144-17.808.096-20.64 0-.096-.816-.096-2.208 0-3.096 1.752-.024 4.536-.048 7.512-.048 0-1.344.024-2.928.048-3.336.792-.096 2.856-.096 3.672 0 .024.48.024 2.04.024 3.336 4.296 0 8.256.024 9.384.048zm-10.32 4.608c7.536 0 9.432 1.536 9.432 4.464 0 3.264-2.256 4.488-9.432 4.488-7.536 0-9.432-1.536-9.432-4.488 0-3.24 2.256-4.464 9.432-4.464zm0 5.976c5.136 0 5.784-.432 5.784-1.512 0-1.008-.672-1.488-5.784-1.488-5.136 0-5.784.432-5.784 1.488 0 1.032.672 1.512 5.784 1.512zm31.678-6.912c-.744.096-2.736.072-3.576 0-.072-2.064-.072-10.248 0-12.072.648-.096 2.736-.12 3.576 0 .048 2.592.072 9.696 0 12.072zm-12.48-4.968a119.785 119.785 0 01-5.208 4.752c-.6-.48-1.824-1.824-2.232-2.544 1.68-1.584 3.696-3.408 5.52-5.064-.024-1.272 0-3.096.024-4.008.648-.12 2.88-.144 3.72 0 .024.912.048 2.736.024 4.008 1.896 1.416 3.96 2.952 5.712 4.296-.336.744-1.416 2.208-1.968 2.736a124.198 124.198 0 01-5.592-4.176zm12.48 6.048c.12 2.016.072 7.368 0 8.544-.744.096-2.688.048-3.552 0-.048-1.224 0-3.888 0-5.352-5.304 0-12.6.072-14.4 0a17.725 17.725 0 010-3.192c1.944-.096 15.768-.12 17.952 0zm27.117-13.152c.096 3.288.096 18.744 0 21.6-.744.096-2.76.072-3.6 0-.048-1.368-.072-5.976-.072-10.608-1.08 0-2.184 0-3.168-.048-.096-.912-.096-2.568 0-3.48 1.152-.048 2.208-.048 3.192-.048 0-3.408.024-6.36.048-7.416.648-.144 2.76-.12 3.6 0zm-19.56.672c1.92-.096 9.192-.12 11.304 0 .168 2.784.216 16.536.072 19.32-.624.12-2.784.096-3.648 0v-7.488c-2.76.024-6.6 0-7.632-.024-.096-.96-.096-2.448 0-3.336.84-.048 4.68-.072 7.632-.048V19.08c-1.488.048-5.904.048-7.728 0-.096-.936-.096-2.4 0-3.288zm41.062 10.776c-1.848.168-16.152.192-18.024 0-.144-2.88-.12-8.16 0-10.824 1.728-.12 16.152-.12 18.024 0 .144 2.856.144 9.384 0 10.824zm-14.448-7.584c-.048.768-.048 3.624 0 4.392 1.824.048 8.904.048 10.872 0 .048-.768.048-3.624 0-4.392-2.304-.024-8.568-.048-10.872 0zm15.744 9.72c.096.888.096 2.112 0 3.12-.504.024-1.872.048-3.648.072 0 1.728.024 3.96-.024 4.944-.792.048-2.712.048-3.672 0-.048-.84-.048-3.144-.048-4.92-1.896 0-3.936 0-5.856-.024 0 1.728.024 3.96-.024 4.944-.792.048-2.712.048-3.672 0-.048-.84-.048-3.168-.024-4.968-1.704 0-3.024-.024-3.672-.048-.096-.864-.096-2.184 0-3.12 4.992-.096 18.384-.048 20.64 0zm17.759 8.016c-.096-2.784-.072-18.816 0-21.6.648-.144 2.76-.12 3.6 0 .096 3.288.096 18.744 0 21.6-.744.096-2.76.072-3.6 0zm-15.48-1.608c-.144-4.92-.12-16.008 0-19.32.744-.096 2.784-.072 3.648 0 .072 3.6.048 11.376 0 16.056 1.704-.048 7.656-.048 9.456 0 .096.912.096 2.352 0 3.264-1.92.072-10.92.096-13.104 0zM208.07 15.12c.096 3.288.096 18.744 0 21.6-.744.096-2.76.072-3.6 0-.096-2.784-.072-18.816 0-21.6.648-.144 2.76-.12 3.6 0zm-15.384 16.776c1.968-.048 7.392-.048 9.408 0 .096.912.096 2.304 0 3.216-2.184.096-10.512.12-13.104 0-.144-2.808-.12-16.56 0-19.32 2.136-.096 9.792-.072 11.664 0 .096.84.096 2.328 0 3.24-1.44.048-6.504.048-7.968 0 0 1.392.024 3.048.024 4.8 2.232-.024 5.52 0 7.344 0 .096.912.072 2.304 0 3.216-1.752.048-5.112.024-7.344 0 0 1.704-.024 3.36-.024 4.848z"/><path fill="#fff" d="M87.936 18.432l2 .04.04-2.05-2.049.01.009 2zm-13.656 0l-1.989.21.181 1.72 1.728.068.08-1.998zm0-3.12l-.125-1.996-1.687.105-.177 1.682 1.989.209zm17.28 0l1.997-.117-.106-1.802-1.803-.08-.088 1.999zm0 7.08l.206 1.99 1.615-.168.168-1.615-1.989-.207zm-3.624 0l-2 .037.033 1.77 1.761.182.206-1.989zm5.424 1.128l1.987-.227-.198-1.735-1.746-.038-.043 2zm0 3.096l.14 1.995 1.678-.117.172-1.674-1.99-.204zm-20.64 0l-1.986.234.2 1.707 1.718.058.068-1.999zm0-3.096l-.027-2-1.771.024-.19 1.761 1.988.215zm7.512-.048v2h2v-2h-2zm.048-3.336l-.24-1.985-1.659.2-.097 1.668 1.996.117zm3.672 0l1.998-.1-.085-1.689-1.68-.197-.233 1.986zm.024 3.336h-2v2h2v-2zm3.951-7.04c-5.352.024-11.826.071-13.567.002l-.16 3.996c1.86.075 8.49.026 13.745.002l-.018-4zm-11.658 1.79a14.988 14.988 0 010-2.7l-3.978-.42a18.896 18.896 0 000 3.54l3.978-.42zm-1.864-.914c1.825-.114 14.925-.092 17.067.002l.176-3.996c-2.226-.098-15.478-.124-17.493.002l.25 3.992zm15.159-1.879c.117 2 .11 5.763.007 6.756l3.978.414c.137-1.311.13-5.325.008-7.404l-3.993.234zm1.79 4.974c-.232.024-.867.043-1.606.043-.74 0-1.374-.02-1.606-.043l-.412 3.978c.464.048 1.293.065 2.018.065.725 0 1.554-.017 2.018-.065l-.412-3.978zm-1.418 1.952a106.742 106.742 0 010-3.884l-4-.078a113.11 113.11 0 000 4.036l4-.074zm1.437 1.392c.078.682.08 1.857-.003 2.665l3.98.408c.109-1.064.111-2.529-.003-3.527l-3.974.454zm1.848.874c-1.954.136-17.61.092-20.433-.004l-.136 3.998c2.84.096 18.673.148 20.847-.004l-.278-3.99zm-18.515 1.761c-.077-.654-.079-1.895.002-2.647l-3.976-.43c-.111 1.024-.113 2.567.002 3.545l3.972-.468zm-1.959-.862c1.744-.024 4.519-.048 7.485-.048v-4c-2.986 0-5.779.024-7.54.048l.055 4zm9.485-2.048c0-1.354.025-2.88.044-3.219l-3.992-.234c-.029.476-.052 2.119-.052 3.453h4zm-1.711-1.35c.63-.077 2.534-.078 3.197 0l.468-3.972c-.97-.114-3.193-.115-4.147 0l.482 3.972zm1.433-1.886c.021.415.022 1.898.022 3.236h4c0-1.254 0-2.89-.026-3.436l-3.996.2zm2.022 5.236c4.3 0 8.238.024 9.341.047l.086-3.998c-1.153-.025-5.134-.049-9.427-.049v4zm-.936 4.656c3.739 0 5.66.4 6.606.901.41.217.565.417.646.57.094.175.18.468.18.993h4c0-.939-.15-1.936-.648-2.872-.51-.96-1.3-1.692-2.306-2.225-1.885-.999-4.68-1.367-8.478-1.367v4zm7.432 2.464c0 .595-.104.913-.207 1.096-.09.16-.261.362-.696.575-1.006.492-2.943.817-6.529.817v4c3.59 0 6.37-.287 8.285-1.223 1.026-.502 1.868-1.217 2.424-2.204.545-.965.723-2.023.723-3.061h-4zM83.04 35.08c-3.74 0-5.658-.4-6.603-.903-.408-.217-.565-.418-.647-.573-.095-.18-.182-.478-.182-1.012h-4c0 .943.15 1.943.646 2.881.509.963 1.297 1.7 2.305 2.236 1.887 1.003 4.684 1.371 8.481 1.371v-4zm-7.432-2.488c0-.586.103-.899.204-1.077.09-.157.26-.36.696-.572 1.008-.49 2.946-.815 6.532-.815v-4c-3.59 0-6.368.287-8.282 1.219-1.025.498-1.867 1.21-2.425 2.194-.546.962-.725 2.017-.725 3.051h4zm7.432 3.512c2.516 0 4.262-.094 5.397-.437.611-.184 1.318-.518 1.819-1.2.508-.694.568-1.43.568-1.875h-4c0 .096-.021-.181.205-.49.219-.298.443-.322.25-.263-.474.143-1.62.265-4.239.265v4zm7.784-3.512c0-.463-.075-1.191-.596-1.873-.5-.653-1.192-.978-1.796-1.162-1.134-.346-2.873-.453-5.392-.453v4c2.593 0 3.746.133 4.226.28.203.061-.002.045-.215-.234-.236-.309-.227-.6-.227-.558h4zm-7.784-3.488c-2.519 0-4.26.094-5.39.432-.606.18-1.312.508-1.816 1.182-.516.692-.578 1.429-.578 1.874h4c0-.083.019.204-.216.518-.22.297-.444.318-.246.258.478-.142 1.629-.264 4.246-.264v-4zm-7.784 3.488c0 .46.072 1.189.586 1.873.497.661 1.19.993 1.8 1.181 1.138.351 2.881.458 5.398.458v-4c-2.595 0-3.744-.133-4.22-.28-.197-.061.009-.043.22.238.228.304.216.586.216.53h-4zm39.462-5.4l.256 1.984 1.692-.219.051-1.704-1.999-.061zm-3.576 0l-1.999.07.062 1.771 1.766.152.171-1.993zm0-12.072l-.293-1.978-1.64.242-.065 1.657 1.998.079zm3.576 0l2-.037-.032-1.702-1.685-.24-.283 1.979zm-12.48 7.104l1.245-1.566-1.378-1.094-1.261 1.226 1.394 1.434zm-5.208 4.752l-1.25 1.562 1.294 1.034 1.258-1.078-1.302-1.518zm-2.232-2.544l-1.372-1.455-1.141 1.076.773 1.365 1.74-.986zm5.52-5.064l1.345 1.48.672-.61-.017-.908-2 .038zm.024-4.008l-.364-1.967-1.593.295-.042 1.62 1.999.052zm3.72 0l1.999-.053-.043-1.64-1.618-.278-.338 1.971zm.024 4.008l-2-.038-.019 1.026.822.614 1.197-1.602zm5.712 4.296l1.823.823.652-1.445-1.258-.965-1.217 1.587zM107.83 26.4l-1.148 1.637 1.344.943 1.187-1.135-1.383-1.445zm6.888 1.872l1.997-.119-.106-1.78-1.781-.098-.11 1.997zm0 8.544l.256 1.984 1.639-.212.101-1.65-1.996-.122zm-3.552 0l-1.998.078.071 1.818 1.816.1.111-1.996zm0-5.352h2v-2h-2v2zm-14.4 0l-1.989.21.181 1.72 1.728.068.08-1.998zm0-3.192l-.099-1.998-1.71.085-.18 1.704 1.99.209zm17.696-3.064c-.542.07-2.374.058-3.149-.009l-.342 3.986c.906.077 3.057.113 4.003-.01l-.512-3.967zm-1.321 1.914c-.071-2.02-.07-10.155 0-11.923l-3.997-.158c-.075 1.88-.074 10.113-.001 12.22l3.998-.139zm-1.706-10.024c.168-.024.724-.056 1.432-.059.701-.003 1.305.023 1.568.06l.566-3.959c-.577-.082-1.436-.104-2.151-.101-.709.003-1.521.031-2.001.103l.586 3.956zm1.283-1.941c.048 2.581.072 9.647.001 11.974l3.998.122c.074-2.425.049-9.567.001-12.17l-4 .074zm-11.874 5.633a117.816 117.816 0 01-5.115 4.668l2.603 3.037a121.58 121.58 0 005.3-4.837l-2.788-2.868zm-2.564 4.624c-.169-.135-.537-.492-.943-.949-.416-.468-.705-.853-.799-1.019l-3.48 1.972c.314.554.841 1.2 1.29 1.705.457.515 1.001 1.07 1.433 1.415l2.498-3.124zm-2.11.473c1.663-1.568 3.662-3.376 5.493-5.038l-2.69-2.962c-1.817 1.65-3.85 3.49-5.547 5.09l2.744 2.91zm6.148-6.557c-.023-1.23 0-3.022.023-3.917l-3.998-.106c-.025.93-.05 2.786-.025 4.099l4-.076zm-1.612-2.003a8.398 8.398 0 01.48-.04c.275-.016.607-.025.952-.026.741-.003 1.354.03 1.586.07l.676-3.942c-.608-.104-1.531-.131-2.278-.128-.733.003-1.621.036-2.144.132l.728 3.934zm1.357-1.914c.023.895.047 2.686.023 3.917l4 .076c.025-1.313 0-3.17-.025-4.099l-3.998.106zm.826 5.557c1.902 1.42 3.953 2.947 5.692 4.28l2.434-3.173c-1.765-1.354-3.842-2.9-5.732-4.311l-2.394 3.204zm5.086 1.87c-.08.178-.333.595-.699 1.098-.36.498-.684.88-.828 1.017l2.765 2.89c.408-.39.9-1.005 1.301-1.557.396-.547.851-1.234 1.107-1.8l-3.646-1.647zm1.004 1.923a122.086 122.086 0 01-5.496-4.105l-2.489 3.132a125.925 125.925 0 005.688 4.247l2.297-3.274zm3.743 3.628c.114 1.929.067 7.2 0 8.303l3.992.244c.077-1.249.126-6.682.001-8.785l-3.993.238zm1.74 6.441c-.532.07-2.293.037-3.185-.013l-.222 3.994c.836.046 2.963.11 3.919-.013l-.512-3.968zm-1.297 1.906c-.046-1.175.001-3.723.001-5.274h-4c0 1.377-.048 4.157.002 5.43l3.997-.156zm-1.999-7.274c-5.376 0-12.572.072-14.32.002l-.16 3.996c1.853.074 9.248.002 14.48.002v-4zm-12.41 1.79c-.082-.772-.082-2 0-2.773l-3.979-.418c-.11 1.05-.11 2.56 0 3.61l3.978-.418zm-1.891-.984c1.884-.093 15.638-.117 17.743-.001l.22-3.994c-2.263-.124-16.157-.1-18.16 0l.197 3.995zm44.97-15.15l1.999-.058-.049-1.684-1.667-.238-.283 1.98zm0 21.6l.256 1.984 1.686-.218.057-1.699-1.999-.067zm-3.6 0l-1.998.07.062 1.771 1.766.152.17-1.993zm-.072-10.608h2v-2h-2v2zm-3.168-.048l-1.989.21.18 1.704 1.712.084.097-1.998zm0-3.48l-.083-1.998-1.725.072-.181 1.717 1.989.209zm3.192-.048v2h2v-2h-2zm.048-7.416l-.434-1.952-1.53.34-.035 1.567 1.999.045zm-15.96.672l-.1-1.998-1.705.086-.183 1.697 1.988.215zm11.304 0l1.997-.12-.107-1.776-1.776-.1-.114 1.996zm.072 19.32l.378 1.964 1.539-.296.081-1.565-1.998-.103zm-3.648 0h-2v1.79l1.779.198.221-1.988zm0-7.488h2v-2.017l-2.017.017.017 2zm-7.632-.024l-1.99.199.176 1.76 1.768.04.046-1.999zm0-3.336l-.114-1.997-1.692.097-.182 1.685 1.988.215zm7.632-.048l-.016 2 2.016.016v-2.016h-2zm0-5.136h2v-2.066l-2.064.067.064 1.999zm-7.728 0l-1.989.204.179 1.75 1.758.045.052-1.999zm17.561-3.902c.095 3.253.095 18.666 0 21.475l3.998.134c.098-2.903.098-18.402 0-21.725l-3.998.116zm1.743 19.558c-.542.07-2.398.058-3.173-.009l-.341 3.986c.905.077 3.081.113 4.026-.01l-.512-3.967zm-1.345 1.914c-.046-1.324-.071-5.89-.071-10.538h-4c0 4.616.024 9.266.074 10.678l3.997-.14zm-2.071-12.538c-1.092 0-2.144 0-3.07-.046l-.195 3.996c1.042.05 2.197.05 3.265.05v-4zm-1.179 1.743c-.081-.773-.081-2.289 0-3.062l-3.978-.418c-.11 1.05-.11 2.847 0 3.898l3.978-.418zm-1.905-1.273a72.564 72.564 0 013.108-.046v-4c-.98 0-2.076 0-3.275.05l.167 3.996zm5.108-2.046c0-3.407.024-6.34.048-7.37l-3.999-.091c-.025 1.08-.049 4.052-.049 7.461h4zm-1.518-5.464c-.01.003.103-.017.391-.032.254-.014.565-.02.895-.019.688.003 1.316.039 1.597.079l.566-3.96c-.559-.08-1.406-.116-2.146-.119-.683-.003-1.594.018-2.171.147l.868 3.904zm-16.294.718c1.862-.094 9.062-.116 11.091-.001l.227-3.994c-2.195-.124-9.54-.1-11.518 0l.2 3.995zm9.208-1.877c.163 2.707.211 16.384.071 19.096l3.995.206c.147-2.856.099-16.683-.073-19.544l-3.993.242zm1.691 17.235s-.124.017-.421.03a20.3 20.3 0 01-.927.015 19.388 19.388 0 01-1.702-.069l-.442 3.976c.539.06 1.379.09 2.127.093.688.003 1.583-.014 2.12-.117l-.755-3.928zm-1.271 1.964v-7.488h-4v7.488h4zm-2.017-9.488c-2.748.024-6.565 0-7.568-.023l-.093 3.998c1.061.025 4.923.049 7.696.025l-.035-4zm-5.625 1.777c-.083-.833-.081-2.182-.001-2.922l-3.977-.43c-.112 1.036-.11 2.663-.002 3.75l3.98-.398zm-1.876-1.14c.762-.044 4.531-.07 7.502-.045l.033-4c-2.934-.024-6.844-.001-7.763.051l.228 3.994zm9.518-2.045V19.08h-4v5.136h4zm-2.064-7.135c-1.442.047-5.818.047-7.611 0l-.105 3.998c1.854.05 6.31.05 7.845 0l-.129-3.998zm-5.674 1.795c-.083-.804-.081-2.128-.001-2.869l-3.977-.43c-.112 1.034-.111 2.64-.001 3.707l3.979-.408zm39.072 7.692l.182 1.992 1.644-.15.165-1.643-1.991-.199zm-18.024 0l-1.997.1.086 1.714 1.707.176.204-1.99zm0-10.824l-.138-1.995-1.779.123-.081 1.782 1.998.09zm18.024 0l1.998-.1-.09-1.782-1.78-.114-.128 1.996zm-14.448 3.24l-.041-2-1.84.039-.115 1.836 1.996.125zm0 4.392l-1.996.125.114 1.826 1.83.048.052-1.999zm10.872 0l.049 2 1.833-.045.115-1.83-1.997-.125zm0-4.392l1.997-.125-.116-1.856-1.86-.019-.021 2zm4.872 9.72l1.989-.215-.189-1.747-1.757-.038-.043 2zm0 3.12l.096 1.998 1.731-.083.164-1.725-1.991-.19zm-3.648.072l-.027-2-1.973.027v1.973h2zm-.024 4.944l.121 1.996 1.79-.108.087-1.79-1.998-.098zm-3.672 0l-1.996.114.102 1.794 1.795.09.099-1.998zm-.048-4.92h2v-2h-2v2zm-5.856-.024l.025-2-2.025-.025v2.025h2zm-.024 4.944l.121 1.996 1.79-.108.087-1.79-1.998-.098zm-3.672 0l-1.996.114.102 1.794 1.795.09.099-1.998zm-.024-4.968l2 .027.027-2.027h-2.027v2zm-3.672-.048l-1.987.22.19 1.715 1.723.064.074-1.999zm0-3.12l-.038-2-1.77.034-.181 1.762 1.989.204zm19.163-4.128c-.809.074-4.728.124-8.823.127-4.107.003-8.011-.042-8.816-.125l-.408 3.98c1.068.109 5.252.148 9.227.145 3.987-.003 8.144-.049 9.183-.143l-.363-3.984zm-15.845 1.892c-.14-2.806-.117-8.022 0-10.634l-3.996-.18c-.122 2.716-.147 8.06.001 11.014l3.995-.2zm-1.859-8.729c.775-.054 4.717-.085 8.819-.085 4.097 0 8.084.031 8.938.086l.256-3.992c-1.017-.065-5.178-.094-9.194-.094-4.009 0-8.143.029-9.096.095l.277 3.99zm15.888-1.894c.143 2.832.136 9.238.007 10.524l3.981.398c.159-1.594.152-8.244.007-11.124l-3.995.202zm-14.447 3.014c-.053.851-.053 3.79 0 4.642l3.993-.25c-.043-.685-.043-3.457 0-4.142l-3.993-.25zm1.944 6.516c1.86.05 8.974.05 10.973 0l-.097-3.998c-1.937.047-8.983.047-10.771 0l-.105 3.998zm12.921-1.874c.053-.851.053-3.79 0-4.642l-3.993.25c.043.685.043 3.457 0 4.142l3.993.25zm-1.976-6.517c-2.303-.024-8.595-.048-10.934 0l.083 4c2.269-.048 8.505-.024 10.81 0l.041-4zm2.863 11.935c.08.737.082 1.825-.003 2.715l3.982.38c.108-1.126.11-2.486-.002-3.525l-3.977.43zm1.893.907c-.461.022-1.786.046-3.58.07l.054 4c1.759-.024 3.17-.048 3.717-.074l-.191-3.996zm-5.553 2.07c0 1.793.024 3.928-.021 4.847l3.995.194c.051-1.048.026-3.378.026-5.041h-4zm1.855 2.948c-.705.042-2.549.044-3.451-.002l-.199 3.995c1.018.051 3.013.053 3.892 0l-.242-3.993zm-1.554 1.882c-.044-.766-.045-2.987-.045-4.806h-4c0 1.733-.001 4.12.052 5.034l3.993-.228zm-2.045-6.806c-1.898 0-3.925 0-5.831-.024l-.05 4c1.935.024 3.988.024 5.881.024v-4zm-7.856 1.976c0 1.793.024 3.928-.021 4.847l3.995.194c.051-1.048.026-3.378.026-5.041h-4zm1.855 2.948c-.705.042-2.55.044-3.451-.002l-.199 3.995c1.018.051 3.013.053 3.892 0l-.242-3.993zm-1.554 1.882c-.043-.757-.045-3.012-.021-4.827l-3.999-.054c-.024 1.785-.026 4.186.027 5.11l3.993-.23zm-2.021-6.854c-1.691 0-2.984-.024-3.598-.047l-.148 3.998c.683.025 2.03.049 3.746.049v-4zm-1.684 1.731c-.079-.712-.081-1.889.002-2.695l-3.979-.408c-.109 1.066-.111 2.529.002 3.545l3.975-.442zm-1.949-.9c4.964-.095 18.329-.047 20.559 0l.085-3.998c-2.282-.05-15.701-.097-20.721 0l.077 3.999zm38.36 6.017l-1.999.069.061 1.772 1.767.152.171-1.993zm0-21.6l-.434-1.952-1.525.339-.041 1.561 2 .052zm3.6 0l1.999-.058-.049-1.684-1.668-.238-.282 1.98zm0 21.6l.256 1.984 1.685-.218.057-1.699-1.998-.067zm-19.08-1.608l-2 .058.055 1.858 1.857.082.088-1.998zm0-19.32l-.256-1.984-1.682.217-.061 1.695 1.999.072zm3.648 0l1.999-.04-.036-1.803-1.797-.15-.166 1.993zm0 16.056l-2-.02-.022 2.078 2.078-.059-.056-1.999zm9.456 0l1.989-.21-.184-1.743-1.752-.046-.053 1.999zm0 3.264l.075 1.999 1.732-.065.182-1.725-1.989-.209zm4.374 1.54c-.094-2.733-.07-18.722.001-21.48l-3.999-.104c-.072 2.81-.097 18.885.001 21.72l3.997-.137zm-1.565-19.58c-.01.003.103-.017.391-.032.254-.014.565-.02.895-.019.688.003 1.316.039 1.598.079l.565-3.96c-.558-.08-1.406-.116-2.146-.119-.683-.003-1.594.018-2.17.147l.867 3.904zm1.167-1.894c.095 3.253.095 18.666.001 21.475l3.997.134c.098-2.903.098-18.402.001-21.725l-3.999.116zm1.744 19.558c-.543.07-2.399.058-3.174-.009l-.341 3.986c.905.077 3.081.113 4.027-.01l-.512-3.967zm-16.825.318c-.143-4.884-.119-15.928-.001-19.19l-3.997-.144c-.122 3.362-.146 14.494-.001 19.45l3.999-.117zm-1.743-17.278c.541-.07 2.421-.058 3.225.01l.333-3.987c-.924-.077-3.124-.113-4.07.01l.512 3.967zm1.392-1.944c.071 3.567.048 11.317 0 15.995l3.999.041c.048-4.68.073-12.483 0-16.116l-3.999.08zm2.056 18.015c1.665-.047 7.581-.047 9.346 0l.107-3.998c-1.835-.05-7.823-.05-9.566 0l.113 3.998zm7.411-1.79c.081.773.081 2.073 0 2.846l3.978.418c.11-1.05.11-2.631 0-3.682l-3.978.418zm1.914 1.056c-1.878.07-10.823.094-12.942 0l-.175 3.997c2.249.099 11.304.074 13.267 0l-.15-3.997zM208.07 15.12l1.999-.058-.049-1.684-1.667-.238-.283 1.98zm0 21.6l.256 1.984 1.685-.218.058-1.699-1.999-.067zm-3.6 0l-1.999.069.061 1.772 1.767.152.171-1.993zm0-21.6l-.434-1.952-1.525.339-.041 1.561 2 .052zm-11.784 16.776h-2v2.05l2.048-.05-.048-2zm9.408 0l1.989-.21-.184-1.748-1.758-.041-.047 1.999zm0 3.216l.088 1.998 1.72-.076.181-1.713-1.989-.209zm-13.104 0l-1.998.102.093 1.812 1.812.084.093-1.998zm0-19.32l-.09-1.998-1.829.082-.079 1.83 1.998.086zm11.664 0l1.987-.227-.195-1.705-1.715-.066-.077 1.998zm0 3.24l.066 1.999 1.74-.058.183-1.732-1.989-.209zm-7.968 0l.065-1.999-2.065-.068v2.067h2zm.024 4.8h-2v2.022l2.021-.022-.021-2zm7.344 0l1.989-.21-.189-1.79h-1.8v2zm0 3.216l.054 2 1.798-.05.141-1.793-1.993-.157zm-7.344 0l.021-2-2.021-.022v2.022h2zm13.361-11.87c.094 3.253.094 18.666 0 21.475l3.998.134c.097-2.903.097-18.402 0-21.725l-3.998.116zm1.743 19.558c-.543.07-2.399.058-3.174-.009l-.341 3.986c.905.077 3.081.113 4.027-.01l-.512-3.967zm-1.345 1.915c-.095-2.732-.071-18.721 0-21.48l-3.999-.103c-.072 2.81-.097 18.885.001 21.72l3.998-.137zm-1.565-19.579c-.011.003.103-.017.39-.032.254-.014.566-.02.895-.019.688.003 1.317.039 1.598.079l.566-3.96c-.559-.08-1.407-.116-2.147-.119-.683-.003-1.594.018-2.17.147l.868 3.904zm-12.17 16.823c1.936-.047 7.327-.047 9.312 0l.095-3.998c-2.047-.05-7.503-.05-9.504 0l.097 3.998zm7.371-1.79a16.13 16.13 0 010 2.798l3.978.418a20.06 20.06 0 000-3.634l-3.978.418zm1.901 1.009c-2.13.094-10.398.117-12.924 0l-.185 3.996c2.658.123 11.047.098 13.285 0l-.176-3.996zm-11.019 1.896c-.14-2.734-.117-16.421.001-19.131l-3.996-.174c-.123 2.81-.148 16.627 0 19.51l3.995-.205zm-1.908-17.22c2.07-.093 9.669-.07 11.498 0l.154-3.996c-1.915-.074-9.628-.099-11.831 0l.179 3.996zm9.588-1.77c.078.683.08 2.024-.002 2.803l3.978.418c.11-1.045.112-2.68-.002-3.676l-3.974.454zm1.92 1.013c-1.395.047-6.415.047-7.836 0l-.131 3.998c1.507.05 6.616.05 8.1 0l-.133-3.998zm-9.901 1.999c0 .705.006 1.476.012 2.28.006.807.012 1.652.012 2.52h4c0-.884-.006-1.743-.012-2.55-.006-.81-.012-1.563-.012-2.25h-4zm2.045 6.8c2.219-.024 5.471 0 7.323 0v-4c-1.797 0-5.121-.024-7.366 0l.043 4zm5.334-1.79c.078.746.061 2.005-.005 2.849l3.987.314c.078-.98.109-2.505-.004-3.582l-3.978.418zm1.934 1.007c-1.706.047-5.025.023-7.268 0l-.043 3.999c2.222.024 5.623.049 7.42 0l-.109-4zm-9.289 1.999c0 .844-.006 1.677-.012 2.49-.006.811-.012 1.605-.012 2.358h4c0-.735.006-1.513.012-2.328.006-.813.012-1.66.012-2.52h-4z" mask="url(#a)"/><path fill="#2563EB" stroke="#6C484D" d="M24.148 22.022a5.626 5.626 0 000 7.956l10.874 10.874a5.626 5.626 0 007.956 0l10.874-10.874a5.626 5.626 0 000-7.956L42.978 11.148a5.626 5.626 0 00-7.956 0L24.148 22.022z"/><path fill="#3B82F6" stroke="#6C484D" d="M49.873 15.129l-.127.475.127-.475-14.854-3.98a5.626 5.626 0 00-6.89 3.978l-3.98 14.854a5.626 5.626 0 003.978 6.89l14.854 3.98a5.626 5.626 0 006.89-3.978l3.98-14.854a5.626 5.626 0 00-3.978-6.89z"/><path fill="#EFF6FF" d="M39.914 19.746h-1.828V32.05h1.828V19.746z"/><path fill="#EFF6FF" d="M32.849 24.983v1.829H45.15v-1.829h-12.3z"/></svg>