<svg xmlns:xlink="http://www.w3.org/1999/xlink" fill="none" viewBox="0 0 75 75"><rect width="71" height="71" x="2" y="2" fill="#A4E96B" stroke="#44A342" stroke-width="4" rx="14"/><path fill="url(#pattern0)" d="M16 15h43.932v30H16z"/><mask id="a" width="61" height="17" x="7" y="45" fill="#000" maskUnits="userSpaceOnUse"><path fill="#fff" d="M7 45h61v17H7z"/><path d="M18.273 49.225c-3.315 0-7.545.045-8.67 0-.06-.57-.06-1.44 0-2.01 1.2-.045 9.6-.075 10.965 0 .075 1.26.075 5.43 0 6.315-.465.06-1.755.06-2.295 0-.015-.27-.015-.72-.015-1.245-3.21 0-7.68.015-8.595-.015-.06-.57-.06-1.44 0-2.01.705-.03 5.445-.045 8.595-.03 0-.435 0-.795.015-1.005zm3.405 5.19c.06.555.06 1.32 0 1.95-.57.045-2.805.06-5.28.06 0 1.32.015 3.345-.015 3.975-.495.03-1.695.03-2.295 0-.03-.54-.045-2.61-.015-3.975-2.37-.015-4.545-.03-5.295-.06-.06-.54-.06-1.365 0-1.95 3.12-.06 11.49-.03 12.9 0zm13.799-.675c.06.525.06 1.29 0 1.875-1.29.09-11.13.06-12.9 0-.06-.51-.06-1.32 0-1.875 1.214-.03 3.21-.03 5.28-.03v-1.08c-2.01 0-3.855-.015-4.605-.045a12.216 12.216 0 010-1.815c.39-.015 1.065-.015 1.92-.03-.015-.525-.015-1.29-.015-1.95-.765-.015-1.38-.015-1.756-.03a12.216 12.216 0 010-1.815c2.49-.045 9.87-.06 11.265 0 .03.555.03 1.155 0 1.815-.39.015-1.02.015-1.77.03 0 .66 0 1.41-.014 1.95.855.015 1.53.015 1.934.03.045.585.045 1.125 0 1.815-.81.03-2.625.045-4.62.045v1.08c2.445 0 4.62.015 5.28.03zm-8.115-4.935c0 .645 0 1.395-.015 1.935 1.095-.015 2.264-.015 3.36-.015-.015-.525-.015-1.275-.015-1.92h-3.33zm-1.665 9.615c3.315-.015 8.13-.03 9.255 0 .06.54.06 1.395 0 1.95-1.2.075-10.185.075-11.55 0-.076-1.11-.046-3.105 0-3.99.464-.045 1.755-.03 2.294.015.03.75.03 1.365 0 2.025zM40.5 51.91c-.09-1.155-.075-3.84 0-4.965 1.455-.075 9.3-.045 10.8 0 .06.57.06 1.32 0 1.89-1.05.03-7.38.03-8.505 0v1.185c1.185 0 7.545-.015 8.655 0 .045.585.045 1.41 0 1.89-1.23.06-9.48.045-10.95 0zm-.975 2.7c-.06-.51-.06-1.32 0-1.875 3.12-.06 11.49-.03 12.9 0 .06.525.06 1.29 0 1.875-1.29.09-11.13.06-12.9 0zm6.45 5.94c-4.71 0-5.895-.885-5.895-2.595 0-1.875 1.41-2.58 5.895-2.58 4.71 0 5.895.885 5.895 2.58 0 1.89-1.41 2.595-5.895 2.595zm0-1.89c3.21 0 3.615-.18 3.615-.705 0-.48-.42-.69-3.615-.69-3.21 0-3.615.18-3.615.69 0 .495.42.705 3.615.705zm20.248-4.89a9.32 9.32 0 010 1.83c-1.29.09-11.13.06-12.9 0a9.322 9.322 0 010-1.83c1.215-.015 3.21-.03 5.28-.03v-.6c-1.845 0-3.555-.03-4.305-.06-.06-.825-.09-2.49 0-3.96h8.535v-.555h-8.505c-.06-.465-.06-1.38 0-1.77 4.365-.045 8.925-.06 10.77-.015.076.585.076 3.36 0 4.005h-8.535v.555h8.686c.06.54.03 1.245 0 1.74-.435.03-2.25.06-4.305.06v.615c2.444 0 4.62.015 5.28.015zm-12.12 2.52c1.2-.06 9.93-.075 11.295 0 .09 1.245.046 3.345 0 4.065-.54.03-1.754.03-2.294 0-.03-.75-.015-1.44 0-2.19-3.316 0-7.876.045-9 0a9.788 9.788 0 010-1.875z"/></mask><path fill="#252525" d="M18.273 49.225c-3.315 0-7.545.045-8.67 0-.06-.57-.06-1.44 0-2.01 1.2-.045 9.6-.075 10.965 0 .075 1.26.075 5.43 0 6.315-.465.06-1.755.06-2.295 0-.015-.27-.015-.72-.015-1.245-3.21 0-7.68.015-8.595-.015-.06-.57-.06-1.44 0-2.01.705-.03 5.445-.045 8.595-.03 0-.435 0-.795.015-1.005zm3.405 5.19c.06.555.06 1.32 0 1.95-.57.045-2.805.06-5.28.06 0 1.32.015 3.345-.015 3.975-.495.03-1.695.03-2.295 0-.03-.54-.045-2.61-.015-3.975-2.37-.015-4.545-.03-5.295-.06-.06-.54-.06-1.365 0-1.95 3.12-.06 11.49-.03 12.9 0zm13.799-.675c.06.525.06 1.29 0 1.875-1.29.09-11.13.06-12.9 0-.06-.51-.06-1.32 0-1.875 1.214-.03 3.21-.03 5.28-.03v-1.08c-2.01 0-3.855-.015-4.605-.045a12.216 12.216 0 010-1.815c.39-.015 1.065-.015 1.92-.03-.015-.525-.015-1.29-.015-1.95-.765-.015-1.38-.015-1.756-.03a12.216 12.216 0 010-1.815c2.49-.045 9.87-.06 11.265 0 .03.555.03 1.155 0 1.815-.39.015-1.02.015-1.77.03 0 .66 0 1.41-.014 1.95.855.015 1.53.015 1.934.03.045.585.045 1.125 0 1.815-.81.03-2.625.045-4.62.045v1.08c2.445 0 4.62.015 5.28.03zm-8.115-4.935c0 .645 0 1.395-.015 1.935 1.095-.015 2.264-.015 3.36-.015-.015-.525-.015-1.275-.015-1.92h-3.33zm-1.665 9.615c3.315-.015 8.13-.03 9.255 0 .06.54.06 1.395 0 1.95-1.2.075-10.185.075-11.55 0-.076-1.11-.046-3.105 0-3.99.464-.045 1.755-.03 2.294.015.03.75.03 1.365 0 2.025zM40.5 51.91c-.09-1.155-.075-3.84 0-4.965 1.455-.075 9.3-.045 10.8 0 .06.57.06 1.32 0 1.89-1.05.03-7.38.03-8.505 0v1.185c1.185 0 7.545-.015 8.655 0 .045.585.045 1.41 0 1.89-1.23.06-9.48.045-10.95 0zm-.975 2.7c-.06-.51-.06-1.32 0-1.875 3.12-.06 11.49-.03 12.9 0 .06.525.06 1.29 0 1.875-1.29.09-11.13.06-12.9 0zm6.45 5.94c-4.71 0-5.895-.885-5.895-2.595 0-1.875 1.41-2.58 5.895-2.58 4.71 0 5.895.885 5.895 2.58 0 1.89-1.41 2.595-5.895 2.595zm0-1.89c3.21 0 3.615-.18 3.615-.705 0-.48-.42-.69-3.615-.69-3.21 0-3.615.18-3.615.69 0 .495.42.705 3.615.705zm20.248-4.89a9.32 9.32 0 010 1.83c-1.29.09-11.13.06-12.9 0a9.322 9.322 0 010-1.83c1.215-.015 3.21-.03 5.28-.03v-.6c-1.845 0-3.555-.03-4.305-.06-.06-.825-.09-2.49 0-3.96h8.535v-.555h-8.505c-.06-.465-.06-1.38 0-1.77 4.365-.045 8.925-.06 10.77-.015.076.585.076 3.36 0 4.005h-8.535v.555h8.686c.06.54.03 1.245 0 1.74-.435.03-2.25.06-4.305.06v.615c2.444 0 4.62.015 5.28.015zm-12.12 2.52c1.2-.06 9.93-.075 11.295 0 .09 1.245.046 3.345 0 4.065-.54.03-1.754.03-2.294 0-.03-.75-.015-1.44 0-2.19-3.316 0-7.876.045-9 0a9.788 9.788 0 010-1.875z"/><path fill="#fff" d="M18.273 49.225l.997.071.077-1.071h-1.074v1zm-8.67 0l-.995.105.09.86.865.034.04-.999zm0-2.01l-.038-1-.866.033-.09.862.994.105zm10.965 0l.998-.06-.053-.89-.89-.048-.055.998zm0 6.315l.128.992.8-.103.068-.805-.996-.084zm-2.295 0l-.999.056.047.844.841.094.11-.994zm-.015-1.245h1v-1h-1v1zm-8.595-.015l-.995.105.091.866.87.029.034-1zm0-2.01l-.043-1-.862.038-.09.857.995.105zm8.595-.03l-.005 1 1.005.005V50.23h-1zm3.42 4.185l.994-.108-.095-.873-.878-.019-.021 1zm0 1.95l.078.997.837-.066.08-.836-.995-.095zm-5.28.06v-1h-1v1h1zm-.015 3.975l.06.998.896-.054.043-.896-1-.048zm-2.295 0l-.999.056.05.898.899.045.05-.999zm-.015-3.975l1 .022.022-1.016-1.016-.006-.006 1zm-5.295-.06l-.994.11.095.855.859.034.04-.999zm0-1.95l-.02-1-.885.017-.09.881.995.102zm9.495-6.19c-3.352 0-7.532.045-8.63 0l-.08 2c1.15.045 5.431 0 8.71 0v-2zm-7.676.895c-.053-.5-.053-1.3 0-1.8l-1.989-.21a12.22 12.22 0 000 2.22l1.99-.21zm-.957-.906c1.184-.044 9.55-.073 10.873 0l.11-1.997c-1.408-.078-9.842-.047-11.058-.001l.075 1.998zm9.93-.94c.073 1.23.07 5.35.001 6.172l1.993.168c.08-.948.079-5.169.002-6.458l-1.997.118zm.87 5.264a9.946 9.946 0 01-.992.037c-.44 0-.852-.015-1.065-.039l-.22 1.988c.326.036.83.051 1.285.051.45 0 .945-.014 1.248-.053l-.256-1.984zm-1.169.937c-.013-.235-.013-.65-.013-1.19h-2c0 .51 0 .995.016 1.3l1.997-.11zm-1.013-2.19c-3.232 0-7.67.015-8.563-.014l-.065 1.998c.937.031 5.44.016 8.628.016v-2zm-7.6.88c-.053-.5-.053-1.3 0-1.8l-1.99-.21a12.22 12.22 0 000 2.22l1.99-.21zm-.953-.906c.675-.029 5.386-.044 8.548-.029l.01-2c-3.139-.015-7.908 0-8.643.03l.085 2zm9.553-1.029c0-.455 0-.769.012-.934l-1.995-.142c-.018.255-.017.661-.017 1.076h2zm1.425 4.293a9.58 9.58 0 010 1.747l1.99.19c.066-.689.067-1.522-.001-2.153l-1.989.215zm.916.845c-.52.041-2.699.057-5.201.057v2c2.447 0 4.738-.014 5.358-.063l-.157-1.994zm-6.201 1.057c0 1.352.014 3.33-.014 3.927l1.997.096c.032-.662.017-2.735.017-4.023h-2zm.924 2.977a28.87 28.87 0 01-2.184 0l-.1 1.997c.63.031 1.867.032 2.405 0l-.12-1.997zm-1.236.942c-.028-.5-.043-2.54-.014-3.897l-2-.044c-.03 1.373-.015 3.473.017 4.053l1.997-.112zm-1.007-4.919c-2.383-.015-4.533-.03-5.261-.06l-.08 2c.772.03 2.971.045 5.328.06l.013-2zm-4.307.83a9.612 9.612 0 010-1.738l-1.99-.204c-.066.65-.067 1.546.002 2.162l1.988-.22zm-.975-.84c3.106-.06 11.462-.03 12.86 0l.042-2c-1.423-.03-9.807-.06-12.94 0l.038 2zm26.68-1.675l.993-.114-.099-.866-.872-.02-.023 1zm0 1.875l.07.998.838-.059.086-.837-.994-.102zm-12.9 0l-.994.117.1.853.86.03.034-1zm0-1.875l-.025-1-.876.022-.094.87.994.108zm5.28-.03v1h1v-1h-1zm0-1.08h1v-1h-1v1zm-4.605-.045l-.998.073.065.89.893.036.04-.999zm0-1.815l-.039-1-.89.035-.069.888.997.077zm1.92-.03l.017 1 1.01-.018-.028-1.01-1 .028zm-.015-1.95h1v-.98l-.98-.02-.02 1zm-1.756-.03l-.997.077.069.887.889.035.04-.999zm0-1.815l-.018-1-.905.017-.073.902.996.081zm11.265 0l.999-.054-.049-.906-.907-.04-.043 1zm0 1.815l.039 1 .919-.036.041-.919-.998-.045zm-1.77.03l-.02-1-.98.02v.98h1zm-.014 1.95l-1-.028-.028 1.01 1.01.018.018-1zm1.934.03l.997-.077-.068-.89-.892-.032-.037.999zm0 1.815l.037 1 .903-.034.058-.9-.998-.066zm-4.62.045v-1h-1v1h1zm0 1.08h-1v1h1v-1zm-2.835-4.905v-1h-1v1h1zm-.015 1.935l-1-.028-.028 1.042 1.042-.014-.014-1zm3.36-.015v1h1.03l-.03-1.029-1 .029zm-.014-1.92h1v-1h-1v1zm-4.995 9.615l-1-.045-.047 1.05 1.051-.005-.005-1zm9.255 0l.993-.11-.096-.866-.87-.024-.027 1zm0 1.95l.062.998.841-.053.09-.837-.993-.108zm-11.55 0l-.998.067.06.883.883.048.054-.998zm0-3.99l-.097-.995-.858.083-.044.861.998.051zm2.294.015l1-.04-.036-.883-.88-.074-.084.997zm8.787-2.542a8.807 8.807 0 01-.001 1.66l1.99.204c.066-.649.067-1.486-.002-2.09l-1.987.226zm.924.764c-1.235.087-11.03.058-12.797-.001l-.067 1.998c1.774.06 11.658.092 13.003-.001l-.14-1.996zm-11.837.881a8.818 8.818 0 010-1.65l-1.988-.215c-.067.623-.068 1.508.001 2.099l1.987-.234zm-.969-.758c1.2-.03 3.18-.03 5.256-.03v-2c-2.064 0-4.075 0-5.305.03l.05 2zm6.256-1.03v-1.08h-2v1.08h2zm-1-2.08c-2.015 0-3.84-.015-4.566-.044l-.08 1.998c.774.031 2.64.046 4.646.046v-2zm-3.608.882a11.218 11.218 0 010-1.665l-1.995-.154a13.227 13.227 0 000 1.965l1.995-.146zm-.96-.743c.38-.014 1.013-.014 1.9-.03l-.035-1.999c-.823.015-1.54.015-1.941.03l.077 2zm2.882-1.058a78.074 78.074 0 01-.014-1.921h-2c0 .654 0 1.436.015 1.979l2-.058zm-.995-2.92c-.8-.016-1.37-.016-1.735-.03l-.08 1.998c.386.016 1.046.017 1.776.03l.04-1.999zm-.777.892a11.222 11.222 0 010-1.657l-1.994-.162c-.05.61-.05 1.338 0 1.973l1.993-.154zm-.98-.738c2.492-.045 9.844-.06 11.204 0l.086-2c-1.429-.06-8.837-.045-11.326 0l.037 2zm10.249-.946c.028.516.028 1.083 0 1.716l1.997.09c.032-.687.032-1.32 0-1.914l-1.997.108zm.96.762c-.382.014-.965.014-1.752.03l.04 1.999c.714-.014 1.39-.015 1.789-.03l-.077-2zm-2.732 1.029c0 .665 0 1.4-.014 1.922l2 .056c.015-.557.015-1.323.015-1.978h-2zm.968 2.95c.887.015 1.52.015 1.916.03l.073-2c-.415-.015-1.13-.015-1.954-.03l-.035 2zm.955-.893c.041.53.042 1.022 0 1.673l1.995.13c.048-.73.049-1.317 0-1.957l-1.995.154zm.96.739c-.788.029-2.585.044-4.583.044v2c1.992 0 3.826-.015 4.657-.046l-.074-1.998zm-5.583 1.044v1.08h2v-1.08h-2zm1 2.08c2.447 0 4.61.015 5.258.03l.045-2c-.673-.015-2.859-.03-5.303-.03v2zm-3.835-5.905c0 .65 0 1.384-.014 1.907l2 .056c.015-.557.014-1.323.014-1.963h-2zm1 2.935c1.086-.015 2.25-.015 3.345-.015v-2c-1.093 0-2.27 0-3.373.015l.027 2zm4.345-1.044a76.182 76.182 0 01-.014-1.891h-2c0 .64 0 1.406.015 1.949l2-.058zm-1.014-2.891h-3.33v2h3.33v-2zM25.7 59.42c3.327-.015 8.12-.03 9.224 0l.053-2c-1.145-.03-5.983-.015-9.286 0l.009 2zm8.257-.89a9.635 9.635 0 010 1.733l1.988.215a11.63 11.63 0 000-2.168l-1.988.22zm.931.842c-1.156.072-10.102.073-11.433 0l-.11 1.996c1.4.077 10.424.078 11.668 0l-.125-1.996zm-10.49.93c-.071-1.054-.043-3.006.001-3.871l-1.997-.102c-.046.905-.078 2.943 0 4.108l1.996-.134zm-.901-2.927c.387-.037 1.613-.025 2.115.017l.166-1.994c-.578-.048-1.93-.066-2.474-.013l.193 1.99zm1.2-.94c.028.725.028 1.311 0 1.94l1.997.09a23.74 23.74 0 000-2.11l-1.998.08zM40.5 51.91l-.997.078.07.894.896.028.03-1zm0-4.965l-.052-.999-.887.046-.06.887.999.066zm10.8 0l.994-.105-.091-.868-.873-.027-.03 1zm0 1.89l.028 1 .875-.025.091-.87-.994-.105zm-8.505 0l.026-1-1.026-.027v1.027h1zm0 1.185h-1v1h1v-1zm8.655 0l.997-.077-.07-.91-.914-.013-.013 1zm0 1.89l.048.999.866-.042.081-.864-.995-.093zm-11.925 2.7l-.993.117.1.853.859.03.034-1zm0-1.875l-.02-1-.88.017-.094.875.994.108zm12.9 0l.993-.114-.099-.867-.873-.019-.021 1zm0 1.875l.07.998.839-.059.085-.837-.994-.102zm-10.928-2.778c-.086-1.097-.072-3.733 0-4.82l-1.995-.133c-.078 1.162-.094 3.896 0 5.109l1.995-.156zm-.946-3.888c1.414-.073 9.227-.044 10.719 0l.06-1.999c-1.508-.045-9.386-.076-10.882.001l.103 1.998zm9.754-.894c.053.5.053 1.18 0 1.68l1.99.21c.066-.64.066-1.46 0-2.1l-1.99.21zm.966.785c-1.03.03-7.342.03-8.45 0l-.053 2c1.142.03 7.49.03 8.56 0l-.057-2zm-9.476 1v1.185h2v-1.185h-2zm1 2.185c1.197 0 7.54-.015 8.641 0l.027-2c-1.119-.015-7.495 0-8.668 0v2zm7.658-.923c.041.54.04 1.307.001 1.72l1.991.186c.052-.547.05-1.43.002-2.06l-1.994.154zm.948.814c-1.192.058-9.412.044-10.87 0l-.062 1.998c1.482.046 9.761.062 11.03 0L51.4 50.91zm-10.883 3.582a8.817 8.817 0 010-1.65l-1.987-.216c-.068.624-.069 1.51 0 2.1l1.987-.234zm-.974-.758c3.106-.06 11.462-.03 12.86 0l.042-2c-1.423-.03-9.806-.06-12.94 0l.038 2zm11.887-.886a8.834 8.834 0 01-.001 1.659l1.99.204c.066-.649.067-1.486-.002-2.09l-1.987.227zm.924.763c-1.235.087-11.03.058-12.796-.001l-.068 1.998c1.774.06 11.658.092 13.003-.001l-.139-1.996zm-6.38 5.938c-2.345 0-3.612-.229-4.273-.554-.3-.147-.428-.292-.495-.41-.072-.127-.127-.316-.127-.631h-2c0 .54.093 1.102.39 1.623.302.529.764.925 1.35 1.213 1.11.546 2.789.759 5.155.759v-2zm-4.895-1.595c0-.346.065-.544.142-.671.075-.122.216-.267.533-.41.699-.314 1.976-.499 4.22-.499v-2c-2.242 0-3.912.167-5.04.675-.595.268-1.087.65-1.417 1.188-.327.532-.438 1.125-.438 1.717h2zm4.895-1.58c2.344 0 3.612.229 4.274.553.3.146.428.291.495.407.071.124.126.31.126.62h2c0-.537-.094-1.098-.392-1.616-.303-.527-.765-.922-1.35-1.208-1.108-.542-2.787-.756-5.153-.756v2zm4.895 1.58c0 .35-.066.553-.145.682-.075.124-.216.27-.533.413-.697.315-1.973.5-4.217.5v2c2.24 0 3.912-.167 5.04-.677.597-.27 1.089-.654 1.418-1.195.326-.534.437-1.129.437-1.723h-2zm-4.895 1.705c1.58 0 2.598-.04 3.226-.179.312-.069.698-.194.992-.498.343-.352.397-.764.397-1.028h-2c0 .006-.002-.044.022-.119a.628.628 0 01.147-.246c.118-.122.203-.104.012-.062-.377.083-1.167.132-2.796.132v2zm4.615-1.705c0-.283-.07-.687-.417-1.026-.29-.283-.665-.406-.975-.475-.63-.14-1.643-.189-3.223-.189v2c1.614 0 2.408.056 2.788.141.194.043.124.063.013-.046a.61.61 0 01-.186-.405h2zm-4.615-1.69c-1.582 0-2.597.04-3.223.176-.31.067-.693.19-.988.486a1.419 1.419 0 00-.404 1.028h2c0 .012-.007.21-.178.382-.119.12-.2.1-.007.06.379-.083 1.171-.132 2.8-.132v-2zm-4.615 1.69c0 .279.065.683.408 1.026.29.29.667.416.98.487.631.144 1.648.192 3.227.192v-2c-1.616 0-2.407-.057-2.785-.142-.191-.044-.12-.063-.008.049a.596.596 0 01.178.388h-2zm24.864-4.185l.993-.114-.101-.886h-.892v1zm0 1.83l.07.998.838-.059.086-.837-.995-.102zm-12.9 0l-.994.117.1.853.86.03.034-1zm0-1.83l-.013-1-.886.011-.096.882.995.107zm5.28-.03v1h1v-1h-1zm0-.6h1v-1h-1v1zm-4.306-.06l-.997.073.065.89.893.036.04-.999zm0-3.96v-1h-.94l-.058.939.998.061zm8.535 0v1h1v-1h-1zm0-.555h1v-1h-1v1zm-8.505 0l-.991.128.112.872h.88v-1zm0-1.77l-.01-1-.849.009-.129.839.988.152zm10.77-.015l.992-.127-.109-.852-.858-.02-.025.999zm0 4.005v1h.891l.103-.884-.993-.116zm-8.535 0v-1h-1v1h1zm0 .555h-1v1h1v-1zm8.686 0l.993-.11-.098-.89h-.895v1zm0 1.74l.068.998.877-.06.053-.877-.998-.061zm-4.305.06v-1h-1v1h1zm0 .615h-1v1h1v-1zm-6.84 2.535l-.05-.999-.855.043-.09.851.994.105zm11.294 0l.998-.072-.064-.878-.879-.049-.055.999zm0 4.065l.056.998.887-.049.056-.887-.999-.062zm-2.294 0l-1 .04.037.908.907.05.055-.998zm0-2.19l1 .02.02-1.02h-1.02v1zm-9 0l-.995.105.09.86.865.034.04-.999zm11.126-4.282a8.336 8.336 0 01-.001 1.615l1.99.204c.066-.649.067-1.441-.002-2.045l-1.987.227zm.924.72c-1.235.086-11.03.057-12.797-.002l-.067 1.998c1.774.06 11.658.092 13.003-.001l-.14-1.996zm-11.837.88a8.352 8.352 0 010-1.605l-1.988-.215c-.067.623-.068 1.463.001 2.054l1.987-.234zm-.981-.713c1.21-.015 3.202-.03 5.267-.03v-2c-2.074 0-4.073.015-5.292.03l.025 2zm6.267-1.03v-.6h-2v.6h2zm-1-1.6c-1.839 0-3.534-.03-4.264-.06l-.08 2c.769.03 2.494.06 4.344.06v-2zm-3.307.867c-.057-.78-.087-2.4 0-3.826L53.3 49.06c-.092 1.514-.062 3.224.001 4.094l1.995-.145zm-.998-2.887h8.535v-2h-8.535v2zm9.535-1v-.555h-2v.555h2zm-1-1.555h-8.505v2h8.505v-2zm-7.513.872c-.05-.389-.046-1.208-.003-1.49l-1.977-.304c-.077.498-.073 1.509-.003 2.05l1.983-.256zm-.981-.642c4.368-.045 8.91-.06 10.735-.015l.049-2c-1.866-.045-6.443-.03-10.805.015l.02 2zm9.768-.888c.027.216.048.984.048 1.853 0 .863-.02 1.656-.05 1.91l1.987.23c.045-.391.063-1.308.063-2.14 0-.826-.017-1.738-.065-2.107l-1.983.254zm.992 2.878h-8.536v2h8.535v-2zm-9.536 1v.555h2v-.555h-2zm1 1.555h8.686v-2h-8.685v2zm7.692-.89c.049.445.026 1.07-.005 1.57l1.997.12c.03-.49.066-1.275-.005-1.91l-1.987.22zm.925.632c-.394.027-2.17.058-4.237.058v2c2.045 0 3.898-.03 4.374-.062l-.137-1.996zm-5.237 1.058v.615h2v-.615h-2zm1 1.615c1.221 0 2.375.004 3.306.008.929.003 1.642.007 1.975.007v-2c-.328 0-1.032-.004-1.967-.008-.933-.003-2.089-.007-3.314-.007v2zm-6.79 2.534c1.17-.059 9.865-.073 11.19 0l.11-1.998c-1.404-.077-10.169-.061-11.4 0l.1 1.998zm10.248-.927c.086 1.186.043 3.238 0 3.93l1.996.125c.046-.747.093-2.895-.001-4.2l-1.995.145zm.942 2.994c-.503.029-1.68.029-2.184 0l-.11 1.997a30.16 30.16 0 002.405 0l-.11-1.997zm-1.24.959c-.029-.715-.015-1.375 0-2.13l-2-.04c-.014.745-.03 1.465.001 2.25l1.999-.08zm-1-3.15c-3.35 0-7.86.045-8.96 0l-.08 2c1.152.045 5.761 0 9.04 0v-2zm-8.005.895a8.81 8.81 0 010-1.665l-1.989-.21a10.84 10.84 0 000 2.085l1.989-.21z" mask="url(#a)"/><defs><pattern id="pattern0" width="1" height="1" patternContentUnits="objectBoundingBox"><use transform="scale(.00195 .00285)" xlink:href="#image0_11_2"/></pattern></defs></svg>