<svg xmlns:xlink="http://www.w3.org/1999/xlink" fill="none" viewBox="0 0 250 52"><rect width="246" height="48" x="2" y="2" fill="#A4E96B" stroke="#44A342" stroke-width="4" rx="14"/><path fill="url(#pattern0)" d="M17 10h43.932v30H17z"/><mask id="a" width="97" height="27" x="70" y="13" fill="#000" maskUnits="userSpaceOnUse"><path fill="#fff" d="M70 13h97v27H70z"/><path d="M87.912 18.96c-5.304 0-12.072.072-13.872 0a17.992 17.992 0 010-3.216c1.92-.072 15.36-.12 17.544 0 .12 2.016.12 8.688 0 10.104-.744.096-2.808.096-3.672 0-.024-.432-.024-1.152-.024-1.992-5.136 0-12.288.024-13.752-.024a17.992 17.992 0 010-3.216c1.128-.048 8.712-.072 13.752-.048 0-.696 0-1.272.024-1.608zm5.448 8.304c.096.888.096 2.112 0 3.12-.912.072-4.488.096-8.448.096 0 2.112.024 5.352-.024 6.36-.792.048-2.712.048-3.672 0-.048-.864-.072-4.176-.024-6.36-3.792-.024-7.272-.048-8.472-.096-.096-.864-.096-2.184 0-3.12 4.992-.096 18.384-.048 20.64 0zm22.078-1.08c.096.84.096 2.064 0 3-2.064.144-17.808.096-20.64 0-.096-.816-.096-2.112 0-3 1.944-.048 5.136-.048 8.448-.048v-1.728c-3.216 0-6.168-.024-7.368-.072a19.545 19.545 0 010-2.904c.624-.024 1.704-.024 3.072-.048-.024-.84-.024-2.064-.024-3.12-1.224-.024-2.208-.024-2.808-.048a19.545 19.545 0 010-2.904c3.984-.072 15.792-.096 18.024 0 .048.888.048 1.848 0 2.904-.624.024-1.632.024-2.832.048 0 1.056 0 2.256-.024 3.12 1.368.024 2.448.024 3.096.048.072.936.072 1.8 0 2.904-1.296.048-4.2.072-7.392.072v1.728c3.912 0 7.392.024 8.448.048zm-12.984-7.896c0 1.032 0 2.232-.024 3.096 1.752-.024 3.624-.024 5.376-.024-.024-.84-.024-2.04-.024-3.072h-5.328zM99.79 33.672c5.304-.024 13.008-.048 14.808 0 .096.864.096 2.232 0 3.12-1.92.12-16.296.12-18.48 0-.12-1.776-.072-4.968 0-6.384.744-.072 2.808-.048 3.672.024.048 1.2.048 2.184 0 3.24zm23.685-10.416c-.144-1.848-.12-6.144 0-7.944 2.328-.12 14.88-.072 17.28 0 .096.912.096 2.112 0 3.024-1.68.048-11.808.048-13.608 0v1.896c1.896 0 12.072-.024 13.848 0 .072.936.072 2.256 0 3.024-1.968.096-15.168.072-17.52 0zm-1.56 4.32c-.096-.816-.096-2.112 0-3 4.992-.096 18.384-.048 20.64 0 .096.84.096 2.064 0 3-2.064.144-17.808.096-20.64 0zm10.32 9.504c-7.536 0-9.432-1.416-9.432-4.152 0-3 2.256-4.128 9.432-4.128 7.536 0 9.432 1.416 9.432 4.128 0 3.024-2.256 4.152-9.432 4.152zm0-3.024c5.136 0 5.784-.288 5.784-1.128 0-.768-.672-1.104-5.784-1.104-5.136 0-5.784.288-5.784 1.104 0 .792.672 1.128 5.784 1.128zm32.398-7.824c.096.84.096 1.992 0 2.928-2.064.144-17.808.096-20.64 0-.096-.816-.096-2.04 0-2.928 1.944-.024 5.136-.048 8.448-.048v-.96c-2.952 0-5.688-.048-6.888-.096-.096-1.32-.144-3.984 0-6.336h13.656v-.888h-13.608c-.096-.744-.096-2.208 0-2.832 6.984-.072 14.28-.096 17.232-.024.12.936.12 5.376 0 6.408h-13.656v.888h13.896c.096.864.048 1.992 0 2.784-.696.048-3.6.096-6.888.096v.984c3.912 0 7.392.024 8.448.024zm-19.392 4.032c1.92-.096 15.888-.12 18.072 0 .144 1.992.072 5.352 0 6.504-.864.048-2.808.048-3.672 0-.048-1.2-.024-2.304 0-3.504-5.304 0-12.6.072-14.4 0a15.661 15.661 0 010-3z"/></mask><path fill="#252525" d="M87.912 18.96c-5.304 0-12.072.072-13.872 0a17.992 17.992 0 010-3.216c1.92-.072 15.36-.12 17.544 0 .12 2.016.12 8.688 0 10.104-.744.096-2.808.096-3.672 0-.024-.432-.024-1.152-.024-1.992-5.136 0-12.288.024-13.752-.024a17.992 17.992 0 010-3.216c1.128-.048 8.712-.072 13.752-.048 0-.696 0-1.272.024-1.608zm5.448 8.304c.096.888.096 2.112 0 3.12-.912.072-4.488.096-8.448.096 0 2.112.024 5.352-.024 6.36-.792.048-2.712.048-3.672 0-.048-.864-.072-4.176-.024-6.36-3.792-.024-7.272-.048-8.472-.096-.096-.864-.096-2.184 0-3.12 4.992-.096 18.384-.048 20.64 0zm22.078-1.08c.096.84.096 2.064 0 3-2.064.144-17.808.096-20.64 0-.096-.816-.096-2.112 0-3 1.944-.048 5.136-.048 8.448-.048v-1.728c-3.216 0-6.168-.024-7.368-.072a19.545 19.545 0 010-2.904c.624-.024 1.704-.024 3.072-.048-.024-.84-.024-2.064-.024-3.12-1.224-.024-2.208-.024-2.808-.048a19.545 19.545 0 010-2.904c3.984-.072 15.792-.096 18.024 0 .048.888.048 1.848 0 2.904-.624.024-1.632.024-2.832.048 0 1.056 0 2.256-.024 3.12 1.368.024 2.448.024 3.096.048.072.936.072 1.8 0 2.904-1.296.048-4.2.072-7.392.072v1.728c3.912 0 7.392.024 8.448.048zm-12.984-7.896c0 1.032 0 2.232-.024 3.096 1.752-.024 3.624-.024 5.376-.024-.024-.84-.024-2.04-.024-3.072h-5.328zM99.79 33.672c5.304-.024 13.008-.048 14.808 0 .096.864.096 2.232 0 3.12-1.92.12-16.296.12-18.48 0-.12-1.776-.072-4.968 0-6.384.744-.072 2.808-.048 3.672.024.048 1.2.048 2.184 0 3.24zm23.685-10.416c-.144-1.848-.12-6.144 0-7.944 2.328-.12 14.88-.072 17.28 0 .096.912.096 2.112 0 3.024-1.68.048-11.808.048-13.608 0v1.896c1.896 0 12.072-.024 13.848 0 .072.936.072 2.256 0 3.024-1.968.096-15.168.072-17.52 0zm-1.56 4.32c-.096-.816-.096-2.112 0-3 4.992-.096 18.384-.048 20.64 0 .096.84.096 2.064 0 3-2.064.144-17.808.096-20.64 0zm10.32 9.504c-7.536 0-9.432-1.416-9.432-4.152 0-3 2.256-4.128 9.432-4.128 7.536 0 9.432 1.416 9.432 4.128 0 3.024-2.256 4.152-9.432 4.152zm0-3.024c5.136 0 5.784-.288 5.784-1.128 0-.768-.672-1.104-5.784-1.104-5.136 0-5.784.288-5.784 1.104 0 .792.672 1.128 5.784 1.128zm32.398-7.824c.096.84.096 1.992 0 2.928-2.064.144-17.808.096-20.64 0-.096-.816-.096-2.04 0-2.928 1.944-.024 5.136-.048 8.448-.048v-.96c-2.952 0-5.688-.048-6.888-.096-.096-1.32-.144-3.984 0-6.336h13.656v-.888h-13.608c-.096-.744-.096-2.208 0-2.832 6.984-.072 14.28-.096 17.232-.024.12.936.12 5.376 0 6.408h-13.656v.888h13.896c.096.864.048 1.992 0 2.784-.696.048-3.6.096-6.888.096v.984c3.912 0 7.392.024 8.448.024zm-19.392 4.032c1.92-.096 15.888-.12 18.072 0 .144 1.992.072 5.352 0 6.504-.864.048-2.808.048-3.672 0-.048-1.2-.024-2.304 0-3.504-5.304 0-12.6.072-14.4 0a15.661 15.661 0 010-3z"/><path fill="#fff" d="M87.912 18.96l1.995.142.153-2.142h-2.148v2zm-13.872 0l-1.989.21.181 1.72 1.728.068.08-1.998zm0-3.216l-.075-1.999-1.733.065-.181 1.725 1.989.209zm17.544 0l1.996-.119-.105-1.78-1.781-.098-.11 1.997zm0 10.104l.256 1.984 1.6-.207.137-1.608-1.993-.169zm-3.672 0l-1.997.11.094 1.69 1.682.188.221-1.988zm-.024-1.992h2v-2h-2v2zm-13.752-.024l-1.989.21.182 1.732 1.742.057.065-1.999zm0-3.216l-.085-1.998-1.723.073-.181 1.716 1.989.209zm13.752-.048l-.01 2 2.01.01v-2.01h-2zm5.472 6.696l1.988-.215-.189-1.747-1.757-.037-.042 1.999zm0 3.12l.157 1.994 1.675-.132.159-1.672-1.991-.19zm-8.448.096v-2h-2v2h2zm-.024 6.36l.121 1.996 1.791-.108.086-1.793-1.998-.095zm-3.672 0l-1.997.11.1 1.798 1.797.09.1-1.998zm-.024-6.36l2 .044.044-2.031-2.031-.013-.013 2zm-8.472-.096l-1.988.22.19 1.71 1.718.068.08-1.998zm0-3.12l-.038-2-1.77.034-.182 1.762 1.99.204zM87.912 16.96c-5.377 0-12.044.072-13.792.002l-.16 3.996c1.853.075 8.72.002 13.952.002v-4zm-11.883 1.79a16.07 16.07 0 010-2.797l-3.978-.418a19.933 19.933 0 000 3.634l3.978-.418zm-1.914-1.007c1.889-.071 15.261-.117 17.36-.002l.219-3.994c-2.27-.125-15.778-.075-17.729-.002l.15 3.998zm15.473-1.88c.116 1.956.112 8.526.003 9.816l3.986.338c.13-1.542.127-8.316.004-10.392l-3.993.238zm1.74 8.001c-.233.03-.821.056-1.535.056-.701 0-1.343-.025-1.66-.06l-.442 3.976c.547.06 1.37.084 2.102.084.72 0 1.536-.023 2.047-.088l-.512-3.968zm-1.42 1.873c-.02-.362-.02-1.01-.02-1.881h-4c0 .81 0 1.6.027 2.103l3.994-.222zm-2.02-3.881c-5.18 0-12.266.024-13.687-.023l-.13 3.998c1.507.05 8.725.025 13.817.025v-4zm-11.763 1.767a16.07 16.07 0 010-2.798l-3.978-.418a19.933 19.933 0 000 3.634l3.978-.418zm-1.904-1.009c1.069-.045 8.594-.07 13.657-.046l.02-4c-5.017-.024-12.66 0-13.847.05l.17 3.996zm15.667-2.046c0-.737.001-1.22.019-1.466l-3.99-.285c-.03.427-.029 1.096-.029 1.751h4zm1.484 6.911c.08.737.082 1.825-.003 2.715l3.982.38c.107-1.126.11-2.486-.003-3.525l-3.976.43zm1.83.911c-.81.064-4.275.09-8.29.09v4c3.905 0 7.592-.022 8.605-.102l-.314-3.988zm-10.29 2.09c0 2.176.023 5.32-.022 6.265l3.996.19c.05-1.071.026-4.407.026-6.455h-4zm1.855 4.364c-.705.042-2.55.044-3.451-.002l-.2 3.995c1.019.051 3.014.053 3.893 0l-.242-3.993zm-1.554 1.885c-.044-.786-.07-4.036-.021-6.205l-4-.088c-.048 2.2-.025 5.573.027 6.515l3.994-.222zm-2.008-8.249c-3.819-.024-7.249-.048-8.405-.094l-.16 3.996c1.244.05 4.773.074 8.54.098l.025-4zm-6.497 1.683c-.08-.712-.081-1.889.002-2.695l-3.98-.408c-.109 1.066-.11 2.529.002 3.545l3.976-.442zm-1.95-.9c4.964-.095 18.33-.047 20.56 0l.085-3.998c-2.282-.05-15.701-.097-20.722 0l.078 3.999zm42.68-3.079l1.987-.227-.198-1.733-1.743-.04-.046 2zm0 3l.139 1.995 1.679-.117.172-1.674-1.99-.204zm-20.64 0l-1.986.234.2 1.707 1.718.058.068-1.999zm0-3l-.05-2-1.75.044-.188 1.741 1.988.215zm8.448-.048v2h2v-2h-2zm0-1.728h2v-2h-2v2zm-7.368-.072l-1.995.146.13 1.781 1.785.071.08-1.998zm0-2.904l-.077-1.998-1.78.068-.137 1.777 1.994.153zm3.072-.048l.035 2 2.022-.036-.058-2.021-1.999.057zm-.024-3.12h2v-1.961l-1.96-.039-.04 2zm-2.808-.048l-1.994.153.136 1.774 1.778.071.08-1.998zm0-2.904l-.036-2-1.811.033-.146 1.805 1.993.162zm18.024 0l1.997-.108-.098-1.812-1.813-.078-.086 1.998zm0 2.904l.077 1.998 1.838-.07.083-1.837-1.998-.091zm-2.832.048l-.04-2-1.96.04v1.96h2zm-.024 3.12l-1.999-.056-.056 2.02 2.02.036.035-2zm3.096.048l1.994-.153-.137-1.78-1.783-.066-.074 1.999zm0 2.904l.074 1.999 1.804-.067.118-1.802-1.996-.13zm-7.392.072v-2h-2v2h2zm0 1.728h-2v2h2v-2zm-4.536-7.848v-2h-2v2h2zm-.024 3.096l-1.999-.056-.058 2.084 2.085-.028-.028-2zm5.376-.024v2h2.058l-.059-2.057-1.999.057zm-.024-3.072h2v-2h-2v2zM99.79 33.672l-1.998-.09-.095 2.1 2.102-.01-.009-2zm14.808 0l1.988-.22-.193-1.733-1.742-.046-.053 1.999zm0 3.12l.125 1.996 1.682-.105.182-1.676-1.989-.215zm-18.48 0l-1.995.135.119 1.765 1.766.097.11-1.997zm0-6.384l-.192-1.99-1.718.166-.087 1.722 1.997.102zm3.672.024l1.999-.08-.071-1.766-1.762-.147-.166 1.993zm13.661-4.02c.078.68.08 1.76-.002 2.568l3.979.408c.109-1.064.111-2.433-.003-3.431l-3.974.454zm1.848.777c-1.954.136-17.61.092-20.433-.004l-.136 3.998c2.84.096 18.673.148 20.847-.004l-.278-3.99zM96.784 28.95c-.077-.654-.079-1.8.002-2.551l-3.976-.43c-.111 1.024-.113 2.471.002 3.449l3.972-.468zm-1.937-.767c1.913-.047 5.074-.047 8.399-.047v-4c-3.3 0-6.522 0-8.497.049l.099 3.998zm10.399-2.047v-1.728h-4v1.728h4zm-2-3.728c-3.225 0-6.135-.024-7.288-.07l-.16 3.996c1.248.05 4.242.074 7.448.074v-4zm-5.373 1.782a17.552 17.552 0 010-2.605l-3.989-.306a21.54 21.54 0 000 3.203l3.989-.292zm-1.918-.76c.6-.023 1.598-.021 3.03-.046l-.07-4c-1.304.023-2.467.025-3.114.05l.154 3.996zm4.994-2.103c-.023-.805-.023-1.996-.023-3.063h-4c0 1.044 0 2.302.025 3.177l3.998-.114zm-1.984-5.063c-1.294-.025-2.188-.023-2.767-.046l-.16 3.996c.621.025 1.695.027 2.849.05l.078-4zm-.853 1.799a17.558 17.558 0 010-2.59l-3.987-.323c-.081.999-.08 2.184-.001 3.22l3.988-.307zm-1.958-.751c3.987-.072 15.739-.095 17.902-.002l.172-3.996c-2.3-.1-14.164-.074-18.146-.002l.072 4zm15.991-1.892c.044.81.045 1.704-.001 2.705l3.996.182c.051-1.11.051-2.138-.001-3.103l-3.994.216zm1.92.798c-.607.023-1.522.02-2.795.046l.08 4c1.127-.023 2.229-.025 2.869-.05l-.154-3.996zm-4.755 2.046c0 1.066 0 2.235-.023 3.064l3.998.111c.025-.898.025-2.13.025-3.175h-4zm1.941 5.12c1.431.025 2.43.023 3.057.047l.148-3.998c-.669-.024-1.83-.026-3.135-.049l-.07 4zm1.137-1.799a17.46 17.46 0 01-.002 2.62l3.992.261a21.432 21.432 0 00-.002-3.187l-3.988.306zm1.92.752c-1.253.047-4.12.071-7.318.071v4c3.186 0 6.127-.024 7.466-.073l-.148-3.998zm-9.318 2.071v1.728h4v-1.728h-4zm2 3.728c3.915 0 7.373.024 8.403.047l.091-3.998c-1.082-.025-4.584-.049-8.494-.049v4zm-6.536-9.848c0 1.042 0 2.21-.023 3.04l3.998.111c.025-.898.025-2.13.025-3.151h-4zm2.004 5.096c1.735-.024 3.593-.024 5.348-.024v-4c-1.749 0-3.635 0-5.403.024l.055 4zm7.347-2.081c-.023-.805-.023-1.972-.023-3.015h-4c0 1.02 0 2.254.025 3.13l3.998-.115zm-2.023-5.015h-5.328v4h5.328v-4zm-7.983 19.384c5.328-.024 12.986-.048 14.746 0l.106-4c-1.84-.048-9.59-.024-14.87 0l.018 4zm12.811-1.78c.08.716.08 1.938 0 2.685l3.977.43a18.942 18.942 0 00-.001-3.556l-3.976.442zm1.863.904c-1.832.114-16.129.115-18.245-.001l-.22 3.994c2.252.124 16.707.125 18.715 0l-.25-3.993zm-16.36 1.861c-.112-1.666-.067-4.77.002-6.147l-3.994-.204c-.074 1.456-.126 4.735.002 6.62l3.99-.269zM96.312 32.4c.588-.057 2.525-.04 3.313.026l.332-3.986c-.94-.078-3.13-.109-4.03-.022l.385 3.982zm1.48-1.887c.047 1.15.046 2.077.001 3.07l3.996.18c.051-1.12.051-2.16.001-3.41l-3.997.16zm25.684-7.256l-1.994.155.14 1.79 1.793.054.061-1.999zm0-7.944l-.103-1.997-1.774.091-.118 1.773 1.995.133zm17.28 0l1.989-.21-.183-1.737-1.746-.052-.06 1.999zm0 3.024l.057 2 1.749-.05.183-1.74-1.989-.21zm-13.608 0l.054-2-2.054-.054v2.054h2zm0 1.896h-2v2h2v-2zm13.848 0l1.994-.153-.14-1.822-1.827-.025-.027 2zm0 3.024l.098 1.998 1.732-.085.162-1.726-1.992-.187zm-19.08 4.32l-1.986.234.201 1.707 1.718.058.067-1.999zm0-3l-.038-2-1.761.034-.189 1.751 1.988.215zm20.64 0l1.987-.227-.198-1.735-1.746-.038-.043 2zm0 3l.14 1.995 1.678-.117.172-1.674-1.99-.204zm-17.086-4.475c-.135-1.733-.113-5.93.002-7.656l-3.991-.266c-.125 1.875-.152 6.27.001 8.232l3.988-.31zm-1.891-5.792c2.246-.115 14.734-.07 17.117.002l.12-3.998c-2.416-.073-15.032-.123-17.443.002l.206 3.994zm15.188-1.788c.082.773.082 1.833 0 2.606l3.978.418a17.839 17.839 0 000-3.442l-3.978.418zm1.932.816c-1.641.047-11.732.047-13.497 0l-.107 3.998c1.834.05 11.999.05 13.718 0l-.114-3.998zm-15.551 1.999v1.896h4v-1.896h-4zm2 3.896c1.92 0 12.063-.024 13.821 0l.054-4c-1.793-.024-12.002 0-13.875 0v4zm11.854-1.847c.065.846.062 2.05.003 2.684l3.983.374c.084-.903.081-2.338.002-3.364l-3.988.306zm1.897.873c-1.892.093-15.033.07-17.361-.001l-.123 3.998c2.375.073 15.635.098 17.679-.001l-.195-3.996zm-16.996 6.084c-.077-.654-.08-1.8.002-2.551l-3.977-.43c-.111 1.024-.113 2.471.002 3.449l3.973-.468zm-1.948-.766c4.964-.096 18.329-.048 20.559 0l.085-4c-2.282-.048-15.701-.096-20.721 0l.077 4zm18.614-1.773c.078.682.081 1.76-.002 2.569l3.979.408c.109-1.064.111-2.433-.003-3.431l-3.974.454zm1.848.778c-1.953.136-17.609.092-20.433-.004l-.135 3.998c2.84.096 18.672.148 20.847-.004l-.279-3.99zm-10.181 9.499c-3.746 0-5.692-.37-6.659-.845-.422-.207-.561-.39-.622-.496-.071-.124-.151-.351-.151-.811h-4c0 .909.157 1.884.678 2.795.53.928 1.336 1.613 2.33 2.102 1.865.916 4.635 1.255 8.424 1.255v-4zm-7.432-2.152c0-.504.095-.742.17-.865.068-.11.223-.296.676-.5 1.031-.464 2.996-.763 6.586-.763v-4c-3.586 0-6.336.265-8.227 1.115-1.008.453-1.866 1.112-2.445 2.057-.572.932-.76 1.96-.76 2.956h4zm7.432-2.128c3.746 0 5.694.37 6.663.843.423.207.562.389.621.492.069.12.148.342.148.793h4c0-.905-.158-1.877-.68-2.786-.531-.924-1.338-1.605-2.331-2.091-1.863-.912-4.63-1.251-8.421-1.251v4zm7.432 2.128c0 .512-.095.757-.172.884-.069.113-.225.3-.676.503-1.029.465-2.993.765-6.584.765v4c3.586 0 6.338-.264 8.231-1.12 1.01-.456 1.867-1.118 2.444-2.067.571-.935.757-1.965.757-2.965h-4zm-7.432 3.128c2.519 0 4.193-.063 5.248-.296.524-.115 1.235-.337 1.789-.908.65-.668.747-1.45.747-1.924h-4c0-.055.017-.485.384-.863.273-.28.501-.273.22-.211-.552.121-1.771.202-4.388.202v4zm7.784-3.128c0-.517-.129-1.285-.787-1.927-.545-.533-1.232-.749-1.752-.865-1.057-.236-2.723-.312-5.245-.312v4c2.591 0 3.817.092 4.374.216.287.064.087.075-.172-.178a1.375 1.375 0 01-.418-.934h4zm-7.784-3.104c-2.521 0-4.19.064-5.241.291-.518.112-1.225.328-1.779.886-.659.662-.764 1.444-.764 1.927h4c0 .075-.023.515-.4.894-.273.274-.497.265-.211.203.557-.12 1.781-.201 4.395-.201v-4zm-7.784 3.104c0 .507.121 1.275.771 1.925.545.544 1.237.767 1.762.886 1.061.241 2.732.317 5.251.317v-4c-2.592 0-3.814-.092-4.366-.217-.282-.064-.078-.074.181.185.364.364.401.793.401.904h-4zm40.182-6.696l1.988-.227-.203-1.773h-1.785v2zm0 2.928l.14 1.995 1.678-.117.172-1.674-1.99-.204zm-20.64 0l-1.986.234.201 1.707 1.718.058.067-1.999zm0-2.928l-.024-2-1.773.022-.191 1.763 1.988.215zm8.448-.048v2h2v-2h-2zm0-.96h2v-2h-2v2zm-6.888-.096l-1.994.145.129 1.782 1.786.071.079-1.998zm0-6.336v-2h-1.881l-.115 1.878 1.996.122zm13.656 0v2h2v-2h-2zm0-.888h2v-2h-2v2zm-13.608 0l-1.983.256.225 1.744h1.758v-2zm0-2.832l-.02-2-1.698.018-.258 1.678 1.976.304zm17.232-.024l1.984-.254-.218-1.704-1.717-.041-.049 1.999zm0 6.408v2h1.781l.206-1.769-1.987-.231zm-13.656 0v-2h-2v2h2zm0 .888h-2v2h2v-2zm13.896 0l1.988-.22-.197-1.78h-1.791v2zm0 2.784l.138 1.995 1.753-.12.106-1.754-1.997-.121zm-6.888.096v-2h-2v2h2zm0 .984h-2v2h2v-2zm-10.944 4.056l-.099-1.997-1.71.085-.18 1.703 1.989.209zm18.072 0l1.995-.144-.127-1.756-1.758-.097-.11 1.997zm0 6.504l.111 1.997 1.775-.099.111-1.773-1.997-.125zm-3.672 0l-1.998.08.073 1.816 1.814.1.111-1.996zm0-3.504l2 .04.041-2.04h-2.041v2zm-14.4 0l-1.989.21.181 1.72 1.728.068.08-1.998zm17.405-6.805c.078.682.081 1.689-.002 2.497l3.979.408c.109-1.064.112-2.36-.002-3.36l-3.975.455zm1.848.706c-1.953.136-17.609.092-20.433-.004l-.135 3.998c2.84.096 18.672.148 20.847-.004l-.279-3.99zm-18.514 1.761c-.077-.654-.079-1.727.002-2.479l-3.977-.43c-.111 1.024-.113 2.4.002 3.377l3.973-.468zm-1.962-.694c1.936-.024 5.12-.048 8.423-.048v-4c-3.32 0-6.52.024-8.472.048l.049 4zm10.423-2.048v-.96h-4v.96h4zm-2-2.96c-2.94 0-5.646-.048-6.808-.094l-.159 3.996c1.238.05 4.004.098 6.967.098v-4zm-4.893 1.759c-.089-1.23-.137-3.805.002-6.069l-3.993-.244c-.149 2.44-.101 5.193.002 6.603l3.989-.29zm-1.995-4.191h13.656v-4h-13.656v4zm15.656-2v-.888h-4v.888h4zm-2-2.888h-13.608v4h13.608v-4zm-11.624 1.744c-.076-.592-.07-1.864-.007-2.272l-3.953-.608c-.13.84-.123 2.496-.007 3.392l3.967-.512zm-1.963-.576c6.991-.072 14.252-.096 17.163-.025l.097-3.998c-2.993-.073-10.324-.049-17.301.023l.041 4zm15.228-1.77c.04.314.073 1.515.073 2.914 0 1.387-.032 2.63-.076 3.009l3.973.462c.076-.654.103-2.146.103-3.471 0-1.313-.026-2.8-.106-3.422l-3.967.508zm1.983 4.154h-13.656v4h13.656v-4zm-15.656 2v.888h4v-.888h-4zm2 2.888h13.896v-4h-13.896v4zm11.909-1.78c.074.674.04 1.644-.009 2.443l3.993.242c.047-.785.108-2.07-.009-3.126l-3.975.442zm1.85.569c-.613.042-3.441.091-6.751.091v4c3.267 0 6.247-.047 7.026-.1l-.275-3.991zm-8.751 2.091v.984h4v-.984h-4zm2 2.984c1.953 0 3.798.006 5.287.012 1.485.006 2.628.012 3.161.012v-4c-.522 0-1.647-.006-3.145-.012-1.492-.006-3.343-.012-5.303-.012v4zm-10.844 4.053c1.859-.092 15.757-.116 17.863 0l.219-3.994c-2.262-.124-16.3-.1-18.281 0l.199 3.994zm15.978-1.853c.135 1.873.067 5.137-.002 6.235l3.993.25c.075-1.206.151-4.662-.002-6.773l-3.989.288zm1.883 4.363c-.79.044-2.66.044-3.45 0l-.222 3.994a48.62 48.62 0 003.894 0l-.222-3.994zm-1.562 1.917c-.045-1.13-.023-2.173.001-3.384l-3.999-.08c-.024 1.19-.05 2.354.001 3.624l3.997-.16zm-1.999-5.424c-5.375 0-12.572.072-14.32.002l-.16 3.996c1.853.075 9.248.002 14.48.002v-4zm-12.411 1.79a13.74 13.74 0 010-2.58l-3.978-.42a17.75 17.75 0 000 3.42l3.978-.42z" mask="url(#a)"/><defs><pattern id="pattern0" width="1" height="1" patternContentUnits="objectBoundingBox"><use transform="scale(.00195 .00285)" xlink:href="#image0_1_6"/></pattern></defs></svg>