<svg fill="none" viewBox="0 0 75 75"><rect width="71" height="71" x="2" y="2" fill="#A4E96B" stroke="#44A342" stroke-width="4" rx="14"/><path fill="#CA87FF" stroke="#6C484D" stroke-width="2" d="M25.625 22.5a6.5 6.5 0 1113 0 6.5 6.5 0 01-13 0zM20 43.26a9.445 9.445 0 019.447-9.447h5.356a9.445 9.445 0 019.447 9.447.74.74 0 01-.74.74H20.74a.74.74 0 01-.74-.74zm34.701.74h-6.658c.054-.283.082-.575.082-.875v-.469c0-2.986-1.032-5.736-2.756-7.906h1.68a8.45 8.45 0 018.451 8.451.8.8 0 01-.799.799zM44.312 29a5.535 5.535 0 01-3.324-1.103A10.33 10.33 0 0042.5 22.5a10.33 10.33 0 00-.792-3.979 5.545 5.545 0 012.605-.646 5.56 5.56 0 015.562 5.563A5.56 5.56 0 0144.312 29z"/><path fill="#6C484D" d="M29 20h1v3h-1zm16 1h1v3h-1zm-11-1h1v3h-1z"/><mask id="a" width="61" height="17" x="7" y="45" fill="#000" maskUnits="userSpaceOnUse"><path fill="#fff" d="M7 45h61v17H7z"/><path d="M16.788 54.82c-1.17-.66-2.385-1.38-3.525-2.16-1.065.9-2.265 1.8-3.315 2.535-.375-.315-1.065-1.14-1.32-1.605 1.155-.855 2.31-1.74 3.435-2.61v-1.305c-1.485 0-2.79 0-3.24-.03-.06-.6-.06-1.365 0-1.905.525-.015 1.77-.03 3.225-.03 0-.405 0-.825.03-1.11.405-.075 1.8-.09 2.325 0 .03.285.03.705.03 1.11 1.17 0 2.31.015 3.21.03.045.57.045 1.38 0 1.905-.585.015-1.83.03-3.225.03v1.275c1.185.735 2.295 1.395 3.54 2.16-.195.48-.81 1.35-1.17 1.71zm4.44 1.68c-.465.06-1.71.045-2.235 0-.045-1.29-.045-8.535 0-9.675.405-.06 1.71-.075 2.235 0 .03 1.62.045 8.19 0 9.675zm.255 1.92c.06.54.06 1.395 0 1.95-1.2.075-9.81.075-11.175 0-.075-1.11-.045-3.495 0-4.38.465-.045 1.695-.045 2.235 0 .03.75.03 1.62 0 2.43 3.315-.015 7.815-.03 8.94 0zm10.588-9.195c-3.314 0-7.544.045-8.67 0-.06-.57-.06-1.44 0-2.01 1.2-.045 9.6-.075 10.966 0 .075 1.26.075 4.68 0 5.565-.465.06-1.755.06-2.295 0-.03-.84-.03-2.82 0-3.555zm3.406 4.74c.06.555.06 1.32 0 1.95-.57.045-2.805.06-5.295.06.015 1.26.03 3.72 0 4.425-.495.03-1.695.03-2.295 0-.03-.6-.046-3.12-.015-4.425-2.37-.015-4.546-.03-5.296-.06-.06-.54-.06-1.365 0-1.95 3.12-.06 11.49-.03 12.9 0zm16.948-.975c.06.525.06 1.29 0 1.875-1.29.09-11.13.06-12.9 0-.06-.51-.06-1.32 0-1.875 1.215-.03 3.21-.03 5.28-.03v-1.08c-2.01 0-3.81-.015-4.305-.045-.105-1.65-.075-3.36 0-4.89.93-.06 10.11-.045 10.95 0 .09 1.635.09 4.065 0 4.89-.42.03-2.25.045-4.305.045v1.08c2.445 0 4.62.015 5.28.03zm-9.765-4.23v1.275c.69.03 6 .03 6.63 0V48.76c-.84-.015-5.64-.03-6.63 0zm-2.355 6.975c1.2-.06 9.93-.075 11.295 0 .09 1.245.045 3.9 0 4.635-.54.03-1.755.03-2.295 0-.03-.765 0-1.815 0-2.73-3.315 0-7.875.045-9 0-.06-.57-.06-1.335 0-1.905zm25.919-1.965a9.32 9.32 0 010 1.83c-1.29.09-11.13.06-12.9 0a9.322 9.322 0 010-1.83c1.215-.015 3.21-.03 5.28-.03v-.6a131.6 131.6 0 01-4.306-.06c-.06-.825-.09-2.49 0-3.96h8.535v-.555h-8.505c-.06-.465-.06-1.38 0-1.77 4.365-.045 8.925-.06 10.77-.015.076.585.076 3.36 0 4.005h-8.535v.555h8.686c.06.54.03 1.245 0 1.74-.435.03-2.25.06-4.305.06v.615c2.444 0 4.62.015 5.28.015zm-12.12 2.52c1.2-.06 9.93-.075 11.294 0 .09 1.245.046 3.345 0 4.065-.54.03-1.754.03-2.294 0-.03-.75-.015-1.44 0-2.19-3.316 0-7.876.045-9 0a9.788 9.788 0 010-1.875z"/></mask><path fill="#252525" d="M16.788 54.82c-1.17-.66-2.385-1.38-3.525-2.16-1.065.9-2.265 1.8-3.315 2.535-.375-.315-1.065-1.14-1.32-1.605 1.155-.855 2.31-1.74 3.435-2.61v-1.305c-1.485 0-2.79 0-3.24-.03-.06-.6-.06-1.365 0-1.905.525-.015 1.77-.03 3.225-.03 0-.405 0-.825.03-1.11.405-.075 1.8-.09 2.325 0 .03.285.03.705.03 1.11 1.17 0 2.31.015 3.21.03.045.57.045 1.38 0 1.905-.585.015-1.83.03-3.225.03v1.275c1.185.735 2.295 1.395 3.54 2.16-.195.48-.81 1.35-1.17 1.71zm4.44 1.68c-.465.06-1.71.045-2.235 0-.045-1.29-.045-8.535 0-9.675.405-.06 1.71-.075 2.235 0 .03 1.62.045 8.19 0 9.675zm.255 1.92c.06.54.06 1.395 0 1.95-1.2.075-9.81.075-11.175 0-.075-1.11-.045-3.495 0-4.38.465-.045 1.695-.045 2.235 0 .03.75.03 1.62 0 2.43 3.315-.015 7.815-.03 8.94 0zm10.588-9.195c-3.314 0-7.544.045-8.67 0-.06-.57-.06-1.44 0-2.01 1.2-.045 9.6-.075 10.966 0 .075 1.26.075 4.68 0 5.565-.465.06-1.755.06-2.295 0-.03-.84-.03-2.82 0-3.555zm3.406 4.74c.06.555.06 1.32 0 1.95-.57.045-2.805.06-5.295.06.015 1.26.03 3.72 0 4.425-.495.03-1.695.03-2.295 0-.03-.6-.046-3.12-.015-4.425-2.37-.015-4.546-.03-5.296-.06-.06-.54-.06-1.365 0-1.95 3.12-.06 11.49-.03 12.9 0zm16.948-.975c.06.525.06 1.29 0 1.875-1.29.09-11.13.06-12.9 0-.06-.51-.06-1.32 0-1.875 1.215-.03 3.21-.03 5.28-.03v-1.08c-2.01 0-3.81-.015-4.305-.045-.105-1.65-.075-3.36 0-4.89.93-.06 10.11-.045 10.95 0 .09 1.635.09 4.065 0 4.89-.42.03-2.25.045-4.305.045v1.08c2.445 0 4.62.015 5.28.03zm-9.765-4.23v1.275c.69.03 6 .03 6.63 0V48.76c-.84-.015-5.64-.03-6.63 0zm-2.355 6.975c1.2-.06 9.93-.075 11.295 0 .09 1.245.045 3.9 0 4.635-.54.03-1.755.03-2.295 0-.03-.765 0-1.815 0-2.73-3.315 0-7.875.045-9 0-.06-.57-.06-1.335 0-1.905zm25.919-1.965a9.32 9.32 0 010 1.83c-1.29.09-11.13.06-12.9 0a9.322 9.322 0 010-1.83c1.215-.015 3.21-.03 5.28-.03v-.6a131.6 131.6 0 01-4.306-.06c-.06-.825-.09-2.49 0-3.96h8.535v-.555h-8.505c-.06-.465-.06-1.38 0-1.77 4.365-.045 8.925-.06 10.77-.015.076.585.076 3.36 0 4.005h-8.535v.555h8.686c.06.54.03 1.245 0 1.74-.435.03-2.25.06-4.305.06v.615c2.444 0 4.62.015 5.28.015zm-12.12 2.52c1.2-.06 9.93-.075 11.294 0 .09 1.245.046 3.345 0 4.065-.54.03-1.754.03-2.294 0-.03-.75-.015-1.44 0-2.19-3.316 0-7.876.045-9 0a9.788 9.788 0 010-1.875z"/><path fill="#fff" d="M16.788 54.82l-.492.871.662.373.537-.537-.707-.707zm-3.525-2.16l.564-.825-.628-.43-.582.491.646.764zm-3.315 2.535l-.644.766.588.493.63-.44-.574-.819zm-1.32-1.605l-.595-.804-.702.52.42.765.877-.481zm3.435-2.61l.611.791.389-.3v-.491h-1zm0-1.305h1v-1h-1v1zm-3.24-.03l-.995.1.084.842.844.056.067-.998zm0-1.905l-.029-1-.87.025-.095.865.994.11zm3.225-.03v1h1v-1h-1zm.03-1.11l-.182-.983-.735.136-.078.742.995.105zm2.325 0l.994-.105-.08-.753-.745-.128-.17.986zm.03 1.11h-1v1h1v-1zm3.21.03l.997-.079-.072-.906-.909-.015-.016 1zm0 1.905l.025 1 .895-.023.076-.892-.996-.085zm-3.225.03v-1h-1v1h1zm0 1.275h-1v.556l.473.294.527-.85zm3.54 2.16l.926.376.319-.784-.722-.444-.523.852zm3.27 3.39l.128.992.845-.11.026-.852-1-.03zm-2.235 0l-1 .035.031.886.883.075.086-.996zm0-9.675l-.147-.99-.82.122-.033.829 1 .039zm2.235 0l1-.019-.016-.85-.843-.121-.141.99zm.255 11.595l.994-.11-.097-.866-.87-.024-.027 1zm0 1.95l.062.998.841-.053.09-.837-.993-.108zm-11.175 0l-.998.067.06.883.883.048.055-.998zm0-4.38l-.097-.995-.858.083-.044.861.999.051zm2.235 0l.999-.04-.035-.883-.881-.074-.083.997zm0 2.43l-1-.037-.038 1.042 1.042-.005-.004-1zm4.736-4.471c-1.16-.654-2.346-1.358-3.452-2.114l-1.129 1.65c1.174.804 2.417 1.54 3.598 2.206l.983-1.742zm-4.662-2.053a46.61 46.61 0 01-3.243 2.48l1.147 1.638a48.591 48.591 0 003.387-2.59l-1.29-1.528zm-2.026 2.533a5.64 5.64 0 01-.578-.618 5.38 5.38 0 01-.509-.702l-1.753.962c.173.316.457.696.721 1.015.264.32.576.66.832.875l1.287-1.532zm-1.368-.035a207.449 207.449 0 003.451-2.623l-1.223-1.582a204.95 204.95 0 01-3.418 2.597l1.19 1.608zm3.84-3.414v-1.305h-2v1.305h2zm-1-2.305c-1.513 0-2.767 0-3.174-.028l-.133 1.996c.494.033 1.85.032 3.307.032v-2zm-2.245.87a9.116 9.116 0 01-.001-1.695l-1.988-.22a11.083 11.083 0 00-.001 2.114l1.99-.199zm-.967-.805c.51-.015 1.745-.03 3.197-.03v-2c-1.458 0-2.715.015-3.254.03l.057 2zm4.197-1.03c0-.428.001-.785.024-1.005l-1.989-.21c-.037.35-.035.833-.035 1.215h2zm-.788-.127c.103-.019.469-.043.94-.045.463-.002.865.019 1.034.048l.338-1.972c-.357-.06-.914-.078-1.38-.076-.46.002-.995.023-1.296.079l.364 1.966zm1.148-.878c.023.22.025.577.025 1.005h2c0-.382.001-.865-.036-1.215l-1.989.21zm1.025 2.005c1.162 0 2.296.015 3.193.03l.033-2c-.902-.015-2.048-.03-3.226-.03v2zm2.213-.891c.04.52.04 1.275 0 1.74l1.993.171c.05-.584.05-1.449 0-2.069l-1.993.158zm.971.826c-.573.015-1.809.03-3.2.03v2c1.4 0 2.655-.015 3.251-.03l-.051-2zm-4.2 1.03v1.275h2v-1.275h-2zm.473 2.125c1.179.73 2.324 1.412 3.544 2.162l1.047-1.704c-1.27-.78-2.345-1.419-3.536-2.158l-1.055 1.7zm3.141.934c-.055.135-.207.4-.419.707a5.71 5.71 0 01-.531.672l1.414 1.414c.24-.241.524-.604.762-.948.234-.338.487-.748.627-1.093l-1.853-.752zm4.069 2.774c-.365.047-1.53.038-2.022-.004l-.17 1.992c.557.048 1.882.069 2.448-.004l-.256-1.984zm-1.108.957c-.044-1.268-.044-8.488 0-9.6l-1.999-.08c-.046 1.168-.045 8.438 0 9.75l1.999-.07zm-.853-8.65a8.96 8.96 0 01.93-.04c.44-.002.833.014 1.017.04l.283-1.98c-.34-.049-.862-.063-1.308-.06-.443.001-.934.02-1.215.06l.293 1.98zm1.089-.971c.03 1.614.044 8.165 0 9.626l2 .06c.045-1.509.03-8.098 0-9.724l-2 .038zm.26 11.686a9.626 9.626 0 010 1.733l1.989.215a11.63 11.63 0 000-2.168l-1.988.22zm.932.842c-1.156.072-9.726.073-11.058 0l-.11 1.996c1.4.077 10.05.078 11.293 0l-.125-1.996zm-10.115.93c-.071-1.055-.043-3.397.001-4.261l-1.997-.102c-.046.906-.078 3.334 0 4.498l1.996-.134zm-.901-3.317c.397-.038 1.566-.04 2.056.002l.166-1.994c-.59-.049-1.881-.05-2.415.002l.193 1.99zm1.14-.955c.028.722.028 1.567 0 2.353l1.998.074c.03-.834.03-1.73 0-2.507l-1.999.08zm1.003 3.39c3.327-.015 7.804-.03 8.909 0l.053-2c-1.145-.03-5.668-.015-8.97 0l.008 2zm19.524-10.195l1 .04.042-1.04h-1.041v1zm-8.67 0l-.994.105.09.86.864.034.04-.999zm0-2.01l-.037-1-.866.033-.091.862.994.105zm10.966 0l.998-.06-.053-.89-.89-.048-.055.998zm0 5.565l.127.992.8-.103.069-.805-.996-.084zm-2.295 0l-1 .036.03.862.859.096.11-.994zm3.404 1.185l.995-.108-.095-.873-.878-.019-.021 1zm0 1.95l.08.997.836-.066.08-.836-.995-.095zm-5.294.06v-1H29.17l.011 1.012 1-.012zm0 4.425l.06.998.9-.054.039-.901-1-.043zm-2.295 0l-1 .05.046.904.904.045.05-.999zm-.015-4.425l1 .023.023-1.017-1.017-.006-.006 1zm-5.296-.06l-.993.11.095.855.858.034.04-.999zm0-1.95l-.019-1-.885.017-.09.881.994.102zm9.495-5.74c-3.35 0-7.53.045-8.63 0l-.08 2c1.152.045 5.432 0 8.71 0v-2zm-7.675.895c-.053-.5-.053-1.3 0-1.8l-1.989-.21c-.067.64-.067 1.58 0 2.22l1.989-.21zm-.957-.906c1.184-.044 9.55-.073 10.873 0l.11-1.997c-1.409-.078-9.842-.047-11.058-.001l.075 1.998zm9.93-.94c.072 1.23.07 4.6.001 5.422l1.993.168c.08-.948.078-4.419.002-5.708l-1.997.118zm.87 4.514a9.943 9.943 0 01-.992.037c-.44 0-.852-.015-1.065-.039l-.221 1.988c.327.036.83.051 1.286.051.45 0 .945-.014 1.247-.053l-.255-1.984zm-1.168.956a69.518 69.518 0 010-3.478l-1.999-.082c-.03.764-.03 2.77 0 3.632l1.999-.072zm1.411 1.328c.052.48.053 1.177-.001 1.748l1.991.19c.066-.689.067-1.522-.001-2.152l-1.989.215zm.916.846c-.52.041-2.699.057-5.217.057v2c2.463 0 4.753-.014 5.374-.063l-.157-1.994zm-6.217 1.069c.016 1.273.03 3.7.001 4.37l1.999.086c.031-.74.015-3.233 0-4.48l-2 .024zm.94 3.415c-.451.027-1.614.028-2.185 0l-.1 1.997c.63.031 1.867.032 2.406 0l-.121-1.997zm-1.236.948c-.028-.565-.044-3.058-.014-4.352l-2-.046c-.03 1.316-.015 3.863.017 4.498l1.997-.1zm-1.007-5.375c-2.383-.015-4.533-.03-5.262-.06l-.08 2c.772.03 2.972.045 5.33.06l.012-2zm-4.308.83a9.62 9.62 0 01.001-1.738l-1.99-.204c-.066.65-.067 1.546.002 2.162l1.987-.22zm-.974-.84c3.106-.06 11.462-.03 12.86 0l.042-2c-1.423-.03-9.807-.06-12.94 0l.038 2zm29.829-1.975l.993-.114-.099-.866-.872-.02-.022 1zm0 1.875l.07.998.839-.059.085-.837-.994-.102zm-12.9 0l-.993.117.1.853.859.03.034-1zm0-1.875l-.025-1-.875.022-.094.87.994.108zm5.28-.03v1h1v-1h-1zm0-1.08h1v-1h-1v1zm-4.305-.045l-.998.063.056.882.881.053.06-.998zm0-4.89l-.065-.998-.89.057-.044.892.999.049zm10.95 0l.998-.055-.05-.896-.895-.048-.053.999zm0 4.89l.071.998.832-.06.09-.83-.993-.108zm-4.305.045v-1h-1v1h1zm0 1.08h-1v1h1v-1zm-4.485-4.2l-.03-1-.97.03v.97h1zm0 1.275h-1v.958l.956.041.044-.999zm6.63 0l.047.999.953-.045v-.954h-1zm0-1.275h1v-.982l-.982-.018-.018 1zm-8.985 6.975l-.05-.999-.855.043-.09.851.995.105zm11.295 0l.997-.072-.063-.878-.88-.048-.054.998zm0 4.635l.055.998.889-.049.054-.888-.998-.061zm-2.295 0l-1 .04.036.908.908.05.056-.998zm0-2.73h1v-1h-1v1zm-9 0l-.995.105.09.86.865.034.04-.999zm11.126-4.537a8.845 8.845 0 01-.001 1.66l1.99.204c.066-.649.067-1.486-.002-2.09l-1.987.226zm.924.764c-1.235.087-11.03.058-12.796-.001l-.068 1.998c1.774.06 11.658.092 13.003-.001l-.139-1.996zm-11.837.881a8.817 8.817 0 010-1.65l-1.987-.215a10.744 10.744 0 000 2.099l1.987-.234zm-.969-.758c1.2-.03 3.18-.03 5.256-.03v-2c-2.064 0-4.074 0-5.305.03l.05 2zm6.256-1.03v-1.08h-2v1.08h2zm-1-2.08c-2.027 0-3.788-.016-4.245-.043l-.12 1.996c.532.032 2.371.047 4.365.047v-2zm-3.307.892c-.102-1.599-.073-3.268 0-4.778l-1.997-.098c-.076 1.55-.108 3.301 0 5.002l1.997-.127zm-.934-3.83c.423-.026 2.902-.038 5.444-.036 2.536.002 5.002.017 5.388.038l.107-1.998c-.454-.024-2.997-.038-5.494-.04-2.49-.002-5.066.008-5.574.041l.13 1.996zM50.451 47c.09 1.622.085 3.986.005 4.727l1.988.216c.099-.909.095-3.405.004-5.053l-1.997.11zm.928 3.837c-.375.027-2.156.043-4.234.043v2c2.031 0 3.91-.014 4.376-.047l-.142-1.995zm-5.234 1.043v1.08h2v-1.08h-2zm1 2.08c2.446 0 4.61.015 5.257.03l.045-2c-.673-.015-2.858-.03-5.302-.03v2zm-5.485-5.2v1.275h2V48.76h-2zm.956 2.274c.718.031 6.058.031 6.721 0l-.095-1.998c-.597.029-5.876.029-6.539 0l-.087 1.998zm7.674-.999V48.76h-2v1.275h2zm-.982-2.275c-.845-.015-5.664-.03-6.679 0l.061 2c.966-.03 5.746-.015 6.582 0l.036-2zm-8.953 8.974c1.17-.059 9.864-.073 11.19 0l.11-1.998c-1.404-.077-10.17-.061-11.4 0l.1 1.998zm10.247-.927c.086 1.187.043 3.794 0 4.502l1.996.122c.047-.762.093-3.465 0-4.768l-1.996.144zm.942 3.564c-.503.029-1.68.029-2.184 0l-.11 1.997c.576.032 1.828.032 2.405 0l-.11-1.997zm-1.24.96c-.03-.741 0-1.727 0-2.691h-2c0 .866-.03 1.98.002 2.77l1.998-.08zm-1-3.691c-3.35 0-7.86.045-8.96 0l-.08 2c1.152.045 5.762 0 9.04 0v-2zm-8.005.895a9.112 9.112 0 010-1.695l-1.989-.21c-.067.64-.067 1.475 0 2.115l1.99-.21zm24.925-3.765l.993-.114-.101-.886h-.892v1zm0 1.83l.07.998.838-.059.086-.837-.995-.102zm-12.9 0l-.994.117.1.853.86.03.034-1zm0-1.83l-.013-1-.886.011-.096.882.995.107zm5.28-.03v1h1v-1h-1zm0-.6h1v-1h-1v1zm-4.306-.06l-.997.073.065.89.893.036.04-.999zm0-3.96v-1h-.94l-.058.939.998.061zm8.535 0v1h1v-1h-1zm0-.555h1v-1h-1v1zm-8.505 0l-.991.128.112.872h.88v-1zm0-1.77l-.01-1-.849.009-.129.839.988.152zm10.77-.015l.992-.127-.109-.852-.858-.02-.025.999zm0 4.005v1h.891l.103-.884-.993-.116zm-8.535 0v-1h-1v1h1zm0 .555h-1v1h1v-1zm8.686 0l.993-.11-.098-.89h-.895v1zm0 1.74l.068.998.877-.06.053-.877-.998-.061zm-4.305.06v-1h-1v1h1zm0 .615h-1v1h1v-1zm-6.84 2.535l-.05-.999-.855.043-.09.851.994.105zm11.294 0l.998-.072-.064-.878-.879-.049-.055.999zm0 4.065l.056.998.887-.049.056-.887-.999-.062zm-2.294 0l-1 .04.037.908.907.05.055-.998zm0-2.19l1 .02.02-1.02h-1.02v1zm-9 0l-.995.105.09.86.865.034.04-.999zm11.126-4.282a8.336 8.336 0 01-.001 1.615l1.99.204c.066-.649.067-1.441-.002-2.045l-1.987.227zm.924.72c-1.235.086-11.03.057-12.797-.002l-.067 1.998c1.774.06 11.658.092 13.003-.001l-.14-1.996zm-11.837.88a8.352 8.352 0 010-1.605l-1.988-.215c-.067.623-.068 1.463.001 2.054l1.987-.234zm-.981-.713c1.21-.015 3.202-.03 5.267-.03v-2c-2.074 0-4.073.015-5.292.03l.025 2zm6.267-1.03v-.6h-2v.6h2zm-1-1.6c-1.839 0-3.534-.03-4.264-.06l-.08 2c.769.03 2.494.06 4.344.06v-2zm-3.307.867c-.057-.78-.087-2.4 0-3.826L53.3 49.06c-.092 1.514-.062 3.224.001 4.094l1.995-.145zm-.998-2.887h8.535v-2h-8.535v2zm9.535-1v-.555h-2v.555h2zm-1-1.555h-8.505v2h8.505v-2zm-7.513.872c-.05-.389-.046-1.208-.003-1.49l-1.977-.304c-.077.498-.073 1.509-.003 2.05l1.983-.256zm-.981-.642c4.368-.045 8.91-.06 10.735-.015l.049-2c-1.866-.045-6.443-.03-10.805.015l.02 2zm9.768-.888c.027.216.048.984.048 1.853 0 .863-.02 1.656-.05 1.91l1.987.23c.045-.391.063-1.308.063-2.14 0-.826-.017-1.738-.065-2.107l-1.983.254zm.992 2.878h-8.536v2h8.535v-2zm-9.536 1v.555h2v-.555h-2zm1 1.555h8.686v-2h-8.685v2zm7.692-.89c.049.445.026 1.07-.005 1.57l1.997.12c.03-.49.066-1.275-.005-1.91l-1.987.22zm.925.632c-.394.027-2.17.058-4.237.058v2c2.045 0 3.898-.03 4.374-.062l-.137-1.996zm-5.237 1.058v.615h2v-.615h-2zm1 1.615c1.221 0 2.375.004 3.306.008.929.003 1.642.007 1.975.007v-2c-.328 0-1.032-.004-1.967-.008-.933-.003-2.089-.007-3.314-.007v2zm-6.79 2.534c1.17-.059 9.865-.073 11.19 0l.11-1.998c-1.404-.077-10.169-.061-11.4 0l.1 1.998zm10.248-.927c.086 1.186.043 3.238 0 3.93l1.996.125c.046-.747.093-2.895-.001-4.2l-1.995.145zm.942 2.994c-.503.029-1.68.029-2.184 0l-.11 1.997a30.16 30.16 0 002.405 0l-.11-1.997zm-1.24.959c-.029-.715-.015-1.375 0-2.13l-2-.04c-.014.745-.03 1.465.001 2.25l1.999-.08zm-1-3.15c-3.35 0-7.86.045-8.96 0l-.08 2c1.152.045 5.761 0 9.04 0v-2zm-8.005.895a8.81 8.81 0 010-1.665l-1.989-.21a10.84 10.84 0 000 2.085l1.989-.21z" mask="url(#a)"/></svg>