<svg xmlns="http://www.w3.org/2000/svg" width="75" height="75" fill="none" viewBox="0 0 75 75"><rect width="71" height="71" x="2" y="2" fill="#A4E96B" stroke="#44A342" stroke-width="4" rx="14"/><path fill="#CA87FF" stroke="#6C484D" stroke-width="2" d="M25.625 22.5C25.625 20.7761 26.3098 19.1228 27.5288 17.9038C28.7478 16.6848 30.4011 16 32.125 16C33.8489 16 35.5022 16.6848 36.7212 17.9038C37.9402 19.1228 38.625 20.7761 38.625 22.5C38.625 24.2239 37.9402 25.8772 36.7212 27.0962C35.5022 28.3152 33.8489 29 32.125 29C30.4011 29 28.7478 28.3152 27.5288 27.0962C26.3098 25.8772 25.625 24.2239 25.625 22.5ZM20 43.2598C20 38.0406 24.2281 33.8125 29.4473 33.8125H34.8027C40.0219 33.8125 44.25 38.0406 44.25 43.2598C44.25 43.6684 43.9184 44 43.5098 44H20.7402C20.3316 44 20 43.6684 20 43.2598ZM54.7012 44H48.0434C48.0967 43.7171 48.125 43.4247 48.125 43.125V42.6562C48.125 39.6702 47.0931 36.9196 45.3694 34.75H47.0488C51.7172 34.75 55.5 38.5328 55.5 43.2012C55.5 43.6429 55.1412 44 54.7012 44ZM44.3125 29C43.0655 29 41.9168 28.5903 40.9882 27.8974C41.9486 26.3236 42.5 24.4746 42.5 22.5C42.5 21.0932 42.219 19.7481 41.7083 18.5215C42.4867 18.1092 43.3719 17.875 44.3125 17.875C47.3872 17.875 49.875 20.3628 49.875 23.4375C49.875 26.5122 47.3872 29 44.3125 29Z"/><rect width="1" height="3" x="29" y="20" fill="#6C484D"/><rect width="1" height="3" x="45" y="21" fill="#6C484D"/><rect width="1" height="3" x="34" y="20" fill="#6C484D"/><mask id="path-6-outside-1_11_15" width="61" height="17" x="7" y="45" fill="#000" maskUnits="userSpaceOnUse"><rect width="61" height="17" x="7" y="45" fill="#fff"/><path d="M16.7876 54.82C15.6176 54.16 14.4026 53.44 13.2626 52.66C12.1976 53.56 10.9976 54.46 9.94764 55.195C9.57264 54.88 8.88264 54.055 8.62764 53.59C9.78264 52.735 10.9376 51.85 12.0626 50.98V49.675C10.5776 49.675 9.27264 49.675 8.82264 49.645C8.76264 49.045 8.76264 48.28 8.82264 47.74C9.34764 47.725 10.5926 47.71 12.0476 47.71C12.0476 47.305 12.0476 46.885 12.0776 46.6C12.4826 46.525 13.8776 46.51 14.4026 46.6C14.4326 46.885 14.4326 47.305 14.4326 47.71C15.6026 47.71 16.7426 47.725 17.6426 47.74C17.6876 48.31 17.6876 49.12 17.6426 49.645C17.0576 49.66 15.8126 49.675 14.4176 49.675V50.95C15.6026 51.685 16.7126 52.345 17.9576 53.11C17.7626 53.59 17.1476 54.46 16.7876 54.82ZM21.2276 56.5C20.7626 56.56 19.5176 56.545 18.9926 56.5C18.9476 55.21 18.9476 47.965 18.9926 46.825C19.3976 46.765 20.7026 46.75 21.2276 46.825C21.2576 48.445 21.2726 55.015 21.2276 56.5ZM21.4826 58.42C21.5426 58.96 21.5426 59.815 21.4826 60.37C20.2826 60.445 11.6726 60.445 10.3076 60.37C10.2326 59.26 10.2626 56.875 10.3076 55.99C10.7726 55.945 12.0026 55.945 12.5426 55.99C12.5726 56.74 12.5726 57.61 12.5426 58.42C15.8576 58.405 20.3576 58.39 21.4826 58.42ZM32.0715 49.225C28.7565 49.225 24.5265 49.27 23.4015 49.225C23.3415 48.655 23.3415 47.785 23.4015 47.215C24.6015 47.17 33.0015 47.14 34.3665 47.215C34.4415 48.475 34.4415 51.895 34.3665 52.78C33.9015 52.84 32.6115 52.84 32.0715 52.78C32.0415 51.94 32.0415 49.96 32.0715 49.225ZM35.4765 53.965C35.5365 54.52 35.5365 55.285 35.4765 55.915C34.9065 55.96 32.6715 55.975 30.1815 55.975C30.1965 57.235 30.2115 59.695 30.1815 60.4C29.6865 60.43 28.4865 60.43 27.8865 60.4C27.8565 59.8 27.8415 57.28 27.8715 55.975C25.5015 55.96 23.3265 55.945 22.5765 55.915C22.5165 55.375 22.5165 54.55 22.5765 53.965C25.6965 53.905 34.0665 53.935 35.4765 53.965ZM52.4247 52.99C52.4847 53.515 52.4847 54.28 52.4247 54.865C51.1347 54.955 41.2947 54.925 39.5247 54.865C39.4647 54.355 39.4647 53.545 39.5247 52.99C40.7397 52.96 42.7347 52.96 44.8047 52.96V51.88C42.7947 51.88 40.9947 51.865 40.4997 51.835C40.3947 50.185 40.4247 48.475 40.4997 46.945C41.4297 46.885 50.6097 46.9 51.4497 46.945C51.5397 48.58 51.5397 51.01 51.4497 51.835C51.0297 51.865 49.1997 51.88 47.1447 51.88V52.96C49.5897 52.96 51.7647 52.975 52.4247 52.99ZM42.6597 48.76V50.035C43.3497 50.065 48.6597 50.065 49.2897 50.035V48.76C48.4497 48.745 43.6497 48.73 42.6597 48.76ZM40.3047 55.735C41.5047 55.675 50.2347 55.66 51.5997 55.735C51.6897 56.98 51.6447 59.635 51.5997 60.37C51.0597 60.4 49.8447 60.4 49.3047 60.37C49.2747 59.605 49.3047 58.555 49.3047 57.64C45.9897 57.64 41.4297 57.685 40.3047 57.64C40.2447 57.07 40.2447 56.305 40.3047 55.735ZM66.2235 53.77C66.2835 54.295 66.2835 55.015 66.2235 55.6C64.9335 55.69 55.0935 55.66 53.3235 55.6C53.2635 55.09 53.2635 54.325 53.3235 53.77C54.5385 53.755 56.5335 53.74 58.6035 53.74V53.14C56.7585 53.14 55.0485 53.11 54.2985 53.08C54.2385 52.255 54.2085 50.59 54.2985 49.12H62.8335V48.565H54.3285C54.2685 48.1 54.2685 47.185 54.3285 46.795C58.6935 46.75 63.2535 46.735 65.0985 46.78C65.1735 47.365 65.1735 50.14 65.0985 50.785H56.5635V51.34H65.2485C65.3085 51.88 65.2785 52.585 65.2485 53.08C64.8135 53.11 62.9985 53.14 60.9435 53.14V53.755C63.3885 53.755 65.5635 53.77 66.2235 53.77ZM54.1035 56.29C55.3035 56.23 64.0335 56.215 65.3985 56.29C65.4885 57.535 65.4435 59.635 65.3985 60.355C64.8585 60.385 63.6435 60.385 63.1035 60.355C63.0735 59.605 63.0885 58.915 63.1035 58.165C59.7885 58.165 55.2285 58.21 54.1035 58.165C54.0435 57.595 54.0435 56.86 54.1035 56.29Z"/></mask><path fill="#252525" d="M16.7876 54.82C15.6176 54.16 14.4026 53.44 13.2626 52.66C12.1976 53.56 10.9976 54.46 9.94764 55.195C9.57264 54.88 8.88264 54.055 8.62764 53.59C9.78264 52.735 10.9376 51.85 12.0626 50.98V49.675C10.5776 49.675 9.27264 49.675 8.82264 49.645C8.76264 49.045 8.76264 48.28 8.82264 47.74C9.34764 47.725 10.5926 47.71 12.0476 47.71C12.0476 47.305 12.0476 46.885 12.0776 46.6C12.4826 46.525 13.8776 46.51 14.4026 46.6C14.4326 46.885 14.4326 47.305 14.4326 47.71C15.6026 47.71 16.7426 47.725 17.6426 47.74C17.6876 48.31 17.6876 49.12 17.6426 49.645C17.0576 49.66 15.8126 49.675 14.4176 49.675V50.95C15.6026 51.685 16.7126 52.345 17.9576 53.11C17.7626 53.59 17.1476 54.46 16.7876 54.82ZM21.2276 56.5C20.7626 56.56 19.5176 56.545 18.9926 56.5C18.9476 55.21 18.9476 47.965 18.9926 46.825C19.3976 46.765 20.7026 46.75 21.2276 46.825C21.2576 48.445 21.2726 55.015 21.2276 56.5ZM21.4826 58.42C21.5426 58.96 21.5426 59.815 21.4826 60.37C20.2826 60.445 11.6726 60.445 10.3076 60.37C10.2326 59.26 10.2626 56.875 10.3076 55.99C10.7726 55.945 12.0026 55.945 12.5426 55.99C12.5726 56.74 12.5726 57.61 12.5426 58.42C15.8576 58.405 20.3576 58.39 21.4826 58.42ZM32.0715 49.225C28.7565 49.225 24.5265 49.27 23.4015 49.225C23.3415 48.655 23.3415 47.785 23.4015 47.215C24.6015 47.17 33.0015 47.14 34.3665 47.215C34.4415 48.475 34.4415 51.895 34.3665 52.78C33.9015 52.84 32.6115 52.84 32.0715 52.78C32.0415 51.94 32.0415 49.96 32.0715 49.225ZM35.4765 53.965C35.5365 54.52 35.5365 55.285 35.4765 55.915C34.9065 55.96 32.6715 55.975 30.1815 55.975C30.1965 57.235 30.2115 59.695 30.1815 60.4C29.6865 60.43 28.4865 60.43 27.8865 60.4C27.8565 59.8 27.8415 57.28 27.8715 55.975C25.5015 55.96 23.3265 55.945 22.5765 55.915C22.5165 55.375 22.5165 54.55 22.5765 53.965C25.6965 53.905 34.0665 53.935 35.4765 53.965ZM52.4247 52.99C52.4847 53.515 52.4847 54.28 52.4247 54.865C51.1347 54.955 41.2947 54.925 39.5247 54.865C39.4647 54.355 39.4647 53.545 39.5247 52.99C40.7397 52.96 42.7347 52.96 44.8047 52.96V51.88C42.7947 51.88 40.9947 51.865 40.4997 51.835C40.3947 50.185 40.4247 48.475 40.4997 46.945C41.4297 46.885 50.6097 46.9 51.4497 46.945C51.5397 48.58 51.5397 51.01 51.4497 51.835C51.0297 51.865 49.1997 51.88 47.1447 51.88V52.96C49.5897 52.96 51.7647 52.975 52.4247 52.99ZM42.6597 48.76V50.035C43.3497 50.065 48.6597 50.065 49.2897 50.035V48.76C48.4497 48.745 43.6497 48.73 42.6597 48.76ZM40.3047 55.735C41.5047 55.675 50.2347 55.66 51.5997 55.735C51.6897 56.98 51.6447 59.635 51.5997 60.37C51.0597 60.4 49.8447 60.4 49.3047 60.37C49.2747 59.605 49.3047 58.555 49.3047 57.64C45.9897 57.64 41.4297 57.685 40.3047 57.64C40.2447 57.07 40.2447 56.305 40.3047 55.735ZM66.2235 53.77C66.2835 54.295 66.2835 55.015 66.2235 55.6C64.9335 55.69 55.0935 55.66 53.3235 55.6C53.2635 55.09 53.2635 54.325 53.3235 53.77C54.5385 53.755 56.5335 53.74 58.6035 53.74V53.14C56.7585 53.14 55.0485 53.11 54.2985 53.08C54.2385 52.255 54.2085 50.59 54.2985 49.12H62.8335V48.565H54.3285C54.2685 48.1 54.2685 47.185 54.3285 46.795C58.6935 46.75 63.2535 46.735 65.0985 46.78C65.1735 47.365 65.1735 50.14 65.0985 50.785H56.5635V51.34H65.2485C65.3085 51.88 65.2785 52.585 65.2485 53.08C64.8135 53.11 62.9985 53.14 60.9435 53.14V53.755C63.3885 53.755 65.5635 53.77 66.2235 53.77ZM54.1035 56.29C55.3035 56.23 64.0335 56.215 65.3985 56.29C65.4885 57.535 65.4435 59.635 65.3985 60.355C64.8585 60.385 63.6435 60.385 63.1035 60.355C63.0735 59.605 63.0885 58.915 63.1035 58.165C59.7885 58.165 55.2285 58.21 54.1035 58.165C54.0435 57.595 54.0435 56.86 54.1035 56.29Z"/><path fill="#fff" d="M16.7876 54.82L16.2963 55.691L16.9578 56.0641L17.4947 55.5271L16.7876 54.82ZM13.2626 52.66L13.8273 51.8347L13.1988 51.4047L12.6172 51.8962L13.2626 52.66ZM9.94764 55.195L9.30444 55.9607L9.89223 56.4544L10.5211 56.0142L9.94764 55.195ZM8.62764 53.59L8.03266 52.7863L7.33115 53.3056L7.75082 54.0708L8.62764 53.59ZM12.0626 50.98L12.6744 51.7711L13.0626 51.4708V50.98H12.0626ZM12.0626 49.675H13.0626V48.675H12.0626V49.675ZM8.82264 49.645L7.8276 49.7445L7.9118 50.5865L8.75612 50.6428L8.82264 49.645ZM8.82264 47.74L8.79408 46.7404L7.92479 46.7652L7.82875 47.6296L8.82264 47.74ZM12.0476 47.71V48.71H13.0476V47.71H12.0476ZM12.0776 46.6L11.8955 45.6167L11.1613 45.7527L11.0831 46.4953L12.0776 46.6ZM14.4026 46.6L15.3971 46.4953L15.3179 45.7423L14.5716 45.6144L14.4026 46.6ZM14.4326 47.71H13.4326V48.71H14.4326V47.71ZM17.6426 47.74L18.6395 47.6613L18.568 46.7553L17.6593 46.7401L17.6426 47.74ZM17.6426 49.645L17.6683 50.6447L18.5626 50.6217L18.639 49.7304L17.6426 49.645ZM14.4176 49.675V48.675H13.4176V49.675H14.4176ZM14.4176 50.95H13.4176V51.5065L13.8905 51.7998L14.4176 50.95ZM17.9576 53.11L18.8841 53.4864L19.203 52.7015L18.4812 52.258L17.9576 53.11ZM21.2276 56.5L21.3556 57.4918L22.2013 57.3826L22.2272 56.5303L21.2276 56.5ZM18.9926 56.5L17.9932 56.5349L18.0241 57.4207L18.9072 57.4963L18.9926 56.5ZM18.9926 46.825L18.8461 45.8358L18.0261 45.9573L17.9934 46.7856L18.9926 46.825ZM21.2276 46.825L22.2275 46.8065L22.2117 45.9554L21.3691 45.835L21.2276 46.825ZM21.4826 58.42L22.4765 58.3096L22.3803 57.4436L21.5093 57.4204L21.4826 58.42ZM21.4826 60.37L21.545 61.3681L22.3863 61.3155L22.4768 60.4775L21.4826 60.37ZM10.3076 60.37L9.30991 60.4374L9.36954 61.32L10.2528 61.3685L10.3076 60.37ZM10.3076 55.99L10.2113 54.9946L9.35273 55.0777L9.30893 55.9392L10.3076 55.99ZM12.5426 55.99L13.5418 55.95L13.5065 55.0669L12.6257 54.9935L12.5426 55.99ZM12.5426 58.42L11.5433 58.383L11.5047 59.4247L12.5472 59.42L12.5426 58.42ZM17.279 53.949C16.1199 53.2952 14.9331 52.5913 13.8273 51.8347L12.698 53.4853C13.8722 54.2887 15.1154 55.0248 16.2963 55.691L17.279 53.949ZM12.6172 51.8962C11.5809 52.772 10.4061 53.6534 9.37417 54.3758L10.5211 56.0142C11.5892 55.2666 12.8144 54.348 13.9081 53.4238L12.6172 51.8962ZM10.5908 54.4293C10.4725 54.3299 10.2515 54.0995 10.0132 53.8114C9.7747 53.5231 9.58614 53.2581 9.50445 53.1092L7.75082 54.0708C7.92413 54.3869 8.20807 54.7669 8.47208 55.0861C8.73628 55.4055 9.04775 55.7451 9.30444 55.9607L10.5908 54.4293ZM9.22261 54.3937C10.386 53.5325 11.5475 52.6425 12.6744 51.7711L11.4509 50.1889C10.3278 51.0575 9.17925 51.9375 8.03266 52.7863L9.22261 54.3937ZM13.0626 50.98V49.675H11.0626V50.98H13.0626ZM12.0626 48.675C10.55 48.675 9.29573 48.6743 8.88916 48.6472L8.75612 50.6428C9.24954 50.6757 10.6053 50.675 12.0626 50.675V48.675ZM9.81767 49.5455C9.7639 49.0078 9.76506 48.3136 9.81652 47.8504L7.82875 47.6296C7.76021 48.2464 7.76137 49.0822 7.8276 49.7445L9.81767 49.5455ZM8.8512 48.7396C9.36189 48.725 10.5957 48.71 12.0476 48.71V46.71C10.5896 46.71 9.33338 46.725 8.79408 46.7404L8.8512 48.7396ZM13.0476 47.71C13.0476 47.2824 13.049 46.925 13.0721 46.7047L11.0831 46.4953C11.0463 46.845 11.0476 47.3276 11.0476 47.71H13.0476ZM12.2597 47.5833C12.3627 47.5642 12.7288 47.54 13.1992 47.5381C13.6627 47.5362 14.0653 47.5568 14.2337 47.5856L14.5716 45.6144C14.215 45.5532 13.6576 45.5363 13.1911 45.5381C12.7314 45.54 12.1975 45.5608 11.8955 45.6167L12.2597 47.5833ZM13.4081 46.7047C13.4313 46.925 13.4326 47.2824 13.4326 47.71H15.4326C15.4326 47.3276 15.434 46.845 15.3971 46.4953L13.4081 46.7047ZM14.4326 48.71C15.5947 48.71 16.7285 48.7249 17.626 48.7399L17.6593 46.7401C16.7568 46.7251 15.6106 46.71 14.4326 46.71V48.71ZM16.6457 47.8187C16.6868 48.3387 16.6862 49.0936 16.6463 49.5596L18.639 49.7304C18.689 49.1464 18.6885 48.2813 18.6395 47.6613L16.6457 47.8187ZM17.617 48.6453C17.0438 48.66 15.8082 48.675 14.4176 48.675V50.675C15.8171 50.675 17.0715 50.66 17.6683 50.6447L17.617 48.6453ZM13.4176 49.675V50.95H15.4176V49.675H13.4176ZM13.8905 51.7998C15.0687 52.5306 16.214 53.2123 17.4341 53.962L18.4812 52.258C17.2113 51.4777 16.1365 50.8394 14.9447 50.1002L13.8905 51.7998ZM17.0312 52.7336C16.976 52.8694 16.8243 53.1343 16.6121 53.441C16.404 53.7419 16.1994 53.994 16.0805 54.1129L17.4947 55.5271C17.7358 55.286 18.0188 54.9231 18.2569 54.579C18.4909 54.2407 18.7443 53.8306 18.8841 53.4864L17.0312 52.7336ZM21.0997 55.5082C20.7355 55.5552 19.5704 55.5459 19.078 55.5037L18.9072 57.4963C19.4648 57.5441 20.7897 57.5648 21.3556 57.4918L21.0997 55.5082ZM19.992 56.4651C19.9478 55.1967 19.948 47.9767 19.9919 46.8644L17.9934 46.7856C17.9473 47.9533 17.9475 55.2233 17.9932 56.5349L19.992 56.4651ZM19.1392 47.8142C19.2637 47.7958 19.6271 47.7762 20.0694 47.7744C20.5084 47.7725 20.9022 47.7887 21.0862 47.8149L21.3691 45.835C21.0281 45.7863 20.5069 45.7725 20.0609 45.7744C19.6182 45.7763 19.1266 45.7942 18.8461 45.8358L19.1392 47.8142ZM20.2278 46.8435C20.2577 48.4576 20.2724 55.0088 20.2281 56.4697L22.2272 56.5303C22.2729 55.0212 22.2576 48.4324 22.2275 46.8065L20.2278 46.8435ZM20.4888 58.5304C20.5405 58.9961 20.5408 59.778 20.4884 60.2625L22.4768 60.4775C22.5445 59.852 22.5448 58.9239 22.4765 58.3096L20.4888 58.5304ZM21.4203 59.3719C20.2642 59.4442 11.6936 59.4446 10.3625 59.3715L10.2528 61.3685C11.6516 61.4454 20.3011 61.4458 21.545 61.3681L21.4203 59.3719ZM11.3054 60.3026C11.234 59.2471 11.2624 56.9053 11.3063 56.0408L9.30893 55.9392C9.26288 56.8447 9.23123 59.2729 9.30991 60.4374L11.3054 60.3026ZM10.404 56.9853C10.8008 56.9469 11.9701 56.9458 12.4596 56.9865L12.6257 54.9935C12.0352 54.9442 10.7445 54.9431 10.2113 54.9946L10.404 56.9853ZM11.5434 56.03C11.5723 56.7524 11.5724 57.5966 11.5433 58.383L13.542 58.457C13.5728 57.6234 13.5729 56.7276 13.5418 55.95L11.5434 56.03ZM12.5472 59.42C15.8744 59.4049 20.3513 59.3902 21.456 59.4196L21.5093 57.4204C20.364 57.3898 15.8409 57.4051 12.5381 57.42L12.5472 59.42ZM32.0715 49.225L33.0706 49.2658L33.1131 48.225H32.0715V49.225ZM23.4015 49.225L22.407 49.3297L22.4975 50.1896L23.3615 50.2242L23.4015 49.225ZM23.4015 47.215L23.364 46.2157L22.4977 46.2482L22.407 47.1103L23.4015 47.215ZM34.3665 47.215L35.3647 47.1556L35.3117 46.2654L34.4213 46.2165L34.3665 47.215ZM34.3665 52.78L34.4944 53.7718L35.2948 53.6685L35.3629 52.8644L34.3665 52.78ZM32.0715 52.78L31.0721 52.8157L31.1029 53.6785L31.961 53.7739L32.0715 52.78ZM35.4765 53.965L36.4707 53.8575L36.3762 52.9839L35.4977 52.9652L35.4765 53.965ZM35.4765 55.915L35.5552 56.9119L36.3923 56.8458L36.472 56.0098L35.4765 55.915ZM30.1815 55.975V54.975H29.1695L29.1815 55.9869L30.1815 55.975ZM30.1815 60.4L30.242 61.3982L31.1422 61.3436L31.1806 60.4425L30.1815 60.4ZM27.8865 60.4L26.8877 60.4499L26.9329 61.3536L27.8365 61.3988L27.8865 60.4ZM27.8715 55.975L28.8712 55.998L28.8946 54.9815L27.8778 54.975L27.8715 55.975ZM22.5765 55.915L21.5826 56.0254L21.6775 56.8798L22.5365 56.9142L22.5765 55.915ZM22.5765 53.965L22.5572 52.9652L21.672 52.9822L21.5817 53.863L22.5765 53.965ZM32.0715 48.225C28.7201 48.225 24.5402 48.2697 23.4414 48.2258L23.3615 50.2242C24.5127 50.2702 28.7928 50.225 32.0715 50.225V48.225ZM24.396 49.1203C24.3433 48.6199 24.3433 47.8201 24.396 47.3197L22.407 47.1103C22.3396 47.7499 22.3396 48.6901 22.407 49.3297L24.396 49.1203ZM23.4389 48.2143C24.6234 48.1699 32.9895 48.1409 34.3116 48.2135L34.4213 46.2165C33.0134 46.1391 24.5796 46.1701 23.364 46.2157L23.4389 48.2143ZM33.3682 47.2744C33.4415 48.5047 33.4397 51.8737 33.37 52.6956L35.3629 52.8644C35.4432 51.9163 35.4415 48.4453 35.3647 47.1556L33.3682 47.2744ZM34.2385 51.7882C34.0757 51.8092 33.6936 51.825 33.2471 51.825C32.8068 51.825 32.3947 51.8098 32.1819 51.7861L31.961 53.7739C32.2882 53.8102 32.7911 53.825 33.2471 53.825C33.6969 53.825 34.1923 53.8108 34.4944 53.7718L34.2385 51.7882ZM33.0708 52.7443C33.0416 51.9263 33.0418 49.972 33.0706 49.2658L31.0723 49.1842C31.0411 49.948 31.0413 51.9537 31.0721 52.8157L33.0708 52.7443ZM34.4823 54.0725C34.5341 54.552 34.5354 55.2487 34.481 55.8202L36.472 56.0098C36.5375 55.3213 36.5388 54.488 36.4707 53.8575L34.4823 54.0725ZM35.3978 54.9181C34.8785 54.9591 32.6991 54.975 30.1815 54.975V56.975C32.6438 56.975 34.9345 56.9609 35.5552 56.9119L35.3978 54.9181ZM29.1815 55.9869C29.1967 57.2596 29.2109 59.6864 29.1824 60.3575L31.1806 60.4425C31.212 59.7036 31.1962 57.2104 31.1814 55.9631L29.1815 55.9869ZM30.121 59.4018C29.6695 59.4292 28.507 59.4298 27.9364 59.4012L27.8365 61.3988C28.4659 61.4302 29.7035 61.4308 30.242 61.3982L30.121 59.4018ZM28.8852 60.3501C28.857 59.785 28.8414 57.2924 28.8712 55.998L26.8717 55.952C26.8415 57.2676 26.856 59.815 26.8877 60.4499L28.8852 60.3501ZM27.8778 54.975C25.4947 54.9599 23.3446 54.9449 22.6164 54.9158L22.5365 56.9142C23.3084 56.9451 25.5082 56.9601 27.8651 56.975L27.8778 54.975ZM23.5703 55.8046C23.5188 55.3407 23.5179 54.5871 23.5712 54.067L21.5817 53.863C21.515 54.5129 21.5141 55.4093 21.5826 56.0254L23.5703 55.8046ZM22.5957 54.9648C25.7017 54.9051 34.0582 54.935 35.4552 54.9648L35.4977 52.9652C34.0748 52.9349 25.6912 52.9049 22.5572 52.9652L22.5957 54.9648ZM52.4247 52.99L53.4182 52.8765L53.3192 52.0101L52.4474 51.9903L52.4247 52.99ZM52.4247 54.865L52.4943 55.8626L53.3336 55.804L53.4195 54.967L52.4247 54.865ZM39.5247 54.865L38.5316 54.9818L38.632 55.8353L39.4908 55.8644L39.5247 54.865ZM39.5247 52.99L39.5 51.9903L38.6246 52.0119L38.5305 52.8825L39.5247 52.99ZM44.8047 52.96V53.96H45.8047V52.96H44.8047ZM44.8047 51.88H45.8047V50.88H44.8047V51.88ZM40.4997 51.835L39.5017 51.8985L39.5578 52.7797L40.4392 52.8332L40.4997 51.835ZM40.4997 46.945L40.4353 45.9471L39.5446 46.0045L39.5009 46.896L40.4997 46.945ZM51.4497 46.945L52.4482 46.89L52.3989 45.9944L51.5032 45.9464L51.4497 46.945ZM51.4497 51.835L51.521 52.8325L52.3533 52.773L52.4438 51.9434L51.4497 51.835ZM47.1447 51.88V50.88H46.1447V51.88H47.1447ZM47.1447 52.96H46.1447V53.96H47.1447V52.96ZM42.6597 48.76L42.6294 47.7605L41.6597 47.7898V48.76H42.6597ZM42.6597 50.035H41.6597V50.9925L42.6163 51.0341L42.6597 50.035ZM49.2897 50.035L49.3373 51.0339L50.2897 50.9885V50.035H49.2897ZM49.2897 48.76H50.2897V47.7777L49.3076 47.7602L49.2897 48.76ZM40.3047 55.735L40.2548 54.7362L39.3998 54.779L39.3102 55.6303L40.3047 55.735ZM51.5997 55.735L52.5971 55.6629L52.5336 54.7848L51.6546 54.7365L51.5997 55.735ZM51.5997 60.37L51.6552 61.3685L52.5435 61.3191L52.5978 60.4311L51.5997 60.37ZM49.3047 60.37L48.3055 60.4092L48.3411 61.318L49.2492 61.3685L49.3047 60.37ZM49.3047 57.64H50.3047V56.64H49.3047V57.64ZM40.3047 57.64L39.3102 57.7447L39.4007 58.6046L40.2647 58.6392L40.3047 57.64ZM51.4312 53.1035C51.4821 53.5494 51.4834 54.2417 51.4299 54.763L53.4195 54.967C53.486 54.3183 53.4873 53.4806 53.4182 52.8765L51.4312 53.1035ZM52.3551 53.8674C51.1204 53.9536 41.3245 53.9254 39.5586 53.8656L39.4908 55.8644C41.265 55.9246 51.149 55.9564 52.4943 55.8626L52.3551 53.8674ZM40.5179 54.7482C40.4673 54.3188 40.4663 53.5843 40.5189 53.0975L38.5305 52.8825C38.4631 53.5057 38.4621 54.3912 38.5316 54.9818L40.5179 54.7482ZM39.5494 53.9897C40.7489 53.9601 42.7283 53.96 44.8047 53.96V51.96C42.7411 51.96 40.7306 51.9599 39.5 51.9903L39.5494 53.9897ZM45.8047 52.96V51.88H43.8047V52.96H45.8047ZM44.8047 50.88C42.7784 50.88 41.017 50.8645 40.5602 50.8368L40.4392 52.8332C40.9724 52.8655 42.811 52.88 44.8047 52.88V50.88ZM41.4977 51.7715C41.396 50.173 41.4245 48.5039 41.4985 46.994L39.5009 46.896C39.4249 48.4461 39.3934 50.197 39.5017 51.8985L41.4977 51.7715ZM40.5641 47.9429C40.9867 47.9157 43.4658 47.9037 46.0077 47.9056C48.5438 47.9075 51.0104 47.9229 51.3962 47.9436L51.5032 45.9464C51.049 45.9221 48.5056 45.9075 46.0092 45.9056C43.5186 45.9038 40.9427 45.9143 40.4353 45.9471L40.5641 47.9429ZM50.4512 47C50.5405 48.6222 50.5364 50.9857 50.4556 51.7266L52.4438 51.9434C52.543 51.0343 52.5389 48.5378 52.4482 46.89L50.4512 47ZM51.3785 50.8375C51.0041 50.8643 49.223 50.88 47.1447 50.88V52.88C49.1764 52.88 51.0553 52.8657 51.521 52.8325L51.3785 50.8375ZM46.1447 51.88V52.96H48.1447V51.88H46.1447ZM47.1447 53.96C49.5909 53.96 51.755 53.975 52.402 53.9897L52.4474 51.9903C51.7744 51.975 49.5885 51.96 47.1447 51.96V53.96ZM41.6597 48.76V50.035H43.6597V48.76H41.6597ZM42.6163 51.0341C43.3338 51.0653 48.6743 51.0654 49.3373 51.0339L49.2421 49.0361C48.6452 49.0646 43.3656 49.0647 42.7031 49.0359L42.6163 51.0341ZM50.2897 50.035V48.76H48.2897V50.035H50.2897ZM49.3076 47.7602C48.4631 47.7451 43.6439 47.7297 42.6294 47.7605L42.69 49.7595C43.6555 49.7303 48.4363 49.7449 49.2719 49.7598L49.3076 47.7602ZM40.3546 56.7338C41.5241 56.6753 50.2189 56.6606 51.5448 56.7335L51.6546 54.7365C50.2505 54.6594 41.4853 54.6747 40.2548 54.7362L40.3546 56.7338ZM50.6023 55.8071C50.6881 56.9936 50.6449 59.6013 50.6016 60.3089L52.5978 60.4311C52.6445 59.6687 52.6913 56.9664 52.5971 55.6629L50.6023 55.8071ZM51.5442 59.3715C51.0412 59.3995 49.8632 59.3995 49.3602 59.3715L49.2492 61.3685C49.8262 61.4005 51.0782 61.4005 51.6552 61.3685L51.5442 59.3715ZM50.3039 60.3308C50.2749 59.5898 50.3047 58.6044 50.3047 57.64H48.3047C48.3047 58.5056 48.2745 59.6202 48.3055 60.4092L50.3039 60.3308ZM49.3047 56.64C45.9538 56.64 41.4434 56.6847 40.3447 56.6408L40.2647 58.6392C41.416 58.6853 46.0256 58.64 49.3047 58.64V56.64ZM41.2992 57.5353C41.2465 57.0349 41.2465 56.3401 41.2992 55.8397L39.3102 55.6303C39.2429 56.2699 39.2429 57.1051 39.3102 57.7447L41.2992 57.5353ZM66.2235 53.77L67.2171 53.6565L67.1158 52.77H66.2235V53.77ZM66.2235 55.6L66.2931 56.5976L67.1325 56.539L67.2183 55.702L66.2235 55.6ZM53.3235 55.6L52.3304 55.7168L52.4308 56.5703L53.2897 56.5994L53.3235 55.6ZM53.3235 53.77L53.3112 52.7701L52.4246 52.781L52.3293 53.6625L53.3235 53.77ZM58.6035 53.74V54.74H59.6035V53.74H58.6035ZM58.6035 53.14H59.6035V52.14H58.6035V53.14ZM54.2985 53.08L53.3012 53.1525L53.366 54.0435L54.2586 54.0792L54.2985 53.08ZM54.2985 49.12V48.12H53.3579L53.3004 49.0589L54.2985 49.12ZM62.8335 49.12V50.12H63.8335V49.12H62.8335ZM62.8335 48.565H63.8335V47.565H62.8335V48.565ZM54.3285 48.565L53.3368 48.693L53.4493 49.565H54.3285V48.565ZM54.3285 46.795L54.3182 45.7951L53.4693 45.8038L53.3402 46.6429L54.3285 46.795ZM65.0985 46.78L66.0904 46.6528L65.9812 45.8012L65.1229 45.7803L65.0985 46.78ZM65.0985 50.785V51.785H65.989L66.0918 50.9005L65.0985 50.785ZM56.5635 50.785V49.785H55.5635V50.785H56.5635ZM56.5635 51.34H55.5635V52.34H56.5635V51.34ZM65.2485 51.34L66.2424 51.2296L66.1436 50.34H65.2485V51.34ZM65.2485 53.08L65.3173 54.0776L66.1936 54.0172L66.2467 53.1405L65.2485 53.08ZM60.9435 53.14V52.14H59.9435V53.14H60.9435ZM60.9435 53.755H59.9435V54.755H60.9435V53.755ZM54.1035 56.29L54.0536 55.2912L53.1986 55.334L53.109 56.1853L54.1035 56.29ZM65.3985 56.29L66.3959 56.2179L66.3325 55.3398L65.4534 55.2915L65.3985 56.29ZM65.3985 60.355L65.454 61.3535L66.3412 61.3042L66.3966 60.4174L65.3985 60.355ZM63.1035 60.355L62.1043 60.395L62.1407 61.303L63.0481 61.3535L63.1035 60.355ZM63.1035 58.165L64.1033 58.185L64.1237 57.165H63.1035V58.165ZM54.1035 58.165L53.109 58.2697L53.1996 59.1296L54.0636 59.1642L54.1035 58.165ZM65.23 53.8835C65.281 54.3294 65.2822 54.9767 65.2288 55.498L67.2183 55.702C67.2849 55.0533 67.2861 54.2606 67.2171 53.6565L65.23 53.8835ZM66.1539 54.6024C64.9192 54.6886 55.1233 54.6604 53.3574 54.6006L53.2897 56.5994C55.0638 56.6596 64.9479 56.6914 66.2931 56.5976L66.1539 54.6024ZM54.3167 55.4832C54.2662 55.0538 54.2651 54.3643 54.3177 53.8775L52.3293 53.6625C52.262 54.2857 52.2609 55.1262 52.3304 55.7168L54.3167 55.4832ZM53.3359 54.7699C54.5468 54.755 56.5377 54.74 58.6035 54.74V52.74C56.5294 52.74 54.5303 52.755 53.3112 52.7701L53.3359 54.7699ZM59.6035 53.74V53.14H57.6035V53.74H59.6035ZM58.6035 52.14C56.7643 52.14 55.0693 52.11 54.3385 52.0808L54.2586 54.0792C55.0277 54.11 56.7528 54.14 58.6035 54.14V52.14ZM55.2959 53.0075C55.2392 52.2275 55.2094 50.6071 55.2967 49.1811L53.3004 49.0589C53.2077 50.5729 53.2379 52.2825 53.3012 53.1525L55.2959 53.0075ZM54.2985 50.12H62.8335V48.12H54.2985V50.12ZM63.8335 49.12V48.565H61.8335V49.12H63.8335ZM62.8335 47.565H54.3285V49.565H62.8335V47.565ZM55.3203 48.437C55.2701 48.0481 55.2736 47.2288 55.3169 46.9471L53.3402 46.6429C53.2635 47.1412 53.2669 48.1519 53.3368 48.693L55.3203 48.437ZM54.3388 47.7949C58.7074 47.7499 63.2496 47.7352 65.0742 47.7797L65.1229 45.7803C63.2575 45.7348 58.6797 45.7501 54.3182 45.7951L54.3388 47.7949ZM64.1067 46.9072C64.1343 47.1226 64.1548 47.8909 64.1548 48.76C64.1548 49.6231 64.1347 50.416 64.1052 50.6695L66.0918 50.9005C66.1374 50.509 66.1548 49.5919 66.1548 48.76C66.1548 47.9341 66.1378 47.0224 66.0904 46.6528L64.1067 46.9072ZM65.0985 49.785H56.5635V51.785H65.0985V49.785ZM55.5635 50.785V51.34H57.5635V50.785H55.5635ZM56.5635 52.34H65.2485V50.34H56.5635V52.34ZM64.2547 51.4504C64.304 51.8948 64.2806 52.5208 64.2504 53.0195L66.2467 53.1405C66.2765 52.6492 66.313 51.8652 66.2424 51.2296L64.2547 51.4504ZM65.1797 52.0824C64.7864 52.1095 63.0094 52.14 60.9435 52.14V54.14C62.9876 54.14 64.8407 54.1105 65.3173 54.0776L65.1797 52.0824ZM59.9435 53.14V53.755H61.9435V53.14H59.9435ZM60.9435 54.755C62.1641 54.755 63.3176 54.7587 64.2489 54.7625C65.1776 54.7662 65.8909 54.77 66.2235 54.77V52.77C65.8962 52.77 65.192 52.7663 64.2569 52.7625C63.3245 52.7588 62.168 52.755 60.9435 52.755V54.755ZM54.1535 57.2888C55.323 57.2303 64.0177 57.2156 65.3437 57.2885L65.4534 55.2915C64.0493 55.2144 55.2841 55.2297 54.0536 55.2912L54.1535 57.2888ZM64.4011 56.3621C64.4868 57.5476 64.4438 59.5997 64.4005 60.2926L66.3966 60.4174C66.4433 59.6703 66.4902 57.5224 66.3959 56.2179L64.4011 56.3621ZM65.3431 59.3565C64.84 59.3845 63.6621 59.3845 63.159 59.3565L63.0481 61.3535C63.625 61.3855 64.8771 61.3855 65.454 61.3535L65.3431 59.3565ZM64.1027 60.315C64.0741 59.6001 64.0882 58.9404 64.1033 58.185L62.1037 58.145C62.0888 58.8896 62.0729 59.6099 62.1043 60.395L64.1027 60.315ZM63.1035 57.165C59.7527 57.165 55.2422 57.2097 54.1435 57.1658L54.0636 59.1642C55.2148 59.2103 59.8244 59.165 63.1035 59.165V57.165ZM55.098 58.0603C55.0454 57.5599 55.0454 56.8951 55.098 56.3947L53.109 56.1853C53.0417 56.8249 53.0417 57.6301 53.109 58.2697L55.098 58.0603Z" mask="url(#path-6-outside-1_11_15)"/></svg>