<svg fill="none" viewBox="0 0 250 52"><rect width="246" height="48" x="2" y="2" fill="#A4E96B" stroke="#44A342" stroke-width="4" rx="14"/><mask id="a" width="98" height="27" x="69" y="12" fill="#000" maskUnits="userSpaceOnUse"><path fill="#fff" d="M69 12h98v27H69z"/><path d="M85.536 27.912c-1.872-1.056-3.816-2.208-5.64-3.456-1.704 1.44-3.624 2.88-5.304 4.056-.6-.504-1.704-1.824-2.112-2.568a329.85 329.85 0 005.496-4.176V19.68c-2.376 0-4.464 0-5.184-.048-.096-.96-.096-2.184 0-3.048.84-.024 2.832-.048 5.16-.048 0-.648 0-1.32.048-1.776.648-.12 2.88-.144 3.72 0 .048.456.048 1.128.048 1.776 1.872 0 3.696.024 5.136.048.072.912.072 2.208 0 3.048-.936.024-2.928.048-5.16.048v2.04c1.896 1.176 3.672 2.232 5.664 3.456-.312.768-1.296 2.16-1.872 2.736zM92.64 30.6c-.744.096-2.736.072-3.576 0-.072-2.064-.072-13.656 0-15.48.648-.096 2.736-.12 3.576 0 .048 2.592.072 13.104 0 15.48zm.408 3.072c.096.864.096 2.232 0 3.12-1.92.12-15.696.12-17.88 0-.12-1.776-.072-5.592 0-7.008.744-.072 2.712-.072 3.576 0 .048 1.2.048 2.592 0 3.888 5.304-.024 12.504-.048 14.304 0zM109.99 18.96c-5.304 0-12.072.072-13.872 0a17.992 17.992 0 010-3.216c1.92-.072 15.36-.12 17.544 0 .12 2.016.12 7.488 0 8.904-.744.096-2.808.096-3.672 0-.048-1.344-.048-4.512 0-5.688zm5.448 7.584c.096.888.096 2.112 0 3.12-.912.072-4.488.096-8.472.096.024 2.016.048 5.952 0 7.08-.792.048-2.712.048-3.672 0-.048-.96-.072-4.992-.024-7.08-3.792-.024-7.272-.048-8.472-.096-.096-.864-.096-2.184 0-3.12 4.992-.096 18.384-.048 20.64 0zm27.117-1.56c.096.84.096 2.064 0 3-2.064.144-17.808.096-20.64 0-.096-.816-.096-2.112 0-3 1.944-.048 5.136-.048 8.448-.048v-1.728c-3.216 0-6.096-.024-6.888-.072-.168-2.64-.12-5.376 0-7.824 1.488-.096 16.176-.072 17.52 0 .144 2.616.144 6.504 0 7.824-.672.048-3.6.072-6.888.072v1.728c3.912 0 7.392.024 8.448.048zm-15.624-6.768v2.04c1.104.048 9.6.048 10.608 0v-2.04c-1.344-.024-9.024-.048-10.608 0zm-3.768 11.16c1.92-.096 15.888-.12 18.072 0 .144 1.992.072 6.24 0 7.416-.864.048-2.808.048-3.672 0-.048-1.224 0-2.904 0-4.368-5.304 0-12.6.072-14.4 0a16.165 16.165 0 010-3.048zm41.47-3.144c.096.84.096 1.992 0 2.928-2.064.144-17.808.096-20.64 0-.096-.816-.096-2.04 0-2.928 1.944-.024 5.136-.048 8.448-.048v-.96c-2.952 0-5.688-.048-6.888-.096-.096-1.32-.144-3.984 0-6.336h13.656v-.888h-13.608c-.096-.744-.096-2.208 0-2.832 6.984-.072 14.28-.096 17.232-.024.12.936.12 5.376 0 6.408h-13.656v.888h13.896c.096.864.048 1.992 0 2.784-.696.048-3.6.096-6.888.096v.984c3.912 0 7.392.024 8.448.024zm-19.392 4.032c1.92-.096 15.888-.12 18.072 0 .144 1.992.072 5.352 0 6.504-.864.048-2.808.048-3.672 0-.048-1.2-.024-2.304 0-3.504-5.304 0-12.6.072-14.4 0a15.661 15.661 0 010-3z"/></mask><path fill="#252525" d="M85.536 27.912c-1.872-1.056-3.816-2.208-5.64-3.456-1.704 1.44-3.624 2.88-5.304 4.056-.6-.504-1.704-1.824-2.112-2.568a329.85 329.85 0 005.496-4.176V19.68c-2.376 0-4.464 0-5.184-.048-.096-.96-.096-2.184 0-3.048.84-.024 2.832-.048 5.16-.048 0-.648 0-1.32.048-1.776.648-.12 2.88-.144 3.72 0 .048.456.048 1.128.048 1.776 1.872 0 3.696.024 5.136.048.072.912.072 2.208 0 3.048-.936.024-2.928.048-5.16.048v2.04c1.896 1.176 3.672 2.232 5.664 3.456-.312.768-1.296 2.16-1.872 2.736zM92.64 30.6c-.744.096-2.736.072-3.576 0-.072-2.064-.072-13.656 0-15.48.648-.096 2.736-.12 3.576 0 .048 2.592.072 13.104 0 15.48zm.408 3.072c.096.864.096 2.232 0 3.12-1.92.12-15.696.12-17.88 0-.12-1.776-.072-5.592 0-7.008.744-.072 2.712-.072 3.576 0 .048 1.2.048 2.592 0 3.888 5.304-.024 12.504-.048 14.304 0zM109.99 18.96c-5.304 0-12.072.072-13.872 0a17.992 17.992 0 010-3.216c1.92-.072 15.36-.12 17.544 0 .12 2.016.12 7.488 0 8.904-.744.096-2.808.096-3.672 0-.048-1.344-.048-4.512 0-5.688zm5.448 7.584c.096.888.096 2.112 0 3.12-.912.072-4.488.096-8.472.096.024 2.016.048 5.952 0 7.08-.792.048-2.712.048-3.672 0-.048-.96-.072-4.992-.024-7.08-3.792-.024-7.272-.048-8.472-.096-.096-.864-.096-2.184 0-3.12 4.992-.096 18.384-.048 20.64 0zm27.117-1.56c.096.84.096 2.064 0 3-2.064.144-17.808.096-20.64 0-.096-.816-.096-2.112 0-3 1.944-.048 5.136-.048 8.448-.048v-1.728c-3.216 0-6.096-.024-6.888-.072-.168-2.64-.12-5.376 0-7.824 1.488-.096 16.176-.072 17.52 0 .144 2.616.144 6.504 0 7.824-.672.048-3.6.072-6.888.072v1.728c3.912 0 7.392.024 8.448.048zm-15.624-6.768v2.04c1.104.048 9.6.048 10.608 0v-2.04c-1.344-.024-9.024-.048-10.608 0zm-3.768 11.16c1.92-.096 15.888-.12 18.072 0 .144 1.992.072 6.24 0 7.416-.864.048-2.808.048-3.672 0-.048-1.224 0-2.904 0-4.368-5.304 0-12.6.072-14.4 0a16.165 16.165 0 010-3.048zm41.47-3.144c.096.84.096 1.992 0 2.928-2.064.144-17.808.096-20.64 0-.096-.816-.096-2.04 0-2.928 1.944-.024 5.136-.048 8.448-.048v-.96c-2.952 0-5.688-.048-6.888-.096-.096-1.32-.144-3.984 0-6.336h13.656v-.888h-13.608c-.096-.744-.096-2.208 0-2.832 6.984-.072 14.28-.096 17.232-.024.12.936.12 5.376 0 6.408h-13.656v.888h13.896c.096.864.048 1.992 0 2.784-.696.048-3.6.096-6.888.096v.984c3.912 0 7.392.024 8.448.024zm-19.392 4.032c1.92-.096 15.888-.12 18.072 0 .144 1.992.072 5.352 0 6.504-.864.048-2.808.048-3.672 0-.048-1.2-.024-2.304 0-3.504-5.304 0-12.6.072-14.4 0a15.661 15.661 0 010-3z"/><path fill="#fff" d="M85.536 27.912l-.983 1.742 1.323.746 1.074-1.074-1.414-1.414zm-5.64-3.456l1.13-1.65-1.258-.86-1.163.982 1.291 1.528zm-5.304 4.056l-1.286 1.531 1.175.988 1.258-.88-1.147-1.639zm-2.112-2.568l-1.19-1.607-1.403 1.038.84 1.53 1.753-.961zm5.496-4.176L79.2 23.35l.776-.6v-.982h-2zm0-2.088h2v-2h-2v2zm-5.184-.048l-1.99.199.168 1.684 1.689.113.133-1.996zm0-3.048l-.057-2-1.739.05-.192 1.73 1.988.22zm5.16-.048v2h2v-2h-2zM78 14.76l-.364-1.967-1.469.272-.156 1.486L78 14.76zm3.72 0l1.989-.21-.159-1.505-1.492-.256-.338 1.971zm.048 1.776h-2v2h2v-2zm5.136.048l1.994-.157-.143-1.812-1.818-.03-.033 1.999zm0 3.048l.051 2 1.789-.047.153-1.782-1.993-.171zm-5.16.048v-2h-2v2h2zm0 2.04h-2v1.113l.946.587 1.054-1.7zm5.664 3.456l1.853.753.638-1.57-1.444-.887-1.047 1.704zM92.64 30.6l.256 1.984 1.691-.219.052-1.704-1.999-.061zm-3.576 0l-1.999.07.062 1.771 1.766.152.171-1.993zm0-15.48l-.293-1.978-1.64.242-.065 1.657 1.998.079zm3.576 0l2-.037-.032-1.702-1.685-.24-.283 1.979zm.408 18.552l1.988-.22-.193-1.733-1.742-.046-.053 1.999zm0 3.12l.125 1.996 1.682-.105.181-1.676-1.988-.215zm-17.88 0l-1.996.135.12 1.765 1.766.097.11-1.997zm0-7.008l-.193-1.99-1.717.165-.087 1.723 1.997.102zm3.576 0l1.998-.08-.07-1.766-1.762-.147-.166 1.993zm0 3.888l-1.999-.074-.077 2.083 2.085-.009-.009-2zm7.775-7.502c-1.85-1.044-3.738-2.164-5.494-3.365l-2.258 3.302c1.892 1.294 3.892 2.479 5.786 3.547l1.966-3.484zm-7.914-3.242a73.862 73.862 0 01-5.16 3.945l2.294 3.277a77.829 77.829 0 005.448-4.166l-2.582-3.056zm-2.727 4.053c-.161-.136-.497-.483-.873-.938-.376-.455-.659-.856-.771-1.06l-3.508 1.923c.296.539.77 1.17 1.197 1.687.428.517.944 1.082 1.383 1.45l2.572-3.062zm-2.208.57a332.35 332.35 0 005.53-4.2l-2.448-3.165a327.348 327.348 0 01-5.462 4.15l2.38 3.216zm6.306-5.783V19.68h-4v2.088h4zm-2-4.088c-2.431 0-4.418-.001-5.051-.044l-.266 3.992c.807.053 2.996.052 5.317.052v-4zm-3.194 1.753c-.084-.835-.081-1.918-.002-2.628l-3.976-.442c-.113 1.018-.11 2.383-.002 3.468l3.98-.398zm-1.933-.85a222.04 222.04 0 015.103-.047v-4c-2.334 0-4.349.024-5.217.049l.114 3.998zm7.103-2.047c0-.693.003-1.24.037-1.567l-3.978-.418c-.062.585-.059 1.382-.059 1.985h4zm-1.588.19a8.424 8.424 0 01.48-.04c.275-.015.607-.024.952-.025.741-.003 1.354.03 1.586.07l.676-3.942c-.608-.104-1.531-.131-2.278-.128-.733.003-1.621.036-2.144.132l.728 3.934zm1.367-1.757c.034.327.037.874.037 1.567h4c0-.603.003-1.4-.059-1.985l-3.978.418zm2.037 3.567c1.856 0 3.668.024 5.103.048l.066-4a314.198 314.198 0 00-5.169-.048v4zm3.142-1.795c.064.812.063 1.998.001 2.72l3.986.342c.082-.958.08-2.364 0-3.376l-3.987.314zm1.943.892c-.913.023-2.886.047-5.109.047v4a236 236 0 005.211-.049l-.102-3.998zm-7.109 2.047v2.04h4v-2.04h-4zm.946 3.74c1.882 1.167 3.729 2.267 5.671 3.46l2.094-3.408c-2.042-1.255-3.747-2.267-5.657-3.452l-2.108 3.4zm4.865 1.003c-.071.176-.294.57-.629 1.055-.327.473-.638.854-.804 1.02l2.828 2.828c.41-.41.879-1.013 1.266-1.572.379-.548.804-1.233 1.045-1.825l-3.706-1.506zm6.83 4.193c-.543.07-2.375.058-3.15-.009l-.342 3.986c.905.077 3.057.113 4.003-.01l-.512-3.967zm-1.322 1.914c-.07-2.02-.07-13.563 0-15.331l-3.997-.158c-.075 1.88-.074 13.521 0 15.629l3.997-.14zm-1.706-13.432c.168-.024.724-.056 1.431-.059.702-.003 1.306.023 1.57.06l.565-3.959c-.577-.082-1.436-.104-2.151-.101-.709.003-1.521.031-2.001.103l.586 3.956zm1.283-1.941c.048 2.58.072 13.055 0 15.382l4 .122c.073-2.425.048-12.974 0-15.578l-4 .074zm.42 18.736c.08.715.08 1.937 0 2.684l3.976.43a18.859 18.859 0 000-3.556l-3.976.442zm1.863.903c-1.832.114-15.529.115-17.645-.001l-.22 3.994c2.252.124 16.107.125 18.115 0l-.25-3.993zm-15.76 1.861c-.112-1.667-.067-5.396.002-6.771l-3.994-.204c-.075 1.458-.126 5.36.001 7.245l3.992-.27zm-1.802-4.882c.607-.06 2.454-.061 3.217.002l.332-3.986c-.965-.08-3.054-.083-3.935.002l.386 3.982zm1.385-1.911a50.518 50.518 0 010 3.734l3.997.148c.05-1.343.05-2.787 0-4.042l-3.997.16zm2.007 5.808c5.328-.024 12.482-.048 14.242 0l.106-4c-1.84-.048-9.086-.024-14.366 0l.018 4zM109.99 18.96l1.998.082.085-2.082h-2.083v2zm-13.872 0l-1.989.21.181 1.72 1.728.068.08-1.998zm0-3.216l-.075-1.999-1.732.065-.182 1.725 1.99.209zm17.544 0l1.997-.119-.106-1.78-1.781-.098-.11 1.997zm0 8.904l.256 1.984 1.601-.207.136-1.608-1.993-.169zm-3.672 0l-1.999.071.062 1.726 1.716.19.221-1.987zm5.448 1.896l1.989-.215-.189-1.747-1.757-.038-.043 2zm0 3.12l.158 1.994 1.674-.132.159-1.672-1.991-.19zm-8.472.096v-2h-2.024l.024 2.024 2-.024zm0 7.08l.121 1.996 1.801-.109.076-1.802-1.998-.085zm-3.672 0l-1.997.1.09 1.807 1.807.09.1-1.997zm-.024-7.08l2 .046.046-2.033-2.033-.013-.013 2zm-8.472-.096l-1.988.22.19 1.71 1.718.068.08-1.998zm0-3.12l-.038-2-1.77.034-.181 1.762 1.99.204zm15.192-9.584c-5.377 0-12.044.072-13.792.002l-.16 3.996c1.853.075 8.721.002 13.952.002v-4zm-11.883 1.79a16.07 16.07 0 010-2.797l-3.978-.418a19.95 19.95 0 000 3.634l3.978-.418zm-1.914-1.007c1.889-.071 15.261-.117 17.359-.002l.22-3.994c-2.27-.125-15.778-.075-17.729-.002l.15 3.998zm15.473-1.88c.116 1.956.113 7.326.003 8.616l3.986.338c.131-1.542.127-7.116.004-9.192l-3.993.238zm1.74 6.801c-.233.03-.821.056-1.535.056-.701 0-1.342-.024-1.66-.06l-.442 3.976c.547.06 1.369.084 2.102.084.72 0 1.536-.022 2.047-.088l-.512-3.968zm-1.417 1.913c-.047-1.3-.046-4.417-.001-5.535l-3.996-.164c-.051 1.234-.05 4.453-.001 5.841l3.998-.142zm1.461 2.182c.079.737.082 1.825-.003 2.715l3.982.38c.107-1.125.11-2.486-.002-3.525l-3.977.43zm1.831.911c-.811.064-4.276.09-8.315.09v4c3.929 0 7.616-.022 8.63-.102l-.315-3.988zm-10.315 2.114c.025 2.041.047 5.91.002 6.971l3.996.17c.051-1.196.026-5.198.002-7.189l-4 .048zm1.879 5.06c-.705.042-2.55.044-3.451-.002l-.2 3.995c1.019.051 3.014.053 3.893 0l-.242-3.993zm-1.553 1.896c-.045-.89-.07-4.867-.022-6.934l-3.999-.092c-.049 2.11-.026 6.196.026 7.226l3.995-.2zm-2.009-8.98c-3.818-.024-7.249-.048-8.405-.094l-.16 3.996c1.244.05 4.774.074 8.539.098l.026-4zm-6.497 1.683c-.08-.712-.081-1.889.002-2.695l-3.98-.408c-.109 1.066-.11 2.529.002 3.545l3.976-.442zm-1.95-.9c4.965-.095 18.33-.047 20.56 0l.085-3.998c-2.282-.05-15.701-.097-20.721 0l.077 3.999zm47.719-3.559l1.987-.227-.198-1.733-1.743-.04-.046 2zm0 3l.14 1.995 1.678-.117.172-1.674-1.99-.204zm-20.64 0l-1.986.234.201 1.707 1.718.058.067-1.999zm0-3l-.049-2-1.751.044-.188 1.741 1.988.215zm8.448-.048v2h2v-2h-2zm0-1.728h2v-2h-2v2zm-6.888-.072l-1.996.127.113 1.762 1.762.107.121-1.996zm0-7.824l-.128-1.996-1.782.115-.087 1.783 1.997.098zm17.52 0l1.997-.11-.098-1.791-1.792-.096-.107 1.997zm0 7.824l.143 1.995 1.665-.119.181-1.66-1.989-.216zm-6.888.072v-2h-2v2h2zm0 1.728h-2v2h2v-2zm-7.176-6.72l-.06-2-1.94.06v1.94h2zm0 2.04h-2v1.915l1.913.083.087-1.998zm10.608 0l.095 1.998 1.905-.091v-1.907h-2zm0-2.04h2v-1.965l-1.964-.035-.036 2zm-14.376 11.16l-.1-1.998-1.709.086-.18 1.703 1.989.209zm18.072 0l1.995-.144-.127-1.756-1.758-.097-.11 1.997zm0 7.416l.111 1.997 1.777-.099.109-1.776-1.997-.122zm-3.672 0l-1.998.078.071 1.818 1.816.1.111-1.996zm0-4.368h2v-2h-2v2zm-14.4 0l-1.989.21.181 1.72 1.728.068.08-1.998zm17.405-7.213c.078.682.081 1.76-.002 2.569l3.979.408c.109-1.063.111-2.433-.003-3.431l-3.974.454zm1.848.778c-1.953.136-17.609.092-20.433-.004l-.135 3.998c2.84.096 18.672.148 20.847-.004l-.279-3.99zm-18.514 1.761c-.077-.654-.08-1.8.002-2.551l-3.977-.43c-.111 1.024-.113 2.471.002 3.449l3.973-.468zm-1.937-.767c1.913-.047 5.074-.047 8.398-.047v-4c-3.299 0-6.522 0-8.497.049l.099 3.998zm10.398-2.047v-1.728h-4v1.728h4zm-2-3.728c-3.248 0-6.051-.025-6.767-.068l-.242 3.992c.869.053 3.826.076 7.009.076v-4zm-4.892 1.801c-.161-2.537-.116-5.191.002-7.6l-3.995-.195c-.122 2.488-.173 5.306.001 8.049l3.992-.254zm-1.867-5.701c.659-.043 4.606-.062 8.684-.059 4.066.003 7.997.028 8.6.06l.214-3.994c-.74-.04-4.825-.063-8.811-.066-3.975-.003-8.116.014-8.944.067l.257 3.992zm15.394-1.886c.143 2.59.135 6.345.009 7.497l3.977.434c.162-1.488.154-5.51.008-8.15l-3.994.219zm1.855 5.72c-.581.04-3.411.066-6.746.066v4c3.242 0 6.268-.023 7.031-.077l-.285-3.99zm-8.746 2.066v1.728h4v-1.728h-4zm2 3.728c3.915 0 7.373.024 8.403.047l.091-3.998c-1.082-.025-4.584-.049-8.494-.049v4zm-9.176-8.72v2.04h4v-2.04h-4zm1.913 4.038c1.159.05 9.716.05 10.79 0l-.19-3.996c-.942.045-9.377.046-10.426 0l-.174 3.996zm12.695-1.998v-2.04h-4v2.04h4zm-1.964-4.04c-1.353-.024-9.071-.049-10.704 0l.121 4c1.535-.047 9.176-.024 10.512 0l.071-4zm-14.312 15.157c1.859-.092 15.757-.116 17.863 0l.219-3.994c-2.262-.124-16.301-.1-18.282 0l.2 3.994zm15.978-1.853c.135 1.875.067 6.029-.002 7.15l3.993.244c.075-1.23.151-5.573-.002-7.682l-3.989.288zm1.883 5.275c-.79.044-2.66.044-3.45 0l-.222 3.994a48.62 48.62 0 003.894 0l-.222-3.994zm-1.562 1.919c-.046-1.176.001-2.727.001-4.29h-4c0 1.365-.048 3.174.002 4.446l3.997-.156zm-1.999-6.29c-5.375 0-12.572.072-14.32.002l-.16 3.996c1.853.075 9.248.002 14.48.002v-4zm-12.411 1.79a14.254 14.254 0 010-2.629l-3.978-.418a18.251 18.251 0 000 3.466l3.978-.418zm39.481-5.982l1.988-.227-.203-1.773h-1.785v2zm0 2.928l.14 1.995 1.678-.117.172-1.674-1.99-.204zm-20.64 0l-1.986.234.201 1.707 1.718.058.067-1.999zm0-2.928l-.024-2-1.773.022-.191 1.763 1.988.215zm8.448-.048v2h2v-2h-2zm0-.96h2v-2h-2v2zm-6.888-.096l-1.994.145.129 1.782 1.786.071.079-1.998zm0-6.336v-2h-1.881l-.115 1.878 1.996.122zm13.656 0v2h2v-2h-2zm0-.888h2v-2h-2v2zm-13.608 0l-1.983.256.225 1.744h1.758v-2zm0-2.832l-.02-2-1.698.018-.258 1.678 1.976.304zm17.232-.024l1.984-.254-.218-1.704-1.717-.041-.049 1.999zm0 6.408v2h1.781l.206-1.769-1.987-.231zm-13.656 0v-2h-2v2h2zm0 .888h-2v2h2v-2zm13.896 0l1.988-.22-.197-1.78h-1.791v2zm0 2.784l.138 1.995 1.753-.12.106-1.754-1.997-.121zm-6.888.096v-2h-2v2h2zm0 .984h-2v2h2v-2zm-10.944 4.056l-.099-1.997-1.71.085-.18 1.703 1.989.209zm18.072 0l1.995-.144-.127-1.756-1.758-.097-.11 1.997zm0 6.504l.111 1.997 1.775-.099.111-1.773-1.997-.125zm-3.672 0l-1.998.08.073 1.816 1.814.1.111-1.996zm0-3.504l2 .04.041-2.04h-2.041v2zm-14.4 0l-1.989.21.181 1.72 1.728.068.08-1.998zm17.405-6.805c.078.682.081 1.689-.002 2.497l3.979.408c.109-1.064.112-2.36-.002-3.36l-3.975.455zm1.848.706c-1.953.136-17.609.092-20.433-.004l-.135 3.998c2.84.096 18.672.148 20.847-.004l-.279-3.99zm-18.514 1.761c-.077-.654-.079-1.727.002-2.479l-3.977-.43c-.111 1.024-.113 2.4.002 3.377l3.973-.468zm-1.962-.694a736 736 0 018.423-.048v-4c-3.32 0-6.52.024-8.472.048l.049 4zm10.423-2.048v-.96h-4v.96h4zm-2-2.96c-2.94 0-5.646-.048-6.808-.094l-.159 3.996c1.238.05 4.004.098 6.967.098v-4zm-4.893 1.759c-.089-1.23-.137-3.805.002-6.069l-3.993-.244c-.149 2.44-.101 5.193.002 6.603l3.989-.29zm-1.995-4.191h13.656v-4h-13.656v4zm15.656-2v-.888h-4v.888h4zm-2-2.888h-13.608v4h13.608v-4zm-11.624 1.744c-.076-.592-.07-1.864-.007-2.272l-3.953-.608c-.13.84-.123 2.496-.007 3.392l3.967-.512zm-1.963-.576c6.991-.072 14.252-.096 17.163-.025l.097-3.998c-2.993-.073-10.324-.049-17.301.023l.041 4zm15.228-1.77c.04.314.073 1.515.073 2.914 0 1.387-.032 2.63-.076 3.009l3.973.462c.076-.654.103-2.146.103-3.471 0-1.313-.026-2.8-.106-3.422l-3.967.508zm1.983 4.154h-13.656v4h13.656v-4zm-15.656 2v.888h4v-.888h-4zm2 2.888h13.896v-4h-13.896v4zm11.909-1.78c.074.674.04 1.644-.009 2.443l3.993.242c.047-.785.108-2.07-.009-3.126l-3.975.442zm1.85.569c-.613.042-3.441.091-6.751.091v4c3.267 0 6.247-.047 7.026-.1l-.275-3.991zm-8.751 2.091v.984h4v-.984h-4zm2 2.984c1.953 0 3.798.006 5.287.012 1.485.006 2.628.012 3.161.012v-4c-.522 0-1.647-.006-3.145-.012-1.492-.006-3.343-.012-5.303-.012v4zm-10.844 4.053c1.859-.092 15.757-.116 17.863 0l.219-3.994c-2.262-.124-16.3-.1-18.281 0l.199 3.994zm15.978-1.853c.135 1.873.067 5.137-.002 6.235l3.993.25c.075-1.206.151-4.662-.002-6.773l-3.989.288zm1.883 4.363c-.79.044-2.66.044-3.45 0l-.222 3.994a48.62 48.62 0 003.894 0l-.222-3.994zm-1.562 1.917c-.045-1.13-.023-2.173.001-3.384l-3.999-.08c-.024 1.19-.05 2.354.001 3.624l3.997-.16zm-1.999-5.424c-5.375 0-12.572.072-14.32.002l-.16 3.996c1.853.075 9.248.002 14.48.002v-4zm-12.411 1.79a13.74 13.74 0 010-2.58l-3.978-.42a17.75 17.75 0 000 3.42l3.978-.42z" mask="url(#a)"/><path fill="#CA87FF" stroke="#6C484D" stroke-width="2" d="M26.625 18.5a6.5 6.5 0 1113 0 6.5 6.5 0 01-13 0zM21 39.26a9.445 9.445 0 019.447-9.447h5.356a9.445 9.445 0 019.447 9.447.74.74 0 01-.74.74H21.74a.74.74 0 01-.74-.74zm34.701.74h-6.658c.054-.283.082-.575.082-.875v-.469c0-2.986-1.032-5.736-2.756-7.906h1.68a8.45 8.45 0 018.451 8.451.8.8 0 01-.799.799zM45.312 25a5.535 5.535 0 01-3.324-1.103A10.33 10.33 0 0043.5 18.5a10.33 10.33 0 00-.792-3.979 5.545 5.545 0 012.605-.646 5.56 5.56 0 015.562 5.563A5.56 5.56 0 0145.312 25z"/><path fill="#6C484D" d="M30 16h1v3h-1zm16 1h1v3h-1zm-11-1h1v3h-1z"/></svg>