<svg fill="none" viewBox="0 0 250 52"><rect width="246" height="48" x="2" y="2" fill="#A4E96B" stroke="#44A342" stroke-width="4" rx="14"/><mask id="a" width="141" height="28" x="70" y="12" fill="#000" maskUnits="userSpaceOnUse"><path fill="#fff" d="M70 12h141v28H70z"/><path d="M86.616 19.68c-2.088.048-12.6.048-14.016 0a15.911 15.911 0 010-3.024c.48-.024 2.688-.048 5.28-.048 0-.624 0-1.32.048-1.848.648-.144 2.808-.144 3.768 0 .024.528.048 1.2.024 1.848 2.064 0 3.936.024 4.896.048.048.84.072 2.208 0 3.024zm7.296.912c.072.912.072 2.328 0 3.24-.384.048-1.104.072-2.064.072 0 2.472-.024 4.728-.048 5.736-.744.096-2.736.072-3.576 0-.072-2.064-.072-12.696 0-14.52.648-.096 2.736-.12 3.576 0 .024 1.008.024 3.12.048 5.424.84 0 1.56.024 2.064.048zM79.8 28.2c-4.896 0-6.696-1.056-6.696-3.96 0-3.024 2.016-3.96 6.696-3.96 4.896 0 6.696 1.056 6.696 3.96 0 3.024-2.016 3.96-6.696 3.96zm0-5.088c-2.64 0-3.336.264-3.336 1.128 0 .888.792 1.152 3.336 1.152 2.64 0 3.336-.288 3.336-1.152 0-.864-.792-1.128-3.336-1.128zm5.112 6.144c.024.768.048 1.44.048 2.04 2.832.888 6 1.896 7.944 2.544-.048.84-.72 2.52-1.056 3.072-1.632-.456-5.424-1.656-8.712-2.832-3.288 1.224-7.152 2.496-8.688 2.952-.36-.552-1.056-2.136-1.128-2.952 1.944-.72 5.064-1.8 7.848-2.76 0-.6.024-1.272.048-2.064.648-.072 2.856-.096 3.696 0zm31.174-6.168c.096.912.096 2.496 0 3.408-.384.048-1.128.072-2.136.072 0 4.464-.024 8.784-.072 10.152-.744.096-2.76.072-3.6 0-.096-2.784-.072-18.816 0-21.6.648-.144 2.76-.12 3.6 0 .048 1.272.072 4.416.072 7.92.888 0 1.608.024 2.136.048zm-16.752 8.808c1.968-.048 7.152-.048 9.168 0 .096.912.096 2.304 0 3.216-2.184.096-10.272.12-12.864 0-.144-2.808-.12-16.56 0-19.32 2.136-.096 9.552-.072 11.424 0 .096.84.096 2.328 0 3.24-1.44.048-6.264.048-7.728 0 0 1.392.024 3.048.024 4.8 2.184-.024 5.304 0 7.104 0 .096.912.072 2.304 0 3.216-1.752.048-4.944.024-7.104 0 0 1.704-.024 3.36-.024 4.848zm33.886-5.448c-.072-2.064-.072-9.504 0-11.328.648-.096 2.736-.12 3.576 0 .048 2.592.072 8.952 0 11.328-.744.096-2.736.072-3.576 0zm-9.504-.48c-4.8 0-6.672-1.944-6.672-5.352 0-3.384 1.872-5.352 6.672-5.352s6.672 1.968 6.672 5.352c0 3.408-1.872 5.352-6.672 5.352zm0-3.048c2.232 0 3.096-.768 3.096-2.304 0-1.536-.864-2.304-3.096-2.304-2.28 0-3.096.768-3.096 2.304 0 1.536.816 2.304 3.096 2.304zm-4.752 13.872c-.12-2.616-.072-6.84 0-9.264 1.488-.096 17.184-.072 17.832 0 .096 1.896.096 7.464 0 9.264-1.608.144-15.96.168-17.832 0zm3.528-3c1.104.072 9.768.048 10.776 0 .048-.696.048-2.376 0-3.24-1.344-.072-9.192-.048-10.776 0-.048.744-.072 2.28 0 3.24zm37.821 2.928c-.096-2.784-.072-18.816 0-21.6.648-.144 2.76-.12 3.6 0 .096 3.288.096 18.744 0 21.6-.744.096-2.76.072-3.6 0zm-9.36-1.032c-4.8 0-6.792-2.304-6.792-10.224s1.992-10.224 6.792-10.224 6.768 2.304 6.768 10.224-1.968 10.224-6.768 10.224zm0-3.36c2.424 0 3.096-1.296 3.096-6.864s-.672-6.864-3.096-6.864-3.12 1.296-3.12 6.864.696 6.864 3.12 6.864zm35.303-1.368c-.648.096-2.568.048-3.408 0-.048-2.184-.024-14.304 0-15.84.648-.12 2.688-.12 3.408 0 .048 2.04.048 13.656 0 15.84zm-10.2-3.792c-1.704.096-7.632.12-9.576 0-.048-1.848-.048-9.552 0-11.376.936-.096 2.52-.072 3.336 0v2.904c.96-.024 1.968-.024 2.928 0v-2.904a25.419 25.419 0 013.312 0c.024.768.048 2.304.048 4.008a25.609 25.609 0 011.92 0c0-2.208.024-4.008.048-4.56.648-.12 2.664-.096 3.384 0 .072 2.064.024 13.416 0 15.552-.648.072-2.544.072-3.384 0-.048-1.08-.072-4.464-.072-7.848-.6.024-1.272.024-1.896 0 0 2.04-.024 3.816-.048 4.224zm-6.24-5.496v2.568c1.152.048 1.896.048 2.928 0v-2.568c-.96.024-1.992.024-2.928 0zm16.848 12c.096.864.096 2.232 0 3.12-1.92.12-16.176.12-18.36 0-.12-1.776-.072-6.432 0-7.848.744-.072 2.712-.072 3.576 0 .048 1.2.048 3.432 0 4.728 5.304-.024 12.984-.048 14.784 0zm21.07-4.392c-1.968.096-15.912.072-18.264 0-.144-2.808-.12-10.776 0-13.536 2.328-.12 15.384-.072 17.784 0 .096.912.096 2.28 0 3.192-1.68.048-12.264.048-14.064 0 0 .36-.024 1.104-.024 1.992 3.144-.024 11.448 0 13.368 0 .096.912.072 2.28 0 3.192-1.872.048-10.224.024-13.368 0 0 .912.024 1.68.024 2.016 1.896 0 12.768-.024 14.544 0 .072.936.072 2.376 0 3.144zm1.056 3.744c.096.888.096 2.112 0 3.12-2.064.144-17.808.096-20.64 0-.096-.864-.096-2.184 0-3.12 4.992-.096 18.384-.048 20.64 0z"/></mask><path fill="#252525" d="M86.616 19.68c-2.088.048-12.6.048-14.016 0a15.911 15.911 0 010-3.024c.48-.024 2.688-.048 5.28-.048 0-.624 0-1.32.048-1.848.648-.144 2.808-.144 3.768 0 .024.528.048 1.2.024 1.848 2.064 0 3.936.024 4.896.048.048.84.072 2.208 0 3.024zm7.296.912c.072.912.072 2.328 0 3.24-.384.048-1.104.072-2.064.072 0 2.472-.024 4.728-.048 5.736-.744.096-2.736.072-3.576 0-.072-2.064-.072-12.696 0-14.52.648-.096 2.736-.12 3.576 0 .024 1.008.024 3.12.048 5.424.84 0 1.56.024 2.064.048zM79.8 28.2c-4.896 0-6.696-1.056-6.696-3.96 0-3.024 2.016-3.96 6.696-3.96 4.896 0 6.696 1.056 6.696 3.96 0 3.024-2.016 3.96-6.696 3.96zm0-5.088c-2.64 0-3.336.264-3.336 1.128 0 .888.792 1.152 3.336 1.152 2.64 0 3.336-.288 3.336-1.152 0-.864-.792-1.128-3.336-1.128zm5.112 6.144c.024.768.048 1.44.048 2.04 2.832.888 6 1.896 7.944 2.544-.048.84-.72 2.52-1.056 3.072-1.632-.456-5.424-1.656-8.712-2.832-3.288 1.224-7.152 2.496-8.688 2.952-.36-.552-1.056-2.136-1.128-2.952 1.944-.72 5.064-1.8 7.848-2.76 0-.6.024-1.272.048-2.064.648-.072 2.856-.096 3.696 0zm31.174-6.168c.096.912.096 2.496 0 3.408-.384.048-1.128.072-2.136.072 0 4.464-.024 8.784-.072 10.152-.744.096-2.76.072-3.6 0-.096-2.784-.072-18.816 0-21.6.648-.144 2.76-.12 3.6 0 .048 1.272.072 4.416.072 7.92.888 0 1.608.024 2.136.048zm-16.752 8.808c1.968-.048 7.152-.048 9.168 0 .096.912.096 2.304 0 3.216-2.184.096-10.272.12-12.864 0-.144-2.808-.12-16.56 0-19.32 2.136-.096 9.552-.072 11.424 0 .096.84.096 2.328 0 3.24-1.44.048-6.264.048-7.728 0 0 1.392.024 3.048.024 4.8 2.184-.024 5.304 0 7.104 0 .096.912.072 2.304 0 3.216-1.752.048-4.944.024-7.104 0 0 1.704-.024 3.36-.024 4.848zm33.886-5.448c-.072-2.064-.072-9.504 0-11.328.648-.096 2.736-.12 3.576 0 .048 2.592.072 8.952 0 11.328-.744.096-2.736.072-3.576 0zm-9.504-.48c-4.8 0-6.672-1.944-6.672-5.352 0-3.384 1.872-5.352 6.672-5.352s6.672 1.968 6.672 5.352c0 3.408-1.872 5.352-6.672 5.352zm0-3.048c2.232 0 3.096-.768 3.096-2.304 0-1.536-.864-2.304-3.096-2.304-2.28 0-3.096.768-3.096 2.304 0 1.536.816 2.304 3.096 2.304zm-4.752 13.872c-.12-2.616-.072-6.84 0-9.264 1.488-.096 17.184-.072 17.832 0 .096 1.896.096 7.464 0 9.264-1.608.144-15.96.168-17.832 0zm3.528-3c1.104.072 9.768.048 10.776 0 .048-.696.048-2.376 0-3.24-1.344-.072-9.192-.048-10.776 0-.048.744-.072 2.28 0 3.24zm37.821 2.928c-.096-2.784-.072-18.816 0-21.6.648-.144 2.76-.12 3.6 0 .096 3.288.096 18.744 0 21.6-.744.096-2.76.072-3.6 0zm-9.36-1.032c-4.8 0-6.792-2.304-6.792-10.224s1.992-10.224 6.792-10.224 6.768 2.304 6.768 10.224-1.968 10.224-6.768 10.224zm0-3.36c2.424 0 3.096-1.296 3.096-6.864s-.672-6.864-3.096-6.864-3.12 1.296-3.12 6.864.696 6.864 3.12 6.864zm35.303-1.368c-.648.096-2.568.048-3.408 0-.048-2.184-.024-14.304 0-15.84.648-.12 2.688-.12 3.408 0 .048 2.04.048 13.656 0 15.84zm-10.2-3.792c-1.704.096-7.632.12-9.576 0-.048-1.848-.048-9.552 0-11.376.936-.096 2.52-.072 3.336 0v2.904c.96-.024 1.968-.024 2.928 0v-2.904a25.419 25.419 0 013.312 0c.024.768.048 2.304.048 4.008a25.609 25.609 0 011.92 0c0-2.208.024-4.008.048-4.56.648-.12 2.664-.096 3.384 0 .072 2.064.024 13.416 0 15.552-.648.072-2.544.072-3.384 0-.048-1.08-.072-4.464-.072-7.848-.6.024-1.272.024-1.896 0 0 2.04-.024 3.816-.048 4.224zm-6.24-5.496v2.568c1.152.048 1.896.048 2.928 0v-2.568c-.96.024-1.992.024-2.928 0zm16.848 12c.096.864.096 2.232 0 3.12-1.92.12-16.176.12-18.36 0-.12-1.776-.072-6.432 0-7.848.744-.072 2.712-.072 3.576 0 .048 1.2.048 3.432 0 4.728 5.304-.024 12.984-.048 14.784 0zm21.07-4.392c-1.968.096-15.912.072-18.264 0-.144-2.808-.12-10.776 0-13.536 2.328-.12 15.384-.072 17.784 0 .096.912.096 2.28 0 3.192-1.68.048-12.264.048-14.064 0 0 .36-.024 1.104-.024 1.992 3.144-.024 11.448 0 13.368 0 .096.912.072 2.28 0 3.192-1.872.048-10.224.024-13.368 0 0 .912.024 1.68.024 2.016 1.896 0 12.768-.024 14.544 0 .072.936.072 2.376 0 3.144zm1.056 3.744c.096.888.096 2.112 0 3.12-2.064.144-17.808.096-20.64 0-.096-.864-.096-2.184 0-3.12 4.992-.096 18.384-.048 20.64 0z"/><path fill="#fff" d="M86.616 19.68l.046 2 1.789-.042.157-1.782-1.992-.176zm-14.016 0l-1.989.21.182 1.73 1.74.059.067-1.999zm0-3.024l-.1-1.997-1.705.085-.183 1.697 1.988.215zm5.28-.048v2h2v-2h-2zm.048-1.848l-.434-1.952-1.426.316-.132 1.455 1.992.181zm3.768 0l1.998-.09-.075-1.644-1.626-.244-.297 1.978zm.024 1.848l-1.999-.074-.076 2.074h2.075v-2zm4.896.048l1.997-.114-.105-1.84-1.842-.045-.05 1.999zm7.296 3.936l1.994-.157-.139-1.757-1.76-.084-.095 1.998zm0 3.24l.248 1.985 1.618-.203.128-1.625-1.994-.157zm-2.064.072v-2h-2v2h2zM91.8 29.64l.256 1.984 1.703-.22.04-1.716-1.999-.048zm-3.576 0l-1.999.07.062 1.771 1.766.152.171-1.993zm0-14.52l-.293-1.978-1.64.242-.065 1.657 1.998.079zm3.576 0l2-.048-.04-1.692-1.677-.24-.283 1.98zm.048 5.424l-2 .02.02 1.98h1.98v-2zm-6.936 8.712l1.999-.063-.054-1.728-1.718-.196-.227 1.987zm.048 2.04h-2v1.469l1.402.44.598-1.909zm7.944 2.544l1.997.114.087-1.528-1.451-.483-.633 1.897zm-1.056 3.072l-.538 1.926 1.459.408.787-1.294-1.708-1.04zm-8.712-2.832l.674-1.883-.688-.246-.684.255.698 1.874zm-8.688 2.952l-1.675 1.093.815 1.249 1.43-.425-.57-1.917zM73.32 34.08l-.695-1.875-1.431.53.134 1.52 1.992-.175zm7.848-2.76l.652 1.89 1.348-.464V31.32h-2zm.048-2.064l-.22-1.988-1.727.192-.052 1.735 1.999.061zM86.57 17.68c-2.066.048-12.537.047-13.902.001l-.136 3.998c1.467.05 12.02.049 14.13 0l-.092-3.998zm-11.981 1.79a13.952 13.952 0 010-2.599l-3.977-.43a17.88 17.88 0 00-.001 3.448l3.978-.418zm-1.89-.816c.42-.021 2.569-.046 5.181-.046v-4c-2.572 0-4.838.023-5.38.05l.2 3.996zm7.181-2.046c0-.655.002-1.249.04-1.667l-3.984-.362c-.058.638-.056 1.436-.056 2.029h4zm-1.518.104c-.005.001.116-.02.41-.036.26-.016.582-.024.923-.024.712 0 1.373.036 1.704.086l.594-3.956c-.63-.094-1.528-.13-2.298-.13-.718 0-1.632.03-2.2.156l.867 3.904zm1.336-1.861c.024.52.044 1.122.023 1.683l3.998.148c.027-.735 0-1.477-.025-2.013l-3.996.182zm2.022 3.757c2.053 0 3.907.024 4.846.047l.1-3.998a221.24 221.24 0 00-4.946-.049v4zm2.9-1.838c.045.807.063 2.062.004 2.734l3.984.352c.085-.96.055-2.441.005-3.314l-3.994.228zm7.298 3.98c.064.807.064 2.117 0 2.925l3.988.314c.08-1.016.08-2.538 0-3.554l-3.988.314zm1.746 1.097c-.245.031-.848.057-1.816.057v4c.952 0 1.789-.022 2.312-.087l-.496-3.97zm-3.816 2.057c0 2.465-.024 4.703-.047 5.688l3.998.096c.025-1.031.049-3.305.049-5.784h-4zm1.696 3.752c-.542.07-2.374.058-3.15-.009l-.34 3.986c.904.077 3.056.113 4.002-.01l-.512-3.967zm-1.321 1.914c-.07-2.02-.07-12.603 0-14.371l-3.997-.158c-.075 1.88-.074 12.561 0 14.669l3.997-.14zm-1.706-12.472c.168-.024.724-.056 1.431-.059.702-.003 1.306.023 1.57.06l.565-3.959c-.577-.082-1.436-.104-2.151-.101-.709.003-1.521.031-2.001.103l.586 3.956zm1.284-1.93c.023.993.023 3.05.047 5.397l4-.042c-.024-2.261-.024-4.428-.049-5.45l-3.998.095zm2.047 7.376c.803 0 1.49.023 1.969.046l.19-3.996c-.53-.025-1.282-.05-2.159-.05v4zM79.8 26.2c-2.416 0-3.607-.282-4.167-.613-.218-.129-.31-.248-.37-.373-.075-.155-.159-.444-.159-.974h-4c0 .922.141 1.854.557 2.714.43.89 1.094 1.579 1.938 2.077 1.564.924 3.721 1.169 6.201 1.169v-4zm-4.696-1.96c0-.542.091-.832.17-.984.064-.128.165-.253.403-.387.599-.336 1.806-.589 4.123-.589v-4c-2.363 0-4.504.215-6.083 1.102-.851.479-1.546 1.155-2.006 2.053-.446.874-.607 1.835-.607 2.805h4zm4.696-1.96c2.416 0 3.607.282 4.167.613.218.129.31.248.37.373.075.155.159.444.159.974h4c0-.922-.141-1.854-.557-2.714-.43-.89-1.094-1.579-1.938-2.077-1.564-.924-3.721-1.169-6.201-1.169v4zm4.696 1.96c0 .542-.091.832-.17.985-.064.127-.165.252-.403.385-.599.337-1.806.59-4.123.59v4c2.363 0 4.504-.215 6.083-1.102.851-.479 1.547-1.155 2.006-2.053.446-.874.607-1.835.607-2.805h-4zM79.8 21.112c-1.28 0-2.443.05-3.31.35-.489.168-1.066.474-1.493 1.06-.434.596-.533 1.236-.533 1.718h4c0 .05-.012.333-.233.637-.214.293-.452.371-.436.366.028-.01.177-.052.545-.084.353-.03.825-.047 1.46-.047v-4zm-5.336 3.128c0 .527.123 1.176.573 1.767.433.57 1.008.868 1.492 1.034.875.3 2.03.351 3.271.351v-4a16.55 16.55 0 01-1.416-.047c-.361-.032-.517-.074-.557-.088-.032-.01.186.055.391.325.222.292.246.575.246.658h-4zm5.336 3.152c1.287 0 2.456-.056 3.33-.369.493-.175 1.062-.489 1.481-1.073.426-.593.525-1.227.525-1.71h-4c0-.051.012-.325.225-.621.206-.287.436-.367.424-.363-.025.01-.171.052-.535.086-.349.032-.819.05-1.45.05v4zm5.336-3.152a2.84 2.84 0 00-.586-1.77c-.437-.561-1.011-.852-1.489-1.013-.869-.293-2.018-.345-3.261-.345v4c.609 0 1.07.016 1.418.047.362.032.522.074.565.088.038.013-.179-.05-.388-.318a1.174 1.174 0 01-.259-.689h4zm-2.223 5.079c.025.786.047 1.417.047 1.977h4c0-.64-.026-1.353-.049-2.102l-3.998.125zm1.449 3.885c2.83.888 5.984 1.892 7.91 2.533l1.264-3.794a546.639 546.639 0 00-7.978-2.555l-1.196 3.816zm6.545.522c0-.003-.002.029-.015.1a3.651 3.651 0 01-.06.26 8.505 8.505 0 01-.228.715 7.923 7.923 0 01-.464 1.071l3.416 2.08c.27-.443.575-1.145.808-1.785.222-.611.495-1.478.537-2.213l-3.994-.228zm1.48 1.26c-1.578-.44-5.324-1.625-8.578-2.79l-1.346 3.767c3.322 1.188 7.16 2.404 8.847 2.875l1.076-3.852zm-9.949-2.78c-3.25 1.21-7.072 2.467-8.56 2.909l1.14 3.834c1.584-.47 5.49-1.757 8.816-2.995l-1.396-3.748zm-6.315 3.733a7.544 7.544 0 01-.491-1.03 7.908 7.908 0 01-.24-.672 3.48 3.48 0 01-.063-.243c-.015-.066-.017-.094-.017-.09l-3.984.352c.063.723.356 1.557.592 2.145.25.62.57 1.29.853 1.723l3.35-2.184zm-2.108.017c1.918-.71 5.014-1.783 7.805-2.745l-1.304-3.782c-2.777.958-5.92 2.046-7.89 2.776l1.389 3.75zm9.153-4.636c0-.561.022-1.19.047-2.003l-3.998-.122c-.023.772-.049 1.486-.049 2.125h4zm-1.731-.076A20.4 20.4 0 0183 31.193c.74-.003 1.395.017 1.685.05l.454-3.974c-.55-.063-1.418-.079-2.155-.076-.737.003-1.547.026-1.989.075l.442 3.976zm34.649-8.156l1.989-.21-.18-1.71-1.718-.078-.091 1.998zm0 3.408l.248 1.985 1.575-.197.166-1.579-1.989-.209zm-2.136.072v-2h-2v2h2zm-.072 10.152l.256 1.984 1.683-.218.06-1.696-1.999-.07zm-3.6 0l-1.999.069.061 1.772 1.767.152.171-1.993zm0-21.6l-.434-1.952-1.525.339-.04 1.561 1.999.052zm3.6 0l1.999-.075-.063-1.669-1.653-.236-.283 1.98zm.072 7.92h-2v2h2v-2zm-14.616 8.856h-2v2.05l2.049-.05-.049-2zm9.168 0l1.989-.21-.184-1.748-1.757-.041-.048 1.999zm0 3.216l.088 1.998 1.721-.076.18-1.713-1.989-.209zm-12.864 0l-1.997.102.093 1.812 1.812.084.092-1.998zm0-19.32l-.09-1.998-1.829.082-.079 1.83 1.998.086zm11.424 0l1.987-.227-.195-1.705-1.715-.066-.077 1.998zm0 3.24l.067 1.999 1.74-.058.182-1.732-1.989-.209zm-7.728 0l.066-1.999-2.066-.068v2.067h2zm.024 4.8h-2v2.022l2.022-.022-.022-2zm7.104 0l1.989-.21-.188-1.79h-1.801v2zm0 3.216l.055 2 1.797-.05.142-1.793-1.994-.157zm-7.104 0l.022-2-2.022-.022v2.022h2zm14.739-3.75c.081.772.081 2.216 0 2.989l3.978.418c.111-1.05.111-2.775 0-3.826l-3.978.418zm1.741 1.213c-.243.03-.868.057-1.888.057v4c.996 0 1.859-.022 2.384-.087l-.496-3.97zm-3.888 2.057c0 4.479-.024 8.757-.071 10.082l3.998.14c.049-1.411.073-5.773.073-10.222h-4zm1.672 8.168c-.542.07-2.398.058-3.173-.009l-.342 3.986c.906.077 3.081.113 4.027-.01l-.512-3.967zm-1.345 1.915c-.094-2.732-.071-18.721 0-21.48l-3.998-.103c-.073 2.81-.097 18.885 0 21.72l3.998-.137zm-1.565-19.579c-.01.003.103-.017.39-.032.255-.014.566-.02.896-.019.688.003 1.316.039 1.597.079l.566-3.96c-.559-.08-1.407-.116-2.146-.119-.684-.003-1.594.018-2.171.147l.868 3.904zm1.168-1.877c.046 1.227.07 4.332.07 7.845h4c0-3.495-.024-6.678-.073-7.995l-3.997.15zm2.07 9.845c.852 0 1.541.023 2.045.046l.182-3.996a48.592 48.592 0 00-2.227-.05v4zm-14.567 8.855c1.935-.047 7.087-.047 9.072 0l.095-3.998c-2.048-.05-7.264-.05-9.265 0l.098 3.998zm7.13-1.79a16.13 16.13 0 010 2.798l3.978.418a19.88 19.88 0 000-3.634l-3.978.418zm1.901 1.009c-2.13.094-10.157.117-12.683 0l-.185 3.996c2.658.123 10.806.098 13.044 0l-.176-3.996zM97.635 35.01c-.14-2.734-.117-16.421.001-19.131l-3.996-.174c-.122 2.81-.147 16.627 0 19.51l3.995-.205zm-1.907-17.22c2.069-.093 9.428-.07 11.257 0l.154-3.996c-1.915-.074-9.388-.099-11.59 0l.179 3.996zm9.347-1.77c.078.683.08 2.024-.002 2.803l3.978.418c.11-1.045.112-2.68-.002-3.676l-3.974.454zm1.92 1.013c-1.395.047-6.175.047-7.595 0l-.131 3.998c1.507.05 6.375.05 7.86 0l-.134-3.998zm-9.66 1.999c0 .705.005 1.476.011 2.28.006.807.012 1.652.012 2.52h4c0-.884-.006-1.743-.012-2.55-.006-.81-.012-1.563-.012-2.25h-4zm2.045 6.8c2.171-.024 5.254 0 7.082 0v-4c-1.771 0-4.929-.024-7.126 0l.044 4zm5.093-1.79c.079.746.062 2.005-.005 2.849l3.988.314c.077-.98.109-2.505-.005-3.582l-3.978.418zm1.934 1.007c-1.706.047-4.857.023-7.027 0l-.044 3.999c2.15.024 5.383.049 7.181 0l-.11-4zm-9.049 1.999c0 .844-.006 1.677-.012 2.49-.006.811-.012 1.605-.012 2.358h4c0-.735.006-1.513.012-2.328.006-.813.012-1.66.012-2.52h-4zm35.862-.6l-1.999.07.062 1.771 1.766.152.171-1.993zm0-11.328l-.293-1.978-1.64.242-.065 1.657 1.998.079zm3.576 0l2-.037-.032-1.702-1.685-.24-.283 1.979zm0 11.328l.256 1.984 1.692-.219.051-1.704-1.999-.061zm-17.832 10.344l-1.998.092.08 1.744 1.739.156.179-1.992zm0-9.264l-.129-1.996-1.816.117-.054 1.82 1.999.059zm17.832 0l1.998-.101-.086-1.699-1.691-.188-.221 1.988zm0 9.264l.179 1.992 1.726-.155.092-1.73-1.997-.107zm-14.304-3l-1.994.15.13 1.733 1.734.113.13-1.996zm10.776 0l.095 1.998 1.778-.085.123-1.775-1.996-.138zm0-3.24l1.997-.11-.099-1.791-1.791-.096-.107 1.997zm-10.776 0l-.06-2-1.818.056-.118 1.815 1.996.129zm12.727-4.174c-.07-2.02-.07-9.41 0-11.18l-3.997-.157c-.074 1.88-.074 9.37-.001 11.477l3.998-.14zm-1.706-9.28c.168-.024.724-.056 1.432-.059.701-.003 1.305.023 1.568.06l.566-3.959c-.577-.082-1.436-.104-2.151-.101-.709.003-1.521.031-2.001.103l.586 3.956zm1.284-1.941c.047 2.582.071 8.903 0 11.23l3.998.122c.074-2.425.049-8.824.001-11.426l-3.999.074zm1.743 9.307c-.542.07-2.374.058-3.149-.009l-.342 3.986c.906.077 3.057.113 4.003-.01l-.512-3.967zm-12.824-.496c-2.187 0-3.291-.452-3.837-.919-.479-.409-.835-1.093-.835-2.433h-4c0 2.068.58 4.06 2.237 5.475 1.59 1.357 3.822 1.877 6.435 1.877v-4zm-4.672-3.352c0-1.324.354-2.012.837-2.426.549-.47 1.654-.926 3.835-.926v-4c-2.618 0-4.849.528-6.437 1.888-1.653 1.416-2.235 3.404-2.235 5.464h4zm4.672-3.352c2.182 0 3.287.456 3.835.926.483.414.837 1.102.837 2.426h4c0-2.06-.582-4.048-2.235-5.464-1.587-1.36-3.818-1.888-6.437-1.888v4zm4.672 3.352c0 1.34-.356 2.024-.835 2.433-.546.467-1.65.919-3.837.919v4c2.613 0 4.845-.52 6.435-1.877 1.657-1.415 2.237-3.407 2.237-5.475h-4zm-4.672 4.304c1.269 0 2.589-.203 3.611-.996 1.142-.885 1.485-2.155 1.485-3.308h-4c0 .204-.029.272-.025.262a.315.315 0 01.088-.114c.027-.02-.014.022-.206.069-.196.047-.501.087-.953.087v4zm5.096-4.304c0-1.153-.343-2.423-1.485-3.308-1.022-.793-2.342-.996-3.611-.996v4c.452 0 .757.04.953.087.192.047.233.09.206.07a.314.314 0 01-.088-.114c-.004-.011.025.057.025.261h4zm-5.096-4.304c-1.281 0-2.614.199-3.638 1.003-1.145.9-1.458 2.18-1.458 3.301h4c0-.216.03-.29.027-.282a.355.355 0 01-.099.127c-.034.027-.001-.014.193-.061.197-.048.508-.088.975-.088v-4zm-5.096 4.304c0 1.121.313 2.402 1.458 3.301 1.024.804 2.357 1.003 3.638 1.003v-4c-.467 0-.778-.04-.975-.088-.194-.047-.227-.088-.193-.061.05.04.087.098.099.127.003.009-.027-.066-.027-.282h-4zm2.342 16.084c-.116-2.54-.07-6.703.001-9.113l-3.998-.118c-.072 2.438-.122 6.722.001 9.415l3.996-.184zm-1.869-7.176c.659-.043 4.857-.062 9.101-.059 2.093.002 4.158.008 5.738.02.791.005 1.457.01 1.943.018.561.009.742.017.7.013l.442-3.976c-.204-.022-.654-.03-1.082-.036-.502-.008-1.18-.014-1.975-.02a994.33 994.33 0 00-5.763-.019c-4.138-.003-8.533.014-9.362.067l.258 3.992zm15.706-1.895c.092 1.83.092 7.33 0 9.056l3.994.213c.1-1.872.1-7.51.001-9.471l-3.995.202zm1.819 7.171c-.691.062-4.557.106-8.64.109-4.082.003-8.014-.035-8.835-.109l-.358 3.984c1.052.094 5.231.128 9.196.125 3.963-.003 8.076-.043 8.994-.125l-.357-3.984zm-14.256.988c1.203.078 9.947.052 11.001.002l-.19-3.996c-.962.046-9.546.068-10.551.002l-.26 3.992zm12.902-1.858c.054-.796.053-2.56.001-3.489l-3.994.222c.045.8.043 2.395.002 2.991l3.991.276zm-1.889-5.375c-1.429-.077-9.343-.05-10.943-.002l.121 3.998c1.568-.047 9.349-.07 10.608-.002l.214-3.994zm-12.879 1.868c-.052.808-.079 2.44.002 3.519l3.989-.3c-.064-.842-.043-2.28.001-2.961l-3.992-.258zm39.817 6.297l-1.998.069.061 1.772 1.767.152.17-1.993zm0-21.6l-.433-1.952-1.526.339-.04 1.561 1.999.052zm3.6 0l2-.058-.05-1.684-1.667-.238-.283 1.98zm0 21.6l.256 1.984 1.686-.218.057-1.699-1.999-.067zm-1.601-.069c-.094-2.732-.071-18.721.001-21.48l-3.999-.103c-.073 2.81-.097 18.885.001 21.72l3.997-.137zm-1.565-19.579c-.01.003.103-.017.391-.032.254-.014.565-.02.895-.019.688.003 1.316.039 1.598.079l.565-3.96c-.558-.08-1.406-.116-2.146-.119-.683-.003-1.594.018-2.17.147l.867 3.904zm1.167-1.894c.095 3.253.095 18.666.001 21.475l3.997.134c.098-2.903.098-18.402.001-21.725l-3.999.116zm1.743 19.558c-.542.07-2.398.058-3.173-.009l-.341 3.986c.905.077 3.081.113 4.026-.01l-.512-3.967zm-12.704-1.048c-2.091 0-2.996-.488-3.558-1.29-.715-1.02-1.234-3.02-1.234-6.934h-4c0 4.005.478 7.118 1.959 9.23 1.634 2.33 4.125 2.994 6.833 2.994v-4zm-4.792-8.224c0-3.915.519-5.914 1.234-6.934.562-.802 1.467-1.29 3.558-1.29v-4c-2.708 0-5.199.664-6.833 2.994-1.481 2.112-1.959 5.225-1.959 9.23h4zm4.792-8.224c2.092 0 2.987.488 3.544 1.286.711 1.02 1.224 3.02 1.224 6.938h4c0-4.002-.47-7.114-1.943-9.226-1.628-2.334-4.116-2.998-6.825-2.998v4zm4.768 8.224c0 3.918-.513 5.918-1.224 6.938-.557.798-1.452 1.286-3.544 1.286v4c2.709 0 5.197-.664 6.825-2.998 1.473-2.112 1.943-5.224 1.943-9.226h-4zm-4.768 8.864c.756 0 1.617-.096 2.424-.512.863-.446 1.46-1.15 1.849-1.994.366-.791.557-1.719.668-2.715.113-1.012.155-2.222.155-3.643h-4c0 1.363-.041 2.403-.13 3.2-.091.813-.219 1.253-.324 1.481-.082.177-.108.145-.053.116a.442.442 0 01-.123.034 2.634 2.634 0 01-.466.033v4zm5.096-8.864c0-1.421-.042-2.63-.155-3.643-.111-.996-.302-1.924-.668-2.716-.389-.843-.986-1.547-1.849-1.993-.807-.416-1.668-.512-2.424-.512v4c.219 0 .367.015.466.033a.442.442 0 01.123.034c-.055-.029-.029-.06.053.115.105.229.233.67.324 1.482.089.797.13 1.837.13 3.2h4zm-5.096-8.864c-.756 0-1.616.096-2.423.51-.862.443-1.463 1.143-1.857 1.987-.371.792-.566 1.72-.68 2.719-.116 1.014-.16 2.226-.16 3.648h4c0-1.361.044-2.4.134-3.195.093-.81.223-1.25.329-1.478a.589.589 0 01.072-.13l-.008.006a.015.015 0 01-.003.002c.005-.003.141-.069.596-.069v-4zm-5.12 8.864c0 1.423.044 2.634.16 3.648.114.998.309 1.927.68 2.72.394.843.995 1.543 1.857 1.986.807.414 1.667.51 2.423.51v-4c-.455 0-.591-.066-.596-.069l.003.002.008.006a.589.589 0 01-.072-.13c-.106-.228-.236-.668-.329-1.478-.09-.795-.134-1.833-.134-3.195h-4zm40.423 5.496l.293 1.978 1.669-.247.037-1.687-1.999-.044zm-3.408 0l-2 .044.041 1.847 1.844.106.115-1.997zm0-15.84l-.365-1.967-1.61.299-.025 1.637 2 .031zm3.408 0l1.999-.047-.039-1.654-1.632-.272-.328 1.973zm-10.2 12.048l.112 1.997 1.779-.1.105-1.78-1.996-.117zm-9.576 0l-2 .052.048 1.831 1.828.113.124-1.996zm0-11.376l-.204-1.99-1.749.18-.047 1.757 2 .053zm3.336 0h2v-1.831l-1.825-.161-.175 1.992zm0 2.904h-2v2.05l2.05-.05-.05-2zm2.928 0l-.05 2 2.05.05v-2.05h-2zm0-2.904l-.154-1.994-1.846.142v1.852h2zm3.312 0l1.999-.063-.056-1.793-1.79-.138-.153 1.994zm.048 4.008h-2v2.078l2.076-.08-.076-1.998zm1.92 0l-.077 1.998 2.077.08V19.8h-2zm.048-4.56l-.365-1.967-1.564.29-.07 1.59 1.999.087zm3.384 0l1.998-.07-.059-1.69-1.675-.223-.264 1.983zm0 15.552l.22 1.988 1.76-.196.019-1.77-1.999-.022zm-3.384 0l-1.998.089.077 1.754 1.75.15.171-1.993zM178 22.944h2v-2.082l-2.08.084.08 1.998zm-1.896 0l.076-1.998-2.076-.08v2.078h2zm-6.288-1.272l.051-2-2.051-.052v2.052h2zm0 2.568h-2v1.918l1.916.08.084-1.998zm2.928 0l.092 1.998 1.908-.089V24.24h-2zm0-2.568h2v-2.05l-2.05.05.05 2zm13.92 12l1.987-.22-.192-1.733-1.742-.046-.053 1.999zm0 3.12l.124 1.996 1.683-.105.181-1.676-1.988-.215zm-18.36 0l-1.996.135.119 1.765 1.767.097.11-1.997zm0-7.848l-.193-1.99-1.717.165-.088 1.723 1.998.102zm3.576 0l1.998-.08-.071-1.766-1.761-.147-.166 1.993zm0 4.728l-1.999-.074-.077 2.083 2.085-.009-.009-2zm14.082-4.69h-.009a2.085 2.085 0 01-.129.012 8.53 8.53 0 01-.314.014c-.251.007-.551.009-.868.006a39.114 39.114 0 01-1.68-.05l-.229 3.993c.456.026 1.178.05 1.873.057.635.006 1.437 0 1.943-.076l-.587-3.956zm-1.115 1.934c-.047-2.15-.023-14.242 0-15.765l-3.999-.062c-.024 1.549-.049 13.696 0 15.915l3.999-.088zm-1.635-13.83a7.527 7.527 0 01.442-.037c.253-.012.557-.019.871-.019.676 0 1.22.032 1.402.063l.657-3.946c-.538-.09-1.374-.117-2.059-.117-.671 0-1.514.026-2.042.123l.729 3.934zm1.044-1.919c.047 2.008.047 13.593 0 15.75l3.999.087c.049-2.212.049-13.859 0-15.931l-3.999.094zm-8.313 10.004c-1.637.092-7.486.115-9.34 0l-.247 3.993c2.034.126 8.041.1 9.812 0l-.225-3.993zm-7.464 1.945c-.047-1.814-.047-9.483 0-11.271l-3.999-.106c-.049 1.86-.049 9.598 0 11.48l3.999-.103zm-1.795-9.334c.779-.08 2.232-.062 2.956.002l.351-3.984c-.908-.08-2.623-.11-3.715.002l.408 3.98zm1.132-1.99v2.904h4v-2.904h-4zm2.05 4.903a57.463 57.463 0 012.828 0l.1-3.998a61.627 61.627 0 00-3.028 0l.1 3.998zm4.878-1.999v-2.904h-4v2.904h4zm-1.847-.91a23.503 23.503 0 013.005 0l.307-3.988a27.35 27.35 0 00-3.619 0l.307 3.988zm1.16-1.932c.023.741.047 2.255.047 3.946h4c0-1.717-.025-3.275-.049-4.07l-3.998.124zm2.123 5.945a23.662 23.662 0 011.767 0l.153-3.997a27.557 27.557 0 00-2.073 0l.153 3.997zm3.844-1.999c0-2.213.024-3.971.046-4.473l-3.997-.174c-.026.602-.049 2.444-.049 4.647h4zm-1.588-2.593a7.337 7.337 0 01.426-.033c.251-.011.552-.016.866-.015.659.003 1.237.033 1.463.064l.529-3.965c-.494-.066-1.284-.096-1.975-.099-.653-.003-1.501.015-2.038.114l.729 3.934zm1.021-1.897c.07 2.007.023 13.307-.001 15.46l3.999.044c.024-2.12.073-13.523-.001-15.644l-3.997.14zm1.778 13.494c-.487.054-2.247.06-2.993-.005l-.341 3.986c.934.08 2.966.085 3.775-.005l-.441-3.976zm-1.165 1.9c-.046-1.026-.07-4.358-.07-7.76h-4c0 3.366.023 6.802.074 7.937l3.996-.178zm-2.15-9.758c-.546.021-1.166.021-1.74 0l-.153 3.996a26.49 26.49 0 002.052 0l-.159-3.996zm-3.816 1.998c0 2.06-.025 3.77-.045 4.107l3.993.234c.028-.48.052-2.322.052-4.341h-4zm-6.288-1.272v2.568h4v-2.568h-4zm1.916 4.566c1.204.05 2.008.05 3.104 0l-.185-3.996a27.79 27.79 0 01-2.752 0l-.167 3.996zm5.012-1.998v-2.568h-4v2.568h4zm-2.05-4.567c-.928.023-1.926.023-2.827 0l-.103 3.998c.971.025 2.037.025 3.03 0l-.1-3.998zm11.982 14.22c.079.715.08 1.937-.001 2.684l3.977.43c.111-1.029.112-2.543-.001-3.556l-3.975.442zm1.863.903c-1.832.114-16.009.115-18.126-.001l-.219 3.994c2.252.124 16.587.125 18.594 0l-.249-3.993zm-16.24 1.861c-.113-1.668-.068-6.238.002-7.611l-3.995-.204c-.074 1.46-.125 6.201.002 8.085l3.991-.27zm-1.803-5.722c.608-.06 2.454-.061 3.217.002l.333-3.986c-.965-.08-3.055-.083-3.935.002l.385 3.982zm1.385-1.911a75.801 75.801 0 010 4.574l3.997.148a79.45 79.45 0 000-4.882l-3.997.16zm2.008 6.648c5.328-.024 12.962-.048 14.721 0l.107-4c-1.841-.048-9.567-.024-14.846 0l.018 4zm35.845-6.392l.097 1.998 1.732-.085.162-1.726-1.991-.187zm-18.264 0l-1.998.102.095 1.84 1.841.057.062-1.999zm0-13.536l-.103-1.997-1.816.093-.079 1.817 1.998.087zm17.784 0l1.989-.21-.183-1.737-1.746-.052-.06 1.999zm0 3.192l.057 2 1.749-.05.183-1.74-1.989-.21zm-14.064 0l.053-2-2.053-.054v2.054h2zm-.024 1.992h-2v2.015l2.015-.015-.015-2zm13.368 0l1.989-.21-.189-1.79h-1.8v2zm0 3.192l.051 2 1.801-.047.141-1.796-1.993-.157zm-13.368 0l.015-2-2.015-.015v2.015h2zm.024 2.016h-2v2h2v-2zm14.544 0l1.994-.153-.14-1.822-1.827-.025-.027 2zm1.056 6.888l1.988-.215-.189-1.747-1.757-.038-.042 2zm0 3.12l.139 1.995 1.691-.118.161-1.687-1.991-.19zm-20.64 0l-1.988.22.191 1.72 1.729.059.068-1.999zm0-3.12l-.039-2-1.77.034-.181 1.762 1.99.204zm19.486-5.742c-1.892.093-15.777.07-18.105-.001l-.123 3.998c2.376.073 16.379.098 18.423-.001l-.195-3.996zm-16.169 1.896c-.14-2.733-.117-10.636.001-13.347l-3.996-.174c-.123 2.81-.148 10.842 0 13.725l3.995-.204zm-1.894-11.437c2.246-.115 15.237-.07 17.621.002l.12-3.998c-2.417-.073-15.537-.123-17.947.002l.206 3.994zm15.692-1.788c.081.773.081 2 0 2.774l3.978.418c.11-1.05.11-2.56 0-3.61l-3.978.418zm1.932.984c-1.641.047-12.188.047-13.954 0l-.107 3.998c1.835.05 12.456.05 14.175 0l-.114-3.998zm-16.007 1.999c0 .157-.006.402-.012.763-.006.346-.012.768-.012 1.229h4c0-.427.005-.821.011-1.159.006-.323.013-.63.013-.833h-4zm1.991 3.992c3.134-.024 11.416 0 13.353 0v-4c-1.904 0-10.23-.024-13.384 0l.031 4zm11.364-1.79c.078.746.061 1.981-.005 2.825l3.987.314c.078-.98.109-2.48-.004-3.558l-3.978.418zm1.937.983c-1.831.047-10.144.023-13.301 0l-.031 3.999c3.131.024 11.522.048 13.435 0l-.103-4zm-15.316 1.999c0 .473.006.906.012 1.258.006.37.012.613.012.758h4c0-.191-.007-.5-.013-.826-.006-.344-.011-.75-.011-1.19h-4zm2.024 4.016c1.919 0 12.759-.024 14.517 0l.054-4c-1.794-.024-12.699 0-14.571 0v4zm12.55-1.847c.065.846.062 2.17.002 2.804l3.983.374c.085-.903.082-2.458.003-3.484l-3.988.306zm1.061 6.95c.08.737.083 1.825-.002 2.715l3.982.38c.107-1.126.109-2.486-.003-3.525l-3.977.43zm1.849.91c-1.953.136-17.609.092-20.433-.004l-.135 3.998c2.84.096 18.672.148 20.847-.004l-.279-3.99zm-18.513 1.774c-.079-.712-.08-1.889.002-2.695l-3.979-.408c-.109 1.066-.111 2.529.002 3.545l3.975-.442zm-1.949-.9c4.964-.095 18.329-.047 20.559 0l.085-3.999c-2.282-.048-15.701-.096-20.721 0l.077 4z" mask="url(#a)"/><path fill="#E11D48" fill-rule="evenodd" stroke="#6C484D" stroke-linejoin="round" stroke-width="2" d="M40.122 11.458a1.138 1.138 0 00-1.626-.207 14.785 14.785 0 00-5.37 9.375 11.454 11.454 0 01-2.59-2.604 1.138 1.138 0 00-1.748-.124A13.618 13.618 0 0025 27.34C25 34.884 31.116 41 38.66 41c7.544 0 13.66-6.116 13.66-13.66 0-5.557-3.317-10.336-8.075-12.47a11.323 11.323 0 01-4.123-3.412zm4.23 18.16a5.692 5.692 0 11-11.1-1.78 9.068 9.068 0 003.238 1.519 9.09 9.09 0 012.921-5.383 5.693 5.693 0 014.94 5.643z" clip-rule="evenodd"/></svg>