<svg width="250" height="52" viewBox="0 0 250 52" fill="none" xmlns="http://www.w3.org/2000/svg">
<rect x="2" y="2" width="246" height="48" rx="14" fill="#A4E96B" stroke="#44A342" stroke-width="4"/>
<mask id="path-2-outside-1_1_7" maskUnits="userSpaceOnUse" x="70" y="12" width="141" height="28" fill="black">
<rect fill="white" x="70" y="12" width="141" height="28"/>
<path d="M86.616 19.68C84.528 19.728 74.016 19.728 72.6 19.68C72.504 18.768 72.504 17.544 72.6 16.656C73.08 16.632 75.288 16.608 77.88 16.608C77.88 15.984 77.88 15.288 77.928 14.76C78.576 14.616 80.736 14.616 81.696 14.76C81.72 15.288 81.744 15.96 81.72 16.608C83.784 16.608 85.656 16.632 86.616 16.656C86.664 17.496 86.688 18.864 86.616 19.68ZM93.912 20.592C93.984 21.504 93.984 22.92 93.912 23.832C93.528 23.88 92.808 23.904 91.848 23.904C91.848 26.376 91.824 28.632 91.8 29.64C91.056 29.736 89.064 29.712 88.224 29.64C88.152 27.576 88.152 16.944 88.224 15.12C88.872 15.024 90.96 15 91.8 15.12C91.824 16.128 91.824 18.24 91.848 20.544C92.688 20.544 93.408 20.568 93.912 20.592ZM79.8 28.2C74.904 28.2 73.104 27.144 73.104 24.24C73.104 21.216 75.12 20.28 79.8 20.28C84.696 20.28 86.496 21.336 86.496 24.24C86.496 27.264 84.48 28.2 79.8 28.2ZM79.8 23.112C77.16 23.112 76.464 23.376 76.464 24.24C76.464 25.128 77.256 25.392 79.8 25.392C82.44 25.392 83.136 25.104 83.136 24.24C83.136 23.376 82.344 23.112 79.8 23.112ZM84.912 29.256C84.936 30.024 84.96 30.696 84.96 31.296C87.792 32.184 90.96 33.192 92.904 33.84C92.856 34.68 92.184 36.36 91.848 36.912C90.216 36.456 86.424 35.256 83.136 34.08C79.848 35.304 75.984 36.576 74.448 37.032C74.088 36.48 73.392 34.896 73.32 34.08C75.264 33.36 78.384 32.28 81.168 31.32C81.168 30.72 81.192 30.048 81.216 29.256C81.864 29.184 84.072 29.16 84.912 29.256ZM116.086 23.088C116.182 24 116.182 25.584 116.086 26.496C115.702 26.544 114.958 26.568 113.95 26.568C113.95 31.032 113.926 35.352 113.878 36.72C113.134 36.816 111.118 36.792 110.278 36.72C110.182 33.936 110.206 17.904 110.278 15.12C110.926 14.976 113.038 15 113.878 15.12C113.926 16.392 113.95 19.536 113.95 23.04C114.838 23.04 115.558 23.064 116.086 23.088ZM99.3341 31.896C101.302 31.848 106.486 31.848 108.502 31.896C108.598 32.808 108.598 34.2 108.502 35.112C106.318 35.208 98.2301 35.232 95.6381 35.112C95.4941 32.304 95.5181 18.552 95.6381 15.792C97.7741 15.696 105.19 15.72 107.062 15.792C107.158 16.632 107.158 18.12 107.062 19.032C105.622 19.08 100.798 19.08 99.3341 19.032C99.3341 20.424 99.3581 22.08 99.3581 23.832C101.542 23.808 104.662 23.832 106.462 23.832C106.558 24.744 106.534 26.136 106.462 27.048C104.71 27.096 101.518 27.072 99.3581 27.048C99.3581 28.752 99.3341 30.408 99.3341 31.896ZM133.22 26.448C133.148 24.384 133.148 16.944 133.22 15.12C133.868 15.024 135.956 15 136.796 15.12C136.844 17.712 136.868 24.072 136.796 26.448C136.052 26.544 134.06 26.52 133.22 26.448ZM123.716 25.968C118.916 25.968 117.044 24.024 117.044 20.616C117.044 17.232 118.916 15.264 123.716 15.264C128.516 15.264 130.388 17.232 130.388 20.616C130.388 24.024 128.516 25.968 123.716 25.968ZM123.716 22.92C125.948 22.92 126.812 22.152 126.812 20.616C126.812 19.08 125.948 18.312 123.716 18.312C121.436 18.312 120.62 19.08 120.62 20.616C120.62 22.152 121.436 22.92 123.716 22.92ZM118.964 36.792C118.844 34.176 118.892 29.952 118.964 27.528C120.452 27.432 136.148 27.456 136.796 27.528C136.892 29.424 136.892 34.992 136.796 36.792C135.188 36.936 120.836 36.96 118.964 36.792ZM122.492 33.792C123.596 33.864 132.26 33.84 133.268 33.792C133.316 33.096 133.316 31.416 133.268 30.552C131.924 30.48 124.076 30.504 122.492 30.552C122.444 31.296 122.42 32.832 122.492 33.792ZM160.313 36.72C160.217 33.936 160.241 17.904 160.313 15.12C160.961 14.976 163.073 15 163.913 15.12C164.009 18.408 164.009 33.864 163.913 36.72C163.169 36.816 161.153 36.792 160.313 36.72ZM150.953 35.688C146.153 35.688 144.161 33.384 144.161 25.464C144.161 17.544 146.153 15.24 150.953 15.24C155.753 15.24 157.721 17.544 157.721 25.464C157.721 33.384 155.753 35.688 150.953 35.688ZM150.953 32.328C153.377 32.328 154.049 31.032 154.049 25.464C154.049 19.896 153.377 18.6 150.953 18.6C148.529 18.6 147.833 19.896 147.833 25.464C147.833 31.032 148.529 32.328 150.953 32.328ZM186.256 30.96C185.608 31.056 183.688 31.008 182.848 30.96C182.8 28.776 182.824 16.656 182.848 15.12C183.496 15 185.536 15 186.256 15.12C186.304 17.16 186.304 28.776 186.256 30.96ZM176.056 27.168C174.352 27.264 168.424 27.288 166.48 27.168C166.432 25.32 166.432 17.616 166.48 15.792C167.416 15.696 169 15.72 169.816 15.792V18.696C170.776 18.672 171.784 18.672 172.744 18.696V15.792C173.68 15.72 175.12 15.72 176.056 15.792C176.08 16.56 176.104 18.096 176.104 19.8C176.728 19.776 177.4 19.776 178.024 19.8C178.024 17.592 178.048 15.792 178.072 15.24C178.72 15.12 180.736 15.144 181.456 15.24C181.528 17.304 181.48 28.656 181.456 30.792C180.808 30.864 178.912 30.864 178.072 30.792C178.024 29.712 178 26.328 178 22.944C177.4 22.968 176.728 22.968 176.104 22.944C176.104 24.984 176.08 26.76 176.056 27.168ZM169.816 21.672V24.24C170.968 24.288 171.712 24.288 172.744 24.24V21.672C171.784 21.696 170.752 21.696 169.816 21.672ZM186.664 33.672C186.76 34.536 186.76 35.904 186.664 36.792C184.744 36.912 170.488 36.912 168.304 36.792C168.184 35.016 168.232 30.36 168.304 28.944C169.048 28.872 171.016 28.872 171.88 28.944C171.928 30.144 171.928 32.376 171.88 33.672C177.184 33.648 184.864 33.624 186.664 33.672ZM207.734 29.28C205.766 29.376 191.822 29.352 189.47 29.28C189.326 26.472 189.35 18.504 189.47 15.744C191.798 15.624 204.854 15.672 207.254 15.744C207.35 16.656 207.35 18.024 207.254 18.936C205.574 18.984 194.99 18.984 193.19 18.936C193.19 19.296 193.166 20.04 193.166 20.928C196.31 20.904 204.614 20.928 206.534 20.928C206.63 21.84 206.606 23.208 206.534 24.12C204.662 24.168 196.31 24.144 193.166 24.12C193.166 25.032 193.19 25.8 193.19 26.136C195.086 26.136 205.958 26.112 207.734 26.136C207.806 27.072 207.806 28.512 207.734 29.28ZM208.79 33.024C208.886 33.912 208.886 35.136 208.79 36.144C206.726 36.288 190.982 36.24 188.15 36.144C188.054 35.28 188.054 33.96 188.15 33.024C193.142 32.928 206.534 32.976 208.79 33.024Z"/>
</mask>
<path d="M86.616 19.68C84.528 19.728 74.016 19.728 72.6 19.68C72.504 18.768 72.504 17.544 72.6 16.656C73.08 16.632 75.288 16.608 77.88 16.608C77.88 15.984 77.88 15.288 77.928 14.76C78.576 14.616 80.736 14.616 81.696 14.76C81.72 15.288 81.744 15.96 81.72 16.608C83.784 16.608 85.656 16.632 86.616 16.656C86.664 17.496 86.688 18.864 86.616 19.68ZM93.912 20.592C93.984 21.504 93.984 22.92 93.912 23.832C93.528 23.88 92.808 23.904 91.848 23.904C91.848 26.376 91.824 28.632 91.8 29.64C91.056 29.736 89.064 29.712 88.224 29.64C88.152 27.576 88.152 16.944 88.224 15.12C88.872 15.024 90.96 15 91.8 15.12C91.824 16.128 91.824 18.24 91.848 20.544C92.688 20.544 93.408 20.568 93.912 20.592ZM79.8 28.2C74.904 28.2 73.104 27.144 73.104 24.24C73.104 21.216 75.12 20.28 79.8 20.28C84.696 20.28 86.496 21.336 86.496 24.24C86.496 27.264 84.48 28.2 79.8 28.2ZM79.8 23.112C77.16 23.112 76.464 23.376 76.464 24.24C76.464 25.128 77.256 25.392 79.8 25.392C82.44 25.392 83.136 25.104 83.136 24.24C83.136 23.376 82.344 23.112 79.8 23.112ZM84.912 29.256C84.936 30.024 84.96 30.696 84.96 31.296C87.792 32.184 90.96 33.192 92.904 33.84C92.856 34.68 92.184 36.36 91.848 36.912C90.216 36.456 86.424 35.256 83.136 34.08C79.848 35.304 75.984 36.576 74.448 37.032C74.088 36.48 73.392 34.896 73.32 34.08C75.264 33.36 78.384 32.28 81.168 31.32C81.168 30.72 81.192 30.048 81.216 29.256C81.864 29.184 84.072 29.16 84.912 29.256ZM116.086 23.088C116.182 24 116.182 25.584 116.086 26.496C115.702 26.544 114.958 26.568 113.95 26.568C113.95 31.032 113.926 35.352 113.878 36.72C113.134 36.816 111.118 36.792 110.278 36.72C110.182 33.936 110.206 17.904 110.278 15.12C110.926 14.976 113.038 15 113.878 15.12C113.926 16.392 113.95 19.536 113.95 23.04C114.838 23.04 115.558 23.064 116.086 23.088ZM99.3341 31.896C101.302 31.848 106.486 31.848 108.502 31.896C108.598 32.808 108.598 34.2 108.502 35.112C106.318 35.208 98.2301 35.232 95.6381 35.112C95.4941 32.304 95.5181 18.552 95.6381 15.792C97.7741 15.696 105.19 15.72 107.062 15.792C107.158 16.632 107.158 18.12 107.062 19.032C105.622 19.08 100.798 19.08 99.3341 19.032C99.3341 20.424 99.3581 22.08 99.3581 23.832C101.542 23.808 104.662 23.832 106.462 23.832C106.558 24.744 106.534 26.136 106.462 27.048C104.71 27.096 101.518 27.072 99.3581 27.048C99.3581 28.752 99.3341 30.408 99.3341 31.896ZM133.22 26.448C133.148 24.384 133.148 16.944 133.22 15.12C133.868 15.024 135.956 15 136.796 15.12C136.844 17.712 136.868 24.072 136.796 26.448C136.052 26.544 134.06 26.52 133.22 26.448ZM123.716 25.968C118.916 25.968 117.044 24.024 117.044 20.616C117.044 17.232 118.916 15.264 123.716 15.264C128.516 15.264 130.388 17.232 130.388 20.616C130.388 24.024 128.516 25.968 123.716 25.968ZM123.716 22.92C125.948 22.92 126.812 22.152 126.812 20.616C126.812 19.08 125.948 18.312 123.716 18.312C121.436 18.312 120.62 19.08 120.62 20.616C120.62 22.152 121.436 22.92 123.716 22.92ZM118.964 36.792C118.844 34.176 118.892 29.952 118.964 27.528C120.452 27.432 136.148 27.456 136.796 27.528C136.892 29.424 136.892 34.992 136.796 36.792C135.188 36.936 120.836 36.96 118.964 36.792ZM122.492 33.792C123.596 33.864 132.26 33.84 133.268 33.792C133.316 33.096 133.316 31.416 133.268 30.552C131.924 30.48 124.076 30.504 122.492 30.552C122.444 31.296 122.42 32.832 122.492 33.792ZM160.313 36.72C160.217 33.936 160.241 17.904 160.313 15.12C160.961 14.976 163.073 15 163.913 15.12C164.009 18.408 164.009 33.864 163.913 36.72C163.169 36.816 161.153 36.792 160.313 36.72ZM150.953 35.688C146.153 35.688 144.161 33.384 144.161 25.464C144.161 17.544 146.153 15.24 150.953 15.24C155.753 15.24 157.721 17.544 157.721 25.464C157.721 33.384 155.753 35.688 150.953 35.688ZM150.953 32.328C153.377 32.328 154.049 31.032 154.049 25.464C154.049 19.896 153.377 18.6 150.953 18.6C148.529 18.6 147.833 19.896 147.833 25.464C147.833 31.032 148.529 32.328 150.953 32.328ZM186.256 30.96C185.608 31.056 183.688 31.008 182.848 30.96C182.8 28.776 182.824 16.656 182.848 15.12C183.496 15 185.536 15 186.256 15.12C186.304 17.16 186.304 28.776 186.256 30.96ZM176.056 27.168C174.352 27.264 168.424 27.288 166.48 27.168C166.432 25.32 166.432 17.616 166.48 15.792C167.416 15.696 169 15.72 169.816 15.792V18.696C170.776 18.672 171.784 18.672 172.744 18.696V15.792C173.68 15.72 175.12 15.72 176.056 15.792C176.08 16.56 176.104 18.096 176.104 19.8C176.728 19.776 177.4 19.776 178.024 19.8C178.024 17.592 178.048 15.792 178.072 15.24C178.72 15.12 180.736 15.144 181.456 15.24C181.528 17.304 181.48 28.656 181.456 30.792C180.808 30.864 178.912 30.864 178.072 30.792C178.024 29.712 178 26.328 178 22.944C177.4 22.968 176.728 22.968 176.104 22.944C176.104 24.984 176.08 26.76 176.056 27.168ZM169.816 21.672V24.24C170.968 24.288 171.712 24.288 172.744 24.24V21.672C171.784 21.696 170.752 21.696 169.816 21.672ZM186.664 33.672C186.76 34.536 186.76 35.904 186.664 36.792C184.744 36.912 170.488 36.912 168.304 36.792C168.184 35.016 168.232 30.36 168.304 28.944C169.048 28.872 171.016 28.872 171.88 28.944C171.928 30.144 171.928 32.376 171.88 33.672C177.184 33.648 184.864 33.624 186.664 33.672ZM207.734 29.28C205.766 29.376 191.822 29.352 189.47 29.28C189.326 26.472 189.35 18.504 189.47 15.744C191.798 15.624 204.854 15.672 207.254 15.744C207.35 16.656 207.35 18.024 207.254 18.936C205.574 18.984 194.99 18.984 193.19 18.936C193.19 19.296 193.166 20.04 193.166 20.928C196.31 20.904 204.614 20.928 206.534 20.928C206.63 21.84 206.606 23.208 206.534 24.12C204.662 24.168 196.31 24.144 193.166 24.12C193.166 25.032 193.19 25.8 193.19 26.136C195.086 26.136 205.958 26.112 207.734 26.136C207.806 27.072 207.806 28.512 207.734 29.28ZM208.79 33.024C208.886 33.912 208.886 35.136 208.79 36.144C206.726 36.288 190.982 36.24 188.15 36.144C188.054 35.28 188.054 33.96 188.15 33.024C193.142 32.928 206.534 32.976 208.79 33.024Z" fill="#252525"/>
<path d="M86.616 19.68L86.662 21.6795L88.451 21.6383L88.6083 19.8558L86.616 19.68ZM72.6 19.68L70.611 19.8894L70.7931 21.6199L72.5322 21.6789L72.6 19.68ZM72.6 16.656L72.5001 14.6585L70.7951 14.7437L70.6116 16.441L72.6 16.656ZM77.88 16.608V18.608H79.88V16.608H77.88ZM77.928 14.76L77.4941 12.8076L76.0684 13.1244L75.9362 14.5789L77.928 14.76ZM81.696 14.76L83.6939 14.6692L83.6193 13.0261L81.9927 12.7821L81.696 14.76ZM81.72 16.608L79.7214 16.534L79.6446 18.608H81.72V16.608ZM86.616 16.656L88.6127 16.5419L88.5076 14.7027L86.666 14.6566L86.616 16.656ZM93.912 20.592L95.9058 20.4346L95.7671 18.6781L94.0071 18.5943L93.912 20.592ZM93.912 23.832L94.1601 25.8166L95.7775 25.6144L95.9058 23.9894L93.912 23.832ZM91.848 23.904V21.904H89.848V23.904H91.848ZM91.8 29.64L92.0559 31.6236L93.7586 31.4039L93.7994 29.6876L91.8 29.64ZM88.224 29.64L86.2252 29.7097L86.287 31.4813L88.0532 31.6327L88.224 29.64ZM88.224 15.12L87.9309 13.1416L86.2909 13.3845L86.2256 15.0411L88.224 15.12ZM91.8 15.12L93.7994 15.0724L93.7591 13.3796L92.0828 13.1401L91.8 15.12ZM91.848 20.544L89.8481 20.5648L89.8687 22.544H91.848V20.544ZM84.912 29.256L86.911 29.1935L86.857 27.4653L85.1391 27.2689L84.912 29.256ZM84.96 31.296H82.96V32.7649L84.3616 33.2044L84.96 31.296ZM92.904 33.84L94.9007 33.9541L94.988 32.4265L93.5365 31.9426L92.904 33.84ZM91.848 36.912L91.3098 38.8382L92.7688 39.2459L93.5564 37.9519L91.848 36.912ZM83.136 34.08L83.8095 32.1968L83.1223 31.951L82.4383 32.2057L83.136 34.08ZM74.448 37.032L72.7728 38.1245L73.5875 39.3737L75.0172 38.9493L74.448 37.032ZM73.32 34.08L72.6254 32.2045L71.1935 32.7348L71.3277 34.2558L73.32 34.08ZM81.168 31.32L81.82 33.2107L83.168 32.7459V31.32H81.168ZM81.216 29.256L80.9951 27.2682L79.2695 27.46L79.2169 29.1954L81.216 29.256ZM86.57 17.6805C84.504 17.728 74.0327 17.7274 72.6678 17.6811L72.5322 21.6789C73.9993 21.7286 84.552 21.728 86.662 21.6795L86.57 17.6805ZM74.589 19.4706C74.5075 18.6959 74.5081 17.6142 74.5884 16.871L70.6116 16.441C70.4999 17.4738 70.5005 18.8401 70.611 19.8894L74.589 19.4706ZM72.6999 18.6535C73.1183 18.6326 75.2677 18.608 77.88 18.608V14.608C75.3083 14.608 73.0417 14.6314 72.5001 14.6585L72.6999 18.6535ZM79.88 16.608C79.88 15.9532 79.8818 15.359 79.9198 14.9411L75.9362 14.5789C75.8782 15.217 75.88 16.0148 75.88 16.608H79.88ZM78.3619 16.7124C78.3572 16.7134 78.478 16.6927 78.7716 16.6756C79.0328 16.6604 79.3536 16.652 79.695 16.652C80.4067 16.652 81.0684 16.6882 81.3993 16.7379L81.9927 12.7821C81.3636 12.6878 80.4653 12.652 79.695 12.652C78.9769 12.652 78.0632 12.6812 77.4941 12.8076L78.3619 16.7124ZM79.6981 14.8508C79.7217 15.3706 79.7421 15.9734 79.7214 16.534L83.7186 16.682C83.7459 15.9466 83.7183 15.2054 83.6939 14.6692L79.6981 14.8508ZM81.72 18.608C83.7727 18.608 85.6273 18.6319 86.566 18.6554L86.666 14.6566C85.6847 14.6321 83.7953 14.608 81.72 14.608V18.608ZM84.6193 16.7701C84.6654 17.5774 84.683 18.8323 84.6237 19.5042L88.6083 19.8558C88.693 18.8957 88.6626 17.4146 88.6127 16.5419L84.6193 16.7701ZM91.9182 20.7494C91.9819 21.5566 91.9819 22.8674 91.9182 23.6746L95.9058 23.9894C95.9861 22.9726 95.9861 21.4514 95.9058 20.4346L91.9182 20.7494ZM93.6639 21.8474C93.4193 21.878 92.8156 21.904 91.848 21.904V25.904C92.8004 25.904 93.6367 25.882 94.1601 25.8166L93.6639 21.8474ZM89.848 23.904C89.848 26.3688 89.824 28.607 89.8006 29.5924L93.7994 29.6876C93.824 28.657 93.848 26.3832 93.848 23.904H89.848ZM91.5441 27.6564C91.0018 27.7264 89.1696 27.7137 88.3948 27.6473L88.0532 31.6327C88.9584 31.7103 91.1102 31.7456 92.0559 31.6236L91.5441 27.6564ZM90.2228 29.5703C90.1523 27.5495 90.1526 16.9674 90.2224 15.1989L86.2256 15.0411C86.1514 16.9206 86.1517 27.6025 86.2252 29.7097L90.2228 29.5703ZM88.5171 17.0984C88.685 17.0735 89.2409 17.042 89.9485 17.039C90.6495 17.036 91.2541 17.0623 91.5172 17.0999L92.0828 13.1401C91.5059 13.0577 90.6465 13.036 89.9315 13.039C89.2231 13.042 88.411 13.0705 87.9309 13.1416L88.5171 17.0984ZM89.8006 15.1676C89.8242 16.161 89.8237 18.2181 89.8481 20.5648L93.8479 20.5232C93.8243 18.2619 93.8238 16.095 93.7994 15.0724L89.8006 15.1676ZM91.848 22.544C92.651 22.544 93.3388 22.567 93.8169 22.5897L94.0071 18.5943C93.4772 18.569 92.725 18.544 91.848 18.544V22.544ZM79.8 26.2C77.3838 26.2 76.193 25.9175 75.6328 25.5868C75.4149 25.4581 75.3232 25.3392 75.2624 25.2135C75.1877 25.0588 75.104 24.7702 75.104 24.24H71.104C71.104 25.1618 71.2453 26.0942 71.6611 26.9543C72.0908 27.8433 72.7551 28.5329 73.5992 29.0312C75.163 29.9545 77.3202 30.2 79.8 30.2V26.2ZM75.104 24.24C75.104 23.6976 75.1954 23.4077 75.2731 23.2555C75.338 23.1284 75.4394 23.003 75.6768 22.8695C76.2756 22.533 77.4831 22.28 79.8 22.28V18.28C77.4369 18.28 75.2964 18.495 73.7172 19.3825C72.8656 19.861 72.1705 20.5366 71.7112 21.4355C71.2646 22.3093 71.104 23.2704 71.104 24.24H75.104ZM79.8 22.28C82.2162 22.28 83.407 22.5625 83.9672 22.8932C84.1851 23.0219 84.2768 23.1408 84.3376 23.2665C84.4123 23.4212 84.496 23.7098 84.496 24.24H88.496C88.496 23.3182 88.3547 22.3858 87.9389 21.5257C87.5092 20.6367 86.8449 19.9471 86.0008 19.4488C84.437 18.5255 82.2798 18.28 79.8 18.28V22.28ZM84.496 24.24C84.496 24.7824 84.4046 25.0723 84.3269 25.2245C84.262 25.3516 84.1606 25.477 83.9232 25.6105C83.3244 25.947 82.1169 26.2 79.8 26.2V30.2C82.1631 30.2 84.3036 29.985 85.8828 29.0975C86.7344 28.619 87.4295 27.9434 87.8889 27.0445C88.3354 26.1707 88.496 25.2096 88.496 24.24H84.496ZM79.8 21.112C78.5208 21.112 77.3572 21.1619 76.4893 21.4615C76.0012 21.63 75.4239 21.936 74.9972 22.5219C74.5629 23.1184 74.464 23.758 74.464 24.24H78.464C78.464 24.29 78.4521 24.5726 78.2308 24.8766C78.0171 25.17 77.7788 25.248 77.7947 25.2425C77.8229 25.2328 77.972 25.1913 78.3396 25.1591C78.6926 25.1282 79.1654 25.112 79.8 25.112V21.112ZM74.464 24.24C74.464 24.7667 74.5865 25.4159 75.0366 26.0067C75.4705 26.5761 76.045 26.8747 76.5291 27.0408C77.4039 27.3409 78.5595 27.392 79.8 27.392V23.392C79.191 23.392 78.7311 23.3759 78.3836 23.3448C78.023 23.3126 77.8665 23.2708 77.8269 23.2572C77.795 23.2463 78.0125 23.3124 78.2184 23.5825C78.4405 23.8741 78.464 24.1573 78.464 24.24H74.464ZM79.8 27.392C81.087 27.392 82.2555 27.336 83.1307 27.0235C83.6225 26.8478 84.1922 26.5344 84.6112 25.9501C85.0368 25.3567 85.136 24.723 85.136 24.24H81.136C81.136 24.189 81.1482 23.9153 81.3608 23.6189C81.5668 23.3316 81.7975 23.2522 81.7853 23.2565C81.7596 23.2657 81.6135 23.3084 81.2502 23.3421C80.9011 23.3744 80.4314 23.392 79.8 23.392V27.392ZM85.136 24.24C85.136 23.7078 85.0078 23.0572 84.5499 22.4697C84.1126 21.9087 83.5387 21.6179 83.0611 21.4568C82.1921 21.1638 81.0432 21.112 79.8 21.112V25.112C80.4087 25.112 80.8695 25.1281 81.2181 25.159C81.5796 25.191 81.7396 25.2325 81.7829 25.2472C81.8213 25.2601 81.6044 25.1973 81.3951 24.9288C81.1652 24.6338 81.136 24.3402 81.136 24.24H85.136ZM82.913 29.3185C82.9376 30.1049 82.96 30.7358 82.96 31.296H86.96C86.96 30.6562 86.9344 29.9431 86.911 29.1935L82.913 29.3185ZM84.3616 33.2044C87.1926 34.0921 90.3459 35.0955 92.2715 35.7374L93.5365 31.9426C91.5742 31.2885 88.3914 30.2759 85.5584 29.3876L84.3616 33.2044ZM90.9073 33.7259C90.9074 33.7234 90.9054 33.7545 90.8921 33.8259C90.8795 33.8942 90.8599 33.9813 90.8322 34.0865C90.7763 34.2984 90.6972 34.5452 90.6044 34.8005C90.4051 35.3486 90.2061 35.7629 90.1396 35.8721L93.5564 37.9519C93.8259 37.5091 94.1309 36.8074 94.3636 36.1675C94.586 35.5559 94.8588 34.6889 94.9007 33.9541L90.9073 33.7259ZM92.3862 34.9858C90.8094 34.5452 87.0634 33.3606 83.8095 32.1968L82.4625 35.9632C85.7846 37.1514 89.6226 38.3668 91.3098 38.8382L92.3862 34.9858ZM82.4383 32.2057C79.1871 33.4159 75.3662 34.6731 73.8788 35.1147L75.0172 38.9493C76.6018 38.4789 80.5089 37.1921 83.8337 35.9543L82.4383 32.2057ZM76.1232 35.9395C76.0461 35.8212 75.8387 35.4238 75.6316 34.9088C75.5346 34.6677 75.452 34.4357 75.3927 34.2368C75.3634 34.1382 75.3425 34.0569 75.3287 33.9937C75.3144 33.9275 75.3119 33.8998 75.3123 33.9042L71.3277 34.2558C71.3915 34.9788 71.6838 35.8127 71.9204 36.4012C72.1693 37.0202 72.4899 37.6908 72.7728 38.1245L76.1232 35.9395ZM74.0146 35.9555C75.9328 35.2451 79.0287 34.1732 81.82 33.2107L80.516 29.4293C77.7393 30.3868 74.5952 31.4749 72.6254 32.2045L74.0146 35.9555ZM83.168 31.32C83.168 30.759 83.1905 30.1291 83.2151 29.3166L79.2169 29.1954C79.1935 29.9669 79.168 30.681 79.168 31.32H83.168ZM81.4369 31.2438C81.6432 31.2208 82.2607 31.196 83.0001 31.193C83.7392 31.19 84.3948 31.2099 84.6849 31.2431L85.1391 27.2689C84.5892 27.2061 83.7208 27.19 82.9839 27.193C82.2473 27.196 81.4368 27.2192 80.9951 27.2682L81.4369 31.2438ZM116.086 23.088L118.075 22.8786L117.895 21.1682L116.177 21.0901L116.086 23.088ZM116.086 26.496L116.334 28.4806L117.909 28.2837L118.075 26.7054L116.086 26.496ZM113.95 26.568V24.568H111.95V26.568H113.95ZM113.878 36.72L114.134 38.7036L115.817 38.4864L115.877 36.7901L113.878 36.72ZM110.278 36.72L108.279 36.7889L108.34 38.5612L110.107 38.7127L110.278 36.72ZM110.278 15.12L109.844 13.1676L108.319 13.5065L108.279 15.0683L110.278 15.12ZM113.878 15.12L115.877 15.0446L115.814 13.3762L114.161 13.1401L113.878 15.12ZM113.95 23.04H111.95V25.04H113.95V23.04ZM99.3341 31.896H97.3341V33.9454L99.3829 33.8954L99.3341 31.896ZM108.502 31.896L110.491 31.6866L110.307 29.9384L108.55 29.8966L108.502 31.896ZM108.502 35.112L108.59 37.1101L110.311 37.0344L110.491 35.3214L108.502 35.112ZM95.6381 35.112L93.6407 35.2144L93.7337 37.026L95.5456 37.1099L95.6381 35.112ZM95.6381 15.792L95.5483 13.794L93.7195 13.8762L93.64 15.7051L95.6381 15.792ZM107.062 15.792L109.049 15.5649L108.854 13.8595L107.139 13.7935L107.062 15.792ZM107.062 19.032L107.129 21.0309L108.869 20.9729L109.051 19.2414L107.062 19.032ZM99.3341 19.032L99.3997 17.0331L97.3341 16.9654V19.032H99.3341ZM99.3581 23.832H97.3581V25.8541L99.3801 25.8319L99.3581 23.832ZM106.462 23.832L108.451 23.6226L108.263 21.832H106.462V23.832ZM106.462 27.048L106.517 29.0472L108.314 28.998L108.456 27.2054L106.462 27.048ZM99.3581 27.048L99.3803 25.0481L97.3581 25.0257V27.048H99.3581ZM114.097 23.2974C114.178 24.0702 114.178 25.5138 114.097 26.2866L118.075 26.7054C118.186 25.6542 118.186 23.9298 118.075 22.8786L114.097 23.2974ZM115.838 24.5114C115.595 24.5418 114.97 24.568 113.95 24.568V28.568C114.946 28.568 115.809 28.5462 116.334 28.4806L115.838 24.5114ZM111.95 26.568C111.95 31.0467 111.926 35.3253 111.879 36.6499L115.877 36.7901C115.926 35.3787 115.95 31.0173 115.95 26.568H111.95ZM113.622 34.7364C113.08 34.8064 111.224 34.7937 110.449 34.7273L110.107 38.7127C111.013 38.7903 113.188 38.8256 114.134 38.7036L113.622 34.7364ZM112.277 36.6511C112.183 33.9194 112.206 17.9298 112.277 15.1717L108.279 15.0683C108.206 17.8782 108.182 33.9526 108.279 36.7889L112.277 36.6511ZM110.712 17.0724C110.702 17.0746 110.815 17.0549 111.102 17.0395C111.357 17.026 111.668 17.0196 111.998 17.021C112.686 17.0239 113.314 17.0597 113.595 17.0999L114.161 13.1401C113.602 13.0603 112.754 13.0241 112.015 13.021C111.331 13.0181 110.421 13.0395 109.844 13.1676L110.712 17.0724ZM111.88 15.1954C111.926 16.4225 111.95 19.5267 111.95 23.04H115.95C115.95 19.5453 115.926 16.3615 115.877 15.0446L111.88 15.1954ZM113.95 25.04C114.802 25.04 115.491 25.063 115.995 25.0859L116.177 21.0901C115.626 21.065 114.875 21.04 113.95 21.04V25.04ZM99.3829 33.8954C101.318 33.8482 106.47 33.8482 108.455 33.8954L108.55 29.8966C106.502 29.8478 101.286 29.8478 99.2854 29.8966L99.3829 33.8954ZM106.513 32.1054C106.594 32.8782 106.594 34.1298 106.513 34.9026L110.491 35.3214C110.602 34.2702 110.602 32.7378 110.491 31.6866L106.513 32.1054ZM108.414 33.1139C106.284 33.2076 98.2565 33.2311 95.7306 33.1141L95.5456 37.1099C98.2037 37.2329 106.352 37.2084 108.59 37.1101L108.414 33.1139ZM97.6355 35.0096C97.4953 32.2763 97.5184 18.5887 97.6362 15.8789L93.64 15.7051C93.5178 18.5153 93.4929 32.3317 93.6407 35.2144L97.6355 35.0096ZM95.7279 17.79C97.797 17.697 105.156 17.7202 106.985 17.7905L107.139 13.7935C105.224 13.7198 97.7512 13.695 95.5483 13.794L95.7279 17.79ZM105.075 16.0191C105.153 16.7025 105.155 18.0436 105.073 18.8226L109.051 19.2414C109.161 18.1964 109.163 16.5615 109.049 15.5649L105.075 16.0191ZM106.995 17.0331C105.6 17.0796 100.82 17.0797 99.3997 17.0331L99.2686 21.0309C100.776 21.0803 105.644 21.0804 107.129 21.0309L106.995 17.0331ZM97.3341 19.032C97.3341 19.7371 97.3402 20.5076 97.3462 21.3119C97.3522 22.1191 97.3581 22.9643 97.3581 23.832H101.358C101.358 22.9477 101.352 22.0889 101.346 21.2821C101.34 20.4724 101.334 19.7189 101.334 19.032H97.3341ZM99.3801 25.8319C101.551 25.808 104.634 25.832 106.462 25.832V21.832C104.691 21.832 101.533 21.808 99.3361 21.8321L99.3801 25.8319ZM104.473 24.0414C104.552 24.7877 104.535 26.0472 104.468 26.8906L108.456 27.2054C108.533 26.2248 108.565 24.7003 108.451 23.6226L104.473 24.0414ZM106.407 25.0487C104.701 25.0955 101.55 25.0722 99.3803 25.0481L99.3359 29.0479C101.486 29.0718 104.719 29.0965 106.517 29.0472L106.407 25.0487ZM97.3581 27.048C97.3581 27.8916 97.3522 28.7246 97.3462 29.5382C97.3402 30.3491 97.3341 31.1431 97.3341 31.896H101.334C101.334 31.1609 101.34 30.3829 101.346 29.5678C101.352 28.7554 101.358 27.9084 101.358 27.048H97.3581ZM133.22 26.448L131.221 26.5177L131.283 28.2893L133.049 28.4407L133.22 26.448ZM133.22 15.12L132.927 13.1416L131.287 13.3845L131.222 15.0411L133.22 15.12ZM136.796 15.12L138.796 15.083L138.764 13.3809L137.079 13.1401L136.796 15.12ZM136.796 26.448L137.052 28.4316L138.744 28.2133L138.795 26.5086L136.796 26.448ZM118.964 36.792L116.966 36.8836L117.046 38.6279L118.785 38.784L118.964 36.792ZM118.964 27.528L118.835 25.5321L117.019 25.6493L116.965 27.4686L118.964 27.528ZM136.796 27.528L138.794 27.4269L138.708 25.7281L137.017 25.5402L136.796 27.528ZM136.796 36.792L136.975 38.784L138.701 38.6294L138.793 36.8985L136.796 36.792ZM122.492 33.792L120.498 33.9416L120.628 35.6747L122.362 35.7878L122.492 33.792ZM133.268 33.792L133.363 35.7897L135.141 35.7051L135.264 33.9296L133.268 33.792ZM133.268 30.552L135.265 30.4411L135.166 28.6508L133.375 28.5549L133.268 30.552ZM122.492 30.552L122.432 28.5529L120.614 28.608L120.496 30.4232L122.492 30.552ZM135.219 26.3783C135.149 24.3575 135.149 16.9674 135.219 15.1989L131.222 15.0411C131.148 16.9206 131.148 24.4105 131.221 26.5177L135.219 26.3783ZM133.513 17.0984C133.681 17.0735 134.237 17.042 134.945 17.039C135.646 17.036 136.25 17.0623 136.513 17.0999L137.079 13.1401C136.502 13.0577 135.643 13.036 134.928 13.039C134.219 13.042 133.407 13.0705 132.927 13.1416L133.513 17.0984ZM134.797 15.157C134.844 17.7387 134.868 24.0604 134.797 26.3874L138.795 26.5086C138.869 24.0836 138.844 17.6853 138.796 15.083L134.797 15.157ZM136.54 24.4644C135.998 24.5344 134.166 24.5217 133.391 24.4553L133.049 28.4407C133.955 28.5183 136.106 28.5536 137.052 28.4316L136.54 24.4644ZM123.716 23.968C121.529 23.968 120.425 23.5157 119.879 23.0491C119.4 22.6403 119.044 21.9559 119.044 20.616H115.044C115.044 22.6841 115.624 24.6757 117.281 26.0909C118.871 27.4483 121.103 27.968 123.716 27.968V23.968ZM119.044 20.616C119.044 19.2917 119.398 18.6036 119.881 18.1898C120.43 17.7201 121.535 17.264 123.716 17.264V13.264C121.098 13.264 118.867 13.7919 117.279 15.1522C115.626 16.5684 115.044 18.5563 115.044 20.616H119.044ZM123.716 17.264C125.898 17.264 127.003 17.7201 127.551 18.1898C128.034 18.6036 128.388 19.2917 128.388 20.616H132.388C132.388 18.5563 131.806 16.5684 130.153 15.1522C128.566 13.7919 126.335 13.264 123.716 13.264V17.264ZM128.388 20.616C128.388 21.9559 128.032 22.6403 127.553 23.0491C127.007 23.5157 125.903 23.968 123.716 23.968V27.968C126.329 27.968 128.561 27.4483 130.151 26.0909C131.808 24.6757 132.388 22.6841 132.388 20.616H128.388ZM123.716 24.92C124.985 24.92 126.305 24.717 127.327 23.9242C128.469 23.0386 128.812 21.7694 128.812 20.616H124.812C124.812 20.8202 124.783 20.8883 124.787 20.8775C124.799 20.8471 124.834 20.7957 124.875 20.7637C124.902 20.7431 124.861 20.7859 124.669 20.8326C124.473 20.8802 124.168 20.92 123.716 20.92V24.92ZM128.812 20.616C128.812 19.4626 128.469 18.1934 127.327 17.3077C126.305 16.515 124.985 16.312 123.716 16.312V20.312C124.168 20.312 124.473 20.3518 124.669 20.3994C124.861 20.4461 124.902 20.4889 124.875 20.4682C124.834 20.4363 124.799 20.3849 124.787 20.3545C124.783 20.3437 124.812 20.4118 124.812 20.616H128.812ZM123.716 16.312C122.435 16.312 121.102 16.511 120.078 17.315C118.933 18.2144 118.62 19.495 118.62 20.616H122.62C122.62 20.3997 122.65 20.3255 122.647 20.3336C122.635 20.3635 122.598 20.4217 122.548 20.461C122.514 20.4881 122.547 20.4467 122.741 20.4C122.938 20.3523 123.249 20.312 123.716 20.312V16.312ZM118.62 20.616C118.62 21.737 118.933 23.0176 120.078 23.917C121.102 24.721 122.435 24.92 123.716 24.92V20.92C123.249 20.92 122.938 20.8797 122.741 20.832C122.547 20.7853 122.514 20.7439 122.548 20.771C122.598 20.8103 122.635 20.8685 122.647 20.8984C122.65 20.9065 122.62 20.8323 122.62 20.616H118.62ZM120.962 36.7004C120.846 34.1609 120.892 29.9968 120.963 27.5874L116.965 27.4686C116.893 29.9072 116.843 34.1911 116.966 36.8836L120.962 36.7004ZM119.093 29.5238C119.752 29.4813 123.95 29.462 128.194 29.465C130.287 29.4665 132.352 29.4732 133.932 29.4841C134.723 29.4895 135.389 29.4959 135.875 29.5032C136.436 29.5115 136.617 29.5204 136.575 29.5158L137.017 25.5402C136.813 25.5176 136.363 25.51 135.935 25.5036C135.433 25.4961 134.755 25.4896 133.96 25.4842C132.368 25.4733 130.295 25.4665 128.197 25.465C124.059 25.462 119.664 25.4787 118.835 25.5321L119.093 29.5238ZM134.799 27.6291C134.891 29.4596 134.891 34.9582 134.799 36.6855L138.793 36.8985C138.893 35.0258 138.893 29.3884 138.794 27.4269L134.799 27.6291ZM136.618 34.8C135.927 34.8618 132.061 34.906 127.978 34.909C123.896 34.912 119.964 34.8737 119.143 34.8L118.785 38.784C119.837 38.8783 124.016 38.912 127.981 38.909C131.944 38.906 136.057 38.8662 136.975 38.784L136.618 34.8ZM122.362 35.7878C123.565 35.8662 132.309 35.8399 133.363 35.7897L133.173 31.7943C132.211 31.8401 123.627 31.8618 122.622 31.7962L122.362 35.7878ZM135.264 33.9296C135.318 33.134 135.317 31.3691 135.265 30.4411L131.271 30.6629C131.316 31.4629 131.314 33.058 131.273 33.6544L135.264 33.9296ZM133.375 28.5549C131.946 28.4783 124.032 28.5044 122.432 28.5529L122.553 32.5511C124.121 32.5036 131.902 32.4817 133.161 32.5491L133.375 28.5549ZM120.496 30.4232C120.444 31.2306 120.417 32.8636 120.498 33.9416L124.487 33.6424C124.423 32.8004 124.444 31.3614 124.488 30.6808L120.496 30.4232ZM160.313 36.72L158.315 36.7889L158.376 38.5612L160.143 38.7127L160.313 36.72ZM160.313 15.12L159.88 13.1676L158.354 13.5065L158.314 15.0683L160.313 15.12ZM163.913 15.12L165.913 15.0616L165.863 13.3783L164.196 13.1401L163.913 15.12ZM163.913 36.72L164.169 38.7036L165.855 38.486L165.912 36.7872L163.913 36.72ZM162.312 36.6511C162.218 33.9194 162.241 17.9298 162.313 15.1717L158.314 15.0683C158.241 17.8782 158.217 33.9526 158.315 36.7889L162.312 36.6511ZM160.747 17.0724C160.737 17.0746 160.85 17.0549 161.138 17.0395C161.392 17.026 161.703 17.0196 162.033 17.021C162.721 17.0239 163.349 17.0597 163.631 17.0999L164.196 13.1401C163.638 13.0603 162.79 13.0241 162.05 13.021C161.367 13.0181 160.456 13.0395 159.88 13.1676L160.747 17.0724ZM161.914 15.1784C162.009 18.4306 162.009 33.8443 161.915 36.6528L165.912 36.7872C166.01 33.8837 166.01 18.3854 165.913 15.0616L161.914 15.1784ZM163.657 34.7364C163.115 34.8064 161.259 34.7937 160.484 34.7273L160.143 38.7127C161.048 38.7903 163.224 38.8256 164.169 38.7036L163.657 34.7364ZM150.953 33.688C148.862 33.688 147.957 33.1998 147.395 32.3978C146.68 31.3778 146.161 29.3789 146.161 25.464H142.161C142.161 29.4691 142.639 32.5822 144.12 34.6942C145.754 37.0242 148.245 37.688 150.953 37.688V33.688ZM146.161 25.464C146.161 21.5491 146.68 19.5502 147.395 18.5302C147.957 17.7282 148.862 17.24 150.953 17.24V13.24C148.245 13.24 145.754 13.9038 144.12 16.2338C142.639 18.3458 142.161 21.4589 142.161 25.464H146.161ZM150.953 17.24C153.045 17.24 153.94 17.7279 154.497 18.526C155.208 19.5462 155.721 21.546 155.721 25.464H159.721C159.721 21.462 159.251 18.3498 157.778 16.238C156.15 13.9041 153.662 13.24 150.953 13.24V17.24ZM155.721 25.464C155.721 29.382 155.208 31.3818 154.497 32.402C153.94 33.2001 153.045 33.688 150.953 33.688V37.688C153.662 37.688 156.15 37.0239 157.778 34.69C159.251 32.5782 159.721 29.466 159.721 25.464H155.721ZM150.953 34.328C151.709 34.328 152.57 34.2323 153.377 33.8157C154.24 33.37 154.837 32.6662 155.226 31.8225C155.592 31.0308 155.783 30.1034 155.894 29.1072C156.007 28.0948 156.049 26.885 156.049 25.464H152.049C152.049 26.827 152.008 27.8672 151.919 28.6638C151.828 29.4766 151.7 29.9172 151.595 30.1455C151.513 30.3218 151.487 30.29 151.542 30.2613C151.546 30.2597 151.514 30.2772 151.419 30.2948C151.32 30.313 151.172 30.328 150.953 30.328V34.328ZM156.049 25.464C156.049 24.043 156.007 22.8332 155.894 21.8208C155.783 20.8246 155.592 19.8972 155.226 19.1055C154.837 18.2618 154.24 17.558 153.377 17.1123C152.57 16.6957 151.709 16.6 150.953 16.6V20.6C151.172 20.6 151.32 20.615 151.419 20.6332C151.514 20.6508 151.546 20.6683 151.542 20.6667C151.487 20.638 151.513 20.6062 151.595 20.7825C151.7 21.0108 151.828 21.4514 151.919 22.2642C152.008 23.0608 152.049 24.101 152.049 25.464H156.049ZM150.953 16.6C150.197 16.6 149.337 16.6959 148.53 17.1103C147.668 17.553 147.067 18.2529 146.673 19.0968C146.302 19.889 146.107 20.8175 145.993 21.8159C145.877 22.8301 145.833 24.0415 145.833 25.464H149.833C149.833 24.1025 149.877 23.0639 149.967 22.2691C150.06 21.4585 150.19 21.019 150.296 20.7912C150.344 20.6893 150.375 20.6552 150.376 20.6543C150.377 20.6534 150.374 20.6567 150.368 20.6615C150.365 20.6636 150.362 20.6654 150.36 20.6668C150.358 20.6682 150.357 20.6688 150.357 20.6687C150.362 20.6661 150.498 20.6 150.953 20.6V16.6ZM145.833 25.464C145.833 26.8865 145.877 28.0979 145.993 29.1121C146.107 30.1105 146.302 31.039 146.673 31.8312C147.067 32.6751 147.668 33.375 148.53 33.8177C149.337 34.2321 150.197 34.328 150.953 34.328V30.328C150.498 30.328 150.362 30.2619 150.357 30.2593C150.357 30.2592 150.358 30.2598 150.36 30.2612C150.362 30.2626 150.365 30.2644 150.368 30.2665C150.374 30.2713 150.377 30.2746 150.376 30.2737C150.375 30.2728 150.344 30.2387 150.296 30.1368C150.19 29.909 150.06 29.4695 149.967 28.6589C149.877 27.8641 149.833 26.8255 149.833 25.464H145.833ZM186.256 30.96L186.549 32.9384L188.218 32.6911L188.255 31.0039L186.256 30.96ZM182.848 30.96L180.848 31.0039L180.889 32.8513L182.733 32.9567L182.848 30.96ZM182.848 15.12L182.483 13.1534L180.873 13.4516L180.848 15.0888L182.848 15.12ZM186.256 15.12L188.255 15.073L188.216 13.4192L186.584 13.1472L186.256 15.12ZM176.056 27.168L176.168 29.1648L177.947 29.0646L178.052 27.2854L176.056 27.168ZM166.48 27.168L164.48 27.2199L164.528 29.0513L166.356 29.1642L166.48 27.168ZM166.48 15.792L166.276 13.8024L164.527 13.9818L164.48 15.7394L166.48 15.792ZM169.816 15.792H171.816V13.9607L169.991 13.7997L169.816 15.792ZM169.816 18.696H167.816V20.7466L169.866 20.6954L169.816 18.696ZM172.744 18.696L172.694 20.6954L174.744 20.7466V18.696H172.744ZM172.744 15.792L172.59 13.7979L170.744 13.9399V15.792H172.744ZM176.056 15.792L178.055 15.7295L177.999 13.9356L176.209 13.7979L176.056 15.792ZM176.104 19.8H174.104V21.8784L176.18 21.7985L176.104 19.8ZM178.024 19.8L177.947 21.7985L180.024 21.8784V19.8H178.024ZM178.072 15.24L177.707 13.2734L176.143 13.5632L176.073 15.1531L178.072 15.24ZM181.456 15.24L183.454 15.1703L183.395 13.4809L181.72 13.2575L181.456 15.24ZM181.456 30.792L181.676 32.7798L183.436 32.5843L183.455 30.8145L181.456 30.792ZM178.072 30.792L176.074 30.8808L176.151 32.6348L177.901 32.7847L178.072 30.792ZM178 22.944H180V20.8624L177.92 20.9456L178 22.944ZM176.104 22.944L176.18 20.9455L174.104 20.8656V22.944H176.104ZM169.816 21.672L169.867 19.6727L167.816 19.6201V21.672H169.816ZM169.816 24.24H167.816V26.1584L169.732 26.2383L169.816 24.24ZM172.744 24.24L172.836 26.2378L174.744 26.1491V24.24H172.744ZM172.744 21.672H174.744V19.6214L172.694 19.6726L172.744 21.672ZM186.664 33.672L188.651 33.4511L188.459 31.7192L186.717 31.6727L186.664 33.672ZM186.664 36.792L186.788 38.7881L188.471 38.683L188.652 37.007L186.664 36.792ZM168.304 36.792L166.308 36.9268L166.427 38.6919L168.194 38.789L168.304 36.792ZM168.304 28.944L168.111 26.9533L166.394 27.1195L166.306 28.8424L168.304 28.944ZM171.88 28.944L173.878 28.8641L173.807 27.0977L172.046 26.9509L171.88 28.944ZM171.88 33.672L169.881 33.598L169.804 35.6814L171.889 35.672L171.88 33.672ZM185.962 28.9816C185.963 28.9816 185.96 28.982 185.953 28.9829C185.946 28.9837 185.936 28.9848 185.924 28.986C185.899 28.9885 185.865 28.9912 185.824 28.994C185.74 28.9996 185.635 29.0045 185.51 29.0081C185.259 29.0154 184.959 29.0169 184.642 29.0141C184.004 29.0083 183.346 28.9852 182.962 28.9633L182.733 32.9567C183.189 32.9828 183.911 33.0077 184.606 33.0139C185.241 33.0196 186.043 33.0133 186.549 32.9384L185.962 28.9816ZM184.847 30.9161C184.8 28.7667 184.824 16.6741 184.847 15.1512L180.848 15.0888C180.824 16.6379 180.799 28.7853 180.848 31.0039L184.847 30.9161ZM183.212 17.0866C183.211 17.0867 183.249 17.0802 183.338 17.0718C183.422 17.0639 183.528 17.0563 183.654 17.0499C183.907 17.037 184.211 17.03 184.525 17.03C185.201 17.03 185.745 17.0625 185.927 17.0928L186.584 13.1472C186.046 13.0575 185.21 13.03 184.525 13.03C183.854 13.03 183.011 13.0558 182.483 13.1534L183.212 17.0866ZM184.256 15.167C184.303 17.1747 184.303 28.7603 184.256 30.9161L188.255 31.0039C188.304 28.7917 188.304 17.1453 188.255 15.073L184.256 15.167ZM175.943 25.1712C174.306 25.2634 168.457 25.2863 166.603 25.1718L166.356 29.1642C168.39 29.2897 174.397 29.2646 176.168 29.1648L175.943 25.1712ZM168.479 27.1161C168.432 25.3025 168.432 17.6333 168.479 15.8446L164.48 15.7394C164.431 17.5987 164.431 25.3375 164.48 27.2199L168.479 27.1161ZM166.684 17.7816C167.463 17.7016 168.916 17.7204 169.64 17.7843L169.991 13.7997C169.083 13.7196 167.368 13.6904 166.276 13.8024L166.684 17.7816ZM167.816 15.792V18.696H171.816V15.792H167.816ZM169.866 20.6954C170.792 20.6722 171.767 20.6722 172.694 20.6954L172.794 16.6966C171.8 16.6718 170.759 16.6718 169.766 16.6966L169.866 20.6954ZM174.744 18.696V15.792H170.744V18.696H174.744ZM172.897 17.7861C173.731 17.722 175.068 17.722 175.902 17.7861L176.209 13.7979C175.171 13.718 173.628 13.718 172.59 13.7979L172.897 17.7861ZM174.057 15.8545C174.08 16.5952 174.104 18.1092 174.104 19.8H178.104C178.104 18.0828 178.079 16.5248 178.055 15.7295L174.057 15.8545ZM176.18 21.7985C176.753 21.7765 177.374 21.7765 177.947 21.7985L178.1 17.8015C177.425 17.7755 176.702 17.7755 176.027 17.8015L176.18 21.7985ZM180.024 19.8C180.024 17.5866 180.048 15.8288 180.07 15.3269L176.073 15.1531C176.047 15.7552 176.024 17.5974 176.024 19.8H180.024ZM178.436 17.2066C178.431 17.2075 178.465 17.2014 178.552 17.1936C178.634 17.1863 178.737 17.1795 178.862 17.1738C179.113 17.1626 179.414 17.1576 179.728 17.159C180.387 17.1619 180.965 17.1923 181.191 17.2225L181.72 13.2575C181.226 13.1917 180.436 13.1621 179.745 13.159C179.092 13.1561 178.244 13.1741 177.707 13.2734L178.436 17.2066ZM179.457 15.3097C179.527 17.3174 179.48 28.6173 179.456 30.7695L183.455 30.8145C183.479 28.6947 183.528 17.2906 183.454 15.1703L179.457 15.3097ZM181.235 28.8042C180.748 28.8583 178.988 28.8632 178.242 28.7993L177.901 32.7847C178.835 32.8648 180.867 32.8697 181.676 32.7798L181.235 28.8042ZM180.07 30.7032C180.024 29.678 180 26.346 180 22.944H176C176 26.31 176.023 29.746 176.074 30.8808L180.07 30.7032ZM177.92 20.9456C177.374 20.9674 176.754 20.9675 176.18 20.9455L176.027 24.9425C176.701 24.9685 177.425 24.9686 178.079 24.9424L177.92 20.9456ZM174.104 22.944C174.104 25.0049 174.079 26.7143 174.059 27.0506L178.052 27.2854C178.08 26.8057 178.104 24.9631 178.104 22.944H174.104ZM167.816 21.672V24.24H171.816V21.672H167.816ZM169.732 26.2383C170.936 26.2884 171.74 26.2889 172.836 26.2378L172.651 22.2422C171.684 22.2871 170.999 22.2876 169.899 22.2417L169.732 26.2383ZM174.744 24.24V21.672H170.744V24.24H174.744ZM172.694 19.6726C171.766 19.6958 170.768 19.6958 169.867 19.6727L169.764 23.6713C170.735 23.6962 171.801 23.6962 172.794 23.6714L172.694 19.6726ZM184.676 33.8929C184.755 34.6081 184.756 35.8299 184.675 36.577L188.652 37.007C188.763 35.9781 188.764 34.4639 188.651 33.4511L184.676 33.8929ZM186.539 34.7959C184.707 34.9104 170.53 34.9113 168.413 34.795L168.194 38.789C170.446 38.9127 184.781 38.9136 186.788 38.7881L186.539 34.7959ZM170.299 36.6572C170.186 34.989 170.231 30.4186 170.301 29.0456L166.306 28.8424C166.232 30.3014 166.181 35.043 166.308 36.9268L170.299 36.6572ZM168.496 30.9347C169.104 30.8759 170.95 30.8735 171.713 30.9371L172.046 26.9509C171.081 26.8705 168.991 26.8681 168.111 26.9533L168.496 30.9347ZM169.881 29.0239C169.927 30.1688 169.927 32.3493 169.881 33.598L173.878 33.746C173.928 32.4027 173.928 30.1192 173.878 28.8641L169.881 29.0239ZM171.889 35.672C177.217 35.6479 184.851 35.6244 186.61 35.6713L186.717 31.6727C184.876 31.6236 177.15 31.6481 171.871 31.672L171.889 35.672ZM207.734 29.28L207.831 31.2776L209.563 31.1931L209.725 29.4667L207.734 29.28ZM189.47 29.28L187.472 29.3824L187.567 31.2227L189.408 31.2791L189.47 29.28ZM189.47 15.744L189.367 13.7467L187.551 13.8403L187.472 15.6571L189.47 15.744ZM207.254 15.744L209.243 15.5346L209.06 13.7973L207.314 13.7449L207.254 15.744ZM207.254 18.936L207.311 20.9352L209.06 20.8852L209.243 19.1454L207.254 18.936ZM193.19 18.936L193.243 16.9367L191.19 16.882V18.936H193.19ZM193.166 20.928H191.166V22.9433L193.181 22.9279L193.166 20.928ZM206.534 20.928L208.523 20.7186L208.334 18.928H206.534V20.928ZM206.534 24.12L206.585 26.1193L208.386 26.0732L208.527 24.2774L206.534 24.12ZM193.166 24.12L193.181 22.1201L191.166 22.1047V24.12H193.166ZM193.19 26.136H191.19V28.136H193.19V26.136ZM207.734 26.136L209.728 25.9826L209.588 24.1609L207.761 24.1362L207.734 26.136ZM208.79 33.024L210.778 32.809L210.589 31.0618L208.832 31.0245L208.79 33.024ZM208.79 36.144L208.929 38.1392L210.62 38.0212L210.781 36.3336L208.79 36.144ZM188.15 36.144L186.162 36.3649L186.353 38.0842L188.082 38.1429L188.15 36.144ZM188.15 33.024L188.111 31.0244L186.341 31.0584L186.16 32.8199L188.15 33.024ZM207.636 27.2824C205.744 27.3747 191.859 27.3522 189.531 27.2809L189.408 31.2791C191.784 31.3518 205.787 31.3773 207.831 31.2776L207.636 27.2824ZM191.467 29.1776C191.327 26.4453 191.35 18.5419 191.468 15.8309L187.472 15.6571C187.349 18.4661 187.324 26.4987 187.472 29.3824L191.467 29.1776ZM189.573 17.7413C191.819 17.6256 204.81 17.6716 207.194 17.7431L207.314 13.7449C204.897 13.6724 191.777 13.6224 189.367 13.7467L189.573 17.7413ZM205.265 15.9534C205.346 16.7262 205.346 17.9538 205.265 18.7266L209.243 19.1454C209.353 18.0942 209.353 16.5858 209.243 15.5346L205.265 15.9534ZM207.197 16.9368C205.556 16.9837 195.009 16.9838 193.243 16.9367L193.136 20.9353C194.971 20.9842 205.592 20.9843 207.311 20.9352L207.197 16.9368ZM191.19 18.936C191.19 19.0927 191.184 19.3376 191.178 19.6989C191.172 20.0451 191.166 20.4667 191.166 20.928H195.166C195.166 20.5013 195.171 20.1069 195.177 19.7691C195.183 19.4464 195.19 19.1393 195.19 18.936H191.19ZM193.181 22.9279C196.315 22.904 204.597 22.928 206.534 22.928V18.928C204.63 18.928 196.304 18.904 193.15 18.9281L193.181 22.9279ZM204.545 21.1374C204.623 21.8836 204.606 23.119 204.54 23.9626L208.527 24.2774C208.605 23.297 208.636 21.7964 208.523 20.7186L204.545 21.1374ZM206.482 22.1207C204.651 22.1676 196.338 22.1442 193.181 22.1201L193.15 26.1199C196.281 26.1438 204.672 26.1684 206.585 26.1193L206.482 22.1207ZM191.166 24.12C191.166 24.5929 191.172 25.026 191.178 25.3785C191.184 25.7474 191.19 25.991 191.19 26.136H195.19C195.19 25.945 195.183 25.6366 195.177 25.3095C195.171 24.966 195.166 24.5591 195.166 24.12H191.166ZM193.19 28.136C195.109 28.136 205.949 28.1121 207.707 28.1358L207.761 24.1362C205.967 24.1119 195.062 24.136 193.19 24.136V28.136ZM205.74 26.2894C205.805 27.1355 205.802 28.4596 205.742 29.0933L209.725 29.4667C209.81 28.5644 209.807 27.0085 209.728 25.9826L205.74 26.2894ZM206.801 33.239C206.881 33.9761 206.884 35.0635 206.799 35.9544L210.781 36.3336C210.888 35.2085 210.89 33.8479 210.778 32.809L206.801 33.239ZM208.65 34.1488C206.697 34.2851 191.041 34.2409 188.217 34.1451L188.082 38.1429C190.922 38.2391 206.754 38.2909 208.929 38.1392L208.65 34.1488ZM190.137 35.9231C190.058 35.2114 190.057 34.0343 190.139 33.2281L186.16 32.8199C186.051 33.8857 186.049 35.3486 186.162 36.3649L190.137 35.9231ZM188.188 35.0236C193.152 34.9282 206.517 34.9761 208.747 35.0235L208.832 31.0245C206.55 30.9759 193.131 30.9278 188.111 31.0244L188.188 35.0236Z" fill="white" mask="url(#path-2-outside-1_1_7)"/>
<path fill-rule="evenodd" clip-rule="evenodd" d="M40.1223 11.4579C39.9375 11.21 39.6598 11.048 39.3531 11.0091C39.0464 10.9701 38.737 11.0576 38.4961 11.2515C35.6576 13.5355 33.6778 16.849 33.1251 20.6262C32.1285 19.9038 31.2533 19.0236 30.5363 18.0223C30.3391 17.7469 30.0294 17.5736 29.6914 17.5496C29.3535 17.5256 29.0224 17.6534 28.7882 17.8982C26.4426 20.35 25 23.6777 25 27.3399C25 34.8841 31.1159 41 38.6601 41C46.2044 41 52.3203 34.8841 52.3203 27.3399C52.3203 21.7834 49.0028 17.0042 44.2453 14.8703C42.5618 14.0484 41.1716 12.8649 40.1223 11.4579ZM44.3519 29.6171C44.3519 32.7606 41.8036 35.3089 38.6601 35.3089C35.5167 35.3089 32.9684 32.7606 32.9684 29.6171C32.9684 28.9958 33.068 28.3978 33.252 27.8381C34.2059 28.5433 35.3023 29.0666 36.4902 29.357C36.8178 27.2309 37.8809 25.3474 39.4113 23.9745C42.1997 24.3422 44.3519 26.7283 44.3519 29.6171Z" fill="#E11D48" stroke="#6C484D" stroke-width="2" stroke-linejoin="round"/>
</svg>
