<svg fill="none" viewBox="0 0 75 75"><rect width="71" height="71" x="2" y="2" fill="#A4E96B" stroke="#44A342" stroke-width="4" rx="14"/><path fill="#E11D48" fill-rule="evenodd" stroke="#6C484D" stroke-linejoin="round" stroke-width="2" d="M39.122 15.458a1.138 1.138 0 00-1.626-.207 14.785 14.785 0 00-5.37 9.375 11.454 11.454 0 01-2.59-2.604 1.138 1.138 0 00-1.748-.124A13.618 13.618 0 0024 31.34C24 38.884 30.116 45 37.66 45c7.544 0 13.66-6.116 13.66-13.66 0-5.557-3.317-10.336-8.075-12.47a11.323 11.323 0 01-4.123-3.412zm4.23 18.16a5.692 5.692 0 11-11.1-1.78 9.068 9.068 0 003.238 1.519 9.09 9.09 0 012.921-5.383 5.693 5.693 0 014.94 5.643z" clip-rule="evenodd"/><mask id="a" width="43" height="17" x="15" y="45" fill="#000" maskUnits="userSpaceOnUse"><path fill="#fff" d="M15 45h43v17H15z"/><path d="M25.437 49.675c-1.305.03-7.875.03-8.76 0a9.945 9.945 0 010-1.89c.3-.015 1.68-.03 3.3-.03 0-.39 0-.825.03-1.155.405-.09 1.755-.09 2.355 0 .015.33.03.75.015 1.155 1.29 0 2.46.015 3.06.03.03.525.045 1.38 0 1.89zm4.56.57c.045.57.045 1.455 0 2.025-.24.03-.69.045-1.29.045 0 1.545-.015 2.955-.03 3.585-.465.06-1.71.045-2.235 0-.045-1.29-.045-7.935 0-9.075.405-.06 1.71-.075 2.235 0 .015.63.015 1.95.03 3.39.525 0 .975.015 1.29.03zM21.177 55c-3.06 0-4.185-.66-4.185-2.475 0-1.89 1.26-2.475 4.185-2.475 3.06 0 4.185.66 4.185 2.475 0 1.89-1.26 2.475-4.185 2.475zm0-3.18c-1.65 0-2.085.165-2.085.705 0 .555.495.72 2.085.72 1.65 0 2.085-.18 2.085-.72s-.495-.705-2.085-.705zm3.195 3.84c.015.48.03.9.03 1.275 1.77.555 3.75 1.185 4.965 1.59-.03.525-.45 1.575-.66 1.92-1.02-.285-3.39-1.035-5.445-1.77-2.055.765-4.47 1.56-5.43 1.845-.225-.345-.66-1.335-.705-1.845 1.215-.45 3.165-1.125 4.905-1.725 0-.375.015-.795.03-1.29.405-.045 1.785-.06 2.31 0zm19.484-3.855c.06.57.06 1.56 0 2.13-.24.03-.705.045-1.335.045 0 2.79-.015 5.49-.045 6.345-.465.06-1.725.045-2.25 0-.06-1.74-.045-11.76 0-13.5.405-.09 1.725-.075 2.25 0 .03.795.045 2.76.045 4.95.555 0 1.005.015 1.335.03zm-10.47 5.505c1.23-.03 4.47-.03 5.73 0 .06.57.06 1.44 0 2.01-1.365.06-6.42.075-8.04 0-.09-1.755-.075-10.35 0-12.075 1.335-.06 5.97-.045 7.14 0 .06.525.06 1.455 0 2.025-.9.03-3.915.03-4.83 0 0 .87.015 1.905.015 3 1.365-.015 3.315 0 4.44 0 .06.57.045 1.44 0 2.01-1.095.03-3.09.015-4.44 0 0 1.065-.015 2.1-.015 3.03zm21.178-3.405c-.045-1.29-.045-5.94 0-7.08.405-.06 1.71-.075 2.235 0 .03 1.62.045 5.595 0 7.08-.465.06-1.71.045-2.235 0zm-5.94-.3c-3 0-4.17-1.215-4.17-3.345 0-2.115 1.17-3.345 4.17-3.345s4.17 1.23 4.17 3.345c0 2.13-1.17 3.345-4.17 3.345zm0-1.905c1.395 0 1.935-.48 1.935-1.44s-.54-1.44-1.935-1.44c-1.425 0-1.935.48-1.935 1.44s.51 1.44 1.935 1.44zm-2.97 8.67c-.075-1.635-.045-4.275 0-5.79.93-.06 10.74-.045 11.145 0 .06 1.185.06 4.665 0 5.79-1.005.09-9.975.105-11.145 0zm2.205-1.875c.69.045 6.105.03 6.735 0 .03-.435.03-1.485 0-2.025-.84-.045-5.745-.03-6.735 0-.03.465-.045 1.425 0 2.025z"/></mask><path fill="#252525" d="M25.437 49.675c-1.305.03-7.875.03-8.76 0a9.945 9.945 0 010-1.89c.3-.015 1.68-.03 3.3-.03 0-.39 0-.825.03-1.155.405-.09 1.755-.09 2.355 0 .015.33.03.75.015 1.155 1.29 0 2.46.015 3.06.03.03.525.045 1.38 0 1.89zm4.56.57c.045.57.045 1.455 0 2.025-.24.03-.69.045-1.29.045 0 1.545-.015 2.955-.03 3.585-.465.06-1.71.045-2.235 0-.045-1.29-.045-7.935 0-9.075.405-.06 1.71-.075 2.235 0 .015.63.015 1.95.03 3.39.525 0 .975.015 1.29.03zM21.177 55c-3.06 0-4.185-.66-4.185-2.475 0-1.89 1.26-2.475 4.185-2.475 3.06 0 4.185.66 4.185 2.475 0 1.89-1.26 2.475-4.185 2.475zm0-3.18c-1.65 0-2.085.165-2.085.705 0 .555.495.72 2.085.72 1.65 0 2.085-.18 2.085-.72s-.495-.705-2.085-.705zm3.195 3.84c.015.48.03.9.03 1.275 1.77.555 3.75 1.185 4.965 1.59-.03.525-.45 1.575-.66 1.92-1.02-.285-3.39-1.035-5.445-1.77-2.055.765-4.47 1.56-5.43 1.845-.225-.345-.66-1.335-.705-1.845 1.215-.45 3.165-1.125 4.905-1.725 0-.375.015-.795.03-1.29.405-.045 1.785-.06 2.31 0zm19.484-3.855c.06.57.06 1.56 0 2.13-.24.03-.705.045-1.335.045 0 2.79-.015 5.49-.045 6.345-.465.06-1.725.045-2.25 0-.06-1.74-.045-11.76 0-13.5.405-.09 1.725-.075 2.25 0 .03.795.045 2.76.045 4.95.555 0 1.005.015 1.335.03zm-10.47 5.505c1.23-.03 4.47-.03 5.73 0 .06.57.06 1.44 0 2.01-1.365.06-6.42.075-8.04 0-.09-1.755-.075-10.35 0-12.075 1.335-.06 5.97-.045 7.14 0 .06.525.06 1.455 0 2.025-.9.03-3.915.03-4.83 0 0 .87.015 1.905.015 3 1.365-.015 3.315 0 4.44 0 .06.57.045 1.44 0 2.01-1.095.03-3.09.015-4.44 0 0 1.065-.015 2.1-.015 3.03zm21.178-3.405c-.045-1.29-.045-5.94 0-7.08.405-.06 1.71-.075 2.235 0 .03 1.62.045 5.595 0 7.08-.465.06-1.71.045-2.235 0zm-5.94-.3c-3 0-4.17-1.215-4.17-3.345 0-2.115 1.17-3.345 4.17-3.345s4.17 1.23 4.17 3.345c0 2.13-1.17 3.345-4.17 3.345zm0-1.905c1.395 0 1.935-.48 1.935-1.44s-.54-1.44-1.935-1.44c-1.425 0-1.935.48-1.935 1.44s.51 1.44 1.935 1.44zm-2.97 8.67c-.075-1.635-.045-4.275 0-5.79.93-.06 10.74-.045 11.145 0 .06 1.185.06 4.665 0 5.79-1.005.09-9.975.105-11.145 0zm2.205-1.875c.69.045 6.105.03 6.735 0 .03-.435.03-1.485 0-2.025-.84-.045-5.745-.03-6.735 0-.03.465-.045 1.425 0 2.025z"/><path fill="#fff" d="M25.437 49.675l.023 1 .894-.02.079-.892-.996-.088zm-8.76 0l-.995.105.091.865.87.03.034-1zm0-1.89l-.05-.999-.853.043-.091.849.994.107zm3.3-.03v1h1v-1h-1zm.03-1.155l-.217-.976-.713.158-.066.728.996.09zm2.355 0l.999-.045-.038-.822-.813-.122-.148.989zm.015 1.155l-1-.037-.038 1.037h1.038v-1zm3.06.03l.998-.057-.052-.92-.921-.023-.025 1zm4.56 2.46l.997-.079-.07-.878-.88-.042-.047.999zm0 2.025l.124.992.809-.1.064-.813-.997-.079zm-1.29.045v-1h-1v1h1zm-.03 3.585l.128.992.851-.11.02-.858-1-.024zm-2.235 0l-1 .035.031.886.883.075.086-.996zm0-9.075l-.147-.99-.82.122-.033.829 1 .039zm2.235 0l1-.024-.02-.846-.839-.12-.141.99zm.03 3.39l-1 .01.01.99h.99v-1zm-4.335 5.445l1-.031-.028-.864-.859-.099-.113.994zm.03 1.275h-1v.734l.7.22.3-.954zm4.965 1.59l.998.057.044-.764-.726-.242-.316.949zm-.66 1.92l-.27.963.73.204.394-.647-.854-.52zm-5.445-1.77l.337-.942-.344-.122-.342.127.349.937zm-5.43 1.845l-.838.546.407.625.715-.212-.284-.959zm-.705-1.845l-.348-.938-.715.265.067.76.996-.087zm4.905-1.725l.326.945.674-.232v-.713h-1zm.03-1.29l-.11-.994-.864.096-.026.868 1 .03zm3.352-6.985c-1.294.03-7.844.03-8.703 0l-.068 2c.91.03 7.5.03 8.817 0l-.046-2zm-7.743.895a8.956 8.956 0 010-1.678l-1.988-.215a10.92 10.92 0 000 2.103l1.988-.21zm-.944-.786c.269-.014 1.62-.029 3.25-.029v-2c-1.61 0-3.02.015-3.35.031l.1 1.998zm4.25-1.029c0-.405 0-.79.026-1.065l-1.992-.18c-.035.385-.034.87-.034 1.245h2zm-.753-.179l.02-.003c.016-.003.037-.005.065-.008a3.38 3.38 0 01.21-.017c.17-.01.375-.016.592-.016.449 0 .877.023 1.102.057l.297-1.978a10.554 10.554 0 00-1.399-.078c-.451 0-.996.019-1.321.09l.434 1.953zm1.139-.93c.015.325.028.71.014 1.072l2 .074c.016-.449-.001-.903-.016-1.237l-1.998.09zm1.014 2.109c1.284 0 2.445.015 3.035.03l.05-2c-.61-.015-1.79-.03-3.085-.03v2zm2.061-.913c.03.509.041 1.307.003 1.745l1.992.176c.051-.582.033-1.494.002-2.035l-1.997.114zM29 50.324c.04.517.04 1.35 0 1.867l1.994.158c.049-.623.049-1.56 0-2.183L29 50.324zm.873.954c-.17.021-.563.037-1.166.037v2c.596 0 1.104-.014 1.414-.053l-.248-1.984zm-2.166 1.037a178.6 178.6 0 01-.03 3.561l2 .048c.015-.642.03-2.06.03-3.609h-2zm.842 2.593c-.364.047-1.53.038-2.022-.004l-.17 1.992c.557.048 1.882.069 2.448-.004l-.256-1.984zm-1.108.957c-.044-1.268-.044-7.888 0-9l-1.998-.08c-.047 1.168-.046 7.838 0 9.15l1.998-.07zm-.853-8.05a8.96 8.96 0 01.93-.04c.44-.002.833.014 1.017.04l.283-1.98c-.34-.049-.862-.063-1.308-.06-.443.001-.934.02-1.215.06l.293 1.98zm1.089-.966c.015.623.015 1.915.03 3.376l2-.02c-.015-1.42-.015-2.767-.03-3.404l-2 .048zm1.03 4.366c.506 0 .94.014 1.242.029l.095-1.998a28.534 28.534 0 00-1.337-.031v2zM21.177 54c-1.514 0-2.319-.174-2.732-.418a.773.773 0 01-.33-.34c-.067-.14-.123-.361-.123-.717h-2c0 .552.084 1.094.323 1.588.245.508.625.903 1.113 1.191.915.54 2.203.696 3.749.696v-2zm-3.185-1.475c0-.366.061-.589.133-.73a.812.812 0 01.352-.345c.436-.244 1.249-.4 2.7-.4v-2c-1.474 0-2.754.137-3.68.657a2.806 2.806 0 00-1.153 1.179c-.256.501-.352 1.06-.352 1.639h2zm3.185-1.475c1.514 0 2.319.174 2.731.418a.773.773 0 01.33.34c.068.14.124.361.124.717h2c0-.552-.085-1.094-.323-1.588a2.768 2.768 0 00-1.114-1.191c-.915-.54-2.202-.696-3.748-.696v2zm3.185 1.475c0 .366-.062.589-.133.73a.812.812 0 01-.353.344c-.435.245-1.248.401-2.7.401v2c1.475 0 2.754-.137 3.68-.657a2.806 2.806 0 001.154-1.179c.256-.501.352-1.06.352-1.639h-2zm-3.185-1.705c-.805 0-1.49.033-1.988.205a1.642 1.642 0 00-.812.573c-.23.317-.285.659-.285.927h2c0-.002 0 .117-.098.25-.094.13-.192.154-.152.14.046-.015.162-.044.4-.065.231-.02.535-.03.935-.03v-2zm-3.085 1.705c0 .291.067.639.306.953.232.303.541.467.816.561.502.172 1.184.206 1.963.206v-2c-.384 0-.68-.01-.908-.03a1.894 1.894 0 01-.406-.068c-.049-.016.038.002.126.119a.47.47 0 01.103.259h-2zm3.085 1.72c.808 0 1.497-.037 1.997-.216.278-.099.584-.27.807-.58a1.56 1.56 0 00.28-.924h-2c0 .002.001-.113.094-.242.09-.126.184-.15.147-.137a1.81 1.81 0 01-.396.067c-.229.021-.531.032-.93.032v2zm3.085-1.72c0-.293-.07-.64-.314-.953a1.692 1.692 0 00-.813-.55c-.499-.168-1.178-.202-1.958-.202v2c.384 0 .68.01.908.03.235.021.357.05.411.068.051.017-.035 0-.125-.116a.489.489 0 01-.11-.277h2zm-.89 3.166c.015.49.03.889.03 1.244h2c0-.395-.016-.836-.03-1.306l-2 .062zm.73 2.198a338.83 338.83 0 014.948 1.585l.633-1.898a342.853 342.853 0 00-4.982-1.595l-.598 1.908zm4.266.579c-.006.105-.072.38-.203.743a5.094 5.094 0 01-.312.714l1.708 1.04c.156-.256.34-.677.483-1.07.138-.38.297-.893.321-1.313l-1.997-.114zm.608 1.014c-.992-.277-3.34-1.02-5.377-1.749l-.674 1.884c2.072.74 4.465 1.498 5.513 1.791l.538-1.926zm-6.063-1.744c-2.037.758-4.43 1.546-5.366 1.823l.57 1.918c.984-.293 3.42-1.095 5.494-1.867l-.698-1.874zm-4.244 2.236a4.868 4.868 0 01-.33-.688c-.138-.343-.207-.601-.216-.699l-1.992.176c.036.412.206.904.353 1.27.153.38.346.782.51 1.033l1.675-1.092zm-1.195-.361c1.202-.446 3.14-1.116 4.884-1.718l-.652-1.89a275.224 275.224 0 00-4.927 1.732l.695 1.876zm5.558-2.663c0-.356.014-.754.03-1.26l-2-.06c-.015.484-.03.925-.03 1.32h2zm-.86-.296c.144-.016.542-.032 1.004-.033.462-.002.885.01 1.082.032l.227-1.986a13.127 13.127 0 00-1.317-.046 14.1 14.1 0 00-1.217.045l.221 1.988zm21.684-4.849l.994-.105-.09-.855-.859-.039-.045.999zm0 2.13l.124.992.787-.098.083-.79-.994-.104zm-1.335.045v-1h-1v1h1zm-.045 6.345l.128.992.841-.109.03-.848-1-.035zm-2.25 0l-1 .034.03.887.884.075.086-.996zm0-13.5l-.217-.976-.763.17-.02.78 1 .026zm2.25 0l.999-.038-.032-.834-.826-.118-.141.99zm.045 4.95h-1v1h1v-1zm-9.135 5.535h-1v1.025l1.024-.025-.024-1zm5.73 0l.994-.105-.092-.874-.879-.02-.023.999zm0 2.01l.044.999.86-.038.09-.856-.994-.105zm-8.04 0l-1 .051.047.906.906.042.047-.999zm0-12.075l-.045-.999-.915.041-.04.915 1 .043zm7.14 0l.993-.113-.097-.853-.858-.033-.038.999zm0 2.025l.033 1 .87-.03.091-.865-.994-.105zm-4.83 0l.032-1-1.032-.033v1.033h1zm.015 3h-1v1.011l1.01-.011-.01-1zm4.44 0l.994-.105-.094-.895h-.9v1zm0 2.01l.027 1 .899-.025.07-.896-.996-.079zm-4.44 0l.01-1-1.01-.011v1.011h1zm9.46-2.37c.053.5.053 1.42 0 1.92l1.99.21c.066-.64.066-1.7 0-2.34l-1.99.21zm.87 1.033c-.169.02-.574.037-1.21.037v2c.624 0 1.148-.014 1.459-.053l-.248-1.984zm-2.21 1.037c0 2.797-.016 5.477-.045 6.31l1.999.07c.03-.877.046-3.597.046-6.38h-2zm.827 5.353c-.365.047-1.545.038-2.037-.004l-.17 1.992c.557.048 1.897.069 2.463-.004l-.256-1.984zm-1.123.958c-.06-1.714-.044-11.713 0-13.44l-2-.052c-.044 1.753-.06 11.794.001 13.56l1.999-.069zm-.782-12.49a4.039 4.039 0 01.285-.026 10.3 10.3 0 01.573-.012c.434.002.84.024 1.033.052l.283-1.98c-.332-.047-.848-.07-1.307-.072-.431-.002-.973.013-1.301.086l.434 1.952zm1.033-.938c.03.772.045 2.717.045 4.912h2c0-2.185-.015-4.17-.046-4.988l-1.999.076zm1.045 5.912c.536 0 .97.014 1.29.029l.09-1.998a30.222 30.222 0 00-1.38-.031v2zM33.41 58.31c1.214-.03 4.438-.03 5.682 0l.047-2c-1.275-.03-4.531-.03-5.778 0l.049 2zm4.711-.895c.053.5.053 1.3 0 1.8l1.99.21c.066-.64.066-1.58 0-2.22l-1.99.21zm.95.906c-1.337.059-6.362.074-7.95 0l-.092 1.998c1.653.076 6.739.061 8.13 0l-.087-1.998zm-6.997.948c-.088-1.718-.073-10.28 0-11.98l-1.997-.087c-.077 1.75-.092 10.377 0 12.17l1.997-.103zm-.953-11.025c1.301-.059 5.908-.044 7.056 0l.077-1.998c-1.191-.046-5.855-.062-7.223 0l.09 1.998zm6.101-.886a10.48 10.48 0 010 1.807l1.988.21c.067-.637.068-1.64 0-2.243l-1.988.227zm.96.913c-.877.029-3.87.029-4.764 0l-.065 1.998c.936.031 3.974.031 4.896 0l-.067-1.998zm-5.796.999c0 .44.003.92.007 1.423.004.505.008 1.034.008 1.577h2c0-.552-.004-1.088-.008-1.592-.004-.506-.007-.978-.007-1.408h-2zm1.026 4c1.358-.015 3.29 0 4.429 0v-2c-1.111 0-3.08-.015-4.451 0l.022 2zm3.434-.895c.051.487.04 1.29-.002 1.826l1.993.158c.048-.605.067-1.54-.002-2.194l-1.989.21zm.967.905c-1.072.03-3.046.015-4.401 0l-.023 2c1.345.015 3.361.03 4.479 0l-.055-2zm-5.412 1c0 .528-.004 1.05-.008 1.558-.004.507-.007 1.003-.007 1.472h2c0-.46.003-.948.007-1.457.004-.508.008-1.036.008-1.573h-2zm22.163-.375l-.999.035.03.886.884.075.085-.996zm0-7.08l-.146-.99-.82.122-.033.829 1 .039zm2.235 0l1-.019-.016-.85-.842-.121-.142.99zm0 7.08l.128.992.846-.11.026-.852-1-.03zM45.654 60.37l-.998.046.04.872.869.078.09-.996zm0-5.79l-.064-.998-.908.059-.027.91 1 .029zm11.145 0l1-.05-.044-.85-.845-.094-.11.994zm0 5.79l.09.996.863-.077.046-.866-.999-.053zm-8.94-1.875l-.997.075.065.866.867.057.065-.998zm6.735 0l.048.999.889-.042.061-.888-.998-.069zm0-2.025l.999-.056-.05-.895-.895-.048-.054.999zm-6.735 0l-.03-1-.909.028-.059.908.998.064zm7.705-2.6c-.044-1.268-.044-5.893 0-7.006l-1.999-.078c-.046 1.167-.046 5.842 0 7.154l1.999-.07zm-.853-6.056c.124-.018.488-.038.93-.04.44-.002.833.015 1.017.04l.283-1.979c-.341-.049-.862-.063-1.308-.06-.443.001-.935.02-1.215.06l.293 1.98zm1.089-.97c.03 1.614.044 5.57 0 7.03l1.999.061c.046-1.51.03-5.503 0-7.129l-2 .038zm.871 6.07c-.364.046-1.529.037-2.021-.005l-.171 1.992c.558.048 1.883.069 2.448-.004l-.256-1.984zm-8.047-.309c-1.393 0-2.154-.287-2.56-.634-.373-.319-.61-.828-.61-1.711h-2c0 1.247.349 2.41 1.311 3.232.928.792 2.253 1.113 3.86 1.113v-2zm-3.17-2.345c0-.874.236-1.385.611-1.706.408-.35 1.169-.639 2.56-.639v-2c-1.61 0-2.934.325-3.861 1.12-.96.822-1.31 1.984-1.31 3.225h2zm3.17-2.345c1.391 0 2.152.29 2.56.639.375.321.61.832.61 1.706h2c0-1.241-.349-2.403-1.309-3.225-.927-.794-2.251-1.12-3.86-1.12v2zm3.17 2.345c0 .883-.236 1.392-.609 1.71-.407.348-1.167.635-2.56.635v2c1.606 0 2.93-.32 3.859-1.113.962-.822 1.31-1.985 1.31-3.232h-2zm-3.17 2.44c.774 0 1.531-.126 2.104-.57.633-.49.831-1.197.831-1.87h-2a.74.74 0 01-.033.257.07.07 0 01-.024.033c-.046.036-.256.15-.878.15v2zm2.935-2.44c0-.673-.198-1.38-.831-1.87-.573-.444-1.33-.57-2.104-.57v2c.622 0 .832.114.878.15.01.008.015.013.023.033a.7.7 0 01.034.257h2zm-2.935-2.44c-.783 0-1.546.123-2.12.574-.633.497-.815 1.21-.815 1.866h2c0-.156.022-.235.034-.267.008-.021.012-.022.017-.026.038-.03.242-.147.884-.147v-2zm-2.935 2.44c0 .657.182 1.369.816 1.867.573.45 1.336.573 2.12.573v-2c-.642 0-.847-.117-.885-.147-.005-.004-.009-.005-.017-.026a.775.775 0 01-.034-.267h-2zm.964 10.064c-.073-1.597-.044-4.207.001-5.714l-2-.06c-.044 1.523-.075 4.193.002 5.866l1.997-.092zm-.934-4.746c.422-.027 3.058-.04 5.704-.037a529.37 529.37 0 014.804.024c.343.005.473.01.462.009l.22-1.988a10.036 10.036 0 00-.652-.021 132.12 132.12 0 00-1.232-.012c-.994-.007-2.29-.011-3.6-.012-2.593-.002-5.328.008-5.835.041l.129 1.996zM55.8 54.63c.058 1.152.058 4.597 0 5.686l1.997.106c.062-1.161.062-4.676 0-5.894l-1.997.102zm.91 4.743c-.447.04-2.879.067-5.423.07-2.544.001-5.017-.023-5.544-.07l-.179 1.992c.643.058 3.24.079 5.724.077 2.485-.002 5.04-.027 5.6-.077l-.179-1.992zm-8.917.119c.74.048 6.195.032 6.848 0l-.095-1.997c-.607.029-5.982.043-6.622.001l-.13 1.996zm7.798-.93c.034-.484.033-1.577 0-2.149l-1.996.111a21.86 21.86 0 010 1.901l1.996.138zm-.944-3.092c-.883-.047-5.82-.03-6.819 0l.06 1.998c.983-.03 5.854-.043 6.652 0l.107-1.998zm-7.787.935a19.124 19.124 0 00.001 2.164l1.995-.15a17.276 17.276 0 010-1.886l-1.995-.128z" mask="url(#a)"/></svg>