<svg width="75" height="75" viewBox="0 0 75 75" fill="none" xmlns="http://www.w3.org/2000/svg">
<rect x="2" y="2" width="71" height="71" rx="14" fill="#A4E96B" stroke="#44A342" stroke-width="4"/>
<path fill-rule="evenodd" clip-rule="evenodd" d="M39.1223 15.4579C38.9375 15.21 38.6598 15.048 38.3531 15.0091C38.0464 14.9701 37.737 15.0576 37.4961 15.2515C34.6576 17.5355 32.6778 20.849 32.1251 24.6262C31.1285 23.9038 30.2533 23.0236 29.5363 22.0223C29.3391 21.7469 29.0294 21.5736 28.6914 21.5496C28.3535 21.5256 28.0224 21.6534 27.7882 21.8982C25.4426 24.35 24 27.6777 24 31.3399C24 38.8841 30.1159 45 37.6601 45C45.2044 45 51.3203 38.8841 51.3203 31.3399C51.3203 25.7834 48.0028 21.0042 43.2453 18.8703C41.5618 18.0484 40.1716 16.8649 39.1223 15.4579ZM43.3519 33.6171C43.3519 36.7606 40.8036 39.3089 37.6601 39.3089C34.5167 39.3089 31.9684 36.7606 31.9684 33.6171C31.9684 32.9958 32.068 32.3978 32.252 31.8381C33.2059 32.5433 34.3023 33.0666 35.4902 33.357C35.8178 31.2309 36.8809 29.3474 38.4113 27.9745C41.1997 28.3422 43.3519 30.7283 43.3519 33.6171Z" fill="#E11D48" stroke="#6C484D" stroke-width="2" stroke-linejoin="round"/>
<mask id="path-3-outside-1_11_19" maskUnits="userSpaceOnUse" x="15" y="45" width="43" height="17" fill="black">
<rect fill="white" x="15" y="45" width="43" height="17"/>
<path d="M25.4368 49.675C24.1318 49.705 17.5618 49.705 16.6768 49.675C16.6168 49.105 16.6168 48.34 16.6768 47.785C16.9768 47.77 18.3568 47.755 19.9768 47.755C19.9768 47.365 19.9768 46.93 20.0068 46.6C20.4118 46.51 21.7618 46.51 22.3618 46.6C22.3768 46.93 22.3918 47.35 22.3768 47.755C23.6668 47.755 24.8368 47.77 25.4368 47.785C25.4668 48.31 25.4818 49.165 25.4368 49.675ZM29.9968 50.245C30.0418 50.815 30.0418 51.7 29.9968 52.27C29.7568 52.3 29.3068 52.315 28.7068 52.315C28.7068 53.86 28.6918 55.27 28.6768 55.9C28.2118 55.96 26.9668 55.945 26.4418 55.9C26.3968 54.61 26.3968 47.965 26.4418 46.825C26.8468 46.765 28.1518 46.75 28.6768 46.825C28.6918 47.455 28.6918 48.775 28.7068 50.215C29.2318 50.215 29.6818 50.23 29.9968 50.245ZM21.1768 55C18.1168 55 16.9918 54.34 16.9918 52.525C16.9918 50.635 18.2518 50.05 21.1768 50.05C24.2368 50.05 25.3618 50.71 25.3618 52.525C25.3618 54.415 24.1018 55 21.1768 55ZM21.1768 51.82C19.5268 51.82 19.0918 51.985 19.0918 52.525C19.0918 53.08 19.5868 53.245 21.1768 53.245C22.8268 53.245 23.2618 53.065 23.2618 52.525C23.2618 51.985 22.7668 51.82 21.1768 51.82ZM24.3718 55.66C24.3868 56.14 24.4018 56.56 24.4018 56.935C26.1718 57.49 28.1518 58.12 29.3668 58.525C29.3368 59.05 28.9168 60.1 28.7068 60.445C27.6868 60.16 25.3168 59.41 23.2618 58.675C21.2068 59.44 18.7918 60.235 17.8318 60.52C17.6068 60.175 17.1718 59.185 17.1268 58.675C18.3418 58.225 20.2918 57.55 22.0318 56.95C22.0318 56.575 22.0468 56.155 22.0618 55.66C22.4668 55.615 23.8468 55.6 24.3718 55.66ZM43.8556 51.805C43.9156 52.375 43.9156 53.365 43.8556 53.935C43.6156 53.965 43.1506 53.98 42.5206 53.98C42.5206 56.77 42.5056 59.47 42.4756 60.325C42.0106 60.385 40.7506 60.37 40.2256 60.325C40.1656 58.585 40.1806 48.565 40.2256 46.825C40.6306 46.735 41.9506 46.75 42.4756 46.825C42.5056 47.62 42.5206 49.585 42.5206 51.775C43.0756 51.775 43.5256 51.79 43.8556 51.805ZM33.3856 57.31C34.6156 57.28 37.8556 57.28 39.1156 57.31C39.1756 57.88 39.1756 58.75 39.1156 59.32C37.7506 59.38 32.6956 59.395 31.0756 59.32C30.9856 57.565 31.0006 48.97 31.0756 47.245C32.4106 47.185 37.0456 47.2 38.2156 47.245C38.2756 47.77 38.2756 48.7 38.2156 49.27C37.3156 49.3 34.3006 49.3 33.3856 49.27C33.3856 50.14 33.4006 51.175 33.4006 52.27C34.7656 52.255 36.7156 52.27 37.8406 52.27C37.9006 52.84 37.8856 53.71 37.8406 54.28C36.7456 54.31 34.7506 54.295 33.4006 54.28C33.4006 55.345 33.3856 56.38 33.3856 57.31ZM54.5644 53.905C54.5194 52.615 54.5194 47.965 54.5644 46.825C54.9694 46.765 56.2744 46.75 56.7994 46.825C56.8294 48.445 56.8444 52.42 56.7994 53.905C56.3344 53.965 55.0894 53.95 54.5644 53.905ZM48.6244 53.605C45.6244 53.605 44.4544 52.39 44.4544 50.26C44.4544 48.145 45.6244 46.915 48.6244 46.915C51.6244 46.915 52.7944 48.145 52.7944 50.26C52.7944 52.39 51.6244 53.605 48.6244 53.605ZM48.6244 51.7C50.0194 51.7 50.5594 51.22 50.5594 50.26C50.5594 49.3 50.0194 48.82 48.6244 48.82C47.1994 48.82 46.6894 49.3 46.6894 50.26C46.6894 51.22 47.1994 51.7 48.6244 51.7ZM45.6544 60.37C45.5794 58.735 45.6094 56.095 45.6544 54.58C46.5844 54.52 56.3944 54.535 56.7994 54.58C56.8594 55.765 56.8594 59.245 56.7994 60.37C55.7944 60.46 46.8244 60.475 45.6544 60.37ZM47.8594 58.495C48.5494 58.54 53.9644 58.525 54.5944 58.495C54.6244 58.06 54.6244 57.01 54.5944 56.47C53.7544 56.425 48.8494 56.44 47.8594 56.47C47.8294 56.935 47.8144 57.895 47.8594 58.495Z"/>
</mask>
<path d="M25.4368 49.675C24.1318 49.705 17.5618 49.705 16.6768 49.675C16.6168 49.105 16.6168 48.34 16.6768 47.785C16.9768 47.77 18.3568 47.755 19.9768 47.755C19.9768 47.365 19.9768 46.93 20.0068 46.6C20.4118 46.51 21.7618 46.51 22.3618 46.6C22.3768 46.93 22.3918 47.35 22.3768 47.755C23.6668 47.755 24.8368 47.77 25.4368 47.785C25.4668 48.31 25.4818 49.165 25.4368 49.675ZM29.9968 50.245C30.0418 50.815 30.0418 51.7 29.9968 52.27C29.7568 52.3 29.3068 52.315 28.7068 52.315C28.7068 53.86 28.6918 55.27 28.6768 55.9C28.2118 55.96 26.9668 55.945 26.4418 55.9C26.3968 54.61 26.3968 47.965 26.4418 46.825C26.8468 46.765 28.1518 46.75 28.6768 46.825C28.6918 47.455 28.6918 48.775 28.7068 50.215C29.2318 50.215 29.6818 50.23 29.9968 50.245ZM21.1768 55C18.1168 55 16.9918 54.34 16.9918 52.525C16.9918 50.635 18.2518 50.05 21.1768 50.05C24.2368 50.05 25.3618 50.71 25.3618 52.525C25.3618 54.415 24.1018 55 21.1768 55ZM21.1768 51.82C19.5268 51.82 19.0918 51.985 19.0918 52.525C19.0918 53.08 19.5868 53.245 21.1768 53.245C22.8268 53.245 23.2618 53.065 23.2618 52.525C23.2618 51.985 22.7668 51.82 21.1768 51.82ZM24.3718 55.66C24.3868 56.14 24.4018 56.56 24.4018 56.935C26.1718 57.49 28.1518 58.12 29.3668 58.525C29.3368 59.05 28.9168 60.1 28.7068 60.445C27.6868 60.16 25.3168 59.41 23.2618 58.675C21.2068 59.44 18.7918 60.235 17.8318 60.52C17.6068 60.175 17.1718 59.185 17.1268 58.675C18.3418 58.225 20.2918 57.55 22.0318 56.95C22.0318 56.575 22.0468 56.155 22.0618 55.66C22.4668 55.615 23.8468 55.6 24.3718 55.66ZM43.8556 51.805C43.9156 52.375 43.9156 53.365 43.8556 53.935C43.6156 53.965 43.1506 53.98 42.5206 53.98C42.5206 56.77 42.5056 59.47 42.4756 60.325C42.0106 60.385 40.7506 60.37 40.2256 60.325C40.1656 58.585 40.1806 48.565 40.2256 46.825C40.6306 46.735 41.9506 46.75 42.4756 46.825C42.5056 47.62 42.5206 49.585 42.5206 51.775C43.0756 51.775 43.5256 51.79 43.8556 51.805ZM33.3856 57.31C34.6156 57.28 37.8556 57.28 39.1156 57.31C39.1756 57.88 39.1756 58.75 39.1156 59.32C37.7506 59.38 32.6956 59.395 31.0756 59.32C30.9856 57.565 31.0006 48.97 31.0756 47.245C32.4106 47.185 37.0456 47.2 38.2156 47.245C38.2756 47.77 38.2756 48.7 38.2156 49.27C37.3156 49.3 34.3006 49.3 33.3856 49.27C33.3856 50.14 33.4006 51.175 33.4006 52.27C34.7656 52.255 36.7156 52.27 37.8406 52.27C37.9006 52.84 37.8856 53.71 37.8406 54.28C36.7456 54.31 34.7506 54.295 33.4006 54.28C33.4006 55.345 33.3856 56.38 33.3856 57.31ZM54.5644 53.905C54.5194 52.615 54.5194 47.965 54.5644 46.825C54.9694 46.765 56.2744 46.75 56.7994 46.825C56.8294 48.445 56.8444 52.42 56.7994 53.905C56.3344 53.965 55.0894 53.95 54.5644 53.905ZM48.6244 53.605C45.6244 53.605 44.4544 52.39 44.4544 50.26C44.4544 48.145 45.6244 46.915 48.6244 46.915C51.6244 46.915 52.7944 48.145 52.7944 50.26C52.7944 52.39 51.6244 53.605 48.6244 53.605ZM48.6244 51.7C50.0194 51.7 50.5594 51.22 50.5594 50.26C50.5594 49.3 50.0194 48.82 48.6244 48.82C47.1994 48.82 46.6894 49.3 46.6894 50.26C46.6894 51.22 47.1994 51.7 48.6244 51.7ZM45.6544 60.37C45.5794 58.735 45.6094 56.095 45.6544 54.58C46.5844 54.52 56.3944 54.535 56.7994 54.58C56.8594 55.765 56.8594 59.245 56.7994 60.37C55.7944 60.46 46.8244 60.475 45.6544 60.37ZM47.8594 58.495C48.5494 58.54 53.9644 58.525 54.5944 58.495C54.6244 58.06 54.6244 57.01 54.5944 56.47C53.7544 56.425 48.8494 56.44 47.8594 56.47C47.8294 56.935 47.8144 57.895 47.8594 58.495Z" fill="#252525"/>
<path d="M25.4368 49.675L25.4597 50.6747L26.3542 50.6542L26.4329 49.7629L25.4368 49.675ZM16.6768 49.675L15.6823 49.7797L15.7733 50.645L16.6429 50.6744L16.6768 49.675ZM16.6768 47.785L16.6268 46.7862L15.7743 46.8289L15.6826 47.6775L16.6768 47.785ZM19.9768 47.755V48.755H20.9768V47.755H19.9768ZM20.0068 46.6L19.7898 45.6238L19.077 45.7822L19.0109 46.5095L20.0068 46.6ZM22.3618 46.6L23.3607 46.5546L23.3234 45.7331L22.5101 45.6111L22.3618 46.6ZM22.3768 47.755L21.3774 47.718L21.339 48.755H22.3768V47.755ZM25.4368 47.785L26.4351 47.728L26.3826 46.8083L25.4618 46.7853L25.4368 47.785ZM29.9968 50.245L30.9937 50.1663L30.9243 49.288L30.0443 49.2461L29.9968 50.245ZM29.9968 52.27L30.1208 53.2623L30.9295 53.1612L30.9937 52.3487L29.9968 52.27ZM28.7068 52.315V51.315H27.7068V52.315H28.7068ZM28.6768 55.9L28.8047 56.8918L29.656 56.7819L29.6765 55.9238L28.6768 55.9ZM26.4418 55.9L25.4424 55.9349L25.4733 56.8207L26.3564 56.8963L26.4418 55.9ZM26.4418 46.825L26.2952 45.8358L25.4752 45.9573L25.4425 46.7856L26.4418 46.825ZM28.6768 46.825L29.6765 46.8012L29.6563 45.9548L28.8182 45.835L28.6768 46.825ZM28.7068 50.215L27.7068 50.2254L27.7171 51.215H28.7068V50.215ZM24.3718 55.66L25.3713 55.6288L25.3443 54.7646L24.4853 54.6665L24.3718 55.66ZM24.4018 56.935H23.4018V57.6694L24.1026 57.8892L24.4018 56.935ZM29.3668 58.525L30.3651 58.5821L30.4088 57.8182L29.683 57.5763L29.3668 58.525ZM28.7068 60.445L28.4377 61.4081L29.1671 61.6119L29.561 60.9649L28.7068 60.445ZM23.2618 58.675L23.5985 57.7334L23.2549 57.6105L22.9129 57.7378L23.2618 58.675ZM17.8318 60.52L16.9941 61.0663L17.4015 61.6909L18.1164 61.4786L17.8318 60.52ZM17.1268 58.675L16.7794 57.7373L16.0635 58.0024L16.1306 58.7629L17.1268 58.675ZM22.0318 56.95L22.3577 57.8954L23.0318 57.663V56.95H22.0318ZM22.0618 55.66L21.9513 54.6661L21.0885 54.762L21.0622 55.6297L22.0618 55.66ZM25.4138 48.6753C24.1198 48.705 17.5701 48.7047 16.7106 48.6756L16.6429 50.6744C17.5534 50.7053 24.1438 50.705 25.4597 50.6747L25.4138 48.6753ZM17.6713 49.5703C17.6185 49.069 17.6188 48.3751 17.671 47.8925L15.6826 47.6775C15.6147 48.3049 15.615 49.141 15.6823 49.7797L17.6713 49.5703ZM16.7267 48.7838C16.9959 48.7703 18.3466 48.755 19.9768 48.755V46.755C18.3669 46.755 16.9576 46.7697 16.6268 46.7862L16.7267 48.7838ZM20.9768 47.755C20.9768 47.3496 20.9777 46.9655 21.0027 46.6905L19.0109 46.5095C18.9759 46.8945 18.9768 47.3804 18.9768 47.755H20.9768ZM20.2237 47.5762C20.2216 47.5766 20.2277 47.5753 20.2441 47.5728C20.2599 47.5703 20.2813 47.5675 20.3088 47.5645C20.3642 47.5584 20.4349 47.5526 20.5194 47.5477C20.6886 47.5378 20.8941 47.5325 21.1111 47.5325C21.5596 47.5325 21.988 47.5551 22.2134 47.5889L22.5101 45.6111C22.1355 45.5549 21.5889 45.5325 21.1111 45.5325C20.6595 45.5325 20.1148 45.5516 19.7898 45.6238L20.2237 47.5762ZM21.3628 46.6454C21.3776 46.9713 21.3908 47.3567 21.3774 47.718L23.3761 47.792C23.3927 47.3433 23.3759 46.8887 23.3607 46.5546L21.3628 46.6454ZM22.3768 48.755C23.6611 48.755 24.8224 48.77 25.4118 48.7847L25.4618 46.7853C24.8511 46.77 23.6724 46.755 22.3768 46.755V48.755ZM24.4384 47.842C24.4675 48.3507 24.4793 49.1492 24.4406 49.5871L26.4329 49.7629C26.4842 49.1808 26.4661 48.2693 26.4351 47.728L24.4384 47.842ZM28.9999 50.3237C29.0407 50.8413 29.0407 51.6737 28.9999 52.1913L30.9937 52.3487C31.0428 51.7263 31.0428 50.7887 30.9937 50.1663L28.9999 50.3237ZM29.8727 51.2777C29.7024 51.299 29.3105 51.315 28.7068 51.315V53.315C29.303 53.315 29.8111 53.301 30.1208 53.2623L29.8727 51.2777ZM27.7068 52.315C27.7068 53.8564 27.6918 55.2575 27.677 55.8762L29.6765 55.9238C29.6917 55.2825 29.7068 53.8636 29.7068 52.315H27.7068ZM28.5488 54.9082C28.1846 54.9552 27.0196 54.9459 26.5272 54.9037L26.3564 56.8963C26.914 56.9441 28.2389 56.9648 28.8047 56.8918L28.5488 54.9082ZM27.4412 55.8651C27.3969 54.5967 27.3971 47.9767 27.441 46.8644L25.4425 46.7856C25.3964 47.9533 25.3966 54.6233 25.4424 55.9349L27.4412 55.8651ZM26.5883 47.8142C26.7128 47.7958 27.0762 47.7762 27.5185 47.7744C27.9575 47.7725 28.3513 47.7887 28.5353 47.8149L28.8182 45.835C28.4772 45.7863 27.956 45.7725 27.51 45.7744C27.0673 45.7763 26.5757 45.7942 26.2952 45.8358L26.5883 47.8142ZM27.677 46.8488C27.6919 47.4715 27.6916 48.7641 27.7068 50.2254L29.7067 50.2046C29.6919 48.7859 29.6916 47.4385 29.6765 46.8012L27.677 46.8488ZM28.7068 51.215C29.2133 51.215 29.6472 51.2295 29.9492 51.2439L30.0443 49.2461C29.7164 49.2305 29.2503 49.215 28.7068 49.215V51.215ZM21.1768 54C19.6627 54 18.858 53.8257 18.4452 53.582C18.2698 53.4785 18.1767 53.3685 18.1157 53.2422C18.0477 53.1015 17.9918 52.8809 17.9918 52.525H15.9918C15.9918 53.0766 16.0765 53.6191 16.315 54.1126C16.5605 54.6206 16.9399 55.0159 17.4284 55.3042C18.343 55.8443 19.6308 56 21.1768 56V54ZM17.9918 52.525C17.9918 52.1593 18.0532 51.9361 18.1248 51.7959C18.1901 51.6683 18.2905 51.5555 18.4773 51.4505C18.9128 51.2058 19.7258 51.05 21.1768 51.05V49.05C19.7027 49.05 18.4232 49.1867 17.4975 49.707C17.0036 49.9845 16.6063 50.3723 16.3438 50.8859C16.0878 51.387 15.9918 51.9457 15.9918 52.525H17.9918ZM21.1768 51.05C22.6908 51.05 23.4955 51.2243 23.9084 51.468C24.0837 51.5715 24.1768 51.6815 24.2378 51.8078C24.3059 51.9485 24.3618 52.1691 24.3618 52.525H26.3618C26.3618 51.9734 26.277 51.4309 26.0385 50.9374C25.793 50.4294 25.4136 50.0341 24.9252 49.7458C24.0105 49.2057 22.7227 49.05 21.1768 49.05V51.05ZM24.3618 52.525C24.3618 52.8907 24.3003 53.1139 24.2287 53.2541C24.1635 53.3817 24.063 53.4945 23.8762 53.5995C23.4407 53.8442 22.6277 54 21.1768 54V56C22.6508 56 23.9303 55.8633 24.8561 55.343C25.3499 55.0655 25.7472 54.6777 26.0097 54.1641C26.2657 53.663 26.3618 53.1043 26.3618 52.525H24.3618ZM21.1768 50.82C20.3721 50.82 19.6861 50.8532 19.1892 51.0247C18.9136 51.1199 18.6038 51.2871 18.3771 51.5984C18.1466 51.9149 18.0918 52.257 18.0918 52.525H20.0918C20.0918 52.523 20.0913 52.642 19.9939 52.7757C19.9004 52.9041 19.8024 52.9289 19.8418 52.9153C19.8875 52.8995 20.0038 52.8713 20.2422 52.8504C20.4732 52.8302 20.777 52.82 21.1768 52.82V50.82ZM18.0918 52.525C18.0918 52.8161 18.1592 53.1636 18.3985 53.4777C18.6297 53.7811 18.9392 53.9449 19.2135 54.039C19.7155 54.2112 20.3975 54.245 21.1768 54.245V52.245C20.7928 52.245 20.497 52.2349 20.2693 52.2145C20.035 52.1936 19.9145 52.1651 19.8625 52.1472C19.8143 52.1307 19.9007 52.1492 19.9894 52.2656C20.0862 52.3927 20.0918 52.5114 20.0918 52.525H18.0918ZM21.1768 54.245C21.9852 54.245 22.6738 54.208 23.1743 54.0292C23.4518 53.9302 23.7578 53.7588 23.9806 53.4481C24.2067 53.1328 24.2618 52.7935 24.2618 52.525H22.2618C22.2618 52.5265 22.2624 52.4122 22.3554 52.2825C22.4451 52.1574 22.5392 52.1323 22.5017 52.1458C22.4573 52.1616 22.3424 52.1908 22.1062 52.2127C21.8771 52.234 21.575 52.245 21.1768 52.245V54.245ZM24.2618 52.525C24.2618 52.2319 24.1915 51.8843 23.9483 51.5723C23.7154 51.2735 23.4061 51.1138 23.135 51.0224C22.6361 50.8542 21.9574 50.82 21.1768 50.82V52.82C21.5606 52.82 21.8568 52.8301 22.0851 52.8503C22.3199 52.8711 22.442 52.8994 22.496 52.9176C22.5474 52.9349 22.4613 52.9178 22.3709 52.8018C22.2702 52.6726 22.2618 52.5481 22.2618 52.525H24.2618ZM23.3722 55.6912C23.3875 56.1805 23.4018 56.5799 23.4018 56.935H25.4018C25.4018 56.5401 25.386 56.0995 25.3713 55.6288L23.3722 55.6912ZM24.1026 57.8892C25.872 58.444 27.8447 59.0717 29.0505 59.4737L29.683 57.5763C28.4588 57.1683 26.4715 56.536 24.701 55.9808L24.1026 57.8892ZM28.3684 58.4679C28.3624 58.5731 28.2963 58.8483 28.1645 59.2108C28.0378 59.559 27.9068 59.8359 27.8526 59.9251L29.561 60.9649C29.7167 60.7091 29.9007 60.2885 30.0441 59.8942C30.1823 59.5142 30.3411 59.0019 30.3651 58.5821L28.3684 58.4679ZM28.9759 59.4819C27.9835 59.2046 25.6365 58.4623 23.5985 57.7334L22.925 59.6166C24.997 60.3577 27.3901 61.1154 28.4377 61.4081L28.9759 59.4819ZM22.9129 57.7378C20.8763 58.496 18.4829 59.2836 17.5472 59.5614L18.1164 61.4786C19.1007 61.1864 21.5372 60.384 23.6106 59.6122L22.9129 57.7378ZM18.6694 59.9737C18.6083 59.8801 18.4716 59.6146 18.3396 59.2863C18.2014 58.9426 18.1315 58.6846 18.1229 58.5871L16.1306 58.7629C16.167 59.1754 16.3371 59.6674 16.484 60.0325C16.6369 60.4129 16.8302 60.8149 16.9941 61.0663L18.6694 59.9737ZM17.4741 59.6127C18.6761 59.1675 20.6141 58.4966 22.3577 57.8954L21.7058 56.0046C19.9694 56.6034 18.0074 57.2825 16.7794 57.7373L17.4741 59.6127ZM23.0318 56.95C23.0318 56.5945 23.046 56.1956 23.0613 55.6903L21.0622 55.6297C21.0475 56.1144 21.0318 56.5555 21.0318 56.95H23.0318ZM22.1722 56.6539C22.3159 56.6379 22.7139 56.6225 23.1758 56.6206C23.6376 56.6187 24.0606 56.631 24.2582 56.6535L24.4853 54.6665C24.1579 54.629 23.6284 54.6188 23.1677 54.6206C22.7072 54.6225 22.2127 54.6371 21.9513 54.6661L22.1722 56.6539ZM43.8556 51.805L44.8501 51.7003L44.7601 50.8451L43.901 50.806L43.8556 51.805ZM43.8556 53.935L43.9796 54.9273L44.767 54.8289L44.8501 54.0397L43.8556 53.935ZM42.5206 53.98V52.98H41.5206V53.98H42.5206ZM42.4756 60.325L42.6036 61.3168L43.4452 61.2082L43.475 60.3601L42.4756 60.325ZM40.2256 60.325L39.2262 60.3595L39.2567 61.2456L40.1402 61.3213L40.2256 60.325ZM40.2256 46.825L40.0087 45.8488L39.2461 46.0183L39.2259 46.7991L40.2256 46.825ZM42.4756 46.825L43.4749 46.7873L43.4434 45.9531L42.617 45.835L42.4756 46.825ZM42.5206 51.775H41.5206V52.775H42.5206V51.775ZM33.3856 57.31H32.3856V58.3347L33.41 58.3097L33.3856 57.31ZM39.1156 57.31L40.1101 57.2053L40.0181 56.3312L39.1394 56.3103L39.1156 57.31ZM39.1156 59.32L39.1595 60.319L40.0199 60.2812L40.1101 59.4247L39.1156 59.32ZM31.0756 59.32L30.0769 59.3712L30.1233 60.277L31.0293 60.3189L31.0756 59.32ZM31.0756 47.245L31.0307 46.246L30.1163 46.2871L30.0765 47.2016L31.0756 47.245ZM38.2156 47.245L39.2091 47.1315L39.1117 46.2787L38.254 46.2457L38.2156 47.245ZM38.2156 49.27L38.2489 50.2694L39.119 50.2404L39.2101 49.3747L38.2156 49.27ZM33.3856 49.27L33.4184 48.2705L32.3856 48.2367V49.27H33.3856ZM33.4006 52.27H32.4006V53.281L33.4116 53.2699L33.4006 52.27ZM37.8406 52.27L38.8351 52.1653L38.7408 51.27H37.8406V52.27ZM37.8406 54.28L37.868 55.2796L38.7667 55.255L38.8375 54.3587L37.8406 54.28ZM33.4006 54.28L33.4117 53.2801L32.4006 53.2688V54.28H33.4006ZM42.8611 51.9097C42.9138 52.4101 42.9138 53.3299 42.8611 53.8303L44.8501 54.0397C44.9174 53.4001 44.9174 52.3399 44.8501 51.7003L42.8611 51.9097ZM43.7316 52.9427C43.5621 52.9639 43.1566 52.98 42.5206 52.98V54.98C43.1446 54.98 43.6691 54.9661 43.9796 54.9273L43.7316 52.9427ZM41.5206 53.98C41.5206 56.7774 41.5054 59.4566 41.4762 60.2899L43.475 60.3601C43.5057 59.4834 43.5206 56.7626 43.5206 53.98H41.5206ZM42.3476 59.3332C41.9834 59.3802 40.8033 59.3709 40.311 59.3287L40.1402 61.3213C40.6979 61.3691 42.0377 61.3898 42.6036 61.3168L42.3476 59.3332ZM41.225 60.2905C41.1659 58.5767 41.1806 48.5779 41.2253 46.8509L39.2259 46.7991C39.1806 48.5521 39.1653 58.5933 39.2262 60.3595L41.225 60.2905ZM40.4425 47.8012C40.4413 47.8014 40.4648 47.7966 40.5226 47.7905C40.5764 47.7848 40.645 47.7795 40.7275 47.7751C40.8924 47.7663 41.0919 47.7622 41.3014 47.7631C41.7347 47.7649 42.141 47.7874 42.3342 47.8149L42.617 45.835C42.2852 45.7876 41.769 45.7651 41.3098 45.7631C40.8789 45.7613 40.3373 45.7758 40.0087 45.8488L40.4425 47.8012ZM41.4763 46.8627C41.5054 47.6352 41.5206 49.5803 41.5206 51.775H43.5206C43.5206 49.5897 43.5057 47.6048 43.4749 46.7873L41.4763 46.8627ZM42.5206 52.775C43.0573 52.775 43.4918 52.7895 43.8102 52.804L43.901 50.806C43.5594 50.7905 43.0939 50.775 42.5206 50.775V52.775ZM33.41 58.3097C34.6235 58.2801 37.8475 58.2801 39.0918 58.3097L39.1394 56.3103C37.8637 56.2799 34.6076 56.2799 33.3612 56.3103L33.41 58.3097ZM38.1211 57.4147C38.1738 57.9151 38.1738 58.7149 38.1211 59.2153L40.1101 59.4247C40.1774 58.7851 40.1774 57.8449 40.1101 57.2053L38.1211 57.4147ZM39.0717 58.321C37.7335 58.3798 32.7088 58.3945 31.1218 58.3211L31.0293 60.3189C32.6824 60.3955 37.7676 60.3802 39.1595 60.319L39.0717 58.321ZM32.0743 59.2688C31.9862 57.5512 32.0007 48.9884 32.0746 47.2884L30.0765 47.2016C30.0004 48.9516 29.985 57.5788 30.0769 59.3712L32.0743 59.2688ZM31.1205 48.244C32.422 48.1855 37.0286 48.2001 38.1772 48.2443L38.254 46.2457C37.0626 46.1999 32.3991 46.1845 31.0307 46.246L31.1205 48.244ZM37.2221 47.3585C37.2731 47.8052 37.2741 48.6618 37.2211 49.1653L39.2101 49.3747C39.2771 48.7382 39.2781 47.7348 39.2091 47.1315L37.2221 47.3585ZM38.1823 48.2706C37.3047 48.2998 34.3117 48.2998 33.4184 48.2705L33.3528 50.2695C34.2895 50.3002 37.3265 50.3002 38.2489 50.2694L38.1823 48.2706ZM32.3856 49.27C32.3856 49.7096 32.3894 50.1901 32.3931 50.6931C32.3969 51.1975 32.4006 51.7266 32.4006 52.27H34.4006C34.4006 51.7183 34.3968 51.1825 34.3931 50.6782C34.3893 50.1724 34.3856 49.7004 34.3856 49.27H32.3856ZM33.4116 53.2699C34.7699 53.255 36.7013 53.27 37.8406 53.27V51.27C36.7298 51.27 34.7613 51.255 33.3896 51.2701L33.4116 53.2699ZM36.8461 52.3747C36.8974 52.8619 36.886 53.6656 36.8437 54.2013L38.8375 54.3587C38.8852 53.7544 38.9038 52.8181 38.8351 52.1653L36.8461 52.3747ZM37.8132 53.2804C36.7412 53.3097 34.7666 53.2951 33.4117 53.2801L33.3895 55.2799C34.7345 55.2949 36.75 55.3103 37.868 55.2796L37.8132 53.2804ZM32.4006 54.28C32.4006 54.8083 32.3969 55.3298 32.3931 55.8382C32.3894 56.3453 32.3856 56.8406 32.3856 57.31H34.3856C34.3856 56.8494 34.3893 56.3622 34.3931 55.853C34.3968 55.3452 34.4006 54.8167 34.4006 54.28H32.4006ZM54.5644 53.905L53.565 53.9399L53.5959 54.8257L54.479 54.9013L54.5644 53.905ZM54.5644 46.825L54.4179 45.8358L53.5979 45.9573L53.5652 46.7856L54.5644 46.825ZM56.7994 46.825L57.7992 46.8065L57.7835 45.9554L56.9408 45.835L56.7994 46.825ZM56.7994 53.905L56.9274 54.8968L57.7731 54.7877L57.799 53.9353L56.7994 53.905ZM45.6544 60.37L44.6555 60.4158L44.6955 61.288L45.565 61.366L45.6544 60.37ZM45.6544 54.58L45.59 53.5821L44.6819 53.6407L44.6549 54.5503L45.6544 54.58ZM56.7994 54.58L57.7981 54.5294L57.7551 53.68L56.9098 53.5861L56.7994 54.58ZM56.7994 60.37L56.8886 61.366L57.7518 61.2887L57.798 60.4233L56.7994 60.37ZM47.8594 58.495L46.8622 58.5698L46.9272 59.4363L47.7943 59.4929L47.8594 58.495ZM54.5944 58.495L54.642 59.4939L55.5308 59.4515L55.592 58.5638L54.5944 58.495ZM54.5944 56.47L55.5929 56.4145L55.5431 55.5194L54.6479 55.4714L54.5944 56.47ZM47.8594 56.47L47.8291 55.4705L46.92 55.498L46.8615 56.4056L47.8594 56.47ZM55.5638 53.8701C55.5196 52.6017 55.5197 47.9767 55.5636 46.8644L53.5652 46.7856C53.5191 47.9533 53.5193 52.6283 53.565 53.9399L55.5638 53.8701ZM54.711 47.8142C54.8354 47.7958 55.1988 47.7762 55.6412 47.7744C56.0801 47.7725 56.474 47.7887 56.658 47.8149L56.9408 45.835C56.5998 45.7863 56.0787 45.7725 55.6327 45.7744C55.19 45.7763 54.6984 45.7942 54.4179 45.8358L54.711 47.8142ZM55.7996 46.8435C55.8295 48.4583 55.8441 52.4142 55.7999 53.8747L57.799 53.9353C57.8447 52.4258 57.8293 48.4317 57.7992 46.8065L55.7996 46.8435ZM56.6714 52.9132C56.3073 52.9602 55.1422 52.9509 54.6498 52.9087L54.479 54.9013C55.0366 54.9491 56.3615 54.9698 56.9274 54.8968L56.6714 52.9132ZM48.6244 52.605C47.231 52.605 46.4705 52.3181 46.0638 51.9708C45.691 51.6524 45.4544 51.1429 45.4544 50.26H43.4544C43.4544 51.5071 43.8029 52.6701 44.765 53.4917C45.6933 54.2844 47.0179 54.605 48.6244 54.605V52.605ZM45.4544 50.26C45.4544 49.3863 45.69 48.8751 46.065 48.5538C46.4727 48.2045 47.2337 47.915 48.6244 47.915V45.915C47.0152 45.915 45.6912 46.2405 44.7638 47.035C43.8038 47.8574 43.4544 49.0187 43.4544 50.26H45.4544ZM48.6244 47.915C50.0152 47.915 50.7762 48.2045 51.1838 48.5538C51.5588 48.8751 51.7944 49.3863 51.7944 50.26H53.7944C53.7944 49.0187 53.445 47.8574 52.485 47.035C51.5577 46.2405 50.2337 45.915 48.6244 45.915V47.915ZM51.7944 50.26C51.7944 51.1429 51.5579 51.6524 51.185 51.9708C50.7783 52.3181 50.0179 52.605 48.6244 52.605V54.605C50.231 54.605 51.5555 54.2844 52.4838 53.4917C53.446 52.6701 53.7944 51.5071 53.7944 50.26H51.7944ZM48.6244 52.7C49.398 52.7 50.1552 52.5745 50.728 52.1301C51.3607 51.6393 51.5594 50.9327 51.5594 50.26H49.5594C49.5594 50.4101 49.5378 50.4862 49.5255 50.5167C49.5171 50.5375 49.5124 50.5419 49.5021 50.5499C49.4561 50.5855 49.2458 50.7 48.6244 50.7V52.7ZM51.5594 50.26C51.5594 49.5873 51.3607 48.8807 50.728 48.3899C50.1552 47.9455 49.398 47.82 48.6244 47.82V49.82C49.2458 49.82 49.4561 49.9345 49.5021 49.9701C49.5124 49.9781 49.5171 49.9825 49.5255 50.0033C49.5378 50.0338 49.5594 50.1099 49.5594 50.26H51.5594ZM48.6244 47.82C47.8414 47.82 47.078 47.9435 46.5049 48.3935C45.8711 48.8912 45.6894 49.6035 45.6894 50.26H47.6894C47.6894 50.1039 47.7108 50.0248 47.7232 49.9928C47.7314 49.9718 47.7346 49.9708 47.7401 49.9665C47.7783 49.9365 47.9825 49.82 48.6244 49.82V47.82ZM45.6894 50.26C45.6894 50.9165 45.8711 51.6288 46.5049 52.1265C47.078 52.5765 47.8414 52.7 48.6244 52.7V50.7C47.9825 50.7 47.7783 50.5835 47.7401 50.5535C47.7346 50.5492 47.7314 50.5482 47.7232 50.5272C47.7108 50.4952 47.6894 50.4161 47.6894 50.26H45.6894ZM46.6534 60.3242C46.5801 58.7274 46.6092 56.1174 46.654 54.6097L44.6549 54.5503C44.6096 56.0726 44.5787 58.7426 44.6555 60.4158L46.6534 60.3242ZM45.7188 55.5779C46.1414 55.5507 48.7772 55.5387 51.4231 55.5406C52.7314 55.5416 54.0225 55.5458 55.0111 55.5526C55.5056 55.5559 55.9226 55.56 56.2275 55.5645C56.5695 55.5696 56.6998 55.5751 56.689 55.5739L56.9098 53.5861C56.7978 53.5737 56.533 53.5688 56.2573 53.5647C55.9445 53.5601 55.5214 53.556 55.0248 53.5526C54.031 53.5458 52.7356 53.5416 51.4245 53.5406C48.8316 53.5388 46.0975 53.5493 45.59 53.5821L45.7188 55.5779ZM55.8007 54.6306C55.859 55.7828 55.8589 59.2281 55.8008 60.3167L57.798 60.4233C57.8599 59.2619 57.8598 55.7472 57.7981 54.5294L55.8007 54.6306ZM56.7102 59.374C56.2645 59.4139 53.8324 59.4412 51.288 59.4431C48.7444 59.445 46.2711 59.4213 45.7438 59.374L45.565 61.366C46.2077 61.4237 48.8045 61.445 51.2895 61.4431C53.7739 61.4413 56.3293 61.4161 56.8886 61.366L56.7102 59.374ZM47.7943 59.4929C48.534 59.5411 53.989 59.525 54.642 59.4939L54.5468 57.4961C53.9399 57.525 48.5648 57.5389 47.9245 57.4971L47.7943 59.4929ZM55.592 58.5638C55.6255 58.079 55.6247 56.9865 55.5929 56.4145L53.596 56.5255C53.6242 57.0335 53.6234 58.041 53.5968 58.4262L55.592 58.5638ZM54.6479 55.4714C53.7655 55.4242 48.8272 55.4402 47.8291 55.4705L47.8897 57.4695C48.8716 57.4398 53.7434 57.4258 54.5409 57.4686L54.6479 55.4714ZM46.8615 56.4056C46.8294 56.9023 46.8128 57.9108 46.8622 58.5698L48.8566 58.4202C48.816 57.8792 48.8294 56.9677 48.8573 56.5344L46.8615 56.4056Z" fill="white" mask="url(#path-3-outside-1_11_19)"/>
</svg>
