<svg fill="none" viewBox="0 0 250 52"><rect width="246" height="48" x="2" y="2" fill="#A4E96B" stroke="#44A342" stroke-width="4" rx="14"/><mask id="a" width="91" height="26" x="70" y="13" fill="#000" maskUnits="userSpaceOnUse"><path fill="#fff" d="M70 13h91v26H70z"/><path d="M87.912 19.2c-5.304 0-12.072.072-13.872 0a17.992 17.992 0 010-3.216c1.92-.072 15.36-.12 17.544 0 .12 2.016.12 12.744 0 14.16-.744.096-2.808.096-3.672 0-.048-1.344-.048-9.768 0-10.944zm5.448 13.824c.096.888.096 2.112 0 3.12-2.064.144-17.808.096-20.64 0-.096-.864-.096-2.184 0-3.12 1.632-.024 4.128-.048 6.864-.048 0-2.784.024-8.4.072-9.336.744-.144 2.784-.144 3.624 0 .024 1.056.048 6.6.048 9.336 4.536 0 8.832.024 10.032.048zm16.342-6.072c-.648.072-2.544.072-3.384 0-.096-2.184-.072-10.152 0-11.712.648-.12 2.664-.096 3.384 0 .024.72.024 2.136.048 3.744h1.8c0-1.776.024-3.288.024-3.864.648-.12 2.688-.12 3.408 0 .048 2.04.048 9.816 0 12-.648.096-2.568.048-3.408 0-.024-.912-.024-2.856-.024-4.944-.648 0-1.272 0-1.824-.024 0 2.016-.024 3.888-.024 4.8zm-8.904-8.208c-1.488.048-4.008.048-5.832 0a17.458 17.458 0 010-3.168c1.92-.096 7.224-.12 9.336 0 .168 2.784.216 7.848.072 10.632-.864.096-2.712.096-3.576 0 0-1.776.024-5.712 0-7.464zm14.184 9.6c.12 2.016.072 7.272 0 8.448-.744.072-2.688.072-3.552 0-.048-1.224 0-3.792 0-5.256-5.304 0-12.84.072-14.64 0a17.725 17.725 0 010-3.192c1.944-.096 16.008-.12 18.192 0zm22.078 2.616c-.648.096-2.568.048-3.408 0-.048-2.184-.024-14.304 0-15.84.648-.12 2.688-.12 3.408 0 .048 2.04.048 13.656 0 15.84zm-8.136-8.88c-.984 0-1.944-.024-2.616-.048a22.56 22.56 0 010-3.12c.648-.024 1.584-.024 2.64-.024 0-1.776.024-3.168.048-3.648.648-.12 2.664-.096 3.384 0 .072 2.064.024 13.416 0 15.552-.648.072-2.544.072-3.384 0-.048-1.176-.072-5.088-.072-8.712zm-9.744 5.88c-.72-.288-2.136-1.2-2.736-1.776.624-1.128 2.904-4.608 3.984-6.192-.024-1.992 0-3.48.048-4.632.648-.12 2.928-.144 3.768 0 .048 1.368.072 2.976.048 4.968 1.32 1.632 3.432 4.344 4.08 5.304-.576.648-1.872 1.68-2.568 2.016-.672-.744-2.256-2.736-3.504-4.392-1.104 1.752-2.52 3.888-3.12 4.704zm18.288 5.712c.096.864.096 2.232 0 3.12-1.92.12-16.176.12-18.36 0-.12-1.776-.072-5.952 0-7.368.744-.072 2.712-.072 3.576 0 .048 1.2.048 2.952 0 4.248 5.304-.024 12.984-.048 14.784 0zm21.406-18.552c.096 3.288.096 18.744 0 21.6-.744.096-2.76.072-3.6 0-.048-1.32-.072-5.664-.072-10.128-1.08 0-2.184 0-3.168-.048-.096-.912-.096-2.568 0-3.48 1.152-.048 2.208-.048 3.192-.048 0-3.6.024-6.792.048-7.896.648-.144 2.76-.12 3.6 0zM143.49 31.896c1.968-.048 7.152-.048 9.168 0 .096.912.096 2.304 0 3.216-2.184.096-10.272.12-12.864 0-.144-2.808-.12-16.56 0-19.32 2.136-.096 9.552-.072 11.424 0 .096.84.096 2.328 0 3.24-1.44.048-6.264.048-7.728 0 0 1.392.024 3.048.024 4.8 2.184-.024 5.304 0 7.104 0 .096.912.072 2.304 0 3.216-1.752.048-4.944.024-7.104 0 0 1.704-.024 3.36-.024 4.848z"/></mask><path fill="#252525" d="M87.912 19.2c-5.304 0-12.072.072-13.872 0a17.992 17.992 0 010-3.216c1.92-.072 15.36-.12 17.544 0 .12 2.016.12 12.744 0 14.16-.744.096-2.808.096-3.672 0-.048-1.344-.048-9.768 0-10.944zm5.448 13.824c.096.888.096 2.112 0 3.12-2.064.144-17.808.096-20.64 0-.096-.864-.096-2.184 0-3.12 1.632-.024 4.128-.048 6.864-.048 0-2.784.024-8.4.072-9.336.744-.144 2.784-.144 3.624 0 .024 1.056.048 6.6.048 9.336 4.536 0 8.832.024 10.032.048zm16.342-6.072c-.648.072-2.544.072-3.384 0-.096-2.184-.072-10.152 0-11.712.648-.12 2.664-.096 3.384 0 .024.72.024 2.136.048 3.744h1.8c0-1.776.024-3.288.024-3.864.648-.12 2.688-.12 3.408 0 .048 2.04.048 9.816 0 12-.648.096-2.568.048-3.408 0-.024-.912-.024-2.856-.024-4.944-.648 0-1.272 0-1.824-.024 0 2.016-.024 3.888-.024 4.8zm-8.904-8.208c-1.488.048-4.008.048-5.832 0a17.458 17.458 0 010-3.168c1.92-.096 7.224-.12 9.336 0 .168 2.784.216 7.848.072 10.632-.864.096-2.712.096-3.576 0 0-1.776.024-5.712 0-7.464zm14.184 9.6c.12 2.016.072 7.272 0 8.448-.744.072-2.688.072-3.552 0-.048-1.224 0-3.792 0-5.256-5.304 0-12.84.072-14.64 0a17.725 17.725 0 010-3.192c1.944-.096 16.008-.12 18.192 0zm22.078 2.616c-.648.096-2.568.048-3.408 0-.048-2.184-.024-14.304 0-15.84.648-.12 2.688-.12 3.408 0 .048 2.04.048 13.656 0 15.84zm-8.136-8.88c-.984 0-1.944-.024-2.616-.048a22.56 22.56 0 010-3.12c.648-.024 1.584-.024 2.64-.024 0-1.776.024-3.168.048-3.648.648-.12 2.664-.096 3.384 0 .072 2.064.024 13.416 0 15.552-.648.072-2.544.072-3.384 0-.048-1.176-.072-5.088-.072-8.712zm-9.744 5.88c-.72-.288-2.136-1.2-2.736-1.776.624-1.128 2.904-4.608 3.984-6.192-.024-1.992 0-3.48.048-4.632.648-.12 2.928-.144 3.768 0 .048 1.368.072 2.976.048 4.968 1.32 1.632 3.432 4.344 4.08 5.304-.576.648-1.872 1.68-2.568 2.016-.672-.744-2.256-2.736-3.504-4.392-1.104 1.752-2.52 3.888-3.12 4.704zm18.288 5.712c.096.864.096 2.232 0 3.12-1.92.12-16.176.12-18.36 0-.12-1.776-.072-5.952 0-7.368.744-.072 2.712-.072 3.576 0 .048 1.2.048 2.952 0 4.248 5.304-.024 12.984-.048 14.784 0zm21.406-18.552c.096 3.288.096 18.744 0 21.6-.744.096-2.76.072-3.6 0-.048-1.32-.072-5.664-.072-10.128-1.08 0-2.184 0-3.168-.048-.096-.912-.096-2.568 0-3.48 1.152-.048 2.208-.048 3.192-.048 0-3.6.024-6.792.048-7.896.648-.144 2.76-.12 3.6 0zM143.49 31.896c1.968-.048 7.152-.048 9.168 0 .096.912.096 2.304 0 3.216-2.184.096-10.272.12-12.864 0-.144-2.808-.12-16.56 0-19.32 2.136-.096 9.552-.072 11.424 0 .096.84.096 2.328 0 3.24-1.44.048-6.264.048-7.728 0 0 1.392.024 3.048.024 4.8 2.184-.024 5.304 0 7.104 0 .096.912.072 2.304 0 3.216-1.752.048-4.944.024-7.104 0 0 1.704-.024 3.36-.024 4.848z"/><path fill="#fff" d="M87.912 19.2l1.998.082.085-2.082h-2.083v2zm-13.872 0l-1.989.21.181 1.72 1.728.068.08-1.998zm0-3.216l-.075-1.999-1.733.065-.181 1.725 1.989.209zm17.544 0l1.996-.119-.105-1.78-1.781-.098-.11 1.997zm0 14.16l.256 1.984 1.6-.207.137-1.608-1.993-.169zm-3.672 0l-1.999.071.062 1.726 1.716.19.221-1.987zm5.448 2.88l1.988-.215-.189-1.75-1.759-.035-.04 2zm0 3.12l.14 1.995 1.69-.118.161-1.687-1.991-.19zm-20.64 0l-1.988.22.191 1.72 1.73.059.067-1.999zm0-3.12l-.03-2-1.778.026-.182 1.77 1.99.204zm6.864-.048v2h2v-2h-2zm.072-9.336l-.38-1.964-1.537.298-.08 1.564 1.997.102zm3.624 0l2-.045-.038-1.648-1.624-.278-.338 1.971zm.048 9.336h-2v2h2v-2zM87.912 17.2c-5.377 0-12.044.072-13.792.002l-.16 3.996c1.853.075 8.72.002 13.952.002v-4zm-11.883 1.79a16.07 16.07 0 010-2.797l-3.978-.418a19.933 19.933 0 000 3.634l3.978-.418zm-1.914-1.007c1.889-.071 15.261-.117 17.36-.002l.219-3.994c-2.27-.125-15.778-.075-17.729-.002l.15 3.998zm15.473-1.88c.055.934.086 4.05.086 7.186 0 3.164-.032 6.086-.083 6.686l3.986.338c.069-.816.097-3.966.097-7.024 0-3.087-.03-6.343-.094-7.424l-3.992.238zm1.74 12.057c-.233.03-.821.056-1.535.056-.701 0-1.343-.024-1.66-.06l-.442 3.976c.547.06 1.37.084 2.102.084.72 0 1.536-.023 2.047-.088l-.512-3.968zm-1.417 1.913c-.047-1.3-.046-9.673 0-10.791l-3.997-.164c-.05 1.234-.05 9.71 0 11.097l3.997-.142zm1.46 3.166c.08.737.083 1.825-.002 2.715l3.982.38c.107-1.126.11-2.486-.003-3.525l-3.976.43zm1.85.91c-1.954.136-17.61.092-20.433-.004l-.136 3.998c2.84.096 18.673.148 20.847-.004l-.278-3.99zm-18.513 1.774c-.08-.712-.081-1.889.002-2.695l-3.98-.408c-.109 1.066-.11 2.529.002 3.545l3.976-.442zm-1.959-.9c1.624-.023 4.11-.047 6.835-.047v-4c-2.747 0-5.252.024-6.893.048l.058 4zm8.835-2.047c0-2.82.025-8.364.07-9.234l-3.995-.204c-.052 1.002-.075 6.69-.075 9.438h4zm-1.548-7.372c.168-.033.696-.072 1.396-.072.685 0 1.265.037 1.51.08l.676-3.943c-.595-.102-1.455-.137-2.186-.137-.716 0-1.58.033-2.156.144l.76 3.928zm1.245-1.919c.023 1.029.047 6.548.047 9.291h4c0-2.729-.024-8.298-.049-9.381l-3.998.09zm2.047 11.291c4.54 0 8.815.024 9.992.048l.08-4c-1.223-.024-5.54-.048-10.072-.048v4zm26.374-8.024l.221 1.988 1.779-.198v-1.79h-2zm-3.384 0l-1.998.088.077 1.755 1.75.15.171-1.993zm0-11.712l-.364-1.967-1.561.29-.073 1.585 1.998.092zm3.384 0l1.999-.067-.056-1.692-1.679-.223-.264 1.982zm.048 3.744l-2 .03.03 1.97h1.97v-2zm1.8 0v2h2v-2h-2zm.024-3.864l-.364-1.967-1.636.303v1.664h2zm3.408 0l2-.047-.039-1.654-1.632-.272-.329 1.973zm0 12l.293 1.978 1.67-.247.037-1.687-2-.044zm-3.408 0l-1.999.053.048 1.839 1.837.105.114-1.997zm-.024-4.944h2v-2h-2v2zm-1.824-.024l.087-1.998-2.087-.09v2.088h2zm-8.928-3.408l2-.027-.028-2.038-2.036.066.064 1.999zm-5.832 0l-1.99.204.18 1.75 1.757.045.053-1.999zm0-3.168l-.1-1.998-1.705.086-.183 1.697 1.988.215zm9.336 0l1.996-.12-.107-1.776-1.775-.1-.114 1.996zm.072 10.632l.221 1.988 1.689-.188.087-1.697-1.997-.103zm-3.576 0h-2v1.79l1.779.198.221-1.988zm14.184 2.136l1.997-.119-.106-1.78-1.781-.098-.11 1.997zm0 8.448l.193 1.99 1.699-.164.104-1.704-1.996-.122zm-3.552 0l-1.998.078.069 1.768 1.763.147.166-1.993zm0-5.256h2v-2h-2v2zm-14.64 0l-1.989.21.181 1.72 1.728.068.08-1.998zm0-3.192l-.099-1.998-1.71.085-.18 1.704 1.99.209zm12.691-3.38c-.486.054-2.247.06-2.992-.005l-.342 3.986c.935.08 2.967.085 3.776-.005l-.442-3.976zm-1.165 1.9c-.093-2.123-.069-10.031 0-11.532l-3.996-.184c-.075 1.62-.099 9.648 0 11.892l3.996-.176zm-1.634-9.657a7.227 7.227 0 01.427-.033c.25-.011.551-.016.865-.015.66.003 1.237.033 1.464.064l.528-3.965c-.493-.066-1.284-.096-1.974-.099-.653-.003-1.502.015-2.038.114l.728 3.934zm1.021-1.9c.024.7.022 2.04.047 3.707l4-.06c-.023-1.549-.024-3.04-.049-3.78l-3.998.133zm2.047 5.677h1.8v-4h-1.8v4zm3.8-2c0-.88.006-1.695.012-2.364.006-.66.012-1.2.012-1.5h-4c0 .276-.006.78-.012 1.464a268.71 268.71 0 00-.012 2.4h4zm-1.612-1.897s.038-.007.127-.015a7.29 7.29 0 01.316-.022c.253-.013.556-.02.87-.02.677 0 1.221.032 1.402.063l.658-3.946c-.539-.09-1.375-.117-2.06-.117-.671 0-1.514.026-2.041.123l.728 3.934zm1.045-1.92c.047 2.008.047 9.753 0 11.91l3.999.087c.048-2.212.048-10.019 0-12.091l-3.999.094zm1.706 9.975h-.01a3.124 3.124 0 01-.129.011 6.589 6.589 0 01-.314.015c-.25.007-.55.009-.868.006a39.168 39.168 0 01-1.68-.05l-.228 3.993c.456.026 1.178.05 1.872.057.636.006 1.437 0 1.943-.076l-.586-3.956zm-1.116 1.925c-.023-.878-.023-2.785-.023-4.891h-4c0 2.07 0 4.05.025 4.997l3.998-.106zm-2.023-6.891c-.659 0-1.237 0-1.737-.022l-.174 3.996a46.06 46.06 0 001.911.026v-4zm-3.824 1.976c0 1-.006 1.967-.012 2.8-.006.826-.012 1.534-.012 2h4c0-.447.006-1.13.012-1.972.006-.835.012-1.813.012-2.828h-4zm-6.992-5.407c-1.442.046-3.922.047-5.715 0l-.106 3.998c1.855.05 4.415.05 5.95 0l-.129-3.998zm-3.778 1.795a15.52 15.52 0 01-.002-2.749l-3.976-.43c-.112 1.034-.111 2.52-.001 3.587l3.979-.408zm-1.89-.966c1.863-.094 7.095-.117 9.123-.001l.227-3.994c-2.196-.125-7.573-.1-9.55 0l.2 3.994zm7.24-1.878c.164 2.72.21 7.708.071 10.409l3.994.206c.149-2.867.099-8.006-.073-10.855l-3.992.24zm1.847 8.524c-.717.08-2.417.08-3.134 0l-.442 3.976c1.011.112 3.007.112 4.018 0l-.442-3.976zm-1.355 1.988c0-1.746.024-5.722 0-7.491l-4 .054c.024 1.735 0 5.63 0 7.437h4zm10.188 2.255c.114 1.929.067 7.104 0 8.207l3.992.244c.077-1.249.126-6.586.001-8.689l-3.993.238zm1.803 6.338c-.607.06-2.43.061-3.193-.002l-.332 3.986c.965.08 3.03.083 3.911-.002l-.386-3.982zm-1.36 1.913c-.046-1.175.001-3.627.001-5.178h-4c0 1.377-.048 4.06.002 5.334l3.997-.156zm-1.999-7.178c-5.375 0-12.813.072-14.56.002l-.16 3.996c1.853.075 9.487.002 14.72.002v-4zm-12.65 1.79c-.082-.772-.082-2 0-2.773l-3.979-.418c-.11 1.05-.11 2.56 0 3.61l3.978-.418zm-1.891-.984c1.884-.093 15.878-.117 17.983-.001l.22-3.994c-2.263-.124-16.397-.1-18.4 0l.197 3.995zm40.171.618l.293 1.978 1.67-.247.037-1.687-2-.044zm-3.408 0l-1.999.044.04 1.847 1.845.106.114-1.997zm0-15.84l-.364-1.967-1.61.299-.026 1.637 2 .031zm3.408 0l2-.047-.039-1.654-1.632-.272-.329 1.973zm-8.136 6.96h2v-2h-2v2zm-2.616-.048l-1.994.157.141 1.778 1.782.064.071-1.999zm0-3.12l-.074-1.999-1.779.066-.141 1.776 1.994.157zm2.64-.024v2h2v-2h-2zm.048-3.648l-.364-1.967-1.554.288-.079 1.58 1.997.099zm3.384 0l1.999-.07-.059-1.69-1.675-.223-.265 1.983zm0 15.552l.221 1.988 1.759-.196.02-1.77-2-.022zm-3.384 0l-1.998.082.072 1.76 1.755.15.171-1.992zm-9.816-2.832l-.743 1.857 1.438.575.917-1.247-1.612-1.185zm-2.736-1.776l-1.75-.968-.744 1.346 1.109 1.065 1.385-1.443zm3.984-6.192l1.653 1.127.355-.521-.008-.63-2 .024zm.048-4.632l-.364-1.967-1.568.29-.066 1.594 1.998.083zm3.768 0l1.999-.07-.057-1.626-1.604-.275-.338 1.971zm.048 4.968l-2-.024-.008.721.453.56 1.555-1.257zm4.08 5.304l1.495 1.329 1.032-1.16-.869-1.288-1.658 1.119zm-2.568 2.016l-1.484 1.34 1.004 1.113 1.35-.652-.87-1.801zm-3.504-4.392l1.597-1.204-1.744-2.314-1.545 2.452 1.692 1.066zm15.168 10.416l1.988-.22-.192-1.733-1.742-.046-.054 1.999zm0 3.12l.125 1.996 1.682-.105.182-1.676-1.989-.215zm-18.36 0l-1.995.135.119 1.765 1.767.097.109-1.997zm0-7.368l-.192-1.99-1.718.165-.087 1.723 1.997.102zm3.576 0l1.999-.08-.071-1.766-1.762-.147-.166 1.993zm0 4.248l-1.998-.074-.078 2.083 2.085-.009-.009-2zm14.083-4.69h-.01a3.274 3.274 0 01-.128.011 6.64 6.64 0 01-.315.015c-.25.007-.55.009-.868.006a39.168 39.168 0 01-1.68-.05l-.228 3.993c.456.026 1.178.05 1.872.057.636.006 1.438 0 1.943-.076l-.586-3.956zm-1.115 1.934c-.047-2.15-.024-14.242 0-15.765l-4-.062c-.024 1.549-.048 13.696.001 15.915l3.999-.088zm-1.636-13.83s.038-.006.127-.014c.084-.008.19-.016.316-.022.253-.013.556-.02.87-.02.677 0 1.221.032 1.402.063l.658-3.946c-.538-.09-1.375-.117-2.06-.117-.671 0-1.514.026-2.041.123l.728 3.934zm1.045-1.919c.047 2.008.047 13.593 0 15.75l3.999.087c.048-2.212.048-13.859 0-15.931l-3.999.094zm-6.137 4.913c-.954 0-1.89-.023-2.544-.047l-.143 3.998c.689.024 1.674.049 2.687.049v-4zm-.622 1.795a20.517 20.517 0 010-2.806l-3.988-.314a24.609 24.609 0 000 3.434l3.988-.314zm-1.92-.964a81.427 81.427 0 012.566-.023v-4c-1.039 0-2.02 0-2.714.025l.148 3.998zm4.566-2.023c0-1.777.025-3.124.046-3.548l-3.995-.2c-.027.536-.051 1.973-.051 3.748h4zm-1.588-1.681a7.227 7.227 0 01.427-.033c.25-.011.552-.016.865-.015.66.003 1.237.033 1.464.064l.529-3.965c-.494-.066-1.285-.096-1.975-.099-.653-.003-1.502.015-2.038.114l.728 3.934zm1.021-1.897c.071 2.007.024 13.307-.001 15.46l4 .044c.024-2.12.073-13.523-.001-15.644l-3.998.14zm1.778 13.494c-.486.054-2.247.06-2.992-.005l-.342 3.986c.935.08 2.967.085 3.776-.005l-.442-3.976zm-1.164 1.906c-.046-1.125-.071-4.988-.071-8.63h-4c0 3.606.024 7.567.074 8.794l3.997-.164zm-11.072-4.607c-.179-.071-.584-.288-1.069-.602-.482-.312-.861-.603-1.025-.76l-2.77 2.886c.437.419 1.065.872 1.621 1.232.553.358 1.216.741 1.757.958l1.486-3.714zm-1.729 1.05c.572-1.034 2.799-4.439 3.887-6.034l-3.305-2.254c-1.072 1.573-3.405 5.128-4.082 6.35l3.5 1.937zm4.234-7.185c-.024-1.965 0-3.416.047-4.525l-3.997-.166a89.04 89.04 0 00-.05 4.74l4-.05zm-1.588-2.641a9.122 9.122 0 01.486-.041c.28-.015.619-.024.97-.025.756-.003 1.38.03 1.61.07l.676-3.942c-.609-.105-1.545-.131-2.302-.128-.742.003-1.644.035-2.168.132l.728 3.934zm1.405-1.897c.047 1.335.071 2.912.047 4.874l4 .048c.024-2.022 0-3.661-.049-5.062l-3.998.14zm.492 6.156c1.327 1.64 3.385 4.288 3.978 5.165l3.315-2.238c-.704-1.043-2.87-3.82-4.183-5.443l-3.11 2.516zm4.14 2.717c-.177.2-.544.538-.982.884-.454.358-.814.59-.96.66l1.739 3.602c.55-.265 1.186-.718 1.698-1.122.527-.416 1.097-.918 1.495-1.366l-2.99-2.658zm.411 2.004c-.607-.672-2.145-2.602-3.391-4.255l-3.194 2.408c1.25 1.659 2.88 3.713 3.617 4.529l2.968-2.682zm-6.68-4.117c-1.099 1.745-2.484 3.83-3.039 4.585l3.223 2.37c.644-.877 2.092-3.064 3.2-4.823l-3.384-2.132zm14.872 11.703c.08.715.081 1.937 0 2.684l3.977.43c.111-1.029.112-2.543-.001-3.556l-3.976.442zm1.863.903c-1.832.114-16.009.115-18.125-.001l-.219 3.994c2.251.124 16.586.125 18.594 0l-.25-3.993zm-16.239 1.861c-.113-1.667-.068-5.757.002-7.131l-3.995-.204c-.074 1.458-.126 5.72.002 7.605l3.991-.27zm-1.803-5.242c.608-.06 2.454-.061 3.217.002l.332-3.986c-.965-.08-3.054-.083-3.934.002l.385 3.982zm1.385-1.911a60.726 60.726 0 010 4.094l3.997.148c.05-1.343.05-3.147 0-4.402l-3.997.16zm2.007 6.168c5.328-.024 12.962-.048 14.722 0l.107-4c-1.841-.048-9.567-.024-14.847 0l.018 4zm36.181-20.552l2-.058-.05-1.684-1.667-.238-.283 1.98zm0 21.6l.256 1.984 1.686-.218.057-1.699-1.999-.067zm-3.6 0l-1.998.073.064 1.769 1.764.15.17-1.992zm-.072-10.128h2v-2h-2v2zm-3.168-.048l-1.989.21.18 1.704 1.712.084.097-1.998zm0-3.48l-.083-1.998-1.725.072-.181 1.717 1.989.209zm3.192-.048v2h2v-2h-2zm.048-7.896l-.433-1.952-1.532.34-.034 1.569 1.999.043zM143.49 31.896h-2v2.05l2.049-.05-.049-2zm9.168 0l1.989-.21-.184-1.748-1.757-.041-.048 1.999zm0 3.216l.088 1.998 1.721-.076.18-1.713-1.989-.209zm-12.864 0l-1.997.102.093 1.812 1.812.084.092-1.998zm0-19.32l-.089-1.998-1.829.082-.08 1.83 1.998.086zm11.424 0l1.987-.227-.194-1.705-1.716-.066-.077 1.998zm0 3.24l.067 1.999 1.74-.058.182-1.732-1.989-.209zm-7.728 0l.066-1.999-2.066-.068v2.067h2zm.024 4.8h-2v2.022l2.022-.022-.022-2zm7.104 0l1.989-.21-.188-1.79h-1.801v2zm0 3.216l.055 2 1.798-.05.141-1.793-1.994-.157zm-7.104 0l.023-2-2.023-.022v2.022h2zm13.361-11.87c.095 3.253.095 18.666.001 21.475l3.997.134c.098-2.903.098-18.402.001-21.725l-3.999.116zm1.743 19.558c-.542.07-2.398.058-3.173-.009l-.341 3.986c.905.077 3.081.113 4.026-.01l-.512-3.967zm-1.345 1.911c-.046-1.274-.071-5.575-.071-10.055h-4c0 4.448.024 8.836.074 10.2l3.997-.145zm-2.071-12.055c-1.092 0-2.144 0-3.07-.046l-.195 3.996c1.042.05 2.197.05 3.265.05v-4zm-1.179 1.743c-.081-.773-.081-2.289 0-3.062l-3.978-.418c-.11 1.05-.11 2.847 0 3.898l3.978-.418zm-1.905-1.273a72.564 72.564 0 013.108-.046v-4c-.98 0-2.076 0-3.275.05l.167 3.996zm5.108-2.046c0-3.6.024-6.772.048-7.852l-3.999-.088a493.463 493.463 0 00-.049 7.94h4zm-1.518-5.944c-.01.003.103-.017.391-.032.254-.014.565-.02.895-.019.688.003 1.316.039 1.598.079l.565-3.96c-.558-.08-1.406-.116-2.146-.119-.683-.003-1.594.018-2.17.147l.867 3.904zm-12.169 16.823c1.935-.047 7.087-.047 9.072 0l.095-3.998c-2.047-.05-7.264-.05-9.264 0l.097 3.998zm7.13-1.79c.082.773.082 2.025 0 2.798l3.978.418a19.88 19.88 0 000-3.634l-3.978.418zm1.902 1.009c-2.131.094-10.158.117-12.684 0l-.185 3.996c2.658.123 10.806.098 13.044 0l-.175-3.996zm-10.779 1.896c-.14-2.734-.117-16.421 0-19.131l-3.996-.174c-.122 2.81-.147 16.627.001 19.51l3.995-.205zm-1.908-17.22c2.069-.093 9.428-.07 11.258 0l.153-3.996c-1.915-.074-9.388-.099-11.59 0l.179 3.996zm9.347-1.77c.078.683.08 2.024-.002 2.803l3.978.418c.11-1.045.112-2.68-.002-3.676l-3.974.454zm1.921 1.013c-1.395.047-6.175.047-7.596 0l-.131 3.998c1.507.05 6.375.05 7.86 0l-.133-3.998zm-9.662 1.999c0 .705.006 1.476.012 2.28.006.807.012 1.652.012 2.52h4c0-.884-.006-1.743-.012-2.55-.006-.81-.012-1.563-.012-2.25h-4zm2.046 6.8c2.171-.024 5.254 0 7.082 0v-4c-1.771 0-4.928-.024-7.126 0l.044 4zm5.093-1.79c.079.746.062 2.005-.004 2.849l3.987.314c.078-.98.109-2.505-.005-3.582l-3.978.418zm1.935 1.007c-1.706.047-4.858.023-7.027 0l-.045 3.999c2.15.024 5.383.049 7.181 0l-.109-4zm-9.05 1.999c0 .844-.006 1.677-.012 2.49-.006.811-.012 1.605-.012 2.358h4c0-.735.006-1.513.012-2.328.006-.813.012-1.66.012-2.52h-4z" mask="url(#a)"/><path fill="#2DC1FF" stroke="#6C484D" stroke-width="2" d="M49.837 40.6h0A6.158 6.158 0 0056 34.443V26c0-8.837-7.163-16-16-16s-16 7.163-16 16v2.344a2.403 2.403 0 002.406 2.406 2.403 2.403 0 002.282-1.637v.637c0 2.62 2.129 4.75 4.75 4.75h.937a2.873 2.873 0 002.875-2.875v-6.563a2.873 2.873 0 00-2.875-2.875h-.938a4.756 4.756 0 00-4.623 3.66c.081-6.11 5.057-11.035 11.186-11.035 6.13 0 11.105 4.926 11.187 11.035a4.756 4.756 0 00-4.624-3.66h-.938a2.873 2.873 0 00-2.875 2.875v6.563a2.873 2.873 0 002.875 2.875h.938a4.756 4.756 0 004.624-3.664v3.607c0 .743-.6 1.344-1.343 1.344 0 0 0 0 0 0l-5.948-.005a3.81 3.81 0 00-2.959-1.407h-1.874a3.813 3.813 0 000 7.625h1.874a3.81 3.81 0 002.958-1.406l5.942.006z"/></svg>