<svg fill="none" viewBox="0 0 75 75"><rect width="71" height="71" x="2" y="2" fill="#A4E96B" stroke="#44A342" stroke-width="4" rx="14"/><path fill="#2DC1FF" stroke="#6C484D" stroke-width="2" d="M47.837 44.6h0A6.158 6.158 0 0054 38.443V30c0-8.837-7.163-16-16-16s-16 7.163-16 16v2.344a2.403 2.403 0 002.406 2.406 2.403 2.403 0 002.282-1.637v.637c0 2.62 2.129 4.75 4.75 4.75h.937a2.873 2.873 0 002.875-2.875v-6.563a2.873 2.873 0 00-2.875-2.875h-.938a4.756 4.756 0 00-4.623 3.66c.081-6.11 5.057-11.035 11.186-11.035 6.13 0 11.105 4.926 11.187 11.035a4.756 4.756 0 00-4.624-3.66h-.938a2.873 2.873 0 00-2.875 2.875v6.563a2.873 2.873 0 002.875 2.875h.938a4.756 4.756 0 004.624-3.664v3.607c0 .743-.6 1.344-1.343 1.344 0 0 0 0 0 0l-5.948-.005a3.81 3.81 0 00-2.959-1.407h-1.874a3.813 3.813 0 000 7.625h1.874a3.81 3.81 0 002.958-1.406l5.942.006z"/><mask id="a" width="57" height="17" x="8" y="45" fill="#000" maskUnits="userSpaceOnUse"><path fill="#fff" d="M8 45h57v17H8z"/><path d="M19.347 49.375c-3.315 0-7.545.045-8.67 0-.06-.57-.06-1.44 0-2.01 1.2-.045 9.6-.075 10.965 0 .075 1.26.075 7.965 0 8.85-.465.06-1.755.06-2.295 0-.03-.84-.03-6.105 0-6.84zm3.405 8.64c.06.555.06 1.32 0 1.95-1.29.09-11.13.06-12.9 0-.06-.54-.06-1.365 0-1.95 1.02-.015 2.58-.03 4.29-.03 0-1.74.015-5.25.045-5.835.465-.09 1.74-.09 2.265 0 .015.66.03 4.125.03 5.835 2.835 0 5.52.015 6.27.03zm10.214-3.795c-.405.045-1.59.045-2.115 0-.06-1.365-.045-6.345 0-7.32.405-.075 1.665-.06 2.115 0 .015.45.015 1.335.03 2.34h1.125c0-1.11.015-2.055.015-2.415.405-.075 1.68-.075 2.13 0 .03 1.275.03 6.135 0 7.5-.405.06-1.605.03-2.13 0-.015-.57-.015-1.785-.015-3.09-.405 0-.795 0-1.14-.015 0 1.26-.015 2.43-.015 3zm-5.565-5.13c-.93.03-2.505.03-3.645 0-.06-.585-.06-1.425 0-1.98 1.2-.06 4.515-.075 5.835 0 .105 1.74.135 4.905.045 6.645-.54.06-1.695.06-2.235 0 0-1.11.015-3.57 0-4.665zm8.865 6c.075 1.26.045 4.545 0 5.28-.465.045-1.68.045-2.22 0-.03-.765 0-2.37 0-3.285-3.315 0-8.025.045-9.15 0-.06-.57-.06-1.425 0-1.995 1.215-.06 10.005-.075 11.37 0zm13.799 1.635c-.405.06-1.605.03-2.13 0-.03-1.365-.015-8.94 0-9.9.405-.075 1.68-.075 2.13 0 .03 1.275.03 8.535 0 9.9zm-5.085-5.55a47.61 47.61 0 01-1.635-.03 14.1 14.1 0 010-1.95c.405-.015.99-.015 1.65-.015 0-1.11.015-1.98.03-2.28.405-.075 1.665-.06 2.115 0 .045 1.29.015 8.385 0 9.72-.405.045-1.59.045-2.115 0-.03-.735-.045-3.18-.045-5.445zm-6.09 3.675c-.45-.18-1.335-.75-1.71-1.11.39-.705 1.815-2.88 2.49-3.87-.015-1.245 0-2.175.03-2.895.405-.075 1.83-.09 2.355 0 .03.855.045 1.86.03 3.105.825 1.02 2.145 2.715 2.55 3.315-.36.405-1.17 1.05-1.605 1.26-.42-.465-1.41-1.71-2.19-2.745-.69 1.095-1.575 2.43-1.95 2.94zm11.43 3.57c.06.54.06 1.395 0 1.95-1.2.075-10.11.075-11.475 0-.075-1.11-.045-3.72 0-4.605.465-.045 1.695-.045 2.235 0 .03.75.03 1.845 0 2.655 3.315-.015 8.115-.03 9.24 0zm13.379-11.595c.06 2.055.06 11.715 0 13.5-.465.06-1.725.045-2.25 0-.03-.825-.045-3.54-.045-6.33-.675 0-1.365 0-1.98-.03-.06-.57-.06-1.605 0-2.175.72-.03 1.38-.03 1.995-.03 0-2.25.015-4.245.03-4.935.405-.09 1.725-.075 2.25 0zM54.084 57.31c1.23-.03 4.47-.03 5.73 0 .06.57.06 1.44 0 2.01-1.365.06-6.42.075-8.04 0-.09-1.755-.075-10.35 0-12.075 1.335-.06 5.97-.045 7.14 0 .06.525.06 1.455 0 2.025-.9.03-3.915.03-4.83 0 0 .87.015 1.905.015 3 1.365-.015 3.315 0 4.44 0 .06.57.045 1.44 0 2.01-1.095.03-3.09.015-4.44 0 0 1.065-.015 2.1-.015 3.03z"/></mask><path fill="#252525" d="M19.347 49.375c-3.315 0-7.545.045-8.67 0-.06-.57-.06-1.44 0-2.01 1.2-.045 9.6-.075 10.965 0 .075 1.26.075 7.965 0 8.85-.465.06-1.755.06-2.295 0-.03-.84-.03-6.105 0-6.84zm3.405 8.64c.06.555.06 1.32 0 1.95-1.29.09-11.13.06-12.9 0-.06-.54-.06-1.365 0-1.95 1.02-.015 2.58-.03 4.29-.03 0-1.74.015-5.25.045-5.835.465-.09 1.74-.09 2.265 0 .015.66.03 4.125.03 5.835 2.835 0 5.52.015 6.27.03zm10.214-3.795c-.405.045-1.59.045-2.115 0-.06-1.365-.045-6.345 0-7.32.405-.075 1.665-.06 2.115 0 .015.45.015 1.335.03 2.34h1.125c0-1.11.015-2.055.015-2.415.405-.075 1.68-.075 2.13 0 .03 1.275.03 6.135 0 7.5-.405.06-1.605.03-2.13 0-.015-.57-.015-1.785-.015-3.09-.405 0-.795 0-1.14-.015 0 1.26-.015 2.43-.015 3zm-5.565-5.13c-.93.03-2.505.03-3.645 0-.06-.585-.06-1.425 0-1.98 1.2-.06 4.515-.075 5.835 0 .105 1.74.135 4.905.045 6.645-.54.06-1.695.06-2.235 0 0-1.11.015-3.57 0-4.665zm8.865 6c.075 1.26.045 4.545 0 5.28-.465.045-1.68.045-2.22 0-.03-.765 0-2.37 0-3.285-3.315 0-8.025.045-9.15 0-.06-.57-.06-1.425 0-1.995 1.215-.06 10.005-.075 11.37 0zm13.799 1.635c-.405.06-1.605.03-2.13 0-.03-1.365-.015-8.94 0-9.9.405-.075 1.68-.075 2.13 0 .03 1.275.03 8.535 0 9.9zm-5.085-5.55a47.61 47.61 0 01-1.635-.03 14.1 14.1 0 010-1.95c.405-.015.99-.015 1.65-.015 0-1.11.015-1.98.03-2.28.405-.075 1.665-.06 2.115 0 .045 1.29.015 8.385 0 9.72-.405.045-1.59.045-2.115 0-.03-.735-.045-3.18-.045-5.445zm-6.09 3.675c-.45-.18-1.335-.75-1.71-1.11.39-.705 1.815-2.88 2.49-3.87-.015-1.245 0-2.175.03-2.895.405-.075 1.83-.09 2.355 0 .03.855.045 1.86.03 3.105.825 1.02 2.145 2.715 2.55 3.315-.36.405-1.17 1.05-1.605 1.26-.42-.465-1.41-1.71-2.19-2.745-.69 1.095-1.575 2.43-1.95 2.94zm11.43 3.57c.06.54.06 1.395 0 1.95-1.2.075-10.11.075-11.475 0-.075-1.11-.045-3.72 0-4.605.465-.045 1.695-.045 2.235 0 .03.75.03 1.845 0 2.655 3.315-.015 8.115-.03 9.24 0zm13.379-11.595c.06 2.055.06 11.715 0 13.5-.465.06-1.725.045-2.25 0-.03-.825-.045-3.54-.045-6.33-.675 0-1.365 0-1.98-.03-.06-.57-.06-1.605 0-2.175.72-.03 1.38-.03 1.995-.03 0-2.25.015-4.245.03-4.935.405-.09 1.725-.075 2.25 0zM54.084 57.31c1.23-.03 4.47-.03 5.73 0 .06.57.06 1.44 0 2.01-1.365.06-6.42.075-8.04 0-.09-1.755-.075-10.35 0-12.075 1.335-.06 5.97-.045 7.14 0 .06.525.06 1.455 0 2.025-.9.03-3.915.03-4.83 0 0 .87.015 1.905.015 3 1.365-.015 3.315 0 4.44 0 .06.57.045 1.44 0 2.01-1.095.03-3.09.015-4.44 0 0 1.065-.015 2.1-.015 3.03z"/><path fill="#fff" d="M19.347 49.375l1 .04.042-1.04h-1.042v1zm-8.67 0l-.994.105.09.86.864.034.04-.999zm0-2.01l-.037-1-.866.033-.091.862.994.105zm10.965 0l.999-.06-.053-.89-.89-.048-.056.998zm0 8.85l.128.992.8-.104.069-.804-.997-.084zm-2.295 0l-.999.036.03.863.859.095.11-.994zm3.405 1.8l.995-.108-.095-.874-.88-.018-.02 1zm0 1.95l.07.998.846-.06.08-.843-.996-.095zm-12.9 0l-.994.11.096.86.864.03.034-1zm0-1.95l-.014-1-.89.013-.09.885.994.102zm4.29-.03v1h1v-1h-1zm.045-5.835l-.19-.982-.768.149-.04.782.998.051zm2.265 0l1-.023-.019-.823-.812-.14-.169.986zm.03 5.835h-1v1h1v-1zm2.865-9.61c-3.351 0-7.53.045-8.63 0l-.08 2c1.152.045 5.432 0 8.71 0v-2zm-7.675.895c-.053-.5-.053-1.3 0-1.8l-1.99-.21a12.47 12.47 0 000 2.22l1.99-.21zm-.957-.906c1.184-.044 9.55-.073 10.872 0l.11-1.997c-1.408-.078-9.841-.047-11.057-.001l.075 1.998zm9.93-.94c.034.594.054 2.55.054 4.507 0 1.97-.02 3.81-.053 4.2l1.993.168c.042-.496.06-2.45.06-4.368 0-1.933-.019-3.959-.058-4.625l-1.997.118zm.87 7.8a9.944 9.944 0 01-.992.036c-.44 0-.852-.015-1.065-.039l-.221 1.988c.327.036.83.051 1.286.051.45 0 .945-.014 1.247-.053l-.256-1.984zm-1.168.955c-.03-.818-.03-6.057 0-6.763l-1.999-.082c-.031.764-.03 6.055 0 6.917l1.999-.072zm1.411 1.944a9.58 9.58 0 01-.001 1.747l1.99.19c.066-.689.068-1.522 0-2.153l-1.989.216zm.925.844c-1.235.087-11.03.058-12.797-.001l-.068 1.998c1.775.06 11.659.092 13.004-.001l-.14-1.996zm-11.837.888a9.62 9.62 0 01.001-1.738l-1.99-.204a11.65 11.65 0 00.001 2.162l1.988-.22zm-.979-.84c1.016-.015 2.57-.03 4.275-.03v-2c-1.715 0-3.28.015-4.304.03l.03 2zm5.275-1.03c0-1.758.016-5.232.044-5.784l-1.997-.102c-.032.618-.047 4.164-.047 5.886h2zm-.765-4.853c.13-.025.482-.05.92-.05.431 0 .811.024.986.054l.338-1.972c-.35-.06-.87-.081-1.324-.081-.446 0-.965.02-1.3.085l.38 1.964zm1.076-.96c.014.647.03 4.1.03 5.813h2c0-1.706-.016-5.184-.03-5.858l-2 .046zm1.03 6.813c2.836 0 5.511.015 6.25.03l.04-2c-.762-.015-3.457-.03-6.29-.03v2zm16.483-4.765l.11.994.89-.099v-.895h-1zm-2.115 0l-.999.044.039.877.875.075.085-.996zm0-7.32l-.182-.983-.78.144-.037.793 1 .046zm2.115 0l1-.033-.029-.846-.839-.112-.132.991zm.03 2.34l-1 .015.015.985h.985v-1zm1.125 0v1h1v-1h-1zm.015-2.415l-.182-.983-.818.151v.832h1zm2.13 0l1-.024-.02-.826-.815-.136-.165.986zm0 7.5l.147.99.834-.124.019-.844-1-.022zm-2.13 0l-1 .026.025.92.918.052.057-.998zm-.015-3.09h1v-1h-1v1zm-1.14-.015l.044-1-1.044-.044v1.044h1zm-5.58-2.13l1-.014-.014-1.018-1.018.032.032 1zm-3.645 0l-.995.102.09.874.879.024.026-1zm0-1.98l-.05-.999-.852.043-.092.848.994.108zm5.835 0l.998-.06-.053-.888-.888-.05-.057.998zm.045 6.645l.11.994.845-.094.044-.848-.999-.052zm-2.235 0h-1v.895l.89.099.11-.994zm8.865 1.335l.998-.06-.053-.89-.89-.048-.055.998zm0 5.28l.096.995.85-.082.052-.852-.998-.061zm-2.22 0l-1 .04.036.883.881.074.083-.997zm0-3.285h1v-1h-1v1zm-9.15 0l-.994.105.09.86.864.034.04-.999zm0-1.995l-.05-.999-.855.042-.09.852.995.105zm7.96-1.864c-.325.036-1.442.039-1.92-.002l-.17 1.992c.572.05 1.825.052 2.31-.002l-.22-1.988zm-1.006.95c-.059-1.335-.044-6.285 0-7.23l-1.998-.092c-.046 1.005-.061 6.015 0 7.41l1.998-.088zm-.817-6.293a6.69 6.69 0 01.854-.034c.415.002.789.021.947.042l.264-1.982a10.963 10.963 0 00-1.202-.06c-.41-.001-.918.01-1.227.068l.364 1.966zm.934-.95c.014.44.014 1.287.03 2.322l2-.03c-.016-.975-.016-1.898-.031-2.358l-2 .066zm1.03 3.307h1.124v-2h-1.125v2zm2.124-1c0-.55.004-1.061.008-1.48.003-.414.007-.749.007-.935h-2c0 .174-.004.491-.007.917-.004.422-.008.939-.008 1.498h2zm-.803-1.432c.101-.018.436-.04.866-.04.424 0 .782.02.918.043l.329-1.972c-.315-.053-.819-.07-1.247-.07-.42 0-.926.016-1.23.073l.364 1.966zm.948-.96c.03 1.26.03 6.104 0 7.455l2 .044c.03-1.38.03-6.254 0-7.546l-2 .047zm.854 6.488a7.97 7.97 0 01-.865.023 24.505 24.505 0 01-1.062-.032l-.114 1.996c.28.016.728.032 1.158.036.401.003.882-.001 1.176-.045l-.293-1.978zm-.984.963c-.015-.553-.015-1.75-.015-3.064h-2c0 1.296 0 2.53.015 3.116l2-.052zm-1.015-4.064c-.41 0-.777 0-1.096-.014l-.087 1.998c.37.016.784.016 1.183.016v-2zm-2.14.985c0 .626-.004 1.23-.007 1.752-.004.517-.008.958-.008 1.248h2c0-.28.004-.71.008-1.234.003-.522.007-1.132.007-1.766h-2zm-4.612-3.13c-.907.03-2.462.03-3.587 0l-.052 2a74.7 74.7 0 003.703 0l-.064-2zm-2.618.898a9.932 9.932 0 010-1.77l-1.989-.216a11.878 11.878 0 000 2.19l1.989-.204zm-.945-.88c1.172-.058 4.45-.072 5.728 0l.114-1.996c-1.362-.078-4.713-.062-5.942 0l.1 1.997zm4.787-.938c.103 1.708.132 4.835.044 6.533l1.998.104c.092-1.782.061-4.985-.046-6.757l-1.996.12zm.933 5.591a13.02 13.02 0 01-2.014 0l-.221 1.988c.613.068 1.842.068 2.456 0l-.221-1.988zm-1.125.994c0-1.095.015-3.575 0-4.679l-2 .028c.015 1.086 0 3.526 0 4.651h2zm6.867 1.394c.072 1.217.043 4.461 0 5.16l1.996.122c.047-.771.078-4.097 0-5.4l-1.996.118zm.902 4.226c-.397.038-1.551.04-2.04-.002l-.167 1.994c.59.049 1.866.05 2.4-.002l-.193-1.99zm-1.125.956c-.029-.74.001-2.287.001-3.246h-2c0 .871-.03 2.534 0 3.324l2-.078zm-.999-4.246c-3.35 0-8.011.045-9.11 0l-.08 2c1.151.045 5.91 0 9.19 0v-2zm-8.155.895a10.04 10.04 0 010-1.785l-1.99-.21a12.12 12.12 0 000 2.205l1.99-.21zm-.945-.891c1.185-.059 9.94-.073 11.265 0l.11-1.997c-1.404-.078-10.23-.062-11.474 0l.098 1.997zm25.119.636l.147.99.834-.125.019-.843-1-.022zm-2.13 0l-1 .022.02.924.923.052.057-.998zm0-9.9l-.182-.983-.805.149-.013.818 1 .016zm2.13 0l1-.024-.02-.826-.816-.136-.164.986zm-5.085 4.35h1v-1h-1v1zm-1.635-.03l-.997.079.07.889.891.031.036-.999zm0-1.95l-.037-1-.89.034-.07.887.997.079zm1.65-.015v1h1v-1h-1zm.03-2.28l-.182-.983-.777.144-.04.79.999.049zm2.115 0l1-.035-.03-.845-.838-.111-.132.991zm0 9.72l.11.994.88-.098.01-.885-1-.011zm-2.115 0l-1 .04.037.881.878.075.085-.996zm-6.135-1.77l-.371.928.718.288.459-.624-.806-.592zm-1.71-1.11l-.875-.484-.372.673.554.532.693-.721zm2.49-3.87l.826.563.178-.26-.004-.315-1 .012zm.03-2.895l-.182-.983-.784.145-.033.796.999.042zm2.355 0l1-.035-.03-.813-.801-.138-.169.986zm.03 3.105l-1-.012-.004.36.226.28.778-.628zm2.55 3.315l.747.664.516-.58-.434-.643-.829.559zm-1.605 1.26l-.742.67.502.556.675-.325-.435-.901zm-2.19-2.745l.799-.602-.873-1.157-.772 1.226.846.533zm9.48 6.51l.994-.11-.096-.866-.871-.024-.027 1zm0 1.95l.062.998.842-.053.09-.837-.994-.108zm-11.475 0l-.998.067.06.883.883.048.055-.998zm0-4.605l-.096-.995-.859.083-.044.861.999.051zm2.235 0l1-.04-.036-.883-.881-.073-.083.996zm0 2.655l-1-.037-.038 1.042 1.042-.005-.004-1zm8.839-2.684a7.973 7.973 0 01-.865.023 24.495 24.495 0 01-1.062-.032l-.114 1.996c.28.016.728.032 1.158.036.401.003.882-.001 1.175-.045l-.292-1.978zm-.984.967c-.03-1.348-.015-8.909 0-9.862l-2-.032c-.015.967-.03 8.556 0 9.938l2-.044zm-.818-8.895c.101-.018.435-.04.866-.04.424 0 .782.02.918.043l.328-1.972c-.314-.053-.818-.07-1.246-.07-.42 0-.926.016-1.23.073l.364 1.966zm.948-.96c.03 1.26.03 8.504 0 9.855l2 .044c.03-1.38.03-8.654 0-9.946l-2 .047zm-4.085 3.327c-.6 0-1.188-.015-1.6-.03l-.07 2c.428.015 1.04.03 1.67.03v-2zm-.638.891a13.11 13.11 0 010-1.792l-1.994-.158a15.133 15.133 0 000 2.108l1.994-.158zm-.96-.872c.382-.014.945-.014 1.613-.014v-2c-.652 0-1.259 0-1.687.016l.074 1.998zm2.613-1.014c0-1.11.015-1.958.029-2.23l-1.998-.1a64.22 64.22 0 00-.031 2.33h2zm-.788-1.297c.096-.018.422-.036.854-.034.414.002.789.021.947.042l.264-1.982a10.966 10.966 0 00-1.202-.06c-.411-.001-.919.01-1.227.068l.364 1.966zm.934-.948c.044 1.262.014 8.33 0 9.674l1.999.022c.015-1.327.045-8.448 0-9.766l-2 .07zm.889 8.691c-.325.036-1.442.039-1.92-.002l-.17 1.992c.572.05 1.825.052 2.31-.002l-.22-1.988zm-1.006.953c-.029-.71-.044-3.13-.044-5.404h-2c0 2.256.015 4.726.046 5.486l1.998-.082zm-6.763-2.657a5.043 5.043 0 01-.71-.399 5.211 5.211 0 01-.678-.504l-1.386 1.442c.256.246.633.519.976.74.342.222.74.451 1.056.578l.742-1.858zm-1.206.302c.364-.658 1.762-2.795 2.441-3.79l-1.652-1.127c-.671.984-2.123 3.197-2.539 3.949l1.75.968zm2.615-4.366a52.11 52.11 0 01.03-2.841l-2-.084c-.03.742-.045 1.69-.03 2.949l2-.024zm-.788-1.9c.102-.019.475-.043.955-.045.472-.002.881.019 1.049.048l.338-1.972c-.357-.06-.923-.078-1.395-.076-.466.002-1.008.023-1.311.079l.364 1.966zm1.174-.948c.029.839.044 1.828.03 3.058l1.999.024c.015-1.26 0-2.28-.03-3.152l-2 .07zm.252 3.699c.828 1.024 2.121 2.687 2.498 3.245l1.658-1.118c-.433-.642-1.78-2.37-2.602-3.385l-1.555 1.258zm2.58 2.022c-.125.14-.367.361-.647.582-.287.227-.53.385-.646.441l.87 1.802c.318-.154.698-.423 1.015-.673.324-.255.667-.56.902-.824l-1.494-1.328zm-.116 1.254c-.388-.43-1.355-1.643-2.133-2.677l-1.598 1.204c.782 1.036 1.795 2.313 2.247 2.813l1.484-1.34zm-3.778-2.608c-.688 1.091-1.557 2.401-1.91 2.88l1.612 1.185c.397-.54 1.298-1.9 1.99-2.999l-1.692-1.066zm9.332 7.153a9.617 9.617 0 010 1.733l1.988.215c.068-.626.068-1.554 0-2.168l-1.988.22zm.932.842c-1.157.072-10.027.073-11.358 0l-.11 1.996c1.399.077 10.349.078 11.592 0l-.124-1.996zm-10.415.93c-.072-1.055-.043-3.622 0-4.486l-1.997-.102c-.046.906-.077 3.56.001 4.723l1.996-.134zm-.902-3.542c.397-.038 1.566-.04 2.056.002l.166-1.993c-.59-.05-1.881-.05-2.414 0l.192 1.991zm1.14-.955c.029.722.029 1.792 0 2.578l1.998.074a40.13 40.13 0 000-2.732l-1.998.08zm1.003 3.615c3.328-.015 8.105-.03 9.21 0l.053-2c-1.146-.03-5.969-.015-9.272 0l.01 2zM63.7 46.825l1-.03-.025-.84-.834-.12-.141.99zm0 13.5l.128.992.843-.109.028-.85-1-.033zm-2.25 0l-1 .036.033.885.881.075.086-.996zm-.045-6.33h1v-1h-1v1zm-1.98-.03l-.995.105.09.852.856.042.049-.999zm0-2.175l-.042-1-.862.037-.09.858.994.105zm1.995-.03v1h1v-1h-1zm.03-4.935l-.217-.976-.766.17-.017.784 1 .022zM54.084 57.31h-1v1.025l1.024-.025-.024-1zm5.73 0l.994-.105-.092-.874-.878-.02-.024.999zm0 2.01l.044.999.86-.038.09-.856-.994-.105zm-8.04 0l-.999.051.047.906.906.042.046-.999zm0-12.075l-.045-.999-.914.041-.04.915.999.043zm7.14 0l.993-.113-.097-.853-.858-.033-.038.999zm0 2.025l.033 1 .87-.03.091-.865-.994-.105zm-4.83 0l.033-1-1.033-.033v1.033h1zm.015 3h-1v1.011l1.01-.011-.01-1zm4.44 0l.994-.105-.094-.895h-.9v1zm0 2.01l.027 1 .899-.025.07-.896-.996-.079zm-4.44 0l.01-1-1.01-.011v1.011h1zm8.6-7.426c.06 2.037.06 11.676 0 13.437l2 .068c.06-1.81.06-11.49 0-13.563l-2 .058zm.872 12.48c-.364.046-1.544.037-2.037-.005l-.17 1.992c.557.048 1.897.069 2.463-.004l-.256-1.984zm-1.123.955c-.029-.803-.044-3.496-.044-6.294h-2c0 2.782.015 5.519.045 6.366l2-.072zm-1.044-7.294c-.681 0-1.346 0-1.931-.029l-.098 1.998c.644.031 1.36.031 2.029.031v-2zm-.986.865c-.052-.5-.052-1.465 0-1.965l-1.989-.21c-.067.64-.067 1.745 0 2.385l1.99-.21zm-.953-1.07c.697-.03 1.337-.03 1.954-.03v-2c-.613 0-1.293 0-2.037.03l.084 2zm2.954-1.03c0-2.25.015-4.235.03-4.913l-2-.044c-.015.702-.03 2.707-.03 4.957h2zm-.753-3.959a4.048 4.048 0 01.285-.026 10.3 10.3 0 01.574-.012c.433.002.84.024 1.032.052l.283-1.98c-.332-.047-.848-.07-1.307-.072-.43-.002-.972.013-1.301.086l.434 1.952zM54.108 58.31c1.214-.03 4.438-.03 5.682 0l.048-2c-1.276-.03-4.532-.03-5.779 0l.05 2zm4.711-.895c.053.5.053 1.3 0 1.8l1.99.21c.067-.64.067-1.58 0-2.22l-1.99.21zm.95.906c-1.337.059-6.362.074-7.949 0l-.092 1.998c1.653.076 6.738.061 8.13 0l-.088-1.998zm-6.996.948c-.089-1.718-.074-10.28 0-11.98l-1.998-.087c-.076 1.75-.092 10.377 0 12.17l1.998-.103zm-.954-11.025c1.301-.059 5.908-.044 7.056 0l.077-1.998c-1.191-.046-5.855-.062-7.223 0l.09 1.998zm6.101-.886a10.48 10.48 0 010 1.807l1.988.21c.067-.637.068-1.64 0-2.243l-1.988.227zm.96.913c-.877.029-3.87.029-4.763 0l-.066 1.998c.937.031 3.974.031 4.896 0l-.067-1.998zm-5.796.999c0 .44.004.92.007 1.423.004.505.008 1.034.008 1.577h2c0-.552-.004-1.088-.008-1.592-.004-.506-.007-.978-.007-1.408h-2zm1.026 4c1.358-.015 3.29 0 4.429 0v-2c-1.11 0-3.08-.015-4.451 0l.022 2zm3.434-.895c.052.487.04 1.29-.002 1.826l1.994.158c.047-.605.066-1.54-.003-2.194l-1.989.21zm.967.905c-1.072.03-3.046.015-4.401 0l-.022 2c1.345.015 3.36.03 4.478 0l-.055-2zm-5.412 1c0 .528-.004 1.05-.008 1.558-.003.507-.007 1.003-.007 1.472h2c0-.46.003-.948.007-1.457.004-.508.008-1.036.008-1.573h-2z" mask="url(#a)"/></svg>