<svg xmlns="http://www.w3.org/2000/svg" width="250" height="52" fill="none" viewBox="0 0 250 52"><rect width="246" height="48" x="2" y="2" fill="#A4E96B" stroke="#44A342" stroke-width="4" rx="14"/><mask id="path-2-outside-1_1_18" width="91" height="26" x="70" y="13" fill="#000" maskUnits="userSpaceOnUse"><rect width="91" height="26" x="70" y="13" fill="#fff"/><path d="M87.912 19.2C82.608 19.2 75.84 19.272 74.04 19.2C73.944 18.288 73.944 16.896 74.04 15.984C75.96 15.912 89.4 15.864 91.584 15.984C91.704 18 91.704 28.728 91.584 30.144C90.84 30.24 88.776 30.24 87.912 30.144C87.864 28.8 87.864 20.376 87.912 19.2ZM93.36 33.024C93.456 33.912 93.456 35.136 93.36 36.144C91.296 36.288 75.552 36.24 72.72 36.144C72.624 35.28 72.624 33.96 72.72 33.024C74.352 33 76.848 32.976 79.584 32.976C79.584 30.192 79.608 24.576 79.656 23.64C80.4 23.496 82.44 23.496 83.28 23.64C83.304 24.696 83.328 30.24 83.328 32.976C87.864 32.976 92.16 33 93.36 33.024ZM109.702 26.952C109.054 27.024 107.158 27.024 106.318 26.952C106.222 24.768 106.246 16.8 106.318 15.24C106.966 15.12 108.982 15.144 109.702 15.24C109.726 15.96 109.726 17.376 109.75 18.984H111.55C111.55 17.208 111.574 15.696 111.574 15.12C112.222 15 114.262 15 114.982 15.12C115.03 17.16 115.03 24.936 114.982 27.12C114.334 27.216 112.414 27.168 111.574 27.12C111.55 26.208 111.55 24.264 111.55 22.176C110.902 22.176 110.278 22.176 109.726 22.152C109.726 24.168 109.702 26.04 109.702 26.952ZM100.798 18.744C99.3101 18.792 96.7901 18.792 94.9661 18.744C94.8701 17.808 94.8701 16.464 94.9661 15.576C96.8861 15.48 102.19 15.456 104.302 15.576C104.47 18.36 104.518 23.424 104.374 26.208C103.51 26.304 101.662 26.304 100.798 26.208C100.798 24.432 100.822 20.496 100.798 18.744ZM114.982 28.344C115.102 30.36 115.054 35.616 114.982 36.792C114.238 36.864 112.294 36.864 111.43 36.792C111.382 35.568 111.43 33 111.43 31.536C106.126 31.536 98.5901 31.608 96.7901 31.536C96.6941 30.624 96.6941 29.256 96.7901 28.344C98.7341 28.248 112.798 28.224 114.982 28.344ZM137.06 30.96C136.412 31.056 134.492 31.008 133.652 30.96C133.604 28.776 133.628 16.656 133.652 15.12C134.3 15 136.34 15 137.06 15.12C137.108 17.16 137.108 28.776 137.06 30.96ZM128.924 22.08C127.94 22.08 126.98 22.056 126.308 22.032C126.236 21.12 126.236 19.824 126.308 18.912C126.956 18.888 127.892 18.888 128.948 18.888C128.948 17.112 128.972 15.72 128.996 15.24C129.644 15.12 131.66 15.144 132.38 15.24C132.452 17.304 132.404 28.656 132.38 30.792C131.732 30.864 129.836 30.864 128.996 30.792C128.948 29.616 128.924 25.704 128.924 22.08ZM119.18 27.96C118.46 27.672 117.044 26.76 116.444 26.184C117.068 25.056 119.348 21.576 120.428 19.992C120.404 18 120.428 16.512 120.476 15.36C121.124 15.24 123.404 15.216 124.244 15.36C124.292 16.728 124.316 18.336 124.292 20.328C125.612 21.96 127.724 24.672 128.372 25.632C127.796 26.28 126.5 27.312 125.804 27.648C125.132 26.904 123.548 24.912 122.3 23.256C121.196 25.008 119.78 27.144 119.18 27.96ZM137.468 33.672C137.564 34.536 137.564 35.904 137.468 36.792C135.548 36.912 121.292 36.912 119.108 36.792C118.988 35.016 119.036 30.84 119.108 29.424C119.852 29.352 121.82 29.352 122.684 29.424C122.732 30.624 122.732 32.376 122.684 33.672C127.988 33.648 135.668 33.624 137.468 33.672ZM158.874 15.12C158.97 18.408 158.97 33.864 158.874 36.72C158.13 36.816 156.114 36.792 155.274 36.72C155.226 35.4 155.202 31.056 155.202 26.592C154.122 26.592 153.018 26.592 152.034 26.544C151.938 25.632 151.938 23.976 152.034 23.064C153.186 23.016 154.242 23.016 155.226 23.016C155.226 19.416 155.25 16.224 155.274 15.12C155.922 14.976 158.034 15 158.874 15.12ZM143.49 31.896C145.458 31.848 150.642 31.848 152.658 31.896C152.754 32.808 152.754 34.2 152.658 35.112C150.474 35.208 142.386 35.232 139.794 35.112C139.65 32.304 139.674 18.552 139.794 15.792C141.93 15.696 149.346 15.72 151.218 15.792C151.314 16.632 151.314 18.12 151.218 19.032C149.778 19.08 144.954 19.08 143.49 19.032C143.49 20.424 143.514 22.08 143.514 23.832C145.698 23.808 148.818 23.832 150.618 23.832C150.714 24.744 150.69 26.136 150.618 27.048C148.866 27.096 145.674 27.072 143.514 27.048C143.514 28.752 143.49 30.408 143.49 31.896Z"/></mask><path fill="#252525" d="M87.912 19.2C82.608 19.2 75.84 19.272 74.04 19.2C73.944 18.288 73.944 16.896 74.04 15.984C75.96 15.912 89.4 15.864 91.584 15.984C91.704 18 91.704 28.728 91.584 30.144C90.84 30.24 88.776 30.24 87.912 30.144C87.864 28.8 87.864 20.376 87.912 19.2ZM93.36 33.024C93.456 33.912 93.456 35.136 93.36 36.144C91.296 36.288 75.552 36.24 72.72 36.144C72.624 35.28 72.624 33.96 72.72 33.024C74.352 33 76.848 32.976 79.584 32.976C79.584 30.192 79.608 24.576 79.656 23.64C80.4 23.496 82.44 23.496 83.28 23.64C83.304 24.696 83.328 30.24 83.328 32.976C87.864 32.976 92.16 33 93.36 33.024ZM109.702 26.952C109.054 27.024 107.158 27.024 106.318 26.952C106.222 24.768 106.246 16.8 106.318 15.24C106.966 15.12 108.982 15.144 109.702 15.24C109.726 15.96 109.726 17.376 109.75 18.984H111.55C111.55 17.208 111.574 15.696 111.574 15.12C112.222 15 114.262 15 114.982 15.12C115.03 17.16 115.03 24.936 114.982 27.12C114.334 27.216 112.414 27.168 111.574 27.12C111.55 26.208 111.55 24.264 111.55 22.176C110.902 22.176 110.278 22.176 109.726 22.152C109.726 24.168 109.702 26.04 109.702 26.952ZM100.798 18.744C99.3101 18.792 96.7901 18.792 94.9661 18.744C94.8701 17.808 94.8701 16.464 94.9661 15.576C96.8861 15.48 102.19 15.456 104.302 15.576C104.47 18.36 104.518 23.424 104.374 26.208C103.51 26.304 101.662 26.304 100.798 26.208C100.798 24.432 100.822 20.496 100.798 18.744ZM114.982 28.344C115.102 30.36 115.054 35.616 114.982 36.792C114.238 36.864 112.294 36.864 111.43 36.792C111.382 35.568 111.43 33 111.43 31.536C106.126 31.536 98.5901 31.608 96.7901 31.536C96.6941 30.624 96.6941 29.256 96.7901 28.344C98.7341 28.248 112.798 28.224 114.982 28.344ZM137.06 30.96C136.412 31.056 134.492 31.008 133.652 30.96C133.604 28.776 133.628 16.656 133.652 15.12C134.3 15 136.34 15 137.06 15.12C137.108 17.16 137.108 28.776 137.06 30.96ZM128.924 22.08C127.94 22.08 126.98 22.056 126.308 22.032C126.236 21.12 126.236 19.824 126.308 18.912C126.956 18.888 127.892 18.888 128.948 18.888C128.948 17.112 128.972 15.72 128.996 15.24C129.644 15.12 131.66 15.144 132.38 15.24C132.452 17.304 132.404 28.656 132.38 30.792C131.732 30.864 129.836 30.864 128.996 30.792C128.948 29.616 128.924 25.704 128.924 22.08ZM119.18 27.96C118.46 27.672 117.044 26.76 116.444 26.184C117.068 25.056 119.348 21.576 120.428 19.992C120.404 18 120.428 16.512 120.476 15.36C121.124 15.24 123.404 15.216 124.244 15.36C124.292 16.728 124.316 18.336 124.292 20.328C125.612 21.96 127.724 24.672 128.372 25.632C127.796 26.28 126.5 27.312 125.804 27.648C125.132 26.904 123.548 24.912 122.3 23.256C121.196 25.008 119.78 27.144 119.18 27.96ZM137.468 33.672C137.564 34.536 137.564 35.904 137.468 36.792C135.548 36.912 121.292 36.912 119.108 36.792C118.988 35.016 119.036 30.84 119.108 29.424C119.852 29.352 121.82 29.352 122.684 29.424C122.732 30.624 122.732 32.376 122.684 33.672C127.988 33.648 135.668 33.624 137.468 33.672ZM158.874 15.12C158.97 18.408 158.97 33.864 158.874 36.72C158.13 36.816 156.114 36.792 155.274 36.72C155.226 35.4 155.202 31.056 155.202 26.592C154.122 26.592 153.018 26.592 152.034 26.544C151.938 25.632 151.938 23.976 152.034 23.064C153.186 23.016 154.242 23.016 155.226 23.016C155.226 19.416 155.25 16.224 155.274 15.12C155.922 14.976 158.034 15 158.874 15.12ZM143.49 31.896C145.458 31.848 150.642 31.848 152.658 31.896C152.754 32.808 152.754 34.2 152.658 35.112C150.474 35.208 142.386 35.232 139.794 35.112C139.65 32.304 139.674 18.552 139.794 15.792C141.93 15.696 149.346 15.72 151.218 15.792C151.314 16.632 151.314 18.12 151.218 19.032C149.778 19.08 144.954 19.08 143.49 19.032C143.49 20.424 143.514 22.08 143.514 23.832C145.698 23.808 148.818 23.832 150.618 23.832C150.714 24.744 150.69 26.136 150.618 27.048C148.866 27.096 145.674 27.072 143.514 27.048C143.514 28.752 143.49 30.408 143.49 31.896Z"/><path fill="#fff" d="M87.912 19.2L89.9103 19.2816L89.9953 17.2H87.912V19.2ZM74.04 19.2L72.051 19.4094L72.232 21.1293L73.9601 21.1984L74.04 19.2ZM74.04 15.984L73.9651 13.9854L72.2325 14.0504L72.051 15.7746L74.04 15.984ZM91.584 15.984L93.5805 15.8652L93.4745 14.0849L91.6937 13.987L91.584 15.984ZM91.584 30.144L91.8399 32.1276L93.4406 31.921L93.5769 30.3129L91.584 30.144ZM87.912 30.144L85.9133 30.2154L85.9749 31.9411L87.6911 32.1318L87.912 30.144ZM93.36 33.024L95.3484 32.809L95.1593 31.0596L93.4 31.0244L93.36 33.024ZM93.36 36.144L93.4992 38.1392L95.1903 38.0212L95.351 36.3336L93.36 36.144ZM72.72 36.144L70.7322 36.3649L70.9233 38.0842L72.6522 38.1429L72.72 36.144ZM72.72 33.024L72.6906 31.0242L70.9119 31.0504L70.7304 32.8199L72.72 33.024ZM79.584 32.976V34.976H81.584V32.976H79.584ZM79.656 23.64L79.276 21.6764L77.7388 21.974L77.6586 23.5376L79.656 23.64ZM83.28 23.64L85.2795 23.5946L85.242 21.9472L83.6179 21.6688L83.28 23.64ZM83.328 32.976H81.328V34.976H83.328V32.976ZM87.912 17.2C82.5353 17.2 75.8675 17.2715 74.1199 17.2016L73.9601 21.1984C75.8125 21.2725 82.6807 21.2 87.912 21.2V17.2ZM76.029 18.9906C75.9477 18.2178 75.9477 16.9662 76.029 16.1934L72.051 15.7746C71.9403 16.8258 71.9403 18.3582 72.051 19.4094L76.029 18.9906ZM74.1149 17.9826C76.0038 17.9118 89.3761 17.8657 91.4743 17.981L91.6937 13.987C89.4239 13.8623 75.9162 13.9122 73.9651 13.9854L74.1149 17.9826ZM89.5875 16.1028C89.6432 17.0375 89.674 20.1538 89.674 23.289C89.674 26.4527 89.642 29.3749 89.5911 29.9751L93.5769 30.3129C93.646 29.4971 93.674 26.3473 93.674 23.289C93.674 20.2022 93.6448 16.9465 93.5805 15.8652L89.5875 16.1028ZM91.3281 28.1604C91.0954 28.1905 90.5067 28.216 89.793 28.216C89.0918 28.216 88.4504 28.1915 88.1329 28.1562L87.6911 32.1318C88.2376 32.1925 89.0602 32.216 89.793 32.216C90.5133 32.216 91.3286 32.1935 91.8399 32.1276L91.3281 28.1604ZM89.9107 30.0726C89.8643 28.7726 89.8647 20.4 89.9103 19.2816L85.9137 19.1184C85.8633 20.352 85.8637 28.8274 85.9133 30.2154L89.9107 30.0726ZM91.3716 33.239C91.4513 33.9761 91.4539 35.0635 91.369 35.9544L95.351 36.3336C95.4581 35.2085 95.4607 33.8479 95.3484 32.809L91.3716 33.239ZM93.2208 34.1488C91.2674 34.2851 75.6115 34.2409 72.7878 34.1451L72.6522 38.1429C75.4925 38.2391 91.3246 38.2909 93.4992 38.1392L93.2208 34.1488ZM74.7078 35.9231C74.6287 35.2114 74.6269 34.0343 74.7096 33.2281L70.7304 32.8199C70.6211 33.8857 70.6193 35.3486 70.7322 36.3649L74.7078 35.9231ZM72.7494 35.0238C74.3725 34.9999 76.8587 34.976 79.584 34.976V30.976C76.8373 30.976 74.3315 31.0001 72.6906 31.0242L72.7494 35.0238ZM81.584 32.976C81.584 30.1558 81.6088 24.6123 81.6534 23.7424L77.6586 23.5376C77.6072 24.5397 77.584 30.2282 77.584 32.976H81.584ZM80.036 25.6036C80.2036 25.5711 80.7318 25.532 81.432 25.532C82.1171 25.532 82.6969 25.5692 82.9421 25.6112L83.6179 21.6688C83.0231 21.5668 82.1629 21.532 81.432 21.532C80.7162 21.532 79.8524 21.5649 79.276 21.6764L80.036 25.6036ZM81.2805 23.6854C81.3039 24.7139 81.328 30.2328 81.328 32.976H85.328C85.328 30.2472 85.3041 24.6781 85.2795 23.5946L81.2805 23.6854ZM83.328 34.976C87.8672 34.976 92.1433 35.0001 93.32 35.0236L93.4 31.0244C92.1767 30.9999 87.8608 30.976 83.328 30.976V34.976ZM109.702 26.952L109.923 28.9398L111.702 28.7421V26.952H109.702ZM106.318 26.952L104.32 27.0398L104.397 28.7947L106.147 28.9447L106.318 26.952ZM106.318 15.24L105.954 13.2734L104.393 13.5624L104.32 15.1478L106.318 15.24ZM109.702 15.24L111.701 15.1734L111.645 13.4813L109.966 13.2575L109.702 15.24ZM109.75 18.984L107.75 19.0138L107.78 20.984H109.75V18.984ZM111.55 18.984V20.984H113.55V18.984H111.55ZM111.574 15.12L111.21 13.1534L109.574 13.4564V15.12H111.574ZM114.982 15.12L116.982 15.073L116.943 13.4192L115.311 13.1472L114.982 15.12ZM114.982 27.12L115.275 29.0984L116.945 28.8511L116.982 27.1639L114.982 27.12ZM111.574 27.12L109.575 27.1726L109.623 29.0118L111.46 29.1167L111.574 27.12ZM111.55 22.176H113.55V20.176H111.55V22.176ZM109.726 22.152L109.813 20.1539L107.726 20.0632V22.152H109.726ZM100.798 18.744L102.798 18.7166L102.77 16.6793L100.734 16.745L100.798 18.744ZM94.9661 18.744L92.9766 18.9481L93.1559 20.6971L94.9135 20.7433L94.9661 18.744ZM94.9661 15.576L94.8662 13.5785L93.1612 13.6637L92.9777 15.361L94.9661 15.576ZM104.302 15.576L106.298 15.4555L106.191 13.6801L104.416 13.5792L104.302 15.576ZM104.374 26.208L104.595 28.1958L106.284 28.0081L106.371 26.3113L104.374 26.208ZM100.798 26.208H98.7981V27.9981L100.577 28.1958L100.798 26.208ZM114.982 28.344L116.979 28.2252L116.873 26.4449L115.092 26.347L114.982 28.344ZM114.982 36.792L115.175 38.7827L116.874 38.6183L116.978 36.9142L114.982 36.792ZM111.43 36.792L109.432 36.8704L109.501 38.6382L111.264 38.7851L111.43 36.792ZM111.43 31.536H113.43V29.536H111.43V31.536ZM96.7901 31.536L94.8011 31.7454L94.9822 33.4653L96.7102 33.5344L96.7901 31.536ZM96.7901 28.344L96.6915 26.3464L94.9805 26.4309L94.8011 28.1346L96.7901 28.344ZM109.481 24.9642C108.995 25.0183 107.234 25.0232 106.489 24.9593L106.147 28.9447C107.082 29.0248 109.114 29.0297 109.923 28.9398L109.481 24.9642ZM108.316 26.8642C108.223 24.7405 108.247 16.8326 108.316 15.3322L104.32 15.1478C104.245 16.7674 104.221 24.7955 104.32 27.0398L108.316 26.8642ZM106.682 17.2066C106.677 17.2075 106.711 17.2014 106.799 17.1936C106.88 17.1863 106.984 17.1795 107.109 17.1738C107.359 17.1626 107.66 17.1576 107.974 17.159C108.634 17.1619 109.211 17.1923 109.438 17.2225L109.966 13.2575C109.473 13.1917 108.682 13.1621 107.992 13.159C107.339 13.1561 106.49 13.1741 105.954 13.2734L106.682 17.2066ZM107.703 15.3066C107.727 16.0067 107.725 17.3468 107.75 19.0138L111.75 18.9541C111.727 17.4052 111.726 15.9133 111.701 15.1734L107.703 15.3066ZM109.75 20.984H111.55V16.984H109.75V20.984ZM113.55 18.984C113.55 18.1046 113.556 17.2894 113.562 16.6199C113.568 15.96 113.574 15.4199 113.574 15.12H109.574C109.574 15.3961 109.568 15.9 109.562 16.5841C109.556 17.2586 109.55 18.0874 109.55 18.984H113.55ZM111.938 17.0866C111.938 17.0867 111.976 17.0802 112.065 17.0718C112.148 17.0639 112.254 17.0563 112.381 17.0499C112.634 17.037 112.937 17.03 113.251 17.03C113.928 17.03 114.472 17.0625 114.653 17.0928L115.311 13.1472C114.772 13.0575 113.936 13.03 113.251 13.03C112.58 13.03 111.737 13.0558 111.21 13.1534L111.938 17.0866ZM112.983 15.167C113.03 17.1747 113.03 24.9203 112.983 27.0761L116.982 27.1639C117.03 24.9517 117.03 17.1453 116.982 15.073L112.983 15.167ZM114.689 25.1416C114.689 25.1416 114.686 25.142 114.679 25.1429C114.672 25.1437 114.663 25.1448 114.65 25.146C114.625 25.1485 114.592 25.1512 114.55 25.154C114.466 25.1596 114.361 25.1645 114.236 25.1681C113.986 25.1754 113.686 25.1769 113.368 25.1741C112.73 25.1683 112.073 25.1452 111.688 25.1233L111.46 29.1167C111.916 29.1428 112.638 29.1677 113.332 29.1739C113.968 29.1796 114.769 29.1733 115.275 29.0984L114.689 25.1416ZM113.573 27.0674C113.55 26.1892 113.55 24.2817 113.55 22.176H109.55C109.55 24.2463 109.55 26.2268 109.575 27.1726L113.573 27.0674ZM111.55 20.176C110.891 20.176 110.313 20.1756 109.813 20.1539L109.639 24.1501C110.243 24.1764 110.914 24.176 111.55 24.176V20.176ZM107.726 22.152C107.726 23.1526 107.72 24.1188 107.714 24.9516C107.708 25.7785 107.702 26.4865 107.702 26.952H111.702C111.702 26.5055 111.708 25.8215 111.714 24.9804C111.72 24.1452 111.726 23.1674 111.726 22.152H107.726ZM100.734 16.745C99.2922 16.7915 96.812 16.7919 95.0187 16.7447L94.9135 20.7433C96.7682 20.7921 99.3281 20.7925 100.863 20.743L100.734 16.745ZM96.9557 18.5399C96.8732 17.7359 96.8744 16.5325 96.9545 15.791L92.9777 15.361C92.8659 16.3955 92.867 17.8801 92.9766 18.9481L96.9557 18.5399ZM95.066 17.5735C96.929 17.4804 102.161 17.4575 104.189 17.5728L104.416 13.5792C102.22 13.4545 96.8432 13.4796 94.8662 13.5785L95.066 17.5735ZM102.306 15.6965C102.47 18.4151 102.516 23.4039 102.377 26.1047L106.371 26.3113C106.52 23.4441 106.47 18.3049 106.298 15.4555L102.306 15.6965ZM104.153 24.2202C103.436 24.2999 101.736 24.2999 101.019 24.2202L100.577 28.1958C101.588 28.3081 103.584 28.3081 104.595 28.1958L104.153 24.2202ZM102.798 26.208C102.798 24.4624 102.822 20.486 102.798 18.7166L98.7983 18.7714C98.8221 20.506 98.7981 24.4016 98.7981 26.208H102.798ZM112.986 28.4628C113.1 30.3916 113.053 35.5668 112.986 36.6698L116.978 36.9142C117.055 35.6652 117.104 30.3284 116.979 28.2252L112.986 28.4628ZM114.789 34.8013C114.182 34.8601 112.359 34.8625 111.596 34.7989L111.264 38.7851C112.229 38.8655 114.294 38.8679 115.175 38.7827L114.789 34.8013ZM113.429 36.7136C113.383 35.5393 113.43 33.0875 113.43 31.536H109.43C109.43 32.9125 109.382 35.5967 109.432 36.8704L113.429 36.7136ZM111.43 29.536C106.055 29.536 98.6175 29.6075 96.8701 29.5376L96.7102 33.5344C98.5628 33.6085 106.197 33.536 111.43 33.536V29.536ZM98.7791 31.3266C98.6978 30.5538 98.6978 29.3262 98.7791 28.5534L94.8011 28.1346C94.6905 29.1858 94.6905 30.6942 94.8011 31.7454L98.7791 31.3266ZM96.8888 30.3416C98.773 30.2485 112.767 30.2253 114.872 30.341L115.092 26.347C112.829 26.2227 98.6952 26.2475 96.6915 26.3464L96.8888 30.3416ZM137.06 30.96L137.353 32.9384L139.023 32.6911L139.06 31.0039L137.06 30.96ZM133.652 30.96L131.653 31.0039L131.693 32.8513L133.538 32.9567L133.652 30.96ZM133.652 15.12L133.288 13.1534L131.678 13.4516L131.652 15.0888L133.652 15.12ZM137.06 15.12L139.06 15.073L139.021 13.4192L137.389 13.1472L137.06 15.12ZM128.924 22.08H130.924V20.08H128.924V22.08ZM126.308 22.032L124.314 22.1894L124.455 23.9671L126.237 24.0307L126.308 22.032ZM126.308 18.912L126.234 16.9134L124.455 16.9793L124.314 18.7546L126.308 18.912ZM128.948 18.888V20.888H130.948V18.888H128.948ZM128.996 15.24L128.632 13.2734L127.078 13.5613L126.999 15.1401L128.996 15.24ZM132.38 15.24L134.379 15.1703L134.32 13.4809L132.645 13.2575L132.38 15.24ZM132.38 30.792L132.601 32.7798L134.36 32.5843L134.38 30.8145L132.38 30.792ZM128.996 30.792L126.998 30.8736L127.07 32.6342L128.825 32.7847L128.996 30.792ZM119.18 27.96L118.437 29.817L119.875 30.3918L120.792 29.1448L119.18 27.96ZM116.444 26.184L114.694 25.2159L113.95 26.5617L115.059 27.6268L116.444 26.184ZM120.428 19.992L122.081 21.1187L122.436 20.598L122.428 19.9679L120.428 19.992ZM120.476 15.36L120.112 13.3934L118.544 13.6838L118.478 15.2767L120.476 15.36ZM124.244 15.36L126.243 15.2899L126.186 13.6637L124.582 13.3888L124.244 15.36ZM124.292 20.328L122.292 20.3039L122.284 21.025L122.737 21.5857L124.292 20.328ZM128.372 25.632L129.867 26.9607L130.899 25.8001L130.03 24.5131L128.372 25.632ZM125.804 27.648L124.32 28.9886L125.324 30.1005L126.674 29.4491L125.804 27.648ZM122.3 23.256L123.897 22.0523L122.153 19.7378L120.608 22.1898L122.3 23.256ZM137.468 33.672L139.456 33.4511L139.264 31.7192L137.522 31.6727L137.468 33.672ZM137.468 36.792L137.593 38.7881L139.275 38.683L139.457 37.007L137.468 36.792ZM119.108 36.792L117.113 36.9268L117.232 38.6919L118.999 38.789L119.108 36.792ZM119.108 29.424L118.916 27.4333L117.198 27.5995L117.111 29.3224L119.108 29.424ZM122.684 29.424L124.683 29.3441L124.612 27.5777L122.85 27.4309L122.684 29.424ZM122.684 33.672L120.686 33.598L120.608 35.6814L122.693 35.672L122.684 33.672ZM136.767 28.9816C136.767 28.9816 136.764 28.982 136.757 28.9829C136.75 28.9837 136.741 28.9848 136.728 28.986C136.703 28.9885 136.67 28.9912 136.629 28.994C136.545 28.9996 136.439 29.0045 136.314 29.0081C136.064 29.0154 135.764 29.0169 135.446 29.0141C134.808 29.0083 134.151 28.9852 133.766 28.9633L133.538 32.9567C133.994 32.9828 134.716 33.0077 135.41 33.0139C136.046 33.0196 136.848 33.0133 137.353 32.9384L136.767 28.9816ZM135.652 30.9161C135.605 28.7667 135.628 16.6741 135.652 15.1512L131.652 15.0888C131.628 16.6379 131.604 28.7853 131.653 31.0039L135.652 30.9161ZM134.016 17.0866C134.016 17.0867 134.054 17.0802 134.143 17.0718C134.227 17.0639 134.333 17.0563 134.459 17.0499C134.712 17.037 135.015 17.03 135.329 17.03C136.006 17.03 136.55 17.0625 136.731 17.0928L137.389 13.1472C136.851 13.0575 136.014 13.03 135.329 13.03C134.658 13.03 133.815 13.0558 133.288 13.1534L134.016 17.0866ZM135.061 15.167C135.108 17.1747 135.108 28.7603 135.061 30.9161L139.06 31.0039C139.108 28.7917 139.108 17.1453 139.06 15.073L135.061 15.167ZM128.924 20.08C127.97 20.08 127.034 20.0567 126.38 20.0333L126.237 24.0307C126.926 24.0553 127.911 24.08 128.924 24.08V20.08ZM128.302 21.8746C128.238 21.0674 128.238 19.8766 128.302 19.0694L124.314 18.7546C124.234 19.7714 124.234 21.1726 124.314 22.1894L128.302 21.8746ZM126.382 20.9106C126.984 20.8883 127.875 20.888 128.948 20.888V16.888C127.909 16.888 126.928 16.8877 126.234 16.9134L126.382 20.9106ZM130.948 18.888C130.948 17.1107 130.973 15.7642 130.994 15.3399L126.999 15.1401C126.972 15.6758 126.948 17.1133 126.948 18.888H130.948ZM129.36 17.2066C129.356 17.2075 129.39 17.2014 129.477 17.1936C129.558 17.1863 129.662 17.1795 129.787 17.1738C130.037 17.1626 130.339 17.1576 130.652 17.159C131.312 17.1619 131.889 17.1923 132.116 17.2225L132.645 13.2575C132.151 13.1917 131.36 13.1621 130.67 13.159C130.017 13.1561 129.168 13.1741 128.632 13.2734L129.36 17.2066ZM130.381 15.3097C130.452 17.3174 130.405 28.6173 130.38 30.7695L134.38 30.8145C134.404 28.6947 134.453 17.2906 134.379 15.1703L130.381 15.3097ZM132.159 28.8042C131.673 28.8583 129.912 28.8632 129.167 28.7993L128.825 32.7847C129.76 32.8648 131.792 32.8697 132.601 32.7798L132.159 28.8042ZM130.995 30.7104C130.949 29.585 130.924 25.7216 130.924 22.08H126.924C126.924 25.6864 126.948 29.647 126.998 30.8736L130.995 30.7104ZM119.923 26.103C119.744 26.0316 119.339 25.8151 118.854 25.5011C118.372 25.1892 117.993 24.8982 117.829 24.7412L115.059 27.6268C115.496 28.0458 116.124 28.4988 116.68 28.8589C117.233 29.2169 117.896 29.6004 118.437 29.817L119.923 26.103ZM118.194 27.1521C118.766 26.1188 120.993 22.7142 122.081 21.1187L118.776 18.8653C117.704 20.4378 115.371 23.9932 114.694 25.2159L118.194 27.1521ZM122.428 19.9679C122.404 18.0031 122.428 16.5519 122.475 15.4433L118.478 15.2767C118.428 16.4721 118.404 17.9969 118.428 20.0161L122.428 19.9679ZM120.84 17.3266C120.838 17.3271 120.878 17.3202 120.977 17.3108C121.069 17.3022 121.186 17.2937 121.326 17.2863C121.606 17.2715 121.945 17.2624 122.296 17.261C123.052 17.258 123.676 17.2917 123.906 17.3312L124.582 13.3888C123.973 13.2843 123.037 13.258 122.28 13.261C121.538 13.264 120.636 13.2964 120.112 13.3934L120.84 17.3266ZM122.245 15.4301C122.292 16.7652 122.316 18.3418 122.292 20.3039L126.292 20.3521C126.316 18.3302 126.292 16.6907 126.243 15.2899L122.245 15.4301ZM122.737 21.5857C124.064 23.2265 126.122 25.8736 126.715 26.7509L130.03 24.5131C129.326 23.4704 127.16 20.6935 125.847 19.0703L122.737 21.5857ZM126.877 24.3033C126.7 24.5033 126.333 24.8408 125.895 25.1867C125.441 25.5447 125.081 25.7763 124.935 25.8469L126.674 29.4491C127.224 29.1837 127.86 28.7313 128.372 28.3273C128.899 27.9112 129.469 27.4087 129.867 26.9607L126.877 24.3033ZM127.288 26.3074C126.681 25.635 125.143 23.7051 123.897 22.0523L120.703 24.4597C121.953 26.1189 123.583 28.173 124.32 28.9886L127.288 26.3074ZM120.608 22.1898C119.509 23.9347 118.124 26.0201 117.569 26.7752L120.792 29.1448C121.436 28.2679 122.884 26.0813 123.992 24.3222L120.608 22.1898ZM135.48 33.8929C135.56 34.6081 135.561 35.8299 135.48 36.577L139.457 37.007C139.568 35.9781 139.569 34.4639 139.456 33.4511L135.48 33.8929ZM137.343 34.7959C135.511 34.9104 121.334 34.9113 119.218 34.795L118.999 38.789C121.25 38.9127 135.585 38.9136 137.593 38.7881L137.343 34.7959ZM121.104 36.6572C120.991 34.9896 121.036 30.8996 121.106 29.5256L117.111 29.3224C117.037 30.7804 116.985 35.0424 117.113 36.9268L121.104 36.6572ZM119.301 31.4147C119.909 31.3559 121.755 31.3535 122.518 31.4171L122.85 27.4309C121.885 27.3505 119.796 27.3481 118.916 27.4333L119.301 31.4147ZM120.686 29.5039C120.732 30.6488 120.732 32.3493 120.686 33.598L124.683 33.746C124.733 32.4027 124.733 30.5992 124.683 29.3441L120.686 29.5039ZM122.693 35.672C128.021 35.6479 135.655 35.6244 137.415 35.6713L137.522 31.6727C135.681 31.6236 127.955 31.6481 122.675 31.672L122.693 35.672ZM158.874 15.12L160.874 15.0616L160.824 13.3783L159.157 13.1401L158.874 15.12ZM158.874 36.72L159.13 38.7036L160.816 38.486L160.873 36.7872L158.874 36.72ZM155.274 36.72L153.276 36.7927L153.34 38.5615L155.104 38.7127L155.274 36.72ZM155.202 26.592H157.202V24.592H155.202V26.592ZM152.034 26.544L150.045 26.7534L150.225 28.4581L151.937 28.5416L152.034 26.544ZM152.034 23.064L151.951 21.0657L150.226 21.1376L150.045 22.8546L152.034 23.064ZM155.226 23.016V25.016H157.226V23.016H155.226ZM155.274 15.12L154.841 13.1676L153.309 13.508L153.275 15.0765L155.274 15.12ZM143.49 31.896H141.49V33.9454L143.539 33.8954L143.49 31.896ZM152.658 31.896L154.647 31.6866L154.463 29.9384L152.706 29.8966L152.658 31.896ZM152.658 35.112L152.746 37.1101L154.467 37.0344L154.647 35.3214L152.658 35.112ZM139.794 35.112L137.797 35.2144L137.89 37.026L139.702 37.1099L139.794 35.112ZM139.794 15.792L139.705 13.794L137.876 13.8762L137.796 15.7051L139.794 15.792ZM151.218 15.792L153.205 15.5649L153.011 13.8595L151.295 13.7935L151.218 15.792ZM151.218 19.032L151.285 21.0309L153.025 20.9729L153.207 19.2414L151.218 19.032ZM143.49 19.032L143.556 17.0331L141.49 16.9654V19.032H143.49ZM143.514 23.832H141.514V25.8541L143.536 25.8319L143.514 23.832ZM150.618 23.832L152.607 23.6226L152.419 21.832H150.618V23.832ZM150.618 27.048L150.673 29.0472L152.471 28.998L152.612 27.2054L150.618 27.048ZM143.514 27.048L143.537 25.0481L141.514 25.0257V27.048H143.514ZM156.875 15.1784C156.97 18.4306 156.97 33.8443 156.876 36.6528L160.873 36.7872C160.971 33.8837 160.971 18.3854 160.874 15.0616L156.875 15.1784ZM158.618 34.7364C158.076 34.8064 156.22 34.7937 155.445 34.7273L155.104 38.7127C156.009 38.7903 158.185 38.8256 159.13 38.7036L158.618 34.7364ZM157.273 36.6473C157.227 35.3725 157.202 31.0723 157.202 26.592H153.202C153.202 31.0397 153.226 35.4275 153.276 36.7927L157.273 36.6473ZM155.202 24.592C154.11 24.592 153.058 24.5915 152.132 24.5464L151.937 28.5416C152.979 28.5925 154.134 28.592 155.202 28.592V24.592ZM154.023 26.3346C153.942 25.5618 153.942 24.0462 154.023 23.2734L150.045 22.8546C149.935 23.9058 149.935 25.7022 150.045 26.7534L154.023 26.3346ZM152.118 25.0623C153.222 25.0162 154.239 25.016 155.226 25.016V21.016C154.246 21.016 153.15 21.0158 151.951 21.0657L152.118 25.0623ZM157.226 23.016C157.226 19.4165 157.25 16.2437 157.274 15.1635L153.275 15.0765C153.25 16.2043 153.226 19.4155 153.226 23.016H157.226ZM155.708 17.0724C155.698 17.0746 155.811 17.0549 156.099 17.0395C156.353 17.026 156.664 17.0196 156.994 17.021C157.682 17.0239 158.31 17.0597 158.592 17.0999L159.157 13.1401C158.599 13.0603 157.751 13.0241 157.011 13.021C156.328 13.0181 155.417 13.0395 154.841 13.1676L155.708 17.0724ZM143.539 33.8954C145.474 33.8482 150.626 33.8482 152.611 33.8954L152.706 29.8966C150.659 29.8478 145.442 29.8478 143.442 29.8966L143.539 33.8954ZM150.669 32.1054C150.751 32.8782 150.751 34.1298 150.669 34.9026L154.647 35.3214C154.758 34.2702 154.758 32.7378 154.647 31.6866L150.669 32.1054ZM152.571 33.1139C150.44 33.2076 142.413 33.2311 139.887 33.1141L139.702 37.1099C142.36 37.2329 150.508 37.2084 152.746 37.1101L152.571 33.1139ZM141.792 35.0096C141.652 32.2763 141.675 18.5887 141.792 15.8789L137.796 15.7051C137.674 18.5153 137.649 32.3317 137.797 35.2144L141.792 35.0096ZM139.884 17.79C141.953 17.697 149.312 17.7202 151.142 17.7905L151.295 13.7935C149.38 13.7198 141.907 13.695 139.705 13.794L139.884 17.79ZM149.231 16.0191C149.309 16.7025 149.311 18.0436 149.229 18.8226L153.207 19.2414C153.317 18.1964 153.319 16.5615 153.205 15.5649L149.231 16.0191ZM151.152 17.0331C149.757 17.0796 144.977 17.0797 143.556 17.0331L143.425 21.0309C144.932 21.0803 149.8 21.0804 151.285 21.0309L151.152 17.0331ZM141.49 19.032C141.49 19.7371 141.496 20.5076 141.502 21.3119C141.508 22.1191 141.514 22.9643 141.514 23.832H145.514C145.514 22.9477 145.508 22.0889 145.502 21.2821C145.496 20.4724 145.49 19.7189 145.49 19.032H141.49ZM143.536 25.8319C145.707 25.808 148.79 25.832 150.618 25.832V21.832C148.847 21.832 145.69 21.808 143.492 21.8321L143.536 25.8319ZM148.629 24.0414C148.708 24.7877 148.691 26.0472 148.625 26.8906L152.612 27.2054C152.69 26.2248 152.721 24.7003 152.607 23.6226L148.629 24.0414ZM150.564 25.0487C148.858 25.0955 145.706 25.0722 143.537 25.0481L143.492 29.0479C145.642 29.0718 148.875 29.0965 150.673 29.0472L150.564 25.0487ZM141.514 27.048C141.514 27.8916 141.508 28.7246 141.502 29.5382C141.496 30.3491 141.49 31.1431 141.49 31.896H145.49C145.49 31.1609 145.496 30.3829 145.502 29.5678C145.508 28.7554 145.514 27.9084 145.514 27.048H141.514Z" mask="url(#path-2-outside-1_1_18)"/><path fill="#2DC1FF" stroke="#6C484D" stroke-width="2" d="M49.837 40.5996H49.8379C53.243 40.5996 56 37.844 56 34.4434V26C56 17.1626 48.8374 10 40 10C31.1626 10 24 17.1626 24 26V28.3438C24 29.6753 25.0747 30.75 26.4062 30.75C27.4686 30.75 28.3675 30.0659 28.6875 29.1131V29.75C28.6875 32.3706 30.8169 34.5 33.4375 34.5H34.375C35.9644 34.5 37.25 33.2144 37.25 31.625V25.0625C37.25 23.4731 35.9644 22.1875 34.375 22.1875H33.4375C31.1919 22.1875 29.307 23.751 28.8135 25.8474C28.8951 19.7377 33.8708 14.8125 40 14.8125C46.1292 14.8125 51.1049 19.7377 51.1865 25.8474C50.693 23.751 48.8081 22.1875 46.5625 22.1875H45.625C44.0356 22.1875 42.75 23.4731 42.75 25.0625V31.625C42.75 33.2144 44.0356 34.5 45.625 34.5H46.5625C48.8097 34.5 50.6956 32.9343 51.1875 30.8358V34.4434C51.1875 35.1858 50.5868 35.7867 49.8445 35.7871C49.8442 35.7871 49.844 35.7871 49.8438 35.7871L43.8956 35.7817C43.1984 34.9271 42.1344 34.375 40.9375 34.375H39.0625C36.9575 34.375 35.25 36.0825 35.25 38.1875C35.25 40.2925 36.9575 42 39.0625 42H40.9375C42.134 42 43.1976 41.4483 43.8949 40.5942L49.837 40.5996Z"/></svg>