<svg width="64" height="64" viewBox="0 0 64 64" fill="none" xmlns="http://www.w3.org/2000/svg">
<mask id="mask0_80_15" style="mask-type:alpha" maskUnits="userSpaceOnUse" x="0" y="0" width="64" height="64">
<circle cx="32" cy="32" r="29" fill="#DB8900" stroke="#D3B226" stroke-width="6"/>
</mask>
<g mask="url(#mask0_80_15)">
<g filter="url(#filter0_i_80_15)">
<circle cx="32" cy="32" r="32" fill="#DB8900"/>
</g>
<circle cx="32" cy="32" r="29" stroke="#D3B226" stroke-width="6"/>
<path d="M33 15.48C39.84 15.48 44.36 18.88 44.36 25.52C44.36 32.24 39.84 35.6 33 35.6H25.12V48.12H19.96V15.48H33ZM25.12 31.04H32.72C37 31.04 39.2 29.12 39.2 25.52C39.2 21.92 37 20.04 32.72 20.04H25.12V31.04Z" fill="url(#paint0_linear_80_15)"/>
<rect x="8" y="3.7536" width="28" height="72" transform="rotate(-22.5852 8 3.7536)" fill="url(#paint1_linear_80_15)"/>
</g>
<defs>
<filter id="filter0_i_80_15" x="0" y="0" width="64" height="68" filterUnits="userSpaceOnUse" color-interpolation-filters="sRGB">
<feFlood flood-opacity="0" result="BackgroundImageFix"/>
<feBlend mode="normal" in="SourceGraphic" in2="BackgroundImageFix" result="shape"/>
<feColorMatrix in="SourceAlpha" type="matrix" values="0 0 0 0 0 0 0 0 0 0 0 0 0 0 0 0 0 0 127 0" result="hardAlpha"/>
<feOffset dy="4"/>
<feGaussianBlur stdDeviation="9.75"/>
<feComposite in2="hardAlpha" operator="arithmetic" k2="-1" k3="1"/>
<feColorMatrix type="matrix" values="0 0 0 0 0.475 0 0 0 0 0.304082 0 0 0 0 0.0257292 0 0 0 1 0"/>
<feBlend mode="normal" in2="shape" result="effect1_innerShadow_80_15"/>
</filter>
<linearGradient id="paint0_linear_80_15" x1="15.129" y1="7.55556" x2="47.6545" y2="45.7465" gradientUnits="userSpaceOnUse">
<stop stop-color="#FFE161"/>
<stop offset="0.79983" stop-color="#D3B226"/>
</linearGradient>
<linearGradient id="paint1_linear_80_15" x1="8.50505" y1="41.5961" x2="33.1977" y2="42.1197" gradientUnits="userSpaceOnUse">
<stop stop-color="white" stop-opacity="0"/>
<stop offset="0.495" stop-color="white" stop-opacity="0.585"/>
<stop offset="1" stop-color="white" stop-opacity="0"/>
</linearGradient>
</defs>
</svg>
