<svg width="598" height="175" viewBox="0 0 598 175" fill="none" xmlns="http://www.w3.org/2000/svg">
<rect y="77" width="40" height="20" fill="#FFE7DE"/>
<path d="M35 141L40 109L40 77H60L60 109L55 141H35Z" fill="#FCD1D7"/>
<rect x="123" y="97" width="40" height="20" transform="rotate(-180 123 97)" fill="#C3829E"/>
<path d="M77.0001 33L83.0001 65L83.0001 97L63.0001 97L63.0001 65L57.0001 33L77.0001 33Z" fill="#E9B1CD"/>
<path d="M237.216 74.624C224.832 75.008 174.528 75.008 163.2 74.624C162.912 70.688 162.912 67.232 163.2 63.488C165.6 63.392 170.016 63.392 175.392 63.296V56.576C170.496 56.48 166.56 56.48 164.16 56.384C163.872 52.64 163.872 48.8 164.16 45.248C180.096 44.96 227.328 44.864 236.256 45.248C236.448 48.8 236.448 52.16 236.256 56.384C233.76 56.48 229.728 56.48 224.928 56.576V63.296C230.304 63.392 234.624 63.392 237.216 63.488C237.504 67.232 237.504 70.208 237.216 74.624ZM189.504 56.672V63.296C196.416 63.2 203.904 63.2 210.816 63.2V56.672C203.904 56.672 196.416 56.672 189.504 56.672ZM241.44 78.368C241.824 81.728 241.824 85.856 241.44 89.6C233.184 90.176 170.208 89.984 158.88 89.6C158.496 86.336 158.496 81.92 158.88 78.368C178.848 77.984 232.416 78.176 241.44 78.368ZM178.656 117.44V120.512H238.08C238.464 123.68 238.272 128.096 238.08 131.168C231.84 131.648 176.448 131.744 164.16 131.168C163.776 125.888 163.584 116.096 164.16 107.264H221.376V104.192H164.352C163.968 101.024 163.968 95.648 164.352 93.44C192.288 93.152 224.064 93.152 235.872 93.44C236.352 97.184 236.352 113.312 235.872 117.44H178.656ZM326.873 44.48C327.257 57.632 327.257 119.456 326.873 130.88C323.897 131.264 315.833 131.168 312.473 130.88C312.281 125.696 312.185 108.8 312.185 91.232C306.617 91.232 301.241 91.136 299.513 90.944C299.129 87.296 299.129 80.96 299.513 77.312C301.817 77.216 307.097 77.12 312.281 77.12C312.281 62.24 312.377 48.992 312.473 44.48C315.065 43.904 323.513 44 326.873 44.48ZM265.337 111.584C273.881 111.296 292.985 111.392 301.049 111.584C301.433 115.232 301.433 120.8 301.049 124.448C295.097 124.736 259.289 124.832 250.553 124.448C249.881 113.12 249.977 90.464 250.553 79.424C257.081 79.232 274.265 79.328 279.545 79.424C279.545 74.048 279.545 64.832 279.641 60.032C273.593 60.128 257.081 60.224 250.937 60.032C250.553 56.384 250.553 50.816 250.937 47.168C256.984 46.784 287.801 46.784 294.329 47.168C295 58.4 294.905 81.152 294.329 92.192C287.801 92.576 274.841 92.288 265.433 92.192C265.433 97.568 265.433 106.784 265.337 111.584ZM347.601 102.272C345.489 100.736 339.729 94.688 338.193 91.712C345.681 84.992 358.929 73.568 369.009 64.736C368.913 57.152 369.009 51.296 369.201 46.88C371.793 46.592 381.009 46.496 384.369 46.88C384.561 51.872 384.657 57.728 384.561 64.832C394.833 73.376 408.273 84.416 415.857 90.848C414.321 93.824 408.753 100.064 406.737 101.696C401.553 97.568 387.729 86.624 376.977 77.024C366.321 86.816 352.881 98.144 347.601 102.272ZM418.065 116.096C418.449 119.648 418.449 124.544 418.065 128.576C409.809 129.152 346.833 128.96 335.505 128.576C335.121 125.12 335.121 119.84 335.505 116.096C355.473 115.712 409.041 115.904 418.065 116.096ZM447.338 105.248C447.434 102.464 447.434 63.584 447.338 60.416C445.514 60.32 429.194 60.32 427.178 60.416C426.794 56.672 426.794 51.488 427.178 47.936C431.978 47.648 457.514 47.744 461.162 47.936C461.834 53.312 461.738 99.872 461.162 105.248C458.666 105.728 450.794 105.632 447.338 105.248ZM486.314 105.248C486.41 102.464 486.41 63.584 486.314 60.416C484.49 60.32 468.17 60.32 466.154 60.416C465.77 56.672 465.77 51.488 466.154 47.936C470.954 47.648 496.49 47.744 500.138 47.936C500.81 53.312 500.714 99.872 500.138 105.248C497.642 105.728 489.77 105.632 486.314 105.248ZM423.818 128.576C423.434 125.12 423.434 119.84 423.818 116.096C443.786 115.712 497.354 115.904 506.378 116.096C506.762 119.648 506.762 124.544 506.378 128.576C498.122 129.152 435.146 128.96 423.818 128.576ZM590.466 94.112C582.594 94.496 526.818 94.4 517.41 94.112C516.834 82.88 516.93 58.112 517.41 46.976C526.722 46.496 578.946 46.688 588.546 46.976C588.93 50.624 588.93 55.712 588.546 59.36C581.826 59.552 539.49 59.552 532.29 59.36C532.29 60.512 532.29 62.432 532.194 64.544C544.77 64.448 577.986 64.544 585.666 64.544C586.05 68.192 585.954 73.088 585.666 76.736C578.274 76.928 544.77 76.832 532.194 76.736C532.29 78.944 532.29 80.672 532.29 81.824C539.874 81.824 583.362 81.728 590.466 81.824C590.754 85.568 590.754 91.04 590.466 94.112ZM594.69 99.968C595.074 103.52 595.074 108.416 594.69 112.448C591.042 112.736 576.738 112.832 560.898 112.832C560.898 119.456 560.898 127.712 560.802 131.36C557.634 131.552 549.954 131.552 546.114 131.36C546.018 128.192 545.922 119.744 545.922 112.832C530.85 112.736 516.93 112.64 512.13 112.448C511.746 108.992 511.746 103.712 512.13 99.968C532.098 99.584 585.666 99.776 594.69 99.968Z" fill="#334155"/>
</svg>
