<svg width="981" height="175" viewBox="0 0 981 175" fill="none" xmlns="http://www.w3.org/2000/svg">
<rect y="77" width="40" height="20" fill="#8B5CF6"/>
<path d="M35 141L40 109L40 77H60L60 109L55 141H35Z" fill="#A78BFA"/>
<rect x="123" y="97" width="40" height="20" transform="rotate(-180 123 97)" fill="#3B82F6"/>
<path d="M77 33L83 65L83 97L63 97L63 65L57 33L77 33Z" fill="#60A5FA"/>
<path d="M237.216 74.624C224.832 75.008 174.528 75.008 163.2 74.624C162.912 70.688 162.912 67.232 163.2 63.488C165.6 63.392 170.016 63.392 175.392 63.296V56.576C170.496 56.48 166.56 56.48 164.16 56.384C163.872 52.64 163.872 48.8 164.16 45.248C180.096 44.96 227.328 44.864 236.256 45.248C236.448 48.8 236.448 52.16 236.256 56.384C233.76 56.48 229.728 56.48 224.928 56.576V63.296C230.304 63.392 234.624 63.392 237.216 63.488C237.504 67.232 237.504 70.208 237.216 74.624ZM189.504 56.672V63.296C196.416 63.2 203.904 63.2 210.816 63.2V56.672C203.904 56.672 196.416 56.672 189.504 56.672ZM241.44 78.368C241.824 81.728 241.824 85.856 241.44 89.6C233.184 90.176 170.208 89.984 158.88 89.6C158.496 86.336 158.496 81.92 158.88 78.368C178.848 77.984 232.416 78.176 241.44 78.368ZM178.656 117.44V120.512H238.08C238.464 123.68 238.272 128.096 238.08 131.168C231.84 131.648 176.448 131.744 164.16 131.168C163.776 125.888 163.584 116.096 164.16 107.264H221.376V104.192H164.352C163.968 101.024 163.968 95.648 164.352 93.44C192.288 93.152 224.064 93.152 235.872 93.44C236.352 97.184 236.352 113.312 235.872 117.44H178.656ZM326.873 44.48C327.257 57.632 327.257 119.456 326.873 130.88C323.897 131.264 315.833 131.168 312.473 130.88C312.281 125.696 312.185 108.8 312.185 91.232C306.617 91.232 301.241 91.136 299.513 90.944C299.129 87.296 299.129 80.96 299.513 77.312C301.817 77.216 307.097 77.12 312.281 77.12C312.281 62.24 312.377 48.992 312.473 44.48C315.065 43.904 323.513 44 326.873 44.48ZM265.337 111.584C273.881 111.296 292.985 111.392 301.049 111.584C301.433 115.232 301.433 120.8 301.049 124.448C295.097 124.736 259.289 124.832 250.553 124.448C249.881 113.12 249.977 90.464 250.553 79.424C257.081 79.232 274.265 79.328 279.545 79.424C279.545 74.048 279.545 64.832 279.641 60.032C273.593 60.128 257.081 60.224 250.937 60.032C250.553 56.384 250.553 50.816 250.937 47.168C256.984 46.784 287.801 46.784 294.329 47.168C295 58.4 294.905 81.152 294.329 92.192C287.801 92.576 274.841 92.288 265.433 92.192C265.433 97.568 265.433 106.784 265.337 111.584ZM347.601 102.272C345.489 100.736 339.729 94.688 338.193 91.712C345.681 84.992 358.929 73.568 369.009 64.736C368.913 57.152 369.009 51.296 369.201 46.88C371.793 46.592 381.009 46.496 384.369 46.88C384.561 51.872 384.657 57.728 384.561 64.832C394.833 73.376 408.273 84.416 415.857 90.848C414.321 93.824 408.753 100.064 406.737 101.696C401.553 97.568 387.729 86.624 376.977 77.024C366.321 86.816 352.881 98.144 347.601 102.272ZM418.065 116.096C418.449 119.648 418.449 124.544 418.065 128.576C409.809 129.152 346.833 128.96 335.505 128.576C335.121 125.12 335.121 119.84 335.505 116.096C355.473 115.712 409.041 115.904 418.065 116.096ZM447.338 105.248C447.434 102.464 447.434 63.584 447.338 60.416C445.514 60.32 429.194 60.32 427.178 60.416C426.794 56.672 426.794 51.488 427.178 47.936C431.978 47.648 457.514 47.744 461.162 47.936C461.834 53.312 461.738 99.872 461.162 105.248C458.666 105.728 450.794 105.632 447.338 105.248ZM486.314 105.248C486.41 102.464 486.41 63.584 486.314 60.416C484.49 60.32 468.17 60.32 466.154 60.416C465.77 56.672 465.77 51.488 466.154 47.936C470.954 47.648 496.49 47.744 500.138 47.936C500.81 53.312 500.714 99.872 500.138 105.248C497.642 105.728 489.77 105.632 486.314 105.248ZM423.818 128.576C423.434 125.12 423.434 119.84 423.818 116.096C443.786 115.712 497.354 115.904 506.378 116.096C506.762 119.648 506.762 124.544 506.378 128.576C498.122 129.152 435.146 128.96 423.818 128.576ZM590.466 94.112C582.594 94.496 526.818 94.4 517.41 94.112C516.834 82.88 516.93 58.112 517.41 46.976C526.722 46.496 578.946 46.688 588.546 46.976C588.93 50.624 588.93 55.712 588.546 59.36C581.826 59.552 539.49 59.552 532.29 59.36C532.29 60.512 532.29 62.432 532.194 64.544C544.77 64.448 577.986 64.544 585.666 64.544C586.05 68.192 585.954 73.088 585.666 76.736C578.274 76.928 544.77 76.832 532.194 76.736C532.29 78.944 532.29 80.672 532.29 81.824C539.874 81.824 583.362 81.728 590.466 81.824C590.754 85.568 590.754 91.04 590.466 94.112ZM594.69 99.968C595.074 103.52 595.074 108.416 594.69 112.448C591.042 112.736 576.738 112.832 560.898 112.832C560.898 119.456 560.898 127.712 560.802 131.36C557.634 131.552 549.954 131.552 546.114 131.36C546.018 128.192 545.922 119.744 545.922 112.832C530.85 112.736 516.93 112.64 512.13 112.448C511.746 108.992 511.746 103.712 512.13 99.968C532.098 99.584 585.666 99.776 594.69 99.968Z" fill="#334155"/>
<rect x="618" y="42" width="363" height="91" rx="27" fill="#A2CBFF"/>
<path d="M689.562 87.375C689.562 102 680.688 110.625 668.812 110.625C656.938 110.625 648.062 101.938 648.062 87.375C648.062 72.75 656.938 64.125 668.812 64.125C680.688 64.125 689.562 72.75 689.562 87.375ZM681.375 87.375C681.375 77.0625 676.188 71.4375 668.812 71.4375C661.438 71.4375 656.25 77.0625 656.25 87.375C656.25 97.6875 661.438 103.312 668.812 103.312C676.188 103.312 681.375 97.6875 681.375 87.375ZM696.438 122.75V76.0625H704.25V81.625H704.75C706 79.1875 708.5 75.625 714.5 75.625C722.312 75.625 728.5 81.75 728.5 93.0625C728.5 104.25 722.5 110.625 714.5 110.625C708.625 110.625 706 107.125 704.75 104.625H704.438V122.75H696.438ZM704.25 93C704.25 99.625 707.125 104.062 712.312 104.062C717.562 104.062 720.375 99.4375 720.375 93C720.375 86.6875 717.625 82.125 712.312 82.125C707.125 82.125 704.25 86.4375 704.25 93ZM749.812 110.688C739.562 110.688 733.312 103.875 733.312 93.25C733.312 82.75 739.688 75.625 749.375 75.625C757.688 75.625 764.875 80.8125 764.875 92.75V95.25H741.188C741.281 101.031 744.688 104.438 749.875 104.438C753.375 104.438 755.75 102.938 756.75 100.938H764.562C763.125 106.812 757.688 110.688 749.812 110.688ZM741.25 89.8125H757.25C757.188 85.1875 754.125 81.8125 749.5 81.8125C744.688 81.8125 741.5 85.4688 741.25 89.8125ZM779.062 90.125V110H771.062V76.0625H778.688V81.8125H779.125C780.688 78 784.125 75.625 789.188 75.625C796.25 75.625 800.875 80.25 800.812 88.375V110H792.875V89.625C792.875 85.0625 790.438 82.375 786.25 82.375C782 82.375 779.062 85.1875 779.062 90.125ZM824 110V64.75H841.312C851.125 64.75 856 69.75 856 76.5C856 82 852.5 85.0625 848.062 86.125V86.5625C852.875 86.8125 857.75 90.8125 857.75 97.6875C857.75 104.75 852.688 110 842.312 110H824ZM841.062 103.188C847 103.188 849.5 100.625 849.5 97.0625C849.5 93 846.312 89.875 841.25 89.875H832.125V103.188H841.062ZM840.312 84C844.625 84 847.875 81.5 847.875 77.5C847.875 74 845.375 71.5 840.5 71.5H832.125V84H840.312ZM879.062 110.688C868.812 110.688 862.562 103.875 862.562 93.25C862.562 82.75 868.938 75.625 878.625 75.625C886.938 75.625 894.125 80.8125 894.125 92.75V95.25H870.438C870.531 101.031 873.938 104.438 879.125 104.438C882.625 104.438 885 102.938 886 100.938H893.812C892.375 106.812 886.938 110.688 879.062 110.688ZM870.5 89.8125H886.5C886.438 85.1875 883.375 81.8125 878.75 81.8125C873.938 81.8125 870.75 85.4688 870.5 89.8125ZM917.25 76.0625V82.1875H910.562V99.8125C910.562 103.062 912.188 103.75 914.188 103.75C915.125 103.75 916.688 103.688 917.688 103.625V110.125C916.75 110.312 915.188 110.438 913.188 110.438C907.188 110.438 902.562 107.5 902.625 101.125V82.1875H897.75V76.0625H902.625V67.9375H910.562V76.0625H917.25ZM921.812 100.438C921.812 92.8125 928.125 90.5625 934.438 90.1875C936.781 90.0312 941.656 89.75 943.125 89.6875V87C943.125 83.625 940.938 81.6875 937 81.6875C933.438 81.6875 931.25 83.3125 930.625 85.75H922.938C923.5 80 928.688 75.625 937.188 75.625C943.625 75.625 951.062 78.25 951.062 87.3125V110H943.438V105.312H943.188C941.688 108.188 938.5 110.688 933.188 110.688C926.688 110.688 921.812 107.125 921.812 100.438ZM929.5 100.375C929.5 103.312 931.875 104.812 935.25 104.812C940.062 104.812 943.188 101.625 943.188 97.8125V95C941.719 95.0938 937.281 95.4062 935.688 95.5C931.875 95.8125 929.5 97.375 929.5 100.375Z" fill="#264E8E"/>
</svg>
