<svg fill="none" viewBox="0 0 1328 63"><path fill="#fff" d="M53.912 2.704c.128 8.064.128 49.152 0 56.832-1.152.192-3.776.192-5.248 0-.128-3.904-.128-16.448-.128-28.864-2.56.064-5.632.064-8.576 0-.064 12.16-.064 24.448-.128 28.224-1.152.192-3.776.192-5.248 0-.192-7.616-.192-48.32 0-55.872 1.28-.32 3.968-.256 5.248 0 .064 3.392.128 12.608.128 22.72 2.88-.064 5.888 0 8.576 0 0-10.304.064-19.776.128-23.04 1.28-.32 3.968-.32 5.248 0zM18.776 4.24c.128 4.48.192 16 .064 23.232 4.096 8 10.048 19.648 12.8 25.472-.96.896-3.2 2.048-4.544 2.432-2.432-4.544-7.488-14.592-11.136-22.4-3.52 8.128-8.32 18.496-10.688 23.168-1.28-.192-3.712-1.152-4.672-2.112 2.688-5.952 8.384-18.304 12.48-26.88-.064-7.36-.064-18.688.064-22.912 1.28-.256 4.224-.32 5.632 0zm91.449 8.32c-4.928.128-32.96.128-37.313 0-.192-1.344-.192-3.136 0-4.416 1.856-.064 8.832-.128 16.32-.128-.064-2.24 0-5.12.129-6.72 1.215-.256 4.031-.256 5.567 0 .065 1.536.129 4.416.065 6.72 6.72 0 12.928.064 15.232.128.192 1.216.192 3.2 0 4.416zm19.328 4.352c.128 1.344.128 3.392 0 4.864-1.152.128-4.032.128-6.592.128 0 6.4 0 12.608-.064 15.808-1.216.192-3.968.192-5.44 0-.064-6.72-.064-28.672 0-34.944 1.28-.256 4.096-.32 5.44 0 .064 2.88.064 8.32.064 14.08 2.496 0 5.312 0 6.592.064zm-37.44 19.456c-11.84 0-17.025-2.816-17.025-10.368 0-7.68 5.377-10.368 17.025-10.368 11.84 0 17.024 2.816 17.024 10.368 0 7.68-5.376 10.368-17.025 10.368zm0-16.256c-8.704 0-11.84 1.856-11.84 5.888 0 4.096 3.2 5.888 11.84 5.888 8.704 0 11.84-1.856 11.84-5.888s-3.2-5.888-11.84-5.888zm-15.04 20.864c5.184-.192 39.36-.256 45.76.064.256 6.016.192 14.848 0 18.24-1.152.128-4.032.128-5.312 0-.128-3.392 0-9.664 0-13.568-9.984 0-35.392.192-40.448.064-.128-1.344-.128-3.456 0-4.8zM179.02 59.472c-.256-7.616-.192-48.896 0-56.704 1.216-.32 4.032-.32 5.376 0 .256 8.256.192 49.088 0 56.704-1.216.256-3.904.192-5.376 0zm-20.544-4.288c0-6.016.064-40.64 0-45.312-4.16.128-19.968.128-25.088 0-.256-1.408-.256-3.584 0-4.928 5.247-.256 23.616-.32 30.4 0 .448 7.552.576 43.264.191 50.24-1.151.32-4.159.256-5.503 0zm34.299 7.552c-.192-2.816-.128-9.6 0-12.416 1.856-.256 4.992-.256 6.848 0-.256 3.136-1.153 9.408-1.728 12.416-1.28.192-3.712.192-5.12 0zm78.45-60.032c.128 8.064.128 49.152 0 56.832-1.152.192-3.776.192-5.248 0-.128-3.904-.128-16.448-.128-28.864-2.56.064-5.632.064-8.576 0-.064 12.16-.064 24.448-.128 28.224-1.152.192-3.776.192-5.248 0-.192-7.616-.192-48.32 0-55.872 1.28-.32 3.968-.256 5.248 0 .064 3.392.128 12.608.128 22.72 2.88-.064 5.888 0 8.576 0 0-10.304.064-19.776.128-23.04 1.28-.32 3.968-.32 5.248 0zM236.089 4.24c.128 4.48.192 16 .064 23.232 4.096 8 10.048 19.648 12.8 25.472-.96.896-3.2 2.048-4.544 2.432-2.432-4.544-7.488-14.592-11.136-22.4-3.52 8.128-8.32 18.496-10.688 23.168-1.28-.192-3.712-1.152-4.672-2.112 2.688-5.952 8.384-18.304 12.48-26.88-.064-7.36-.064-18.688.064-22.912 1.28-.256 4.224-.32 5.632 0zm91.448 8.32c-4.928.128-32.96.128-37.312 0-.192-1.344-.192-3.136 0-4.416 1.856-.064 8.832-.128 16.32-.128-.064-2.24 0-5.12.128-6.72 1.216-.256 4.032-.256 5.568 0 .064 1.536.128 4.416.064 6.72 6.72 0 12.928.064 15.232.128.192 1.216.192 3.2 0 4.416zm19.328 4.352c.128 1.344.128 3.392 0 4.864-1.152.128-4.032.128-6.592.128 0 6.4 0 12.608-.064 15.808-1.216.192-3.968.192-5.44 0-.064-6.72-.064-28.672 0-34.944 1.28-.256 4.096-.32 5.44 0 .064 2.88.064 8.32.064 14.08 2.496 0 5.312 0 6.592.064zm-37.44 19.456c-11.84 0-17.024-2.816-17.024-10.368 0-7.68 5.376-10.368 17.024-10.368 11.84 0 17.024 2.816 17.024 10.368 0 7.68-5.376 10.368-17.024 10.368zm0-16.256c-8.704 0-11.84 1.856-11.84 5.888 0 4.096 3.2 5.888 11.84 5.888 8.704 0 11.84-1.856 11.84-5.888s-3.2-5.888-11.84-5.888zm-15.04 20.864c5.184-.192 39.36-.256 45.76.064.256 6.016.192 14.848 0 18.24-1.152.128-4.032.128-5.312 0-.128-3.392 0-9.664 0-13.568-9.984 0-35.392.192-40.448.064-.128-1.344-.128-3.456 0-4.8zm82.427-21.504c3.136-.064 13.44-.064 19.392 0v-6.464c-5.824.128-16.256.064-19.392-.064-.128-1.408-.128-3.264 0-4.544 3.136-.064 13.504-.064 19.456 0V2.768c1.28-.256 4.096-.32 5.44 0 .128 7.744.128 33.024 0 40.832-1.216.192-3.968.192-5.44 0 0-3.584-.064-11.52-.064-19.52-5.824.128-16.256.064-19.392-.064-.128-1.408-.128-3.264 0-4.544zm8.64 15.232c-5.184.192-27.264.256-33.472 0-.32-6.72-.32-25.6 0-30.848 1.088-.256 4.032-.192 5.312 0 .128 5.12.064 22.592 0 26.24 3.52-.128 23.232-.128 28.16 0 .192 1.344.192 3.2 0 4.608zm17.344 19.84c.128 1.344.128 3.392 0 4.736-6.528.32-36.16.32-46.016 0-.32-4.608-.192-14.784 0-18.624 1.216-.192 3.968-.192 5.312 0 .128 3.584.128 10.048 0 13.888 10.56-.064 34.304-.128 40.704 0zm10.427-11.648c-.256-5.44-.448-32.32-.512-38.272 2.496-.256 4.032-.256 6.4 0 0 5.952-.32 32.896-.576 38.272-1.536.192-3.584.192-5.312 0zm-.448 14.4a56.626 56.626 0 010-6.592c2.432-.128 4.032-.128 6.336 0a55.533 55.533 0 010 6.528c-2.368.192-4.032.192-6.336.064zM492.759 21.2c-10.304.192-38.336.192-48.448 0a16.51 16.51 0 010-4.352c2.496-.064 6.08-.064 10.24-.128a191.555 191.555 0 010-8.576c-3.904-.064-7.232-.064-9.6-.128a16.51 16.51 0 010-4.352c10.88-.192 37.888-.192 47.168 0a24.682 24.682 0 010 4.352c-2.368.064-5.76.064-9.664.128.064 2.624.064 5.952 0 8.576 4.16.064 7.808.064 10.304.128.192 1.408.192 2.816 0 4.352zM459.863 8.144c.064 2.624.064 5.952 0 8.576h17.28a191.555 191.555 0 010-8.576h-17.28zm35.712 18.24c.256 1.28.256 3.008 0 4.416-10.24.192-42.24.256-54.144 0-.257-1.28-.257-3.072 0-4.416 13.824-.256 43.776-.192 54.144 0zm-44.928 23.68v5.056h42.304c.192 1.344.128 3.072 0 4.352-4.032.32-39.68.384-47.616 0-.192-3.456-.32-9.216 0-13.824h40.832v-4.992h-40.704c-.256-1.28-.256-3.52 0-4.416 13.504-.192 37.184-.192 46.016 0 .256 2.688.256 11.072 0 13.824h-40.832zm68.539-7.104c0-3.968.064-29.632 0-32.768-1.792-.064-14.4-.064-16.64 0-.256-1.344-.256-3.392 0-4.736 3.072-.192 18.56-.128 21.888 0 .32 5.632.256 32.96 0 37.504-1.024.256-3.968.192-5.248 0zm25.6 0c0-3.968.064-29.632 0-32.768-1.856-.064-14.4-.064-16.704 0-.192-1.344-.192-3.392 0-4.736 3.136-.192 18.496-.128 21.952 0 .32 5.632.256 32.96 0 37.504-1.024.256-3.968.192-5.248 0zm-44.48 14.592c-.257-1.536-.257-3.328 0-4.736 10.112-.256 47.488-.128 54.144 0 .256 1.344.256 3.2 0 4.736-6.528.256-45.952.192-54.144 0zM611.725 2.704c.128 8.064.128 49.152 0 56.832-1.152.192-3.776.192-5.248 0-.192-7.744-.128-49.216 0-56.832 1.28-.32 3.968-.32 5.248 0zm-17.281.32c1.217-.32 3.969-.256 5.185 0 .192 8 .128 48.384 0 55.872-1.088.192-3.712.192-5.185 0-.127-3.84-.191-16.064-.191-28.224a156.17 156.17 0 01-7.744 0c-.128 20.992-4.736 25.664-13.632 25.664-9.024 0-13.632-4.8-13.632-26.432 0-21.632 4.608-26.432 13.632-26.432 8.384 0 12.992 4.16 13.568 22.272 2.496-.064 5.184-.064 7.808 0 .064-10.176.128-19.52.191-22.72zM572.877 51.28c5.504 0 8.128-3.52 8.128-21.376s-2.624-21.376-8.128-21.376c-5.44 0-8.128 3.52-8.128 21.376s2.688 21.376 8.128 21.376zm97.019-48.512c.256 8.256.192 49.088 0 56.704-1.216.256-3.904.192-5.376 0-.128-4.096-.192-18.112-.192-31.296-4.864.064-11.584 0-15.168-.128-.128-1.472-.128-3.648 0-4.992 3.904-.128 10.432-.128 15.232-.064 0-9.152.064-17.216.128-20.224 1.216-.32 4.032-.32 5.376 0zM639.112 4.24c.128 4.416.192 15.616.064 22.848 5.248 7.808 13.12 19.392 16.832 25.152-.832 1.024-3.072 2.56-4.352 2.944-3.328-4.608-10.432-15.296-15.36-22.976-4.288 8.128-10.368 19.072-13.376 23.872-1.216-.192-3.712-1.408-4.672-2.432 3.328-6.016 10.368-18.56 15.232-27.008-.128-7.36-.064-18.304.064-22.4 1.216-.256 4.16-.32 5.568 0zm88.763 29.568c-5.12.192-40.512.192-47.04 0-.384-6.976-.32-21.504 0-28.352 6.464-.32 39.936-.192 45.76 0 .256 1.408.256 3.52 0 4.928-5.184.128-35.008.128-40.256 0-.064 4.16-.064 14.656 0 18.56 5.312 0 36.544-.064 41.536 0 .192 1.408.192 3.712 0 4.864zm3.2 19.008c.256 1.344.256 3.2 0 4.736-6.528.256-45.952.192-54.144 0-.257-1.536-.257-3.328 0-4.736 4.48-.128 14.208-.128 24.256-.128-.064-4.544-.064-11.776.064-14.848 1.408-.256 4.032-.192 5.504 0 .127 3.2.064 10.432 0 14.848 10.944 0 21.12.064 24.32.128zm70.712-50.112c.128 8.064.128 49.152 0 56.832-1.152.192-3.776.192-5.248 0-.128-3.904-.128-16.448-.128-28.864-2.56.064-5.632.064-8.576 0-.064 12.16-.064 24.448-.128 28.224-1.152.192-3.776.192-5.248 0-.192-7.616-.192-48.32 0-55.872 1.28-.32 3.968-.256 5.248 0 .064 3.392.128 12.608.128 22.72 2.88-.064 5.888 0 8.576 0 0-10.304.064-19.776.128-23.04 1.28-.32 3.968-.32 5.248 0zM766.651 4.24c.128 4.48.192 16 .064 23.232 4.096 8 10.048 19.648 12.8 25.472-.96.896-3.2 2.048-4.544 2.432-2.432-4.544-7.488-14.592-11.136-22.4-3.52 8.128-8.32 18.496-10.688 23.168-1.28-.192-3.712-1.152-4.672-2.112 2.688-5.952 8.384-18.304 12.48-26.88-.064-7.36-.064-18.688.064-22.912 1.28-.256 4.224-.32 5.632 0zm95.611 27.456c.256 1.344.256 3.072 0 4.48-10.24.192-42.24.192-54.144 0-.256-1.344-.256-3.136 0-4.48 6.016-.064 15.04-.128 24.256-.128a71.747 71.747 0 010-5.248c-8.32 0-16.192-.064-19.712-.192-.192-3.392-.32-9.664 0-13.76h39.104V7.44H812.79c-.256-1.152-.256-3.392 0-4.416 11.392-.192 36.672-.256 44.288-.064.256 2.56.256 11.072 0 13.824h-39.104v4.928h39.744c.128 1.408.128 3.136 0 4.416-2.816.128-10.944.192-19.712.192a71.74 71.74 0 010 5.248c9.984 0 19.328.064 24.256.128zm-9.024 12.8v-4.8c1.728-.192 3.776-.192 5.12 0 .192 5.824.256 13.056 0 19.776-7.104.384-39.04.384-46.336 0-.32-6.528-.256-14.72 0-19.776 1.088-.256 4.032-.192 5.12 0v4.8c9.536-.064 26.24-.064 36.096 0zm-36.096 4.48v6.016c6.848.128 29.696.128 36.096 0v-6.016c-10.112 0-26.56.064-36.096 0zM919.537 2.704c.128 8.064.128 49.152 0 56.832-1.152.192-3.776.192-5.248 0-.192-7.744-.128-49.216 0-56.832 1.28-.32 3.968-.32 5.248 0zm-17.92.32c1.216-.32 3.968-.256 5.184 0 .192 8 .128 48.384 0 55.872-1.088.192-3.712.192-5.184 0-.128-3.84-.192-16.064-.192-28.16-3.136 0-6.272-.064-9.152-.128-.128-1.216-.128-3.776 0-4.864 2.752-.064 5.952-.064 9.152-.064.064-10.112.128-19.456.192-22.656zm-34.112 1.92c4.224-.256 16.512-.32 21.76 0 .448 7.552.576 43.264.192 50.24-1.088.32-4.096.256-5.44 0 0-6.016.064-40.64 0-45.312-3.008.128-12.928.128-16.512 0-.256-1.408-.256-3.584 0-4.928zm75.961 18.752c-.704-1.216-1.216-2.944-1.216-4.608 5.44-1.28 14.208-3.392 21.248-4.992a34.68 34.68 0 010-3.648c-8.512 0-16.64-.064-20.608-.128-.192-1.472-.192-3.072 0-4.416 4.16-.064 12.096-.128 20.608-.192-.064-1.728 0-3.52.064-5.184 1.28-.256 4.16-.256 5.632 0 .063 1.664.128 3.456.063 5.184 8.065 0 15.873.064 20.673.192a17 17 0 010 4.416c-4.224.064-12.224.128-20.673.128a32.955 32.955 0 010 3.584c7.041 1.472 15.809 3.456 21.313 4.672-.064 1.6-.448 3.328-1.088 4.672-5.376-1.152-15.296-3.328-22.848-5.184-7.744 1.984-17.856 4.352-23.168 5.504zm49.984 3.52c.256 1.28.256 2.944 0 4.352-4.8.064-14.272.128-24.256.128.063 1.664 0 3.328 0 4.992 8.32 0 15.936.064 20.16.128.256 2.624.256 10.816 0 13.568h-40.832v4.736h42.304c.192 1.344.128 3.072 0 4.352-4.032.32-39.68.384-47.616 0-.192-3.328-.32-8.96 0-13.504h40.832v-4.672h-40.704c-.256-1.344-.256-3.52 0-4.48 5.568-.064 12.928-.128 20.224-.128a64.914 64.914 0 010-4.992c-9.6 0-18.944-.064-24.256-.128a12.38 12.38 0 010-4.352c13.824-.192 43.776-.192 54.144 0zm60.6-15.36c.13 1.344.13 3.392 0 4.864-1.15.128-4.03.128-6.59.064 0 4.992 0 9.92-.06 12.736-1.22.192-3.97.192-5.44 0-.07-5.632-.07-21.568 0-26.752 1.28-.256 4.09-.32 5.44 0 .06 2.112.06 5.376.06 9.024 2.5-.064 5.31 0 6.59.064zm-23.42 14.592c-5.12.256-25.28.32-30.977 0-.128-4.288-.128-18.432 0-22.784 1.467-.256 4.097-.192 5.377 0v6.656c5.37-.064 14.91-.064 20.29 0V3.664c1.47-.192 3.84-.192 5.31 0 .19 4.672.19 19.264 0 22.784zm-25.6-11.584v6.976c4.41.128 16.38.128 20.29 0v-6.976c-5.38.064-14.98.064-20.29 0zm2.17 33.28v6.72h41.22c.19 1.216.13 3.264 0 4.416-6.14.256-38.66.32-46.53 0-.19-3.072-.32-10.496 0-15.552h40.13v-6.656h-40c-.19-1.216-.19-3.328 0-4.48 11.39-.192 36.93-.192 45.31 0 .26 3.264.26 11.968 0 15.552h-40.13zm80.32-39.04c4.8 0 9.34.064 11.77.128.2 1.28.2 3.2 0 4.48-4.48.128-25.34.192-29.24 0-.2-1.344-.2-3.2 0-4.48 1.79-.064 6.52-.128 11.77-.128-.06-2.88 0-6.4.07-8.128 1.28-.256 4.16-.256 5.56 0 .07 1.728.13 5.248.07 8.128zm35.52-6.4c.13 8.064.13 49.152 0 56.832-1.15.192-3.78.192-5.25 0-.13-3.904-.13-16.448-.13-28.864-2.49.064-5.5.064-8.45 0 0 12.224-.06 24.448-.12 28.224-1.09.192-3.72.192-5.19 0-.25-7.616-.19-48.32 0-55.872 1.22-.32 3.97-.256 5.19 0 .06 3.392.12 12.608.12 22.72 2.88-.064 5.83 0 8.45 0 0-10.304.07-19.776.13-23.04 1.28-.32 3.97-.32 5.25 0zM1084.7 18.32c9.6 0 13.31 5.632 13.31 19.648s-3.71 19.584-13.31 19.584c-9.6 0-13.31-5.568-13.31-19.584s3.71-19.648 13.31-19.648zm0 34.496c5.76 0 8-3.712 8-14.848 0-11.136-2.24-14.912-8-14.912s-8 3.776-8 14.912c0 11.136 2.24 14.848 8 14.848zm108.41-18.368c-4.8.32-40.96.448-46.4 0-.19-7.616-.26-23.552 0-30.016 1.34-.256 4.16-.192 5.38 0 .06 2.048.06 5.568.06 9.408 7.3-.064 27.71-.064 35.52 0V4.432c1.41-.192 4.03-.192 5.44 0 .19 6.784.19 22.528 0 30.016zm-5.44-15.616c-7.74.064-28.22.064-35.52 0 0 4.544-.06 8.768-.06 10.816 3.84.128 32.19.128 35.58 0V18.832zm9.28 33.984c.26 1.344.26 3.2 0 4.736-6.53.256-45.95.192-54.14 0-.26-1.536-.26-3.328 0-4.736 4.48-.128 14.2-.128 24.25-.128-.06-4.608-.06-11.52.07-14.208 1.4-.256 4.03-.192 5.5 0 .13 2.752.06 9.664 0 14.208 10.94 0 21.12.064 24.32.128zm57.27-50.112c.13 8.064.13 49.152 0 56.832-1.15.192-3.77.192-5.24 0-.2-7.744-.13-49.216 0-56.832 1.28-.32 3.96-.32 5.24 0zm-17.85.32c1.28-.32 4.03-.256 5.25 0 .19 8 .12 48.384 0 55.872-1.16.192-3.78.192-5.25 0-.13-4.16-.13-18.048-.13-31.104-3.39.128-6.85.064-9.86-.064-.12-1.216-.12-3.776 0-4.864 2.95-.064 6.4-.064 9.86 0 0-9.024.06-16.896.13-19.84zm-17.28 1.216c.13 4.48.19 16 .06 23.232 4.1 8 10.05 19.648 12.8 25.472-.96.896-3.2 2.048-4.54 2.432-2.43-4.544-7.49-14.592-11.14-22.4-3.52 8.128-8.32 18.496-10.69 23.168-1.28-.192-3.71-1.152-4.67-2.112 2.69-5.952 8.39-18.304 12.48-26.88-.06-7.36-.06-18.688.07-22.912 1.28-.256 4.22-.32 5.63 0zm68.54 30.4c-18.88 0-24.58-5.12-24.58-15.104 0-10.112 5.83-15.104 24.58-15.104 18.88 0 24.57 5.12 24.57 15.104 0 10.112-5.82 15.104-24.57 15.104zm0-25.344c-14.59 0-18.95 3.136-18.95 10.24 0 6.912 4.16 10.24 18.95 10.24 14.59 0 18.94-3.136 18.94-10.24 0-6.912-4.16-10.24-18.94-10.24zm27.07 43.52c.26 1.344.26 3.2 0 4.736-6.53.256-45.95.192-54.14 0-.26-1.536-.26-3.328 0-4.736 2.56-.064 6.84-.064 11.96-.128-.06-4.672-.06-12.288.07-15.104 1.34-.256 3.97-.192 5.44 0 .13 2.944.06 10.496 0 15.104h19.13c-.06-4.608-.06-12.16.07-15.104 1.47-.256 4.09-.192 5.44 0 .06 2.816.06 10.432 0 15.168 5.63 0 10.11 0 12.03.064zm6.07 4.352c-.12-2.368-.19-4.544 0-6.848 2.37-.192 4.68-.192 6.98 0 .13 2.368.13 4.48 0 6.784-2.37.256-4.67.256-6.98.064z"/></svg>