<svg xmlns="http://www.w3.org/2000/svg" width="1328" height="63" fill="none" viewBox="0 0 1328 63"><path fill="#fff" d="M53.912 2.704C54.04 10.768 54.04 51.856 53.912 59.536C52.76 59.728 50.136 59.728 48.664 59.536C48.536 55.632 48.536 43.088 48.536 30.672C45.976 30.736 42.904 30.736 39.96 30.672C39.896 42.832 39.896 55.12 39.832 58.896C38.68 59.088 36.056 59.088 34.584 58.896C34.392 51.28 34.392 10.576 34.584 3.024C35.864 2.704 38.552 2.768 39.832 3.024C39.896 6.416 39.96 15.632 39.96 25.744C42.84 25.68 45.848 25.744 48.536 25.744C48.536 15.44 48.6 5.968 48.664 2.704C49.944 2.384 52.632 2.384 53.912 2.704ZM18.776 4.24C18.904 8.72 18.968 20.24 18.84 27.472C22.936 35.472 28.888 47.12 31.64 52.944C30.68 53.84 28.44 54.992 27.096 55.376C24.664 50.832 19.608 40.784 15.96 32.976C12.44 41.104 7.64 51.472 5.272 56.144C3.992 55.952 1.56 54.992 0.6 54.032C3.288 48.08 8.984 35.728 13.08 27.152C13.016 19.792 13.016 8.464 13.144 4.24C14.424 3.984 17.368 3.92 18.776 4.24ZM110.225 12.56C105.297 12.688 77.2645 12.688 72.9125 12.56C72.7205 11.216 72.7205 9.424 72.9125 8.144C74.7685 8.08 81.7445 8.016 89.2325 8.016C89.1685 5.776 89.2325 2.896 89.3605 1.296C90.5765 1.04 93.3925 1.04 94.9285 1.296C94.9925 2.832 95.0565 5.712 94.9925 8.016C101.713 8.016 107.921 8.08 110.225 8.144C110.417 9.36 110.417 11.344 110.225 12.56ZM129.553 16.912C129.681 18.256 129.681 20.304 129.553 21.776C128.401 21.904 125.521 21.904 122.961 21.904C122.961 28.304 122.961 34.512 122.897 37.712C121.681 37.904 118.929 37.904 117.457 37.712C117.393 30.992 117.393 9.04 117.457 2.768C118.737 2.512 121.553 2.448 122.897 2.768C122.961 5.648 122.961 11.088 122.961 16.848C125.457 16.848 128.273 16.848 129.553 16.912ZM92.1125 36.368C80.2725 36.368 75.0885 33.552 75.0885 26C75.0885 18.32 80.4645 15.632 92.1125 15.632C103.953 15.632 109.137 18.448 109.137 26C109.137 33.68 103.761 36.368 92.1125 36.368ZM92.1125 20.112C83.4085 20.112 80.2725 21.968 80.2725 26C80.2725 30.096 83.4725 31.888 92.1125 31.888C100.817 31.888 103.953 30.032 103.953 26C103.953 21.968 100.753 20.112 92.1125 20.112ZM77.0725 40.976C82.2565 40.784 116.433 40.72 122.833 41.04C123.089 47.056 123.025 55.888 122.833 59.28C121.681 59.408 118.801 59.408 117.521 59.28C117.393 55.888 117.521 49.616 117.521 45.712C107.537 45.712 82.1285 45.904 77.0725 45.776C76.9445 44.432 76.9445 42.32 77.0725 40.976ZM179.02 59.472C178.764 51.856 178.828 10.576 179.02 2.768C180.236 2.448 183.052 2.448 184.396 2.768C184.652 11.024 184.588 51.856 184.396 59.472C183.18 59.728 180.492 59.664 179.02 59.472ZM158.476 55.184C158.476 49.168 158.54 14.544 158.476 9.872C154.316 10 138.508 10 133.388 9.872C133.132 8.464 133.132 6.288 133.388 4.944C138.635 4.688 157.004 4.624 163.788 4.944C164.236 12.496 164.364 48.208 163.979 55.184C162.828 55.504 159.82 55.44 158.476 55.184ZM192.775 62.736C192.583 59.92 192.647 53.136 192.775 50.32C194.631 50.064 197.767 50.064 199.623 50.32C199.367 53.456 198.47 59.728 197.895 62.736C196.615 62.928 194.183 62.928 192.775 62.736ZM271.225 2.704C271.353 10.768 271.353 51.856 271.225 59.536C270.073 59.728 267.449 59.728 265.977 59.536C265.849 55.632 265.849 43.088 265.849 30.672C263.289 30.736 260.217 30.736 257.273 30.672C257.209 42.832 257.209 55.12 257.145 58.896C255.993 59.088 253.369 59.088 251.897 58.896C251.705 51.28 251.705 10.576 251.897 3.024C253.177 2.704 255.865 2.768 257.145 3.024C257.209 6.416 257.273 15.632 257.273 25.744C260.153 25.68 263.161 25.744 265.849 25.744C265.849 15.44 265.913 5.968 265.977 2.704C267.257 2.384 269.945 2.384 271.225 2.704ZM236.089 4.24C236.217 8.72 236.281 20.24 236.153 27.472C240.249 35.472 246.201 47.12 248.953 52.944C247.993 53.84 245.753 54.992 244.409 55.376C241.977 50.832 236.921 40.784 233.273 32.976C229.753 41.104 224.953 51.472 222.585 56.144C221.305 55.952 218.873 54.992 217.913 54.032C220.601 48.08 226.297 35.728 230.393 27.152C230.329 19.792 230.329 8.464 230.457 4.24C231.737 3.984 234.681 3.92 236.089 4.24ZM327.537 12.56C322.609 12.688 294.577 12.688 290.225 12.56C290.033 11.216 290.033 9.424 290.225 8.144C292.081 8.08 299.057 8.016 306.545 8.016C306.481 5.776 306.545 2.896 306.673 1.296C307.889 1.04 310.705 1.04 312.241 1.296C312.305 2.832 312.369 5.712 312.305 8.016C319.025 8.016 325.233 8.08 327.537 8.144C327.729 9.36 327.729 11.344 327.537 12.56ZM346.865 16.912C346.993 18.256 346.993 20.304 346.865 21.776C345.713 21.904 342.833 21.904 340.273 21.904C340.273 28.304 340.273 34.512 340.209 37.712C338.993 37.904 336.241 37.904 334.769 37.712C334.705 30.992 334.705 9.04 334.769 2.768C336.049 2.512 338.865 2.448 340.209 2.768C340.273 5.648 340.273 11.088 340.273 16.848C342.769 16.848 345.585 16.848 346.865 16.912ZM309.425 36.368C297.585 36.368 292.401 33.552 292.401 26C292.401 18.32 297.777 15.632 309.425 15.632C321.265 15.632 326.449 18.448 326.449 26C326.449 33.68 321.073 36.368 309.425 36.368ZM309.425 20.112C300.721 20.112 297.585 21.968 297.585 26C297.585 30.096 300.785 31.888 309.425 31.888C318.129 31.888 321.265 30.032 321.265 26C321.265 21.968 318.065 20.112 309.425 20.112ZM294.385 40.976C299.569 40.784 333.745 40.72 340.145 41.04C340.401 47.056 340.337 55.888 340.145 59.28C338.993 59.408 336.113 59.408 334.833 59.28C334.705 55.888 334.833 49.616 334.833 45.712C324.849 45.712 299.441 45.904 294.385 45.776C294.257 44.432 294.257 42.32 294.385 40.976ZM376.812 19.472C379.948 19.408 390.252 19.408 396.204 19.472V13.008C390.38 13.136 379.948 13.072 376.812 12.944C376.684 11.536 376.684 9.68 376.812 8.4C379.948 8.336 390.316 8.336 396.268 8.4V2.768C397.548 2.512 400.364 2.448 401.708 2.768C401.836 10.512 401.836 35.792 401.708 43.6C400.492 43.792 397.74 43.792 396.268 43.6C396.268 40.016 396.204 32.08 396.204 24.08C390.38 24.208 379.948 24.144 376.812 24.016C376.684 22.608 376.684 20.752 376.812 19.472ZM385.452 34.704C380.268 34.896 358.188 34.96 351.98 34.704C351.66 27.984 351.66 9.104 351.98 3.856C353.068 3.6 356.012 3.664 357.292 3.856C357.42 8.976 357.356 26.448 357.292 30.096C360.812 29.968 380.524 29.968 385.452 30.096C385.644 31.44 385.644 33.296 385.452 34.704ZM402.796 54.544C402.924 55.888 402.924 57.936 402.796 59.28C396.268 59.6 366.636 59.6 356.78 59.28C356.46 54.672 356.588 44.496 356.78 40.656C357.996 40.464 360.748 40.464 362.092 40.656C362.22 44.24 362.22 50.704 362.092 54.544C372.652 54.48 396.396 54.416 402.796 54.544ZM413.223 42.896C412.967 37.456 412.775 10.576 412.711 4.624C415.207 4.368 416.743 4.368 419.111 4.624C419.111 10.576 418.791 37.52 418.535 42.896C416.999 43.088 414.951 43.088 413.223 42.896ZM412.775 57.296C412.647 54.928 412.647 53.008 412.775 50.704C415.207 50.576 416.807 50.576 419.111 50.704C419.239 53.072 419.239 54.928 419.111 57.232C416.743 57.424 415.079 57.424 412.775 57.296ZM492.759 21.2C482.455 21.392 454.423 21.392 444.311 21.2C444.119 19.728 444.119 18.256 444.311 16.848C446.807 16.784 450.391 16.784 454.551 16.72C454.487 14.096 454.487 10.768 454.551 8.144C450.647 8.08 447.319 8.08 444.951 8.016C444.759 6.608 444.759 5.008 444.951 3.664C455.831 3.472 482.839 3.472 492.119 3.664C492.247 5.008 492.247 6.48 492.119 8.016C489.751 8.08 486.359 8.08 482.455 8.144C482.519 10.768 482.519 14.096 482.455 16.72C486.615 16.784 490.263 16.784 492.759 16.848C492.951 18.256 492.951 19.664 492.759 21.2ZM459.863 8.144C459.927 10.768 459.927 14.096 459.863 16.72H477.143C477.079 14.096 477.079 10.768 477.143 8.144H459.863ZM495.575 26.384C495.831 27.664 495.831 29.392 495.575 30.8C485.335 30.992 453.335 31.056 441.431 30.8C441.174 29.52 441.174 27.728 441.431 26.384C455.255 26.128 485.207 26.192 495.575 26.384ZM450.647 50.064V55.12H492.951C493.143 56.464 493.079 58.192 492.951 59.472C488.919 59.792 453.271 59.856 445.335 59.472C445.143 56.016 445.015 50.256 445.335 45.648H486.167V40.656H445.463C445.207 39.376 445.207 37.136 445.463 36.24C458.967 36.048 482.647 36.048 491.479 36.24C491.735 38.928 491.735 47.312 491.479 50.064H450.647ZM519.186 42.96C519.186 38.992 519.25 13.328 519.186 10.192C517.394 10.128 504.786 10.128 502.546 10.192C502.29 8.848 502.29 6.8 502.546 5.456C505.618 5.264 521.106 5.328 524.434 5.456C524.754 11.088 524.69 38.416 524.434 42.96C523.41 43.216 520.466 43.152 519.186 42.96ZM544.786 42.96C544.786 38.992 544.85 13.328 544.786 10.192C542.93 10.128 530.386 10.128 528.082 10.192C527.89 8.848 527.89 6.8 528.082 5.456C531.218 5.264 546.578 5.328 550.034 5.456C550.354 11.088 550.29 38.416 550.034 42.96C549.01 43.216 546.066 43.152 544.786 42.96ZM500.306 57.552C500.049 56.016 500.049 54.224 500.306 52.816C510.418 52.56 547.794 52.688 554.45 52.816C554.706 54.16 554.706 56.016 554.45 57.552C547.922 57.808 508.498 57.744 500.306 57.552ZM611.725 2.704C611.853 10.768 611.853 51.856 611.725 59.536C610.573 59.728 607.949 59.728 606.477 59.536C606.285 51.792 606.349 10.32 606.477 2.704C607.757 2.384 610.445 2.384 611.725 2.704ZM594.444 3.024C595.661 2.704 598.413 2.768 599.629 3.024C599.821 11.024 599.757 51.408 599.629 58.896C598.541 59.088 595.917 59.088 594.444 58.896C594.317 55.056 594.253 42.832 594.253 30.672C591.629 30.736 589.005 30.736 586.509 30.672C586.381 51.664 581.773 56.336 572.877 56.336C563.853 56.336 559.245 51.536 559.245 29.904C559.245 8.272 563.853 3.472 572.877 3.472C581.261 3.472 585.869 7.632 586.445 25.744C588.941 25.68 591.629 25.68 594.253 25.744C594.317 15.568 594.381 6.224 594.444 3.024ZM572.877 51.28C578.381 51.28 581.005 47.76 581.005 29.904C581.005 12.048 578.381 8.528 572.877 8.528C567.437 8.528 564.749 12.048 564.749 29.904C564.749 47.76 567.437 51.28 572.877 51.28ZM669.896 2.768C670.152 11.024 670.088 51.856 669.896 59.472C668.68 59.728 665.992 59.664 664.52 59.472C664.392 55.376 664.328 41.36 664.328 28.176C659.464 28.24 652.744 28.176 649.16 28.048C649.032 26.576 649.032 24.4 649.16 23.056C653.064 22.928 659.592 22.928 664.392 22.992C664.392 13.84 664.456 5.776 664.52 2.768C665.736 2.448 668.552 2.448 669.896 2.768ZM639.112 4.24C639.24 8.656 639.304 19.856 639.176 27.088C644.424 34.896 652.296 46.48 656.008 52.24C655.176 53.264 652.936 54.8 651.656 55.184C648.328 50.576 641.224 39.888 636.296 32.208C632.008 40.336 625.928 51.28 622.92 56.08C621.704 55.888 619.208 54.672 618.248 53.648C621.576 47.632 628.616 35.088 633.48 26.64C633.352 19.28 633.416 8.336 633.544 4.24C634.76 3.984 637.704 3.92 639.112 4.24ZM727.875 33.808C722.755 34 687.363 34 680.835 33.808C680.451 26.832 680.515 12.304 680.835 5.456C687.299 5.136 720.771 5.264 726.595 5.456C726.851 6.864 726.851 8.976 726.595 10.384C721.411 10.512 691.587 10.512 686.339 10.384C686.275 14.544 686.275 25.04 686.339 28.944C691.651 28.944 722.883 28.88 727.875 28.944C728.067 30.352 728.067 32.656 727.875 33.808ZM731.075 52.816C731.331 54.16 731.331 56.016 731.075 57.552C724.547 57.808 685.123 57.744 676.931 57.552C676.674 56.016 676.674 54.224 676.931 52.816C681.411 52.688 691.139 52.688 701.187 52.688C701.123 48.144 701.123 40.912 701.251 37.84C702.659 37.584 705.283 37.648 706.755 37.84C706.882 41.04 706.819 48.272 706.755 52.688C717.699 52.688 727.875 52.752 731.075 52.816ZM801.787 2.704C801.915 10.768 801.915 51.856 801.787 59.536C800.635 59.728 798.011 59.728 796.539 59.536C796.411 55.632 796.411 43.088 796.411 30.672C793.851 30.736 790.779 30.736 787.835 30.672C787.771 42.832 787.771 55.12 787.707 58.896C786.555 59.088 783.931 59.088 782.459 58.896C782.267 51.28 782.267 10.576 782.459 3.024C783.739 2.704 786.427 2.768 787.707 3.024C787.771 6.416 787.835 15.632 787.835 25.744C790.715 25.68 793.723 25.744 796.411 25.744C796.411 15.44 796.475 5.968 796.539 2.704C797.819 2.384 800.507 2.384 801.787 2.704ZM766.651 4.24C766.779 8.72 766.843 20.24 766.715 27.472C770.811 35.472 776.763 47.12 779.515 52.944C778.555 53.84 776.315 54.992 774.971 55.376C772.539 50.832 767.483 40.784 763.835 32.976C760.315 41.104 755.515 51.472 753.147 56.144C751.867 55.952 749.435 54.992 748.475 54.032C751.163 48.08 756.859 35.728 760.955 27.152C760.891 19.792 760.891 8.464 761.019 4.24C762.299 3.984 765.243 3.92 766.651 4.24ZM862.262 31.696C862.518 33.04 862.518 34.768 862.262 36.176C852.022 36.368 820.022 36.368 808.118 36.176C807.862 34.832 807.862 33.04 808.118 31.696C814.134 31.632 823.158 31.568 832.374 31.568C832.31 29.84 832.31 28.048 832.374 26.32C824.054 26.32 816.182 26.256 812.662 26.128C812.47 22.736 812.342 16.464 812.662 12.368H851.766V7.44H812.79C812.534 6.288 812.534 4.048 812.79 3.024C824.182 2.832 849.462 2.768 857.078 2.96C857.334 5.52 857.334 14.032 857.078 16.784H817.974V21.712H857.718C857.846 23.12 857.846 24.848 857.718 26.128C854.902 26.256 846.774 26.32 838.006 26.32C838.07 28.048 838.07 29.904 838.006 31.568C847.99 31.568 857.334 31.632 862.262 31.696ZM853.238 44.496V39.696C854.966 39.504 857.014 39.504 858.358 39.696C858.55 45.52 858.614 52.752 858.358 59.472C851.254 59.856 819.318 59.856 812.022 59.472C811.702 52.944 811.766 44.752 812.022 39.696C813.11 39.44 816.054 39.504 817.142 39.696V44.496C826.678 44.432 843.382 44.432 853.238 44.496ZM817.142 48.976V54.992C823.99 55.12 846.838 55.12 853.238 54.992V48.976C843.126 48.976 826.678 49.04 817.142 48.976ZM919.537 2.704C919.665 10.768 919.665 51.856 919.537 59.536C918.385 59.728 915.761 59.728 914.289 59.536C914.097 51.792 914.161 10.32 914.289 2.704C915.569 2.384 918.257 2.384 919.537 2.704ZM901.617 3.024C902.833 2.704 905.585 2.768 906.801 3.024C906.993 11.024 906.929 51.408 906.801 58.896C905.713 59.088 903.089 59.088 901.617 58.896C901.489 55.056 901.425 42.832 901.425 30.736C898.289 30.736 895.153 30.672 892.273 30.608C892.145 29.392 892.145 26.832 892.273 25.744C895.025 25.68 898.225 25.68 901.425 25.68C901.489 15.568 901.553 6.224 901.617 3.024ZM867.505 4.944C871.729 4.688 884.017 4.624 889.265 4.944C889.713 12.496 889.841 48.208 889.457 55.184C888.369 55.504 885.361 55.44 884.017 55.184C884.017 49.168 884.081 14.544 884.017 9.872C881.009 10 871.089 10 867.505 9.872C867.249 8.464 867.249 6.288 867.505 4.944ZM943.466 23.696C942.762 22.48 942.25 20.752 942.25 19.088C947.69 17.808 956.458 15.696 963.498 14.096C963.434 12.88 963.434 11.664 963.498 10.448C954.986 10.448 946.858 10.384 942.89 10.32C942.698 8.848 942.698 7.248 942.89 5.904C947.05 5.84 954.986 5.776 963.498 5.712C963.434 3.984 963.498 2.192 963.562 0.527996C964.842 0.271999 967.722 0.271999 969.194 0.527996C969.257 2.192 969.322 3.984 969.257 5.712C977.322 5.712 985.13 5.776 989.93 5.904C990.122 7.248 990.122 8.976 989.93 10.32C985.706 10.384 977.706 10.448 969.257 10.448C969.322 11.664 969.322 12.88 969.257 14.032C976.298 15.504 985.066 17.488 990.57 18.704C990.506 20.304 990.122 22.032 989.482 23.376C984.106 22.224 974.186 20.048 966.634 18.192C958.89 20.176 948.778 22.544 943.466 23.696ZM993.45 27.216C993.706 28.496 993.706 30.16 993.45 31.568C988.65 31.632 979.178 31.696 969.194 31.696C969.257 33.36 969.194 35.024 969.194 36.688C977.514 36.688 985.13 36.752 989.354 36.816C989.61 39.44 989.61 47.632 989.354 50.384H948.522V55.12H990.826C991.018 56.464 990.954 58.192 990.826 59.472C986.794 59.792 951.146 59.856 943.21 59.472C943.018 56.144 942.89 50.512 943.21 45.968H984.042V41.296H943.338C943.082 39.952 943.082 37.776 943.338 36.816C948.906 36.752 956.266 36.688 963.562 36.688C963.498 35.088 963.498 33.36 963.562 31.696C953.962 31.696 944.618 31.632 939.306 31.568C939.049 30.224 939.049 28.56 939.306 27.216C953.13 27.024 983.082 27.024 993.45 27.216ZM1054.05 11.856C1054.18 13.2 1054.18 15.248 1054.05 16.72C1052.9 16.848 1050.02 16.848 1047.46 16.784C1047.46 21.776 1047.46 26.704 1047.4 29.52C1046.18 29.712 1043.43 29.712 1041.96 29.52C1041.89 23.888 1041.89 7.952 1041.96 2.768C1043.24 2.512 1046.05 2.448 1047.4 2.768C1047.46 4.88 1047.46 8.144 1047.46 11.792C1049.96 11.728 1052.77 11.792 1054.05 11.856ZM1030.63 26.448C1025.51 26.704 1005.35 26.768 999.653 26.448C999.525 22.16 999.525 8.016 999.653 3.664C1001.12 3.408 1003.75 3.472 1005.03 3.664V10.32C1010.4 10.256 1019.94 10.256 1025.32 10.32V3.664C1026.79 3.472 1029.16 3.472 1030.63 3.664C1030.82 8.336 1030.82 22.928 1030.63 26.448ZM1005.03 14.864V21.84C1009.44 21.968 1021.41 21.968 1025.32 21.84V14.864C1019.94 14.928 1010.34 14.928 1005.03 14.864ZM1007.2 48.144V54.864H1048.42C1048.61 56.08 1048.55 58.128 1048.42 59.28C1042.28 59.536 1009.76 59.6 1001.89 59.28C1001.7 56.208 1001.57 48.784 1001.89 43.728H1042.02V37.072H1002.02C1001.83 35.856 1001.83 33.744 1002.02 32.592C1013.41 32.4 1038.95 32.4 1047.33 32.592C1047.59 35.856 1047.59 44.56 1047.33 48.144H1007.2ZM1087.52 9.104C1092.32 9.104 1096.86 9.168 1099.29 9.232C1099.49 10.512 1099.49 12.432 1099.29 13.712C1094.81 13.84 1073.95 13.904 1070.05 13.712C1069.85 12.368 1069.85 10.512 1070.05 9.232C1071.84 9.168 1076.57 9.104 1081.82 9.104C1081.76 6.224 1081.82 2.704 1081.89 0.975998C1083.17 0.719997 1086.05 0.719997 1087.45 0.975998C1087.52 2.704 1087.58 6.224 1087.52 9.104ZM1123.04 2.704C1123.17 10.768 1123.17 51.856 1123.04 59.536C1121.89 59.728 1119.26 59.728 1117.79 59.536C1117.66 55.632 1117.66 43.088 1117.66 30.672C1115.17 30.736 1112.16 30.736 1109.21 30.672C1109.21 42.896 1109.15 55.12 1109.09 58.896C1108 59.088 1105.37 59.088 1103.9 58.896C1103.65 51.28 1103.71 10.576 1103.9 3.024C1105.12 2.704 1107.87 2.768 1109.09 3.024C1109.15 6.416 1109.21 15.632 1109.21 25.744C1112.09 25.68 1115.04 25.744 1117.66 25.744C1117.66 15.44 1117.73 5.968 1117.79 2.704C1119.07 2.384 1121.76 2.384 1123.04 2.704ZM1084.7 18.32C1094.3 18.32 1098.01 23.952 1098.01 37.968C1098.01 51.984 1094.3 57.552 1084.7 57.552C1075.1 57.552 1071.39 51.984 1071.39 37.968C1071.39 23.952 1075.1 18.32 1084.7 18.32ZM1084.7 52.816C1090.46 52.816 1092.7 49.104 1092.7 37.968C1092.7 26.832 1090.46 23.056 1084.7 23.056C1078.94 23.056 1076.7 26.832 1076.7 37.968C1076.7 49.104 1078.94 52.816 1084.7 52.816ZM1193.11 34.448C1188.31 34.768 1152.15 34.896 1146.71 34.448C1146.52 26.832 1146.45 10.896 1146.71 4.432C1148.05 4.176 1150.87 4.24 1152.09 4.432C1152.15 6.48 1152.15 10 1152.15 13.84C1159.45 13.776 1179.86 13.776 1187.67 13.84V4.432C1189.08 4.24 1191.7 4.24 1193.11 4.432C1193.3 11.216 1193.3 26.96 1193.11 34.448ZM1187.67 18.832C1179.93 18.896 1159.45 18.896 1152.15 18.832C1152.15 23.376 1152.09 27.6 1152.09 29.648C1155.93 29.776 1184.28 29.776 1187.67 29.648V18.832ZM1196.95 52.816C1197.21 54.16 1197.21 56.016 1196.95 57.552C1190.42 57.808 1151 57.744 1142.81 57.552C1142.55 56.016 1142.55 54.224 1142.81 52.816C1147.29 52.688 1157.01 52.688 1167.06 52.688C1167 48.08 1167 41.168 1167.13 38.48C1168.53 38.224 1171.16 38.288 1172.63 38.48C1172.76 41.232 1172.69 48.144 1172.63 52.688C1183.57 52.688 1193.75 52.752 1196.95 52.816ZM1254.22 2.704C1254.35 10.768 1254.35 51.856 1254.22 59.536C1253.07 59.728 1250.45 59.728 1248.98 59.536C1248.78 51.792 1248.85 10.32 1248.98 2.704C1250.26 2.384 1252.94 2.384 1254.22 2.704ZM1236.37 3.024C1237.65 2.704 1240.4 2.768 1241.62 3.024C1241.81 11.024 1241.74 51.408 1241.62 58.896C1240.46 59.088 1237.84 59.088 1236.37 58.896C1236.24 54.736 1236.24 40.848 1236.24 27.792C1232.85 27.92 1229.39 27.856 1226.38 27.728C1226.26 26.512 1226.26 23.952 1226.38 22.864C1229.33 22.8 1232.78 22.8 1236.24 22.864C1236.24 13.84 1236.3 5.968 1236.37 3.024ZM1219.09 4.24C1219.22 8.72 1219.28 20.24 1219.15 27.472C1223.25 35.472 1229.2 47.12 1231.95 52.944C1230.99 53.84 1228.75 54.992 1227.41 55.376C1224.98 50.832 1219.92 40.784 1216.27 32.976C1212.75 41.104 1207.95 51.472 1205.58 56.144C1204.3 55.952 1201.87 54.992 1200.91 54.032C1203.6 48.08 1209.3 35.728 1213.39 27.152C1213.33 19.792 1213.33 8.464 1213.46 4.24C1214.74 3.984 1217.68 3.92 1219.09 4.24ZM1287.63 34.64C1268.75 34.64 1263.05 29.52 1263.05 19.536C1263.05 9.424 1268.88 4.432 1287.63 4.432C1306.51 4.432 1312.2 9.552 1312.2 19.536C1312.2 29.648 1306.38 34.64 1287.63 34.64ZM1287.63 9.296C1273.04 9.296 1268.68 12.432 1268.68 19.536C1268.68 26.448 1272.84 29.776 1287.63 29.776C1302.22 29.776 1306.57 26.64 1306.57 19.536C1306.57 12.624 1302.41 9.296 1287.63 9.296ZM1314.7 52.816C1314.96 54.16 1314.96 56.016 1314.7 57.552C1308.17 57.808 1268.75 57.744 1260.56 57.552C1260.3 56.016 1260.3 54.224 1260.56 52.816C1263.12 52.752 1267.4 52.752 1272.52 52.688C1272.46 48.016 1272.46 40.4 1272.59 37.584C1273.93 37.328 1276.56 37.392 1278.03 37.584C1278.16 40.528 1278.09 48.08 1278.03 52.688H1297.16C1297.1 48.08 1297.1 40.528 1297.23 37.584C1298.7 37.328 1301.32 37.392 1302.67 37.584C1302.73 40.4 1302.73 48.016 1302.67 52.752C1308.3 52.752 1312.78 52.752 1314.7 52.816ZM1320.77 57.168C1320.65 54.8 1320.58 52.624 1320.77 50.32C1323.14 50.128 1325.45 50.128 1327.75 50.32C1327.88 52.688 1327.88 54.8 1327.75 57.104C1325.38 57.36 1323.08 57.36 1320.77 57.168Z"/></svg>