<svg fill="none" viewBox="0 0 357 63"><path fill="#334155" d="M131.76 24.14c-7.74.24-39.18.24-46.26 0-.18-2.46-.18-4.62 0-6.96 1.5-.06 4.26-.06 7.62-.12v-4.2c-3.06-.06-5.52-.06-7.02-.12-.18-2.34-.18-4.74 0-6.96 9.96-.18 39.48-.24 45.06 0 .12 2.22.12 4.32 0 6.96-1.56.06-4.08.06-7.08.12v4.2c3.36.06 6.06.06 7.68.12.18 2.34.18 4.2 0 6.96zm-29.82-11.22v4.14c4.32-.06 9-.06 13.32-.06v-4.08h-13.32zm32.46 13.56c.24 2.1.24 4.68 0 7.02-5.16.36-44.52.24-51.6 0-.24-2.04-.24-4.8 0-7.02 12.48-.24 45.96-.12 51.6 0zM95.16 50.9v1.92h37.14c.24 1.98.12 4.74 0 6.66-3.9.3-38.52.36-46.2 0-.24-3.3-.36-9.42 0-14.94h35.76v-1.92H86.22c-.24-1.98-.24-5.34 0-6.72 17.46-.18 37.32-.18 44.7 0 .3 2.34.3 12.42 0 15H95.16zm92.635-45.6c.24 8.22.24 46.86 0 54-1.86.24-6.9.18-9 0-.12-3.24-.18-13.8-.18-24.78-3.48 0-6.84-.06-7.92-.18-.24-2.28-.24-6.24 0-8.52 1.44-.06 4.74-.12 7.98-.12 0-9.3.06-17.58.12-20.4 1.62-.36 6.9-.3 9 0zm-38.46 41.94c5.34-.18 17.28-.12 22.32 0 .24 2.28.24 5.76 0 8.04-3.72.18-26.1.24-31.56 0-.42-7.08-.36-21.24 0-28.14 4.08-.12 14.82-.06 18.12 0 0-3.36 0-9.12.06-12.12-3.78.06-14.1.12-17.94 0-.24-2.28-.24-5.76 0-8.04 3.78-.24 23.04-.24 27.12 0 .42 7.02.36 21.24 0 28.14-4.08.24-12.18.06-18.06 0 0 3.36 0 9.12-.06 12.12zm51.416-5.82c-1.32-.96-4.92-4.74-5.88-6.6 4.68-4.2 12.96-11.34 19.26-16.86-.06-4.74 0-8.4.12-11.16 1.62-.18 7.38-.24 9.48 0 .12 3.12.18 6.78.12 11.22 6.42 5.34 14.82 12.24 19.56 16.26-.96 1.86-4.44 5.76-5.7 6.78-3.24-2.58-11.88-9.42-18.6-15.42-6.66 6.12-15.06 13.2-18.36 15.78zm44.04 8.64c.24 2.22.24 5.28 0 7.8-5.16.36-44.52.24-51.6 0-.24-2.16-.24-5.46 0-7.8 12.48-.24 45.96-.12 51.6 0zm18.295-6.78c.06-1.74.06-26.04 0-28.02-1.14-.06-11.34-.06-12.6 0-.24-2.34-.24-5.58 0-7.8 3-.18 18.96-.12 21.24 0 .42 3.36.36 32.46 0 35.82-1.56.3-6.48.24-8.64 0zm24.36 0c.06-1.74.06-26.04 0-28.02-1.14-.06-11.34-.06-12.6 0-.24-2.34-.24-5.58 0-7.8 3-.18 18.96-.12 21.24 0 .42 3.36.36 32.46 0 35.82-1.56.3-6.48.24-8.64 0zm-39.06 14.58c-.24-2.16-.24-5.46 0-7.8 12.48-.24 45.96-.12 51.6 0 .24 2.22.24 5.28 0 7.8-5.16.36-44.52.24-51.6 0zm104.155-21.54c-4.92.24-39.78.18-45.66 0-.36-7.02-.3-22.5 0-29.46 5.82-.3 38.46-.18 44.46 0 .24 2.28.24 5.46 0 7.74-4.2.12-30.66.12-35.16 0 0 .72 0 1.92-.06 3.24 7.86-.06 28.62 0 33.42 0 .24 2.28.18 5.34 0 7.62-4.62.12-25.56.06-33.42 0 .06 1.38.06 2.46.06 3.18 4.74 0 31.92-.06 36.36 0 .18 2.34.18 5.76 0 7.68zm2.64 3.66c.24 2.22.24 5.28 0 7.8-2.28.18-11.22.24-21.12.24 0 4.14 0 9.3-.06 11.58-1.98.12-6.78.12-9.18 0-.06-1.98-.12-7.26-.12-11.58-9.42-.06-18.12-.12-21.12-.24-.24-2.16-.24-5.46 0-7.8 12.48-.24 45.96-.12 51.6 0z"/><path fill="#8B5CF6" d="M0 27h23v12H0z"/><path fill="#C084FC" d="M23 27l12 12H23V27z"/><path fill="#8B5CF6" d="M23 62V39h12v23z"/><path fill="#3B82F6" d="M60 37H37V25h23zM37 2v23H25V2z"/><path fill="#60A5FA" d="M37 37L25 25h12v12z"/></svg>