<svg fill="none" viewBox="0 0 1024 126"><path fill="#fff" d="M31.864 3.976l.384.512c0 .768.128 1.92.256 3.072.256 1.408.384 3.456.384 5.12 0 1.536-.128 2.56-.64 3.584 0 .768-.128 2.176-.256 2.944-.256 2.176-.64 4.48.256 6.272l-1.28 2.56c.64.768.64 1.408.256 1.92-.128 0-.256-2.304-.256 3.456l-1.408-1.28c.256 1.024.512 2.048-.256 3.712 0 0 1.664 1.92.256 1.92v1.024l-1.28 5.248c.384.384 1.408.512 1.408.512l-.896 3.84c-1.024 3.84-1.664 6.912-1.664 9.984v1.152c.896 1.28.64 3.072.128 4.736-.384 1.408-.768 2.688-.128 4.608-1.28 1.28-1.792 1.28-2.56 1.28l1.28 1.28c-1.792 1.664-2.816.896-3.968.768.768.256 1.152.384 1.152 1.152-1.408 0-2.432.128-3.328.384-2.304.512-4.48 1.28-5.888-.384h-.768s-2.944.768-2.944-.512c0 0 0 .128-.128-.128-1.792 1.28-2.432.128-3.072-1.28-.128-.384-.256-.768-.512-.64-3.072 0-2.176-.512-1.792-1.152 0-.128-.128-.256-1.536-.256 1.152-2.048.384-2.432-.256-2.944h.128C1.912 65.8.888 64.904.888 63.368c.64-.768.64-1.536.384-2.304-.128-.512-.384.384-.384-2.048h1.28c.384-3.712 3.712-5.504 6.912-7.296h.128c.384-.256 1.28-.768 2.176-1.536.512-1.28 2.048-1.792 3.2-1.536.128-.256.512-.256 1.92-.256-.128-1.024.896-1.536 2.176-2.176 0 0 .128-.256.64-1.024l.64-7.552c.256-2.688.512-5.504.64-8.704h1.28L23.16 17.8c-.64-1.024-.256-2.048 0-2.816.384-1.28.768-2.688 0-4.096 1.408-1.408 1.408-2.304 1.152-3.328-.128-.896-.384-1.92.384-3.2l2.816-1.408c1.024.512 1.024.256 1.408.256 1.024 0 2.176 0 2.944.768zm8.32 68.224c.896-.512 1.792-1.152 3.2-.768 1.28-.896 2.176-1.408 2.944-1.152.256-.384 1.152-.768 3.456-.768v.128c.128 0 .256 0 .384-.128-.128-.128-.128-.384-.128-.512.128-.128.384-.384 1.152-.768-.128 0 .128-.256.512-.64 1.152-1.28 1.792-.64 2.432-.128 0-.128.128-.512.768-1.152 1.28 2.688 1.792 2.56 2.432 2.944h-.128c1.792.896 2.944 2.176 1.792 3.84l.768.896c-.512 3.456-2.688 6.784-4.864 9.856a28.648 28.648 0 00-4.224 7.936h-1.024c-.128.896-.768 1.408-1.28 1.92-.384.384-.64.64-.64 1.536l-.256-.384 2.048 2.944c3.84 3.712 8.32 7.296 12.416 10.368l.64.64h-.256l4.096 2.56c.896.512 1.792 1.024 2.688 1.664 1.536.256 2.944.896 3.712 1.92l1.024-1.024 1.024 2.944c.896 0 1.664.384 2.176.768h1.28l-.128 2.304c-1.024 0-2.048.256-3.2.896-.64.256-1.408.512-2.048-.128-.896.256-1.536.128-1.92-.64-.512-.384-1.024-.896-1.024-.896v-.128c-1.28.896-1.664 0-2.432-1.28v-.128c-.128-.128-.384-.512-.384-.64-2.432-.384-4.736-1.792-6.272-2.816h-.128l-.896-.64c-.384 0-.896-.128-1.024-.128-2.176-1.536-3.84-2.56-4.992-3.2h.128c-2.048-1.408-3.072-2.176-4.224-3.328-1.152-.384-1.536-1.536-1.536-1.536-1.024-1.024-1.92-2.048-2.688-3.2-1.024-1.28-1.152-1.664-2.176-2.688-1.28 1.152-2.432 2.688-3.584 4.096-1.152 1.536-2.304 3.072-4.096 3.968-.256 1.152-1.408 2.048-2.432 2.56-.128.128 0-.128-.896.64l-1.664 1.664v.128c.128.128.384.128.768.128L27.128 117v-.896l-1.408-.128h-3.968c1.024-2.048-.384-2.048-1.024-2.048l-.384-1.024c.768-.512.768-.896.64-1.28l.128.128c-.128-.512-.384-1.152.512-2.048h.896c0-.512.384-1.28 1.024-1.92h1.408c-1.024-.512-.896-.64-.768-.64.128-1.024 1.024-1.664 2.048-2.432.512-.256.896-.512.896-2.048 0 0 1.28 0 .256-1.024h1.792v-.512l5.504-6.016v.128c4.992-5.248 9.6-9.984 13.312-17.408-2.304.256-4.48 1.024-6.016 1.792l.64-.256c-.768 1.408-2.56 1.408-3.84 1.408-.128 0-.256 0 .256 1.024-4.736 0-7.552-1.28-8.832-4.864l2.816-1.408-.128.128 4.352-2.944.256.64 1.152-.896c.64.256 1.152 0 1.536-.256zm30.208-60.928c1.664-.128 3.584-.512 3.84 2.048l.896-.128 2.048 3.712h-1.408c.256.896.128 1.92-.128 2.944-.384 1.536-.768 2.944 0 4.608-1.536.64-1.536 2.176-1.536 3.456 0 1.408-.128 2.816-1.28 3.328 0 .768.128 1.024.256 1.152.256.512.384 1.152-.384 2.56l-1.024.384.512 1.024c.64 1.28 1.024 2.688-.512 2.176-.128.64-.384 1.536-.768 2.048h.768c0 1.28-.512 2.304-.896 3.072-.256.512-.512 1.024-.512 1.536h-1.28c1.28 1.536.64 2.176-.128 3.328-.512.64-1.024 1.792-1.152 3.2.512.896.256 1.664-.128 2.304-.256.512-.512.896.896 2.304-2.56 0-2.56.384-2.432 1.024-1.664.896-1.408 1.664-1.152 2.304l-.128-.128c.128.64.384 1.152.384 1.408 0 .768-.64 1.408-1.28 1.792h.128c-.128.128-.256.256-.256.768l-1.664 3.072-2.176-.256v-2.176h-1.28v-3.328l3.712-24.576C59 37.768 56.44 38.664 53.624 39.56c-3.84 1.152-7.552 2.56-10.88 4.48-.128 2.176-1.408 2.304-2.688 1.792h-6.4v-1.28h-1.664c1.024-2.048.768-2.688.768-3.584-.128-1.408.128-2.56 2.176-2.944.128-1.92 1.664-1.664 3.328-1.92.384 0 .768-.256 2.304-1.92 1.024 2.048.896 1.792 1.024 1.664-.128-.384-.128-.896-.128-1.792 1.664 0 2.56-.64 3.456-1.536.256-.128 2.816-1.664 3.072.384 2.048-1.536 2.048-4.352 5.248-2.176v.128c.128 0 .384 0 .768.128 0-.384.256-1.152 3.2-2.176v1.024l.896-.768-.512-.384 3.84-1.152h.256c.896-.768 2.176-1.152 2.176-1.152.896-1.664 1.408-4.352 1.408-6.144l1.664-13.184c2.56 4.992 2.816 4.352 3.456 4.224zM9.08 12.68c1.792 1.152 3.456 2.176 2.432 4.352h1.152c0 2.816-.256 5.632-1.408 7.296.896 1.792.64 3.328.384 5.376-.128 1.024-.384 2.816-.384 3.712.512 2.048-.512 4.224-1.408 6.144-1.024 1.92-1.92 3.84-1.152 6.272H7.672c.256.896 0 1.536-.128 2.176-.128.256-.128.768-.128 1.664H2.168c0-.896.128-1.28.384-1.536-1.28-.64-.896-2.048-.384-3.456.256-.768.512-1.536-.128-2.176l.896-.896c-.768-.512-.384-1.408 0-2.56.384-.896.64-2.176-1.024-2.944.896-.896.512-1.28.384-1.664l.128.128c-.384-.768-.896-1.408.64-1.664-.64-1.536-.384-3.84.384-5.888-.64-2.176-.384-4.608 0-6.784.384-2.432.768-4.736 0-6.656v-1.792h1.408V10.76l2.176-.256c.512.896 1.536 1.792 2.048 2.176zm3.2 54.144h1.28c2.176-1.92 2.944-6.4 3.072-9.856l-2.688 2.688c-1.536.768-2.176 2.432-2.176 4.096 0 1.152.128 2.176.512 3.072zM68.6 45.192h-.896s0 1.408.896.512v-.512zM57.208 28.168l.384.512c-.128.128-.256.128-.384.128v-.64zM38.264 74.376l-.512-.512.128.512h.384zm78.59-47.872l-.128.256c0-.896 4.224-4.864 5.248-3.072 1.536.256 3.328 2.048 4.48 3.072-1.152 1.024-1.408 2.304-1.664 3.584-.256 1.152-.512 2.432-1.664 3.712-.256.256-1.024 1.92-1.152 2.176h-.512c-.128.384-.256.768-.64.896l.512.512c0 2.176-2.048 6.016-4.096 8.32 0 .896-.64 1.664-1.28 2.304-.384.512-.64 1.152-.64 2.56.128-.128.64-.64 1.28-1.792l1.28 1.28c.512-.128 1.152-.256 1.536-.256l1.92-1.92s-.128.512-.384 1.024h.896a7.142 7.142 0 002.688-.512c1.536-.512 2.816-1.152 4.352-.128l.128-.128 4.352-1.408c.384 0 .64 0 .896.128 0-.256 0-.512-.384-1.024 2.56 0 3.456.128 3.968.256.384.128.64.256 3.072-2.304v2.048c.128 0 .384.128.512.128V44.04c1.536 1.536 2.432 1.92 2.816 1.664.896-.384 1.792-.896 2.688-.384 1.28-.896 2.432-.768 3.328-.512.256.128.256.256 1.792.256l.768-.768c.896 1.024 1.792 1.024 2.176.768.64-.384 1.408-.896 3.072-1.024l2.048-.512c1.28 0 2.944 1.28 3.968 3.2 0 .512-.512 1.024-.896 1.408-.128.128-.128.128-.128.256h-1.152l.256.256c-1.792 1.792-3.328 1.536-4.352 1.152 0 0 0 .128-.128.512h-2.176l-2.944 1.28c-.384.128-.64.128-.896.128-.256.128-.768.256-1.152.64-1.152 0-2.048.128-2.688.256-.512.128-1.28.256-1.792.256v.256L132.47 56.84v-1.024l-2.176.64c-.512 0-1.024.512-1.024.512-1.92 1.024-3.456 1.28-4.992 1.536s-1.792 0-2.688.512c1.664 1.152 2.688 2.944 2.688 3.84-1.92 4.608-3.712 10.112-3.968 14.08 0 0 .128-.128.256-.128.768-.384 1.664-.896 2.688-.896.64-1.024 1.28-.896 2.176-1.152-3.712 2.432 4.352-2.56 3.584 1.152.768.512 1.664.896 2.304 2.048-.64 2.304-2.048 4.608-3.2 7.168-1.024 1.92-2.048 3.968-2.944 6.144-.512.896-1.408 1.792-2.304 2.688-.512.512-1.024 1.28-1.408 1.92l2.176 1.664-.128-.128c1.152.384 2.56.896 3.712 1.408h-.128a135.98 135.98 0 018.064 3.072c2.56 1.024 4.992 2.048 7.936 2.944 2.176.128 5.504 1.408 8.064 2.688l-.384.384h1.792l1.152 1.152h.256c0-.256-.128-.384-.256-.512.512 0 1.28.128 2.432 1.024-.256.128-.256.384-.256.512.512-.128 1.152-.128 2.176-.128v.896h.768c1.664 0 2.176.64 2.816 1.152.256.384.64.768 2.432.896l2.048 3.328h-1.024v2.944l-2.048-2.048c-.768.64-1.536 0-2.304-.64-.128-.128-.384-.384-2.176.512v-1.024c-.384-.128-.768-.256-1.152-.512-.384-.256-.768-.512-1.536-.256l-1.28-1.024h-1.408l-.896-.768c-1.92.256-4.608-.256-6.272-1.024-1.152.768-1.92.128-2.688-.768h.128c-.384-.256-.896-.64-1.28-.512-1.152 0-1.92-.384-2.688-.768.128.128.128.256 0 .384l-1.024-.512h-.512c-1.152-1.152-.768-.512-1.024-.512-.64-.128-1.152.128-1.664-.384l-.128.128-10.368-3.456-3.2-1.408c-1.408-.256-3.712-1.28-4.864-2.432 0-.384-.256-.512-.512-.512-1.152.896-2.176 2.944-3.328 4.992h-1.92c-.128 0-1.152 1.408-1.792 2.304-.384.768-1.152 1.664-1.92 2.176-.128 1.024-.896 1.92-2.048 2.432-.256.768-1.024 1.024-1.92 1.28 0 0-.128 0-.128 1.92-.768 0-2.688 0-1.92 1.408l-3.072 3.072v.256c-.128 0-.128-.128-.128-.128l-.384.384v-.512c-1.024-.512-1.152-.256-1.152-.128-.256.896-.64 1.92-1.536 1.792-.768 1.28-3.2 2.944-4.736 1.92h-.512c0-.128-.128-.128-.128-.256-.512-.384-.896-.896-.896-2.048h1.28c.256-.64.64-1.792.64-2.432 0-1.024 0-1.152 1.024-1.152h.128v-.128l-.128.128v-1.792l2.56-.128-.384-.768v-.128l.128.128c-.256-.512-.256-2.56-.256-3.84l1.408 1.408c.128-.512.512-.896.768-1.28s.512-1.28 1.024-2.048h2.56l.64-.384h-.256c.384-.256.256-.896-.512-2.688h.64l-1.024-1.024c2.56 0 3.328-1.28 3.84-2.176.64-1.152 1.408-2.56 3.2-2.816l4.224-6.4v1.408c.512-.512 1.152-1.28 1.792-3.072h1.152c.64-.768 2.304-2.304 3.2-3.456 1.92-2.176 3.968-4.48 5.504-7.936-2.816.896-5.12 2.56-7.04 3.968l-2.176 1.664h-1.024c-.384.256-.512.512-.512.64h-1.28c-.512.384-.768.384-1.536.384v1.024h-1.536c-1.792 1.792-3.456 2.816-3.968 1.152-1.024.128-1.664.512-2.304.64-1.152.64-2.304 1.152-3.968 1.152-2.816-1.024-3.072-1.664-3.328-2.816l-.768-2.432c2.816 0 3.584-.64 4.352-1.152l1.92-.896v-.896h1.408l-1.152-1.024c2.432 0 6.016 0 7.68-3.2 1.92 1.92 2.048 1.28 2.304 1.024.768-.768 1.664-1.664 3.2-1.024 1.408-.64 1.792-3.2 2.304-6.144.384-1.664.64-3.584 1.408-5.376.768-2.432 1.792-5.248 1.92-8.704l-3.584.896c-5.12 1.408-10.752 2.816-15.872 5.632-3.072 0-7.552 1.152-10.88 2.304-2.304-2.304-2.176-4.736-1.92-6.528 0-.384.128-1.024.128-1.408 0-2.56 1.792-2.432 3.712-2.304.256 0 .64 0 .64-.128l2.304-2.304c.384 1.28.512 1.664.384 1.792 1.28-.896 2.048-1.28 2.304-.512.128 0 .128 0 .256-.128.64-.384 1.024-.64 1.28-.64.896-.768 2.048-.896 3.2-.64v-.768c2.432 0 4.096-2.176 5.376-4.224.512-.896 1.28-1.92 1.92-2.56l2.816-3.84c2.304-6.016 4.864-12.032 7.04-18.048zm25.472-24.576c1.408.896 1.408 3.712 1.408 3.712.64 0 .64.896.64 1.152.64 1.92.512 3.968.256 5.376a10.8 10.8 0 00-.256 2.432h-1.024v4.992h-.256l.384.384c-.64.64-.64 1.152-.64 1.536 0 .64 0 1.408-.64 2.688-.256.256-.384 1.408-.512 2.56-.128 1.28-.512 3.072-1.28 4.224 0-.128-.256-.128-.768-.128.384.128 1.024.64 1.92 1.28 0 0-1.408 1.28-1.664 1.664-.384.64-.896 1.536-2.56 1.792v1.024c-.384 0-.384.512-.384 1.408-.256-.256-2.304-1.408-2.304-1.408h-2.56c1.408-1.408 1.28-1.92 1.024-2.56-.128-.512-.256-1.152-.256-2.176l1.92-2.048c.256-5.376.768-11.52 1.024-16.896.64-1.152.896-2.56 1.024-3.456-.512.128-1.28 0-1.792 0h-.64c-.256.128-.64 0-.896 0 0 0 .128 0-.256.768-4.608 1.536-3.712 1.28-5.504 2.048-2.048.64-4.608 1.408-7.04 3.2-.384 0-.384.896-.384 1.664l-2.176.256-.384-.384c-.64.384-.896-.256-1.536-.896v.384c-.384-.384-.768-.64-.896-1.024h-.256l-.256-.512c-1.664-1.792-1.28-2.432-.256-2.944l2.688-2.816v.768c1.024-1.024 2.56-1.536 3.584-.768h.384l.384-.896h.256c.768-1.664 1.792-1.536 2.944-1.152l1.28-1.024 2.048.896.128-.128c0-.128.256-.256.512-.384v-.64c0-2.816 1.024-2.56 2.176-1.536-.128-.256-.384-.64-.896-1.152h3.328l1.92-1.92v.64c.896-1.664 1.664-1.28 2.176-.384l.64-1.28c2.176 0 4.224 0 4.224 1.664zm-37.376 3.2l1.152.384c.896 2.56.512 5.12.256 7.296-.128.896-.128 1.536-.128 2.048 0 .128-.256.64-.384 1.152-.256.512-.128 1.152 1.152 2.432-.512 0-.512 0-1.408-.896l.64 1.28c.384 1.408-.384 2.816-.896 3.968-.64 1.28-1.28 2.304-.896 4.736.128.512-.128 1.28-.256 1.92-.256.896-.512 1.792 0 2.304 0 .896-.512 1.28-1.024 1.28v2.432c-.384 0-.384.256-.384.384 0 .384 0 1.024-.64 1.408.768 1.024-.256 2.048-.256 2.048.128.384.384.512.384.512 0 1.024-.64 1.792-1.28 2.56-.384.512-.768.896.768 1.664l-3.584 1.664c-2.048-1.152-1.792-1.152-1.792-1.408l-.64-1.28v-5.248l1.92-13.056c.256-4.352.768-9.088 1.024-13.696l-2.688 1.536c-2.304 1.536-4.864 2.816-9.344 2.816 0-.384 0-.896-.128-1.28-.256-.64-.384-1.536.128-2.304 0-.768.128-1.152 1.28-1.152 0 0 .128-.384 2.176-2.432v1.664s0-.128.128-.128l1.664-1.28.256.256c.256-.256.896-.512 1.792-.512h.256l3.968-4.096v2.048l.512-.384v-.64h1.152c-.128-.512.128-1.024 2.176-1.024.768 0 1.28.384 1.92.64.384.256.768.384 1.024.384zm79.878 28.928l1.664 3.328v1.28c.384.256 2.688 1.92 1.408 1.92v.384c.768.384 1.152 1.152 1.28 2.048l1.024.512c-.512.512-.256 1.664.256 2.56.128.384.256.896.256.896-.64 1.408-.128 1.92.384 2.304h-.128c1.024.512 1.664.896 1.152 1.92.256 1.792.256 4.096.64 5.76-1.28 0-.64.512-.64.512.256 1.792.64 1.792.768 2.048s.512 1.664.512 1.152c.512 1.024-.256 1.92-.896 2.56.128-.128.256-.256.64-.256 1.664 4.864-1.664 8.32-5.12 11.648-.768-.768-1.024-.64-1.28-.384h.128c-1.024.896-1.92 2.048-3.968 1.28-1.024.768-1.792.384-2.304-.256.256.512.128 1.024-2.304-.768v.384l-3.456-2.432h-1.792v-1.28c-.768-.128-.64-.512-.768-1.024-.128-.64-.512-1.664-2.176-2.432l1.28-1.28c-1.152-.896-1.152-2.432-.896-3.456.128-.768.384-1.408-.384-2.176.64-.64.768-1.28.896-2.304.128-1.28.256-2.816 2.048-4.736 0-1.792.128-5.76 1.408-6.912 0 0 .768-3.2 2.176-3.2.896-.512 1.152-1.664 1.152-2.688 0-1.536 0-2.816 3.328-2.816.128 0 .128-1.024.128-2.176 0 0 0-1.92 3.584-1.92zm39.552-19.328l.768.512c0 2.688.384 5.376.896 7.808.384 2.56.896 4.736.896 7.68 0 1.28-.128 2.688-.384 3.84.512.896.64 2.304.64 3.84 0 1.792 0 3.84 1.024 6.528h-.896l1.408 1.408c-2.816 0-2.432 1.152-2.304 2.176l-.128-.128c.128.512.256 1.024.256 1.28.64 3.584-.128 7.552-.768 11.264-.768 3.84-1.408 7.68-.512 11.52h-1.408a45.408 45.408 0 01-.768 5.12c-.384 2.048-.64 4.096-.64 5.376V85c-1.408 0-1.792.512-2.304 1.024-1.792 1.792-2.944 3.072-2.944-.384-.384-1.536-1.024-3.584-1.408-5.376l1.408-27.648s0-1.28-1.408-2.688c1.152-5.76 1.664-11.008 1.664-16.384 0-6.272-.64-13.056-1.408-19.84l-.512-3.84c4.736 1.792 6.016 2.56 6.912 3.328h-.128c.64.512 1.28 1.152 2.048 1.536zm-39.68 47.36l.384-2.56c0-3.712-.768-9.088-1.792-12.928-.384.64-1.152 2.048-2.176 2.048l-1.152 3.968c.768 2.56.64 5.12.512 7.296-.256 3.072-.384 5.76 1.152 8.064l1.408-.768c.896-.896 1.152-2.176 1.664-5.12zm124.47-37.376l-.384.384s-.896.896.512 2.304c-1.408.64-1.28 1.408-.896 2.176.512 1.28.896 2.432-1.28 3.456h-.512v.128h1.28c0 1.664-.256 1.536-.384 2.176-.512 1.536-.896 3.072-.896 4.224-.64 0-.64.384-.64.64 0 .384-.128.896-.384 1.28l1.024 1.152a4.185 4.185 0 01-1.408 1.792c.384-.256.768-.256 1.024-.384s.384-.128.384-1.536l2.176-.256c.512 1.024-1.152-.896 1.664 2.816 0-.512 0-.768.128-1.664h-.128c.384-.64 1.664-2.688 1.664-2.688h1.536c.768-.64.64-.768.64-2.432h3.84v.256h.512c-.128-.768.256-2.048 3.2-2.944.896.128 2.688.512 2.688 1.92 0 .384-.64.896-1.408 1.408l1.408 1.024c0 .896-.896 1.152-2.176 1.408-.128 0-.256.128.896 1.408l-.64 1.536-1.024.256c-.256.384-.768.768-1.28 1.152-.512.384-1.024.896-1.024 2.176l-2.176 2.432a1.31 1.31 0 01-.768-.64h-2.048c-1.92 1.408-2.688 1.28-3.072 1.408-.384.256-.128.512-1.408.512.256.256.896.768 1.536.768-2.176 1.664-4.224 2.176-5.376 2.048l.896 1.664h-1.536v1.792s-3.84-1.28-3.84.64c-2.688.512-2.304.768-2.688 1.024-1.792.768-3.712 1.536-3.712 2.304-3.84 0-2.816 1.28-2.944 1.28-1.152-.128-1.664-.384-1.152-1.664-1.536 1.024-2.176 1.28-2.176-1.024.256-.256-.256-.64-.768-.768-.256 0-.512-.128-.768-.128.128.768-.256 1.664-2.304 1.664h-4.48c1.536-1.664 1.536-2.176 1.024-2.816-.384-.128-.896-.256-1.024-.256l-.256-.768h-.768c.896-3.584.896-5.504.896-7.552 0-1.92 0-3.712.896-6.144l-.128.256c0-.896.768-1.152 1.408-1.536.256-.128.256-.384-.384-1.024l1.536-1.408c0-.256-.256-.384-1.408-.384v-6.4c1.408 0 1.408-.256 1.792-.64l.512-.512c-1.152-1.408-.768-2.048-.512-2.56 0-.128-.128-.384-.512-.896l1.024-.896c-1.024-.64-.896-1.792-.64-2.944.128-.768.128-2.048-.768-3.2 0 0 .896 0 1.792.128.128-1.664.64-2.688 3.328.128v-.128c.896.768.64.896 1.536 1.664.896-.384 2.304-.384 3.968-.384v.384l8.192-1.152.896.128v-.256c1.024-3.456 6.528-2.176 6.272 2.688zm-2.56 66.432v-2.56s.384-.256.384-1.536c.896-3.968 1.664-9.472 1.664-10.88l1.408-2.048h-.64c1.024-2.048 1.28-3.328 1.664-5.504.128-.896.384-2.048.768-3.456l1.792-1.152 1.28-.256 1.024.128c2.176 0 1.28 3.072 1.28 3.072.256.384.896.896 1.152 1.152l-.64 1.792 1.408 1.664v1.024l.64.896v2.432l-1.408.128 1.408 1.152c-.512 1.92-2.176 11.904-2.304 14.208l11.52-4.352c1.664-1.664 5.504-4.096 7.552-1.92 1.408-.64 2.56-.768 3.456-.896 1.152-2.048 2.56-1.92 2.56-2.56 1.408 0 2.816.256 2.816.256 1.152-1.024 2.432-1.536 4.736-1.536.64 0 1.28.128 1.664.256.384.128.64.256.896.128.128-.384.768-1.536 3.2-1.664 1.92-.896 2.816-1.536 3.2.512.512 0 1.152.256 1.792.384 0 .128-.128.256.384.384.384-.512.896-1.152 1.792-1.792l2.688 2.432c-.512.512-1.024 1.152-1.28 1.664-.768 1.408-1.28 2.432-3.072 2.176-.512.64-1.536 1.28-2.816 1.664-.768.896-2.176 1.408-3.456 1.92-.512.256-1.024.384-2.304 1.664l-1.024-1.024c-.768.64-1.92 1.152-2.944 1.024-.512 1.28-2.048 1.152-3.328.768h.384c-.128 0-.256-.128-.384-.128v-.256l-.128.128c-.384-.384-.512-.128-.64 0h.128c-.768 1.28-1.792 2.048-2.816.768 0 .256-.128.64-.128.768-.256 1.664-.128 2.944-3.072.768-.128.768-.512 1.664-1.024 2.048-.384.384-1.152 1.408-1.792 2.432-.896-1.664-1.024-1.792-1.024-1.92-1.152.896-2.304 1.664-3.456-.256-1.024.768-2.176 1.664-3.2 2.304l-7.424 2.048h-1.536c-.128 0-.768.384-1.408.64h.128c-1.28.768-3.072 1.28-4.864.128-.64.128-1.28.256-1.792.512l-.896-1.024.384-.256c-.512-.128-1.152-.384-1.408-.768l-2.944 1.536v-3.712c-.128 0-.384-.128-.512-.128.512-.512-.512-1.024-.768-1.792-.512-1.152-.512-2.688 1.28-3.584zm28.16-59.904c0-.128-.128-.768-.256-1.408-.256-1.408-.64-2.944.64-4.224v.128c.896-1.024.896-2.432.896-4.224.896 0 .64-.384.512-1.024-.128-1.024-.896-2.176.256-2.56-.512-.64-1.28-1.28-1.536-1.536h4.608v-.768c4.096 4.224 4.224 8.32 3.968 11.136 0 .768-.128 2.048-.128 2.432-1.28 0-1.28 1.536-1.28 2.048.64.896 0 1.536-.256 2.176-.256.512-.512.768.384.768l2.048-.384.384-.384c.64-.64 1.28-1.408 2.56-1.152 1.408-1.024 2.944-.64 4.608-.512.512.128.896 0 .896-1.792.384 0 2.816-.512 3.328-.768l1.664-.512v-1.152h2.048c-.128 0-.256-.128-.256-.128l1.664-.768 1.024.768c.64.256.768-.256.768.256a33.628 33.628 0 002.56-2.176v.128c.256-.384.896-.64 1.792-.768.768-.768 2.944-2.944 3.328-1.664.64 0 1.408.256 2.048.384h1.792v1.792l.256.768c0 .64-.512 1.28-1.152 1.536l-.128-.128-.896 1.024c.128 0-.128.512-.256.768-1.024 1.408-2.048 2.56-3.072 1.792v.768l-2.048.256c0 .128.128.384.256.512-.128 0-.256 0-.64-.128l-.256 1.28h-.256l-1.408 1.28-.768-.256v.256c-2.048 0-1.92.384-2.432.64l.128-.128c-.384.256-1.024.512-1.536.64-.128 1.664-1.664 1.536-3.2 1.536-.384 0-.64 0-.896.256l-1.792 1.28-3.584 1.792-3.2 1.28-1.664 1.408-2.944.64c-.768.896-1.536 2.56-2.048 4.48v1.664s-1.408 0-1.408 1.408c-1.792 0-2.304 1.024-2.56 1.92-.256.768-.512 1.408-1.28 2.304-1.792 0-6.912-1.792-6.144-2.944h-.128c.512-3.584.768-6.4 1.024-9.344l.128.256c-.896-2.432-.256-3.84 1.792-4.48-.64-.64-.512-1.152-.256-1.792.128-.384.128-.896-.256-1.408.256-.256 1.024-1.536.512-2.176h-1.92c0-2.56.896-2.304 2.432-1.664 0-.896.768-1.152 1.536-1.408zm-36.736-2.688l-3.456.512c-.256.128-.512.256-.64.256-.128.128-.256.256-.256.512h-1.152l1.792 1.792c-3.584.768-3.84 3.712-4.096 6.656-.256 2.176-.512 4.096-1.792 6.016-.384.512-.256 2.304 0 3.2.128.512.256 1.024.256 1.536 0 1.024-.128 1.792-.256 2.688-.256 1.152-.384 2.048-.256 3.072 3.328 0 4.736-1.536 6.144-3.072.896-1.024 2.176-2.304 3.584-2.944-.384-.256-.512-.512-.512-.768-.128-.256-.128.128-.128-1.152-.128-.384-.128-1.024-.128-1.024s-2.048-3.328-.64-3.328c-.64-1.536.256-2.176 1.024-2.944.384-.384.768-.896.128-2.048 0-.64.512-1.408.896-2.048l2.688-5.248c-.256-.256-.384-.64-.384-1.024h-.768c.128-.64.256-1.024.128-1.024l-2.176.384zm19.968 47.488h-.512c.128.896.512.512.512.512v-.512zm-6.4-1.92h-1.536l1.664.256c-.128-.128-.128-.256-.128-.256zm3.968-25.472c0 .256.256.64.768 1.024a4.196 4.196 0 01-.768-1.024zM459.186 21v-3.2c3.2 0 3.328.64 3.328 1.664l.512-.768c4.608 3.456 6.016 7.296 6.016 11.392 0 3.456-.64 6.912-1.28 10.752-.768.896-.64 2.56-.384 4.736.128 1.28.384 1.664.384 4.992h-1.28c.256.768.256 1.536.128 2.432-.128.384-.384-1.664-.384 3.584h-.768c.384.384.64.768.896.896-2.176 1.024-1.536 2.56-.896 3.968.256.768.768-.384.768 2.688h-1.408c.384 1.408-.128 3.328-1.024 4.608h1.536l-2.048 2.176v2.944h-1.536c-.128 3.712-1.024 9.984-7.04 13.952-1.28-4.48-.768-4.992 0-5.632l1.536-24.704v-9.216l-6.016 3.072v-.384c-2.432 1.92-5.504 3.2-8.448 4.352-5.888 2.56-11.904 4.992-9.856 13.184-.896 0-.768.256-.768.64.128.64.512.512.512 2.432-.64 0-.512.256-.512.64.128.384.256 1.664.384 1.92-1.28.768-.896 2.048-.512 3.456.256 1.536.384 3.456-3.328 5.504v-1.152c-2.048 1.024-4.48 1.024-6.016-2.048v-3.072l1.536-25.344 1.536-22.528v-4.352c-.64-1.152.128-1.92 1.152-2.432.128 0 .256-.256.256-.64 0 0 2.432-4.864 5.248-1.92l1.792 2.048c-.512.512-.128.512-.128.512v1.664h1.152c1.152 1.152.512 2.304-.128 3.072-.384.512-.896 1.28.64 1.92 0 2.944-.128 8.576-1.664 11.776 1.024 1.28.512 2.048 0 2.944-.384.64-.64 1.152 0 1.92V46.6l.64.384c1.152-.384 2.432-.64 3.712-.64l6.272-4.48v2.56c1.152-1.408 2.944-2.816 7.296-5.12v1.664h.128l3.712-2.816 1.28 2.176c1.536-3.328 1.28-7.168 1.152-11.264-.128-1.408 0-3.456 1.024-7.808l.896-.256zm-51.456 5.888v6.4s-.128.896-.896 1.664l.256.384c-.256.128-.256 1.152-.256 2.176 0 .896 0 1.792-.384 2.688h.64l.512.896c-1.792.896-1.92 2.688-2.048 4.736-.128 1.28-.256 2.816-1.024 4.352l-2.048 3.2c-1.152 1.92-2.304 3.584-2.304 5.76-.768.64-.768 1.792-.768 2.816 0 1.152-.128 2.432-1.152 3.456-1.152 1.28-1.408 4.48-1.664 6.912-.128 1.664-.256 3.584-1.024 5.12h-1.408v4.736h-1.152c.128.384.256.768-.64 2.816h-.512c-.896 1.536-1.536 2.944-6.016 5.248 0-1.664-.128-2.304-.384-2.56-.512-.896-1.28-1.664-.384-2.56-.768-.768-.384-2.304-.64-2.688-.384-.768-.768-1.92 0-2.816.512-.896.64-2.56.768-4.096.128-2.048.256-4.096 1.792-6.144-.512-3.584.64-7.04 2.432-10.496.896-1.792 1.792-3.712 2.304-6.016.768-.768.768-1.792.768-2.816 0-1.152-.128-2.048.896-2.304.512-1.92 1.408-3.84 2.432-5.632 1.28-2.432 2.688-4.608 2.048-8.064-.896.128-1.408.384-2.304.64-5.376 1.408-11.904 3.072-17.024 6.656h-6.272v-6.528c1.152-1.92 2.944-1.92 4.992-1.92 1.024 0 2.176 0 2.944-1.408l.64.128c.768-.64 1.664-.64 2.688-.896.256 0 .64-.256 2.048-1.664l.768.768c.896 0 1.152-.128 1.408-.256.896-.256 1.664-.64 2.56-.64.384-1.792 1.536-1.536 3.2-1.92l5.12-1.792-.64.512.64.128c0 .128-.128.256-.128.384l.512-.384.256.128c.128-.128.256-.384.256-.512 1.28-.384 2.688.128 4.224.64 1.024.384 1.92.768 3.968.768zm139.297-.384v3.072l-1.408 1.152c.64.896 1.024 1.792 1.152 2.688.256 1.28.256 3.2.256 4.992-1.152 0-1.152 1.152 0 2.048 0 .384-.256 1.28-.384 1.92-.256.896-.512 1.664-.896 1.792 1.28 0 2.688-.768 3.84-1.536l2.176-1.152c1.024-2.048 2.304-2.56 4.224-3.456v.128l2.304-1.28c1.152.768 1.664.256 2.304-.384.64-.64-.768-.64 4.48-1.792 1.28-.256 2.816-.384 4.48-.384l3.2-1.664h.768c0 .768.128.768.256 1.024 0 .256.128.384.128.64.128-.128.256-.256.512-.256.128-.128.384-.256 2.048-1.92v.768h3.968s0 2.176-2.816 4.608l-.256-.128c-.64 1.024-2.432 1.024-2.432 1.024-.896 0-1.28 0-1.536-.256.128.64.128 1.28.128 1.28l-16.256 8.576c-2.688.64-4.48 2.816-6.144 4.736-1.28 1.28-2.56 2.56-4.096 3.456v1.792c-1.536 0-1.536 2.048-1.536 2.048h-2.432c0 .256.128.384.256.512.384.64.64 1.152.128 1.792l.768-.768v5.376c-2.176 4.48-4.096 2.688-6.144.64h-2.048c0-7.04 1.152-13.696 2.176-19.84.896-5.504 1.92-11.904 2.048-16.896-1.024-1.664-1.152-4.608.128-7.552l3.072 1.408c.896.384 2.432.896 3.584 1.792zM525.651 80.52v1.024c3.456 2.176-1.152 7.04-.512 11.392.256 1.408.128 3.072-2.176 4.096v.128c1.408 0 1.408-.128 1.152-.384.384.256.896.384 1.024.64l.384-.256c1.408-.896 3.2-1.792 4.608-1.408 2.688-1.408 4.864-2.688 8.704-2.816 2.56-.896 3.328-1.152 4.352-1.408 1.024-.128 2.432-.384 3.328-.384 0-.128.128-.384.128-.512l5.248-1.792c-.384.384-.64.64 4.48-1.536 2.688-.64 3.456.128 3.712 1.152.384-.896 1.024-1.92 2.176-3.072 2.176 1.792 1.536 2.56 1.024 3.328-.128.128-.128.128 2.56.128-1.024 1.024-1.664 1.92-1.92 2.432-.64 1.28-1.28 2.304-2.688 2.176-1.792 1.536-2.688 1.536-3.712 1.536-.384 0-.64 0-.768.128l-4.224 2.56v1.536c-1.408-1.408-2.816-.512-2.816.512l-1.024-.768-.896.64c-.512-.384-1.664.128-2.688.64h.128c-.384.256-1.024.64-1.408.768-.896.768-2.432.896-3.584.896l-2.176.768c-3.328 1.92-1.92-.128-3.328-.128-1.152 2.304-1.28 1.024-3.328 2.048-.896.512-1.664.768-2.432.768-5.248 0-7.936 4.608-9.216 1.024h.128c-.896-.64-1.792-1.024-2.176-1.024-1.152 0-2.048-.896-2.816-1.792.512.64-1.92-2.304-.384-5.376.64-1.152 1.28-2.56.512-4.736.768-.64 1.152-2.048 1.536-3.456.256-1.28.384-2.432 1.408-3.456v-1.408l.768-.768c-1.664-.512.512-2.048.512-2.048v-4.608c4.096 0 4.608.896 5.504 1.792.256.384.512.768.896 1.024zM504.019 3.592h6.016l-3.328 3.328.768.512h1.792c0 .256.128.768.256 1.152.384 1.536.64 3.584-.64 6.144h-.256l.64.512c0 1.408-.384 1.408-1.024 1.792l-1.792 1.28c.768.128 1.408.256 1.408 1.28v1.536c-.256.256-.384.512-.64.64h.768l1.152.256c1.024 2.048-.384 3.072-1.408 3.712-.256.128-.384.256.896 1.536 0 0-2.816 0-2.304.384.896 1.664-.384 3.072-1.536 4.224-.512.512-.768.896-.512 1.024.512 0 .64.128 1.024.256.128.128.384.128-.128-.896l1.92-.64c1.28 1.152 2.56.64 3.712-.128 1.28-.512 2.432-1.28 3.968-.64l1.408-1.664 1.28 1.408.512-.256v-1.152l2.176-.256c.384.896.768.768 1.28.512.64-.256 1.408-.512 2.048-.512 0-.896.384-1.28.896-1.536 1.408 0 2.432-.128 2.944-.512l1.792.768c-.384.512-.384.64-.384.64.512 0 1.28.256 1.664.256.64.128 1.408.128 1.408-1.152h4.352l-2.048 2.432-.512.384c-1.536 1.28-2.688 2.944-4.352 1.92-2.048 2.048-5.632 2.304-8.96 2.56-1.792.128-3.456.384-4.864.896l.512-.128L513.747 37c-1.152.768-2.048.896-3.712 3.456-1.792-1.024-2.816-.256-3.712.384-.768.768-1.792 1.664-3.456 1.792-2.688.768-6.016 2.688-8.192 3.968l-3.2 1.536c-3.2 0-6.528 0-8.448-1.792 2.048-4.352 5.76-6.016 8.96-7.936 3.584-1.92 6.912-3.712 7.68-9.088.768-.768.768-1.536.768-2.176 0-.896 0-1.792.768-3.328v-2.304h-.256c0-.256.128-.64.256-.896v-.768c0 .128 0 .128.128.128.768-3.2 1.024-5.376 1.408-7.68l1.28-8.704zm9.472 71.808v1.408c.384.512 1.152 1.152 1.408 1.536l-1.28 1.28c.512 1.024-.384 1.536-1.28 2.048h.128c-.128.128-.384.256-.512.768l-2.432-.128c0-.256.256 2.048 0 2.304-.512.128-1.024.128-1.664-.384l-.768.128-1.152 1.408c-1.408 1.152-2.048.768-2.944.128.128 0-.256-.128-1.792-2.816h-.896c-1.408-1.152-1.408-2.432-1.408-3.456 0-.896 0-1.92-.64-2.688 0-5.376-.128-11.008 2.944-14.08.128-2.688 1.408-4.48 2.688-6.144.256-.512.896-1.408 1.664-2.944 2.56 0 5.12 0 5.12 2.176v1.536c.64.384 1.408.64 2.816.64 0 .64 0 1.536-.128 1.92-.128 1.024-.512 2.304.64 2.304l.512 1.152c-1.152.512-.64 1.408-.128 2.304.384.768.768 1.792.384 2.688v1.408l-1.28.64h1.152c.128.512 0 1.024-.64 1.28.512.768.128 1.536-.384 2.176-.256.384-.512 1.024-.128 1.408zm-3.072-12.032l-2.176-3.328.512-1.28h-.256c-1.152 2.304-2.048 4.992-2.048 8.832h-1.408v.256h.768l.512 1.024c-1.536.768-1.792 2.048-1.92 3.2-.128.64-.128 1.28-.64 2.048 0 1.664.128 4.352.768 5.888 1.152-.896 2.944-2.56 4.096-3.712l1.024-1.024c0-.256-.128-.64-.128-1.152-.64-1.024-.64-2.688-.384-4.352.128-1.152.384-1.664.384-3.328l.64-2.816.256-.256zm15.232 18.176l-.256.256c-1.536-1.408.256-.256.256-.256zM504.915 22.28c-.384-.256-.896-.384-1.408-.512.512.384 1.024.512 1.408.512zm67.968 14.592c0 .128 0 .128.128.256V37s0-.128-.128-.128zm75.648 6.272l-.512.384c.384.896.512 2.048.512 2.048v8.32c0 6.656-.128 15.744-.896 20.48.256-.128.384-.256.384-.256l5.632-.384-.512-.64c1.664-1.664 3.328-1.664 4.224-.768.896-.256 2.048-.128 2.688 0 .384.128.768.128 1.28.128.256.256.512.128.768 0 .64-.128.64-1.024 1.28-.384.512-.384 1.664-.128 2.432.384.128.128.256.256.512 0h4.48c4.096.128 1.536.768 2.176 1.024 0 .128.128.128.128.128.128 0 .512-.128.896-.256 1.28-.384 2.176-.768 3.328 0 1.152 0 2.56.64 3.84 1.152 1.024.512 2.048 1.024 3.072.512h4.736l-1.024.896c.512 0 1.024-.128 1.536-.128V75.4l2.048-.256c1.536 3.072 1.408 4.736-.256 4.864-1.408.512-2.816.256-3.84.128-.256-.128-.384 0-1.024 1.024-2.048 0-1.792-.128-2.304-.256-.896-.128-1.92-.384-2.688.256-.896 0-1.408.128-1.92.256-1.28.384-2.56.896-3.84.256-1.664.768-4.224.768-5.76.768-1.152.768-2.304 1.024-3.456.128-7.808 1.408-15.744 2.56-23.68 3.968l-14.848 2.688h.256c-2.432 1.28-5.76 2.304-9.728 2.432-.768.768-3.072 2.816-3.456 1.28-3.584-1.408-3.968-3.328-4.224-5.76-.128-1.024-.256-2.048-.768-3.84.896-.256 1.152-.384 1.408-.64 2.304-1.152 5.76-2.56 8.064-2.56.512-1.152.512-3.072.384-4.736-.128-1.408-.256-3.072.384-4.352l.512-18.176c1.024 0 .896 0 .896-.128-.256-.384-.896-.896.128-1.152.384-2.048 1.28-4.992 1.664-6.912 4.992 2.432 6.528 6.016 6.528 9.984 0 1.664-.128 3.584-.384 5.12l-1.92 17.664c1.664-.384 3.2-.512 5.12-.768 2.048-.256 3.2-.384 4.992-.896.512-2.048.64-5.888.896-9.856.256-4.096.512-9.856 1.28-11.904.128-1.152.384-2.56.768-3.456.128-.256.256-.256.256-.64h-1.28l.896-2.56h-.64c0-1.92.512-3.072.896-3.712.128-.128.128-.256.128-.64 0-.896.256-1.536.768-2.304-.896-3.072 3.84-2.944 6.784 2.432zm16.512-23.04l-.128-.256c.896 2.688.256 4.352-.256 6.144-.384 1.28-.768 2.432-.768 3.84v1.536l-1.28 1.152c1.408 2.432 0 7.424-1.28 9.856.768 1.92.512 3.84.256 4.992-.128.512-.256 1.024-.256 1.92h-.896c.128.512-.256 1.024-.512 1.536v-.128c-.128.512-.384.896-.128 1.408l-.384.256c.384.64.64 1.664.64 3.328-.896-.64-1.28-1.28-1.28-1.664v1.536h.768l-.768.768v1.92l-.896-1.024-1.664 1.664v.512h-.512l-.64.512V59.4c-1.92-.128-1.92-.64-1.92-1.28 0 0 0-.128-.512-.128 0-1.28.64-2.048.64-2.048l-.64-.896c0-2.432 0-3.84 1.024-6.4 0-4.992.128-8.96 1.408-13.824.768-6.528 1.664-12.288 2.432-18.816l-2.304.768-25.856 6.784c.384.64.512 1.536-1.408 1.536-.256 0-.256.128-.512.128-2.304.384-5.76.768-5.76-3.2 0-2.944 2.048-3.328 4.096-3.712.384 0 .64 0 1.152-.384.768-1.28 2.432-1.536 4.096-1.536.768 0 1.664 0 2.048-.896 1.92-1.024 5.12-1.664 7.936-2.304 2.176-.384 4.352-.896 5.76-1.536.512 0 2.304-.512 3.968-1.152 1.536-.384-1.408-1.024 3.712-1.152.768-.64 1.92-.896 3.2-1.28.512-.128 1.28-.64 1.92-1.408 5.888 1.536 5.76 6.272 5.632 10.752 0 .896-.128 1.792-.128 2.688zm40.3-12.544l-.128-.128c0 .128 0 .384.128.512.64-.128 1.152-.128 1.92-.128h1.536a4.12 4.12 0 011.664-1.024v.128c.64-.256 1.28-.64.256-2.816h3.2c1.408-1.152 2.816 0 4.096 1.536.768.896 1.536 1.92 2.944 2.56v8.96c-1.28 2.56-2.432 4.992-2.432 10.368-.512-.384-.64-.768-.64-1.536-.128.256-.256.384-.64.384v.768c.128 0 .384.128.512.128 0 0-.384 2.432-1.664 3.712l.384.384 4.096-1.536c3.84-1.28 6.144-2.176 10.496-2.944.128-1.792 1.92-1.792 3.84-2.048.64 0 1.28-.128 2.432-1.024v-1.024c.896 0 2.176.128 2.176.128.896-.896 2.048-.64 3.2-.512.384.128.64.256 1.024-.896 1.024 0 2.176 0 2.176-.384 1.152-1.536 2.048-1.152 2.944-.64-.128-.256-.256-.64-.256-1.408 3.072 0 2.56.512 3.2.896.512.384.64.896 3.328 0l-1.152 2.56.128-.128c-.256 1.408-.256 2.816-2.304 2.176-.384.256-.896.256-1.536.256-.128 0-.256 0-.512.128-.256 1.408-4.48 4.096-4.48 4.096h-.64c-.128 1.408-1.28 1.664-2.304 1.792-3.2-.256-2.688 1.024-2.816 1.152-.768 1.408-1.408 2.816-3.328 1.664-.768.512-1.408.384-2.176.384-.128 0-.256 0-.64 1.024-3.84 1.792-7.68 2.816-11.52 4.096-4.736 1.408-10.752 3.456-15.616 6.144h-4.864c-1.28-1.152-1.408-1.92-1.664-2.944-.128 1.28-.512 3.072-1.792 4.352-3.2 0-3.84-1.152-4.48-2.56a5.59 5.59 0 00-1.28-1.92c.64-1.152.64-2.304.64-3.712 0-1.28 0-2.432.768-3.968 0-1.152.128-2.944.512-4.352.256-1.536.64-3.072.64-4.352 2.56-8.832 2.56-16.64 2.56-25.856 6.528 1.664 7.296 4.864 8.064 7.552zm16.384 57.984h-.384c.256-.256.896-.384 1.792-.384-1.152-.384-1.536-.128-2.048 0h.128a4.179 4.179 0 01-1.536.256c-.512 0-1.408.384-1.92.512-.64.512-1.536.64-2.816.64-9.344 2.56-16.384 5.376-24.448 9.216l-1.664-1.664c-2.176 0-2.176-.512-2.176-1.28v-.256c0-.384 0-.256-.64-.384-1.28-.128-2.816-.768-3.84-2.56 3.84-2.304 4.096-2.176 5.376-2.816 1.536-.64 3.2-1.28 6.016-3.2.384.512.64.256.896 0 1.024-1.024 2.176-2.048 3.456-.768 1.28-.256 2.432-.896 3.712-1.792 1.664-.896 3.328-1.792 5.376-1.92.128 0 .512-.128.64-.256 2.048-.896 4.224-1.92 5.376-1.536 1.152-.64 3.328-.768 4.608-.768.256-.256.64-.512.64-.768 0 0 .256.128 1.408.128v-1.408l2.176-.256c.256.384.384.256.384.256.64-.512 1.28-1.152 2.176-1.024 1.408-1.536 3.2-1.024 4.864-.512.768.256 1.536.256 2.048-1.024l2.176.128 2.176-.896 1.152-1.152.128 1.792.768-1.408c5.376 2.56 6.656-5.248 8.448 1.28l-1.024 2.176c.384-.256.768-.512.768-1.024h4.352l-5.632 4.608c-2.176 0-2.304-.128-2.304-.128v1.408c-1.408.768-2.176 1.024-3.2 1.024-.384 0-.64 0-2.56 1.024v-.512c-1.28 0-3.712.128-6.016 2.56-.512 0-2.048-.128-2.56-.128-1.28-.128-2.432-.128-1.92 2.56 1.792.256 3.456.64 3.584.64v.768c0 1.408-.384 2.56-1.28 5.632 0 .64-.64.896-1.664 1.408.256 0 .512-.128.512 1.024 0 1.024-.128 1.792-.256 2.688-.384 2.176-.768 4.736-.512 5.12l-.896.384c0 .384 0 .896.256 1.664l-.128-.128c.384 1.152.768 2.816-.384 5.248l-.384-.128c.512.512.384 1.024-.64 1.92h-.768c-.128.64-.896 1.152-1.408 1.664.384-.256.512-.384 1.024-.384 1.28 2.304-.128 3.072-1.024 3.712-.128.128-.256.256.896 1.28h-7.04c0-.64 0-1.152.256-1.408-.768-.896-.64-1.408-.512-2.048.128-.512.256-1.152-1.152-1.792.896-2.944 1.024-5.248 1.28-7.296.384-2.432.768-4.864 1.408-6.784V77.32c.512-.896.384-1.792.256-2.176-.384-.64-.512-1.024 1.024-1.92v-.896l1.152-.64c-.512 0-.64-.896-.512-1.536.128-1.536.384-3.712 2.56-4.608zm-9.6 18.944l.128.384-1.408 5.12c-1.152 3.456-2.304 7.168-2.304 11.776-.384 0-.384.128-.384.256.128.768.256 1.92-1.024 2.816.128.384.384.512.64.896 1.536-.896 3.072-1.024 4.352-1.024.768 0 1.664 0 5.12-.64.512-.256 1.408-.64 1.792-1.024.768-.64 1.792-1.408 4.224-1.408l8.576-1.92v.64c.384-.256.896-.384 1.536-.64.896-.768 1.92-.64 2.816-.384.256.128.512 0 1.152-.896l.768.128v-.256c.896 0 2.304 0 2.56.128.384 0 1.024-.256 4.224-.128.512-.512 1.536-1.536 3.072-.64l2.688-1.152v.384c1.408-.256 2.944.384 2.944.384h2.048v.512l.384.256c.512 0 1.024.128 1.28.128s.768.128.896.128l.512 1.024-1.152.64h.256c-.512.512-.896.896-2.048.896-1.28.384-4.224 1.408-5.12 1.792v-1.152c-.256.256-.896.896-1.152 1.28-1.152 1.28-2.304 2.432-4.096 1.408l-2.304 2.432-.256-.256c-1.024.768-3.072.768-4.352.768l-.384-.512c-1.28 1.152-3.2 3.072-3.84 1.024l-7.68 2.944c-.384-.384-.64-.128-.896 0-.384.384-.768.768-1.536 1.024-1.536.896-3.968 1.536-5.76 1.92-2.304.512-4.48.896-6.656 3.2h-2.56c-.896.64-1.792.384-2.688.256-.128 0-.256 0-1.152 1.536l-9.472-6.144c0-2.432 0-6.016 1.536-8.96-.256-.64-.128-1.408.384-2.304.256-.768.64-1.664.64-2.688h1.28l-2.048-1.792h1.92c-.128-.512-.512-1.024.256-1.792v-2.688l1.024-1.152c-.512-1.28.128-1.792.512-2.688.256-.256.512-.64.256-.768l.384-.896c-.384-1.28.128-2.304.64-3.072.256-.256.384-.512.768-1.28 0-1.024.384-1.792 2.56-3.84 1.536 1.536 1.792 1.792 2.048 1.92 1.408 1.152 3.328 2.304 4.096 4.096zm-11.264-47.104l-.128.128c7.168-2.432 8.448-8.832 9.728-15.36.64-3.2 1.408-6.656 2.944-9.728l-.512-.64c-.128 0-.256.256-.256.256-2.944 1.152-5.888 2.304-7.808 5.12.64 1.792 0 3.072-.64 4.608-.384.896-.768 1.792-.768 3.072s0 1.28-1.152 2.688c-.64.384-.512.896-.256 1.28.64 1.024 2.048 1.536.256 1.536v.64c0 .64-.256 1.408-.512 2.304-.384 1.152-.896 2.56-.896 4.096zm126.569 2.176l-.384.64 1.28-.64.128.128v-1.28h1.664c1.792-2.048 2.304-1.92 2.432-1.024.384 0 .64 0 .896-.128.384 0 .768-.128.768-1.28h3.968l4.224-4.224v.896c1.152 0 1.92.128 2.304.384l.384-.384h1.408l2.432-.768.384-.128 2.304-9.6c3.712 0 4.48.768 5.504 1.28-.128 0-.256-.128 2.176-.128-.896 1.024-1.024 1.28-1.024 1.28.384.384.768.896.384 1.792.384 1.28.256 2.56 0 3.456-.256.768-.512 1.536 0 2.048a96.145 96.145 0 00-1.152 7.808c-.256 2.432-.512 4.736-1.152 7.168-.512.896-.256 2.944 0 4.224.256 1.408.512 2.944-.256 4.608h-.896c1.152 1.28.512 2.944.128 4.096a10.986 10.986 0 00-.256 1.024v.512c1.152.256.512.896-.128 1.664-.128.256-.384.64-.256.896l-.768.384c-.128.512-.256.896-.256 1.28-.256.768-.512 1.28.384 2.176-1.536.768-1.28 1.408-.896 1.92.384.64.768 1.28.768 1.664l-2.048 1.024c.768 1.28.512 2.56 0 3.456-.384.64-.64 1.28-.128 2.56l-.384.384h.384c0 2.304-1.152 2.56-2.304 2.816v.256l-2.176.256c-1.536-2.944-1.536-6.272-1.536-7.424l1.152-21.76 1.024-14.976c-1.536.512-3.2 1.28-4.992 1.92h.128l-5.504 1.92c-1.024.896-2.56 1.792-3.84 2.432v-.128c-.768.512-1.536.768-2.688 1.92 4.224 2.432-1.792 1.408-1.664 1.408-.384-.128-.768-.256-3.2 2.304 0-2.944-.128-3.072-.128-3.2v.128c-.128-.384-.256-.896-.256-1.28h-.64L825 44.168h-1.92c1.28-1.28 1.28-1.28 1.408-1.536 0-.128.256-.384.64-.768h-.256l1.28-1.152s.128-.128.512-.256l.768-.896zm-18.944-8.064l1.664 1.664v16.128c0 .512-.128 1.024-.256 1.536-.128.64-.384 1.408.256 1.408L809 66.568v.128l1.024-.128c2.176-1.28 2.816-1.92 3.584-2.56.768-.768 1.408-1.536 3.84-1.536.512.256 1.024-.256 1.536-.64.768-.64 1.536-1.152 2.56-1.024 0-.128.256-.256.512 0 .384-.64.768-1.024 1.024-1.536l.512.128c.768-.768 1.92-.512 3.072-.512-.896-2.944 2.304-1.92 3.584-1.92.64-.128 1.408-1.152 1.536-.768-.512-4.992 3.072 1.536 3.072 1.664 0 .128 0 .128 1.792.128l-4.992 3.328h.128c-1.024 1.024-3.328 2.944-4.864 3.456-2.432 1.536-4.992 2.688-7.04 3.584-2.176.896-4.48 1.664-6.784 3.584-1.408 0-2.304.384-3.2.512-1.28.512-3.84.896-5.376.896v2.176c-.512-.384-2.816-2.048-3.2-2.432h.128c-1.024-.64-1.664-.896-1.792-1.664a24.016 24.016 0 01-.896-6.4c0-1.792.256-3.584.896-5.376l1.152-21.888c.64-1.152.64-2.304.64-3.328s0-1.92 1.024-3.072h.768c1.024-1.28 5.248.128 5.248.128zm33.92 1.92v.384c.128 0 .256-.128.384-.256-.128.128-.384.128-.384-.128zM913.13 63.88c.128-1.152.512-1.664 4.48-1.664 0 2.048.256 2.816.512 3.072.384.64.768.384.768 4.224l-1.28-1.28v2.944c-3.456-1.664-3.456-1.28-3.712-1.152v-.128c-.384.256-.896.384-1.664.384v2.56c-1.408 0-2.304-.128-2.688-.256l-.896.64c-.256.128-.384.256-1.792 1.792l-.896-.768c-.512.768-1.408 1.28-2.432 1.408l-1.28 1.28-17.152 5.632c-1.408-.64-2.56-.768-3.072-.896-1.92-.128-3.84-.64-4.864-2.688v-6.016s1.664-.384 2.176-.64h-.128l1.92-1.28c-4.224-2.56-4.224-6.784-3.84-10.88.128-1.92.256-4.736-.128-6.784l1.28-16.256c.512-.896.64-2.048.768-3.2.256-2.176.64-4.736 3.968-6.912 3.328 0 3.456 1.664 3.968 3.2.128.384.128.64-.128 1.024l.896-.256c.384 0 1.024-.256 1.792-.768.512-.256.64-.512 2.176-.512h4.096l4.224-.768c.768.256 1.536.384 2.432 1.28 0 1.152 0 3.584 1.792 3.584-1.024 1.408-.384 4.096.256 5.376.512 1.024 1.408 2.688.64 3.584-.64 1.152-1.536 2.176-2.176 2.816-.256.256-.512.384-.512 1.024 0 0 .128 1.664-1.28 1.664.128.384.512.768.768 1.024.768.768 1.28 1.408.64 1.792.256 1.28-.512 2.432-1.28 3.328-.128.384-.512 1.152-.128 1.664l-2.304 2.432c2.304.896 1.792 1.28 1.024 1.792-.64.384-1.408.768-1.408 1.792 0 0-1.408 0-1.408.768v2.56l1.792-.896c.768.768 1.28.768 1.024 1.024l2.56-1.408v.512c.64-.256 1.664-.256 2.56-.256.128 0 .384 0 .512-.256h2.176c.128.512.512 1.152.896.768h.128l-.64-.64c0-2.176 2.688-1.92 4.864-.384zm35.584-37.504c-.768 2.688-1.024 6.144-1.408 9.472-.384 3.456-.768 6.784-1.28 9.472 0 1.92-.256 4.224-1.408 5.504 0 .256.128.512.256.64.256.512.256 1.536-.768 2.432h-.768c0 .768 0 1.664.128 2.432.256 2.944.384 5.632-1.536 7.936.384.896 1.408 2.56 0 3.2 0 1.408-.128 3.328-1.408 4.864 0 .896-.512 1.664-.896 2.432-.128.64-.384 1.152-.384 1.92-5.248 2.432-5.248-2.688-5.248-4.352l2.688-28.416v-6.784c-4.608 2.432-9.856 4.992-14.464 7.296h.256c-1.92 1.536-5.12 4.096-7.552 5.888l-.384 1.024c-4.736 0-4.608-1.92-4.48-4.224.128-1.152.128-2.304-.384-3.328.512-.512.512-1.152.384-1.664-.256-1.408-.384-2.56 2.048-2.048l.768-.512c.128.128.512-.128.768-.256.64-.384.768-.64 1.664-.64.384-.896 1.28-.768 2.304-.768 0 0 .128 0 1.664-1.92.64-1.152 1.024-2.816 3.2-.896.512 0 .64-.256.64-1.28 0 0 2.048-.256 2.56-.384h-.128c1.536-.64 2.688-1.664 2.816.384h3.456c.128-.384.128-1.28.128-2.048 0-1.024 0-2.176 1.92-4.096l.64.512c.384-.512 1.024-1.024 1.664-1.536.384-.256.256-.256.64-.64 1.408-3.328 3.84-7.552 5.12-10.88.384.512 1.92.64 2.432 1.152 2.304 2.304 5.376 5.76 4.352 10.112zm-64.896 42.368c0 .512.256 1.024.128 1.664l1.152-.64c.768-.384 1.408-.64.768-1.664l.896-.512c.128-.512.384-.768.896-1.28.128-.128.384-.256.384-.768 2.56-5.632 4.096-10.88 5.888-16.256.512-1.664 1.152-3.968 2.304-7.04l-.128.256v-7.04l-5.504 1.92.128.384c-1.024.256-2.688 2.048-4.224 3.456 0 1.536-.384 3.072-.768 4.224-.384.768-.64 2.048-.64 3.712.64 2.048.64 4.096.64 6.144s0 4.224.768 6.272l-1.28 1.28c.768 1.408-.256 2.816-1.408 3.968l.128.64c-.512.128-.384.768-.128 1.28zm29.44-4.992l-.128.128h.128v-.128zm74.783-52.864c.64-.256 1.536-.768 2.688-.384v-.64c4.864 2.176 2.816 4.736 1.408 6.272 1.024.768.512 1.664.128 2.304l-.256.256c-1.536.768-2.688 2.688-3.712 4.352a89.626 89.626 0 01-1.536 2.176c-.896 0-1.024.512-1.152.896-.512 1.28-.896 2.304-2.176 2.56-.512 1.024-1.92 2.56-3.2 3.456-1.152 1.664-1.92 2.432-2.432 3.456-.512.896-1.28 2.048-2.816 2.688v.896c0 1.28-.896 1.28-1.664 1.28.256.128.512.128.512.512l-.512-.256c.256.256.512.64.512 1.024l-2.304 2.56c1.408-.768 1.536-.64 2.304-1.024 2.176-.896 4.736-1.92 7.68-3.84l1.28 1.408c.896-1.28 2.176-2.688 3.712-1.92 1.024-1.28 2.944-1.92 3.84-.384h1.792c0 1.408.896 2.432.896 2.432v1.28c.768 0 .768.128.768.128 0 .64-.256 1.28-1.024 2.176l-2.56 4.096-.512 1.664-.384.384h.384c0 1.152-1.024 2.176-2.304 2.56h.128c-.64.128-1.408.512-1.536 1.408h-.256c-.768 2.944-2.944 5.76-5.12 8.192h.256l-4.096 3.968c.256.256.768.768.896 1.024h-.128c.128.384.384.64.512.896.384-.512.128-1.152.768-1.92 1.152-1.792 2.688-3.456 4.736-2.176h.256c-.256 0-.256-.128-.256-.64 2.048 0 3.072.128 3.712.256.64.128 1.28.256 2.048.256l-1.152-1.024 4.992-2.816c1.28-.256 2.816-.256 3.84-.256 0 2.176.64 2.432 1.408 2.816.64.384 1.791.896 2.181 1.28 0 1.28-.645 2.048-1.157 2.688-.384.512-.768 1.024-.128 2.432l-.64.768.384.768c-1.28.768-1.792 1.92-2.304 3.072l-1.152 1.792-.896.768c1.152 1.28-.64 3.072-2.176 4.352h.128l-1.792 1.92-.256-.128-.64.512h.128c-.256.256-.384.384-.384.896l-2.944 2.816c-.64 0-.896.256-1.024.512-.512.512-.768.768-2.816.768-.256.512-.512 1.024-.64 1.536-.512 1.024-.128 1.92-1.664 1.92l-2.304 2.56h-.512l1.024 1.664-1.28.512v.128c.512-.256 1.152-.256 1.792-.512.512-.128 1.28-.512 2.048-1.792 2.048 0 3.072-.64 4.096-1.408 1.28-.896 2.944-1.792 5.12-1.28l1.664-.768c1.408-.64 3.072-1.408 3.456-2.304l1.28.256c0-.128.256-.384.256-.512l2.048.256v.384c1.285-.896 2.945-1.664 4.865-1.92v-1.28c1.66 0 2.43.128 2.82.512h.76c1.16-1.024 2.18-1.664 3.72-1.664h2.04l.13.128.64-1.152 2.18.256 2.3.256c.64-.128 1.28.128 2.18.64h.25l.26-1.28c2.3.256 2.3 2.048 2.3 3.584h-4.09c.13.64.51 1.28 2.05 1.536-1.03.512-1.8.896-1.8 1.28h-.89l-.77.896h-.64c-.51 2.304-3.84 2.688-6.91 2.944-1.15.128-2.18.256-3.33.512l-5.63 3.712V97.8c-.9.256-2.051.256-3.075.256s-2.176 0-5.376 3.2v-.64c-1.92 1.408-4.48 2.176-7.04 3.072-1.792.512-3.584 1.024-4.608 1.536h.384c-.512.512-1.92.768-3.2.896-1.28.128-2.56.256-3.328 1.536 0 0-2.176.896-2.176-.256-1.152.384-2.944.128-5.376-1.024l-1.92-2.688.768-.64-1.024-.512c-1.664-.64-3.456-.896-1.664-2.816.128-.64.768-1.792 1.536-2.688.512-.64 1.024-1.408 1.024-2.56h.256c1.792-1.792 2.432-2.688 3.072-3.456 1.408-1.92 2.944-4.224 6.272-5.888.128-1.536 2.048-2.56 3.584-3.584.64-.384 1.152-.768 1.152-1.152v-1.28c2.688-1.536 3.968-3.328 5.376-5.12.64-.768 1.152-1.408 1.92-2.048-.128 0-.256-.256-.384-.384 0 0 .128-.128.128-.256l-.128.128v-.128c-.128-.128-.128 0 0 .128l-2.048 1.92v-.64c-3.456 1.024-6.4 2.56-9.856 3.84-1.664.768-5.12 2.176-7.04 2.816v-1.28c-.64-.128-1.152-.128-1.536-.64-3.328 4.608-1.536-.256-2.816-2.432-1.152-1.152-.64-2.816-.128-4.096l1.024-2.048h1.152c.256-2.176 1.792-4.096 2.944-5.376.896-1.024 1.792-2.048 1.792-3.84 3.584-2.688 5.888-6.016 8.32-9.6.512-.64.896-1.408 1.408-2.176-.384-.128-.768-.512-1.024-1.024-3.2 2.176-6.528 4.096-10.88 5.12-1.536 0-2.048-.512-2.304-1.024 0 0-.128-.128.128-.256l-.512-.256-.384.384h-3.072l-.256-1.28c.384 0 .128-.64-.128-1.28-.384-1.024-.64-2.176.128-3.072-.512-.896.128-1.536.768-2.432.256-.256.512-.64.512-1.28.64-.64 1.024-1.28 1.536-2.176.64-1.152 1.408-2.432 2.432-2.944h-.256c2.048-3.2 4.224-5.248 6.528-7.424 1.408-1.28 3.2-2.688 4.608-4.736l-.128.128c.64-1.664 1.92-2.944 3.456-4.224 1.408-1.28 2.944-2.432 3.584-4.608h-1.92c-4.096 1.408-8.32 3.2-12.416 4.608v1.408c-.256 0-1.792.128-2.304.128-2.176.384-5.76.512-6.4-1.28-1.408 0-1.152-.256-.128-1.28 0 0 .128.256.128-1.664 3.84 1.152 5.632.256 7.552-.64l2.176-.896c2.816-.896 5.12-1.28 6.144-2.176 2.176-1.92 2.816-1.536 2.944-1.024l.64-.256 2.56-.128.512-.512c.512 0 1.536-.256 2.688-.896zm-12.416 85.888l.256-.256c-.128 0-.384.128-.512.128l.256.128z"/></svg>