<svg xmlns="http://www.w3.org/2000/svg" width="1024" height="126" fill="none" viewBox="0 0 1024 126"><path fill="#fff" d="M31.864 3.976L32.248 4.488C32.248 5.256 32.376 6.408 32.504 7.56C32.76 8.96799 32.888 11.016 32.888 12.68C32.888 14.216 32.76 15.24 32.248 16.264C32.248 17.032 32.12 18.44 31.992 19.208C31.736 21.384 31.352 23.688 32.248 25.48L30.968 28.04C31.608 28.808 31.608 29.448 31.224 29.96C31.096 29.96 30.968 27.656 30.968 33.416L29.56 32.136C29.816 33.16 30.072 34.184 29.304 35.848C29.304 35.848 30.968 37.768 29.56 37.768V38.792L28.28 44.04C28.664 44.424 29.688 44.552 29.688 44.552L28.792 48.392C27.768 52.232 27.128 55.304 27.128 58.376V59.528C28.024 60.808 27.768 62.6 27.256 64.264C26.872 65.672 26.488 66.952 27.128 68.872C25.848 70.152 25.336 70.152 24.568 70.152L25.848 71.432C24.056 73.096 23.032 72.328 21.88 72.2C22.648 72.456 23.032 72.584 23.032 73.352C21.624 73.352 20.6 73.48 19.704 73.736C17.4 74.248 15.224 75.016 13.816 73.352H13.048C13.048 73.352 10.104 74.12 10.104 72.84C10.104 72.84 10.104 72.968 9.976 72.712C8.184 73.992 7.544 72.84 6.904 71.432C6.776 71.048 6.648 70.664 6.392 70.792C3.32 70.792 4.216 70.28 4.6 69.64C4.6 69.512 4.472 69.384 3.064 69.384C4.216 67.336 3.448 66.952 2.808 66.44H2.936C1.912 65.8 0.888 64.904 0.888 63.368C1.528 62.6 1.528 61.832 1.272 61.064C1.144 60.552 0.888 61.448 0.888 59.016H2.168C2.552 55.304 5.88 53.512 9.08 51.72H9.208C9.592 51.464 10.488 50.952 11.384 50.184C11.896 48.904 13.432 48.392 14.584 48.648C14.712 48.392 15.096 48.392 16.504 48.392C16.376 47.368 17.4 46.856 18.68 46.216C18.68 46.216 18.808 45.96 19.32 45.192L19.96 37.64C20.216 34.952 20.472 32.136 20.6 28.936H21.88L23.16 17.8C22.52 16.776 22.904 15.752 23.16 14.984C23.544 13.704 23.928 12.296 23.16 10.888C24.568 9.48 24.568 8.58399 24.312 7.56C24.184 6.66399 23.928 5.63999 24.696 4.35999L27.512 2.952C28.536 3.464 28.536 3.20799 28.92 3.20799C29.944 3.20799 31.096 3.20799 31.864 3.976ZM40.184 72.2C41.08 71.688 41.976 71.048 43.384 71.432C44.664 70.536 45.56 70.024 46.328 70.28C46.584 69.896 47.48 69.512 49.784 69.512V69.64C49.912 69.64 50.04 69.64 50.168 69.512C50.04 69.384 50.04 69.128 50.04 69C50.168 68.872 50.424 68.616 51.192 68.232C51.064 68.232 51.32 67.976 51.704 67.592C52.856 66.312 53.496 66.952 54.136 67.464C54.136 67.336 54.264 66.952 54.904 66.312C56.184 69 56.696 68.872 57.336 69.256H57.208C59 70.152 60.152 71.432 59 73.096L59.768 73.992C59.256 77.448 57.08 80.776 54.904 83.848C53.368 85.896 51.832 88.456 50.68 91.784H49.656C49.528 92.68 48.888 93.192 48.376 93.704C47.992 94.088 47.736 94.344 47.736 95.24L47.48 94.856L49.528 97.8C53.368 101.512 57.848 105.096 61.944 108.168L62.584 108.808H62.328L66.424 111.368C67.32 111.88 68.216 112.392 69.112 113.032C70.648 113.288 72.056 113.928 72.824 114.952L73.848 113.928L74.872 116.872C75.768 116.872 76.536 117.256 77.048 117.64H78.328L78.2 119.944C77.176 119.944 76.152 120.2 75 120.84C74.36 121.096 73.592 121.352 72.952 120.712C72.056 120.968 71.416 120.84 71.032 120.072C70.52 119.688 70.008 119.176 70.008 119.176V119.048C68.728 119.944 68.344 119.048 67.576 117.768V117.64C67.448 117.512 67.192 117.128 67.192 117C64.76 116.616 62.456 115.208 60.92 114.184H60.792L59.896 113.544C59.512 113.544 59 113.416 58.872 113.416C56.696 111.88 55.032 110.856 53.88 110.216H54.008C51.96 108.808 50.936 108.04 49.784 106.888C48.632 106.504 48.248 105.352 48.248 105.352C47.224 104.328 46.328 103.304 45.56 102.152C44.536 100.872 44.408 100.488 43.384 99.464C42.104 100.616 40.952 102.152 39.8 103.56C38.648 105.096 37.496 106.632 35.704 107.528C35.448 108.68 34.296 109.576 33.272 110.088C33.144 110.216 33.272 109.96 32.376 110.728L30.712 112.392V112.52C30.84 112.648 31.096 112.648 31.48 112.648L27.128 117V116.104L25.72 115.976H21.752C22.776 113.928 21.368 113.928 20.728 113.928L20.344 112.904C21.112 112.392 21.112 112.008 20.984 111.624L21.112 111.752C20.984 111.24 20.728 110.6 21.624 109.704H22.52C22.52 109.192 22.904 108.424 23.544 107.784H24.952C23.928 107.272 24.056 107.144 24.184 107.144C24.312 106.12 25.208 105.48 26.232 104.712C26.744 104.456 27.128 104.2 27.128 102.664C27.128 102.664 28.408 102.664 27.384 101.64H29.176V101.128L34.68 95.112V95.24C39.672 89.992 44.28 85.256 47.992 77.832C45.688 78.088 43.512 78.856 41.976 79.624L42.616 79.368C41.848 80.776 40.056 80.776 38.776 80.776C38.648 80.776 38.52 80.776 39.032 81.8C34.296 81.8 31.48 80.52 30.2 76.936L33.016 75.528L32.888 75.656L37.24 72.712L37.496 73.352L38.648 72.456C39.288 72.712 39.8 72.456 40.184 72.2ZM70.392 11.272C72.056 11.144 73.976 10.76 74.232 13.32L75.128 13.192L77.176 16.904H75.768C76.024 17.8 75.896 18.824 75.64 19.848C75.256 21.384 74.872 22.792 75.64 24.456C74.104 25.096 74.104 26.632 74.104 27.912C74.104 29.32 73.976 30.728 72.824 31.24C72.824 32.008 72.952 32.264 73.08 32.392C73.336 32.904 73.464 33.544 72.696 34.952L71.672 35.336L72.184 36.36C72.824 37.64 73.208 39.048 71.672 38.536C71.544 39.176 71.288 40.072 70.904 40.584H71.672C71.672 41.864 71.16 42.888 70.776 43.656C70.52 44.168 70.264 44.68 70.264 45.192H68.984C70.264 46.728 69.624 47.368 68.856 48.52C68.344 49.16 67.832 50.312 67.704 51.72C68.216 52.616 67.96 53.384 67.576 54.024C67.32 54.536 67.064 54.92 68.472 56.328C65.912 56.328 65.912 56.712 66.04 57.352C64.376 58.248 64.632 59.016 64.888 59.656L64.76 59.528C64.888 60.168 65.144 60.68 65.144 60.936C65.144 61.704 64.504 62.344 63.864 62.728H63.992C63.864 62.856 63.736 62.984 63.736 63.496L62.072 66.568L59.896 66.312V64.136H58.616V60.808L62.328 36.232C59 37.768 56.44 38.664 53.624 39.56C49.784 40.712 46.072 42.12 42.744 44.04C42.616 46.216 41.336 46.344 40.056 45.832H33.656V44.552H31.992C33.016 42.504 32.76 41.864 32.76 40.968C32.632 39.56 32.888 38.408 34.936 38.024C35.064 36.104 36.6 36.36 38.264 36.104C38.648 36.104 39.032 35.848 40.568 34.184C41.592 36.232 41.464 35.976 41.592 35.848C41.464 35.464 41.464 34.952 41.464 34.056C43.128 34.056 44.024 33.416 44.92 32.52C45.176 32.392 47.736 30.856 47.992 32.904C50.04 31.368 50.04 28.552 53.24 30.728V30.856C53.368 30.856 53.624 30.856 54.008 30.984C54.008 30.6 54.264 29.832 57.208 28.808V29.832L58.104 29.064L57.592 28.68L61.432 27.528H61.688C62.584 26.76 63.864 26.376 63.864 26.376C64.76 24.712 65.272 22.024 65.272 20.232L66.936 7.048C69.496 12.04 69.752 11.4 70.392 11.272ZM9.08 12.68C10.872 13.832 12.536 14.856 11.512 17.032H12.664C12.664 19.848 12.408 22.664 11.256 24.328C12.152 26.12 11.896 27.656 11.64 29.704C11.512 30.728 11.256 32.52 11.256 33.416C11.768 35.464 10.744 37.64 9.848 39.56C8.824 41.48 7.928 43.4 8.696 45.832H7.672C7.928 46.728 7.672 47.368 7.544 48.008C7.416 48.264 7.416 48.776 7.416 49.672H2.168C2.168 48.776 2.296 48.392 2.552 48.136C1.272 47.496 1.656 46.088 2.168 44.68C2.424 43.912 2.68 43.144 2.04 42.504L2.936 41.608C2.168 41.096 2.552 40.2 2.936 39.048C3.32 38.152 3.576 36.872 1.912 36.104C2.808 35.208 2.424 34.824 2.296 34.44L2.424 34.568C2.04 33.8 1.528 33.16 3.064 32.904C2.424 31.368 2.68 29.064 3.448 27.016C2.808 24.84 3.064 22.408 3.448 20.232C3.832 17.8 4.216 15.496 3.448 13.576V11.784H4.856V10.76L7.032 10.504C7.544 11.4 8.568 12.296 9.08 12.68ZM12.28 66.824H13.56C15.736 64.904 16.504 60.424 16.632 56.968L13.944 59.656C12.408 60.424 11.768 62.088 11.768 63.752C11.768 64.904 11.896 65.928 12.28 66.824ZM68.6 45.192H67.704C67.704 45.192 67.704 46.6 68.6 45.704V45.192ZM57.208 28.168L57.592 28.68C57.464 28.808 57.336 28.808 57.208 28.808V28.168ZM38.264 74.376L37.752 73.864L37.88 74.376H38.264ZM116.854 26.504L116.726 26.76C116.726 25.864 120.95 21.896 121.974 23.688C123.51 23.944 125.302 25.736 126.454 26.76C125.302 27.784 125.046 29.064 124.79 30.344C124.534 31.496 124.278 32.776 123.126 34.056C122.87 34.312 122.102 35.976 121.974 36.232H121.462C121.334 36.616 121.206 37 120.822 37.128L121.334 37.64C121.334 39.816 119.286 43.656 117.238 45.96C117.238 46.856 116.598 47.624 115.958 48.264C115.574 48.776 115.318 49.416 115.318 50.824C115.446 50.696 115.958 50.184 116.598 49.032L117.878 50.312C118.39 50.184 119.03 50.056 119.414 50.056L121.334 48.136C121.334 48.136 121.206 48.648 120.95 49.16H121.846C122.998 49.16 123.894 48.904 124.534 48.648C126.07 48.136 127.35 47.496 128.886 48.52L129.014 48.392L133.366 46.984C133.75 46.984 134.006 46.984 134.262 47.112C134.262 46.856 134.262 46.6 133.878 46.088C136.438 46.088 137.334 46.216 137.846 46.344C138.23 46.472 138.486 46.6 140.918 44.04V46.088C141.046 46.088 141.302 46.216 141.43 46.216V44.04C142.966 45.576 143.862 45.96 144.246 45.704C145.142 45.32 146.038 44.808 146.934 45.32C148.214 44.424 149.366 44.552 150.262 44.808C150.518 44.936 150.518 45.064 152.054 45.064L152.822 44.296C153.718 45.32 154.614 45.32 154.998 45.064C155.638 44.68 156.406 44.168 158.07 44.04L160.118 43.528C161.398 43.528 163.062 44.808 164.086 46.728C164.086 47.24 163.574 47.752 163.19 48.136C163.062 48.264 163.062 48.264 163.062 48.392H161.91L162.166 48.648C160.374 50.44 158.838 50.184 157.814 49.8C157.814 49.8 157.814 49.928 157.686 50.312H155.51L152.566 51.592C152.182 51.72 151.926 51.72 151.67 51.72C151.414 51.848 150.902 51.976 150.518 52.36C149.366 52.36 148.47 52.488 147.83 52.616C147.318 52.744 146.55 52.872 146.038 52.872V53.128L132.47 56.84V55.816L130.294 56.456C129.782 56.456 129.27 56.968 129.27 56.968C127.35 57.992 125.814 58.248 124.278 58.504C122.742 58.76 122.486 58.504 121.59 59.016C123.254 60.168 124.278 61.96 124.278 62.856C122.358 67.464 120.566 72.968 120.31 76.936C120.31 76.936 120.438 76.808 120.566 76.808C121.334 76.424 122.23 75.912 123.254 75.912C123.894 74.888 124.534 75.016 125.43 74.76C121.718 77.192 129.782 72.2 129.014 75.912C129.782 76.424 130.678 76.808 131.318 77.96C130.678 80.264 129.27 82.568 128.118 85.128C127.094 87.048 126.07 89.096 125.174 91.272C124.662 92.168 123.766 93.064 122.87 93.96C122.358 94.472 121.846 95.24 121.462 95.88L123.638 97.544L123.51 97.416C124.662 97.8 126.07 98.312 127.222 98.824H127.094C130.038 99.848 132.726 100.872 135.158 101.896C137.718 102.92 140.15 103.944 143.094 104.84C145.27 104.968 148.598 106.248 151.158 107.528L150.774 107.912H152.566L153.718 109.064H153.974C153.974 108.808 153.846 108.68 153.718 108.552C154.23 108.552 154.998 108.68 156.15 109.576C155.894 109.704 155.894 109.96 155.894 110.088C156.406 109.96 157.046 109.96 158.07 109.96V110.856H158.838C160.502 110.856 161.014 111.496 161.654 112.008C161.91 112.392 162.294 112.776 164.086 112.904L166.134 116.232H165.11V119.176L163.062 117.128C162.294 117.768 161.526 117.128 160.758 116.488C160.63 116.36 160.374 116.104 158.582 117V115.976C158.198 115.848 157.814 115.72 157.43 115.464C157.046 115.208 156.662 114.952 155.894 115.208L154.614 114.184H153.206L152.31 113.416C150.39 113.672 147.702 113.16 146.038 112.392C144.886 113.16 144.118 112.52 143.35 111.624H143.478C143.094 111.368 142.582 110.984 142.198 111.112C141.046 111.112 140.278 110.728 139.51 110.344C139.638 110.472 139.638 110.6 139.51 110.728L138.486 110.216H137.974C136.822 109.064 137.206 109.704 136.95 109.704C136.31 109.576 135.798 109.832 135.286 109.32L135.158 109.448L124.79 105.992L121.59 104.584C120.182 104.328 117.878 103.304 116.726 102.152C116.726 101.768 116.47 101.64 116.214 101.64C115.062 102.536 114.038 104.584 112.886 106.632H110.966C110.838 106.632 109.814 108.04 109.174 108.936C108.79 109.704 108.022 110.6 107.254 111.112C107.126 112.136 106.358 113.032 105.206 113.544C104.95 114.312 104.182 114.568 103.286 114.824C103.286 114.824 103.158 114.824 103.158 116.744C102.39 116.744 100.47 116.744 101.238 118.152L98.166 121.224V121.48C98.038 121.48 98.038 121.352 98.038 121.352L97.654 121.736V121.224C96.63 120.712 96.502 120.968 96.502 121.096C96.246 121.992 95.862 123.016 94.966 122.888C94.198 124.168 91.766 125.832 90.23 124.808H89.718C89.718 124.68 89.59 124.68 89.59 124.552C89.078 124.168 88.694 123.656 88.694 122.504H89.974C90.23 121.864 90.614 120.712 90.614 120.072C90.614 119.048 90.614 118.92 91.638 118.92H91.766V118.792L91.638 118.92V117.128L94.198 117L93.814 116.232V116.104L93.942 116.232C93.686 115.72 93.686 113.672 93.686 112.392L95.094 113.8C95.222 113.288 95.606 112.904 95.862 112.52C96.118 112.136 96.374 111.24 96.886 110.472H99.446L100.086 110.088H99.83C100.214 109.832 100.086 109.192 99.318 107.4H99.958L98.934 106.376C101.494 106.376 102.262 105.096 102.774 104.2C103.414 103.048 104.182 101.64 105.974 101.384L110.198 94.984V96.392C110.71 95.88 111.35 95.112 111.99 93.32H113.142C113.782 92.552 115.446 91.016 116.342 89.864C118.262 87.688 120.31 85.384 121.846 81.928C119.03 82.824 116.726 84.488 114.806 85.896L112.63 87.56H111.606C111.222 87.816 111.094 88.072 111.094 88.2H109.814C109.302 88.584 109.046 88.584 108.278 88.584V89.608H106.742C104.95 91.4 103.286 92.424 102.774 90.76C101.75 90.888 101.11 91.272 100.47 91.4C99.318 92.04 98.166 92.552 96.502 92.552C93.686 91.528 93.43 90.888 93.174 89.736L92.406 87.304C95.222 87.304 95.99 86.664 96.758 86.152L98.678 85.256V84.36H100.086L98.934 83.336C101.366 83.336 104.95 83.336 106.614 80.136C108.534 82.056 108.662 81.416 108.918 81.16C109.686 80.392 110.582 79.496 112.118 80.136C113.526 79.496 113.91 76.936 114.422 73.992C114.806 72.328 115.062 70.408 115.83 68.616C116.598 66.184 117.622 63.368 117.75 59.912L114.166 60.808C109.046 62.216 103.414 63.624 98.294 66.44C95.222 66.44 90.742 67.592 87.414 68.744C85.11 66.44 85.238 64.008 85.494 62.216C85.494 61.832 85.622 61.192 85.622 60.808C85.622 58.248 87.414 58.376 89.334 58.504C89.59 58.504 89.974 58.504 89.974 58.376L92.278 56.072C92.662 57.352 92.79 57.736 92.662 57.864C93.942 56.968 94.71 56.584 94.966 57.352C95.094 57.352 95.094 57.352 95.222 57.224C95.862 56.84 96.246 56.584 96.502 56.584C97.398 55.816 98.55 55.688 99.702 55.944V55.176C102.134 55.176 103.798 53 105.078 50.952C105.59 50.056 106.358 49.032 106.998 48.392L109.814 44.552C112.118 38.536 114.678 32.52 116.854 26.504ZM142.326 1.92799C143.734 2.824 143.734 5.63999 143.734 5.63999C144.374 5.63999 144.374 6.536 144.374 6.79199C145.014 8.712 144.886 10.76 144.63 12.168C144.502 12.808 144.374 13.448 144.374 14.6H143.35V19.592H143.094L143.478 19.976C142.838 20.616 142.838 21.128 142.838 21.512C142.838 22.152 142.838 22.92 142.198 24.2C141.942 24.456 141.814 25.608 141.686 26.76C141.558 28.04 141.174 29.832 140.406 30.984C140.406 30.856 140.15 30.856 139.638 30.856C140.022 30.984 140.662 31.496 141.558 32.136C141.558 32.136 140.15 33.416 139.894 33.8C139.51 34.44 138.998 35.336 137.334 35.592V36.616C136.95 36.616 136.95 37.128 136.95 38.024C136.694 37.768 134.646 36.616 134.646 36.616H132.086C133.494 35.208 133.366 34.696 133.11 34.056C132.982 33.544 132.854 32.904 132.854 31.88L134.774 29.832C135.03 24.456 135.542 18.312 135.798 12.936C136.438 11.784 136.694 10.376 136.822 9.48C136.31 9.60799 135.542 9.48 135.03 9.48H134.39C134.134 9.60799 133.75 9.48 133.494 9.48C133.494 9.48 133.622 9.48 133.238 10.248C128.63 11.784 129.526 11.528 127.734 12.296C125.686 12.936 123.126 13.704 120.694 15.496C120.31 15.496 120.31 16.392 120.31 17.16L118.134 17.416L117.75 17.032C117.11 17.416 116.854 16.776 116.214 16.136V16.52C115.83 16.136 115.446 15.88 115.318 15.496H115.062L114.806 14.984C113.142 13.192 113.526 12.552 114.55 12.04L117.238 9.224V9.992C118.262 8.96799 119.798 8.45599 120.822 9.224H121.206L121.59 8.328H121.846C122.614 6.66399 123.638 6.79199 124.79 7.17599L126.07 6.15199L128.118 7.048L128.246 6.92C128.246 6.79199 128.502 6.66399 128.758 6.536V5.896C128.758 3.07999 129.782 3.336 130.934 4.35999C130.806 4.104 130.55 3.71999 130.038 3.20799H133.366L135.286 1.28799V1.92799C136.182 0.263992 136.95 0.647995 137.462 1.544L138.102 0.263992C140.278 0.263992 142.326 0.263992 142.326 1.92799ZM104.95 5.128L106.102 5.51199C106.998 8.072 106.614 10.632 106.358 12.808C106.23 13.704 106.23 14.344 106.23 14.856C106.23 14.984 105.974 15.496 105.846 16.008C105.59 16.52 105.718 17.16 106.998 18.44C106.486 18.44 106.486 18.44 105.59 17.544L106.23 18.824C106.614 20.232 105.846 21.64 105.334 22.792C104.694 24.072 104.054 25.096 104.438 27.528C104.566 28.04 104.31 28.808 104.182 29.448C103.926 30.344 103.67 31.24 104.182 31.752C104.182 32.648 103.67 33.032 103.158 33.032V35.464C102.774 35.464 102.774 35.72 102.774 35.848C102.774 36.232 102.774 36.872 102.134 37.256C102.902 38.28 101.878 39.304 101.878 39.304C102.006 39.688 102.262 39.816 102.262 39.816C102.262 40.84 101.622 41.608 100.982 42.376C100.598 42.888 100.214 43.272 101.75 44.04L98.166 45.704C96.118 44.552 96.374 44.552 96.374 44.296L95.734 43.016V37.768L97.654 24.712C97.91 20.36 98.422 15.624 98.678 11.016L95.99 12.552C93.686 14.088 91.126 15.368 86.646 15.368C86.646 14.984 86.646 14.472 86.518 14.088C86.262 13.448 86.134 12.552 86.646 11.784C86.646 11.016 86.774 10.632 87.926 10.632C87.926 10.632 88.054 10.248 90.102 8.2V9.864C90.102 9.864 90.102 9.73599 90.23 9.73599L91.894 8.45599L92.15 8.712C92.406 8.45599 93.046 8.2 93.942 8.2H94.198L98.166 4.104V6.15199L98.678 5.768V5.128H99.83C99.702 4.616 99.958 4.104 102.006 4.104C102.774 4.104 103.286 4.488 103.926 4.744C104.31 4.99999 104.694 5.128 104.95 5.128ZM184.828 34.056L186.492 37.384V38.664C186.876 38.92 189.18 40.584 187.9 40.584V40.968C188.668 41.352 189.052 42.12 189.18 43.016L190.204 43.528C189.692 44.04 189.948 45.192 190.46 46.088C190.588 46.472 190.716 46.984 190.716 46.984C190.076 48.392 190.588 48.904 191.1 49.288H190.972C191.996 49.8 192.636 50.184 192.124 51.208C192.38 53 192.38 55.304 192.764 56.968C191.484 56.968 192.124 57.48 192.124 57.48C192.38 59.272 192.764 59.272 192.892 59.528C193.02 59.784 193.404 61.192 193.404 60.68C193.916 61.704 193.148 62.6 192.508 63.24C192.636 63.112 192.764 62.984 193.148 62.984C194.812 67.848 191.484 71.304 188.028 74.632C187.26 73.864 187.004 73.992 186.748 74.248H186.876C185.852 75.144 184.956 76.296 182.908 75.528C181.884 76.296 181.116 75.912 180.604 75.272C180.86 75.784 180.732 76.296 178.3 74.504V74.888L174.844 72.456H173.052V71.176C172.284 71.048 172.412 70.664 172.284 70.152C172.156 69.512 171.772 68.488 170.108 67.72L171.388 66.44C170.236 65.544 170.236 64.008 170.492 62.984C170.62 62.216 170.876 61.576 170.108 60.808C170.748 60.168 170.876 59.528 171.004 58.504C171.132 57.224 171.26 55.688 173.052 53.768C173.052 51.976 173.18 48.008 174.46 46.856C174.46 46.856 175.228 43.656 176.636 43.656C177.532 43.144 177.788 41.992 177.788 40.968C177.788 39.432 177.788 38.152 181.116 38.152C181.244 38.152 181.244 37.128 181.244 35.976C181.244 35.976 181.244 34.056 184.828 34.056ZM224.38 14.728L225.148 15.24C225.148 17.928 225.532 20.616 226.044 23.048C226.428 25.608 226.94 27.784 226.94 30.728C226.94 32.008 226.812 33.416 226.556 34.568C227.068 35.464 227.196 36.872 227.196 38.408C227.196 40.2 227.196 42.248 228.22 44.936H227.324L228.732 46.344C225.916 46.344 226.3 47.496 226.428 48.52L226.3 48.392C226.428 48.904 226.556 49.416 226.556 49.672C227.196 53.256 226.428 57.224 225.788 60.936C225.02 64.776 224.38 68.616 225.276 72.456H223.868C223.74 73.864 223.484 75.784 223.1 77.576C222.716 79.624 222.46 81.672 222.46 82.952V85C221.052 85 220.668 85.512 220.156 86.024C218.364 87.816 217.212 89.096 217.212 85.64C216.828 84.104 216.188 82.056 215.804 80.264L217.212 52.616C217.212 52.616 217.212 51.336 215.804 49.928C216.956 44.168 217.468 38.92 217.468 33.544C217.468 27.272 216.828 20.488 216.06 13.704L215.548 9.864C220.284 11.656 221.564 12.424 222.46 13.192H222.332C222.972 13.704 223.612 14.344 224.38 14.728ZM184.7 62.088L185.084 59.528C185.084 55.816 184.316 50.44 183.292 46.6C182.908 47.24 182.14 48.648 181.116 48.648L179.964 52.616C180.732 55.176 180.604 57.736 180.476 59.912C180.22 62.984 180.092 65.672 181.628 67.976L183.036 67.208C183.932 66.312 184.188 65.032 184.7 62.088ZM309.17 24.712L308.786 25.096C308.786 25.096 307.89 25.992 309.298 27.4C307.89 28.04 308.018 28.808 308.402 29.576C308.914 30.856 309.298 32.008 307.122 33.032H306.61V33.16H307.89C307.89 34.824 307.634 34.696 307.506 35.336C306.994 36.872 306.61 38.408 306.61 39.56C305.97 39.56 305.97 39.944 305.97 40.2C305.97 40.584 305.842 41.096 305.586 41.48L306.61 42.632C306.226 43.528 305.714 44.04 305.202 44.424C305.586 44.168 305.97 44.168 306.226 44.04C306.482 43.912 306.61 43.912 306.61 42.504L308.786 42.248C309.298 43.272 307.634 41.352 310.45 45.064C310.45 44.552 310.45 44.296 310.578 43.4H310.45C310.834 42.76 312.114 40.712 312.114 40.712H313.65C314.418 40.072 314.29 39.944 314.29 38.28H318.13V38.536H318.642C318.514 37.768 318.898 36.488 321.842 35.592C322.738 35.72 324.53 36.104 324.53 37.512C324.53 37.896 323.89 38.408 323.122 38.92L324.53 39.944C324.53 40.84 323.634 41.096 322.354 41.352C322.226 41.352 322.098 41.48 323.25 42.76L322.61 44.296L321.586 44.552C321.33 44.936 320.818 45.32 320.306 45.704C319.794 46.088 319.282 46.6 319.282 47.88L317.106 50.312C316.722 50.184 316.466 49.928 316.338 49.672H314.29C312.37 51.08 311.602 50.952 311.218 51.08C310.834 51.336 311.09 51.592 309.81 51.592C310.066 51.848 310.706 52.36 311.346 52.36C309.17 54.024 307.122 54.536 305.97 54.408L306.866 56.072H305.33V57.864C305.33 57.864 301.49 56.584 301.49 58.504C298.802 59.016 299.186 59.272 298.802 59.528C297.01 60.296 295.09 61.064 295.09 61.832C291.25 61.832 292.274 63.112 292.146 63.112C290.994 62.984 290.482 62.728 290.994 61.448C289.458 62.472 288.818 62.728 288.818 60.424C289.074 60.168 288.562 59.784 288.05 59.656C287.794 59.656 287.538 59.528 287.282 59.528C287.41 60.296 287.026 61.192 284.978 61.192H280.498C282.034 59.528 282.034 59.016 281.522 58.376C281.138 58.248 280.626 58.12 280.498 58.12L280.242 57.352H279.474C280.37 53.768 280.37 51.848 280.37 49.8C280.37 47.88 280.37 46.088 281.266 43.656L281.138 43.912C281.138 43.016 281.906 42.76 282.546 42.376C282.802 42.248 282.802 41.992 282.162 41.352L283.698 39.944C283.698 39.688 283.442 39.56 282.29 39.56V33.16C283.698 33.16 283.698 32.904 284.082 32.52L284.594 32.008C283.442 30.6 283.826 29.96 284.082 29.448C284.082 29.32 283.954 29.064 283.57 28.552L284.594 27.656C283.57 27.016 283.698 25.864 283.954 24.712C284.082 23.944 284.082 22.664 283.186 21.512C283.186 21.512 284.082 21.512 284.978 21.64C285.106 19.976 285.618 18.952 288.306 21.768V21.64C289.202 22.408 288.946 22.536 289.842 23.304C290.738 22.92 292.146 22.92 293.81 22.92V23.304L302.002 22.152L302.898 22.28V22.024C303.922 18.568 309.426 19.848 309.17 24.712ZM306.61 91.144V88.584C306.61 88.584 306.994 88.328 306.994 87.048C307.89 83.08 308.658 77.576 308.658 76.168L310.066 74.12H309.426C310.45 72.072 310.706 70.792 311.09 68.616C311.218 67.72 311.474 66.568 311.858 65.16L313.65 64.008L314.93 63.752L315.954 63.88C318.13 63.88 317.234 66.952 317.234 66.952C317.49 67.336 318.13 67.848 318.386 68.104L317.746 69.896L319.154 71.56V72.584L319.794 73.48V75.912L318.386 76.04L319.794 77.192C319.282 79.112 317.618 89.096 317.49 91.4L329.01 87.048C330.674 85.384 334.514 82.952 336.562 85.128C337.97 84.488 339.122 84.36 340.018 84.232C341.17 82.184 342.578 82.312 342.578 81.672C343.986 81.672 345.394 81.928 345.394 81.928C346.546 80.904 347.826 80.392 350.13 80.392C350.77 80.392 351.41 80.52 351.794 80.648C352.178 80.776 352.434 80.904 352.69 80.776C352.818 80.392 353.458 79.24 355.89 79.112C357.81 78.216 358.706 77.576 359.09 79.624C359.602 79.624 360.242 79.88 360.882 80.008C360.882 80.136 360.754 80.264 361.266 80.392C361.65 79.88 362.162 79.24 363.058 78.6L365.746 81.032C365.234 81.544 364.722 82.184 364.466 82.696C363.698 84.104 363.186 85.128 361.394 84.872C360.882 85.512 359.858 86.152 358.578 86.536C357.81 87.432 356.402 87.944 355.122 88.456C354.61 88.712 354.098 88.84 352.818 90.12L351.794 89.096C351.026 89.736 349.874 90.248 348.85 90.12C348.338 91.4 346.802 91.272 345.522 90.888H345.906C345.778 90.888 345.65 90.76 345.522 90.76V90.504L345.394 90.632C345.01 90.248 344.882 90.504 344.754 90.632H344.882C344.114 91.912 343.09 92.68 342.066 91.4C342.066 91.656 341.938 92.04 341.938 92.168C341.682 93.832 341.81 95.112 338.866 92.936C338.738 93.704 338.354 94.6 337.842 94.984C337.458 95.368 336.69 96.392 336.05 97.416C335.154 95.752 335.026 95.624 335.026 95.496C333.874 96.392 332.722 97.16 331.57 95.24C330.546 96.008 329.394 96.904 328.37 97.544L320.946 99.592H319.41C319.282 99.592 318.642 99.976 318.002 100.232H318.13C316.85 101 315.058 101.512 313.266 100.36C312.626 100.488 311.986 100.616 311.474 100.872L310.578 99.848L310.962 99.592C310.45 99.464 309.81 99.208 309.554 98.824L306.61 100.36V96.648C306.482 96.648 306.226 96.52 306.098 96.52C306.61 96.008 305.586 95.496 305.33 94.728C304.818 93.576 304.818 92.04 306.61 91.144ZM334.77 31.24C334.77 31.112 334.642 30.472 334.514 29.832C334.258 28.424 333.874 26.888 335.154 25.608V25.736C336.05 24.712 336.05 23.304 336.05 21.512C336.946 21.512 336.69 21.128 336.562 20.488C336.434 19.464 335.666 18.312 336.818 17.928C336.306 17.288 335.538 16.648 335.282 16.392H339.89V15.624C343.986 19.848 344.114 23.944 343.858 26.76C343.858 27.528 343.73 28.808 343.73 29.192C342.45 29.192 342.45 30.728 342.45 31.24C343.09 32.136 342.45 32.776 342.194 33.416C341.938 33.928 341.682 34.184 342.578 34.184L344.626 33.8L345.01 33.416C345.65 32.776 346.29 32.008 347.57 32.264C348.978 31.24 350.514 31.624 352.178 31.752C352.69 31.88 353.074 31.752 353.074 29.96C353.458 29.96 355.89 29.448 356.402 29.192L358.066 28.68V27.528H360.114C359.986 27.528 359.858 27.4 359.858 27.4L361.522 26.632L362.546 27.4C363.186 27.656 363.314 27.144 363.314 27.656C364.338 26.888 365.618 25.736 365.874 25.48V25.608C366.13 25.224 366.77 24.968 367.666 24.84C368.434 24.072 370.61 21.896 370.994 23.176C371.634 23.176 372.402 23.432 373.042 23.56H374.834V25.352L375.09 26.12C375.09 26.76 374.578 27.4 373.938 27.656L373.81 27.528L372.914 28.552C373.042 28.552 372.786 29.064 372.658 29.32C371.634 30.728 370.61 31.88 369.586 31.112V31.88L367.538 32.136C367.538 32.264 367.666 32.52 367.794 32.648C367.666 32.648 367.538 32.648 367.154 32.52L366.898 33.8H366.642L365.234 35.08L364.466 34.824V35.08C362.418 35.08 362.546 35.464 362.034 35.72L362.162 35.592C361.778 35.848 361.138 36.104 360.626 36.232C360.498 37.896 358.962 37.768 357.426 37.768C357.042 37.768 356.786 37.768 356.53 38.024L354.738 39.304L351.154 41.096L347.954 42.376L346.29 43.784L343.346 44.424C342.578 45.32 341.81 46.984 341.298 48.904V50.568C341.298 50.568 339.89 50.568 339.89 51.976C338.098 51.976 337.586 53 337.33 53.896C337.074 54.664 336.818 55.304 336.05 56.2C334.258 56.2 329.138 54.408 329.906 53.256H329.778C330.29 49.672 330.546 46.856 330.802 43.912L330.93 44.168C330.034 41.736 330.674 40.328 332.722 39.688C332.082 39.048 332.21 38.536 332.466 37.896C332.594 37.512 332.594 37 332.21 36.488C332.466 36.232 333.234 34.952 332.722 34.312H330.802C330.802 31.752 331.698 32.008 333.234 32.648C333.234 31.752 334.002 31.496 334.77 31.24ZM298.034 28.552L294.578 29.064C294.322 29.192 294.066 29.32 293.938 29.32C293.81 29.448 293.682 29.576 293.682 29.832H292.53L294.322 31.624C290.738 32.392 290.482 35.336 290.226 38.28C289.97 40.456 289.714 42.376 288.434 44.296C288.05 44.808 288.178 46.6 288.434 47.496C288.562 48.008 288.69 48.52 288.69 49.032C288.69 50.056 288.562 50.824 288.434 51.72C288.178 52.872 288.05 53.768 288.178 54.792C291.506 54.792 292.914 53.256 294.322 51.72C295.218 50.696 296.498 49.416 297.906 48.776C297.522 48.52 297.394 48.264 297.394 48.008C297.266 47.752 297.266 48.136 297.266 46.856C297.138 46.472 297.138 45.832 297.138 45.832C297.138 45.832 295.09 42.504 296.498 42.504C295.858 40.968 296.754 40.328 297.522 39.56C297.906 39.176 298.29 38.664 297.65 37.512C297.65 36.872 298.162 36.104 298.546 35.464L301.234 30.216C300.978 29.96 300.85 29.576 300.85 29.192H300.082C300.21 28.552 300.338 28.168 300.21 28.168L298.034 28.552ZM318.002 76.04H317.49C317.618 76.936 318.002 76.552 318.002 76.552V76.04ZM311.602 74.12H310.066L311.73 74.376C311.602 74.248 311.602 74.12 311.602 74.12ZM315.57 48.648C315.57 48.904 315.826 49.288 316.338 49.672C315.954 49.288 315.698 48.904 315.57 48.648ZM459.186 21V17.8C462.386 17.8 462.514 18.44 462.514 19.464L463.026 18.696C467.634 22.152 469.042 25.992 469.042 30.088C469.042 33.544 468.402 37 467.762 40.84C466.994 41.736 467.122 43.4 467.378 45.576C467.506 46.856 467.762 47.24 467.762 50.568H466.482C466.738 51.336 466.738 52.104 466.61 53C466.482 53.384 466.226 51.336 466.226 56.584H465.458C465.842 56.968 466.098 57.352 466.354 57.48C464.178 58.504 464.818 60.04 465.458 61.448C465.714 62.216 466.226 61.064 466.226 64.136H464.818C465.202 65.544 464.69 67.464 463.794 68.744H465.33L463.282 70.92V73.864H461.746C461.618 77.576 460.722 83.848 454.706 87.816C453.426 83.336 453.938 82.824 454.706 82.184L456.242 57.48V48.264L450.226 51.336V50.952C447.794 52.872 444.722 54.152 441.778 55.304C435.89 57.864 429.874 60.296 431.922 68.488C431.026 68.488 431.154 68.744 431.154 69.128C431.282 69.768 431.666 69.64 431.666 71.56C431.026 71.56 431.154 71.816 431.154 72.2C431.282 72.584 431.41 73.864 431.538 74.12C430.258 74.888 430.642 76.168 431.026 77.576C431.282 79.112 431.41 81.032 427.698 83.08V81.928C425.65 82.952 423.218 82.952 421.682 79.88V76.808L423.218 51.464L424.754 28.936V24.584C424.114 23.432 424.882 22.664 425.906 22.152C426.034 22.152 426.162 21.896 426.162 21.512C426.162 21.512 428.594 16.648 431.41 19.592L433.202 21.64C432.69 22.152 433.074 22.152 433.074 22.152V23.816H434.226C435.378 24.968 434.738 26.12 434.098 26.888C433.714 27.4 433.202 28.168 434.738 28.808C434.738 31.752 434.61 37.384 433.074 40.584C434.098 41.864 433.586 42.632 433.074 43.528C432.69 44.168 432.434 44.68 433.074 45.448V46.6L433.714 46.984C434.866 46.6 436.146 46.344 437.426 46.344L443.698 41.864V44.424C444.85 43.016 446.642 41.608 450.994 39.304V40.968H451.122L454.834 38.152L456.114 40.328C457.65 37 457.394 33.16 457.266 29.064C457.138 27.656 457.266 25.608 458.29 21.256L459.186 21ZM407.73 26.888V33.288C407.73 33.288 407.602 34.184 406.834 34.952L407.09 35.336C406.834 35.464 406.834 36.488 406.834 37.512C406.834 38.408 406.834 39.304 406.45 40.2H407.09L407.602 41.096C405.81 41.992 405.682 43.784 405.554 45.832C405.426 47.112 405.298 48.648 404.53 50.184L402.482 53.384C401.33 55.304 400.178 56.968 400.178 59.144C399.41 59.784 399.41 60.936 399.41 61.96C399.41 63.112 399.282 64.392 398.258 65.416C397.106 66.696 396.85 69.896 396.594 72.328C396.466 73.992 396.338 75.912 395.57 77.448H394.162V82.184H393.01C393.138 82.568 393.266 82.952 392.37 85H391.858C390.962 86.536 390.322 87.944 385.842 90.248C385.842 88.584 385.714 87.944 385.458 87.688C384.946 86.792 384.178 86.024 385.074 85.128C384.306 84.36 384.69 82.824 384.434 82.44C384.05 81.672 383.666 80.52 384.434 79.624C384.946 78.728 385.074 77.064 385.202 75.528C385.33 73.48 385.458 71.432 386.994 69.384C386.482 65.8 387.634 62.344 389.426 58.888C390.322 57.096 391.218 55.176 391.73 52.872C392.498 52.104 392.498 51.08 392.498 50.056C392.498 48.904 392.37 48.008 393.394 47.752C393.906 45.832 394.802 43.912 395.826 42.12C397.106 39.688 398.514 37.512 397.874 34.056C396.978 34.184 396.466 34.44 395.57 34.696C390.194 36.104 383.666 37.768 378.546 41.352H372.274V34.824C373.426 32.904 375.218 32.904 377.266 32.904C378.29 32.904 379.442 32.904 380.21 31.496L380.85 31.624C381.618 30.984 382.514 30.984 383.538 30.728C383.794 30.728 384.178 30.472 385.586 29.064L386.354 29.832C387.25 29.832 387.506 29.704 387.762 29.576C388.658 29.32 389.426 28.936 390.322 28.936C390.706 27.144 391.858 27.4 393.522 27.016L398.642 25.224L398.002 25.736L398.642 25.864C398.642 25.992 398.514 26.12 398.514 26.248L399.026 25.864L399.282 25.992C399.41 25.864 399.538 25.608 399.538 25.48C400.818 25.096 402.226 25.608 403.762 26.12C404.786 26.504 405.682 26.888 407.73 26.888ZM547.027 26.504V29.576L545.619 30.728C546.259 31.624 546.643 32.52 546.771 33.416C547.027 34.696 547.027 36.616 547.027 38.408C545.875 38.408 545.875 39.56 547.027 40.456C547.027 40.84 546.771 41.736 546.643 42.376C546.387 43.272 546.131 44.04 545.747 44.168C547.027 44.168 548.435 43.4 549.587 42.632L551.763 41.48C552.787 39.432 554.067 38.92 555.987 38.024V38.152L558.291 36.872C559.443 37.64 559.955 37.128 560.595 36.488C561.235 35.848 559.827 35.848 565.075 34.696C566.355 34.44 567.891 34.312 569.555 34.312L572.755 32.648H573.523C573.523 33.416 573.651 33.416 573.779 33.672C573.779 33.928 573.907 34.056 573.907 34.312C574.035 34.184 574.163 34.056 574.419 34.056C574.547 33.928 574.803 33.8 576.467 32.136V32.904H580.435C580.435 32.904 580.435 35.08 577.619 37.512L577.363 37.384C576.723 38.408 574.931 38.408 574.931 38.408C574.035 38.408 573.651 38.408 573.395 38.152C573.523 38.792 573.523 39.432 573.523 39.432L557.267 48.008C554.579 48.648 552.787 50.824 551.123 52.744C549.843 54.024 548.563 55.304 547.027 56.2V57.992C545.491 57.992 545.491 60.04 545.491 60.04H543.059C543.059 60.296 543.187 60.424 543.315 60.552C543.699 61.192 543.955 61.704 543.443 62.344L544.211 61.576V66.952C542.035 71.432 540.115 69.64 538.067 67.592H536.019C536.019 60.552 537.171 53.896 538.195 47.752C539.091 42.248 540.115 35.848 540.243 30.856C539.219 29.192 539.091 26.248 540.371 23.304L543.443 24.712C544.339 25.096 545.875 25.608 547.027 26.504ZM525.651 80.52V81.544C529.107 83.72 524.499 88.584 525.139 92.936C525.395 94.344 525.267 96.008 522.963 97.032V97.16C524.371 97.16 524.371 97.032 524.115 96.776C524.499 97.032 525.011 97.16 525.139 97.416L525.523 97.16C526.931 96.264 528.723 95.368 530.131 95.752C532.819 94.344 534.995 93.064 538.835 92.936C541.395 92.04 542.163 91.784 543.187 91.528C544.211 91.4 545.619 91.144 546.515 91.144C546.515 91.016 546.643 90.76 546.643 90.632L551.891 88.84C551.507 89.224 551.251 89.48 556.371 87.304C559.059 86.664 559.827 87.432 560.083 88.456C560.467 87.56 561.107 86.536 562.259 85.384C564.435 87.176 563.795 87.944 563.283 88.712C563.155 88.84 563.155 88.84 565.843 88.84C564.819 89.864 564.179 90.76 563.923 91.272C563.283 92.552 562.643 93.576 561.235 93.448C559.443 94.984 558.547 94.984 557.523 94.984C557.139 94.984 556.883 94.984 556.755 95.112L552.531 97.672V99.208C551.123 97.8 549.715 98.696 549.715 99.72L548.691 98.952L547.795 99.592C547.283 99.208 546.131 99.72 545.107 100.232H545.235C544.851 100.488 544.211 100.872 543.827 101C542.931 101.768 541.395 101.896 540.243 101.896L538.067 102.664C534.739 104.584 536.147 102.536 534.739 102.536C533.587 104.84 533.459 103.56 531.411 104.584C530.515 105.096 529.747 105.352 528.979 105.352C523.731 105.352 521.043 109.96 519.763 106.376H519.891C518.995 105.736 518.099 105.352 517.715 105.352C516.563 105.352 515.667 104.456 514.899 103.56C515.411 104.2 512.979 101.256 514.515 98.184C515.155 97.032 515.795 95.624 515.027 93.448C515.795 92.808 516.179 91.4 516.563 89.992C516.819 88.712 516.947 87.56 517.971 86.536V85.128L518.739 84.36C517.075 83.848 519.251 82.312 519.251 82.312V77.704C523.347 77.704 523.859 78.6 524.755 79.496C525.011 79.88 525.267 80.264 525.651 80.52ZM504.019 3.592H510.035L506.707 6.92L507.475 7.432H509.267C509.267 7.688 509.395 8.2 509.523 8.58399C509.907 10.12 510.163 12.168 508.883 14.728H508.627L509.267 15.24C509.267 16.648 508.883 16.648 508.243 17.032L506.451 18.312C507.219 18.44 507.859 18.568 507.859 19.592V21.128C507.603 21.384 507.475 21.64 507.219 21.768H507.987L509.139 22.024C510.163 24.072 508.755 25.096 507.731 25.736C507.475 25.864 507.347 25.992 508.627 27.272C508.627 27.272 505.811 27.272 506.323 27.656C507.219 29.32 505.939 30.728 504.787 31.88C504.275 32.392 504.019 32.776 504.275 32.904C504.787 32.904 504.915 33.032 505.299 33.16C505.427 33.288 505.683 33.288 505.171 32.264L507.091 31.624C508.371 32.776 509.651 32.264 510.803 31.496C512.083 30.984 513.235 30.216 514.771 30.856L516.179 29.192L517.459 30.6L517.971 30.344V29.192L520.147 28.936C520.531 29.832 520.915 29.704 521.427 29.448C522.067 29.192 522.835 28.936 523.475 28.936C523.475 28.04 523.859 27.656 524.371 27.4C525.779 27.4 526.803 27.272 527.315 26.888L529.107 27.656C528.723 28.168 528.723 28.296 528.723 28.296C529.235 28.296 530.003 28.552 530.387 28.552C531.027 28.68 531.795 28.68 531.795 27.4H536.147L534.099 29.832L533.587 30.216C532.051 31.496 530.899 33.16 529.235 32.136C527.187 34.184 523.603 34.44 520.275 34.696C518.483 34.824 516.819 35.08 515.411 35.592L515.923 35.464L513.747 37C512.595 37.768 511.699 37.896 510.035 40.456C508.243 39.432 507.219 40.2 506.323 40.84C505.555 41.608 504.531 42.504 502.867 42.632C500.179 43.4 496.851 45.32 494.675 46.6L491.475 48.136C488.275 48.136 484.947 48.136 483.027 46.344C485.075 41.992 488.787 40.328 491.987 38.408C495.571 36.488 498.899 34.696 499.667 29.32C500.435 28.552 500.435 27.784 500.435 27.144C500.435 26.248 500.435 25.352 501.203 23.816V21.512H500.947C500.947 21.256 501.075 20.872 501.203 20.616V19.848C501.203 19.976 501.203 19.976 501.331 19.976C502.099 16.776 502.355 14.6 502.739 12.296L504.019 3.592ZM513.491 75.4V76.808C513.875 77.32 514.643 77.96 514.899 78.344L513.619 79.624C514.131 80.648 513.235 81.16 512.339 81.672H512.467C512.339 81.8 512.083 81.928 511.955 82.44L509.523 82.312C509.523 82.056 509.779 84.36 509.523 84.616C509.011 84.744 508.499 84.744 507.859 84.232L507.091 84.36L505.939 85.768C504.531 86.92 503.891 86.536 502.995 85.896C503.123 85.896 502.739 85.768 501.203 83.08H500.307C498.899 81.928 498.899 80.648 498.899 79.624C498.899 78.728 498.899 77.704 498.259 76.936C498.259 71.56 498.131 65.928 501.203 62.856C501.331 60.168 502.611 58.376 503.891 56.712C504.147 56.2 504.787 55.304 505.555 53.768C508.115 53.768 510.675 53.768 510.675 55.944V57.48C511.315 57.864 512.083 58.12 513.491 58.12C513.491 58.76 513.491 59.656 513.363 60.04C513.235 61.064 512.851 62.344 514.003 62.344L514.515 63.496C513.363 64.008 513.875 64.904 514.387 65.8C514.771 66.568 515.155 67.592 514.771 68.488V69.896L513.491 70.536H514.643C514.771 71.048 514.643 71.56 514.003 71.816C514.515 72.584 514.131 73.352 513.619 73.992C513.363 74.376 513.107 75.016 513.491 75.4ZM510.419 63.368L508.243 60.04L508.755 58.76H508.499C507.347 61.064 506.451 63.752 506.451 67.592H505.043V67.848H505.811L506.323 68.872C504.787 69.64 504.531 70.92 504.403 72.072C504.275 72.712 504.275 73.352 503.763 74.12C503.763 75.784 503.891 78.472 504.531 80.008C505.683 79.112 507.475 77.448 508.627 76.296L509.651 75.272C509.651 75.016 509.523 74.632 509.523 74.12C508.883 73.096 508.883 71.432 509.139 69.768C509.267 68.616 509.523 68.104 509.523 66.44L510.163 63.624L510.419 63.368ZM525.651 81.544L525.395 81.8C523.859 80.392 525.651 81.544 525.651 81.544ZM504.915 22.28C504.531 22.024 504.019 21.896 503.507 21.768C504.019 22.152 504.531 22.28 504.915 22.28ZM572.883 36.872C572.883 37 572.883 37 573.011 37.128V37C573.011 37 573.011 36.872 572.883 36.872ZM648.531 43.144L648.019 43.528C648.403 44.424 648.531 45.576 648.531 45.576V53.896C648.531 60.552 648.403 69.64 647.635 74.376C647.891 74.248 648.019 74.12 648.019 74.12L653.651 73.736L653.139 73.096C654.803 71.432 656.467 71.432 657.363 72.328C658.259 72.072 659.411 72.2 660.051 72.328C660.435 72.456 660.819 72.456 661.331 72.456C661.587 72.712 661.843 72.584 662.099 72.456C662.739 72.328 662.739 71.432 663.379 72.072C663.891 71.688 665.043 71.944 665.811 72.456C665.939 72.584 666.067 72.712 666.323 72.456H670.803C674.899 72.584 672.339 73.224 672.979 73.48C672.979 73.608 673.107 73.608 673.107 73.608C673.235 73.608 673.619 73.48 674.003 73.352C675.283 72.968 676.179 72.584 677.331 73.352C678.483 73.352 679.891 73.992 681.171 74.504C682.195 75.016 683.219 75.528 684.243 75.016H688.979L687.955 75.912C688.467 75.912 688.979 75.784 689.491 75.784V75.4L691.539 75.144C693.075 78.216 692.947 79.88 691.283 80.008C689.875 80.52 688.467 80.264 687.443 80.136C687.187 80.008 687.059 80.136 686.419 81.16C684.371 81.16 684.627 81.032 684.115 80.904C683.219 80.776 682.195 80.52 681.427 81.16C680.531 81.16 680.019 81.288 679.507 81.416C678.227 81.8 676.947 82.312 675.667 81.672C674.003 82.44 671.443 82.44 669.907 82.44C668.755 83.208 667.603 83.464 666.451 82.568C658.643 83.976 650.707 85.128 642.771 86.536L627.923 89.224H628.179C625.747 90.504 622.419 91.528 618.451 91.656C617.683 92.424 615.379 94.472 614.995 92.936C611.411 91.528 611.027 89.608 610.771 87.176C610.643 86.152 610.515 85.128 610.003 83.336C610.899 83.08 611.155 82.952 611.411 82.696C613.715 81.544 617.171 80.136 619.475 80.136C619.987 78.984 619.987 77.064 619.859 75.4C619.731 73.992 619.603 72.328 620.243 71.048L620.755 52.872C621.779 52.872 621.651 52.872 621.651 52.744C621.395 52.36 620.755 51.848 621.779 51.592C622.163 49.544 623.059 46.6 623.443 44.68C628.435 47.112 629.971 50.696 629.971 54.664C629.971 56.328 629.843 58.248 629.587 59.784L627.667 77.448C629.331 77.064 630.867 76.936 632.787 76.68C634.835 76.424 635.987 76.296 637.779 75.784C638.291 73.736 638.419 69.896 638.675 65.928C638.931 61.832 639.187 56.072 639.955 54.024C640.083 52.872 640.339 51.464 640.723 50.568C640.851 50.312 640.979 50.312 640.979 49.928H639.699L640.595 47.368H639.955C639.955 45.448 640.467 44.296 640.851 43.656C640.979 43.528 640.979 43.4 640.979 43.016C640.979 42.12 641.235 41.48 641.747 40.712C640.851 37.64 645.587 37.768 648.531 43.144ZM665.043 20.104L664.915 19.848C665.811 22.536 665.171 24.2 664.659 25.992C664.275 27.272 663.891 28.424 663.891 29.832V31.368L662.611 32.52C664.019 34.952 662.611 39.944 661.331 42.376C662.099 44.296 661.843 46.216 661.587 47.368C661.459 47.88 661.331 48.392 661.331 49.288H660.435C660.563 49.8 660.179 50.312 659.923 50.824V50.696C659.795 51.208 659.539 51.592 659.795 52.104L659.411 52.36C659.795 53 660.051 54.024 660.051 55.688C659.155 55.048 658.771 54.408 658.771 54.024V55.56H659.539L658.771 56.328V58.248L657.875 57.224L656.211 58.888V59.4H655.699L655.059 59.912V59.4C653.139 59.272 653.139 58.76 653.139 58.12C653.139 58.12 653.139 57.992 652.627 57.992C652.627 56.712 653.267 55.944 653.267 55.944L652.627 55.048C652.627 52.616 652.627 51.208 653.651 48.648C653.651 43.656 653.779 39.688 655.059 34.824C655.827 28.296 656.723 22.536 657.491 16.008L655.187 16.776L629.331 23.56C629.715 24.2 629.843 25.096 627.923 25.096C627.667 25.096 627.667 25.224 627.411 25.224C625.107 25.608 621.651 25.992 621.651 22.024C621.651 19.08 623.699 18.696 625.747 18.312C626.131 18.312 626.387 18.312 626.899 17.928C627.667 16.648 629.331 16.392 630.995 16.392C631.763 16.392 632.659 16.392 633.043 15.496C634.963 14.472 638.163 13.832 640.979 13.192C643.155 12.808 645.331 12.296 646.739 11.656C647.251 11.656 649.043 11.144 650.707 10.504C652.243 10.12 649.299 9.48 654.419 9.352C655.187 8.712 656.339 8.45599 657.619 8.072C658.131 7.94399 658.899 7.432 659.539 6.66399C665.427 8.2 665.299 12.936 665.171 17.416C665.171 18.312 665.043 19.208 665.043 20.104ZM705.343 7.56L705.215 7.432C705.215 7.56 705.215 7.81599 705.343 7.94399C705.983 7.81599 706.495 7.81599 707.263 7.81599H708.799C709.183 7.432 709.695 7.048 710.463 6.79199V6.92C711.103 6.66399 711.743 6.28 710.719 4.104H713.919C715.327 2.952 716.735 4.104 718.015 5.63999C718.783 6.536 719.551 7.56 720.959 8.2V17.16C719.679 19.72 718.527 22.152 718.527 27.528C718.015 27.144 717.887 26.76 717.887 25.992C717.759 26.248 717.631 26.376 717.247 26.376V27.144C717.375 27.144 717.631 27.272 717.759 27.272C717.759 27.272 717.375 29.704 716.095 30.984L716.479 31.368L720.575 29.832C724.415 28.552 726.719 27.656 731.071 26.888C731.199 25.096 732.991 25.096 734.911 24.84C735.551 24.84 736.191 24.712 737.343 23.816V22.792C738.239 22.792 739.519 22.92 739.519 22.92C740.415 22.024 741.567 22.28 742.719 22.408C743.103 22.536 743.359 22.664 743.743 21.512C744.767 21.512 745.919 21.512 745.919 21.128C747.071 19.592 747.967 19.976 748.863 20.488C748.735 20.232 748.607 19.848 748.607 19.08C751.679 19.08 751.167 19.592 751.807 19.976C752.319 20.36 752.447 20.872 755.135 19.976L753.983 22.536L754.111 22.408C753.855 23.816 753.855 25.224 751.807 24.584C751.423 24.84 750.911 24.84 750.271 24.84C750.143 24.84 750.015 24.84 749.759 24.968C749.503 26.376 745.279 29.064 745.279 29.064H744.639C744.511 30.472 743.359 30.728 742.335 30.856C739.135 30.6 739.647 31.88 739.519 32.008C738.751 33.416 738.111 34.824 736.191 33.672C735.423 34.184 734.783 34.056 734.015 34.056C733.887 34.056 733.759 34.056 733.375 35.08C729.535 36.872 725.695 37.896 721.855 39.176C717.119 40.584 711.103 42.632 706.239 45.32H701.375C700.095 44.168 699.967 43.4 699.711 42.376C699.583 43.656 699.199 45.448 697.919 46.728C694.719 46.728 694.079 45.576 693.439 44.168C693.183 43.528 692.799 42.888 692.159 42.248C692.799 41.096 692.799 39.944 692.799 38.536C692.799 37.256 692.799 36.104 693.567 34.568C693.567 33.416 693.695 31.624 694.079 30.216C694.335 28.68 694.719 27.144 694.719 25.864C697.279 17.032 697.279 9.224 697.279 0.00799561C703.807 1.672 704.575 4.87199 705.343 7.56ZM721.727 65.544H721.343C721.599 65.288 722.239 65.16 723.135 65.16C721.983 64.776 721.599 65.032 721.087 65.16H721.215C720.831 65.288 720.447 65.416 719.679 65.416C719.167 65.416 718.271 65.8 717.759 65.928C717.119 66.44 716.223 66.568 714.943 66.568C705.599 69.128 698.559 71.944 690.495 75.784L688.831 74.12C686.655 74.12 686.655 73.608 686.655 72.84V72.584C686.655 72.2 686.655 72.328 686.015 72.2C684.735 72.072 683.199 71.432 682.175 69.64C686.015 67.336 686.271 67.464 687.551 66.824C689.087 66.184 690.751 65.544 693.567 63.624C693.951 64.136 694.207 63.88 694.463 63.624C695.487 62.6 696.639 61.576 697.919 62.856C699.199 62.6 700.351 61.96 701.631 61.064C703.295 60.168 704.959 59.272 707.007 59.144C707.135 59.144 707.519 59.016 707.647 58.888C709.695 57.992 711.871 56.968 713.023 57.352C714.175 56.712 716.351 56.584 717.631 56.584C717.887 56.328 718.271 56.072 718.271 55.816C718.271 55.816 718.527 55.944 719.679 55.944V54.536L721.855 54.28C722.111 54.664 722.239 54.536 722.239 54.536C722.879 54.024 723.519 53.384 724.415 53.512C725.823 51.976 727.615 52.488 729.279 53C730.047 53.256 730.815 53.256 731.327 51.976L733.503 52.104L735.679 51.208L736.831 50.056L736.959 51.848L737.727 50.44C743.103 53 744.383 45.192 746.175 51.72L745.151 53.896C745.535 53.64 745.919 53.384 745.919 52.872H750.271L744.639 57.48C742.463 57.48 742.335 57.352 742.335 57.352V58.76C740.927 59.528 740.159 59.784 739.135 59.784C738.751 59.784 738.495 59.784 736.575 60.808V60.296C735.295 60.296 732.863 60.424 730.559 62.856C730.047 62.856 728.511 62.728 727.999 62.728C726.719 62.6 725.567 62.6 726.079 65.288C727.871 65.544 729.535 65.928 729.663 65.928V66.696C729.663 68.104 729.279 69.256 728.383 72.328C728.383 72.968 727.743 73.224 726.719 73.736C726.975 73.736 727.231 73.608 727.231 74.76C727.231 75.784 727.103 76.552 726.975 77.448C726.591 79.624 726.207 82.184 726.463 82.568L725.567 82.952C725.567 83.336 725.567 83.848 725.823 84.616L725.695 84.488C726.079 85.64 726.463 87.304 725.311 89.736L724.927 89.608C725.439 90.12 725.311 90.632 724.287 91.528H723.519C723.391 92.168 722.623 92.68 722.111 93.192C722.495 92.936 722.623 92.808 723.135 92.808C724.415 95.112 723.007 95.88 722.111 96.52C721.983 96.648 721.855 96.776 723.007 97.8H715.967C715.967 97.16 715.967 96.648 716.223 96.392C715.455 95.496 715.583 94.984 715.711 94.344C715.839 93.832 715.967 93.192 714.559 92.552C715.455 89.608 715.583 87.304 715.839 85.256C716.223 82.824 716.607 80.392 717.247 78.472V77.32C717.759 76.424 717.631 75.528 717.503 75.144C717.119 74.504 716.991 74.12 718.527 73.224V72.328L719.679 71.688C719.167 71.688 719.039 70.792 719.167 70.152C719.295 68.616 719.551 66.44 721.727 65.544ZM712.127 84.488L712.255 84.872L710.847 89.992C709.695 93.448 708.543 97.16 708.543 101.768C708.159 101.768 708.159 101.896 708.159 102.024C708.287 102.792 708.415 103.944 707.135 104.84C707.263 105.224 707.519 105.352 707.775 105.736C709.311 104.84 710.847 104.712 712.127 104.712C712.895 104.712 713.791 104.712 717.247 104.072C717.759 103.816 718.655 103.432 719.039 103.048C719.807 102.408 720.831 101.64 723.263 101.64L731.839 99.72V100.36C732.223 100.104 732.735 99.976 733.375 99.72C734.271 98.952 735.295 99.08 736.191 99.336C736.447 99.464 736.703 99.336 737.343 98.44L738.111 98.568V98.312C739.007 98.312 740.415 98.312 740.671 98.44C741.055 98.44 741.695 98.184 744.895 98.312C745.407 97.8 746.431 96.776 747.967 97.672L750.655 96.52V96.904C752.063 96.648 753.599 97.288 753.599 97.288H755.647V97.8L756.031 98.056C756.543 98.056 757.055 98.184 757.311 98.184C757.567 98.184 758.079 98.312 758.207 98.312L758.719 99.336L757.567 99.976H757.823C757.311 100.488 756.927 100.872 755.775 100.872C754.495 101.256 751.551 102.28 750.655 102.664V101.512C750.399 101.768 749.759 102.408 749.503 102.792C748.351 104.072 747.199 105.224 745.407 104.2L743.103 106.632L742.847 106.376C741.823 107.144 739.775 107.144 738.495 107.144L738.111 106.632C736.831 107.784 734.911 109.704 734.271 107.656L726.591 110.6C726.207 110.216 725.951 110.472 725.695 110.6C725.311 110.984 724.927 111.368 724.159 111.624C722.623 112.52 720.191 113.16 718.399 113.544C716.095 114.056 713.919 114.44 711.743 116.744H709.183C708.287 117.384 707.391 117.128 706.495 117C706.367 117 706.239 117 705.343 118.536L695.871 112.392C695.871 109.96 695.871 106.376 697.407 103.432C697.151 102.792 697.279 102.024 697.791 101.128C698.047 100.36 698.431 99.464 698.431 98.44H699.711L697.663 96.648H699.583C699.455 96.136 699.071 95.624 699.839 94.856V92.168L700.863 91.016C700.351 89.736 700.991 89.224 701.375 88.328C701.631 88.072 701.887 87.688 701.631 87.56L702.015 86.664C701.631 85.384 702.143 84.36 702.655 83.592C702.911 83.336 703.039 83.08 703.423 82.312C703.423 81.288 703.807 80.52 705.983 78.472C707.519 80.008 707.775 80.264 708.031 80.392C709.439 81.544 711.359 82.696 712.127 84.488ZM700.863 37.384L700.735 37.512C707.903 35.08 709.183 28.68 710.463 22.152C711.103 18.952 711.871 15.496 713.407 12.424L712.895 11.784C712.767 11.784 712.639 12.04 712.639 12.04C709.695 13.192 706.751 14.344 704.831 17.16C705.471 18.952 704.831 20.232 704.191 21.768C703.807 22.664 703.423 23.56 703.423 24.84C703.423 26.12 703.423 26.12 702.271 27.528C701.631 27.912 701.759 28.424 702.015 28.808C702.655 29.832 704.063 30.344 702.271 30.344V30.984C702.271 31.624 702.015 32.392 701.759 33.288C701.375 34.44 700.863 35.848 700.863 37.384ZM827.432 39.56L827.048 40.2L828.328 39.56L828.456 39.688V38.408H830.12C831.912 36.36 832.424 36.488 832.552 37.384C832.936 37.384 833.192 37.384 833.448 37.256C833.832 37.256 834.216 37.128 834.216 35.976H838.184L842.408 31.752V32.648C843.56 32.648 844.328 32.776 844.712 33.032L845.096 32.648H846.504L848.936 31.88L849.32 31.752L851.624 22.152C855.336 22.152 856.104 22.92 857.128 23.432C857 23.432 856.872 23.304 859.304 23.304C858.408 24.328 858.28 24.584 858.28 24.584C858.664 24.968 859.048 25.48 858.664 26.376C859.048 27.656 858.92 28.936 858.664 29.832C858.408 30.6 858.152 31.368 858.664 31.88C858.152 34.568 857.768 37.256 857.512 39.688C857.256 42.12 857 44.424 856.36 46.856C855.848 47.752 856.104 49.8 856.36 51.08C856.616 52.488 856.872 54.024 856.104 55.688H855.208C856.36 56.968 855.72 58.632 855.336 59.784C855.208 60.168 855.08 60.808 855.08 60.808V61.32C856.232 61.576 855.592 62.216 854.952 62.984C854.824 63.24 854.568 63.624 854.696 63.88L853.928 64.264C853.8 64.776 853.672 65.16 853.672 65.544C853.416 66.312 853.16 66.824 854.056 67.72C852.52 68.488 852.776 69.128 853.16 69.64C853.544 70.28 853.928 70.92 853.928 71.304L851.88 72.328C852.648 73.608 852.392 74.888 851.88 75.784C851.496 76.424 851.24 77.064 851.752 78.344L851.368 78.728H851.752C851.752 81.032 850.6 81.288 849.448 81.544V81.8L847.272 82.056C845.736 79.112 845.736 75.784 845.736 74.632L846.888 52.872L847.912 37.896C846.376 38.408 844.712 39.176 842.92 39.816H843.048L837.544 41.736C836.52 42.632 834.984 43.528 833.704 44.168V44.04C832.936 44.552 832.168 44.808 831.016 45.96C835.24 48.392 829.224 47.368 829.352 47.368C828.968 47.24 828.584 47.112 826.152 49.672C826.152 46.728 826.024 46.6 826.024 46.472V46.6C825.896 46.216 825.768 45.704 825.768 45.32H825.128L825 44.168H823.08C824.36 42.888 824.36 42.888 824.488 42.632C824.488 42.504 824.744 42.248 825.128 41.864H824.872L826.152 40.712C826.152 40.712 826.28 40.584 826.664 40.456L827.432 39.56ZM808.488 31.496L810.152 33.16V49.288C810.152 49.8 810.024 50.312 809.896 50.824C809.768 51.464 809.512 52.232 810.152 52.232L809 66.568V66.696L810.024 66.568C812.2 65.288 812.84 64.648 813.608 64.008C814.376 63.24 815.016 62.472 817.448 62.472C817.96 62.728 818.472 62.216 818.984 61.832C819.752 61.192 820.52 60.68 821.544 60.808C821.544 60.68 821.8 60.552 822.056 60.808C822.44 60.168 822.824 59.784 823.08 59.272L823.592 59.4C824.36 58.632 825.512 58.888 826.664 58.888C825.768 55.944 828.968 56.968 830.248 56.968C830.888 56.84 831.656 55.816 831.784 56.2C831.272 51.208 834.856 57.736 834.856 57.864C834.856 57.992 834.856 57.992 836.648 57.992L831.656 61.32H831.784C830.76 62.344 828.456 64.264 826.92 64.776C824.488 66.312 821.928 67.464 819.88 68.36C817.704 69.256 815.4 70.024 813.096 71.944C811.688 71.944 810.792 72.328 809.896 72.456C808.616 72.968 806.056 73.352 804.52 73.352V75.528C804.008 75.144 801.704 73.48 801.32 73.096H801.448C800.424 72.456 799.784 72.2 799.656 71.432C799.016 69.128 798.76 66.952 798.76 65.032C798.76 63.24 799.016 61.448 799.656 59.656L800.808 37.768C801.448 36.616 801.448 35.464 801.448 34.44C801.448 33.416 801.448 32.52 802.472 31.368H803.24C804.264 30.088 808.488 31.496 808.488 31.496ZM842.408 33.416V33.8C842.536 33.8 842.664 33.672 842.792 33.544C842.664 33.672 842.408 33.672 842.408 33.416ZM913.13 63.88C913.258 62.728 913.642 62.216 917.61 62.216C917.61 64.264 917.866 65.032 918.122 65.288C918.506 65.928 918.89 65.672 918.89 69.512L917.61 68.232V71.176C914.154 69.512 914.154 69.896 913.898 70.024V69.896C913.514 70.152 913.002 70.28 912.234 70.28V72.84C910.826 72.84 909.93 72.712 909.546 72.584L908.65 73.224C908.394 73.352 908.266 73.48 906.858 75.016L905.962 74.248C905.45 75.016 904.554 75.528 903.53 75.656L902.25 76.936L885.098 82.568C883.69 81.928 882.538 81.8 882.026 81.672C880.106 81.544 878.186 81.032 877.162 78.984V72.968C877.162 72.968 878.826 72.584 879.338 72.328H879.21L881.13 71.048C876.906 68.488 876.906 64.264 877.29 60.168C877.418 58.248 877.546 55.432 877.162 53.384L878.442 37.128C878.954 36.232 879.082 35.08 879.21 33.928C879.466 31.752 879.85 29.192 883.178 27.016C886.506 27.016 886.634 28.68 887.146 30.216C887.274 30.6 887.274 30.856 887.018 31.24L887.914 30.984C888.298 30.984 888.938 30.728 889.706 30.216C890.218 29.96 890.346 29.704 891.882 29.704H895.978L900.202 28.936C900.97 29.192 901.738 29.32 902.634 30.216C902.634 31.368 902.634 33.8 904.426 33.8C903.402 35.208 904.042 37.896 904.682 39.176C905.194 40.2 906.09 41.864 905.322 42.76C904.682 43.912 903.786 44.936 903.146 45.576C902.89 45.832 902.634 45.96 902.634 46.6C902.634 46.6 902.762 48.264 901.354 48.264C901.482 48.648 901.866 49.032 902.122 49.288C902.89 50.056 903.402 50.696 902.762 51.08C903.018 52.36 902.25 53.512 901.482 54.408C901.354 54.792 900.97 55.56 901.354 56.072L899.05 58.504C901.354 59.4 900.842 59.784 900.074 60.296C899.434 60.68 898.666 61.064 898.666 62.088C898.666 62.088 897.258 62.088 897.258 62.856V65.416L899.05 64.52C899.818 65.288 900.33 65.288 900.074 65.544L902.634 64.136V64.648C903.274 64.392 904.298 64.392 905.194 64.392C905.322 64.392 905.578 64.392 905.706 64.136H907.882C908.01 64.648 908.394 65.288 908.778 64.904H908.906L908.266 64.264C908.266 62.088 910.954 62.344 913.13 63.88ZM948.714 26.376C947.946 29.064 947.69 32.52 947.306 35.848C946.922 39.304 946.538 42.632 946.026 45.32C946.026 47.24 945.77 49.544 944.618 50.824C944.618 51.08 944.746 51.336 944.874 51.464C945.13 51.976 945.13 53 944.106 53.896H943.338C943.338 54.664 943.338 55.56 943.466 56.328C943.722 59.272 943.85 61.96 941.93 64.264C942.314 65.16 943.338 66.824 941.93 67.464C941.93 68.872 941.802 70.792 940.522 72.328C940.522 73.224 940.01 73.992 939.626 74.76C939.498 75.4 939.242 75.912 939.242 76.68C933.994 79.112 933.994 73.992 933.994 72.328L936.682 43.912V37.128C932.074 39.56 926.826 42.12 922.218 44.424H922.474C920.554 45.96 917.354 48.52 914.922 50.312L914.538 51.336C909.802 51.336 909.93 49.416 910.058 47.112C910.186 45.96 910.186 44.808 909.674 43.784C910.186 43.272 910.186 42.632 910.058 42.12C909.802 40.712 909.674 39.56 912.106 40.072L912.874 39.56C913.002 39.688 913.386 39.432 913.642 39.304C914.282 38.92 914.41 38.664 915.306 38.664C915.69 37.768 916.586 37.896 917.61 37.896C917.61 37.896 917.738 37.896 919.274 35.976C919.914 34.824 920.298 33.16 922.474 35.08C922.986 35.08 923.114 34.824 923.114 33.8C923.114 33.8 925.162 33.544 925.674 33.416H925.546C927.082 32.776 928.234 31.752 928.362 33.8H931.818C931.946 33.416 931.946 32.52 931.946 31.752C931.946 30.728 931.946 29.576 933.866 27.656L934.506 28.168C934.89 27.656 935.53 27.144 936.17 26.632C936.554 26.376 936.426 26.376 936.81 25.992C938.218 22.664 940.65 18.44 941.93 15.112C942.314 15.624 943.85 15.752 944.362 16.264C946.666 18.568 949.738 22.024 948.714 26.376ZM883.818 68.744C883.818 69.256 884.074 69.768 883.946 70.408L885.098 69.768C885.866 69.384 886.506 69.128 885.866 68.104L886.762 67.592C886.89 67.08 887.146 66.824 887.658 66.312C887.786 66.184 888.042 66.056 888.042 65.544C890.602 59.912 892.138 54.664 893.93 49.288C894.442 47.624 895.082 45.32 896.234 42.248L896.106 42.504V35.464L890.602 37.384L890.73 37.768C889.706 38.024 888.042 39.816 886.506 41.224C886.506 42.76 886.122 44.296 885.738 45.448C885.354 46.216 885.098 47.496 885.098 49.16C885.738 51.208 885.738 53.256 885.738 55.304C885.738 57.352 885.738 59.528 886.506 61.576L885.226 62.856C885.994 64.264 884.97 65.672 883.818 66.824L883.946 67.464C883.434 67.592 883.562 68.232 883.818 68.744ZM913.258 63.752L913.13 63.88H913.258V63.752ZM988.041 10.888C988.681 10.632 989.577 10.12 990.729 10.504V9.864C995.593 12.04 993.545 14.6 992.137 16.136C993.161 16.904 992.649 17.8 992.265 18.44L992.009 18.696C990.473 19.464 989.321 21.384 988.297 23.048C987.785 23.816 986.761 25.224 986.761 25.224C985.865 25.224 985.737 25.736 985.609 26.12C985.097 27.4 984.713 28.424 983.433 28.68C982.921 29.704 981.513 31.24 980.233 32.136C979.081 33.8 978.313 34.568 977.801 35.592C977.289 36.488 976.521 37.64 974.985 38.28V39.176C974.985 40.456 974.089 40.456 973.321 40.456C973.577 40.584 973.833 40.584 973.833 40.968L973.321 40.712C973.577 40.968 973.833 41.352 973.833 41.736L971.529 44.296C972.937 43.528 973.065 43.656 973.833 43.272C976.009 42.376 978.569 41.352 981.513 39.432L982.793 40.84C983.689 39.56 984.969 38.152 986.505 38.92C987.529 37.64 989.449 37 990.345 38.536H992.137C992.137 39.944 993.033 40.968 993.033 40.968V42.248C993.801 42.248 993.801 42.376 993.801 42.376C993.801 43.016 993.545 43.656 992.777 44.552L990.217 48.648L989.705 50.312L989.321 50.696H989.705C989.705 51.848 988.681 52.872 987.401 53.256H987.529C986.889 53.384 986.121 53.768 985.993 54.664H985.737C984.969 57.608 982.793 60.424 980.617 62.856H980.873L976.777 66.824C977.033 67.08 977.545 67.592 977.673 67.848H977.545C977.673 68.232 977.929 68.488 978.057 68.744C978.441 68.232 978.185 67.592 978.825 66.824C979.977 65.032 981.513 63.368 983.561 64.648H983.817C983.561 64.648 983.561 64.52 983.561 64.008C985.609 64.008 986.633 64.136 987.273 64.264C987.913 64.392 988.553 64.52 989.321 64.52L988.169 63.496L993.161 60.68C994.441 60.424 995.977 60.424 997.001 60.424C997.001 62.6 997.641 62.856 998.409 63.24C999.049 63.624 1000.2 64.136 1000.59 64.52C1000.59 65.8 999.945 66.568 999.433 67.208C999.049 67.72 998.665 68.232 999.305 69.64L998.665 70.408L999.049 71.176C997.769 71.944 997.257 73.096 996.745 74.248L995.593 76.04L994.697 76.808C995.849 78.088 994.057 79.88 992.521 81.16H992.649L990.857 83.08L990.601 82.952L989.961 83.464H990.089C989.833 83.72 989.705 83.848 989.705 84.36L986.761 87.176C986.121 87.176 985.865 87.432 985.737 87.688C985.225 88.2 984.969 88.456 982.921 88.456C982.665 88.968 982.409 89.48 982.281 89.992C981.769 91.016 982.153 91.912 980.617 91.912L978.313 94.472H977.801L978.825 96.136L977.545 96.648V96.776C978.057 96.52 978.697 96.52 979.337 96.264C979.849 96.136 980.617 95.752 981.385 94.472C983.433 94.472 984.457 93.832 985.481 93.064C986.761 92.168 988.425 91.272 990.601 91.784L992.265 91.016C993.673 90.376 995.337 89.608 995.721 88.712L997.001 88.968C997.001 88.84 997.257 88.584 997.257 88.456L999.305 88.712V89.096C1000.59 88.2 1002.25 87.432 1004.17 87.176V85.896C1005.83 85.896 1006.6 86.024 1006.99 86.408H1007.75C1008.91 85.384 1009.93 84.744 1011.47 84.744H1013.51L1013.64 84.872L1014.28 83.72L1016.46 83.976L1018.76 84.232C1019.4 84.104 1020.04 84.36 1020.94 84.872H1021.19L1021.45 83.592C1023.75 83.848 1023.75 85.64 1023.75 87.176H1019.66C1019.79 87.816 1020.17 88.456 1021.71 88.712C1020.68 89.224 1019.91 89.608 1019.91 89.992H1019.02L1018.25 90.888H1017.61C1017.1 93.192 1013.77 93.576 1010.7 93.832C1009.55 93.96 1008.52 94.088 1007.37 94.344L1001.74 98.056V97.8C1000.84 98.056 999.689 98.056 998.665 98.056C997.641 98.056 996.489 98.056 993.289 101.256V100.616C991.369 102.024 988.809 102.792 986.249 103.688C984.457 104.2 982.665 104.712 981.641 105.224H982.025C981.513 105.736 980.105 105.992 978.825 106.12C977.545 106.248 976.265 106.376 975.497 107.656C975.497 107.656 973.321 108.552 973.321 107.4C972.169 107.784 970.377 107.528 967.945 106.376L966.025 103.688L966.793 103.048L965.769 102.536C964.105 101.896 962.313 101.64 964.105 99.72C964.233 99.08 964.873 97.928 965.641 97.032C966.153 96.392 966.665 95.624 966.665 94.472H966.921C968.713 92.68 969.353 91.784 969.993 91.016C971.401 89.096 972.937 86.792 976.265 85.128C976.393 83.592 978.313 82.568 979.849 81.544C980.489 81.16 981.001 80.776 981.001 80.392V79.112C983.689 77.576 984.969 75.784 986.377 73.992C987.017 73.224 987.529 72.584 988.297 71.944C988.169 71.944 988.041 71.688 987.913 71.56C987.913 71.56 988.041 71.432 988.041 71.304L987.913 71.432V71.304C987.785 71.176 987.785 71.304 987.913 71.432L985.865 73.352V72.712C982.409 73.736 979.465 75.272 976.009 76.552C974.345 77.32 970.889 78.728 968.969 79.368V78.088C968.329 77.96 967.817 77.96 967.433 77.448C964.105 82.056 965.897 77.192 964.617 75.016C963.465 73.864 963.977 72.2 964.489 70.92L965.513 68.872H966.665C966.921 66.696 968.457 64.776 969.609 63.496C970.505 62.472 971.401 61.448 971.401 59.656C974.985 56.968 977.289 53.64 979.721 50.056C980.233 49.416 980.617 48.648 981.129 47.88C980.745 47.752 980.361 47.368 980.105 46.856C976.905 49.032 973.577 50.952 969.225 51.976C967.689 51.976 967.177 51.464 966.921 50.952C966.921 50.952 966.793 50.824 967.049 50.696L966.537 50.44L966.153 50.824H963.081L962.825 49.544C963.209 49.544 962.953 48.904 962.697 48.264C962.313 47.24 962.057 46.088 962.825 45.192C962.313 44.296 962.953 43.656 963.593 42.76C963.849 42.504 964.105 42.12 964.105 41.48C964.745 40.84 965.129 40.2 965.641 39.304C966.281 38.152 967.049 36.872 968.073 36.36H967.817C969.865 33.16 972.041 31.112 974.345 28.936C975.753 27.656 977.545 26.248 978.953 24.2L978.825 24.328C979.465 22.664 980.745 21.384 982.281 20.104C983.689 18.824 985.225 17.672 985.865 15.496H983.945C979.849 16.904 975.625 18.696 971.529 20.104V21.512C971.273 21.512 969.737 21.64 969.225 21.64C967.049 22.024 963.465 22.152 962.825 20.36C961.417 20.36 961.673 20.104 962.697 19.08C962.697 19.08 962.825 19.336 962.825 17.416C966.665 18.568 968.457 17.672 970.377 16.776L972.553 15.88C975.369 14.984 977.673 14.6 978.697 13.704C980.873 11.784 981.513 12.168 981.641 12.68L982.281 12.424L984.841 12.296L985.353 11.784C985.865 11.784 986.889 11.528 988.041 10.888ZM975.625 96.776L975.881 96.52C975.753 96.52 975.497 96.648 975.369 96.648L975.625 96.776Z"/></svg>